<?xml version="1.0" encoding="UTF-8" standalone="no"?>
<svg
   xmlns:dc="http://purl.org/dc/elements/1.1/"
   xmlns:cc="http://creativecommons.org/ns#"
   xmlns:rdf="http://www.w3.org/1999/02/22-rdf-syntax-ns#"
   xmlns:svg="http://www.w3.org/2000/svg"
   xmlns="http://www.w3.org/2000/svg"
   xmlns:sodipodi="http://sodipodi.sourceforge.net/DTD/sodipodi-0.dtd"
   xmlns:inkscape="http://www.inkscape.org/namespaces/inkscape"
   width="500"
   height="300"
   aria-label="A chart."
   style="overflow: hidden;"
   id="svg2"
   version="1.1"
   inkscape:version="0.91 r13725"
   sodipodi:docname="distance01b.svg">
  <metadata
     id="metadata108">
    <rdf:RDF>
      <cc:Work
         rdf:about="">
        <dc:format>image/svg+xml</dc:format>
        <dc:type
           rdf:resource="http://purl.org/dc/dcmitype/StillImage" />
      </cc:Work>
    </rdf:RDF>
  </metadata>
  <sodipodi:namedview
     pagecolor="#ffffff"
     bordercolor="#666666"
     borderopacity="1"
     objecttolerance="10"
     gridtolerance="10"
     guidetolerance="10"
     inkscape:pageopacity="0"
     inkscape:pageshadow="2"
     inkscape:window-width="640"
     inkscape:window-height="480"
     id="namedview106"
     showgrid="false"
     inkscape:zoom="0.606"
     inkscape:cx="221.12211"
     inkscape:cy="150"
     inkscape:window-x="0"
     inkscape:window-y="0"
     inkscape:window-maximized="0"
     inkscape:current-layer="svg2" />
  <defs
     id="_ABSTRACT_RENDERER_ID_0">
    <clipPath
       id="_ABSTRACT_RENDERER_ID_1">
      <rect
         x="94"
         y="58"
         width="313"
         height="185"
         id="rect6" />
    </clipPath>
  </defs>
  <path
     style="fill:#ffffff;stroke:none;stroke-width:0"
     d="m 0,0 500,0 0,300 -500,0 z"
     id="rect8" />
  <g
     id="g10">
    <g
       style="font-weight:bold;font-size:12px;font-family:Arial;text-anchor:start;fill:#000000;stroke:none;stroke-width:0"
       id="text12">
      <path
         d="m 94.867187,28.610157 3.169922,0 q 1.072266,0 1.634766,0.164063 0.755855,0.222656 1.294925,0.791015 0.53906,0.56836 0.82031,1.394531 0.28125,0.820313 0.28125,2.027344 0,1.060547 -0.26367,1.828125 -0.32227,0.9375 -0.91992,1.517578 -0.45118,0.439453 -1.218754,0.685547 -0.574219,0.181641 -1.535157,0.181641 l -3.263672,0 0,-8.589844 z m 1.734375,1.453125 0,5.689453 1.294922,0 q 0.726563,0 1.048828,-0.08203 0.421875,-0.105469 0.697266,-0.357422 0.28125,-0.251953 0.457032,-0.826172 0.17578,-0.580078 0.17578,-1.576172 0,-0.996093 -0.17578,-1.529297 -0.175782,-0.533203 -0.492188,-0.832031 -0.316406,-0.298828 -0.802735,-0.404297 -0.363281,-0.08203 -1.423828,-0.08203 l -0.779297,0 z"
         style="font-weight:bold;font-size:12px;font-family:Arial;text-anchor:start;fill:#000000;stroke:none;stroke-width:0"
         id="path3529" />
      <path
         d="m 103.5332,30.133595 0,-1.523438 1.64649,0 0,1.523438 -1.64649,0 z m 0,7.066406 0,-6.222656 1.64649,0 0,6.222656 -1.64649,0 z"
         style="font-weight:bold;font-size:12px;font-family:Arial;text-anchor:start;fill:#000000;stroke:none;stroke-width:0"
         id="path3531" />
      <path
         d="m 106.28125,35.42461 1.65234,-0.251953 q 0.10547,0.480469 0.42774,0.732422 0.32226,0.246094 0.90234,0.246094 0.63867,0 0.96094,-0.234375 0.2168,-0.164063 0.2168,-0.439453 0,-0.1875 -0.11719,-0.310547 -0.12305,-0.117188 -0.55078,-0.216797 -1.99219,-0.439453 -2.52539,-0.802735 -0.73828,-0.503906 -0.73828,-1.40039 0,-0.808594 0.63867,-1.359375 0.63867,-0.550781 1.98047,-0.550781 1.27734,0 1.89843,0.416015 0.6211,0.416016 0.85547,1.230469 l -1.55273,0.287109 q -0.0996,-0.363281 -0.38086,-0.55664 -0.27539,-0.19336 -0.79102,-0.19336 -0.65039,0 -0.93164,0.181641 -0.1875,0.128906 -0.1875,0.333984 0,0.175782 0.16407,0.298828 0.22265,0.164063 1.53515,0.462891 1.31836,0.298828 1.83985,0.732422 0.51562,0.439453 0.51562,1.224609 0,0.855469 -0.71484,1.470703 -0.71485,0.615235 -2.11524,0.615235 -1.27148,0 -2.01562,-0.515625 -0.73828,-0.515625 -0.9668,-1.400391 z"
         style="font-weight:bold;font-size:12px;font-family:Arial;text-anchor:start;fill:#000000;stroke:none;stroke-width:0"
         id="path3533" />
      <path
         d="m 116.39453,30.977345 0,1.3125 -1.125,0 0,2.507812 q 0,0.761719 0.0293,0.890625 0.0352,0.123047 0.14648,0.205078 0.11719,0.08203 0.28125,0.08203 0.22852,0 0.66211,-0.158203 l 0.14063,1.277344 q -0.57422,0.246094 -1.30078,0.246094 -0.44532,0 -0.80274,-0.146485 -0.35742,-0.152343 -0.52734,-0.386718 -0.16406,-0.240235 -0.22852,-0.644532 -0.0527,-0.287109 -0.0527,-1.160156 l 0,-2.71289 -0.75586,0 0,-1.3125 0.75586,0 0,-1.236329 1.65234,-0.960937 0,2.197266 1.125,0 z"
         style="font-weight:bold;font-size:12px;font-family:Arial;text-anchor:start;fill:#000000;stroke:none;stroke-width:0"
         id="path3535" />
      <path
         d="m 118.7793,32.875782 -1.49414,-0.269531 q 0.25195,-0.902344 0.86718,-1.335938 0.61524,-0.433593 1.82813,-0.433593 1.10156,0 1.64062,0.263671 0.53907,0.257813 0.75586,0.66211 0.22266,0.398437 0.22266,1.470703 l -0.0176,1.921875 q 0,0.820312 0.0762,1.212891 0.082,0.386718 0.29883,0.832031 l -1.6289,0 q -0.0645,-0.164063 -0.15821,-0.486328 -0.041,-0.146485 -0.0586,-0.19336 -0.42188,0.410157 -0.90235,0.615235 -0.48046,0.205078 -1.02539,0.205078 -0.96093,0 -1.51757,-0.521485 -0.55079,-0.521484 -0.55079,-1.318359 0,-0.527344 0.25196,-0.9375 0.25195,-0.416016 0.70312,-0.632812 0.45703,-0.222657 1.3125,-0.386719 1.1543,-0.216797 1.59961,-0.404297 l 0,-0.164063 q 0,-0.474609 -0.23437,-0.673828 -0.23438,-0.205078 -0.88477,-0.205078 -0.43945,0 -0.68555,0.175781 -0.24609,0.169922 -0.39843,0.603516 z m 2.20312,1.335938 q -0.3164,0.105468 -1.00195,0.251953 -0.68555,0.146484 -0.89649,0.287109 -0.32226,0.228516 -0.32226,0.580078 0,0.345703 0.25781,0.597656 0.25781,0.251954 0.65625,0.251954 0.44531,0 0.84961,-0.292969 0.29883,-0.222656 0.39258,-0.544922 0.0645,-0.210938 0.0645,-0.802734 l 0,-0.328125 z"
         style="font-weight:bold;font-size:12px;font-family:Arial;text-anchor:start;fill:#000000;stroke:none;stroke-width:0"
         id="path3537" />
      <path
         d="m 129.88867,37.200001 -1.64648,0 0,-3.175781 q 0,-1.007813 -0.10547,-1.300782 -0.10547,-0.298828 -0.3457,-0.46289 -0.23438,-0.164063 -0.56836,-0.164063 -0.42774,0 -0.76758,0.234375 -0.33985,0.234375 -0.46875,0.621094 -0.12305,0.386719 -0.12305,1.429687 l 0,2.81836 -1.64648,0 0,-6.222656 1.52929,0 0,0.914062 q 0.81446,-1.054687 2.05079,-1.054687 0.54492,0 0.99609,0.199218 0.45117,0.19336 0.67969,0.498047 0.23437,0.304688 0.32226,0.691406 0.0937,0.386719 0.0937,1.107422 l 0,3.867188 z"
         style="font-weight:bold;font-size:12px;font-family:Arial;text-anchor:start;fill:#000000;stroke:none;stroke-width:0"
         id="path3539" />
      <path
         d="m 136.99023,32.817188 -1.62304,0.292969 q -0.082,-0.486328 -0.375,-0.732422 -0.28711,-0.246094 -0.75,-0.246094 -0.61524,0 -0.98438,0.427735 -0.36328,0.421875 -0.36328,1.417969 0,1.107421 0.36914,1.564453 0.375,0.457031 1.00195,0.457031 0.46875,0 0.76758,-0.263672 0.29883,-0.269531 0.42188,-0.919922 l 1.61719,0.275391 q -0.25196,1.113281 -0.9668,1.68164 -0.71485,0.56836 -1.91602,0.56836 -1.36523,0 -2.17968,-0.861328 -0.8086,-0.861328 -0.8086,-2.384766 0,-1.541016 0.81445,-2.396484 0.81446,-0.861328 2.20313,-0.861328 1.13672,0 1.80469,0.492187 0.67383,0.486328 0.96679,1.488281 z"
         style="font-weight:bold;font-size:12px;font-family:Arial;text-anchor:start;fill:#000000;stroke:none;stroke-width:0"
         id="path3541" />
      <path
         d="m 141.82422,35.219532 1.64062,0.275391 q -0.3164,0.902343 -1.00195,1.376953 -0.67969,0.46875 -1.70508,0.46875 -1.62304,0 -2.40234,-1.060547 -0.61524,-0.849609 -0.61524,-2.144531 0,-1.546875 0.8086,-2.419922 0.80859,-0.878906 2.04492,-0.878906 1.38867,0 2.19141,0.919921 0.80273,0.914063 0.76757,2.806641 l -4.125,0 q 0.0176,0.732422 0.39844,1.142578 0.38086,0.404297 0.94922,0.404297 0.38672,0 0.65039,-0.210937 0.26367,-0.210938 0.39844,-0.679688 z m 0.0937,-1.664062 q -0.0176,-0.714844 -0.36914,-1.083985 -0.35156,-0.375 -0.85547,-0.375 -0.53906,0 -0.89063,0.392578 -0.35156,0.392578 -0.3457,1.066407 l 2.46094,0 z"
         style="font-weight:bold;font-size:12px;font-family:Arial;text-anchor:start;fill:#000000;stroke:none;stroke-width:0"
         id="path3543" />
      <path
         d="m 148.24609,28.610157 3.4336,0 q 1.01953,0 1.51758,0.08789 0.5039,0.08203 0.89648,0.351562 0.39844,0.269531 0.66211,0.720703 0.26367,0.445313 0.26367,1.001953 0,0.603516 -0.32812,1.107422 -0.32227,0.503907 -0.87891,0.75586 0.78516,0.228515 1.20703,0.779297 0.42188,0.550781 0.42188,1.294921 0,0.585938 -0.27539,1.142579 -0.26954,0.550781 -0.74415,0.884765 -0.46875,0.328125 -1.16015,0.404297 -0.4336,0.04687 -2.0918,0.05859 l -2.92383,0 0,-8.589844 z m 1.73438,1.429688 0,1.986328 1.13672,0 q 1.01367,0 1.25976,-0.0293 0.44532,-0.05274 0.69727,-0.304688 0.25781,-0.257812 0.25781,-0.673828 0,-0.398437 -0.22266,-0.644531 -0.21679,-0.251953 -0.65039,-0.304688 -0.25781,-0.0293 -1.48242,-0.0293 l -0.99609,0 z m 0,3.416015 0,2.296875 1.60547,0 q 0.9375,0 1.18945,-0.05273 0.38672,-0.07031 0.62695,-0.339844 0.2461,-0.275391 0.2461,-0.732422 0,-0.386719 -0.1875,-0.65625 -0.1875,-0.269531 -0.54492,-0.392578 -0.35157,-0.123047 -1.53516,-0.123047 l -1.40039,0 z"
         style="font-weight:bold;font-size:12px;font-family:Arial;text-anchor:start;fill:#000000;stroke:none;stroke-width:0"
         id="path3545" />
      <path
         d="m 160.48047,35.219532 1.64062,0.275391 q -0.3164,0.902343 -1.00195,1.376953 -0.67969,0.46875 -1.70508,0.46875 -1.62304,0 -2.40234,-1.060547 -0.61524,-0.849609 -0.61524,-2.144531 0,-1.546875 0.8086,-2.419922 0.80859,-0.878906 2.04492,-0.878906 1.38867,0 2.19141,0.919921 0.80273,0.914063 0.76757,2.806641 l -4.125,0 q 0.0176,0.732422 0.39844,1.142578 0.38086,0.404297 0.94922,0.404297 0.38672,0 0.65039,-0.210937 0.26367,-0.210938 0.39844,-0.679688 z m 0.0937,-1.664062 q -0.0176,-0.714844 -0.36914,-1.083985 -0.35156,-0.375 -0.85547,-0.375 -0.53906,0 -0.89063,0.392578 -0.35156,0.392578 -0.3457,1.066407 l 2.46094,0 z"
         style="font-weight:bold;font-size:12px;font-family:Arial;text-anchor:start;fill:#000000;stroke:none;stroke-width:0"
         id="path3547" />
      <path
         d="m 166.41016,30.977345 0,1.3125 -1.125,0 0,2.507812 q 0,0.761719 0.0293,0.890625 0.0352,0.123047 0.14649,0.205078 0.11718,0.08203 0.28125,0.08203 0.22851,0 0.66211,-0.158203 l 0.14062,1.277344 q -0.57422,0.246094 -1.30078,0.246094 -0.44531,0 -0.80273,-0.146485 -0.35743,-0.152343 -0.52735,-0.386718 -0.16406,-0.240235 -0.22851,-0.644532 -0.0527,-0.287109 -0.0527,-1.160156 l 0,-2.71289 -0.75586,0 0,-1.3125 0.75586,0 0,-1.236329 1.65235,-0.960937 0,2.197266 1.125,0 z"
         style="font-weight:bold;font-size:12px;font-family:Arial;text-anchor:start;fill:#000000;stroke:none;stroke-width:0"
         id="path3549" />
      <path
         d="m 168.72461,37.200001 -1.96875,-6.222656 1.59961,0 1.16601,4.078125 1.07227,-4.078125 1.58789,0 1.03711,4.078125 1.18945,-4.078125 1.62305,0 -1.99805,6.222656 -1.58203,0 -1.07226,-4.001953 -1.05469,4.001953 -1.59961,0 z"
         style="font-weight:bold;font-size:12px;font-family:Arial;text-anchor:start;fill:#000000;stroke:none;stroke-width:0"
         id="path3551" />
      <path
         d="m 180.49609,35.219532 1.64063,0.275391 q -0.31641,0.902343 -1.00195,1.376953 -0.67969,0.46875 -1.70508,0.46875 -1.62305,0 -2.40235,-1.060547 -0.61523,-0.849609 -0.61523,-2.144531 0,-1.546875 0.80859,-2.419922 0.8086,-0.878906 2.04492,-0.878906 1.38868,0 2.19141,0.919921 0.80274,0.914063 0.76758,2.806641 l -4.125,0 q 0.0176,0.732422 0.39844,1.142578 0.38086,0.404297 0.94922,0.404297 0.38671,0 0.65039,-0.210937 0.26367,-0.210938 0.39843,-0.679688 z m 0.0937,-1.664062 q -0.0176,-0.714844 -0.36914,-1.083985 -0.35156,-0.375 -0.85547,-0.375 -0.53906,0 -0.89062,0.392578 -0.35156,0.392578 -0.3457,1.066407 l 2.46093,0 z"
         style="font-weight:bold;font-size:12px;font-family:Arial;text-anchor:start;fill:#000000;stroke:none;stroke-width:0"
         id="path3553" />
      <path
         d="m 187.17578,35.219532 1.64063,0.275391 q -0.31641,0.902343 -1.00196,1.376953 -0.67968,0.46875 -1.70508,0.46875 -1.62304,0 -2.40234,-1.060547 -0.61523,-0.849609 -0.61523,-2.144531 0,-1.546875 0.80859,-2.419922 0.80859,-0.878906 2.04492,-0.878906 1.38867,0 2.19141,0.919921 0.80273,0.914063 0.76758,2.806641 l -4.125,0 q 0.0176,0.732422 0.39843,1.142578 0.38086,0.404297 0.94922,0.404297 0.38672,0 0.65039,-0.210937 0.26368,-0.210938 0.39844,-0.679688 z m 0.0937,-1.664062 q -0.0176,-0.714844 -0.36914,-1.083985 -0.35156,-0.375 -0.85547,-0.375 -0.53906,0 -0.89062,0.392578 -0.35157,0.392578 -0.34571,1.066407 l 2.46094,0 z"
         style="font-weight:bold;font-size:12px;font-family:Arial;text-anchor:start;fill:#000000;stroke:none;stroke-width:0"
         id="path3555" />
      <path
         d="m 195.91211,37.200001 -1.64649,0 0,-3.175781 q 0,-1.007813 -0.10546,-1.300782 -0.10547,-0.298828 -0.34571,-0.46289 -0.23437,-0.164063 -0.56836,-0.164063 -0.42773,0 -0.76757,0.234375 -0.33985,0.234375 -0.46875,0.621094 -0.12305,0.386719 -0.12305,1.429687 l 0,2.81836 -1.64649,0 0,-6.222656 1.5293,0 0,0.914062 q 0.81445,-1.054687 2.05078,-1.054687 0.54492,0 0.9961,0.199218 0.45117,0.19336 0.67968,0.498047 0.23438,0.304688 0.32227,0.691406 0.0937,0.386719 0.0937,1.107422 l 0,3.867188 z"
         style="font-weight:bold;font-size:12px;font-family:Arial;text-anchor:start;fill:#000000;stroke:none;stroke-width:0"
         id="path3557" />
      <path
         d="m 208.22852,37.200001 -1.88672,0 -0.75,-1.951172 -3.4336,0 -0.70898,1.951172 -1.83985,0 3.34571,-8.589844 1.83398,0 3.43946,8.589844 z m -3.19336,-3.398438 -1.1836,-3.1875 -1.16015,3.1875 2.34375,0 z"
         style="font-weight:bold;font-size:12px;font-family:Arial;text-anchor:start;fill:#000000;stroke:none;stroke-width:0"
         id="path3559" />
      <path
         d="m 208.99023,37.610157 1.88086,0.228516 q 0.0469,0.328125 0.2168,0.451172 0.23438,0.175781 0.73828,0.175781 0.64453,0 0.9668,-0.19336 0.2168,-0.128906 0.32812,-0.416015 0.0762,-0.205078 0.0762,-0.75586 l 0,-0.908203 q -0.73829,1.007813 -1.86329,1.007813 -1.2539,0 -1.98632,-1.060547 -0.57422,-0.837891 -0.57422,-2.085938 0,-1.564453 0.75,-2.390625 0.75586,-0.826171 1.875,-0.826171 1.15429,0 1.90429,1.013671 l 0,-0.873046 1.54102,0 0,5.583984 q 0,1.101562 -0.18164,1.646484 -0.18164,0.544922 -0.50977,0.855469 -0.32812,0.310547 -0.8789,0.486328 -0.54492,0.175781 -1.38282,0.175781 -1.58203,0 -2.24414,-0.544921 -0.66211,-0.539063 -0.66211,-1.371094 0,-0.08203 0.006,-0.199219 z m 1.47071,-3.650391 q 0,0.990235 0.38086,1.453125 0.38672,0.457032 0.94922,0.457032 0.60351,0 1.01953,-0.46875 0.41601,-0.47461 0.41601,-1.400391 0,-0.966797 -0.39844,-1.435547 -0.39843,-0.46875 -1.00781,-0.46875 -0.59179,0 -0.97851,0.462891 -0.38086,0.457031 -0.38086,1.40039 z"
         style="font-weight:bold;font-size:12px;font-family:Arial;text-anchor:start;fill:#000000;stroke:none;stroke-width:0"
         id="path3561" />
      <path
         d="m 220.08203,35.219532 1.64063,0.275391 q -0.31641,0.902343 -1.00196,1.376953 -0.67968,0.46875 -1.70508,0.46875 -1.62304,0 -2.40234,-1.060547 -0.61523,-0.849609 -0.61523,-2.144531 0,-1.546875 0.80859,-2.419922 0.80859,-0.878906 2.04492,-0.878906 1.38867,0 2.19141,0.919921 0.80273,0.914063 0.76758,2.806641 l -4.125,0 q 0.0176,0.732422 0.39843,1.142578 0.38086,0.404297 0.94922,0.404297 0.38672,0 0.65039,-0.210937 0.26368,-0.210938 0.39844,-0.679688 z m 0.0937,-1.664062 q -0.0176,-0.714844 -0.36914,-1.083985 -0.35156,-0.375 -0.85547,-0.375 -0.53906,0 -0.89062,0.392578 -0.35157,0.392578 -0.34571,1.066407 l 2.46094,0 z"
         style="font-weight:bold;font-size:12px;font-family:Arial;text-anchor:start;fill:#000000;stroke:none;stroke-width:0"
         id="path3563" />
      <path
         d="m 228.81836,37.200001 -1.64649,0 0,-3.175781 q 0,-1.007813 -0.10546,-1.300782 -0.10547,-0.298828 -0.34571,-0.46289 -0.23437,-0.164063 -0.56836,-0.164063 -0.42773,0 -0.76757,0.234375 -0.33985,0.234375 -0.46875,0.621094 -0.12305,0.386719 -0.12305,1.429687 l 0,2.81836 -1.64649,0 0,-6.222656 1.5293,0 0,0.914062 q 0.81445,-1.054687 2.05078,-1.054687 0.54492,0 0.9961,0.199218 0.45117,0.19336 0.67968,0.498047 0.23438,0.304688 0.32227,0.691406 0.0937,0.386719 0.0937,1.107422 l 0,3.867188 z"
         style="font-weight:bold;font-size:12px;font-family:Arial;text-anchor:start;fill:#000000;stroke:none;stroke-width:0"
         id="path3565" />
      <path
         d="m 233.34766,30.977345 0,1.3125 -1.125,0 0,2.507812 q 0,0.761719 0.0293,0.890625 0.0352,0.123047 0.14649,0.205078 0.11718,0.08203 0.28125,0.08203 0.22851,0 0.66211,-0.158203 l 0.14062,1.277344 q -0.57422,0.246094 -1.30078,0.246094 -0.44531,0 -0.80273,-0.146485 -0.35743,-0.152343 -0.52735,-0.386718 -0.16406,-0.240235 -0.22851,-0.644532 -0.0527,-0.287109 -0.0527,-1.160156 l 0,-2.71289 -0.75586,0 0,-1.3125 0.75586,0 0,-1.236329 1.65235,-0.960937 0,2.197266 1.125,0 z"
         style="font-weight:bold;font-size:12px;font-family:Arial;text-anchor:start;fill:#000000;stroke:none;stroke-width:0"
         id="path3567" />
      <path
         d="m 233.92187,35.42461 1.65235,-0.251953 q 0.10547,0.480469 0.42773,0.732422 0.32227,0.246094 0.90235,0.246094 0.63867,0 0.96093,-0.234375 0.2168,-0.164063 0.2168,-0.439453 0,-0.1875 -0.11719,-0.310547 -0.12304,-0.117188 -0.55078,-0.216797 -1.99219,-0.439453 -2.52539,-0.802735 -0.73828,-0.503906 -0.73828,-1.40039 0,-0.808594 0.63867,-1.359375 0.63867,-0.550781 1.98047,-0.550781 1.27734,0 1.89844,0.416015 0.62109,0.416016 0.85547,1.230469 l -1.55274,0.287109 q -0.0996,-0.363281 -0.38086,-0.55664 -0.27539,-0.19336 -0.79101,-0.19336 -0.65039,0 -0.93164,0.181641 -0.1875,0.128906 -0.1875,0.333984 0,0.175782 0.16406,0.298828 0.22266,0.164063 1.53516,0.462891 1.31836,0.298828 1.83984,0.732422 0.51562,0.439453 0.51562,1.224609 0,0.855469 -0.71484,1.470703 -0.71484,0.615235 -2.11523,0.615235 -1.27149,0 -2.01563,-0.515625 -0.73828,-0.515625 -0.9668,-1.400391 z"
         style="font-weight:bold;font-size:12px;font-family:Arial;text-anchor:start;fill:#000000;stroke:none;stroke-width:0"
         id="path3569" />
      <path
         d="m 244.49805,37.200001 0,-8.589844 2.5957,0 1.55859,5.859375 1.54102,-5.859375 2.60156,0 0,8.589844 -1.61133,0 0,-6.761719 -1.70507,6.761719 -1.66993,0 -1.69922,-6.761719 0,6.761719 -1.61132,0 z"
         style="font-weight:bold;font-size:12px;font-family:Arial;text-anchor:start;fill:#000000;stroke:none;stroke-width:0"
         id="path3571" />
      <path
         d="m 254.11328,34.000782 q 0,-0.820312 0.4043,-1.587891 0.40429,-0.767578 1.14258,-1.171875 0.74414,-0.404296 1.6582,-0.404296 1.41211,0 2.31445,0.919921 0.90235,0.914063 0.90235,2.314454 0,1.412109 -0.91407,2.34375 -0.9082,0.925781 -2.29101,0.925781 -0.85547,0 -1.63477,-0.386719 -0.77344,-0.386719 -1.17773,-1.130859 -0.4043,-0.75 -0.4043,-1.822266 z m 1.6875,0.08789 q 0,0.925781 0.43945,1.417968 0.43946,0.492188 1.08399,0.492188 0.64453,0 1.07812,-0.492188 0.43946,-0.492187 0.43946,-1.429687 0,-0.914063 -0.43946,-1.40625 -0.43359,-0.492188 -1.07812,-0.492188 -0.64453,0 -1.08399,0.492188 -0.43945,0.492187 -0.43945,1.417969 z"
         style="font-weight:bold;font-size:12px;font-family:Arial;text-anchor:start;fill:#000000;stroke:none;stroke-width:0"
         id="path3573" />
      <path
         d="m 267.51367,37.200001 -1.5293,0 0,-0.914063 q -0.38085,0.533203 -0.90234,0.796875 -0.51562,0.257813 -1.04297,0.257813 -1.07226,0 -1.83984,-0.861328 -0.76172,-0.867188 -0.76172,-2.414063 0,-1.582031 0.74414,-2.402344 0.74414,-0.826171 1.88086,-0.826171 1.04297,0 1.80469,0.867187 l 0,-3.09375 1.64648,0 0,8.589844 z m -4.39453,-3.246094 q 0,0.996094 0.27539,1.441406 0.39844,0.644532 1.11328,0.644532 0.56836,0 0.9668,-0.480469 0.39844,-0.486328 0.39844,-1.447266 0,-1.072265 -0.38672,-1.541015 -0.38672,-0.47461 -0.99024,-0.47461 -0.58593,0 -0.98437,0.46875 -0.39258,0.462891 -0.39258,1.388672 z"
         style="font-weight:bold;font-size:12px;font-family:Arial;text-anchor:start;fill:#000000;stroke:none;stroke-width:0"
         id="path3575" />
      <path
         d="m 272.74609,35.219532 1.64063,0.275391 q -0.31641,0.902343 -1.00195,1.376953 -0.67969,0.46875 -1.70508,0.46875 -1.62305,0 -2.40235,-1.060547 -0.61523,-0.849609 -0.61523,-2.144531 0,-1.546875 0.80859,-2.419922 0.8086,-0.878906 2.04492,-0.878906 1.38868,0 2.19141,0.919921 0.80274,0.914063 0.76758,2.806641 l -4.125,0 q 0.0176,0.732422 0.39844,1.142578 0.38086,0.404297 0.94922,0.404297 0.38671,0 0.65039,-0.210937 0.26367,-0.210938 0.39843,-0.679688 z m 0.0937,-1.664062 q -0.0176,-0.714844 -0.36914,-1.083985 -0.35156,-0.375 -0.85547,-0.375 -0.53906,0 -0.89062,0.392578 -0.35156,0.392578 -0.3457,1.066407 l 2.46093,0 z"
         style="font-weight:bold;font-size:12px;font-family:Arial;text-anchor:start;fill:#000000;stroke:none;stroke-width:0"
         id="path3577" />
      <path
         d="m 275.82227,37.200001 0,-8.589844 1.64648,0 0,8.589844 -1.64648,0 z"
         style="font-weight:bold;font-size:12px;font-family:Arial;text-anchor:start;fill:#000000;stroke:none;stroke-width:0"
         id="path3579" />
      <path
         d="m 284.91016,28.575001 q 1.24804,0 1.95117,0.890625 0.83789,1.054687 0.83789,3.498047 0,2.4375 -0.84375,3.503906 -0.69727,0.878906 -1.94531,0.878906 -1.25391,0 -2.02149,-0.960937 -0.76758,-0.966797 -0.76758,-3.439453 0,-2.425782 0.84375,-3.492188 0.69727,-0.878906 1.94532,-0.878906 z m 0,1.365234 q -0.29883,0 -0.53321,0.19336 -0.23437,0.1875 -0.36328,0.679687 -0.16992,0.638672 -0.16992,2.150391 0,1.511718 0.15234,2.080078 0.15235,0.5625 0.38086,0.75 0.23438,0.1875 0.53321,0.1875 0.29882,0 0.5332,-0.1875 0.23437,-0.19336 0.36328,-0.685547 0.16992,-0.632813 0.16992,-2.144531 0,-1.511719 -0.15234,-2.074219 -0.15235,-0.568359 -0.38672,-0.755859 -0.22852,-0.19336 -0.52734,-0.19336 z"
         style="font-weight:bold;font-size:12px;font-family:Arial;text-anchor:start;fill:#000000;stroke:none;stroke-width:0"
         id="path3581" />
      <path
         d="m 293.01953,37.200001 -1.64648,0 0,-6.205078 q -0.90235,0.84375 -2.12696,1.248047 l 0,-1.494141 q 0.64453,-0.210938 1.40039,-0.796875 0.75586,-0.591797 1.03711,-1.376953 l 1.33594,0 0,8.625 z"
         style="font-weight:bold;font-size:12px;font-family:Arial;text-anchor:start;fill:#000000;stroke:none;stroke-width:0"
         id="path3583" />
    </g>
    <path
       style="fill:#ffffff;fill-opacity:0;stroke:none;stroke-width:0"
       d="m 94,27 313,0 0,12 -313,0 z"
       id="rect14" />
  </g>
  <g
     id="g16">
    <path
       style="fill:#ffffff;fill-opacity:0;stroke:none;stroke-width:0"
       d="m 94,58 313,0 0,185 -313,0 z"
       id="rect18" />
    <g
       clip-path="url(http://localhost:63342/hc-with-streams/results/no-vpn/relative-distance.html?_ijt=3epi00c4csglb0p9sfv507snd7#_ABSTRACT_RENDERER_ID_1)"
       id="g20">
      <g
         id="g22">
        <path
           style="fill:#cccccc;stroke:none;stroke-width:0"
           d="m 184,58 1,0 0,185 -1,0 z"
           id="rect24" />
        <path
           style="fill:#cccccc;stroke:none;stroke-width:0"
           d="m 275,58 1,0 0,185 -1,0 z"
           id="rect26" />
        <path
           style="fill:#cccccc;stroke:none;stroke-width:0"
           d="m 366,58 1,0 0,185 -1,0 z"
           id="rect28" />
        <path
           style="fill:#ebebeb;stroke:none;stroke-width:0"
           d="m 93,58 1,0 0,185 -1,0 z"
           id="rect30" />
        <path
           style="fill:#ebebeb;stroke:none;stroke-width:0"
           d="m 139,58 1,0 0,185 -1,0 z"
           id="rect32" />
        <path
           style="fill:#ebebeb;stroke:none;stroke-width:0"
           d="m 229,58 1,0 0,185 -1,0 z"
           id="rect34" />
        <path
           style="fill:#ebebeb;stroke:none;stroke-width:0"
           d="m 320,58 1,0 0,185 -1,0 z"
           id="rect36" />
        <path
           style="fill:#ebebeb;stroke:none;stroke-width:0"
           d="m 411,58 1,0 0,185 -1,0 z"
           id="rect38" />
        <path
           style="fill:#cccccc;stroke:none;stroke-width:0"
           d="m 94,242 313,0 0,1 -313,0 z"
           id="rect40" />
        <path
           style="fill:#cccccc;stroke:none;stroke-width:0"
           d="m 94,181 313,0 0,1 -313,0 z"
           id="rect42" />
        <path
           style="fill:#cccccc;stroke:none;stroke-width:0"
           d="m 94,119 313,0 0,1 -313,0 z"
           id="rect44" />
        <path
           style="fill:#cccccc;stroke:none;stroke-width:0"
           d="m 94,58 313,0 0,1 -313,0 z"
           id="rect46" />
        <path
           style="fill:#ebebeb;stroke:none;stroke-width:0"
           d="m 94,211 313,0 0,1 -313,0 z"
           id="rect48" />
        <path
           style="fill:#ebebeb;stroke:none;stroke-width:0"
           d="m 94,150 313,0 0,1 -313,0 z"
           id="rect50" />
        <path
           style="fill:#ebebeb;stroke:none;stroke-width:0"
           d="m 94,89 313,0 0,1 -313,0 z"
           id="rect52" />
      </g>
      <g
         id="g54">
        <path
           style="fill:#333333;stroke:none;stroke-width:0"
           d="m 94,242 313,0 0,1 -313,0 z"
           id="rect56" />
      </g>
      <g
         id="g58">
        <path
           d="M94.5,113.39333333333332L95.06263633983886,113.39333333333332L95.58897356097845,113.51599999999999L96.14253512114249,113.63866666666664L96.63257322358278,113.76133333333334L97.0863122073238,113.88399999999999L97.63079898781304,114.12933333333334L98.17528576830226,114.31333333333333L98.65624909106774,114.55866666666667L99.1735115325325,114.80399999999999L99.73614787237136,115.17199999999998L100.21711119513684,115.41733333333333L100.71622407725197,115.78533333333333L101.2153369593671,116.092L101.72352462115703,116.46L102.22263750327215,116.88933333333333L102.7308251650621,117.31866666666666L103.2662371658765,117.80933333333334L103.73812570896716,118.23866666666665L104.27353770978156,118.72933333333333L104.7817253715715,119.28133333333332L105.28083825368662,119.83333333333333L105.78902591547657,120.38533333333332L106.28813879759169,120.93733333333333L106.83262557808091,121.67333333333333L107.36803757889531,122.28666666666665L107.85807568133562,122.89999999999999L108.40256246182484,123.57466666666666L108.89260056426514,124.31066666666666L109.36448910735581,124.92399999999998L109.89990110817021,125.72133333333333L110.46253744800907,126.45733333333331L110.92535121142491,127.132L111.40631453419039,127.92933333333333L111.90542741630551,128.66533333333334L112.38639073907099,129.524L113.18497135045519,131.24133333333333L113.62056077484657,131.548L114.12874843663651,132.40666666666667L114.60971175940199,133.14266666666668L115.13604898054157,134.18533333333332L115.61701230330705,134.85999999999999L116.10705040574736,135.90266666666668L116.60616328786247,136.82266666666666L117.09620139030278,137.74266666666665L117.59531427241791,138.54L118.13072627323231,139.644L118.66613827404672,140.748L119.14710159681219,141.5453333333333L119.62806491957767,142.588L120.1271778016928,143.56933333333333L120.63536546348274,144.55066666666664L121.12540356592304,145.53199999999998L121.60636688868851,146.69733333333335L122.14177888950292,147.6173333333333L122.67719089031732,148.90533333333332L123.22167767080654,150.132L123.70264099357203,151.236L124.21082865536196,152.40133333333333L124.7553154358512,153.81199999999998L125.22720397894186,154.85466666666667L125.71724208138215,156.204L126.20728018382246,157.55333333333334L126.71546784561241,158.964L127.25995462610163,160.62L127.7409179488671,161.908L128.24003083098222,163.25733333333335L128.7663680521218,164.85199999999998L129.26548093423693,166.5693333333333L129.76459381635206,168.10266666666666L130.25463191879237,169.57466666666664L130.7718943602571,171.292L131.28915680172187,172.88666666666666L131.81549402286146,174.60399999999998L132.39627992204996,176.81199999999998L132.89539280416508,178.34533333333331L133.45802914400394,180.36933333333332L133.9662168057939,182.148L134.5016288066083,183.988L135.02796602774788,185.58266666666668L135.527078909863,187.54533333333333L136.0624909106774,189.26266666666666L136.5434542334429,191.164L137.0788662342573,193.004L137.49630609929903,194.476L138.00449376108898,196.37733333333333L138.5489805415782,198.21733333333333L139.04809342369333,199.996L139.5381315261336,201.71333333333334L140.01002006922428,203.308L140.49098339198974,204.964L141.23511532532504,207.724L141.73422820744014,208.95066666666668L142.39668712370204,211.28133333333332L142.89580000581716,212.38533333333334L143.43121200663157,213.73466666666667L143.94847444809633,215.20666666666665L144.44758733021146,216.188L144.93762543265174,217.16933333333333L145.4458130944417,217.844L145.92677641720718,218.51866666666666L146.50756231639568,219.25466666666665L147.03389953753526,219.5L147.55116197900003,219.5L148.02305052209067,219.37733333333333L148.5221634042058,219.132L149.02127628632093,218.64133333333334L149.50223960908642,218.08933333333334L149.9832029318519,217.41466666666668L150.44601669526773,216.61733333333333L151.02680259445623,215.636L151.74371018876704,214.47066666666666L152.27912218958144,213.06L152.77823507169657,211.956L153.28642273348652,210.852L153.80368517495128,209.62533333333334L154.36632151479014,208.39866666666666L154.90173351560455,207.172L155.40084639771968,205.94533333333334L155.93625839853408,204.71866666666665L156.37184782292545,203.73733333333334L156.8800354847154,202.63333333333333L157.38822314650534,201.59066666666666L157.8964108082953,200.48666666666668L158.3955236904104,199.44400000000002L158.84926267415142,198.46266666666668L159.475422471714,197.48133333333334L159.93823623512986,196.37733333333333L160.40104999854572,195.51866666666666L161.1088828131817,194.66L161.62614525464647,193.43333333333334L162.15248247578603,192.69733333333335L162.660670137576,191.83866666666665L163.35942817253715,191.04133333333334L163.88576539367673,190.18266666666668L164.43025217416596,189.50799999999998L164.92936505628109,188.956L165.67349698961635,188.404L166.1363107530322,187.72933333333333L166.6263488554725,187.3L167.09823739856316,186.87066666666666L167.63364939937756,186.564L168.1872109595416,186.25733333333332L168.6772490619819,185.95066666666665L169.1582123847474,185.70533333333333L169.65732526686253,185.52133333333333L170.138288589628,185.39866666666666L170.66462581076757,185.276L171.13651435385822,185.15333333333334L171.63562723597335,185.09199999999998L172.11659055873884,185.09199999999998L172.58847910182948,185.09199999999998L173.14204066199355,185.21466666666666L173.67745266280795,185.21466666666666L174.21286466362236,185.39866666666666L174.69382798638782,185.52133333333333L175.23831476687707,185.70533333333333L175.746502428667,185.88933333333333L176.2365405311073,186.13466666666667L176.7265786335476,186.31866666666667L177.21661673598788,186.564L177.68850527907856,186.87066666666666L178.16946860184404,187.17733333333334L178.85915185713037,187.48399999999998L179.3582647392455,187.97466666666665L179.91182629940954,188.404L180.3746400628254,188.71066666666667L180.9100520636398,189.14L181.40916494575492,189.50799999999998L181.90827782787005,189.99866666666665L182.40739070998518,190.36666666666667L182.89742881242546,190.796L183.578037288037,191.28666666666666L184.04085105145282,191.77733333333333L184.5490387132428,192.268L185.03000203600826,192.636L185.60171315552196,193.12666666666667L186.10990081731188,193.55599999999998L186.5999389197522,193.98533333333333L187.0990518018673,194.35333333333332L187.58908990430763,194.844L188.1608010238213,195.2733333333333L188.68713824496086,195.57999999999998L189.186251127076,196.00933333333333L189.74888746691488,196.37733333333333L190.23892556935516,196.74533333333332L190.7380384514703,197.11333333333334L191.2734504522847,197.35866666666666L191.82701201244873,197.66533333333334L192.3442744539135,197.972L192.83431255635378,198.156L193.57844448968908,198.83066666666667L194.06848259212939,198.708L194.75816584741574,199.19866666666667L195.24820394985602,198.95333333333332L195.73824205229633,199.076L196.2192053750618,199.13733333333334L196.6910939181525,199.19866666666667L197.18113202059277,199.26L197.725618801082,199.3213333333333L198.2156569035223,199.19866666666667L198.7510689043367,199.26L199.2864809051511,199.13733333333334L199.78559378726624,199.076L200.32100578808064,198.892L200.8019691108461,198.76933333333332L201.31923155231087,198.64666666666665L201.79112009540154,198.524L202.29930775719146,198.34L202.81657019865622,198.156L203.31568308077135,197.84933333333333L203.7784968441872,197.72666666666666L204.28668450597712,197.54266666666666L204.8039469474419,197.236L205.23953637183328,196.99066666666667L205.7386492539484,196.74533333333332L206.2377621360635,196.56133333333332L206.74594979785348,196.25466666666665L207.22691312061895,196.00933333333333L207.9165963759053,195.82533333333333L208.4066344783456,195.39600000000002L208.8966725807859,195.212L209.4230098019255,194.90533333333332L209.91304790436578,194.59866666666667L210.46660946452982,194.35333333333332L210.9838719059946,194.04666666666665L211.4739100084349,193.86266666666666L211.99117244989964,193.67866666666666L212.48121055233997,193.372L212.97124865478025,193.12666666666667L213.47036153689538,192.82L214.1418952328321,192.75866666666667L214.87695238649255,192.452L215.36699048893286,192.14533333333333L215.8388790320235,191.96133333333333L216.31076757511417,191.77733333333333L216.81895523690412,191.65466666666669L217.31806811901924,191.53199999999998L218.02590093365524,191.348L218.52501381577034,191.164L219.06042581658474,191.164L219.55953869869987,190.91866666666667L220.09495069951427,190.91866666666667L220.5577644629301,190.796L221.0478025653704,190.73466666666667L221.54691544748553,190.67333333333335L222.04602832960066,190.612L222.5451412117158,190.612L223.01702975480643,190.55066666666664L223.51614263692156,190.48933333333332L224.01525551903669,190.48933333333332L224.5143684011518,190.48933333333332L225.02255606294173,190.48933333333332L225.51259416538204,190.428L226.01170704749717,190.55066666666664L226.48359559058784,190.48933333333332L227.23680230359793,190.55066666666664L227.8085134231116,190.67333333333335L228.3348506442512,190.67333333333335L228.93378610278933,190.73466666666667L229.44197376457927,190.796L229.9410866466944,190.85733333333332L230.4220499694599,190.91866666666667L230.921162851575,190.91866666666667L231.61992088653616,191.164L232.32775370117216,191.22533333333334L232.87224048166138,191.348L233.38042814345133,191.40933333333334L233.87954102556645,191.53199999999998L234.40587824670604,191.59333333333333L234.90499112882117,191.59333333333333L235.39502923126145,191.77733333333333L235.89414211337657,191.9L236.36603065646725,191.9L236.85606875890753,192.02266666666665L237.36425642069747,192.084L237.89059364183706,192.268L238.37155696460255,192.268L238.8797446263925,192.39066666666668L239.36070794915796,192.452L239.85074605159826,192.51333333333332L240.31355981501412,192.57466666666664L240.80359791745443,192.69733333333335L241.34808469794365,192.82L241.84719758005875,192.82L242.3644600215235,192.94266666666667L242.86357290363864,192.88133333333332L243.57140571827463,193.06533333333334L244.10681771908904,193.12666666666667L244.65130449957826,193.188L245.1594921613682,193.188L245.8673249760042,193.24933333333334L246.34828829876966,193.24933333333334L246.8927750792589,193.24933333333334L247.41003752072365,193.372L247.9182251825136,193.24933333333334L248.6351327768244,193.24933333333334L249.10702131991508,193.188L249.63335854105466,193.188L250.15969576219425,193.188L250.65880864430937,193.12666666666667L251.2032954247986,193.12666666666667L251.67518396788924,193.004L252.1470725109799,192.94266666666667L252.65526017276986,192.94266666666667L253.31771908903173,192.94266666666667L253.82590675082167,192.82L254.35224397196126,192.75866666666667L254.86950641342602,192.636L255.41399319391525,192.636L255.9221808557052,192.51333333333332L256.4212937378203,192.452L256.9204066199354,192.32933333333332L257.46489340042467,192.32933333333332L258.0093801809139,192.268L258.49034350367936,192.084L258.9894563857945,192.02266666666665L259.50671882725925,192.02266666666665L260.05120560774844,191.9L260.5412437101888,191.77733333333333L261.02220703295427,191.65466666666669L261.7300398475902,191.716L262.19285361100606,191.53199999999998L262.6556673744219,191.40933333333334L263.1457054768622,191.40933333333334L263.6357435793025,191.348L264.1802303597917,191.28666666666666L264.6884180215817,191.22533333333334L265.3962508362177,191.164L265.8772141589832,191.10266666666666L266.42170093947243,191.04133333333334L266.90266426223786,190.98L267.4834501614264,190.85733333333332L268.0188621622408,190.91866666666667L268.7357697565516,190.91866666666667L269.24395741834155,190.796L269.73399552078183,190.67333333333335L270.23310840289696,190.796L270.76852040371136,190.73466666666667L271.28578284517613,190.67333333333335L271.7758209476164,190.612L272.26585905005675,190.612L272.7649719321719,190.612L273.2368604752625,190.612L273.7359733573776,190.48933333333332L274.2260114598179,190.55066666666664L274.7069747825834,190.48933333333332L275.1970128850237,190.55066666666664L275.70520054681367,190.55066666666664L276.2133882086036,190.55066666666664L276.7125010907187,190.48933333333332L277.21161397283385,190.48933333333332L277.7288764142986,190.48933333333332L278.20983973706404,190.48933333333332L278.6726535004799,190.428L279.1899159419447,190.48933333333332L279.679954044385,190.428L280.1881417061749,190.48933333333332L280.69632936796484,190.428L281.3769378435764,190.48933333333332L281.9214246240656,190.48933333333332L282.69278089642535,190.85733333333332L283.1828189988656,190.48933333333332L283.67285710130596,190.48933333333332L284.1628952037463,190.48933333333332L284.6620080858614,190.428L285.1974200866758,190.48933333333332L285.65115907041684,190.48933333333332L286.15934673220676,190.48933333333332L286.69475873302116,190.67333333333335L287.19387161513623,190.612L287.72928361595064,190.612L288.2737703964399,190.67333333333335L288.7456589395306,190.55066666666664L289.2901457200198,190.73466666666667L289.7801838224601,190.612L290.28837148425004,190.67333333333335L290.81470870538965,190.612L291.604214537099,191.10266666666666L292.13055175823854,190.67333333333335L292.64781419970336,190.73466666666667L293.13785230214364,190.73466666666667L293.6460399639336,190.67333333333335L294.1723771850732,190.67333333333335L294.7259387452372,190.796L295.25227596637677,190.67333333333335L295.98733312003725,191.10266666666666L296.46829644280274,190.73466666666667L297.00370844361714,190.73466666666667L297.566344783456,190.796L298.04730810622146,190.73466666666667L298.52827142898695,190.73466666666667L299.01830953142724,190.73466666666667L299.5627963119165,190.67333333333335L300.0619091940316,190.73466666666667L300.54287251679705,190.73466666666667L301.10550885663594,190.73466666666667L301.63184607777555,190.73466666666667L302.1309589598907,190.67333333333335L302.67544574037987,190.73466666666667L303.19270818184464,190.67333333333335L303.67367150461007,190.55066666666664L304.1637096070504,190.612L304.65374770949074,190.612L305.1800849306303,190.612L305.6882725924203,190.55066666666664L306.1964602542102,190.55066666666664L306.6864983566505,190.48933333333332L307.4124807306361,190.48933333333332L307.8934440534016,190.48933333333332L308.3834821558419,190.428L308.9188941566563,190.36666666666667L309.4361565981211,190.428L309.9715685989355,190.48933333333332L310.4616067013758,190.36666666666667L310.9970187021902,190.428L311.48705680463047,190.428L311.97709490707075,190.36666666666667L312.4671330095111,190.36666666666667L312.9208719932521,190.30533333333332L313.38368575666794,190.30533333333332L313.89187341845786,190.36666666666667L314.36376196154856,190.36666666666667L314.89917396236297,190.30533333333332L315.38921206480325,190.30533333333332L315.9336988452925,190.30533333333332L316.64153165992843,190.55066666666664L317.15879410139326,190.244L317.64883220383354,190.30533333333332L318.1388703062738,190.244L318.6470579680638,190.30533333333332L319.191544748553,190.30533333333332L319.7178819696926,190.244L320.2351444111573,190.30533333333332L320.6888833948983,190.244L321.17892149733865,190.30533333333332L321.668959599779,190.30533333333332L322.1499229225444,190.244L322.6399610249847,190.18266666666668L323.1481486867747,190.30533333333332L323.63818678921496,190.18266666666668L324.1282248916553,190.244L324.6091882144208,190.244L325.09922631686106,190.244L325.6437130973503,190.30533333333332L326.1972746575143,190.30533333333332L326.67823798027985,190.18266666666668L327.177350862395,190.18266666666668L327.67646374451004,190.18266666666668L328.15742706727553,190.12133333333333L328.6474651697158,190.18266666666668L329.1556528315058,190.18266666666668L329.68199005264535,190.06L330.15387859573605,190.12133333333333L330.68929059655045,190.06L331.22470259736485,190.12133333333333L331.6965911404555,190.06L332.2047788022454,190.06L332.731116023385,190.06L333.2211541258253,190.06L333.91991216078645,190.30533333333332L334.4643989412757,190.06L334.9725866030657,189.93733333333333L335.4807742648556,189.99866666666665L335.97081236729593,189.876L336.45177569006137,189.876L336.94181379250165,189.876L337.4227771152672,189.876L338.1033855908787,190.18266666666668L338.58434891364413,189.876L339.08346179575926,189.876L339.5734998981996,189.876L340.06353800063994,189.876L340.54450132340537,189.81466666666665L341.05268898519535,189.81466666666665L341.5427270876356,189.81466666666665L342.0872138681249,189.81466666666665L342.5954015299148,189.81466666666665L343.3849073616242,189.81466666666665L343.84772112504004,189.75333333333333L344.36498356650475,189.75333333333333L344.8277973299206,189.692L345.417658008784,189.81466666666665L345.91677089089904,189.75333333333333L346.4158837730142,189.75333333333333L346.89684709577966,189.75333333333333L347.4504086559437,189.81466666666665L347.94952153805883,189.75333333333333L348.4214100811495,189.692L348.9205229632646,189.75333333333333L349.4014862860301,189.692L349.8643000494459,189.692L350.41786160961,189.692L350.9169744917251,189.692L351.41608737384024,189.63066666666668L351.91520025595537,189.75333333333333L352.63210785026615,189.692L353.1765946307554,189.75333333333333L353.72108141124454,189.75333333333333L354.23834385270936,189.81466666666665L354.72838195514964,189.81466666666665L355.22749483726477,189.75333333333333L355.73568249905475,189.81466666666665L356.2620197201943,189.81466666666665L356.779282161659,189.81466666666665L357.27839504377414,189.876L357.77750792588927,189.93733333333333L358.4399668421512,189.93733333333333L358.94815450394117,189.99866666666665L359.6922864372764,190.36666666666667L360.15510020069223,189.99866666666665L360.8447834559786,190.06L361.5253919315901,190.12133333333333L362.0608039324045,190.18266666666668L362.5689915941945,190.244L363.0862540356593,190.18266666666668L363.5853669177743,190.244L364.111704138914,190.30533333333332L364.61989180070384,190.36666666666667L365.0827055641197,190.36666666666667L365.5818184462348,190.36666666666667L366.0900061080248,190.428L366.5891189901399,190.48933333333332L367.0791570925802,190.48933333333332L367.5510456356709,190.612L368.0410837381112,190.48933333333332L368.73076699339754,190.91866666666667L369.2389546551875,190.612L369.71991797795295,190.612L370.19180652104365,190.67333333333335L370.6909194031588,190.67333333333335L371.2081818446235,190.796L371.69821994706376,190.67333333333335L372.1791832698293,190.67333333333335L372.72367005031845,190.73466666666667L373.21370815275884,190.67333333333335L373.71282103487397,190.73466666666667L374.4206538495099,190.612L374.9106919519502,190.73466666666667L375.4098048340653,190.67333333333335L375.881693377156,190.67333333333335L376.389881038946,190.612L376.8889939210611,190.612L377.397181582851,190.67333333333335L377.8690701259417,190.55066666666664L378.3409586690324,190.612L378.91266978854605,190.55066666666664L379.38455833163664,190.55066666666664L379.8473720950525,190.55066666666664L380.3192606381432,190.48933333333332L380.8183735202583,190.48933333333332L381.3265611820482,190.428L381.85289840318785,190.48933333333332L382.32478694627844,190.48933333333332L382.86019894709284,190.48933333333332L383.5680317617289,190.73466666666667L384.1215933218929,190.428L384.620706204008,190.36666666666667L385.11981908612313,190.36666666666667L385.61893196823826,190.36666666666667L386.09082051132896,190.30533333333332L386.60808295279367,190.36666666666667L387.1071958349088,190.30533333333332L387.55186003897506,190.30533333333332L388.04189814141534,190.30533333333332L388.5228614641808,190.244L388.9947500072715,190.30533333333332L389.48478810971176,190.18266666666668L389.97482621215204,190.30533333333332L390.61913556906427,190.244L391.14547279020394,190.30533333333332L391.78978214711617,190.244L392.3161193682557,190.30533333333332L393.0239521828918,190.55066666666664L393.5684389633809,190.18266666666668L394.04940228614646,190.18266666666668L394.84798289753064,190.612L395.3561705593206,190.12133333333333L395.8280591024112,190.18266666666668L396.35439632355076,190.18266666666668L396.8535092056659,190.12133333333333L397.31632296908174,190.12133333333333L397.85173496989614,190.18266666666668L398.3417730723364,190.18266666666668L398.8771850731508,190.244L399.37629795526595,190.12133333333333L399.9026351764056,190.18266666666668L400.40174805852075,190.12133333333333L400.89178616096103,190.12133333333333L401.3818242634013,190.06L401.899086704866,190.12133333333333L402.3709752479567,190.06L402.8791629097467,190.06L403.369201012187,190.06L403.9046130130014,189.99866666666665L404.55799714958846,190.06L405.0571100317036,189.99866666666665L405.54714813414387,190.06L406.0008871178849,190.06L406.5,190.06"
           stroke="#3366cc"
           stroke-width="2"
           fill-opacity="1"
           fill="none"
           id="path60" />
        <path
           d="M94.5,170.10331782953068L95.06263633983886,170.15887307146133L95.58897356097845,170.21084410428267L96.14253512114249,170.2655032939973L96.63257322358278,170.313890117648L97.0863122073238,170.358692732128L97.63079898781304,170.41245586956532L98.17528576830226,170.46621900694134L98.65624909106774,170.51370977831465L99.1735115325325,170.56478475879732L99.73614787237136,170.62034000078933L100.21711119513684,170.66783077216266L100.71622407725197,170.71711364809067L101.2153369593671,170.76639652401866L101.72352462115703,170.81657545228532L102.22263750327215,170.86585832821333L102.7308251650621,170.91603725648L103.2662371658765,170.96890434157865L103.73812570896716,171.0154990606133L104.27353770978156,171.06836614577333L104.7817253715715,171.11854507397865L105.28083825368662,171.16782794990667L105.78902591547657,171.21800687817333L106.28813879759169,171.26728975410134L106.83262557808091,171.32105289147734L107.36803757889531,171.37391997663732L107.85807568133562,171.422306800288L108.40256246182484,171.476069937664L108.89260056426514,171.52445676131467L109.36448910735581,171.57105148041066L109.89990110817021,171.6239185655093L110.46253744800907,171.67947380744L110.92535121142491,171.72517247425867L111.40631453419039,171.77266324563197L111.90542741630551,171.82194612156L112.38639073907099,171.86943689293332L113.18497135045519,171.94828949444266L113.62056077484657,171.991300004368L114.12874843663651,172.04147893257334L114.60971175940199,172.08896970394665L115.13604898054157,172.140940736768L115.61701230330705,172.18843150814132L116.10705040574736,172.236818331792L116.60616328786247,172.28610120771998L117.09620139030278,172.33448803137065L117.59531427241791,172.38377090736L118.13072627323231,172.43663799245866L118.66613827404672,172.48950507755734L119.14710159681219,172.53699584893064L119.62806491957767,172.584486620304L120.1271778016928,172.633769496232L120.63536546348274,172.68394842443732L121.12540356592304,172.732335248088L121.60636688868851,172.77982601946132L122.14177888950292,172.83269310456L122.67719089031732,172.88556018965866L123.22167767080654,172.939323327096L123.70264099357203,172.98681409846932L124.21082865536196,173.03699302667468L124.7553154358512,173.09075616405067L125.22720397894186,173.13735088314667L125.71724208138215,173.18573770679734L126.20728018382246,173.234124530448L126.71546784561241,173.28430345871465L127.25995462610163,173.33806659609064L127.7409179488671,173.385557367464L128.24003083098222,173.434840243392L128.7663680521218,173.48681127621333L129.26548093423693,173.53609415214135L129.76459381635206,173.58537702813067L130.25463191879237,173.63376385178134L130.7718943602571,173.684838832264L131.28915680172187,173.735913812808L131.81549402286146,173.78788484562932L132.39627992204996,173.84523219217598L132.89539280416508,173.894515068104L133.45802914400394,173.950070310096L133.9662168057939,174.0002492383013L134.5016288066083,174.05311632346132L135.02796602774788,174.10508735622133L135.527078909863,174.15437023221068L136.0624909106774,174.20723731730934L136.5434542334429,174.25472808868267L137.0788662342573,174.30759517378135L137.49630609929903,174.34881357909066L138.00449376108898,174.39899250735732L138.5489805415782,174.45275564473332L139.04809342369333,174.50203852066133L139.5381315261336,174.55042534431198L140.01002006922428,174.597020063408L140.49098339198974,174.64451083478133L141.23511532532504,174.71798712256532L141.73422820744014,174.76726999849333L142.39668712370204,174.83268181565865L142.89580000581716,174.88196469158666L143.43121200663157,174.93483177668531L143.94847444809633,174.98590675722932L144.44758733021146,175.03518963315733L144.93762543265174,175.083576456808L145.4458130944417,175.13375538507466L145.92677641720718,175.181246156448L146.50756231639568,175.23859350299466L147.03389953753526,175.29056453581597L147.55116197900003,175.34163951629867L148.02305052209067,175.38823423539466L148.5221634042058,175.43751711132268L149.02127628632093,175.486799987312L149.50223960908642,175.534290758624L149.9832029318519,175.58178152999733L150.44601669526773,175.627480196816L151.02680259445623,175.68482754336267L151.74371018876704,175.75561567425333L152.27912218958144,175.808482759352L152.77823507169657,175.85776563527997L153.28642273348652,175.90794456354666L153.80368517495128,175.95901954409067L154.36632151479014,176.01457478602134L154.90173351560455,176.06744187112L155.40084639771968,176.11672474710934L155.93625839853408,176.169591832208L156.37184782292545,176.21260234213332L156.8800354847154,176.26278127033868L157.38822314650534,176.31296019860534L157.8964108082953,176.36313912681067L158.3955236904104,176.41242200273865L158.84926267415142,176.45722461728L159.475422471714,176.51905222527466L159.93823623512986,176.564750892032L160.40104999854572,176.61044955885066L161.1088828131817,176.68034163746398L161.62614525464647,176.73141661794665L162.15248247578603,176.783387650768L162.660670137576,176.83356657903465L163.35942817253715,176.90256260537066L163.88576539367673,176.95453363813067L164.43025217416596,177.008296775568L164.92936505628109,177.05757965149598L165.67349698961635,177.13105593928L166.1363107530322,177.17675460603732L166.6263488554725,177.225141429688L167.09823739856316,177.271736148784L167.63364939937756,177.32460323388267L168.1872109595416,177.3792624235973L168.6772490619819,177.42764924724798L169.1582123847474,177.47514001862135L169.65732526686253,177.52442289454933L170.138288589628,177.57191366592266L170.66462581076757,177.623884698744L171.13651435385822,177.67047941777867L171.63562723597335,177.71976229376799L172.11659055873884,177.76725306508L172.58847910182948,177.813847784176L173.14204066199355,177.86850697389065L173.67745266280795,177.92137405898933L174.21286466362236,177.974241144088L174.69382798638782,178.02173191546132L175.23831476687707,178.0754950528373L175.746502428667,178.12567398104267L176.2365405311073,178.17406080469334L176.7265786335476,178.22244762840535L177.21661673598788,178.270834452056L177.68850527907856,178.31742917109068L178.16946860184404,178.36491994246398L178.85915185713037,178.43301991652265L179.3582647392455,178.48230279245067L179.91182629940954,178.53696198216534L180.3746400628254,178.58266064892265L180.9100520636398,178.6355277340213L181.40916494575492,178.68481060994932L181.90827782787005,178.73409348593867L182.40739070998518,178.78337636186666L182.89742881242546,178.83176318551733L183.578037288037,178.89896710723733L184.04085105145282,178.944665774056L184.5490387132428,178.99484470226133L185.03000203600826,179.04233547363467L185.60171315552196,179.098786767904L186.10990081731188,179.14896569617065L186.5999389197522,179.19735251982132L187.0990518018673,179.24663539574934L187.58908990430763,179.29502221939998L188.1608010238213,179.35147351366933L188.68713824496086,179.40344454649068L189.186251127076,179.45272742241866L189.74888746691488,179.50828266441067L190.23892556935516,179.55666948806135L190.7380384514703,179.60595236398933L191.2734504522847,179.65881944908799L191.82701201244873,179.71347863880266L192.3442744539135,179.76455361928532L192.83431255635378,179.812940442936L193.57844448968908,179.88641673072L194.06848259212939,179.93480355437066L194.75816584741574,180.00290352842933L195.24820394985602,180.05129035208L195.73824205229633,180.09967717573068L196.2192053750618,180.14716794710398L196.6910939181525,180.1937626662L197.18113202059277,180.24214948985065L197.725618801082,180.29591262722667L198.2156569035223,180.34429945087732L198.7510689043367,180.397166535976L199.2864809051511,180.45003362107468L199.78559378726624,180.499316497064L200.32100578808064,180.55218358216266L200.8019691108461,180.59967435347465L201.31923155231087,180.65074933401866L201.79112009540154,180.69734405311465L202.29930775719146,180.74752298132L202.81657019865622,180.798597961864L203.31568308077135,180.847880837792L203.7784968441872,180.89357950461067L204.28668450597712,180.943758432816L204.8039469474419,180.99483341336L205.23953637183328,181.03784392328532L205.7386492539484,181.08712679921334L206.2377621360635,181.13640967514132L206.74594979785348,181.18658860339573L207.22691312061895,181.23407937476293L207.9165963759053,181.30217934879093L208.4066344783456,181.3505661724477L208.8966725807859,181.39895299610453L209.4230098019255,181.45092402891973L209.91304790436578,181.4993108525704L210.46660946452982,181.55397004226052L210.9838719059946,181.60504502278L211.4739100084349,181.6534318464368L211.99117244989964,181.70450682696242L212.48121055233997,181.7528936506192L212.97124865478025,181.80128047426987L213.47036153689538,181.85056335021625L214.1418952328321,181.9168712196712L214.87695238649255,181.98945145515333L215.36699048893286,182.0378382788101L215.8388790320235,182.0844329978816L216.31076757511417,182.13102771695918L216.81895523690412,182.18120664519518L217.31806811901924,182.23048952113547L218.02590093365524,182.3003815997488L218.52501381577034,182.3496644756952L219.06042581658474,182.4025315608L219.55953869869987,182.4518144367464L220.09495069951427,182.50468152185118L220.5577644629301,182.55038018863308L221.0478025653704,182.59876701228984L221.54691544748553,182.64804988823624L222.04602832960066,182.69733276418265L222.5451412117158,182.7466156401229L223.01702975480643,182.79321035920054L223.51614263692156,182.84249323514695L224.01525551903669,182.89177611109332L224.5143684011518,182.9410589870336L225.02255606294173,182.9912379152696L225.51259416538204,183.0396247389264L226.01170704749717,183.0889076148728L226.48359559058784,183.13550233394426L227.23680230359793,183.2098746740056L227.8085134231116,183.26632596827494L228.3348506442512,183.31829700109014L228.93378610278933,183.37743645222213L229.44197376457927,183.42761538045812L229.9410866466944,183.47689825639839L230.4220499694599,183.5243890277656L230.921162851575,183.573671903712L231.61992088653616,183.64266793003574L232.32775370117216,183.71256000864906L232.87224048166138,183.76632314604348L233.38042814345133,183.81650207427947L233.87954102556645,183.86578495021973L234.40587824670604,183.91775598303494L234.90499112882117,183.96703885898134L235.39502923126145,184.01542568263812L235.89414211337657,184.0647085585784L236.36603065646725,184.111303277656L236.85606875890753,184.1596901013128L237.36425642069747,184.2098690295488L237.89059364183706,184.261840062364L238.37155696460255,184.30933083372506L238.8797446263925,184.35950976196108L239.36070794915796,184.40700053332827L239.85074605159826,184.45538735697892L240.31355981501412,184.50108602376693L240.80359791745443,184.54947284742371L241.34808469794365,184.60323598481813L241.84719758005875,184.6525188607584L242.3644600215235,184.703593841284L242.86357290363864,184.75287671723038L243.57140571827463,184.82276879584373L244.10681771908904,184.87563588094852L244.65130449957826,184.92939901834293L245.1594921613682,184.97957794657893L245.8673249760042,185.04947002519225L246.34828829876966,185.09696079655333L246.8927750792589,185.15072393394775L247.41003752072365,185.20179891447333L247.9182251825136,185.25197784270932L248.6351327768244,185.32276597361226L249.10702131991508,185.36936069268987L249.63335854105466,185.42133172550507L250.15969576219425,185.47330275832024L250.65880864430937,185.52258563426054L251.2032954247986,185.57634877165492L251.67518396788924,185.62294349073252L252.1470725109799,185.66953820981013L252.65526017276986,185.71971713803998L253.31771908903173,185.78512895520532L253.82590675082167,185.83530788344132L254.35224397196126,185.88727891625655L254.86950641342602,185.93835389678213L255.41399319391525,185.99211703417654L255.9221808557052,186.0422959624064L256.4212937378203,186.0915788383528L256.9204066199354,186.1408617142992L257.46489340042467,186.1946248516936L258.0093801809139,186.248387989088L258.49034350367936,186.2958787604552L258.9894563857945,186.34516163639546L259.50671882725925,186.39623661692107L260.05120560774844,186.44999975431546L260.5412437101888,186.49838657797227L261.02220703295427,186.54587734933946L261.7300398475902,186.61576942795278L262.19285361100606,186.66146809473466L262.6556673744219,186.70716676152267L263.1457054768622,186.75555358517946L263.6357435793025,186.80394040883013L264.1802303597917,186.8577035462245L264.6884180215817,186.90788247446054L265.3962508362177,186.97777455307386L265.8772141589832,187.02526532444108L266.42170093947243,187.07902846183546L266.90266426223786,187.12651923319652L267.4834501614264,187.18386657975546L268.0188621622408,187.23673366486025L268.7357697565516,187.30752179575705L269.24395741834155,187.35770072399308L269.73399552078183,187.40608754764986L270.23310840289696,187.45537042359626L270.76852040371136,187.50823750870106L271.28578284517613,187.55931248922667L271.7758209476164,187.60769931287734L272.26585905005675,187.65608613653413L272.7649719321719,187.70536901248053L273.2368604752625,187.751963731552L273.7359733573776,187.8012466074984L274.2260114598179,187.84963343115518L274.7069747825834,187.89712420252238L275.1970128850237,187.94551102617305L275.70520054681367,187.99568995440904L276.2133882086036,188.04586888264507L276.7125010907187,188.09515175859147L277.21161397283385,188.14443463453173L277.7288764142986,188.19550961505735L278.20983973706404,188.24300038642454L278.6726535004799,188.28869905321253L279.1899159419447,188.339774033732L279.679954044385,188.38816085738878L280.1881417061749,188.4383397856248L280.69632936796484,188.4885187138608L281.3769378435764,188.55572263560532L281.9214246240656,188.60948577299973L282.69278089642535,188.68565021764027L283.1828189988656,188.73403704129709L283.67285710130596,188.78242386494773L284.1628952037463,188.83081068860452L284.6620080858614,188.88009356455092L285.1974200866758,188.93296064965574L285.65115907041684,188.977763264148L286.15934673220676,189.027942192384L286.69475873302116,189.0808092774888L287.19387161513623,189.1300921534352L287.72928361595064,189.18295923853998L288.2737703964399,189.2367223759344L288.7456589395306,189.28331709500586L289.2901457200198,189.33708023240027L289.7801838224601,189.38546705605705L290.28837148425004,189.43564598429305L290.81470870538965,189.48761701710828L291.604214537099,189.565573566328L292.13055175823854,189.6175445991432L292.64781419970336,189.6686195796688L293.13785230214364,189.7170064033256L293.6460399639336,189.7671853315616L294.1723771850732,189.81915636437066L294.7259387452372,189.8738155540608L295.25227596637677,189.92578658686986L295.98733312003725,189.99836682235812L296.46829644280274,190.04585759371918L297.00370844361714,190.098724678824L297.566344783456,190.1542799207976L298.04730810622146,190.2017706921648L298.52827142898695,190.249261463532L299.01830953142724,190.29764828718265L299.5627963119165,190.35141142457707L300.0619091940316,190.40069430052347L300.54287251679705,190.44818507189066L301.10550885663594,190.50374031386426L301.63184607777555,190.55571134667946L302.1309589598907,190.60499422262586L302.67544574037987,190.65875736002027L303.19270818184464,190.70983234053972L303.67367150461007,190.75732311190694L304.1637096070504,190.80570993556373L304.65374770949074,190.85409675922054L305.1800849306303,190.90606779203574L305.6882725924203,190.9562467202656L306.1964602542102,191.0064256485016L306.6864983566505,191.0548124721584L307.4124807306361,191.12649665535093L307.8934440534016,191.17398742671813L308.3834821558419,191.2223742503688L308.9188941566563,191.2752413354736L309.4361565981211,191.32631631599918L309.9715685989355,191.379183401104L310.4616067013758,191.42757022476079L310.9970187021902,191.4804373098656L311.48705680463047,191.52882413351625L311.97709490707075,191.57721095717307L312.4671330095111,191.62559778082988L312.9208719932521,191.67040039532213L313.38368575666794,191.71609906211012L313.89187341845786,191.76627799034614L314.36376196154856,191.8128727094176L314.89917396236297,191.8657397945224L315.38921206480325,191.91412661817918L315.9336988452925,191.9678897555736L316.64153165992843,192.03778183418694L317.15879410139326,192.08885681471253L317.64883220383354,192.13724363836934L318.1388703062738,192.18563046202001L318.6470579680638,192.235809390256L319.191544748553,192.2895725276504L319.7178819696926,192.3415435604656L320.2351444111573,192.3926185409912L320.6888833948983,192.43742115548346L321.17892149733865,192.48580797914028L321.668959599779,192.53419480279706L322.1499229225444,192.58168557416428L322.6399610249847,192.63007239781493L323.1481486867747,192.68025132605092L323.63818678921496,192.72863814970773L324.1282248916553,192.77702497336452L324.6091882144208,192.8245157447256L325.09922631686106,192.8729025683824L325.6437130973503,192.9266657057768L326.1972746575143,192.9813248954608L326.67823798027985,193.028815666828L327.177350862395,193.07809854276826L327.67646374451004,193.12738141871466L328.15742706727553,193.17487219008186L328.6474651697158,193.22325901373867L329.1556528315058,193.27343794196852L329.68199005264535,193.32540897478373L330.15387859573605,193.37200369386133L330.68929059655045,193.42487077896612L331.22470259736485,193.47773786407095L331.6965911404555,193.52433258314238L332.2047788022454,193.5745115113784L332.731116023385,193.6264825441936L333.2211541258253,193.6748693678504L333.91991216078645,193.74386539417412L334.4643989412757,193.79762853156853L334.9725866030657,193.84780745980453L335.4807742648556,193.89798638803438L335.97081236729593,193.9463732116912L336.45177569006137,193.9938639830584L336.94181379250165,194.0422508067152L337.4227771152672,194.08974157807626L338.1033855908787,194.15694549982078L338.58434891364413,194.204436271188L339.08346179575926,194.25371914712827L339.5734998981996,194.30210597078508L340.06353800063994,194.35049279444186L340.54450132340537,194.39798356580906L341.05268898519535,194.4481624940389L341.5427270876356,194.49654931769572L342.0872138681249,194.55031245509014L342.5954015299148,194.60049138332613L343.3849073616242,194.67844793254585L343.84772112504004,194.72414659933386L344.36498356650475,194.77522157985948L344.8277973299206,194.82092024664132L345.417658008784,194.87916364548985L345.91677089089904,194.92844652143012L346.4158837730142,194.97772939737652L346.89684709577966,195.02522016874372L347.4504086559437,195.07987935842772L347.94952153805883,195.12916223437412L348.4214100811495,195.1757569534456L348.9205229632646,195.225039829392L349.4014862860301,195.27253060075918L349.8643000494459,195.31822926754106L350.41786160961,195.37288845722506L350.9169744917251,195.42217133317146L351.41608737384024,195.47145420911787L351.91520025595537,195.52073708506427L352.63210785026615,195.59152521596718L353.1765946307554,195.6452883533616L353.72108141124454,195.699051490756L354.23834385270936,195.75012647127545L354.72838195514964,195.79851329493226L355.22749483726477,195.84779617087867L355.73568249905475,195.89797509911466L356.2620197201943,195.94994613192986L356.779282161659,196.00102111245548L357.27839504377414,196.05030398839574L357.77750792588927,196.09958686434214L358.4399668421512,196.16499868150746L358.94815450394117,196.21517760974348L359.6922864372764,196.2886538975152L360.15510020069223,196.33435256429706L360.8447834559786,196.4024525383312L361.5253919315901,196.46965646007573L362.0608039324045,196.52252354518055L362.5689915941945,196.57270247341654L363.0862540356593,196.623777453936L363.5853669177743,196.6730603298824L364.111704138914,196.7250313626976L364.61989180070384,196.7752102909336L365.0827055641197,196.8209089577216L365.5818184462348,196.87019183366186L366.0900061080248,196.92037076189786L366.5891189901399,196.96965363784426L367.0791570925802,197.01804046150107L367.5510456356709,197.06463518057254L368.0410837381112,197.11302200422932L368.73076699339754,197.18112197826346L369.2389546551875,197.23130090649946L369.71991797795295,197.27879167786054L370.19180652104365,197.32538639693814L370.6909194031588,197.37466927288455L371.2081818446235,197.425744253404L371.69821994706376,197.4741310770608L372.1791832698293,197.521621848428L372.72367005031845,197.57538498582238L373.21370815275884,197.6237718094792L373.71282103487397,197.67305468541946L374.4206538495099,197.7429467640328L374.9106919519502,197.7913335876896L375.4098048340653,197.840616463636L375.881693377156,197.88721118270746L376.389881038946,197.93739011094345L376.8889939210611,197.98667298688986L377.397181582851,198.03685191512585L377.8690701259417,198.08344663419734L378.3409586690324,198.13004135327492L378.91266978854605,198.18649264753813L379.38455833163664,198.23308736661573L379.8473720950525,198.27878603339758L380.3192606381432,198.3253807524752L380.8183735202583,198.3746636284216L381.3265611820482,198.4248425566576L381.85289840318785,198.47681358946667L382.32478694627844,198.52340830854428L382.86019894709284,198.57627539364907L383.5680317617289,198.6461674722624L384.1215933218929,198.7008266619464L384.620706204008,198.7501095378928L385.11981908612313,198.7993924138392L385.61893196823826,198.84867528977946L386.09082051132896,198.89527000885707L386.60808295279367,198.94634498938268L387.1071958349088,198.99562786532906L387.55186003897506,199.03953442753172L388.04189814141534,199.08792125118853L388.5228614641808,199.1354120225496L388.9947500072715,199.1820067416272L389.48478810971176,199.230393565284L389.97482621215204,199.2787803889408L390.61913556906427,199.3424001015208L391.14547279020394,199.39437113433598L391.78978214711617,199.45799084692214L392.3161193682557,199.5099618797312L393.0239521828918,199.57985395834453L393.5684389633809,199.63361709573894L394.04940228614646,199.68110786710614L394.84798289753064,199.75996046862159L395.3561705593206,199.81013939685147L395.8280591024112,199.85673411592907L396.35439632355076,199.90870514874427L396.8535092056659,199.95798802469068L397.31632296908174,200.00368669147252L397.85173496989614,200.05655377657735L398.3417730723364,200.10494060023413L398.8771850731508,200.15780768533892L399.37629795526595,200.20709056128533L399.9026351764056,200.25906159410053L400.40174805852075,200.3083444700408L400.89178616096103,200.3567312936976L401.3818242634013,200.4051181173544L401.899086704866,200.45619309788L402.3709752479567,200.50278781695147L402.8791629097467,200.55296674518746L403.369201012187,200.60135356884427L403.9046130130014,200.65422065394907L404.55799714958846,200.71873641881865L405.0571100317036,200.76801929476505L405.54714813414387,200.81640611842187L406.0008871178849,200.86120873291412L406.5,200.91049160886053"
           stroke="#3366cc"
           stroke-width="2"
           stroke-opacity="0.5"
           fill-opacity="1"
           fill="none"
           id="path62" />
      </g>
    </g>
    <g
       id="g64" />
    <g
       id="g66">
      <g
         id="g68">
        <g
           style="font-size:12px;font-family:Arial;text-anchor:middle;fill:#444444;stroke:none;stroke-width:0"
           id="text70">
          <path
             d="m 170.67462,260.20001 -1.05469,0 0,-6.7207 q -0.38086,0.36328 -1.00195,0.72656 -0.61523,0.36328 -1.10742,0.54492 l 0,-1.01953 q 0.88476,-0.41601 1.54687,-1.00781 0.66211,-0.5918 0.9375,-1.14844 l 0.67969,0 0,8.625 z"
             style="font-size:12px;font-family:Arial;text-anchor:middle;fill:#444444;stroke:none;stroke-width:0"
             id="path3472" />
          <path
             d="m 173.38165,255.96368 q 0,-1.52343 0.31055,-2.44921 0.31641,-0.93165 0.93164,-1.43555 0.62109,-0.50391 1.55859,-0.50391 0.69141,0 1.21289,0.28125 0.52149,0.27539 0.86133,0.80274 0.33985,0.52148 0.53321,1.27734 0.19336,0.75 0.19336,2.02734 0,1.51172 -0.31055,2.44336 -0.31055,0.92578 -0.93164,1.43555 -0.61524,0.50391 -1.5586,0.50391 -1.24218,0 -1.95117,-0.89063 -0.84961,-1.07226 -0.84961,-3.49219 z m 1.08399,0 q 0,2.11524 0.49218,2.81836 0.49805,0.69727 1.22461,0.69727 0.72657,0 1.21875,-0.70313 0.49805,-0.70312 0.49805,-2.8125 0,-2.12109 -0.49805,-2.81836 -0.49218,-0.69726 -1.23046,-0.69726 -0.72657,0 -1.16016,0.61523 -0.54492,0.78516 -0.54492,2.90039 z"
             style="font-size:12px;font-family:Arial;text-anchor:middle;fill:#444444;stroke:none;stroke-width:0"
             id="path3474" />
          <path
             d="m 180.6297,260.20001 0,-1.20117 1.20117,0 0,1.20117 q 0,0.66211 -0.23437,1.06641 -0.23438,0.41015 -0.74414,0.63281 l -0.29297,-0.45117 q 0.33398,-0.14649 0.49218,-0.43359 0.15821,-0.28125 0.17579,-0.81446 l -0.59766,0 z"
             style="font-size:12px;font-family:Arial;text-anchor:middle;fill:#444444;stroke:none;stroke-width:0"
             id="path3476" />
          <path
             d="m 183.38947,255.96368 q 0,-1.52343 0.31054,-2.44921 0.31641,-0.93165 0.93164,-1.43555 0.6211,-0.50391 1.5586,-0.50391 0.6914,0 1.21289,0.28125 0.52148,0.27539 0.86133,0.80274 0.33984,0.52148 0.5332,1.27734 0.19336,0.75 0.19336,2.02734 0,1.51172 -0.31055,2.44336 -0.31055,0.92578 -0.93164,1.43555 -0.61523,0.50391 -1.55859,0.50391 -1.24219,0 -1.95118,-0.89063 -0.8496,-1.07226 -0.8496,-3.49219 z m 1.08398,0 q 0,2.11524 0.49219,2.81836 0.49804,0.69727 1.22461,0.69727 0.72656,0 1.21875,-0.70313 0.49804,-0.70312 0.49804,-2.8125 0,-2.12109 -0.49804,-2.81836 -0.49219,-0.69726 -1.23047,-0.69726 -0.72656,0 -1.16016,0.61523 -0.54492,0.78516 -0.54492,2.90039 z"
             style="font-size:12px;font-family:Arial;text-anchor:middle;fill:#444444;stroke:none;stroke-width:0"
             id="path3478" />
          <path
             d="m 190.06915,255.96368 q 0,-1.52343 0.31055,-2.44921 0.31641,-0.93165 0.93164,-1.43555 0.62109,-0.50391 1.55859,-0.50391 0.69141,0 1.21289,0.28125 0.52149,0.27539 0.86133,0.80274 0.33985,0.52148 0.53321,1.27734 0.19336,0.75 0.19336,2.02734 0,1.51172 -0.31055,2.44336 -0.31055,0.92578 -0.93164,1.43555 -0.61524,0.50391 -1.5586,0.50391 -1.24218,0 -1.95117,-0.89063 -0.84961,-1.07226 -0.84961,-3.49219 z m 1.08399,0 q 0,2.11524 0.49218,2.81836 0.49805,0.69727 1.22461,0.69727 0.72657,0 1.21875,-0.70313 0.49805,-0.70312 0.49805,-2.8125 0,-2.12109 -0.49805,-2.81836 -0.49218,-0.69726 -1.23046,-0.69726 -0.72657,0 -1.16016,0.61523 -0.54492,0.78516 -0.54492,2.90039 z"
             style="font-size:12px;font-family:Arial;text-anchor:middle;fill:#444444;stroke:none;stroke-width:0"
             id="path3480" />
          <path
             d="m 196.74884,255.96368 q 0,-1.52343 0.31055,-2.44921 0.3164,-0.93165 0.93164,-1.43555 0.62109,-0.50391 1.55859,-0.50391 0.69141,0 1.21289,0.28125 0.52149,0.27539 0.86133,0.80274 0.33984,0.52148 0.5332,1.27734 0.19336,0.75 0.19336,2.02734 0,1.51172 -0.31054,2.44336 -0.31055,0.92578 -0.93164,1.43555 -0.61524,0.50391 -1.5586,0.50391 -1.24219,0 -1.95117,-0.89063 -0.84961,-1.07226 -0.84961,-3.49219 z m 1.08398,0 q 0,2.11524 0.49219,2.81836 0.49805,0.69727 1.22461,0.69727 0.72656,0 1.21875,-0.70313 0.49805,-0.70312 0.49805,-2.8125 0,-2.12109 -0.49805,-2.81836 -0.49219,-0.69726 -1.23047,-0.69726 -0.72656,0 -1.16015,0.61523 -0.54493,0.78516 -0.54493,2.90039 z"
             style="font-size:12px;font-family:Arial;text-anchor:middle;fill:#444444;stroke:none;stroke-width:0"
             id="path3482" />
        </g>
      </g>
      <g
         id="g72">
        <g
           style="font-size:12px;font-family:Arial;text-anchor:middle;fill:#444444;stroke:none;stroke-width:0"
           id="text74">
          <path
             d="m 262.99274,259.18634 0,1.01367 -5.67774,0 q -0.0117,-0.38086 0.12305,-0.73242 0.2168,-0.58008 0.69141,-1.14258 0.48046,-0.5625 1.38281,-1.30078 1.40039,-1.14844 1.89258,-1.81641 0.49218,-0.67382 0.49218,-1.27148 0,-0.62695 -0.45117,-1.05469 -0.44531,-0.43359 -1.16601,-0.43359 -0.76172,0 -1.21875,0.45703 -0.45704,0.45703 -0.46289,1.26563 l -1.08399,-0.11133 q 0.11133,-1.21289 0.83789,-1.84571 0.72656,-0.63867 1.95117,-0.63867 1.23633,0 1.95703,0.68555 0.72071,0.68555 0.72071,1.69922 0,0.51562 -0.21094,1.01367 -0.21094,0.49805 -0.70312,1.04883 -0.48633,0.55078 -1.62305,1.51172 -0.94922,0.79687 -1.21875,1.08398 -0.26953,0.28125 -0.44531,0.56836 l 4.21289,0 z"
             style="font-size:12px;font-family:Arial;text-anchor:middle;fill:#444444;stroke:none;stroke-width:0"
             id="path3485" />
          <path
             d="m 264.12946,255.96368 q 0,-1.52343 0.31054,-2.44921 0.31641,-0.93165 0.93164,-1.43555 0.6211,-0.50391 1.5586,-0.50391 0.6914,0 1.21289,0.28125 0.52148,0.27539 0.86133,0.80274 0.33984,0.52148 0.5332,1.27734 0.19336,0.75 0.19336,2.02734 0,1.51172 -0.31055,2.44336 -0.31055,0.92578 -0.93164,1.43555 -0.61523,0.50391 -1.55859,0.50391 -1.24219,0 -1.95118,-0.89063 -0.8496,-1.07226 -0.8496,-3.49219 z m 1.08398,0 q 0,2.11524 0.49219,2.81836 0.49804,0.69727 1.22461,0.69727 0.72656,0 1.21875,-0.70313 0.49804,-0.70312 0.49804,-2.8125 0,-2.12109 -0.49804,-2.81836 -0.49219,-0.69726 -1.23047,-0.69726 -0.72656,0 -1.16016,0.61523 -0.54492,0.78516 -0.54492,2.90039 z"
             style="font-size:12px;font-family:Arial;text-anchor:middle;fill:#444444;stroke:none;stroke-width:0"
             id="path3487" />
          <path
             d="m 271.3775,260.20001 0,-1.20117 1.20117,0 0,1.20117 q 0,0.66211 -0.23437,1.06641 -0.23438,0.41015 -0.74414,0.63281 l -0.29297,-0.45117 q 0.33398,-0.14649 0.49219,-0.43359 0.1582,-0.28125 0.17578,-0.81446 l -0.59766,0 z"
             style="font-size:12px;font-family:Arial;text-anchor:middle;fill:#444444;stroke:none;stroke-width:0"
             id="path3489" />
          <path
             d="m 274.13727,255.96368 q 0,-1.52343 0.31054,-2.44921 0.31641,-0.93165 0.93165,-1.43555 0.62109,-0.50391 1.55859,-0.50391 0.69141,0 1.21289,0.28125 0.52148,0.27539 0.86133,0.80274 0.33984,0.52148 0.5332,1.27734 0.19336,0.75 0.19336,2.02734 0,1.51172 -0.31055,2.44336 -0.31054,0.92578 -0.93164,1.43555 -0.61523,0.50391 -1.55859,0.50391 -1.24219,0 -1.95117,-0.89063 -0.84961,-1.07226 -0.84961,-3.49219 z m 1.08398,0 q 0,2.11524 0.49219,2.81836 0.49805,0.69727 1.22461,0.69727 0.72656,0 1.21875,-0.70313 0.49805,-0.70312 0.49805,-2.8125 0,-2.12109 -0.49805,-2.81836 -0.49219,-0.69726 -1.23047,-0.69726 -0.72656,0 -1.16016,0.61523 -0.54492,0.78516 -0.54492,2.90039 z"
             style="font-size:12px;font-family:Arial;text-anchor:middle;fill:#444444;stroke:none;stroke-width:0"
             id="path3491" />
          <path
             d="m 280.81696,255.96368 q 0,-1.52343 0.31054,-2.44921 0.31641,-0.93165 0.93164,-1.43555 0.6211,-0.50391 1.5586,-0.50391 0.6914,0 1.21289,0.28125 0.52148,0.27539 0.86133,0.80274 0.33984,0.52148 0.5332,1.27734 0.19336,0.75 0.19336,2.02734 0,1.51172 -0.31055,2.44336 -0.31055,0.92578 -0.93164,1.43555 -0.61523,0.50391 -1.55859,0.50391 -1.24219,0 -1.95118,-0.89063 -0.8496,-1.07226 -0.8496,-3.49219 z m 1.08398,0 q 0,2.11524 0.49219,2.81836 0.49804,0.69727 1.22461,0.69727 0.72656,0 1.21875,-0.70313 0.49804,-0.70312 0.49804,-2.8125 0,-2.12109 -0.49804,-2.81836 -0.49219,-0.69726 -1.23047,-0.69726 -0.72656,0 -1.16016,0.61523 -0.54492,0.78516 -0.54492,2.90039 z"
             style="font-size:12px;font-family:Arial;text-anchor:middle;fill:#444444;stroke:none;stroke-width:0"
             id="path3493" />
          <path
             d="m 287.49664,255.96368 q 0,-1.52343 0.31055,-2.44921 0.31641,-0.93165 0.93164,-1.43555 0.62109,-0.50391 1.55859,-0.50391 0.69141,0 1.21289,0.28125 0.52149,0.27539 0.86133,0.80274 0.33985,0.52148 0.53321,1.27734 0.19336,0.75 0.19336,2.02734 0,1.51172 -0.31055,2.44336 -0.31055,0.92578 -0.93164,1.43555 -0.61524,0.50391 -1.5586,0.50391 -1.24218,0 -1.95117,-0.89063 -0.84961,-1.07226 -0.84961,-3.49219 z m 1.08399,0 q 0,2.11524 0.49218,2.81836 0.49805,0.69727 1.22461,0.69727 0.72657,0 1.21875,-0.70313 0.49805,-0.70312 0.49805,-2.8125 0,-2.12109 -0.49805,-2.81836 -0.49218,-0.69726 -1.23046,-0.69726 -0.72657,0 -1.16016,0.61523 -0.54492,0.78516 -0.54492,2.90039 z"
             style="font-size:12px;font-family:Arial;text-anchor:middle;fill:#444444;stroke:none;stroke-width:0"
             id="path3495" />
        </g>
      </g>
      <g
         id="g76">
        <g
           style="font-size:12px;font-family:Arial;text-anchor:middle;fill:#444444;stroke:none;stroke-width:0"
           id="text78">
          <path
             d="m 348.20343,257.93243 1.05469,-0.14062 q 0.18164,0.89648 0.61523,1.29492 0.43946,0.39258 1.06641,0.39258 0.74414,0 1.2539,-0.51563 0.51563,-0.51562 0.51563,-1.27734 0,-0.72656 -0.47461,-1.19531 -0.47461,-0.47461 -1.20703,-0.47461 -0.29883,0 -0.74414,0.11719 l 0.11719,-0.92579 q 0.10546,0.0117 0.16992,0.0117 0.67383,0 1.21289,-0.35156 0.53906,-0.35156 0.53906,-1.08398 0,-0.58008 -0.39258,-0.96094 -0.39258,-0.38086 -1.01367,-0.38086 -0.61523,0 -1.02539,0.38672 -0.41016,0.38672 -0.52734,1.16015 l -1.05469,-0.1875 q 0.19336,-1.06054 0.87891,-1.64062 0.68554,-0.58594 1.70507,-0.58594 0.70313,0 1.29493,0.30469 0.59179,0.29883 0.90234,0.82031 0.31641,0.52149 0.31641,1.10742 0,0.55664 -0.29883,1.01368 -0.29883,0.45703 -0.88477,0.72656 0.76172,0.17578 1.1836,0.73242 0.42187,0.55078 0.42187,1.38281 0,1.125 -0.82031,1.91016 -0.82031,0.7793 -2.07422,0.7793 -1.13086,0 -1.88086,-0.67383 -0.74414,-0.67383 -0.84961,-1.7461 z"
             style="font-size:12px;font-family:Arial;text-anchor:middle;fill:#444444;stroke:none;stroke-width:0"
             id="path3498" />
          <path
             d="m 354.87726,255.96368 q 0,-1.52343 0.31055,-2.44921 0.3164,-0.93165 0.93164,-1.43555 0.62109,-0.50391 1.55859,-0.50391 0.69141,0 1.21289,0.28125 0.52148,0.27539 0.86133,0.80274 0.33984,0.52148 0.5332,1.27734 0.19336,0.75 0.19336,2.02734 0,1.51172 -0.31055,2.44336 -0.31054,0.92578 -0.93164,1.43555 -0.61523,0.50391 -1.55859,0.50391 -1.24219,0 -1.95117,-0.89063 -0.84961,-1.07226 -0.84961,-3.49219 z m 1.08398,0 q 0,2.11524 0.49219,2.81836 0.49805,0.69727 1.22461,0.69727 0.72656,0 1.21875,-0.70313 0.49805,-0.70312 0.49805,-2.8125 0,-2.12109 -0.49805,-2.81836 -0.49219,-0.69726 -1.23047,-0.69726 -0.72656,0 -1.16016,0.61523 -0.54492,0.78516 -0.54492,2.90039 z"
             style="font-size:12px;font-family:Arial;text-anchor:middle;fill:#444444;stroke:none;stroke-width:0"
             id="path3500" />
          <path
             d="m 362.12531,260.20001 0,-1.20117 1.20117,0 0,1.20117 q 0,0.66211 -0.23438,1.06641 -0.23437,0.41015 -0.74414,0.63281 l -0.29297,-0.45117 q 0.33399,-0.14649 0.49219,-0.43359 0.1582,-0.28125 0.17578,-0.81446 l -0.59765,0 z"
             style="font-size:12px;font-family:Arial;text-anchor:middle;fill:#444444;stroke:none;stroke-width:0"
             id="path3502" />
          <path
             d="m 364.88507,255.96368 q 0,-1.52343 0.31055,-2.44921 0.3164,-0.93165 0.93164,-1.43555 0.62109,-0.50391 1.55859,-0.50391 0.69141,0 1.21289,0.28125 0.52149,0.27539 0.86133,0.80274 0.33984,0.52148 0.5332,1.27734 0.19336,0.75 0.19336,2.02734 0,1.51172 -0.31054,2.44336 -0.31055,0.92578 -0.93164,1.43555 -0.61524,0.50391 -1.5586,0.50391 -1.24219,0 -1.95117,-0.89063 -0.84961,-1.07226 -0.84961,-3.49219 z m 1.08399,0 q 0,2.11524 0.49218,2.81836 0.49805,0.69727 1.22461,0.69727 0.72656,0 1.21875,-0.70313 0.49805,-0.70312 0.49805,-2.8125 0,-2.12109 -0.49805,-2.81836 -0.49219,-0.69726 -1.23047,-0.69726 -0.72656,0 -1.16015,0.61523 -0.54492,0.78516 -0.54492,2.90039 z"
             style="font-size:12px;font-family:Arial;text-anchor:middle;fill:#444444;stroke:none;stroke-width:0"
             id="path3504" />
          <path
             d="m 371.56476,255.96368 q 0,-1.52343 0.31055,-2.44921 0.3164,-0.93165 0.93164,-1.43555 0.62109,-0.50391 1.55859,-0.50391 0.69141,0 1.21289,0.28125 0.52148,0.27539 0.86133,0.80274 0.33984,0.52148 0.5332,1.27734 0.19336,0.75 0.19336,2.02734 0,1.51172 -0.31055,2.44336 -0.31054,0.92578 -0.93164,1.43555 -0.61523,0.50391 -1.55859,0.50391 -1.24219,0 -1.95117,-0.89063 -0.84961,-1.07226 -0.84961,-3.49219 z m 1.08398,0 q 0,2.11524 0.49219,2.81836 0.49805,0.69727 1.22461,0.69727 0.72656,0 1.21875,-0.70313 0.49805,-0.70312 0.49805,-2.8125 0,-2.12109 -0.49805,-2.81836 -0.49219,-0.69726 -1.23047,-0.69726 -0.72656,0 -1.16016,0.61523 -0.54492,0.78516 -0.54492,2.90039 z"
             style="font-size:12px;font-family:Arial;text-anchor:middle;fill:#444444;stroke:none;stroke-width:0"
             id="path3506" />
          <path
             d="m 378.24445,255.96368 q 0,-1.52343 0.31054,-2.44921 0.31641,-0.93165 0.93164,-1.43555 0.6211,-0.50391 1.5586,-0.50391 0.6914,0 1.21289,0.28125 0.52148,0.27539 0.86133,0.80274 0.33984,0.52148 0.5332,1.27734 0.19336,0.75 0.19336,2.02734 0,1.51172 -0.31055,2.44336 -0.31055,0.92578 -0.93164,1.43555 -0.61523,0.50391 -1.55859,0.50391 -1.24219,0 -1.95117,-0.89063 -0.84961,-1.07226 -0.84961,-3.49219 z m 1.08398,0 q 0,2.11524 0.49219,2.81836 0.49804,0.69727 1.22461,0.69727 0.72656,0 1.21875,-0.70313 0.49804,-0.70312 0.49804,-2.8125 0,-2.12109 -0.49804,-2.81836 -0.49219,-0.69726 -1.23047,-0.69726 -0.72656,0 -1.16016,0.61523 -0.54492,0.78516 -0.54492,2.90039 z"
             style="font-size:12px;font-family:Arial;text-anchor:middle;fill:#444444;stroke:none;stroke-width:0"
             id="path3508" />
        </g>
      </g>
      <g
         id="g80">
        <g
           style="font-size:12px;font-family:Arial;text-anchor:end;fill:#444444;stroke:none;stroke-width:0"
           id="text82">
          <path
             d="m 75.818359,242.46367 q 0,-1.52344 0.310547,-2.44922 0.316406,-0.93164 0.931641,-1.43555 0.621094,-0.5039 1.558594,-0.5039 0.691406,0 1.21289,0.28125 0.521485,0.27539 0.861328,0.80273 0.339844,0.52149 0.533203,1.27735 0.19336,0.75 0.19336,2.02734 0,1.51172 -0.310547,2.44336 -0.310547,0.92578 -0.931641,1.43555 -0.615234,0.5039 -1.558593,0.5039 -1.242188,0 -1.951172,-0.89062 -0.84961,-1.07227 -0.84961,-3.49219 z m 1.083985,0 q 0,2.11523 0.492187,2.81836 0.498047,0.69726 1.22461,0.69726 0.726562,0 1.21875,-0.70312 0.498046,-0.70313 0.498046,-2.8125 0,-2.12109 -0.498046,-2.81836 -0.492188,-0.69727 -1.230469,-0.69727 -0.726563,0 -1.160156,0.61524 -0.544922,0.78515 -0.544922,2.90039 z"
             style="font-size:12px;font-family:Arial;text-anchor:end;fill:#444444;stroke:none;stroke-width:0"
             id="path3511" />
        </g>
      </g>
      <g
         id="g84">
        <g
           style="font-size:12px;font-family:Arial;text-anchor:end;fill:#444444;stroke:none;stroke-width:0"
           id="text86">
          <path
             d="m 73.111328,185.3667 -1.054687,0 0,-6.7207 q -0.38086,0.36328 -1.001954,0.72656 -0.615234,0.36328 -1.107421,0.54492 l 0,-1.01953 q 0.884765,-0.41602 1.546875,-1.00781 0.662109,-0.5918 0.9375,-1.14844 l 0.679687,0 0,8.625 z"
             style="font-size:12px;font-family:Arial;text-anchor:end;fill:#444444;stroke:none;stroke-width:0"
             id="path3514" />
          <path
             d="m 75.818359,181.13037 q 0,-1.52344 0.310547,-2.44922 0.316406,-0.93164 0.931641,-1.43554 0.621094,-0.50391 1.558594,-0.50391 0.691406,0 1.21289,0.28125 0.521485,0.27539 0.861328,0.80273 0.339844,0.52149 0.533203,1.27735 0.19336,0.75 0.19336,2.02734 0,1.51172 -0.310547,2.44336 -0.310547,0.92578 -0.931641,1.43555 -0.615234,0.5039 -1.558593,0.5039 -1.242188,0 -1.951172,-0.89062 -0.84961,-1.07227 -0.84961,-3.49219 z m 1.083985,0 q 0,2.11524 0.492187,2.81836 0.498047,0.69727 1.22461,0.69727 0.726562,0 1.21875,-0.70313 0.498046,-0.70312 0.498046,-2.8125 0,-2.12109 -0.498046,-2.81836 -0.492188,-0.69726 -1.230469,-0.69726 -0.726563,0 -1.160156,0.61523 -0.544922,0.78516 -0.544922,2.90039 z"
             style="font-size:12px;font-family:Arial;text-anchor:end;fill:#444444;stroke:none;stroke-width:0"
             id="path3516" />
        </g>
      </g>
      <g
         id="g88">
        <g
           style="font-size:12px;font-family:Arial;text-anchor:end;fill:#444444;stroke:none;stroke-width:0"
           id="text90">
          <path
             d="m 74.681641,123.01963 0,1.01367 -5.677735,0 q -0.01172,-0.38086 0.123047,-0.73242 0.216797,-0.58008 0.691406,-1.14258 0.480469,-0.5625 1.382813,-1.30078 1.40039,-1.14844 1.892578,-1.81641 0.492187,-0.67382 0.492187,-1.27148 0,-0.62695 -0.451171,-1.05469 -0.445313,-0.43359 -1.166016,-0.43359 -0.761719,0 -1.21875,0.45703 -0.457031,0.45703 -0.462891,1.26563 l -1.083984,-0.11133 q 0.111328,-1.21289 0.837891,-1.84571 0.726562,-0.63867 1.951171,-0.63867 1.236329,0 1.957032,0.68555 0.720703,0.68555 0.720703,1.69922 0,0.51562 -0.210938,1.01367 -0.210937,0.49805 -0.703125,1.04883 -0.486328,0.55078 -1.623047,1.51172 -0.949218,0.79687 -1.21875,1.08398 -0.269531,0.28125 -0.445312,0.56836 l 4.212891,0 z"
             style="font-size:12px;font-family:Arial;text-anchor:end;fill:#444444;stroke:none;stroke-width:0"
             id="path3519" />
          <path
             d="m 75.818359,119.79697 q 0,-1.52343 0.310547,-2.44921 0.316406,-0.93165 0.931641,-1.43555 0.621094,-0.50391 1.558594,-0.50391 0.691406,0 1.21289,0.28125 0.521485,0.27539 0.861328,0.80274 0.339844,0.52148 0.533203,1.27734 0.19336,0.75 0.19336,2.02734 0,1.51172 -0.310547,2.44336 -0.310547,0.92578 -0.931641,1.43555 -0.615234,0.50391 -1.558593,0.50391 -1.242188,0 -1.951172,-0.89063 -0.84961,-1.07226 -0.84961,-3.49219 z m 1.083985,0 q 0,2.11524 0.492187,2.81836 0.498047,0.69727 1.22461,0.69727 0.726562,0 1.21875,-0.70313 0.498046,-0.70312 0.498046,-2.8125 0,-2.12109 -0.498046,-2.81836 -0.492188,-0.69726 -1.230469,-0.69726 -0.726563,0 -1.160156,0.61523 -0.544922,0.78516 -0.544922,2.90039 z"
             style="font-size:12px;font-family:Arial;text-anchor:end;fill:#444444;stroke:none;stroke-width:0"
             id="path3521" />
        </g>
      </g>
      <g
         id="g92">
        <g
           style="font-size:12px;font-family:Arial;text-anchor:end;fill:#444444;stroke:none;stroke-width:0"
           id="text94">
          <path
             d="m 69.144531,60.432423 1.054688,-0.140625 q 0.18164,0.896484 0.615234,1.294922 0.439453,0.392578 1.066406,0.392578 0.744141,0 1.253907,-0.515625 0.515625,-0.515625 0.515625,-1.277344 0,-0.726563 -0.47461,-1.195313 -0.474609,-0.474609 -1.207031,-0.474609 -0.298828,0 -0.744141,0.117188 l 0.117188,-0.925782 q 0.105469,0.01172 0.169922,0.01172 0.673828,0 1.21289,-0.351562 0.539063,-0.351563 0.539063,-1.083985 0,-0.580078 -0.392578,-0.960937 -0.392578,-0.38086 -1.013672,-0.38086 -0.615235,0 -1.025391,0.386719 -0.410156,0.386719 -0.527344,1.160156 L 69.25,56.301563 q 0.193359,-1.060547 0.878906,-1.640625 0.685547,-0.585937 1.705078,-0.585937 0.703125,0 1.294922,0.304687 0.591797,0.298828 0.902344,0.820313 0.316406,0.521484 0.316406,1.107422 0,0.55664 -0.298828,1.013672 -0.298828,0.457031 -0.884766,0.726562 0.761719,0.175781 1.183594,0.732422 0.421875,0.550781 0.421875,1.382812 0,1.125 -0.820312,1.910157 -0.820313,0.779297 -2.074219,0.779297 -1.130859,0 -1.880859,-0.673829 Q 69.25,61.504688 69.144531,60.432423 Z"
             style="font-size:12px;font-family:Arial;text-anchor:end;fill:#444444;stroke:none;stroke-width:0"
             id="path3524" />
          <path
             d="m 75.818359,58.463673 q 0,-1.523438 0.310547,-2.449219 0.316406,-0.931641 0.931641,-1.435547 0.621094,-0.503906 1.558594,-0.503906 0.691406,0 1.21289,0.28125 0.521485,0.27539 0.861328,0.802734 0.339844,0.521485 0.533203,1.277344 0.19336,0.75 0.19336,2.027344 0,1.511718 -0.310547,2.443359 -0.310547,0.925781 -0.931641,1.435547 -0.615234,0.503906 -1.558593,0.503906 -1.242188,0 -1.951172,-0.890625 -0.84961,-1.072265 -0.84961,-3.492187 z m 1.083985,0 q 0,2.115234 0.492187,2.818359 0.498047,0.697266 1.22461,0.697266 0.726562,0 1.21875,-0.703125 0.498046,-0.703125 0.498046,-2.8125 0,-2.121094 -0.498046,-2.81836 -0.492188,-0.697265 -1.230469,-0.697265 -0.726563,0 -1.160156,0.615234 -0.544922,0.785156 -0.544922,2.900391 z"
             style="font-size:12px;font-family:Arial;text-anchor:end;fill:#444444;stroke:none;stroke-width:0"
             id="path3526" />
        </g>
      </g>
    </g>
  </g>
  <g
     id="g96">
    <g
       id="g98">
      <g
         style="font-style:italic;font-size:12px;font-family:Arial;text-anchor:middle;fill:#222222;stroke:none;stroke-width:0"
         id="text100">
        <path
           d="m 226.24805,285.20001 1.58789,-7.61133 -2.81836,0 0.20508,-0.97851 6.76171,0 -0.20507,0.97851 -2.79493,0 -1.58789,7.61133 -1.14843,0 z"
           style="font-style:italic;font-size:12px;font-family:Arial;text-anchor:middle;fill:#222222;stroke:none;stroke-width:0"
           id="path3437" />
        <path
           d="m 232.66992,277.81134 0.25195,-1.20117 1.05469,0 -0.25195,1.20117 -1.05469,0 z m -1.54687,7.38867 1.30078,-6.22265 1.06054,0 -1.30078,6.22265 -1.06054,0 z"
           style="font-style:italic;font-size:12px;font-family:Arial;text-anchor:middle;fill:#222222;stroke:none;stroke-width:0"
           id="path3439" />
        <path
           d="m 233.83008,285.20001 1.30078,-6.22265 1.06055,0 -0.2168,1.02539 q 0.5918,-0.66211 1.05469,-0.91407 0.46875,-0.25195 1.01367,-0.25195 0.58008,0 0.9668,0.31055 0.39257,0.30469 0.51562,0.85547 0.47461,-0.58594 0.99609,-0.87305 0.52735,-0.29297 1.10743,-0.29297 0.77929,0 1.16601,0.36914 0.39258,0.36914 0.39258,1.03711 0,0.28711 -0.13477,0.94922 l -0.83789,4.00781 -1.06054,0 0.85547,-4.11328 q 0.11132,-0.50391 0.11132,-0.7207 0,-0.30469 -0.19336,-0.48047 -0.19336,-0.17578 -0.54492,-0.17578 -0.47461,0 -0.96679,0.28711 -0.49219,0.28711 -0.76758,0.75586 -0.26953,0.46289 -0.47461,1.42968 l -0.63281,3.01758 -1.06055,0 0.8789,-4.20117 q 0.0937,-0.42773 0.0937,-0.60937 0,-0.30469 -0.19335,-0.49219 -0.1875,-0.1875 -0.49219,-0.1875 -0.45117,0 -0.94922,0.28711 -0.49219,0.28711 -0.80274,0.80273 -0.31054,0.50977 -0.50976,1.45899 l -0.61524,2.9414 -1.06054,0 z"
           style="font-style:italic;font-size:12px;font-family:Arial;text-anchor:middle;fill:#222222;stroke:none;stroke-width:0"
           id="path3441" />
        <path
           d="m 248.41406,283.08478 1.03125,0.10547 q -0.22265,0.76757 -1.02539,1.45898 -0.79687,0.69141 -1.9043,0.69141 -0.6914,0 -1.27148,-0.31641 -0.57422,-0.32226 -0.87891,-0.93164 -0.29882,-0.60937 -0.29882,-1.38867 0,-1.01953 0.46875,-1.97461 0.47461,-0.96094 1.22461,-1.42383 0.75,-0.46875 1.62304,-0.46875 1.11328,0 1.77539,0.69141 0.66797,0.6914 0.66797,1.88672 0,0.45703 -0.082,0.9375 l -4.58203,0 q -0.0234,0.18164 -0.0234,0.32812 0,0.87305 0.39844,1.33594 0.4043,0.45703 0.98437,0.45703 0.54493,0 1.07227,-0.35742 0.52734,-0.35742 0.82031,-1.03125 z m -3.08203,-1.54102 3.49219,0 q 0.006,-0.16406 0.006,-0.23437 0,-0.79688 -0.39844,-1.21875 -0.39844,-0.42774 -1.02539,-0.42774 -0.67969,0 -1.24219,0.46875 -0.55664,0.46875 -0.83203,1.41211 z"
           style="font-style:italic;font-size:12px;font-family:Arial;text-anchor:middle;fill:#222222;stroke:none;stroke-width:0"
           id="path3443" />
        <path
           d="m 255.38672,287.7254 q -0.91992,-2.01562 -0.91992,-4.14258 0,-1.41796 0.36914,-2.63671 0.375,-1.22461 1.13672,-2.41993 0.5039,-0.79687 1.61132,-2.0625 l 0.82618,0 q -0.68555,0.73243 -1.45313,2.0625 -0.76172,1.33008 -1.10742,2.61329 -0.3457,1.2832 -0.3457,2.57812 0,1.93359 0.67382,4.00781 l -0.79101,0 z"
           style="font-style:italic;font-size:12px;font-family:Arial;text-anchor:middle;fill:#222222;stroke:none;stroke-width:0"
           id="path3445" />
        <path
           d="m 257.85352,285.20001 1.30078,-6.22265 1.06054,0 -0.21679,1.02539 q 0.59179,-0.66211 1.05468,-0.91407 0.46875,-0.25195 1.01368,-0.25195 0.58007,0 0.96679,0.31055 0.39258,0.30469 0.51563,0.85547 0.47461,-0.58594 0.99609,-0.87305 0.52735,-0.29297 1.10742,-0.29297 0.7793,0 1.16602,0.36914 0.39258,0.36914 0.39258,1.03711 0,0.28711 -0.13477,0.94922 l -0.83789,4.00781 -1.06055,0 0.85547,-4.11328 q 0.11133,-0.50391 0.11133,-0.7207 0,-0.30469 -0.19336,-0.48047 -0.19336,-0.17578 -0.54492,-0.17578 -0.47461,0 -0.9668,0.28711 -0.49218,0.28711 -0.76758,0.75586 -0.26953,0.46289 -0.4746,1.42968 l -0.63282,3.01758 -1.06054,0 0.8789,-4.20117 q 0.0937,-0.42773 0.0937,-0.60937 0,-0.30469 -0.19336,-0.49219 -0.1875,-0.1875 -0.49218,-0.1875 -0.45118,0 -0.94922,0.28711 -0.49219,0.28711 -0.80274,0.80273 -0.31054,0.50977 -0.50976,1.45899 l -0.61524,2.9414 -1.06054,0 z"
           style="font-style:italic;font-size:12px;font-family:Arial;text-anchor:middle;fill:#222222;stroke:none;stroke-width:0"
           id="path3447" />
        <path
           d="m 267.9668,283.07306 1.06054,-0.0645 q 0,0.45703 0.14063,0.77929 0.14062,0.32227 0.51562,0.52735 0.38086,0.20507 0.88477,0.20507 0.70312,0 1.05469,-0.28125 0.35156,-0.28125 0.35156,-0.6621 0,-0.2754 -0.21094,-0.52149 -0.2168,-0.24609 -1.06055,-0.60351 -0.83789,-0.36329 -1.07226,-0.50977 -0.39258,-0.24023 -0.5918,-0.5625 -0.19922,-0.32813 -0.19922,-0.75 0,-0.73828 0.58594,-1.26563 0.58594,-0.52734 1.64063,-0.52734 1.17187,0 1.78125,0.54492 0.61523,0.53907 0.63867,1.42383 l -1.03711,0.0703 q -0.0234,-0.5625 -0.39844,-0.89062 -0.375,-0.32813 -1.06055,-0.32813 -0.55078,0 -0.85546,0.25196 -0.30469,0.25195 -0.30469,0.54492 0,0.29297 0.26367,0.51562 0.17578,0.15235 0.9082,0.46875 1.21875,0.52735 1.53516,0.83203 0.50391,0.48633 0.50391,1.1836 0,0.46289 -0.28711,0.9082 -0.28125,0.44531 -0.86719,0.71485 -0.58008,0.26367 -1.3711,0.26367 -1.07812,0 -1.83398,-0.53321 -0.75586,-0.5332 -0.71484,-1.73437 z"
           style="font-style:italic;font-size:12px;font-family:Arial;text-anchor:middle;fill:#222222;stroke:none;stroke-width:0"
           id="path3449" />
        <path
           d="m 275.84766,276.46368 q 0.92578,2.01563 0.92578,4.13672 0,1.42383 -0.375,2.64258 -0.36914,1.21875 -1.13086,2.41992 -0.50977,0.79688 -1.61133,2.0625 l -0.82617,0 q 0.67969,-0.73828 1.44726,-2.06836 0.76758,-1.33007 1.10743,-2.60742 0.3457,-1.2832 0.3457,-2.58398 0,-1.9336 -0.67383,-4.00196 l 0.79102,0 z"
           style="font-style:italic;font-size:12px;font-family:Arial;text-anchor:middle;fill:#222222;stroke:none;stroke-width:0"
           id="path3451" />
      </g>
      <path
         style="fill:#ffffff;fill-opacity:0;stroke:none;stroke-width:0"
         d="m 94,275 313,0 0,12 -313,0 z"
         id="rect102" />
    </g>
  </g>
  <g
     id="g104" />
</svg>
