<svg xmlns="http://www.w3.org/2000/svg" width="700" height="400" aria-label="A chart." style="overflow: hidden;"><defs id="_ABSTRACT_RENDERER_ID_0"><clipPath id="_ABSTRACT_RENDERER_ID_1"><rect x="127" y="77" width="446" height="247"></rect></clipPath></defs><rect x="0" y="0" width="700" height="400" stroke="none" stroke-width="0" fill="#ffffff"></rect><g><text text-anchor="start" x="127" y="54.05" font-family="Arial" font-size="13" font-weight="bold" stroke="none" stroke-width="0" fill="#000000">Distance Between Agents Model 01</text><rect x="127" y="43" width="446" height="13" stroke="none" stroke-width="0" fill-opacity="0" fill="#ffffff"></rect></g><g><rect x="127" y="77" width="446" height="247" stroke="none" stroke-width="0" fill-opacity="0" fill="#ffffff"></rect><g clip-path="url(http://localhost:63342/hc-with-streams/results/no-vpn/relative-distance.html?_ijt=1300ojbnotholknhvb8mq1hr2b#_ABSTRACT_RENDERER_ID_1)"><g><rect x="255" y="77" width="1" height="247" stroke="none" stroke-width="0" fill="#cccccc"></rect><rect x="385" y="77" width="1" height="247" stroke="none" stroke-width="0" fill="#cccccc"></rect><rect x="514" y="77" width="1" height="247" stroke="none" stroke-width="0" fill="#cccccc"></rect><rect x="126" y="77" width="1" height="247" stroke="none" stroke-width="0" fill="#ebebeb"></rect><rect x="191" y="77" width="1" height="247" stroke="none" stroke-width="0" fill="#ebebeb"></rect><rect x="320" y="77" width="1" height="247" stroke="none" stroke-width="0" fill="#ebebeb"></rect><rect x="450" y="77" width="1" height="247" stroke="none" stroke-width="0" fill="#ebebeb"></rect><rect x="579" y="77" width="1" height="247" stroke="none" stroke-width="0" fill="#ebebeb"></rect><rect x="127" y="323" width="446" height="1" stroke="none" stroke-width="0" fill="#cccccc"></rect><rect x="127" y="274" width="446" height="1" stroke="none" stroke-width="0" fill="#cccccc"></rect><rect x="127" y="225" width="446" height="1" stroke="none" stroke-width="0" fill="#cccccc"></rect><rect x="127" y="175" width="446" height="1" stroke="none" stroke-width="0" fill="#cccccc"></rect><rect x="127" y="126" width="446" height="1" stroke="none" stroke-width="0" fill="#cccccc"></rect><rect x="127" y="77" width="446" height="1" stroke="none" stroke-width="0" fill="#cccccc"></rect><rect x="127" y="298" width="446" height="1" stroke="none" stroke-width="0" fill="#ebebeb"></rect><rect x="127" y="249" width="446" height="1" stroke="none" stroke-width="0" fill="#ebebeb"></rect><rect x="127" y="200" width="446" height="1" stroke="none" stroke-width="0" fill="#ebebeb"></rect><rect x="127" y="151" width="446" height="1" stroke="none" stroke-width="0" fill="#ebebeb"></rect><rect x="127" y="102" width="446" height="1" stroke="none" stroke-width="0" fill="#ebebeb"></rect></g><g><rect x="127" y="323" width="446" height="1" stroke="none" stroke-width="0" fill="#333333"></rect></g><g><path d="M127.5,116.368L128.3024781129112,116.368L129.05318344434426,116.56479999999999L129.84271836188591,116.76159999999999L130.54165091184083,116.95840000000001L131.1888106803176,117.15520000000001L131.96540240248973,117.5488L132.74199412466186,117.84400000000002L133.42798347924725,118.23760000000001L134.16574561531078,118.6312L134.96822372822197,119.2216L135.65421308280736,119.61520000000002L136.3660888281318,120.2056L137.07796457345626,120.69760000000002L137.80278351415026,121.28799999999998L138.5146592594747,121.9768L139.2394782001687,122.66560000000001L140.0031267269713,123.45280000000002L140.67617288618715,124.14159999999998L141.43982141298972,124.9288L142.16464035368372,125.8144L142.87651609900817,126.69999999999999L143.60133503970215,127.5856L144.3132107850266,128.4712L145.08980250719873,129.65200000000002L145.85345103400132,130.636L146.55238358395624,131.62L147.32897530612837,132.70239999999998L148.0279078560833,133.88320000000002L148.70095401529915,134.8672L149.46460254210174,136.1464L150.26708065501293,137.32719999999998L150.92718361885926,138.4096L151.61317297344462,139.68880000000001L152.3250487187691,140.86960000000002L153.01103807335446,142.2472L154.1500392658736,145.0024L154.77131264361128,145.4944L155.4961315843053,146.872L156.18212093889065,148.05280000000002L156.93282627032372,149.72560000000001L157.6188156249091,150.808L158.31774817486402,152.48080000000002L159.02962392018847,153.9568L159.7285564701434,155.43280000000001L160.44043221546784,156.71200000000002L161.20408074227043,158.4832L161.96772926907303,160.2544L162.6537186236584,161.5336L163.33970797824378,163.2064L164.05158372356823,164.7808L164.77640266426224,166.3552L165.47533521421715,167.9296L166.1613245688025,169.7992L166.92497309560514,171.27519999999998L167.6886216224077,173.3416L168.46521334457987,175.3096L169.15120269916522,177.08079999999998L169.87602163985923,178.9504L170.65261336203133,181.21359999999999L171.3256595212472,182.8864L172.0245920712021,185.0512L172.72352462115703,187.216L173.448343561851,189.47920000000002L174.22493528402316,192.136L174.91092463860852,194.20239999999998L175.622800383933,196.3672L176.37350571536604,198.9256L177.08538146069048,201.68079999999998L177.79725720601493,204.1408L178.49618975596985,206.5024L179.2339518920334,209.25760000000002L179.9717140280969,211.816L180.72241935952997,214.5712L181.55078386318024,218.1136L182.2626596085047,220.5736L183.0651377214159,223.8208L183.7899566621099,226.6744L184.55360518891246,229.6264L185.30431052034552,232.1848L186.01618626567,235.3336L186.77983479247257,238.0888L187.46582414705796,241.13920000000002L188.22947267386056,244.09120000000001L188.8248596608592,246.4528L189.54967860155318,249.5032L190.3262703237253,252.4552L191.03814606904976,255.30880000000002L191.73707861900468,258.06399999999996L192.4101247782205,260.6224L193.0961141328059,263.2792L194.15745615310783,267.7072L194.86933189843228,269.6752L195.81418516040836,273.4144L196.5260609057328,275.1856L197.2897094325354,277.3504L198.0274715685989,279.712L198.73934731392336,281.2864L199.43827986387828,282.8608L200.1630988045723,283.9432L200.84908815915767,285.0256L201.67745266280792,286.20640000000003L202.428157994241,286.6L203.16592013030453,286.6L203.83896628952039,286.40319999999997L204.55084203484483,286.0096L205.26271778016928,285.2224L205.94870713475467,284.3368L206.63469648934003,283.25440000000003L207.29479945318633,281.9752L208.1231639568366,280.4008L209.14567639102992,278.5312L209.90932491783252,276.26800000000003L210.62120066315697,274.4968L211.34601960385095,272.7256L212.08378173991449,270.7576L212.88625985282567,268.7896L213.64990837962827,266.8216L214.36178412495275,264.85360000000003L215.12543265175532,262.8856L215.74670602949303,261.3112L216.47152497018703,259.54L217.196343910881,257.8672L217.921162851575,256.096L218.63303859689944,254.4232L219.28019836537624,252.84879999999998L220.17327884587417,251.2744L220.8333818097205,249.5032L221.4934847735668,248.12560000000002L222.50305401239055,246.748L223.2408161484541,244.78L223.99152147988713,243.5992L224.71634042058113,242.22160000000002L225.71296646403536,240.9424L226.46367179546843,239.5648L227.24026351764053,238.48239999999998L227.952139262965,237.5968L229.0134812832669,236.71120000000002L229.67358424711324,235.6288L230.37251679706816,234.94L231.045562956284,234.25119999999998L231.80921148308659,233.75920000000002L232.59874640062824,233.2672L233.29767895058316,232.77519999999998L233.98366830516855,232.3816L234.695544050493,232.08640000000003L235.38153340507836,231.8896L236.13223873651145,231.6928L236.80528489572728,231.496L237.51716064105173,231.3976L238.20314999563712,231.3976L238.87619615485295,231.3976L239.66573107239464,231.5944L240.4293795991972,231.5944L241.19302812599983,231.8896L241.87901748058522,232.08640000000003L242.65560920275732,232.3816L243.3804281434513,232.67680000000001L244.07936069340622,233.0704L244.77829324336113,233.3656L245.47722579331605,233.75920000000002L246.1502719525319,234.25119999999998L246.8362613071173,234.7432L247.819944155202,235.2352L248.53181990052644,236.0224L249.32135481806813,236.71120000000002L249.9814577819144,237.2032L250.74510630871703,237.892L251.45698205404148,238.48239999999998L252.16885779936592,239.2696L252.88073354469037,239.86L253.5796660946453,240.5488L254.55040574736046,241.336L255.21050871120676,242.1232L255.93532765190076,242.9104L256.62131700648615,243.5008L257.4367383147669,244.288L258.1615572554608,244.9768L258.8604898054158,245.66559999999998L259.5723655507402,246.256L260.27129810069516,247.0432L261.0867194089759,247.732L261.83742474040895,248.224L262.5493004857334,248.9128L263.3517785986446,249.5032L264.0507111485995,250.09359999999998L264.762586893924,250.684L265.52623542072655,251.07760000000002L266.3157703382682,251.5696L267.05353247433175,252.0616L267.75246502428666,252.3568L268.81380704458854,253.4392L269.5127395945435,253.2424L270.49642244262816,254.02960000000002L271.19535499258313,253.63600000000002L271.894287542538,253.83280000000002L272.58027689712344,253.9312L273.25332305633924,254.02960000000002L273.95225560629416,254.128L274.72884732846626,254.2264L275.42777987842123,254.02960000000002L276.1914284052238,254.128L276.9550769320264,253.9312L277.6669526773509,253.83280000000002L278.43060120415345,253.5376L279.11659055873884,253.3408L279.85435269480234,253.144L280.5273988540182,252.9472L281.2522177947122,252.652L281.9899799307757,252.3568L282.7018556761002,251.8648L283.36195863994647,251.668L284.0867775806405,251.37279999999998L284.82453971670395,250.88080000000002L285.4458130944417,250.4872L286.15768883976614,250.09359999999998L286.8695645850906,249.79840000000002L287.59438352578456,249.3064L288.28037288036995,248.9128L289.26405572845465,248.61759999999998L289.96298827840957,247.92880000000002L290.6619208283645,247.6336L291.4126261597976,247.14159999999998L292.11155870975244,246.64960000000002L292.90109362729413,246.256L293.6388557633577,245.764L294.33778831331256,245.4688L295.0755504493761,245.17360000000002L295.774482999331,244.6816L296.47341554928596,244.288L297.18529129461035,243.796L298.14308775195605,243.69760000000002L299.1914865768884,243.2056L299.8904191268433,242.71359999999999L300.5634652860591,242.41840000000002L301.236511445275,242.1232L301.96133038596895,241.9264L302.67320613129345,241.7296L303.6827753701172,241.43439999999998L304.39465111544166,241.13920000000002L305.1582996422443,241.13920000000002L305.8701753875687,240.7456L306.6338239143713,240.7456L307.2939268782176,240.5488L307.99285942817255,240.4504L308.70473517349694,240.352L309.41661091882145,240.2536L310.1284866641459,240.2536L310.80153282336175,240.15519999999998L311.51340856868615,240.0568L312.22528431401065,240.0568L312.9371600593351,240.0568L313.6619790000291,240.0568L314.360911549984,239.95839999999998L315.07278729530844,240.15519999999998L315.7458334545243,240.0568L316.8201186701957,240.15519999999998L317.63553997847646,240.352L318.38624530990955,240.352L319.2404962042989,240.4504L319.96531514499287,240.5488L320.6771908903173,240.6472L321.3631802449027,240.7456L322.07505599022716,240.7456L323.0716820336814,241.13920000000002L324.08125127250514,241.2376L324.8578429946773,241.43439999999998L325.5826619353713,241.5328L326.2945376806957,241.7296L327.0452430121288,241.82799999999997L327.7571187574532,241.82799999999997L328.4560513074082,242.1232L329.1679270527326,242.32L329.84097321194844,242.32L330.53990576190336,242.5168L331.2647247025974,242.61520000000002L332.0154300340304,242.9104L332.7014193886158,242.9104L333.42623832930974,243.1072L334.1122276838952,243.2056L334.81116023385005,243.304L335.47126319769643,243.4024L336.1701957476513,243.5992L336.94678746982345,243.796L337.6586632151479,243.796L338.3964253512114,243.9928L339.10830109653585,243.89440000000002L340.1178703353596,244.18959999999998L340.88151886216224,244.288L341.6581105843344,244.3864L342.3829295250283,244.3864L343.39249876385213,244.4848L344.07848811843746,244.4848L344.8550798406096,244.4848L345.5928419766732,244.6816L346.3176609173671,244.4848L347.34017335156045,244.4848L348.01321951077625,244.3864L348.76392484220935,244.3864L349.51463017364244,244.3864L350.22650591896684,244.288L351.003097641139,244.288L351.6761438003548,244.09120000000001L352.3491899595707,243.9928L353.07400890026463,243.9928L354.0188621622408,243.9928L354.7436811029347,243.796L355.4943864343678,243.69760000000002L356.2321485704313,243.5008L357.0087402926034,243.5008L357.73355923329746,243.304L358.4454349786219,243.2056L359.15731072394635,243.0088L359.9339024461185,243.0088L360.7104941682906,242.9104L361.396483522876,242.61520000000002L362.10835926820045,242.5168L362.84612140426395,242.5168L363.6227131264361,242.32L364.32164567639103,242.1232L365.0076350309764,241.9264L366.0172042698002,242.02480000000003L366.6773072336465,241.7296L367.3374101974928,241.5328L368.0363427474477,241.5328L368.7352752974026,241.43439999999998L369.51186701957477,241.336L370.23668596026874,241.2376L371.2462551990925,241.13920000000002L371.9322445536779,241.0408L372.70883627585,240.9424L373.39482563043543,240.844L374.2231901340857,240.6472L374.9868386608882,240.7456L376.00935109508157,240.7456L376.73417003577555,240.5488L377.43310258573047,240.352L378.1449783310549,240.5488L378.9086268578575,240.4504L379.64638899392105,240.352L380.34532154387597,240.2536L381.0442540938309,240.2536L381.75612983915534,240.2536L382.4291759983712,240.2536L383.14105174369564,240.0568L383.83998429365056,240.15519999999998L384.52597364823595,240.0568L385.22490619819087,240.15519999999998L385.94972513888484,240.15519999999998L386.6745440795788,240.15519999999998L387.38641982490327,240.0568L388.0982955702277,240.0568L388.83605770629123,240.0568L389.5220470608766,240.0568L390.18215002472294,239.95839999999998L390.91991216078645,240.0568L391.61884471074137,239.95839999999998L392.34366365143535,240.0568L393.0684825921294,239.95839999999998L394.0392222448445,240.0568L394.81581396701665,240.0568L395.9159855734272,240.6472L396.6149181233821,240.0568L397.313850673337,240.0568L398.01278322329193,240.0568L398.7246589686164,239.95839999999998L399.48830749541895,240.0568L400.13546726389575,240.0568L400.8602862045897,240.0568L401.6239347313923,240.352L402.3358104767168,240.2536L403.09945900351937,240.2536L403.8760507256915,240.352L404.5490968849073,240.15519999999998L405.3256886070795,240.4504L406.0246211570344,240.2536L406.7494400977284,240.352L407.5001454291614,240.2536L408.626203426311,241.0408L409.3769087577441,240.352L410.1146708938076,240.4504L410.81360344376253,240.4504L411.5384223844565,240.352L412.28912771588955,240.352L413.07866263343124,240.5488L413.8293679648643,240.352L414.8777667897967,241.0408L415.56375614438207,240.4504L416.32740467118464,240.4504L417.12988278409586,240.5488L417.81587213868124,240.4504L418.50186149326663,240.4504L419.20079404322155,240.4504L419.97738576539365,240.352L420.6892615107181,240.4504L421.3752508653035,240.4504L422.1777289782147,240.4504L422.92843430964774,240.4504L423.6403100549722,240.352L424.41690177714435,240.4504L425.15466391320786,240.352L425.84065326779324,240.15519999999998L426.53958581774816,240.2536L427.2385183677031,240.2536L427.9892236991361,240.2536L428.7140426398301,240.15519999999998L429.43886158052413,240.15519999999998L430.13779413047905,240.0568L431.17324976004187,240.0568L431.85923911462726,240.0568L432.5581716645822,239.95839999999998L433.32182019138475,239.86L434.0595823274483,239.95839999999998L434.8232308542509,240.0568L435.5221634042058,239.86L436.28581193100837,239.95839999999998L436.9847444809633,239.95839999999998L437.6836770309182,239.86L438.3826095808731,239.86L439.0297693493499,239.7616L439.68987231319625,239.7616L440.4146912538902,239.86L441.0877374131061,239.86L441.85138593990865,239.7616L442.55031848986357,239.7616L443.3269102120357,239.7616L444.3364794508595,240.15519999999998L445.074241586923,239.66320000000002L445.7731741368779,239.7616L446.47210668683283,239.66320000000002L447.1969256275268,239.7616L447.97351734969897,239.7616L448.724222681132,239.66320000000002L449.4619848171955,239.7616L450.1091445856723,239.66320000000002L450.80807713562723,239.7616L451.50700968558215,239.7616L452.19299904016754,239.66320000000002L452.89193159012245,239.5648L453.61675053081643,239.7616L454.31568308077135,239.5648L455.01461563072627,239.66320000000002L455.70060498531166,239.66320000000002L456.3995375352666,239.66320000000002L457.1761292574387,239.7616L457.96566417498036,239.7616L458.65165352956575,239.5648L459.3635292748902,239.5648L460.07540502021465,239.5648L460.76139437480003,239.46640000000002L461.46032692475495,239.5648L462.18514586544893,239.5648L462.93585119688197,239.368L463.6088973560978,239.46640000000002L464.3725458829004,239.368L465.136194409703,239.46640000000002L465.8092405689189,239.368L466.53405950961286,239.368L467.2847648410459,239.368L467.9836973910008,239.368L468.98032343445504,239.7616L469.7569151566272,239.368L470.4817340973212,239.1712L471.20655303801516,239.2696L471.9054855879701,239.0728L472.59147494255546,239.0728L473.2904074925104,239.0728L473.97639684709577,239.0728L474.94713649981094,239.5648L475.6331258543963,239.0728L476.3450015997208,239.0728L477.0439341496757,239.0728L477.7428666996306,239.0728L478.428856054216,238.9744L479.15367499491,238.9744L479.8526075448649,238.9744L480.629199267037,238.9744L481.354018207731,238.9744L482.48007620488056,238.9744L483.1401791687269,238.876L483.8779413047904,238.876L484.5380442686367,238.7776L485.37935196765653,238.9744L486.091227712981,238.876L486.80310345830543,238.876L487.4890928128908,238.876L488.2786277304325,238.9744L488.99050347575695,238.876L489.6635496349728,238.7776L490.37542538029726,238.876L491.06141473488265,238.7776L491.7215176987289,238.7776L492.5110526162706,238.7776L493.22292836159505,238.7776L493.9348041069195,238.6792L494.64667985224395,238.876L495.66919228643724,238.7776L496.4457840086094,238.876L497.2223757307815,238.876L497.96013786684506,238.9744L498.6590704168,238.9744L499.3709461621244,238.876L500.0957651028184,238.9744L500.84647043425144,238.9744L501.58423257031495,238.9744L502.29610831563946,239.0728L503.0079840609639,239.1712L503.95283732293996,239.1712L504.677656263634,239.2696L505.73899828393587,239.86L506.3991012477822,239.2696L507.3827840958669,239.368L508.35352374858206,239.46640000000002L509.11717227538463,239.5648L509.8419912160786,239.66320000000002L510.5797533521422,239.5648L511.2916290974666,239.66320000000002L512.0423344288997,239.7616L512.7671533695936,239.86L513.42725633344,239.86L514.1391320787644,239.86L514.8639510194585,239.95839999999998L515.5758267647828,240.0568L516.2747593147378,240.0568L516.9478054739536,240.2536L517.6467380239085,240.0568L518.6304208719932,240.7456L519.3552398126872,240.2536L520.0412291672726,240.2536L520.7142753264884,240.352L521.4261510718129,240.352L522.1639132078765,240.5488L522.8628457578313,240.352L523.5488351124168,240.352L524.3254268345888,240.4504L525.0243593845437,240.352L525.7362351298682,240.4504L526.745804368692,240.2536L527.4447369186469,240.4504L528.1566126639714,240.352L528.8296588231872,240.352L529.5544777638812,240.2536L530.2663535092056,240.2536L530.9911724498996,240.352L531.6642186091156,240.15519999999998L532.3372647683314,240.2536L533.1526860766121,240.15519999999998L533.8257322358279,240.15519999999998L534.4858351996743,240.15519999999998L535.1588813588901,240.0568L535.8707571042146,240.0568L536.5955760449085,239.95839999999998L537.3462813763415,240.0568L538.0193275355574,240.0568L538.7829760623599,240.0568L539.7925453011837,240.4504L540.5820802187254,239.95839999999998L541.2939559640499,239.86L542.0058317093743,239.86L542.7177074546987,239.86L543.3907536139146,239.7616L544.1285157499782,239.86L544.8403914953026,239.7616L545.4746080684099,239.7616L546.1735406183648,239.7616L546.8595299729502,239.66320000000002L547.532576132166,239.7616L548.2315086821209,239.5648L548.9304412320759,239.7616L549.8494081033128,239.66320000000002L550.6001134347459,239.7616L551.5190803059829,239.66320000000002L552.269785637416,239.7616L553.2793548762397,240.15519999999998L554.0559465984119,239.5648L554.7419359529972,239.5648L555.8809371455163,240.2536L556.6057560862104,239.46640000000002L557.2788022454263,239.5648L558.0295075768593,239.5648L558.7413833221838,239.46640000000002L559.40148628603,239.46640000000002L560.1651348128327,239.5648L560.8640673627876,239.5648L561.6277158895901,239.66320000000002L562.3395916349145,239.46640000000002L563.0902969663478,239.5648L563.8021727116721,239.46640000000002L564.5011052616271,239.46640000000002L565.200037811582,239.368L565.9377999476455,239.46640000000002L566.6108461068613,239.368L567.3356650475553,239.368L568.0345975975102,239.368L568.7982461243128,239.2696L569.7301561909194,239.368L570.4420319362439,239.2696L571.1409644861988,239.368L571.7881242546755,239.368L572.5,239.368" stroke="#3366cc" stroke-width="2" fill-opacity="1" fill="none"></path><path d="M127.5,207.3505403438992L128.3024781129112,207.4396702755184L129.05318344434426,207.52304988904478L129.84271836188591,207.61074224123922L130.54165091184083,207.6883715365744L131.1888106803176,207.7602505137184L131.96540240248973,207.8465052863896L132.74199412466186,207.9327600589624L133.42798347924725,208.0089517747744L134.16574561531078,208.0908938086792L134.96822372822197,208.1800237403968L135.65421308280736,208.2562154562088L136.3660888281318,208.33528233106722L137.07796457345626,208.4143492059256L137.80278351415026,208.4948536604056L138.5146592594747,208.573920535264L139.2394782001687,208.654424989744L140.0031267269713,208.7392421827936L140.67617288618715,208.81399631898398L141.43982141298972,208.898813512132L142.16464035368372,208.97931796651358L142.87651609900817,209.058384841372L143.60133503970215,209.13888929585198L144.3132107850266,209.2179561707104L145.08980250719873,209.3042109432832L145.85345103400132,209.3890281364312L146.55238358395624,209.4666574317664L147.32897530612837,209.5529122043392L148.0279078560833,209.6305414996744L148.70095401529915,209.7052956359632L149.46460254210174,209.7901128290128L150.26708065501293,209.879242760632L150.92718361885926,209.9525593173976L151.61317297344462,210.0287510332096L152.3250487187691,210.107817908068L153.01103807335446,210.18400962388L154.1500392658736,210.31051662369282L154.77131264361128,210.37952044179042L155.4961315843053,210.460024896172L156.18212093889065,210.536216611984L156.93282627032372,210.6195962255104L157.6188156249091,210.6957879413224L158.31774817486402,210.7734172366576L159.02962392018847,210.852484111516L159.7285564701434,210.9301134068512L160.44043221546784,211.009180281808L161.20408074227043,211.0939974748576L161.96772926907303,211.1788146679072L162.6537186236584,211.2550063837192L163.33970797824378,211.3311980995312L164.05158372356823,211.41026497438958L164.77640266426224,211.49076942877122L165.47533521421715,211.5683987241064L166.1613245688025,211.6445904399184L166.92497309560514,211.729407632968L167.6886216224077,211.8142248260176L168.46521334457987,211.9004795986888L169.15120269916522,211.9766713145008L169.87602163985923,212.05717576888242L170.65261336203133,212.1434305414552L171.3256595212472,212.218184677744L172.0245920712021,212.2958139730792L172.72352462115703,212.3734432684144L173.448343561851,212.45394772289438L174.22493528402316,212.5402024954672L174.91092463860852,212.61639421127921L175.622800383933,212.69546108613758L176.37350571536604,212.778840699664L177.08538146069048,212.85790757452241L177.79725720601493,212.93697444947918L178.49618975596985,213.0146037448144L179.2339518920334,213.0965457787192L179.9717140280969,213.17848781272238L180.72241935952997,213.26186742624878L181.55078386318024,213.3538725170128L182.2626596085047,213.43293939187117L183.0651377214159,213.52206932358882L183.7899566621099,213.6025737779704L184.55360518891246,213.6873909711184L185.30431052034552,213.77077058454643L186.01618626567,213.8498374595032L186.77983479247257,213.9346546525528L187.46582414705796,214.0108463683648L188.22947267386056,214.09566356141443L188.8248596608592,214.1617922203672L189.54967860155318,214.2422966748472L190.3262703237253,214.32855144742L191.03814606904976,214.40761832227838L191.73707861900468,214.4852476176136L192.4101247782205,214.56000175390238L193.0961141328059,214.63619346971439L194.15745615310783,214.7540749922896L194.86933189843228,214.83314186714802L195.81418516040836,214.9380851738176L196.5260609057328,215.017152048676L197.2897094325354,215.1019692417256L198.0274715685989,215.1839112757288L198.73934731392336,215.2629781505872L199.43827986387828,215.34060744592242L200.1630988045723,215.4211119004024L200.84908815915767,215.4973036162144L201.67745266280792,215.58930870697841L202.428157994241,215.6726883205048L203.16592013030453,215.7546303544096L203.83896628952039,215.8293844906984L204.55084203484483,215.9084513655568L205.26271778016928,215.98751824051362L205.94870713475467,216.0637099562272L206.63469648934003,216.1399016720392L207.29479945318633,216.2132182288048L208.1231639568366,216.30522331956882L209.14567639102992,216.418792103476L209.90932491783252,216.5036092965256L210.62120066315697,216.58267617138398L211.34601960385095,216.66318062586402L212.08378173991449,216.7451226598672L212.88625985282567,216.8342525914864L213.64990837962827,216.919069784536L214.36178412495275,216.9981366594928L215.12543265175532,217.0829538525424L215.74670602949303,217.15195767064L216.47152497018703,217.23246212502158L217.196343910881,217.31296657950162L217.921162851575,217.3934710338832L218.63303859689944,217.47253790874163L219.28019836537624,217.544416885984L220.17327884587417,217.6436098744624L220.8333818097205,217.7169264311296L221.4934847735668,217.7902429878952L222.50305401239055,217.9023741922792L223.2408161484541,217.984316226184L223.99152147988713,218.0676958397104L224.71634042058113,218.14820029419042L225.71296646403536,218.25889391905122L226.46367179546843,218.3422735324792L227.24026351764053,218.4285283051504L227.952139262965,218.50759518000882L229.0134812832669,218.62547670258402L229.67358424711324,218.6987932592512L230.37251679706816,218.77642255458642L231.045562956284,218.8511766908752L231.80921148308659,218.9359938839248L232.59874640062824,219.0236862361192L233.29767895058316,219.10131553145442L233.98366830516855,219.17750724726642L234.695544050493,219.2565741221248L235.38153340507836,219.3327658379368L236.13223873651145,219.4161454514632L236.80528489572728,219.4908995876536L237.51716064105173,219.5699664626104L238.20314999563712,219.64615817832401L238.87619615485295,219.7209123146128L239.66573107239464,219.80860466680718L240.4293795991972,219.8934218598568L241.19302812599983,219.9782390529064L241.87901748058522,220.0544307687184L242.65560920275732,220.1406855412912L243.3804281434513,220.2211899956728L244.07936069340622,220.298819291008L244.77829324336113,220.3764485864416L245.47722579331605,220.4540778817768L246.1502719525319,220.5288320179672L246.8362613071173,220.6050237337792L247.819944155202,220.7142797791168L248.53181990052644,220.79334665397522L249.32135481806813,220.8810390061696L249.9814577819144,220.95435556283678L250.74510630871703,221.0391727558864L251.45698205404148,221.1182396307448L252.16885779936592,221.1973065057016L252.88073354469037,221.27637338056002L253.5796660946453,221.3540026758952L254.55040574736046,221.4618211416112L255.21050871120676,221.5351376983768L255.93532765190076,221.6156421527584L256.62131700648615,221.6918338685704L257.4367383147669,221.78240137981118L258.1615572554608,221.8629058342912L258.8604898054158,221.9405351296264L259.5723655507402,222.0196020044848L260.27129810069516,222.09723129982L261.0867194089759,222.1877988110608L261.83742474040895,222.2711784245872L262.5493004857334,222.3502452994456L263.3517785986446,222.4393752311632L264.0507111485995,222.5170045264984L264.762586893924,222.59607140135682L265.52623542072655,222.68088859440638L266.3157703382682,222.76858094660082L267.05353247433175,222.85052298050562L267.75246502428666,222.9281522758408L268.81380704458854,223.046033798416L269.5127395945435,223.1236630937512L270.49642244262816,223.2329191390888L271.19535499258313,223.310548434424L271.894287542538,223.3881777297592L272.58027689712344,223.4643694455712L273.25332305633924,223.53912358186L273.95225560629416,223.6167528771952L274.72884732846626,223.70300764976798L275.42777987842123,223.7806369451032L276.1914284052238,223.8654541381528L276.9550769320264,223.9502713312024L277.6669526773509,224.0293382061592L278.43060120415345,224.1141553992088L279.11659055873884,224.1903471149224L279.85435269480234,224.2722891489256L280.5273988540182,224.3470432852144L281.2522177947122,224.427547739596L281.9899799307757,224.50948977359923L282.7018556761002,224.5885566484576L283.36195863994647,224.6618732052232L284.0867775806405,224.7423776596048L284.82453971670395,224.824319693608L285.4458130944417,224.8933235117056L286.15768883976614,224.972390386564L286.8695645850906,225.0514572614224L287.59438352578456,225.1319617158827L288.28037288036995,225.20815343168488L289.26405572845465,225.3174094769733L289.96298827840957,225.39503877231834L290.6619208283645,225.47266806766336L291.4126261597976,225.55604768117993L292.11155870975244,225.63367697651512L292.90109362729413,225.72136932867016L293.6388557633577,225.80331136263402L294.33778831331256,225.88094065797904L295.0755504493761,225.96288269195273L295.774482999331,226.04051198729775L296.47341554928596,226.11814128263296L297.18529129461035,226.1972081575209L298.14308775195605,226.30358904373338L299.1914865768884,226.420032986746L299.8904191268433,226.49766228209103L300.5634652860591,226.57241641834048L301.236511445275,226.64717055459977L301.96133038596895,226.72767500903058L302.67320613129345,226.80674188390864L303.6827753701172,226.91887308829263L304.39465111544166,226.99793996318056L305.1582996422443,227.08275715624L305.8701753875687,227.16182403112794L306.6338239143713,227.24664122418736L307.2939268782176,227.31995778089393L307.99285942817255,227.39758707623895L308.70473517349694,227.47665395112688L309.41661091882145,227.5557208260148L310.1284866641459,227.6347877008929L310.80153282336175,227.70954183715216L311.51340856868615,227.7886087120401L312.22528431401065,227.867675586928L312.9371600593351,227.94674246180608L313.6619790000291,228.0272469162369L314.360911549984,228.10487621158194L315.07278729530844,228.18394308646984L315.7458334545243,228.25869722271926L316.8201186701957,228.37801632481768L317.63553997847646,228.46858383605849L318.38624530990955,228.55196344957506L319.2404962042989,228.64684369943464L319.96531514499287,228.72734815386545L320.6771908903173,228.80641502874352L321.3631802449027,228.88260674454568L322.07505599022716,228.9616736194336L323.0716820336814,229.07236724427474L324.08125127250514,229.18449844865873L324.8578429946773,229.27075322126103L325.5826619353713,229.35125767569184L326.2945376806957,229.43032455056994L327.0452430121288,229.51370416408648L327.7571187574532,229.5927710389744L328.4560513074082,229.67040033431945L329.1679270527326,229.74946720919752L329.84097321194844,229.8242213454568L330.53990576190336,229.90185064080185L331.2647247025974,229.98235509523263L332.0154300340304,230.0657347087492L332.7014193886158,230.1419264245415L333.42623832930974,230.22243087897232L334.1122276838952,230.29862259477449L334.81116023385005,230.3762518901097L335.47126319769643,230.44956844682608L336.1701957476513,230.52719774217113L336.94678746982345,230.61345251477346L337.6586632151479,230.69251938965152L338.3964253512114,230.7744614236252L339.10830109653585,230.85352829851314L340.1178703353596,230.96565950289713L340.88151886216224,231.05047669595655L341.6581105843344,231.13673146855888L342.3829295250283,231.2172359229897L343.39249876385213,231.32936712737367L344.07848811843746,231.40555884316598L344.8550798406096,231.4918136157683L345.5928419766732,231.573755649742L346.3176609173671,231.6542601041728L347.34017335156045,231.7678288880997L348.01321951077625,231.842583024359L348.76392484220935,231.9259626378755L349.51463017364244,232.00934225139207L350.22650591896684,232.08840912627016L351.003097641139,232.1746638988725L351.6761438003548,232.24941803513178L352.3491899595707,232.32417217139104L353.07400890026463,232.404676625812L354.0188621622408,232.5096199324816L354.7436811029347,232.5901243869124L355.4943864343678,232.67350400042898L356.2321485704313,232.75544603440264L357.0087402926034,232.84170080700494L357.73355923329746,232.92220526142592L358.4454349786219,233.00127213631384L359.15731072394635,233.08033901120177L359.9339024461185,233.16659378380407L360.7104941682906,233.2528485564064L361.396483522876,233.32904027220854L362.10835926820045,233.40810714708664L362.84612140426395,233.49004918106033L363.6227131264361,233.57630395366263L364.32164567639103,233.65393324900768L365.0076350309764,233.73012496480982L366.0172042698002,233.84225616919383L366.6773072336465,233.9155727259004L367.3374101974928,233.9888892826168L368.0363427474477,234.06651857796183L368.7352752974026,234.14414787329704L369.51186701957477,234.23040264589935L370.23668596026874,234.31090710033016L371.2462551990925,234.42303830471417L371.9322445536779,234.49923002051634L372.70883627585,234.58548479311864L373.39482563043543,234.66167650891094L374.2231901340857,234.75368159969463L374.9868386608882,234.83849879275408L376.00935109508157,234.95206757667114L376.73417003577555,235.03257203110195L377.43310258573047,235.11020132644694L378.1449783310549,235.18926820133487L378.9086268578575,235.27408539439432L379.64638899392105,235.356027428368L380.34532154387597,235.43365672370322L381.0442540938309,235.51128601904824L381.75612983915534,235.59035289393617L382.4291759983712,235.6651070301856L383.14105174369564,235.74417390507352L383.83998429365056,235.82180320041857L384.52597364823595,235.8979949162207L385.22490619819087,235.9756242115559L385.94972513888484,236.0561286659867L386.6745440795788,236.1366331204175L387.38641982490327,236.21569999530544L388.0982955702277,236.29476687018354L388.83605770629123,236.37670890415723L389.5220470608766,236.45290061995937L390.18215002472294,236.52621717667577L390.91991216078645,236.6081592106396L391.61884471074137,236.68578850598465L392.34366365143535,236.76629296041546L393.0684825921294,236.84679741484624L394.0392222448445,236.95461588060158L394.81581396701665,237.0408706532039L395.9159855734272,237.1630649143881L396.6149181233821,237.24069420973314L397.313850673337,237.3183235050683L398.01278322329193,237.39595280041334L398.7246589686164,237.47501967530127L399.48830749541895,237.55983686836072L400.13546726389575,237.6317158455244L400.8602862045897,237.71222029995522L401.6239347313923,237.79703749301464L402.3358104767168,237.87610436790257L403.09945900351937,237.960921560962L403.8760507256915,238.04717633356432L404.5490968849073,238.12193046981378L405.3256886070795,238.2081852424161L406.0246211570344,238.28581453776113L406.7494400977284,238.3663189921919L407.5001454291614,238.44969860570848L408.626203426311,238.57476802597841L409.3769087577441,238.65814763949498L410.1146708938076,238.74008967346865L410.81360344376253,238.81771896881367L411.5384223844565,238.89822342324447L412.28912771588955,238.9816030367512L413.07866263343124,239.06929538890626L413.8293679648643,239.152675002413L414.8777667897967,239.26911894543542L415.56375614438207,239.34531066122776L416.32740467118464,239.4301278542872L417.12988278409586,239.5192577859753L417.81587213868124,239.59544950177747L418.50186149326663,239.6716412175796L419.20079404322155,239.7492705129148L419.97738576539365,239.83552528551712L420.6892615107181,239.91459216040505L421.3752508653035,239.99078387620722L422.1777289782147,240.07991380789528L422.92843430964774,240.16329342141182L423.6403100549722,240.24236029629975L424.41690177714435,240.32861506890208L425.15466391320786,240.41055710286594L425.84065326779324,240.4867488186681L426.53958581774816,240.56437811401312L427.2385183677031,240.64200740935817L427.9892236991361,240.7253870228747L428.7140426398301,240.8058914772957L429.43886158052413,240.8863959317265L430.13779413047905,240.96402522707152L431.17324976004187,241.07903159054126L431.85923911462726,241.15522330634343L432.5581716645822,241.23285260167864L433.32182019138475,241.3176697947381L434.0595823274483,241.39961182871176L434.8232308542509,241.48442902177118L435.5221634042058,241.56205831711623L436.28581193100837,241.64687551017568L436.9847444809633,241.7245048055109L437.6836770309182,241.80213410085594L438.3826095808731,241.87976339620099L439.0297693493499,241.95164237336465L439.68987231319625,242.02495893008103L440.4146912538902,242.10546338451184L441.0877374131061,242.1802175207613L441.85138593990865,242.2650347138207L442.55031848986357,242.34266400916576L443.3269102120357,242.42891878176806L444.3364794508595,242.54104998615207L445.074241586923,242.62299202012576L445.7731741368779,242.7006213154708L446.47210668683283,242.77825061080603L447.1969256275268,242.8587550652368L447.97351734969897,242.9450098378391L448.724222681132,243.02838945135568L449.4619848171955,243.11033148532937L450.1091445856723,243.18221046249306L450.80807713562723,243.25983975783808L451.50700968558215,243.33746905318313L452.19299904016754,243.41366076898527L452.89193159012245,243.49129006432048L453.61675053081643,243.5717945187513L454.31568308077135,243.6494238140963L455.01461563072627,243.72705310944136L455.70060498531166,243.80324482523366L456.3995375352666,243.8808741205787L457.1761292574387,243.96712889318104L457.96566417498036,244.05482124532625L458.65165352956575,244.13101296112842L459.3635292748902,244.21007983600646L460.07540502021465,244.28914671089439L460.76139437480003,244.36533842669655L461.46032692475495,244.4429677220416L462.18514586544893,244.52347217646258L462.93585119688197,244.60685178997912L463.6088973560978,244.6816059262384L464.3725458829004,244.76642311929785L465.136194409703,244.85124031235728L465.8092405689189,244.92599444860673L466.53405950961286,245.00649890303754L467.2847648410459,245.08987851655408L467.9836973910008,245.16750781189913L468.98032343445504,245.27820143674023L469.7569151566272,245.36445620934256L470.4817340973212,245.44496066377337L471.20655303801516,245.52546511819432L471.9054855879701,245.60309441353934L472.59147494255546,245.6792861293415L473.2904074925104,245.75691542468655L473.97639684709577,245.8331071404789L474.94713649981094,245.94092560623423L475.6331258543963,246.0171173220364L476.3450015997208,246.09618419691446L477.0439341496757,246.1738134922595L477.7428666996306,246.25144278760456L478.428856054216,246.32763450340673L479.15367499491,246.40813895782767L479.8526075448649,246.48576825317272L480.629199267037,246.57202302577502L481.354018207731,246.65252748020583L482.48007620488056,246.77759690047577L483.1401791687269,246.85091345719218L483.8779413047904,246.93285549116584L484.5380442686367,247.0061720478724L485.37935196765653,247.09961471819895L486.091227712981,247.17868159307704L486.80310345830543,247.25774846796497L487.4890928128908,247.33394018376714L488.2786277304325,247.42163253591232L488.99050347575695,247.50069941080022L489.6635496349728,247.57545354704968L490.37542538029726,247.6545204219376L491.06141473488265,247.73071213773977L491.7215176987289,247.80402869444632L492.5110526162706,247.8917210465915L493.22292836159505,247.97078792147943L493.9348041069195,248.04985479636736L494.64667985224395,248.12892167125528L495.66919228643724,248.24249045518218L496.4457840086094,248.32874522778448L497.2223757307815,248.41500000038678L497.96013786684506,248.49694203435064L498.6590704168,248.5745713296957L499.3709461621244,248.65363820458361L500.0957651028184,248.7341426590144L500.84647043425144,248.81752227253097L501.58423257031495,248.89946430650463L502.29610831563946,248.97853118138272L503.0079840609639,249.05759805627065L503.95283732293996,249.16254136294023L504.677656263634,249.24304581737104L505.73899828393587,249.36092733992655L506.3991012477822,249.43424389663312L507.3827840958669,249.54349994193137L508.35352374858206,249.65131840768672L509.11717227538463,249.73613560074617L509.8419912160786,249.81664005517695L510.5797533521422,249.8985820891408L511.2916290974666,249.97764896402873L512.0423344288997,250.06102857754527L512.7671533695936,250.14153303197608L513.42725633344,250.21484958869246L514.1391320787644,250.29391646357055L514.8639510194585,250.37442091800136L515.5758267647828,250.4534877928893L516.2747593147378,250.53111708823434L516.9478054739536,250.60587122448376L517.6467380239085,250.68350051982878L518.6304208719932,250.79275656512704L519.3552398126872,250.87326101955784L520.0412291672726,250.94945273535018L520.7142753264884,251.02420687160944L521.4261510718129,251.10327374649736L522.1639132078765,251.1852157804612L522.8628457578313,251.26284507580624L523.5488351124168,251.3390367916084L524.3254268345888,251.42529156421074L525.0243593845437,251.50292085955576L525.7362351298682,251.58198773443382L526.745804368692,251.69411893881784L527.4447369186469,251.77174823416289L528.1566126639714,251.8508151090508L528.8296588231872,251.92556924530024L529.5544777638812,252.00607369973102L530.2663535092056,252.08514057461895L530.9911724498996,252.16564502904976L531.6642186091156,252.2403991652992L532.3372647683314,252.3151533015585L533.1526860766121,252.40572081278944L533.8257322358279,252.48047494904873L534.4858351996743,252.55379150575527L535.1588813588901,252.62854564201456L535.8707571042146,252.7076125169025L536.5955760449085,252.7881169713333L537.3462813763415,252.87149658484L538.0193275355574,252.94625072109926L538.7829760623599,253.0310679141587L539.7925453011837,253.14319911854273L540.5820802187254,253.23089147068794L541.2939559640499,253.30995834557584L542.0058317093743,253.38902522046376L542.7177074546987,253.46809209534183L543.3907536139146,253.54284623160112L544.1285157499782,253.6247882655748L544.8403914953026,253.70385514046274L545.4746080684099,253.77429653808352L546.1735406183648,253.85192583342857L546.8595299729502,253.92811754922087L547.532576132166,254.00287168548016L548.2315086821209,254.0805009808252L548.9304412320759,254.15813027617025L549.8494081033128,254.26019842374424L550.6001134347459,254.34357803726078L551.5190803059829,254.44564618484463L552.269785637416,254.52902579835137L553.2793548762397,254.64115700273538L554.0559465984119,254.72741177533769L554.7419359529972,254.80360349113982L555.8809371455163,254.93011049096248L556.6057560862104,255.01061494538345L557.2788022454263,255.08536908164274L558.0295075768593,255.16874869515928L558.7413833221838,255.24781557004718L559.40148628603,255.32113212675375L560.1651348128327,255.4059493198132L560.8640673627876,255.48357861515825L561.6277158895901,255.56839580821767L562.3395916349145,255.6474626831056L563.0902969663478,255.73084229662214L563.8021727116721,255.80990917150024L564.5011052616271,255.88753846684529L565.200037811582,255.96516776219033L565.9377999476455,256.047109796164L566.6108461068613,256.1218639324135L567.3356650475553,256.2023683868442L568.0345975975102,256.2799976821893L568.7982461243128,256.3648148752487L569.7301561909194,256.46832060236557L570.4420319362439,256.54738747725355L571.1409644861988,256.62501677259854L571.7881242546755,256.69689574976223L572.5,256.77596262465016" stroke="#3366cc" stroke-width="2" stroke-opacity="0.5" fill-opacity="1" fill="none"></path></g></g><g></g><g><g><text text-anchor="middle" x="255.9612" y="343.05" font-family="Arial" font-size="13" stroke="none" stroke-width="0" fill="#444444">10,000</text></g><g><text text-anchor="middle" x="385.3932" y="343.05" font-family="Arial" font-size="13" stroke="none" stroke-width="0" fill="#444444">20,000</text></g><g><text text-anchor="middle" x="514.8251" y="343.05" font-family="Arial" font-size="13" stroke="none" stroke-width="0" fill="#444444">30,000</text></g><g><text text-anchor="end" x="114" y="328.05" font-family="Arial" font-size="13" stroke="none" stroke-width="0" fill="#444444">0</text></g><g><text text-anchor="end" x="114" y="278.85" font-family="Arial" font-size="13" stroke="none" stroke-width="0" fill="#444444">5</text></g><g><text text-anchor="end" x="114" y="229.65" font-family="Arial" font-size="13" stroke="none" stroke-width="0" fill="#444444">10</text></g><g><text text-anchor="end" x="114" y="180.45000000000002" font-family="Arial" font-size="13" stroke="none" stroke-width="0" fill="#444444">15</text></g><g><text text-anchor="end" x="114" y="131.25" font-family="Arial" font-size="13" stroke="none" stroke-width="0" fill="#444444">20</text></g><g><text text-anchor="end" x="114" y="82.05" font-family="Arial" font-size="13" stroke="none" stroke-width="0" fill="#444444">25</text></g></g></g><g><g><text text-anchor="middle" x="350" y="377.05" font-family="Arial" font-size="13" font-style="italic" stroke="none" stroke-width="0" fill="#222222">Time (ms)</text><rect x="127" y="366" width="446" height="13" stroke="none" stroke-width="0" fill-opacity="0" fill="#ffffff"></rect></g></g><g></g></svg>
