<?xml version="1.0" encoding="UTF-8" standalone="no"?>
<svg
   xmlns:dc="http://purl.org/dc/elements/1.1/"
   xmlns:cc="http://creativecommons.org/ns#"
   xmlns:rdf="http://www.w3.org/1999/02/22-rdf-syntax-ns#"
   xmlns:svg="http://www.w3.org/2000/svg"
   xmlns="http://www.w3.org/2000/svg"
   xmlns:sodipodi="http://sodipodi.sourceforge.net/DTD/sodipodi-0.dtd"
   xmlns:inkscape="http://www.inkscape.org/namespaces/inkscape"
   width="500"
   height="300"
   aria-label="A chart."
   style="overflow: hidden;"
   id="svg2"
   version="1.1"
   inkscape:version="0.91 r13725"
   sodipodi:docname="distance03.svg">
  <metadata
     id="metadata108">
    <rdf:RDF>
      <cc:Work
         rdf:about="">
        <dc:format>image/svg+xml</dc:format>
        <dc:type
           rdf:resource="http://purl.org/dc/dcmitype/StillImage" />
      </cc:Work>
    </rdf:RDF>
  </metadata>
  <sodipodi:namedview
     pagecolor="#ffffff"
     bordercolor="#666666"
     borderopacity="1"
     objecttolerance="10"
     gridtolerance="10"
     guidetolerance="10"
     inkscape:pageopacity="0"
     inkscape:pageshadow="2"
     inkscape:window-width="640"
     inkscape:window-height="480"
     id="namedview106"
     showgrid="false"
     inkscape:zoom="0.606"
     inkscape:cx="383.31477"
     inkscape:cy="150"
     inkscape:window-x="0"
     inkscape:window-y="0"
     inkscape:window-maximized="0"
     inkscape:current-layer="svg2" />
  <defs
     id="_ABSTRACT_RENDERER_ID_4">
    <clipPath
       id="_ABSTRACT_RENDERER_ID_5">
      <rect
         x="94"
         y="58"
         width="313"
         height="185"
         id="rect6" />
    </clipPath>
  </defs>
  <path
     style="fill:#ffffff;stroke:none;stroke-width:0"
     d="m 0,0 500,0 0,300 -500,0 z"
     id="rect8" />
  <g
     id="g10">
    <g
       style="font-weight:bold;font-size:12px;font-family:Arial;text-anchor:start;fill:#000000;stroke:none;stroke-width:0"
       id="text12">
      <path
         d="m 94.867187,28.610157 3.169922,0 q 1.072266,0 1.634766,0.164063 0.755855,0.222656 1.294925,0.791015 0.53906,0.56836 0.82031,1.394531 0.28125,0.820313 0.28125,2.027344 0,1.060547 -0.26367,1.828125 -0.32227,0.9375 -0.91992,1.517578 -0.45118,0.439453 -1.218754,0.685547 -0.574219,0.181641 -1.535157,0.181641 l -3.263672,0 0,-8.589844 z m 1.734375,1.453125 0,5.689453 1.294922,0 q 0.726563,0 1.048828,-0.08203 0.421875,-0.105469 0.697266,-0.357422 0.28125,-0.251953 0.457032,-0.826172 0.17578,-0.580078 0.17578,-1.576172 0,-0.996093 -0.17578,-1.529297 -0.175782,-0.533203 -0.492188,-0.832031 -0.316406,-0.298828 -0.802735,-0.404297 -0.363281,-0.08203 -1.423828,-0.08203 l -0.779297,0 z"
         style="font-weight:bold;font-size:12px;font-family:Arial;text-anchor:start;fill:#000000;stroke:none;stroke-width:0"
         id="path3529" />
      <path
         d="m 103.5332,30.133595 0,-1.523438 1.64649,0 0,1.523438 -1.64649,0 z m 0,7.066406 0,-6.222656 1.64649,0 0,6.222656 -1.64649,0 z"
         style="font-weight:bold;font-size:12px;font-family:Arial;text-anchor:start;fill:#000000;stroke:none;stroke-width:0"
         id="path3531" />
      <path
         d="m 106.28125,35.42461 1.65234,-0.251953 q 0.10547,0.480469 0.42774,0.732422 0.32226,0.246094 0.90234,0.246094 0.63867,0 0.96094,-0.234375 0.2168,-0.164063 0.2168,-0.439453 0,-0.1875 -0.11719,-0.310547 -0.12305,-0.117188 -0.55078,-0.216797 -1.99219,-0.439453 -2.52539,-0.802735 -0.73828,-0.503906 -0.73828,-1.40039 0,-0.808594 0.63867,-1.359375 0.63867,-0.550781 1.98047,-0.550781 1.27734,0 1.89843,0.416015 0.6211,0.416016 0.85547,1.230469 l -1.55273,0.287109 q -0.0996,-0.363281 -0.38086,-0.55664 -0.27539,-0.19336 -0.79102,-0.19336 -0.65039,0 -0.93164,0.181641 -0.1875,0.128906 -0.1875,0.333984 0,0.175782 0.16407,0.298828 0.22265,0.164063 1.53515,0.462891 1.31836,0.298828 1.83985,0.732422 0.51562,0.439453 0.51562,1.224609 0,0.855469 -0.71484,1.470703 -0.71485,0.615235 -2.11524,0.615235 -1.27148,0 -2.01562,-0.515625 -0.73828,-0.515625 -0.9668,-1.400391 z"
         style="font-weight:bold;font-size:12px;font-family:Arial;text-anchor:start;fill:#000000;stroke:none;stroke-width:0"
         id="path3533" />
      <path
         d="m 116.39453,30.977345 0,1.3125 -1.125,0 0,2.507812 q 0,0.761719 0.0293,0.890625 0.0352,0.123047 0.14648,0.205078 0.11719,0.08203 0.28125,0.08203 0.22852,0 0.66211,-0.158203 l 0.14063,1.277344 q -0.57422,0.246094 -1.30078,0.246094 -0.44532,0 -0.80274,-0.146485 -0.35742,-0.152343 -0.52734,-0.386718 -0.16406,-0.240235 -0.22852,-0.644532 -0.0527,-0.287109 -0.0527,-1.160156 l 0,-2.71289 -0.75586,0 0,-1.3125 0.75586,0 0,-1.236329 1.65234,-0.960937 0,2.197266 1.125,0 z"
         style="font-weight:bold;font-size:12px;font-family:Arial;text-anchor:start;fill:#000000;stroke:none;stroke-width:0"
         id="path3535" />
      <path
         d="m 118.7793,32.875782 -1.49414,-0.269531 q 0.25195,-0.902344 0.86718,-1.335938 0.61524,-0.433593 1.82813,-0.433593 1.10156,0 1.64062,0.263671 0.53907,0.257813 0.75586,0.66211 0.22266,0.398437 0.22266,1.470703 l -0.0176,1.921875 q 0,0.820312 0.0762,1.212891 0.082,0.386718 0.29883,0.832031 l -1.6289,0 q -0.0645,-0.164063 -0.15821,-0.486328 -0.041,-0.146485 -0.0586,-0.19336 -0.42188,0.410157 -0.90235,0.615235 -0.48046,0.205078 -1.02539,0.205078 -0.96093,0 -1.51757,-0.521485 -0.55079,-0.521484 -0.55079,-1.318359 0,-0.527344 0.25196,-0.9375 0.25195,-0.416016 0.70312,-0.632812 0.45703,-0.222657 1.3125,-0.386719 1.1543,-0.216797 1.59961,-0.404297 l 0,-0.164063 q 0,-0.474609 -0.23437,-0.673828 -0.23438,-0.205078 -0.88477,-0.205078 -0.43945,0 -0.68555,0.175781 -0.24609,0.169922 -0.39843,0.603516 z m 2.20312,1.335938 q -0.3164,0.105468 -1.00195,0.251953 -0.68555,0.146484 -0.89649,0.287109 -0.32226,0.228516 -0.32226,0.580078 0,0.345703 0.25781,0.597656 0.25781,0.251954 0.65625,0.251954 0.44531,0 0.84961,-0.292969 0.29883,-0.222656 0.39258,-0.544922 0.0645,-0.210938 0.0645,-0.802734 l 0,-0.328125 z"
         style="font-weight:bold;font-size:12px;font-family:Arial;text-anchor:start;fill:#000000;stroke:none;stroke-width:0"
         id="path3537" />
      <path
         d="m 129.88867,37.200001 -1.64648,0 0,-3.175781 q 0,-1.007813 -0.10547,-1.300782 -0.10547,-0.298828 -0.3457,-0.46289 -0.23438,-0.164063 -0.56836,-0.164063 -0.42774,0 -0.76758,0.234375 -0.33985,0.234375 -0.46875,0.621094 -0.12305,0.386719 -0.12305,1.429687 l 0,2.81836 -1.64648,0 0,-6.222656 1.52929,0 0,0.914062 q 0.81446,-1.054687 2.05079,-1.054687 0.54492,0 0.99609,0.199218 0.45117,0.19336 0.67969,0.498047 0.23437,0.304688 0.32226,0.691406 0.0937,0.386719 0.0937,1.107422 l 0,3.867188 z"
         style="font-weight:bold;font-size:12px;font-family:Arial;text-anchor:start;fill:#000000;stroke:none;stroke-width:0"
         id="path3539" />
      <path
         d="m 136.99023,32.817188 -1.62304,0.292969 q -0.082,-0.486328 -0.375,-0.732422 -0.28711,-0.246094 -0.75,-0.246094 -0.61524,0 -0.98438,0.427735 -0.36328,0.421875 -0.36328,1.417969 0,1.107421 0.36914,1.564453 0.375,0.457031 1.00195,0.457031 0.46875,0 0.76758,-0.263672 0.29883,-0.269531 0.42188,-0.919922 l 1.61719,0.275391 q -0.25196,1.113281 -0.9668,1.68164 -0.71485,0.56836 -1.91602,0.56836 -1.36523,0 -2.17968,-0.861328 -0.8086,-0.861328 -0.8086,-2.384766 0,-1.541016 0.81445,-2.396484 0.81446,-0.861328 2.20313,-0.861328 1.13672,0 1.80469,0.492187 0.67383,0.486328 0.96679,1.488281 z"
         style="font-weight:bold;font-size:12px;font-family:Arial;text-anchor:start;fill:#000000;stroke:none;stroke-width:0"
         id="path3541" />
      <path
         d="m 141.82422,35.219532 1.64062,0.275391 q -0.3164,0.902343 -1.00195,1.376953 -0.67969,0.46875 -1.70508,0.46875 -1.62304,0 -2.40234,-1.060547 -0.61524,-0.849609 -0.61524,-2.144531 0,-1.546875 0.8086,-2.419922 0.80859,-0.878906 2.04492,-0.878906 1.38867,0 2.19141,0.919921 0.80273,0.914063 0.76757,2.806641 l -4.125,0 q 0.0176,0.732422 0.39844,1.142578 0.38086,0.404297 0.94922,0.404297 0.38672,0 0.65039,-0.210937 0.26367,-0.210938 0.39844,-0.679688 z m 0.0937,-1.664062 q -0.0176,-0.714844 -0.36914,-1.083985 -0.35156,-0.375 -0.85547,-0.375 -0.53906,0 -0.89063,0.392578 -0.35156,0.392578 -0.3457,1.066407 l 2.46094,0 z"
         style="font-weight:bold;font-size:12px;font-family:Arial;text-anchor:start;fill:#000000;stroke:none;stroke-width:0"
         id="path3543" />
      <path
         d="m 148.24609,28.610157 3.4336,0 q 1.01953,0 1.51758,0.08789 0.5039,0.08203 0.89648,0.351562 0.39844,0.269531 0.66211,0.720703 0.26367,0.445313 0.26367,1.001953 0,0.603516 -0.32812,1.107422 -0.32227,0.503907 -0.87891,0.75586 0.78516,0.228515 1.20703,0.779297 0.42188,0.550781 0.42188,1.294921 0,0.585938 -0.27539,1.142579 -0.26954,0.550781 -0.74415,0.884765 -0.46875,0.328125 -1.16015,0.404297 -0.4336,0.04687 -2.0918,0.05859 l -2.92383,0 0,-8.589844 z m 1.73438,1.429688 0,1.986328 1.13672,0 q 1.01367,0 1.25976,-0.0293 0.44532,-0.05274 0.69727,-0.304688 0.25781,-0.257812 0.25781,-0.673828 0,-0.398437 -0.22266,-0.644531 -0.21679,-0.251953 -0.65039,-0.304688 -0.25781,-0.0293 -1.48242,-0.0293 l -0.99609,0 z m 0,3.416015 0,2.296875 1.60547,0 q 0.9375,0 1.18945,-0.05273 0.38672,-0.07031 0.62695,-0.339844 0.2461,-0.275391 0.2461,-0.732422 0,-0.386719 -0.1875,-0.65625 -0.1875,-0.269531 -0.54492,-0.392578 -0.35157,-0.123047 -1.53516,-0.123047 l -1.40039,0 z"
         style="font-weight:bold;font-size:12px;font-family:Arial;text-anchor:start;fill:#000000;stroke:none;stroke-width:0"
         id="path3545" />
      <path
         d="m 160.48047,35.219532 1.64062,0.275391 q -0.3164,0.902343 -1.00195,1.376953 -0.67969,0.46875 -1.70508,0.46875 -1.62304,0 -2.40234,-1.060547 -0.61524,-0.849609 -0.61524,-2.144531 0,-1.546875 0.8086,-2.419922 0.80859,-0.878906 2.04492,-0.878906 1.38867,0 2.19141,0.919921 0.80273,0.914063 0.76757,2.806641 l -4.125,0 q 0.0176,0.732422 0.39844,1.142578 0.38086,0.404297 0.94922,0.404297 0.38672,0 0.65039,-0.210937 0.26367,-0.210938 0.39844,-0.679688 z m 0.0937,-1.664062 q -0.0176,-0.714844 -0.36914,-1.083985 -0.35156,-0.375 -0.85547,-0.375 -0.53906,0 -0.89063,0.392578 -0.35156,0.392578 -0.3457,1.066407 l 2.46094,0 z"
         style="font-weight:bold;font-size:12px;font-family:Arial;text-anchor:start;fill:#000000;stroke:none;stroke-width:0"
         id="path3547" />
      <path
         d="m 166.41016,30.977345 0,1.3125 -1.125,0 0,2.507812 q 0,0.761719 0.0293,0.890625 0.0352,0.123047 0.14649,0.205078 0.11718,0.08203 0.28125,0.08203 0.22851,0 0.66211,-0.158203 l 0.14062,1.277344 q -0.57422,0.246094 -1.30078,0.246094 -0.44531,0 -0.80273,-0.146485 -0.35743,-0.152343 -0.52735,-0.386718 -0.16406,-0.240235 -0.22851,-0.644532 -0.0527,-0.287109 -0.0527,-1.160156 l 0,-2.71289 -0.75586,0 0,-1.3125 0.75586,0 0,-1.236329 1.65235,-0.960937 0,2.197266 1.125,0 z"
         style="font-weight:bold;font-size:12px;font-family:Arial;text-anchor:start;fill:#000000;stroke:none;stroke-width:0"
         id="path3549" />
      <path
         d="m 168.72461,37.200001 -1.96875,-6.222656 1.59961,0 1.16601,4.078125 1.07227,-4.078125 1.58789,0 1.03711,4.078125 1.18945,-4.078125 1.62305,0 -1.99805,6.222656 -1.58203,0 -1.07226,-4.001953 -1.05469,4.001953 -1.59961,0 z"
         style="font-weight:bold;font-size:12px;font-family:Arial;text-anchor:start;fill:#000000;stroke:none;stroke-width:0"
         id="path3551" />
      <path
         d="m 180.49609,35.219532 1.64063,0.275391 q -0.31641,0.902343 -1.00195,1.376953 -0.67969,0.46875 -1.70508,0.46875 -1.62305,0 -2.40235,-1.060547 -0.61523,-0.849609 -0.61523,-2.144531 0,-1.546875 0.80859,-2.419922 0.8086,-0.878906 2.04492,-0.878906 1.38868,0 2.19141,0.919921 0.80274,0.914063 0.76758,2.806641 l -4.125,0 q 0.0176,0.732422 0.39844,1.142578 0.38086,0.404297 0.94922,0.404297 0.38671,0 0.65039,-0.210937 0.26367,-0.210938 0.39843,-0.679688 z m 0.0937,-1.664062 q -0.0176,-0.714844 -0.36914,-1.083985 -0.35156,-0.375 -0.85547,-0.375 -0.53906,0 -0.89062,0.392578 -0.35156,0.392578 -0.3457,1.066407 l 2.46093,0 z"
         style="font-weight:bold;font-size:12px;font-family:Arial;text-anchor:start;fill:#000000;stroke:none;stroke-width:0"
         id="path3553" />
      <path
         d="m 187.17578,35.219532 1.64063,0.275391 q -0.31641,0.902343 -1.00196,1.376953 -0.67968,0.46875 -1.70508,0.46875 -1.62304,0 -2.40234,-1.060547 -0.61523,-0.849609 -0.61523,-2.144531 0,-1.546875 0.80859,-2.419922 0.80859,-0.878906 2.04492,-0.878906 1.38867,0 2.19141,0.919921 0.80273,0.914063 0.76758,2.806641 l -4.125,0 q 0.0176,0.732422 0.39843,1.142578 0.38086,0.404297 0.94922,0.404297 0.38672,0 0.65039,-0.210937 0.26368,-0.210938 0.39844,-0.679688 z m 0.0937,-1.664062 q -0.0176,-0.714844 -0.36914,-1.083985 -0.35156,-0.375 -0.85547,-0.375 -0.53906,0 -0.89062,0.392578 -0.35157,0.392578 -0.34571,1.066407 l 2.46094,0 z"
         style="font-weight:bold;font-size:12px;font-family:Arial;text-anchor:start;fill:#000000;stroke:none;stroke-width:0"
         id="path3555" />
      <path
         d="m 195.91211,37.200001 -1.64649,0 0,-3.175781 q 0,-1.007813 -0.10546,-1.300782 -0.10547,-0.298828 -0.34571,-0.46289 -0.23437,-0.164063 -0.56836,-0.164063 -0.42773,0 -0.76757,0.234375 -0.33985,0.234375 -0.46875,0.621094 -0.12305,0.386719 -0.12305,1.429687 l 0,2.81836 -1.64649,0 0,-6.222656 1.5293,0 0,0.914062 q 0.81445,-1.054687 2.05078,-1.054687 0.54492,0 0.9961,0.199218 0.45117,0.19336 0.67968,0.498047 0.23438,0.304688 0.32227,0.691406 0.0937,0.386719 0.0937,1.107422 l 0,3.867188 z"
         style="font-weight:bold;font-size:12px;font-family:Arial;text-anchor:start;fill:#000000;stroke:none;stroke-width:0"
         id="path3557" />
      <path
         d="m 208.22852,37.200001 -1.88672,0 -0.75,-1.951172 -3.4336,0 -0.70898,1.951172 -1.83985,0 3.34571,-8.589844 1.83398,0 3.43946,8.589844 z m -3.19336,-3.398438 -1.1836,-3.1875 -1.16015,3.1875 2.34375,0 z"
         style="font-weight:bold;font-size:12px;font-family:Arial;text-anchor:start;fill:#000000;stroke:none;stroke-width:0"
         id="path3559" />
      <path
         d="m 208.99023,37.610157 1.88086,0.228516 q 0.0469,0.328125 0.2168,0.451172 0.23438,0.175781 0.73828,0.175781 0.64453,0 0.9668,-0.19336 0.2168,-0.128906 0.32812,-0.416015 0.0762,-0.205078 0.0762,-0.75586 l 0,-0.908203 q -0.73829,1.007813 -1.86329,1.007813 -1.2539,0 -1.98632,-1.060547 -0.57422,-0.837891 -0.57422,-2.085938 0,-1.564453 0.75,-2.390625 0.75586,-0.826171 1.875,-0.826171 1.15429,0 1.90429,1.013671 l 0,-0.873046 1.54102,0 0,5.583984 q 0,1.101562 -0.18164,1.646484 -0.18164,0.544922 -0.50977,0.855469 -0.32812,0.310547 -0.8789,0.486328 -0.54492,0.175781 -1.38282,0.175781 -1.58203,0 -2.24414,-0.544921 -0.66211,-0.539063 -0.66211,-1.371094 0,-0.08203 0.006,-0.199219 z m 1.47071,-3.650391 q 0,0.990235 0.38086,1.453125 0.38672,0.457032 0.94922,0.457032 0.60351,0 1.01953,-0.46875 0.41601,-0.47461 0.41601,-1.400391 0,-0.966797 -0.39844,-1.435547 -0.39843,-0.46875 -1.00781,-0.46875 -0.59179,0 -0.97851,0.462891 -0.38086,0.457031 -0.38086,1.40039 z"
         style="font-weight:bold;font-size:12px;font-family:Arial;text-anchor:start;fill:#000000;stroke:none;stroke-width:0"
         id="path3561" />
      <path
         d="m 220.08203,35.219532 1.64063,0.275391 q -0.31641,0.902343 -1.00196,1.376953 -0.67968,0.46875 -1.70508,0.46875 -1.62304,0 -2.40234,-1.060547 -0.61523,-0.849609 -0.61523,-2.144531 0,-1.546875 0.80859,-2.419922 0.80859,-0.878906 2.04492,-0.878906 1.38867,0 2.19141,0.919921 0.80273,0.914063 0.76758,2.806641 l -4.125,0 q 0.0176,0.732422 0.39843,1.142578 0.38086,0.404297 0.94922,0.404297 0.38672,0 0.65039,-0.210937 0.26368,-0.210938 0.39844,-0.679688 z m 0.0937,-1.664062 q -0.0176,-0.714844 -0.36914,-1.083985 -0.35156,-0.375 -0.85547,-0.375 -0.53906,0 -0.89062,0.392578 -0.35157,0.392578 -0.34571,1.066407 l 2.46094,0 z"
         style="font-weight:bold;font-size:12px;font-family:Arial;text-anchor:start;fill:#000000;stroke:none;stroke-width:0"
         id="path3563" />
      <path
         d="m 228.81836,37.200001 -1.64649,0 0,-3.175781 q 0,-1.007813 -0.10546,-1.300782 -0.10547,-0.298828 -0.34571,-0.46289 -0.23437,-0.164063 -0.56836,-0.164063 -0.42773,0 -0.76757,0.234375 -0.33985,0.234375 -0.46875,0.621094 -0.12305,0.386719 -0.12305,1.429687 l 0,2.81836 -1.64649,0 0,-6.222656 1.5293,0 0,0.914062 q 0.81445,-1.054687 2.05078,-1.054687 0.54492,0 0.9961,0.199218 0.45117,0.19336 0.67968,0.498047 0.23438,0.304688 0.32227,0.691406 0.0937,0.386719 0.0937,1.107422 l 0,3.867188 z"
         style="font-weight:bold;font-size:12px;font-family:Arial;text-anchor:start;fill:#000000;stroke:none;stroke-width:0"
         id="path3565" />
      <path
         d="m 233.34766,30.977345 0,1.3125 -1.125,0 0,2.507812 q 0,0.761719 0.0293,0.890625 0.0352,0.123047 0.14649,0.205078 0.11718,0.08203 0.28125,0.08203 0.22851,0 0.66211,-0.158203 l 0.14062,1.277344 q -0.57422,0.246094 -1.30078,0.246094 -0.44531,0 -0.80273,-0.146485 -0.35743,-0.152343 -0.52735,-0.386718 -0.16406,-0.240235 -0.22851,-0.644532 -0.0527,-0.287109 -0.0527,-1.160156 l 0,-2.71289 -0.75586,0 0,-1.3125 0.75586,0 0,-1.236329 1.65235,-0.960937 0,2.197266 1.125,0 z"
         style="font-weight:bold;font-size:12px;font-family:Arial;text-anchor:start;fill:#000000;stroke:none;stroke-width:0"
         id="path3567" />
      <path
         d="m 233.92187,35.42461 1.65235,-0.251953 q 0.10547,0.480469 0.42773,0.732422 0.32227,0.246094 0.90235,0.246094 0.63867,0 0.96093,-0.234375 0.2168,-0.164063 0.2168,-0.439453 0,-0.1875 -0.11719,-0.310547 -0.12304,-0.117188 -0.55078,-0.216797 -1.99219,-0.439453 -2.52539,-0.802735 -0.73828,-0.503906 -0.73828,-1.40039 0,-0.808594 0.63867,-1.359375 0.63867,-0.550781 1.98047,-0.550781 1.27734,0 1.89844,0.416015 0.62109,0.416016 0.85547,1.230469 l -1.55274,0.287109 q -0.0996,-0.363281 -0.38086,-0.55664 -0.27539,-0.19336 -0.79101,-0.19336 -0.65039,0 -0.93164,0.181641 -0.1875,0.128906 -0.1875,0.333984 0,0.175782 0.16406,0.298828 0.22266,0.164063 1.53516,0.462891 1.31836,0.298828 1.83984,0.732422 0.51562,0.439453 0.51562,1.224609 0,0.855469 -0.71484,1.470703 -0.71484,0.615235 -2.11523,0.615235 -1.27149,0 -2.01563,-0.515625 -0.73828,-0.515625 -0.9668,-1.400391 z"
         style="font-weight:bold;font-size:12px;font-family:Arial;text-anchor:start;fill:#000000;stroke:none;stroke-width:0"
         id="path3569" />
      <path
         d="m 244.49805,37.200001 0,-8.589844 2.5957,0 1.55859,5.859375 1.54102,-5.859375 2.60156,0 0,8.589844 -1.61133,0 0,-6.761719 -1.70507,6.761719 -1.66993,0 -1.69922,-6.761719 0,6.761719 -1.61132,0 z"
         style="font-weight:bold;font-size:12px;font-family:Arial;text-anchor:start;fill:#000000;stroke:none;stroke-width:0"
         id="path3571" />
      <path
         d="m 254.11328,34.000782 q 0,-0.820312 0.4043,-1.587891 0.40429,-0.767578 1.14258,-1.171875 0.74414,-0.404296 1.6582,-0.404296 1.41211,0 2.31445,0.919921 0.90235,0.914063 0.90235,2.314454 0,1.412109 -0.91407,2.34375 -0.9082,0.925781 -2.29101,0.925781 -0.85547,0 -1.63477,-0.386719 -0.77344,-0.386719 -1.17773,-1.130859 -0.4043,-0.75 -0.4043,-1.822266 z m 1.6875,0.08789 q 0,0.925781 0.43945,1.417968 0.43946,0.492188 1.08399,0.492188 0.64453,0 1.07812,-0.492188 0.43946,-0.492187 0.43946,-1.429687 0,-0.914063 -0.43946,-1.40625 -0.43359,-0.492188 -1.07812,-0.492188 -0.64453,0 -1.08399,0.492188 -0.43945,0.492187 -0.43945,1.417969 z"
         style="font-weight:bold;font-size:12px;font-family:Arial;text-anchor:start;fill:#000000;stroke:none;stroke-width:0"
         id="path3573" />
      <path
         d="m 267.51367,37.200001 -1.5293,0 0,-0.914063 q -0.38085,0.533203 -0.90234,0.796875 -0.51562,0.257813 -1.04297,0.257813 -1.07226,0 -1.83984,-0.861328 -0.76172,-0.867188 -0.76172,-2.414063 0,-1.582031 0.74414,-2.402344 0.74414,-0.826171 1.88086,-0.826171 1.04297,0 1.80469,0.867187 l 0,-3.09375 1.64648,0 0,8.589844 z m -4.39453,-3.246094 q 0,0.996094 0.27539,1.441406 0.39844,0.644532 1.11328,0.644532 0.56836,0 0.9668,-0.480469 0.39844,-0.486328 0.39844,-1.447266 0,-1.072265 -0.38672,-1.541015 -0.38672,-0.47461 -0.99024,-0.47461 -0.58593,0 -0.98437,0.46875 -0.39258,0.462891 -0.39258,1.388672 z"
         style="font-weight:bold;font-size:12px;font-family:Arial;text-anchor:start;fill:#000000;stroke:none;stroke-width:0"
         id="path3575" />
      <path
         d="m 272.74609,35.219532 1.64063,0.275391 q -0.31641,0.902343 -1.00195,1.376953 -0.67969,0.46875 -1.70508,0.46875 -1.62305,0 -2.40235,-1.060547 -0.61523,-0.849609 -0.61523,-2.144531 0,-1.546875 0.80859,-2.419922 0.8086,-0.878906 2.04492,-0.878906 1.38868,0 2.19141,0.919921 0.80274,0.914063 0.76758,2.806641 l -4.125,0 q 0.0176,0.732422 0.39844,1.142578 0.38086,0.404297 0.94922,0.404297 0.38671,0 0.65039,-0.210937 0.26367,-0.210938 0.39843,-0.679688 z m 0.0937,-1.664062 q -0.0176,-0.714844 -0.36914,-1.083985 -0.35156,-0.375 -0.85547,-0.375 -0.53906,0 -0.89062,0.392578 -0.35156,0.392578 -0.3457,1.066407 l 2.46093,0 z"
         style="font-weight:bold;font-size:12px;font-family:Arial;text-anchor:start;fill:#000000;stroke:none;stroke-width:0"
         id="path3577" />
      <path
         d="m 275.82227,37.200001 0,-8.589844 1.64648,0 0,8.589844 -1.64648,0 z"
         style="font-weight:bold;font-size:12px;font-family:Arial;text-anchor:start;fill:#000000;stroke:none;stroke-width:0"
         id="path3579" />
      <path
         d="m 284.91016,28.575001 q 1.24804,0 1.95117,0.890625 0.83789,1.054687 0.83789,3.498047 0,2.4375 -0.84375,3.503906 -0.69727,0.878906 -1.94531,0.878906 -1.25391,0 -2.02149,-0.960937 -0.76758,-0.966797 -0.76758,-3.439453 0,-2.425782 0.84375,-3.492188 0.69727,-0.878906 1.94532,-0.878906 z m 0,1.365234 q -0.29883,0 -0.53321,0.19336 -0.23437,0.1875 -0.36328,0.679687 -0.16992,0.638672 -0.16992,2.150391 0,1.511718 0.15234,2.080078 0.15235,0.5625 0.38086,0.75 0.23438,0.1875 0.53321,0.1875 0.29882,0 0.5332,-0.1875 0.23437,-0.19336 0.36328,-0.685547 0.16992,-0.632813 0.16992,-2.144531 0,-1.511719 -0.15234,-2.074219 -0.15235,-0.568359 -0.38672,-0.755859 -0.22852,-0.19336 -0.52734,-0.19336 z"
         style="font-weight:bold;font-size:12px;font-family:Arial;text-anchor:start;fill:#000000;stroke:none;stroke-width:0"
         id="path3581" />
      <path
         d="m 288.74805,34.920704 1.59375,-0.193359 q 0.0762,0.609375 0.41015,0.93164 0.33399,0.322266 0.8086,0.322266 0.50976,0 0.85547,-0.386719 0.35156,-0.386719 0.35156,-1.042969 0,-0.621093 -0.33399,-0.984375 -0.33398,-0.363281 -0.81445,-0.363281 -0.31641,0 -0.75586,0.123047 l 0.18164,-1.341797 q 0.66797,0.01758 1.01953,-0.287109 0.35157,-0.310547 0.35157,-0.820313 0,-0.433594 -0.25782,-0.691406 -0.25781,-0.257813 -0.68554,-0.257813 -0.42188,0 -0.72071,0.292969 -0.29883,0.292969 -0.36328,0.855469 l -1.51758,-0.257813 q 0.15821,-0.779296 0.47461,-1.242187 0.32227,-0.46875 0.89063,-0.732422 0.57422,-0.269531 1.2832,-0.269531 1.21289,0 1.94531,0.773437 0.60352,0.632813 0.60352,1.429688 0,1.130859 -1.23633,1.804687 0.73828,0.158203 1.17774,0.708985 0.44531,0.550781 0.44531,1.330078 0,1.130859 -0.82617,1.927734 -0.82618,0.796875 -2.05664,0.796875 -1.16602,0 -1.9336,-0.667969 -0.76758,-0.673828 -0.89062,-1.757812 z"
         style="font-weight:bold;font-size:12px;font-family:Arial;text-anchor:start;fill:#000000;stroke:none;stroke-width:0"
         id="path3583" />
    </g>
    <path
       style="fill:#ffffff;fill-opacity:0;stroke:none;stroke-width:0"
       d="m 94,27 313,0 0,12 -313,0 z"
       id="rect14" />
  </g>
  <g
     id="g16">
    <path
       style="fill:#ffffff;fill-opacity:0;stroke:none;stroke-width:0"
       d="m 94,58 313,0 0,185 -313,0 z"
       id="rect18" />
    <g
       clip-path="url(http://localhost:63342/hc-with-streams/results/no-vpn/relative-distance.html?_ijt=3epi00c4csglb0p9sfv507snd7#_ABSTRACT_RENDERER_ID_5)"
       id="g20">
      <g
         id="g22">
        <path
           style="fill:#cccccc;stroke:none;stroke-width:0"
           d="m 194,58 1,0 0,185 -1,0 z"
           id="rect24" />
        <path
           style="fill:#cccccc;stroke:none;stroke-width:0"
           d="m 295,58 1,0 0,185 -1,0 z"
           id="rect26" />
        <path
           style="fill:#cccccc;stroke:none;stroke-width:0"
           d="m 396,58 1,0 0,185 -1,0 z"
           id="rect28" />
        <path
           style="fill:#ebebeb;stroke:none;stroke-width:0"
           d="m 93,58 1,0 0,185 -1,0 z"
           id="rect30" />
        <path
           style="fill:#ebebeb;stroke:none;stroke-width:0"
           d="m 144,58 1,0 0,185 -1,0 z"
           id="rect32" />
        <path
           style="fill:#ebebeb;stroke:none;stroke-width:0"
           d="m 245,58 1,0 0,185 -1,0 z"
           id="rect34" />
        <path
           style="fill:#ebebeb;stroke:none;stroke-width:0"
           d="m 346,58 1,0 0,185 -1,0 z"
           id="rect36" />
        <path
           style="fill:#ebebeb;stroke:none;stroke-width:0"
           d="m 447,58 1,0 0,185 -1,0 z"
           id="rect38" />
        <path
           style="fill:#cccccc;stroke:none;stroke-width:0"
           d="m 94,242 313,0 0,1 -313,0 z"
           id="rect40" />
        <path
           style="fill:#cccccc;stroke:none;stroke-width:0"
           d="m 94,181 313,0 0,1 -313,0 z"
           id="rect42" />
        <path
           style="fill:#cccccc;stroke:none;stroke-width:0"
           d="m 94,119 313,0 0,1 -313,0 z"
           id="rect44" />
        <path
           style="fill:#cccccc;stroke:none;stroke-width:0"
           d="m 94,58 313,0 0,1 -313,0 z"
           id="rect46" />
        <path
           style="fill:#ebebeb;stroke:none;stroke-width:0"
           d="m 94,211 313,0 0,1 -313,0 z"
           id="rect48" />
        <path
           style="fill:#ebebeb;stroke:none;stroke-width:0"
           d="m 94,150 313,0 0,1 -313,0 z"
           id="rect50" />
        <path
           style="fill:#ebebeb;stroke:none;stroke-width:0"
           d="m 94,89 313,0 0,1 -313,0 z"
           id="rect52" />
      </g>
      <g
         id="g54">
        <path
           style="fill:#333333;stroke:none;stroke-width:0"
           d="m 94,242 313,0 0,1 -313,0 z"
           id="rect56" />
      </g>
      <g
         id="g58">
        <path
           d="M94.5,115.356L95.76217676947475,115.53999999999999L96.70123628596396,115.78533333333333L97.55951648920677,116.03066666666665L99.60929156283376,116.828L100.8613709181527,117.50266666666667L102.04276837438105,118.17733333333332L104.17332276125441,119.71066666666665L105.20325900514581,120.44666666666667L105.92017541020746,121.244L107.1520599372148,122.65466666666666L108.42433412084534,123.75866666666666L109.26241949577657,124.55599999999998L110.20147901226578,126.08933333333333L111.27180491278035,127.07066666666665L112.19066960095796,128.54266666666666L113.56391792614649,130.19866666666667L114.35151623029873,131.60933333333332L115.29057574678792,132.77466666666666L116.47197320301629,134.79866666666666L117.83512411404901,136.63866666666667L118.57223534742225,138.04933333333332L119.68295090456002,139.39866666666666L120.7532768050746,141.85199999999998L121.7630182206544,143.63066666666666L122.59100618142983,144.73466666666667L123.7017217385676,146.69733333333335L124.91341143726335,148.35333333333332L127.15503737985048,153.6893333333333L127.91234344153533,155.52933333333334L130.28523576814786,160.988L132.08257548787986,166.26266666666666L133.52650571215898,169.75866666666667L135.17238421955403,175.03333333333333L136.59611961552156,178.95866666666666L137.50488688954334,182.27066666666667L138.33287485031877,184.66266666666667L139.55466196317033,187.72933333333333L141.84677497653647,195.33466666666666L143.93693970678663,201.652L145.79486391145343,206.86533333333333L146.74402084209845,209.62533333333334L149.10681575455516,215.14533333333333L149.82373215961684,216.43333333333334L150.99503220168938,217.90533333333332L152.23701414285253,218.396L153.14578141687434,218.028L154.08484093336355,217.23066666666665L155.41769960192886,215.69733333333332L156.15481083530213,213.67333333333335L157.2150393216609,211.404L159.31530146606687,205.76133333333334L161.6175118935888,199.076L162.31423347033885,196.07066666666665L163.44514385578822,193.004L164.555859412926,189.26266666666666L165.80793876824492,186.012L166.55514741577397,183.06799999999998L168.06975953914366,179.26533333333333L168.97852681316547,176.19866666666667L170.9879122301693,170.2493333333333L172.91651833392666,165.09733333333332L174.97639082170946,160.43599999999998L177.35938056247775,156.14266666666666L179.1870125246772,153.13733333333334L180.15636428363376,151.6653333333333L181.43873588142011,150.43866666666668L182.22633418557234,149.39600000000002L183.32695232855434,148.53733333333332L184.30640150166673,147.80133333333333L185.57867568529727,147.12666666666667L186.32588433282632,146.69733333333335L188.6987766594388,146.268L190.55670086410564,146.14533333333333L191.73809832033402,146.636L192.96998284734133,146.94266666666664L193.6768018382472,147.31066666666666L194.6764458396712,147.6173333333333L197.1200200653743,149.39600000000002L197.87732612705912,150.07066666666665L198.9678468558853,150.74533333333332L200.26031586782744,152.03333333333333L202.33028576976602,154.364L204.3194763584582,156.63333333333333L206.27837470468302,158.84133333333332L208.6209747888281,161.7853333333333L210.48899640765075,164.11599999999999L211.5795171364769,165.956L212.34692061231755,166.75333333333333L214.5986439690605,169.39066666666668L216.9311466390498,172.212L217.67835528657886,173.25466666666665L218.79916825787242,174.052L219.7483251885174,175.21733333333333L220.69748211916243,176.26L221.8485873329234,177.05733333333333L222.92901064759377,178.40666666666667L224.22147965953593,179.26533333333333L226.43281335965565,180.676L227.02856079484775,180.7373333333333L228.02820479627172,180.98266666666666L230.53236350690963,182.08666666666667L232.62252823715977,182.39333333333332L234.45016019935923,181.84133333333332L235.3387326450694,181.71866666666665L236.44944820220718,181.65733333333333L237.72172238583772,181.596L239.95325091426906,180.98266666666666L241.7404932198453,179.87866666666667L244.12348296061361,179.388L246.0116994077478,178.22266666666667L248.26342276449077,177.732L250.42426939383154,177.18L252.30238842680996,176.13733333333334L254.49352729861806,175.95333333333332L255.24073594614714,175.64666666666665L256.62408168549143,175.708L257.3409980905531,175.27866666666665L258.7546360723648,175.524L259.54223437651706,175.40133333333333L260.59236544872005,175.09466666666665L262.5815560374122,175.156L264.66162335350657,175.34L266.85276222531473,175.64666666666665L268.0139648532315,176.01466666666664L270.16471406841646,176.56666666666666L270.8917278876339,176.628L272.29526845528983,177.11866666666666L274.2238745590472,177.364L276.2736496326742,178.03866666666664L277.3035858765656,178.652L278.5859574743519,179.14266666666666L279.23219198032297,179.01999999999998L280.46407650733033,179.756L281.56469465031233,180.24666666666667L283.5841774814719,180.676L285.7652189391242,181.16666666666666L286.97690863782,181.964L287.6837276287259,181.90266666666665L291.11684844169713,183.06799999999998L293.0656493737661,183.37466666666666L294.99425547752355,183.31333333333333L296.04438654972654,183.804L297.1248098643969,183.49733333333333L299.35633839282826,184.04933333333332L301.5272824363248,183.988L302.23410142723066,183.74266666666665L304.5262144405968,183.92666666666665L305.2734230881258,183.804L306.59618434253537,183.988L307.3231981617528,183.68133333333333L308.75703097187613,183.74266666666665L310.7967086313473,183.62L311.7054759053691,183.37466666666666L312.64453542185834,183.37466666666666L313.6946664940613,183.06799999999998L315.6838570827535,182.82266666666666L317.9254830253406,182.63866666666667L318.9352244409204,182.7L320.3185701802647,182.82266666666666L321.005194342859,182.516L322.004838344283,182.516L323.14584614388815,182.27066666666667L324.13539273115634,182.39333333333332L325.2764005307615,182.148L326.2053626330949,182.332L327.3362730185443,182.02533333333332L329.3557558497039,182.02533333333332L331.78923266125116,182.39333333333332L332.44556458137805,182.148L333.43511116864624,182.20933333333332L334.7679698372116,182.39333333333332L336.9490112948639,182.45466666666667L337.65583028576975,182.45466666666667L338.75644842875175,182.45466666666667L339.76618984433156,182.7L341.18992524029903,182.94533333333334L342.88629081847307,182.7613333333333L343.8657399915855,182.884L345.01684520534644,182.82266666666666L347.1171073497524,182.94533333333334L348.288407391825,183.12933333333334L350.45935143532154,183.43599999999998L352.6302954788181,183.43599999999998L353.3472118838797,183.19066666666666L354.4882196834849,183.37466666666666L355.831175766206,183.43599999999998L356.4875076863329,183.12933333333334L357.62851548593807,183.06799999999998L359.9206284993042,183.31333333333333L360.62744749021005,183.252L361.6674811482572,182.94533333333334L363.82832777759796,182.884L364.72699763746397,182.94533333333334L366.00936923525035,183.06799999999998L367.1301822065439,183.12933333333334L369.33141849250785,183.12933333333334L370.35125732224344,183.06799999999998L370.9873944140587,182.7613333333333L371.9466487588595,182.7613333333333L373.15833845755526,182.7L375.56152302663514,183.00666666666666L377.1266222207838,182.63866666666667L378.3585067477912,182.884L379.4591248907731,182.516L381.4988025502443,182.45466666666667L382.45805689504516,182.45466666666667L383.39711641153434,182.332L384.88143629243666,182.516L386.6484837697013,181.964L387.81978381177385,181.84133333333332L388.71845367163985,181.84133333333332L390.10179941098414,181.78L390.7884235735784,181.28933333333333L392.959367617075,180.79866666666666L393.92871937603155,180.79866666666666L395.3221625295317,180.61466666666666L397.08921000679635,180.00133333333332L398.01817210912975,179.87866666666667L399.18947215120227,179.756L400.23960322340525,179.32666666666665L401.2392472248293,179.32666666666665L402.26918346872066,178.89733333333334L403.24863264183307,178.77466666666666L404.4300300980614,178.46800000000002L405.3286999579274,178.34533333333331L406.5,178.16133333333335"
           stroke="#3366cc"
           stroke-width="2"
           fill-opacity="1"
           fill="none"
           id="path60" />
        <path
           d="M94.5,154.70000903093066L95.76217676947475,154.84504332290135L96.70123628596396,154.95294883618934L97.55951648920677,155.05157215471468L99.60929156283376,155.28710784494666L100.8613709181527,155.430981862664L102.04276837438105,155.56673395999465L104.17332276125441,155.81155184486664L105.20325900514581,155.92989982717066L105.92017541020746,156.01227930504533L107.1520599372148,156.15383277401065L108.42433412084534,156.30002734035733L109.26241949577657,156.39633011025333L110.20147901226578,156.50423562354132L111.27180491278035,156.62722470316533L112.19066960095796,156.73280966776264L113.56391792614649,156.89060697744L114.35151623029873,156.98110837564L115.29057574678792,157.08901388892798L116.47197320301629,157.22476598625866L117.83512411404901,157.38140302162134L118.57223534742225,157.46610304812532L119.68295090456002,157.59373322513068L120.7532768050746,157.71672230475465L121.7630182206544,157.832749738368L122.59100618142983,157.92789223388797L123.7017217385676,158.05552241089333L124.91341143726335,158.19475533122932L127.15503737985048,158.452336233808L127.91234344153533,158.53935680900264L130.28523576814786,158.81202127804L132.08257548787986,159.01855010985332L133.52650571215898,159.1844693399173L135.17238421955403,159.373594056704L136.59611961552156,159.53719273807732L137.50488688954334,159.64161742829867L138.33287485031877,159.73675992388002L139.55466196317033,159.87715311853066L141.84677497653647,160.14053539286667L143.93693970678663,160.38071218041864L145.79486391145343,160.59420265824264L146.74402084209845,160.7032684458453L149.10681575455516,160.97477264050667L149.82373215961684,161.05715211832L150.99503220168938,161.191743941336L152.23701414285253,161.33445768467732L153.14578141687434,161.43888237489867L154.08484093336355,161.54678788818666L155.41769960192886,161.699944100544L156.15481083530213,161.78464412710935L157.2150393216609,161.9064729323573L159.31530146606687,162.14780999428532L161.6175118935888,162.41235254287466L162.31423347033885,162.49241147212L163.44514385578822,162.62236219775468L164.555859412926,162.74999237469865L165.80793876824492,162.89386639235465L166.55514741577397,162.97972669323468L168.06975953914366,163.15376784368533L168.97852681316547,163.25819253390665L170.9879122301693,163.48908712681867L172.91651833392666,163.710699524968L174.97639082170946,163.947395489576L177.35938056247775,164.22122023286667L179.1870125246772,164.43122988768533L180.15636428363376,164.54261622397865L181.43873588142011,164.68997106464L182.22633418557234,164.78047246284L183.32695232855434,164.90694236546932L184.30640150166673,165.01948897607733L185.57867568529727,165.165683542424L186.32588433282632,165.25154384330398L188.6987766594388,165.52420831228L190.55670086410564,165.73769879016533L191.73809832033402,165.87345088743467L192.96998284734133,166.01500435646133L193.6768018382472,166.09622356002131L194.6764458396712,166.21109071925866L197.1200200653743,166.49187710862134L197.87732612705912,166.578897683816L198.9678468558853,166.70420731213068L200.26031586782744,166.85272242710667L202.33028576976602,167.09057866602933L204.3194763584582,167.31915271025065L206.27837470468302,167.54424593140533L208.6209747888281,167.81342957743732L210.48899640765075,168.028080329576L211.5795171364769,168.15338995789065L212.34692061231755,168.2415708074L214.5986439690605,168.50031198435465L216.9311466390498,168.76833535601065L217.67835528657886,168.85419565689065L218.79916825787242,168.98298610821067L219.7483251885174,169.09205189575198L220.69748211916243,169.20111768335465L221.8485873329234,169.33338895768L222.92901064759377,169.45753831161866L224.22147965953593,169.606053426656L226.43281335965565,169.86015350629066L227.02856079484775,169.92860969208266L228.02820479627172,170.04347685138134L230.53236350690963,170.33122488675468L232.62252823715977,170.57140167430666L234.45016019935923,170.78141132912532L235.3387326450694,170.88351547071733L236.44944820220718,171.01114564766135L237.72172238583772,171.157340214008L239.95325091426906,171.41376084227198L241.7404932198453,171.61912939977066L244.12348296061361,171.89295414312267L246.0116994077478,172.109925443952L248.26342276449077,172.36866662090665L250.42426939383154,172.6169653288453L252.30238842680996,172.83277635536L254.49352729861806,173.08455588624267L255.24073594614714,173.17041618712267L256.62408168549143,173.329373771176L257.3409980905531,173.41175324905066L258.7546360723648,173.57419165610935L259.54223437651706,173.66469305430934L260.59236544872005,173.78536158524267L262.5815560374122,174.01393562946402L264.66162335350657,174.2529521427013L266.85276222531473,174.50473167364532L268.0139648532315,174.63816322228533L270.16471406841646,174.88530165590933L270.8917278876339,174.96884140809868L272.29526845528983,175.13011954078132L274.2238745590472,175.35173193899197L276.2736496326742,175.58726762922402L277.3035858765656,175.70561561146667L278.5859574743519,175.8529704521893L279.23219198032297,175.92722800967732L280.46407650733033,176.068781478704L281.56469465031233,176.19525138133332L283.5841774814719,176.42730624856L285.7652189391242,176.677925505128L286.97690863782,176.81715842546402L287.6837276287259,176.898377629024L291.11684844169713,177.292870903248L293.0656493737661,177.51680385014933L294.99425547752355,177.73841624829868L296.04438654972654,177.8590847792933L297.1248098643969,177.98323413323197L299.35633839282826,178.239654761496L301.5272824363248,178.48911374374933L302.23410142723066,178.57033294730934L304.5262144405968,178.833715221584L305.2734230881258,178.91957552246402L306.59618434253537,179.07157146050668L307.3231981617528,179.155111212696L308.75703097187613,179.31987016844533L310.7967086313473,179.55424558430133L311.7054759053691,179.65867027458398L312.64453542185834,179.76657578781067L313.6946664940613,179.887244318744L315.6838570827535,180.11581836296534L317.9254830253406,180.37339926560531L318.9352244409204,180.48942669921865L320.3185701802647,180.64838428327198L321.005194342859,180.72728293808L322.004838344283,180.84215009737866L323.14584614388815,180.973261097328L324.13539273115634,181.086967982312L325.2764005307615,181.21807898226132L326.2053626330949,181.3248242211856L327.3362730185443,181.4547749468264L329.3557558497039,181.68682981404692L331.78923266125116,181.96645592904588L332.44556458137805,182.04187376089146L333.43511116864624,182.1555806458264L334.7679698372116,182.30873685818986L336.9490112948639,182.5593561147824L337.65583028576975,182.64057531831173L338.75644842875175,182.76704522094718L339.76618984433156,182.88307265455438L341.18992524029903,183.04667133594614L342.88629081847307,183.24159742440426L343.8657399915855,183.35414403500613L345.01684520534644,183.4864153093192L347.1171073497524,183.7277523712288L348.288407391825,183.86234419421413L350.45935143532154,184.1118031764736L352.6302954788181,184.36126215873304L353.3472118838797,184.44364163659546L354.4882196834849,184.57475263657545L355.831175766206,184.72906912327812L356.4875076863329,184.80448695512374L357.62851548593807,184.9355979550976L359.9206284993042,185.19898022939066L360.62744749021005,185.28019943292L361.6674811482572,185.39970768953867L363.82832777759796,185.64800639745891L364.72699763746397,185.75127081337172L366.00936923525035,185.89862565405758L367.1301822065439,186.02741610535918L369.33141849250785,186.28035591063013L370.35125732224344,186.39754361857652L370.9873944140587,186.47064090174987L371.9466487588595,186.58086696367332L373.15833845755526,186.72009988400933L375.56152302663514,186.9962451759968L377.1266222207838,187.17608769808828L378.3585067477912,187.31764116709653L379.4591248907731,187.44411106972586L381.4988025502443,187.67848648561866L382.45805689504516,187.78871254754827L383.39711641153434,187.8966180608056L384.88143629243666,188.067178388208L386.6484837697013,188.27022639702213L387.81978381177385,188.4048182200136L388.71845367163985,188.50808263592026L390.10179941098414,188.66704021996748L390.7884235735784,188.74593887482453L392.959367617075,188.995397857084L393.92871937603155,189.10678419334667L395.3221625295317,189.26690205172693L397.08921000679635,189.46995006054107L398.01817210912975,189.5766952994653L399.18947215120227,189.71128712245067L400.23960322340525,189.83195565340242L401.2392472248293,189.94682281267654L402.26918346872066,190.065170794956L403.24863264183307,190.17771740555787L404.4300300980614,190.3134695028824L405.3286999579274,190.4167339187952L406.5,190.55132574178054"
           stroke="#3366cc"
           stroke-width="2"
           stroke-opacity="0.5"
           fill-opacity="1"
           fill="none"
           id="path62" />
      </g>
    </g>
    <g
       id="g64" />
    <g
       id="g66">
      <g
         id="g68">
        <g
           style="font-size:12px;font-family:Arial;text-anchor:middle;fill:#444444;stroke:none;stroke-width:0"
           id="text70">
          <path
             d="m 180.88483,260.20001 -1.05469,0 0,-6.7207 q -0.38086,0.36328 -1.00195,0.72656 -0.61524,0.36328 -1.10743,0.54492 l 0,-1.01953 q 0.88477,-0.41601 1.54688,-1.00781 0.66211,-0.5918 0.9375,-1.14844 l 0.67969,0 0,8.625 z"
             style="font-size:12px;font-family:Arial;text-anchor:middle;fill:#444444;stroke:none;stroke-width:0"
             id="path3472" />
          <path
             d="m 183.59186,255.96368 q 0,-1.52343 0.31054,-2.44921 0.31641,-0.93165 0.93165,-1.43555 0.62109,-0.50391 1.55859,-0.50391 0.69141,0 1.21289,0.28125 0.52148,0.27539 0.86133,0.80274 0.33984,0.52148 0.5332,1.27734 0.19336,0.75 0.19336,2.02734 0,1.51172 -0.31055,2.44336 -0.31054,0.92578 -0.93164,1.43555 -0.61523,0.50391 -1.55859,0.50391 -1.24219,0 -1.95117,-0.89063 -0.84961,-1.07226 -0.84961,-3.49219 z m 1.08398,0 q 0,2.11524 0.49219,2.81836 0.49805,0.69727 1.22461,0.69727 0.72656,0 1.21875,-0.70313 0.49805,-0.70312 0.49805,-2.8125 0,-2.12109 -0.49805,-2.81836 -0.49219,-0.69726 -1.23047,-0.69726 -0.72656,0 -1.16016,0.61523 -0.54492,0.78516 -0.54492,2.90039 z"
             style="font-size:12px;font-family:Arial;text-anchor:middle;fill:#444444;stroke:none;stroke-width:0"
             id="path3474" />
          <path
             d="m 190.8399,260.20001 0,-1.20117 1.20118,0 0,1.20117 q 0,0.66211 -0.23438,1.06641 -0.23437,0.41015 -0.74414,0.63281 l -0.29297,-0.45117 q 0.33399,-0.14649 0.49219,-0.43359 0.1582,-0.28125 0.17578,-0.81446 l -0.59766,0 z"
             style="font-size:12px;font-family:Arial;text-anchor:middle;fill:#444444;stroke:none;stroke-width:0"
             id="path3476" />
          <path
             d="m 193.59967,255.96368 q 0,-1.52343 0.31055,-2.44921 0.3164,-0.93165 0.93164,-1.43555 0.62109,-0.50391 1.55859,-0.50391 0.69141,0 1.21289,0.28125 0.52149,0.27539 0.86133,0.80274 0.33984,0.52148 0.5332,1.27734 0.19336,0.75 0.19336,2.02734 0,1.51172 -0.31054,2.44336 -0.31055,0.92578 -0.93164,1.43555 -0.61524,0.50391 -1.5586,0.50391 -1.24219,0 -1.95117,-0.89063 -0.84961,-1.07226 -0.84961,-3.49219 z m 1.08398,0 q 0,2.11524 0.49219,2.81836 0.49805,0.69727 1.22461,0.69727 0.72656,0 1.21875,-0.70313 0.49805,-0.70312 0.49805,-2.8125 0,-2.12109 -0.49805,-2.81836 -0.49219,-0.69726 -1.23047,-0.69726 -0.72656,0 -1.16015,0.61523 -0.54493,0.78516 -0.54493,2.90039 z"
             style="font-size:12px;font-family:Arial;text-anchor:middle;fill:#444444;stroke:none;stroke-width:0"
             id="path3478" />
          <path
             d="m 200.27936,255.96368 q 0,-1.52343 0.31054,-2.44921 0.31641,-0.93165 0.93165,-1.43555 0.62109,-0.50391 1.55859,-0.50391 0.69141,0 1.21289,0.28125 0.52148,0.27539 0.86133,0.80274 0.33984,0.52148 0.5332,1.27734 0.19336,0.75 0.19336,2.02734 0,1.51172 -0.31055,2.44336 -0.31054,0.92578 -0.93164,1.43555 -0.61523,0.50391 -1.55859,0.50391 -1.24219,0 -1.95117,-0.89063 -0.84961,-1.07226 -0.84961,-3.49219 z m 1.08398,0 q 0,2.11524 0.49219,2.81836 0.49805,0.69727 1.22461,0.69727 0.72656,0 1.21875,-0.70313 0.49805,-0.70312 0.49805,-2.8125 0,-2.12109 -0.49805,-2.81836 -0.49219,-0.69726 -1.23047,-0.69726 -0.72656,0 -1.16016,0.61523 -0.54492,0.78516 -0.54492,2.90039 z"
             style="font-size:12px;font-family:Arial;text-anchor:middle;fill:#444444;stroke:none;stroke-width:0"
             id="path3480" />
          <path
             d="m 206.95905,255.96368 q 0,-1.52343 0.31054,-2.44921 0.31641,-0.93165 0.93164,-1.43555 0.6211,-0.50391 1.5586,-0.50391 0.6914,0 1.21289,0.28125 0.52148,0.27539 0.86133,0.80274 0.33984,0.52148 0.5332,1.27734 0.19336,0.75 0.19336,2.02734 0,1.51172 -0.31055,2.44336 -0.31055,0.92578 -0.93164,1.43555 -0.61523,0.50391 -1.55859,0.50391 -1.24219,0 -1.95118,-0.89063 -0.8496,-1.07226 -0.8496,-3.49219 z m 1.08398,0 q 0,2.11524 0.49219,2.81836 0.49804,0.69727 1.22461,0.69727 0.72656,0 1.21875,-0.70313 0.49804,-0.70312 0.49804,-2.8125 0,-2.12109 -0.49804,-2.81836 -0.49219,-0.69726 -1.23047,-0.69726 -0.72656,0 -1.16016,0.61523 -0.54492,0.78516 -0.54492,2.90039 z"
             style="font-size:12px;font-family:Arial;text-anchor:middle;fill:#444444;stroke:none;stroke-width:0"
             id="path3482" />
        </g>
      </g>
      <g
         id="g72">
        <g
           style="font-size:12px;font-family:Arial;text-anchor:middle;fill:#444444;stroke:none;stroke-width:0"
           id="text74">
          <path
             d="m 283.42932,259.18634 0,1.01367 -5.67773,0 q -0.0117,-0.38086 0.12304,-0.73242 0.2168,-0.58008 0.69141,-1.14258 0.48047,-0.5625 1.38281,-1.30078 1.40039,-1.14844 1.89258,-1.81641 0.49219,-0.67382 0.49219,-1.27148 0,-0.62695 -0.45117,-1.05469 -0.44532,-0.43359 -1.16602,-0.43359 -0.76172,0 -1.21875,0.45703 -0.45703,0.45703 -0.46289,1.26563 l -1.08398,-0.11133 q 0.11132,-1.21289 0.83789,-1.84571 0.72656,-0.63867 1.95117,-0.63867 1.23633,0 1.95703,0.68555 0.7207,0.68555 0.7207,1.69922 0,0.51562 -0.21093,1.01367 -0.21094,0.49805 -0.70313,1.04883 -0.48633,0.55078 -1.62305,1.51172 -0.94922,0.79687 -1.21875,1.08398 -0.26953,0.28125 -0.44531,0.56836 l 4.21289,0 z"
             style="font-size:12px;font-family:Arial;text-anchor:middle;fill:#444444;stroke:none;stroke-width:0"
             id="path3485" />
          <path
             d="m 284.56604,255.96368 q 0,-1.52343 0.31055,-2.44921 0.3164,-0.93165 0.93164,-1.43555 0.62109,-0.50391 1.55859,-0.50391 0.69141,0 1.21289,0.28125 0.52149,0.27539 0.86133,0.80274 0.33984,0.52148 0.5332,1.27734 0.19336,0.75 0.19336,2.02734 0,1.51172 -0.31054,2.44336 -0.31055,0.92578 -0.93164,1.43555 -0.61524,0.50391 -1.5586,0.50391 -1.24219,0 -1.95117,-0.89063 -0.84961,-1.07226 -0.84961,-3.49219 z m 1.08398,0 q 0,2.11524 0.49219,2.81836 0.49805,0.69727 1.22461,0.69727 0.72656,0 1.21875,-0.70313 0.49805,-0.70312 0.49805,-2.8125 0,-2.12109 -0.49805,-2.81836 -0.49219,-0.69726 -1.23047,-0.69726 -0.72656,0 -1.16015,0.61523 -0.54493,0.78516 -0.54493,2.90039 z"
             style="font-size:12px;font-family:Arial;text-anchor:middle;fill:#444444;stroke:none;stroke-width:0"
             id="path3487" />
          <path
             d="m 291.81409,260.20001 0,-1.20117 1.20117,0 0,1.20117 q 0,0.66211 -0.23438,1.06641 -0.23437,0.41015 -0.74414,0.63281 l -0.29297,-0.45117 q 0.33399,-0.14649 0.49219,-0.43359 0.15821,-0.28125 0.17578,-0.81446 l -0.59765,0 z"
             style="font-size:12px;font-family:Arial;text-anchor:middle;fill:#444444;stroke:none;stroke-width:0"
             id="path3489" />
          <path
             d="m 294.57385,255.96368 q 0,-1.52343 0.31055,-2.44921 0.31641,-0.93165 0.93164,-1.43555 0.62109,-0.50391 1.55859,-0.50391 0.69141,0 1.21289,0.28125 0.52149,0.27539 0.86133,0.80274 0.33985,0.52148 0.53321,1.27734 0.19336,0.75 0.19336,2.02734 0,1.51172 -0.31055,2.44336 -0.31055,0.92578 -0.93164,1.43555 -0.61524,0.50391 -1.5586,0.50391 -1.24218,0 -1.95117,-0.89063 -0.84961,-1.07226 -0.84961,-3.49219 z m 1.08399,0 q 0,2.11524 0.49218,2.81836 0.49805,0.69727 1.22461,0.69727 0.72657,0 1.21875,-0.70313 0.49805,-0.70312 0.49805,-2.8125 0,-2.12109 -0.49805,-2.81836 -0.49218,-0.69726 -1.23046,-0.69726 -0.72657,0 -1.16016,0.61523 -0.54492,0.78516 -0.54492,2.90039 z"
             style="font-size:12px;font-family:Arial;text-anchor:middle;fill:#444444;stroke:none;stroke-width:0"
             id="path3491" />
          <path
             d="m 301.25354,255.96368 q 0,-1.52343 0.31055,-2.44921 0.3164,-0.93165 0.93164,-1.43555 0.62109,-0.50391 1.55859,-0.50391 0.69141,0 1.21289,0.28125 0.52149,0.27539 0.86133,0.80274 0.33984,0.52148 0.5332,1.27734 0.19336,0.75 0.19336,2.02734 0,1.51172 -0.31054,2.44336 -0.31055,0.92578 -0.93164,1.43555 -0.61524,0.50391 -1.5586,0.50391 -1.24219,0 -1.95117,-0.89063 -0.84961,-1.07226 -0.84961,-3.49219 z m 1.08398,0 q 0,2.11524 0.49219,2.81836 0.49805,0.69727 1.22461,0.69727 0.72656,0 1.21875,-0.70313 0.49805,-0.70312 0.49805,-2.8125 0,-2.12109 -0.49805,-2.81836 -0.49219,-0.69726 -1.23047,-0.69726 -0.72656,0 -1.16015,0.61523 -0.54493,0.78516 -0.54493,2.90039 z"
             style="font-size:12px;font-family:Arial;text-anchor:middle;fill:#444444;stroke:none;stroke-width:0"
             id="path3493" />
          <path
             d="m 307.93323,255.96368 q 0,-1.52343 0.31054,-2.44921 0.31641,-0.93165 0.93165,-1.43555 0.62109,-0.50391 1.55859,-0.50391 0.69141,0 1.21289,0.28125 0.52148,0.27539 0.86133,0.80274 0.33984,0.52148 0.5332,1.27734 0.19336,0.75 0.19336,2.02734 0,1.51172 -0.31055,2.44336 -0.31054,0.92578 -0.93164,1.43555 -0.61523,0.50391 -1.55859,0.50391 -1.24219,0 -1.95117,-0.89063 -0.84961,-1.07226 -0.84961,-3.49219 z m 1.08398,0 q 0,2.11524 0.49219,2.81836 0.49805,0.69727 1.22461,0.69727 0.72656,0 1.21875,-0.70313 0.49805,-0.70312 0.49805,-2.8125 0,-2.12109 -0.49805,-2.81836 -0.49219,-0.69726 -1.23047,-0.69726 -0.72656,0 -1.16016,0.61523 -0.54492,0.78516 -0.54492,2.90039 z"
             style="font-size:12px;font-family:Arial;text-anchor:middle;fill:#444444;stroke:none;stroke-width:0"
             id="path3495" />
        </g>
      </g>
      <g
         id="g76">
        <g
           style="font-size:12px;font-family:Arial;text-anchor:middle;fill:#444444;stroke:none;stroke-width:0"
           id="text78">
          <path
             d="m 378.86633,257.93243 1.05469,-0.14062 q 0.18164,0.89648 0.61523,1.29492 0.43946,0.39258 1.06641,0.39258 0.74414,0 1.25391,-0.51563 0.51562,-0.51562 0.51562,-1.27734 0,-0.72656 -0.47461,-1.19531 -0.47461,-0.47461 -1.20703,-0.47461 -0.29883,0 -0.74414,0.11719 l 0.11719,-0.92579 q 0.10547,0.0117 0.16992,0.0117 0.67383,0 1.21289,-0.35156 0.53906,-0.35156 0.53906,-1.08398 0,-0.58008 -0.39257,-0.96094 -0.39258,-0.38086 -1.01368,-0.38086 -0.61523,0 -1.02539,0.38672 -0.41015,0.38672 -0.52734,1.16015 l -1.05469,-0.1875 q 0.19336,-1.06054 0.87891,-1.64062 0.68554,-0.58594 1.70508,-0.58594 0.70312,0 1.29492,0.30469 0.59179,0.29883 0.90234,0.82031 0.31641,0.52149 0.31641,1.10742 0,0.55664 -0.29883,1.01368 -0.29883,0.45703 -0.88477,0.72656 0.76172,0.17578 1.1836,0.73242 0.42187,0.55078 0.42187,1.38281 0,1.125 -0.82031,1.91016 -0.82031,0.7793 -2.07422,0.7793 -1.13086,0 -1.88086,-0.67383 -0.74414,-0.67383 -0.84961,-1.7461 z"
             style="font-size:12px;font-family:Arial;text-anchor:middle;fill:#444444;stroke:none;stroke-width:0"
             id="path3498" />
          <path
             d="m 385.54016,255.96368 q 0,-1.52343 0.31055,-2.44921 0.3164,-0.93165 0.93164,-1.43555 0.62109,-0.50391 1.55859,-0.50391 0.69141,0 1.21289,0.28125 0.52149,0.27539 0.86133,0.80274 0.33984,0.52148 0.5332,1.27734 0.19336,0.75 0.19336,2.02734 0,1.51172 -0.31054,2.44336 -0.31055,0.92578 -0.93164,1.43555 -0.61524,0.50391 -1.5586,0.50391 -1.24219,0 -1.95117,-0.89063 -0.84961,-1.07226 -0.84961,-3.49219 z m 1.08399,0 q 0,2.11524 0.49218,2.81836 0.49805,0.69727 1.22461,0.69727 0.72656,0 1.21875,-0.70313 0.49805,-0.70312 0.49805,-2.8125 0,-2.12109 -0.49805,-2.81836 -0.49219,-0.69726 -1.23047,-0.69726 -0.72656,0 -1.16015,0.61523 -0.54492,0.78516 -0.54492,2.90039 z"
             style="font-size:12px;font-family:Arial;text-anchor:middle;fill:#444444;stroke:none;stroke-width:0"
             id="path3500" />
          <path
             d="m 392.78821,260.20001 0,-1.20117 1.20117,0 0,1.20117 q 0,0.66211 -0.23438,1.06641 -0.23437,0.41015 -0.74414,0.63281 l -0.29296,-0.45117 q 0.33398,-0.14649 0.49218,-0.43359 0.15821,-0.28125 0.17578,-0.81446 l -0.59765,0 z"
             style="font-size:12px;font-family:Arial;text-anchor:middle;fill:#444444;stroke:none;stroke-width:0"
             id="path3502" />
          <path
             d="m 395.54797,255.96368 q 0,-1.52343 0.31055,-2.44921 0.31641,-0.93165 0.93164,-1.43555 0.62109,-0.50391 1.55859,-0.50391 0.69141,0 1.2129,0.28125 0.52148,0.27539 0.86132,0.80274 0.33985,0.52148 0.53321,1.27734 0.19336,0.75 0.19336,2.02734 0,1.51172 -0.31055,2.44336 -0.31055,0.92578 -0.93164,1.43555 -0.61524,0.50391 -1.5586,0.50391 -1.24218,0 -1.95117,-0.89063 -0.84961,-1.07226 -0.84961,-3.49219 z m 1.08399,0 q 0,2.11524 0.49219,2.81836 0.49804,0.69727 1.2246,0.69727 0.72657,0 1.21875,-0.70313 0.49805,-0.70312 0.49805,-2.8125 0,-2.12109 -0.49805,-2.81836 -0.49218,-0.69726 -1.23046,-0.69726 -0.72657,0 -1.16016,0.61523 -0.54492,0.78516 -0.54492,2.90039 z"
             style="font-size:12px;font-family:Arial;text-anchor:middle;fill:#444444;stroke:none;stroke-width:0"
             id="path3504" />
          <path
             d="m 402.22766,255.96368 q 0,-1.52343 0.31055,-2.44921 0.3164,-0.93165 0.93164,-1.43555 0.62109,-0.50391 1.55859,-0.50391 0.69141,0 1.21289,0.28125 0.52149,0.27539 0.86133,0.80274 0.33984,0.52148 0.5332,1.27734 0.19336,0.75 0.19336,2.02734 0,1.51172 -0.31054,2.44336 -0.31055,0.92578 -0.93164,1.43555 -0.61524,0.50391 -1.5586,0.50391 -1.24219,0 -1.95117,-0.89063 -0.84961,-1.07226 -0.84961,-3.49219 z m 1.08399,0 q 0,2.11524 0.49218,2.81836 0.49805,0.69727 1.22461,0.69727 0.72656,0 1.21875,-0.70313 0.49805,-0.70312 0.49805,-2.8125 0,-2.12109 -0.49805,-2.81836 -0.49219,-0.69726 -1.23047,-0.69726 -0.72656,0 -1.16015,0.61523 -0.54492,0.78516 -0.54492,2.90039 z"
             style="font-size:12px;font-family:Arial;text-anchor:middle;fill:#444444;stroke:none;stroke-width:0"
             id="path3506" />
          <path
             d="m 408.90735,255.96368 q 0,-1.52343 0.31055,-2.44921 0.3164,-0.93165 0.93164,-1.43555 0.62109,-0.50391 1.55859,-0.50391 0.69141,0 1.21289,0.28125 0.52148,0.27539 0.86133,0.80274 0.33984,0.52148 0.5332,1.27734 0.19336,0.75 0.19336,2.02734 0,1.51172 -0.31055,2.44336 -0.31054,0.92578 -0.93164,1.43555 -0.61523,0.50391 -1.55859,0.50391 -1.24219,0 -1.95117,-0.89063 -0.84961,-1.07226 -0.84961,-3.49219 z m 1.08398,0 q 0,2.11524 0.49219,2.81836 0.49805,0.69727 1.22461,0.69727 0.72656,0 1.21875,-0.70313 0.49805,-0.70312 0.49805,-2.8125 0,-2.12109 -0.49805,-2.81836 -0.49219,-0.69726 -1.23047,-0.69726 -0.72656,0 -1.16016,0.61523 -0.54492,0.78516 -0.54492,2.90039 z"
             style="font-size:12px;font-family:Arial;text-anchor:middle;fill:#444444;stroke:none;stroke-width:0"
             id="path3508" />
        </g>
      </g>
      <g
         id="g80">
        <g
           style="font-size:12px;font-family:Arial;text-anchor:end;fill:#444444;stroke:none;stroke-width:0"
           id="text82">
          <path
             d="m 75.818359,242.46367 q 0,-1.52344 0.310547,-2.44922 0.316406,-0.93164 0.931641,-1.43555 0.621094,-0.5039 1.558594,-0.5039 0.691406,0 1.21289,0.28125 0.521485,0.27539 0.861328,0.80273 0.339844,0.52149 0.533203,1.27735 0.19336,0.75 0.19336,2.02734 0,1.51172 -0.310547,2.44336 -0.310547,0.92578 -0.931641,1.43555 -0.615234,0.5039 -1.558593,0.5039 -1.242188,0 -1.951172,-0.89062 -0.84961,-1.07227 -0.84961,-3.49219 z m 1.083985,0 q 0,2.11523 0.492187,2.81836 0.498047,0.69726 1.22461,0.69726 0.726562,0 1.21875,-0.70312 0.498046,-0.70313 0.498046,-2.8125 0,-2.12109 -0.498046,-2.81836 -0.492188,-0.69727 -1.230469,-0.69727 -0.726563,0 -1.160156,0.61524 -0.544922,0.78515 -0.544922,2.90039 z"
             style="font-size:12px;font-family:Arial;text-anchor:end;fill:#444444;stroke:none;stroke-width:0"
             id="path3511" />
        </g>
      </g>
      <g
         id="g84">
        <g
           style="font-size:12px;font-family:Arial;text-anchor:end;fill:#444444;stroke:none;stroke-width:0"
           id="text86">
          <path
             d="m 73.111328,185.3667 -1.054687,0 0,-6.7207 q -0.38086,0.36328 -1.001954,0.72656 -0.615234,0.36328 -1.107421,0.54492 l 0,-1.01953 q 0.884765,-0.41602 1.546875,-1.00781 0.662109,-0.5918 0.9375,-1.14844 l 0.679687,0 0,8.625 z"
             style="font-size:12px;font-family:Arial;text-anchor:end;fill:#444444;stroke:none;stroke-width:0"
             id="path3514" />
          <path
             d="m 75.818359,181.13037 q 0,-1.52344 0.310547,-2.44922 0.316406,-0.93164 0.931641,-1.43554 0.621094,-0.50391 1.558594,-0.50391 0.691406,0 1.21289,0.28125 0.521485,0.27539 0.861328,0.80273 0.339844,0.52149 0.533203,1.27735 0.19336,0.75 0.19336,2.02734 0,1.51172 -0.310547,2.44336 -0.310547,0.92578 -0.931641,1.43555 -0.615234,0.5039 -1.558593,0.5039 -1.242188,0 -1.951172,-0.89062 -0.84961,-1.07227 -0.84961,-3.49219 z m 1.083985,0 q 0,2.11524 0.492187,2.81836 0.498047,0.69727 1.22461,0.69727 0.726562,0 1.21875,-0.70313 0.498046,-0.70312 0.498046,-2.8125 0,-2.12109 -0.498046,-2.81836 -0.492188,-0.69726 -1.230469,-0.69726 -0.726563,0 -1.160156,0.61523 -0.544922,0.78516 -0.544922,2.90039 z"
             style="font-size:12px;font-family:Arial;text-anchor:end;fill:#444444;stroke:none;stroke-width:0"
             id="path3516" />
        </g>
      </g>
      <g
         id="g88">
        <g
           style="font-size:12px;font-family:Arial;text-anchor:end;fill:#444444;stroke:none;stroke-width:0"
           id="text90">
          <path
             d="m 74.681641,123.01963 0,1.01367 -5.677735,0 q -0.01172,-0.38086 0.123047,-0.73242 0.216797,-0.58008 0.691406,-1.14258 0.480469,-0.5625 1.382813,-1.30078 1.40039,-1.14844 1.892578,-1.81641 0.492187,-0.67382 0.492187,-1.27148 0,-0.62695 -0.451171,-1.05469 -0.445313,-0.43359 -1.166016,-0.43359 -0.761719,0 -1.21875,0.45703 -0.457031,0.45703 -0.462891,1.26563 l -1.083984,-0.11133 q 0.111328,-1.21289 0.837891,-1.84571 0.726562,-0.63867 1.951171,-0.63867 1.236329,0 1.957032,0.68555 0.720703,0.68555 0.720703,1.69922 0,0.51562 -0.210938,1.01367 -0.210937,0.49805 -0.703125,1.04883 -0.486328,0.55078 -1.623047,1.51172 -0.949218,0.79687 -1.21875,1.08398 -0.269531,0.28125 -0.445312,0.56836 l 4.212891,0 z"
             style="font-size:12px;font-family:Arial;text-anchor:end;fill:#444444;stroke:none;stroke-width:0"
             id="path3519" />
          <path
             d="m 75.818359,119.79697 q 0,-1.52343 0.310547,-2.44921 0.316406,-0.93165 0.931641,-1.43555 0.621094,-0.50391 1.558594,-0.50391 0.691406,0 1.21289,0.28125 0.521485,0.27539 0.861328,0.80274 0.339844,0.52148 0.533203,1.27734 0.19336,0.75 0.19336,2.02734 0,1.51172 -0.310547,2.44336 -0.310547,0.92578 -0.931641,1.43555 -0.615234,0.50391 -1.558593,0.50391 -1.242188,0 -1.951172,-0.89063 -0.84961,-1.07226 -0.84961,-3.49219 z m 1.083985,0 q 0,2.11524 0.492187,2.81836 0.498047,0.69727 1.22461,0.69727 0.726562,0 1.21875,-0.70313 0.498046,-0.70312 0.498046,-2.8125 0,-2.12109 -0.498046,-2.81836 -0.492188,-0.69726 -1.230469,-0.69726 -0.726563,0 -1.160156,0.61523 -0.544922,0.78516 -0.544922,2.90039 z"
             style="font-size:12px;font-family:Arial;text-anchor:end;fill:#444444;stroke:none;stroke-width:0"
             id="path3521" />
        </g>
      </g>
      <g
         id="g92">
        <g
           style="font-size:12px;font-family:Arial;text-anchor:end;fill:#444444;stroke:none;stroke-width:0"
           id="text94">
          <path
             d="m 69.144531,60.432423 1.054688,-0.140625 q 0.18164,0.896484 0.615234,1.294922 0.439453,0.392578 1.066406,0.392578 0.744141,0 1.253907,-0.515625 0.515625,-0.515625 0.515625,-1.277344 0,-0.726563 -0.47461,-1.195313 -0.474609,-0.474609 -1.207031,-0.474609 -0.298828,0 -0.744141,0.117188 l 0.117188,-0.925782 q 0.105469,0.01172 0.169922,0.01172 0.673828,0 1.21289,-0.351562 0.539063,-0.351563 0.539063,-1.083985 0,-0.580078 -0.392578,-0.960937 -0.392578,-0.38086 -1.013672,-0.38086 -0.615235,0 -1.025391,0.386719 -0.410156,0.386719 -0.527344,1.160156 L 69.25,56.301563 q 0.193359,-1.060547 0.878906,-1.640625 0.685547,-0.585937 1.705078,-0.585937 0.703125,0 1.294922,0.304687 0.591797,0.298828 0.902344,0.820313 0.316406,0.521484 0.316406,1.107422 0,0.55664 -0.298828,1.013672 -0.298828,0.457031 -0.884766,0.726562 0.761719,0.175781 1.183594,0.732422 0.421875,0.550781 0.421875,1.382812 0,1.125 -0.820312,1.910157 -0.820313,0.779297 -2.074219,0.779297 -1.130859,0 -1.880859,-0.673829 Q 69.25,61.504688 69.144531,60.432423 Z"
             style="font-size:12px;font-family:Arial;text-anchor:end;fill:#444444;stroke:none;stroke-width:0"
             id="path3524" />
          <path
             d="m 75.818359,58.463673 q 0,-1.523438 0.310547,-2.449219 0.316406,-0.931641 0.931641,-1.435547 0.621094,-0.503906 1.558594,-0.503906 0.691406,0 1.21289,0.28125 0.521485,0.27539 0.861328,0.802734 0.339844,0.521485 0.533203,1.277344 0.19336,0.75 0.19336,2.027344 0,1.511718 -0.310547,2.443359 -0.310547,0.925781 -0.931641,1.435547 -0.615234,0.503906 -1.558593,0.503906 -1.242188,0 -1.951172,-0.890625 -0.84961,-1.072265 -0.84961,-3.492187 z m 1.083985,0 q 0,2.115234 0.492187,2.818359 0.498047,0.697266 1.22461,0.697266 0.726562,0 1.21875,-0.703125 0.498046,-0.703125 0.498046,-2.8125 0,-2.121094 -0.498046,-2.81836 -0.492188,-0.697265 -1.230469,-0.697265 -0.726563,0 -1.160156,0.615234 -0.544922,0.785156 -0.544922,2.900391 z"
             style="font-size:12px;font-family:Arial;text-anchor:end;fill:#444444;stroke:none;stroke-width:0"
             id="path3526" />
        </g>
      </g>
    </g>
  </g>
  <g
     id="g96">
    <g
       id="g98">
      <g
         style="font-style:italic;font-size:12px;font-family:Arial;text-anchor:middle;fill:#222222;stroke:none;stroke-width:0"
         id="text100">
        <path
           d="m 226.24805,285.20001 1.58789,-7.61133 -2.81836,0 0.20508,-0.97851 6.76171,0 -0.20507,0.97851 -2.79493,0 -1.58789,7.61133 -1.14843,0 z"
           style="font-style:italic;font-size:12px;font-family:Arial;text-anchor:middle;fill:#222222;stroke:none;stroke-width:0"
           id="path3437" />
        <path
           d="m 232.66992,277.81134 0.25195,-1.20117 1.05469,0 -0.25195,1.20117 -1.05469,0 z m -1.54687,7.38867 1.30078,-6.22265 1.06054,0 -1.30078,6.22265 -1.06054,0 z"
           style="font-style:italic;font-size:12px;font-family:Arial;text-anchor:middle;fill:#222222;stroke:none;stroke-width:0"
           id="path3439" />
        <path
           d="m 233.83008,285.20001 1.30078,-6.22265 1.06055,0 -0.2168,1.02539 q 0.5918,-0.66211 1.05469,-0.91407 0.46875,-0.25195 1.01367,-0.25195 0.58008,0 0.9668,0.31055 0.39257,0.30469 0.51562,0.85547 0.47461,-0.58594 0.99609,-0.87305 0.52735,-0.29297 1.10743,-0.29297 0.77929,0 1.16601,0.36914 0.39258,0.36914 0.39258,1.03711 0,0.28711 -0.13477,0.94922 l -0.83789,4.00781 -1.06054,0 0.85547,-4.11328 q 0.11132,-0.50391 0.11132,-0.7207 0,-0.30469 -0.19336,-0.48047 -0.19336,-0.17578 -0.54492,-0.17578 -0.47461,0 -0.96679,0.28711 -0.49219,0.28711 -0.76758,0.75586 -0.26953,0.46289 -0.47461,1.42968 l -0.63281,3.01758 -1.06055,0 0.8789,-4.20117 q 0.0937,-0.42773 0.0937,-0.60937 0,-0.30469 -0.19335,-0.49219 -0.1875,-0.1875 -0.49219,-0.1875 -0.45117,0 -0.94922,0.28711 -0.49219,0.28711 -0.80274,0.80273 -0.31054,0.50977 -0.50976,1.45899 l -0.61524,2.9414 -1.06054,0 z"
           style="font-style:italic;font-size:12px;font-family:Arial;text-anchor:middle;fill:#222222;stroke:none;stroke-width:0"
           id="path3441" />
        <path
           d="m 248.41406,283.08478 1.03125,0.10547 q -0.22265,0.76757 -1.02539,1.45898 -0.79687,0.69141 -1.9043,0.69141 -0.6914,0 -1.27148,-0.31641 -0.57422,-0.32226 -0.87891,-0.93164 -0.29882,-0.60937 -0.29882,-1.38867 0,-1.01953 0.46875,-1.97461 0.47461,-0.96094 1.22461,-1.42383 0.75,-0.46875 1.62304,-0.46875 1.11328,0 1.77539,0.69141 0.66797,0.6914 0.66797,1.88672 0,0.45703 -0.082,0.9375 l -4.58203,0 q -0.0234,0.18164 -0.0234,0.32812 0,0.87305 0.39844,1.33594 0.4043,0.45703 0.98437,0.45703 0.54493,0 1.07227,-0.35742 0.52734,-0.35742 0.82031,-1.03125 z m -3.08203,-1.54102 3.49219,0 q 0.006,-0.16406 0.006,-0.23437 0,-0.79688 -0.39844,-1.21875 -0.39844,-0.42774 -1.02539,-0.42774 -0.67969,0 -1.24219,0.46875 -0.55664,0.46875 -0.83203,1.41211 z"
           style="font-style:italic;font-size:12px;font-family:Arial;text-anchor:middle;fill:#222222;stroke:none;stroke-width:0"
           id="path3443" />
        <path
           d="m 255.38672,287.7254 q -0.91992,-2.01562 -0.91992,-4.14258 0,-1.41796 0.36914,-2.63671 0.375,-1.22461 1.13672,-2.41993 0.5039,-0.79687 1.61132,-2.0625 l 0.82618,0 q -0.68555,0.73243 -1.45313,2.0625 -0.76172,1.33008 -1.10742,2.61329 -0.3457,1.2832 -0.3457,2.57812 0,1.93359 0.67382,4.00781 l -0.79101,0 z"
           style="font-style:italic;font-size:12px;font-family:Arial;text-anchor:middle;fill:#222222;stroke:none;stroke-width:0"
           id="path3445" />
        <path
           d="m 257.85352,285.20001 1.30078,-6.22265 1.06054,0 -0.21679,1.02539 q 0.59179,-0.66211 1.05468,-0.91407 0.46875,-0.25195 1.01368,-0.25195 0.58007,0 0.96679,0.31055 0.39258,0.30469 0.51563,0.85547 0.47461,-0.58594 0.99609,-0.87305 0.52735,-0.29297 1.10742,-0.29297 0.7793,0 1.16602,0.36914 0.39258,0.36914 0.39258,1.03711 0,0.28711 -0.13477,0.94922 l -0.83789,4.00781 -1.06055,0 0.85547,-4.11328 q 0.11133,-0.50391 0.11133,-0.7207 0,-0.30469 -0.19336,-0.48047 -0.19336,-0.17578 -0.54492,-0.17578 -0.47461,0 -0.9668,0.28711 -0.49218,0.28711 -0.76758,0.75586 -0.26953,0.46289 -0.4746,1.42968 l -0.63282,3.01758 -1.06054,0 0.8789,-4.20117 q 0.0937,-0.42773 0.0937,-0.60937 0,-0.30469 -0.19336,-0.49219 -0.1875,-0.1875 -0.49218,-0.1875 -0.45118,0 -0.94922,0.28711 -0.49219,0.28711 -0.80274,0.80273 -0.31054,0.50977 -0.50976,1.45899 l -0.61524,2.9414 -1.06054,0 z"
           style="font-style:italic;font-size:12px;font-family:Arial;text-anchor:middle;fill:#222222;stroke:none;stroke-width:0"
           id="path3447" />
        <path
           d="m 267.9668,283.07306 1.06054,-0.0645 q 0,0.45703 0.14063,0.77929 0.14062,0.32227 0.51562,0.52735 0.38086,0.20507 0.88477,0.20507 0.70312,0 1.05469,-0.28125 0.35156,-0.28125 0.35156,-0.6621 0,-0.2754 -0.21094,-0.52149 -0.2168,-0.24609 -1.06055,-0.60351 -0.83789,-0.36329 -1.07226,-0.50977 -0.39258,-0.24023 -0.5918,-0.5625 -0.19922,-0.32813 -0.19922,-0.75 0,-0.73828 0.58594,-1.26563 0.58594,-0.52734 1.64063,-0.52734 1.17187,0 1.78125,0.54492 0.61523,0.53907 0.63867,1.42383 l -1.03711,0.0703 q -0.0234,-0.5625 -0.39844,-0.89062 -0.375,-0.32813 -1.06055,-0.32813 -0.55078,0 -0.85546,0.25196 -0.30469,0.25195 -0.30469,0.54492 0,0.29297 0.26367,0.51562 0.17578,0.15235 0.9082,0.46875 1.21875,0.52735 1.53516,0.83203 0.50391,0.48633 0.50391,1.1836 0,0.46289 -0.28711,0.9082 -0.28125,0.44531 -0.86719,0.71485 -0.58008,0.26367 -1.3711,0.26367 -1.07812,0 -1.83398,-0.53321 -0.75586,-0.5332 -0.71484,-1.73437 z"
           style="font-style:italic;font-size:12px;font-family:Arial;text-anchor:middle;fill:#222222;stroke:none;stroke-width:0"
           id="path3449" />
        <path
           d="m 275.84766,276.46368 q 0.92578,2.01563 0.92578,4.13672 0,1.42383 -0.375,2.64258 -0.36914,1.21875 -1.13086,2.41992 -0.50977,0.79688 -1.61133,2.0625 l -0.82617,0 q 0.67969,-0.73828 1.44726,-2.06836 0.76758,-1.33007 1.10743,-2.60742 0.3457,-1.2832 0.3457,-2.58398 0,-1.9336 -0.67383,-4.00196 l 0.79102,0 z"
           style="font-style:italic;font-size:12px;font-family:Arial;text-anchor:middle;fill:#222222;stroke:none;stroke-width:0"
           id="path3451" />
      </g>
      <path
         style="fill:#ffffff;fill-opacity:0;stroke:none;stroke-width:0"
         d="m 94,275 313,0 0,12 -313,0 z"
         id="rect102" />
    </g>
  </g>
  <g
     id="g104" />
</svg>
