<svg  xmlns="http://www.w3.org/2000/svg" width="700" height="400" aria-label="A chart." style="overflow: hidden;"><defs id="_ABSTRACT_RENDERER_ID_2"><clipPath id="_ABSTRACT_RENDERER_ID_3"><rect x="127" y="77" width="446" height="247"></rect></clipPath></defs><rect x="0" y="0" width="700" height="400" stroke="none" stroke-width="0" fill="#ffffff"></rect><g><text text-anchor="start" x="127" y="54.05" font-family="Arial" font-size="13" font-weight="bold" stroke="none" stroke-width="0" fill="#000000">Distance Between Agents Model 02</text><rect x="127" y="43" width="446" height="13" stroke="none" stroke-width="0" fill-opacity="0" fill="#ffffff"></rect></g><g><rect x="127" y="77" width="446" height="247" stroke="none" stroke-width="0" fill-opacity="0" fill="#ffffff"></rect><g clip-path="url(http://localhost:63342/hc-with-streams/results/no-vpn/relative-distance.html?_ijt=1300ojbnotholknhvb8mq1hr2b#_ABSTRACT_RENDERER_ID_3)"><g><rect x="215" y="77" width="1" height="247" stroke="none" stroke-width="0" fill="#cccccc"></rect><rect x="304" y="77" width="1" height="247" stroke="none" stroke-width="0" fill="#cccccc"></rect><rect x="393" y="77" width="1" height="247" stroke="none" stroke-width="0" fill="#cccccc"></rect><rect x="481" y="77" width="1" height="247" stroke="none" stroke-width="0" fill="#cccccc"></rect><rect x="570" y="77" width="1" height="247" stroke="none" stroke-width="0" fill="#cccccc"></rect><rect x="126" y="77" width="1" height="247" stroke="none" stroke-width="0" fill="#ebebeb"></rect><rect x="171" y="77" width="1" height="247" stroke="none" stroke-width="0" fill="#ebebeb"></rect><rect x="259" y="77" width="1" height="247" stroke="none" stroke-width="0" fill="#ebebeb"></rect><rect x="348" y="77" width="1" height="247" stroke="none" stroke-width="0" fill="#ebebeb"></rect><rect x="437" y="77" width="1" height="247" stroke="none" stroke-width="0" fill="#ebebeb"></rect><rect x="526" y="77" width="1" height="247" stroke="none" stroke-width="0" fill="#ebebeb"></rect><rect x="614" y="77" width="1" height="247" stroke="none" stroke-width="0" fill="#ebebeb"></rect><rect x="127" y="323" width="446" height="1" stroke="none" stroke-width="0" fill="#cccccc"></rect><rect x="127" y="274" width="446" height="1" stroke="none" stroke-width="0" fill="#cccccc"></rect><rect x="127" y="225" width="446" height="1" stroke="none" stroke-width="0" fill="#cccccc"></rect><rect x="127" y="175" width="446" height="1" stroke="none" stroke-width="0" fill="#cccccc"></rect><rect x="127" y="126" width="446" height="1" stroke="none" stroke-width="0" fill="#cccccc"></rect><rect x="127" y="77" width="446" height="1" stroke="none" stroke-width="0" fill="#cccccc"></rect><rect x="127" y="298" width="446" height="1" stroke="none" stroke-width="0" fill="#ebebeb"></rect><rect x="127" y="249" width="446" height="1" stroke="none" stroke-width="0" fill="#ebebeb"></rect><rect x="127" y="200" width="446" height="1" stroke="none" stroke-width="0" fill="#ebebeb"></rect><rect x="127" y="151" width="446" height="1" stroke="none" stroke-width="0" fill="#ebebeb"></rect><rect x="127" y="102" width="446" height="1" stroke="none" stroke-width="0" fill="#ebebeb"></rect></g><g><rect x="127" y="323" width="446" height="1" stroke="none" stroke-width="0" fill="#333333"></rect></g><g><path d="M127.5,116.76159999999999L128.9908169980258,117.352L130.46388617464655,118.23760000000001L131.92808144056474,119.32L133.39227670648293,120.79599999999999L134.77660677607832,122.56719999999999L136.23192813129398,124.6336L137.70499730791474,127.19200000000001L139.09820128821264,129.5536L140.53577482202326,132.70239999999998L141.94672662372625,135.7528L143.3221827826191,139L144.80412586994237,142.93599999999998L146.18845593953776,146.67520000000002L148.4069336151714,151.6936L149.93324625600732,157.5976L151.3619458791154,162.2224L152.73740203800824,166.65040000000002L154.15722775041377,171.472L155.56817955211676,176.5888L156.95250962171215,182.1976L158.37233533411768,188.59359999999998L159.84540451073843,195.38320000000002L161.36284324087183,202.8616L162.73829939976468,210.0448L164.1581251121702,217.8184L165.5424551817656,225.4936L166.9800287155762,233.464L168.43535007079186,242.1232L169.77531058687458,249.89679999999998L171.6832013879195,260.42560000000003L173.10302710032505,267.8056L174.62933974116098,275.776L176.08466109637664,281.3848L177.5044868087822,284.2384L179.5632340917702,285.124L181.55099008913794,279.41679999999997L183.32577222964483,270.1672L184.74559794205038,260.524L186.23641494007617,251.37279999999998L187.66511456318423,242.1232L189.1204359183999,232.3816L190.57575727361558,222.7384L191.98670907531857,213.292L193.42428260912914,203.6488L194.81748658942706,194.3992L196.25506012323768,185.34640000000002L197.66601192494068,176.4904L199.10358545875127,167.6344L200.86949368855562,159.66400000000002L203.13234091770195,149.4304L205.1200969150697,139L206.67303128801325,130.636L208.09285700041875,124.14159999999998L209.5393044449319,118.13919999999999L211.0034997108501,112.72719999999998L212.37895586974295,107.7088L213.75441202863578,103.1824L215.10324645542107,99.148L216.48757652501644,95.40880000000001L217.85415877320676,92.25999999999999L219.25623666420722,89.30799999999999L220.65831455520768,86.94640000000001L222.0781402676132,84.88L223.51571380142383,83.40400000000002L224.91779169242426,82.22320000000002L227.2605041178934,82.71520000000001L229.24826011526113,81.928L230.68583364907172,81.14080000000001L232.15002891498992,81.63280000000003L233.51661116318024,82.61680000000001L234.9719325183959,83.89599999999999L236.74671465890282,85.37200000000001L238.7699662990807,89.70159999999998L240.27853111851158,91.27599999999998L241.79596984864497,94.03120000000001L243.2157955610505,96.68799999999999L244.68886473767122,100.132L246.12643827148185,103.2808L247.5018944303747,106.42960000000002L248.93059405348276,110.07039999999998L250.3237980337807,113.90799999999999L251.73474983548368,118.04080000000002L253.1811972799968,121.9768L254.5921490816998,126.50320000000002L256.0031008834028,130.5376L257.44067441721336,135.26080000000002L258.9048696831316,140.3776L260.7683909306638,147.4624L262.1882166430694,151.3984L263.5991684447724,156.4168L264.97462460366523,161.2384L266.3500807625581,166.2568L267.7521586535585,171.6688L269.1631104552615,177.08079999999998L270.6273057211797,183.5752L271.9850140586675,189.67600000000002L273.37821803896543,196.6624L274.7536741978583,203.55040000000002L276.12913035675115,210.93040000000002L277.4779647835364,218.31040000000002L278.8711687638343,226.084L280.21112927991703,233.5624L282.5893373481963,246.84640000000002L284.01803697130435,255.30880000000002L285.4467365944124,263.2792L286.88431012822304,270.4624L288.295261929926,276.3664L289.7239615530341,280.8928L291.2857698366802,283.4512L293.4953736016113,283.156L295.5984904381119,276.0712L297.08043352543524,266.7232L298.9084591301573,257.1784L300.46139350310085,247.24L301.87234530480384,238.5808L303.28329710650684,229.82319999999999L304.71199672961495,220.86880000000002L306.12294853131795,211.9144L307.4540351366981,203.74720000000002L308.82949129559097,195.48160000000001L310.2226952758889,187.6096L311.7667557381299,179.4424L313.52379005723174,171.0784L315.06785051947276,163.5016L316.54091969609345,157.1056L317.8720063014737,151.792L319.33620156739187,146.67520000000002L320.6850359941771,141.952L322.0871138851776,137.4256L323.41820049055775,133.48960000000002L324.8469001136658,129.8488L326.32884320098907,126.10960000000003L327.7131732705845,122.9608L329.09750334017986,120.4024L330.4640855883702,118.13919999999999L331.839541747263,116.368L333.4723413165294,115.28559999999999L335.06964524298564,113.61280000000002L337.3147446507269,113.80960000000002L338.7168225417273,112.03840000000002L340.13664825413287,112.23520000000002L341.4854826809181,112.62880000000001L342.8431910184059,113.61280000000002L344.289638462919,114.5968L345.69171635391945,116.07280000000003L347.12928988773007,117.84400000000002L348.89519811753445,119.91039999999998L350.7764671864718,124.24000000000001L352.4358884878457,127.19200000000001L353.917831575169,130.0456L355.24004426984663,132.8008L356.67761780365726,136.4416L358.0530739625501,139.78719999999998L359.4374040321455,143.52640000000002L360.75961672682314,147.16719999999998L362.11732506431093,150.808L363.5548985981215,155.8264L364.87711129279916,159.5656L366.2614413623946,163.69840000000002L368.19595389554706,171.6688L369.6246535186551,175.408L371.01785749895305,180.4264L372.3844397471434,186.1336L373.78651763814383,192.3328L375.17084770773926,198.532L376.5551777773346,205.22320000000002L377.9128861148224,212.2096L379.25284663090514,219.0976L380.61942887909544,226.37920000000003L381.9860111272858,233.464L383.4413324825015,241.43439999999998L384.8877799270146,248.8144L386.28098390731253,255.80079999999998L387.6919357090155,262.1968L390.0257742237821,270.9544L391.65857379304845,274.5952L393.0074082198337,275.1856L394.40948611083417,273.9064L395.84705964464473,270.364L397.2225158035376,265.2472L398.606845873133,259.14639999999997L400.0444194069436,251.9632L401.41100165513393,244.4848L402.8308273675394,236.51440000000002L404.27727481205255,228.4456L406.442509023471,218.99920000000003L408.501256306459,207.2896L410.1784254292381,196.4656L411.6248728737512,187.6096L413.05357249685926,180.4264L414.39353301294193,173.8336L415.7689891718348,167.9296L417.28642790196824,162.12400000000002L418.75949707858894,156.9088L420.6230183261212,152.28400000000002L422.495413484356,145.9864L423.8974913753565,140.5744L425.27294753424934,136.83520000000001L426.6306558717371,133.48960000000002L428.04160767344007,130.144L429.39931601092786,127.19200000000001L430.81026781263085,124.6336L432.1857239715237,122.46880000000002L433.534558398309,120.69760000000002L434.9011406464993,119.2216L436.3653359124175,118.13919999999999L437.78516162482305,117.352L439.2138612479311,116.86000000000001L440.59819131752647,116.66320000000002L441.9913952978244,116.95840000000001L443.77505134903384,119.2216L445.1593814186292,118.6312L446.55258539892714,120.00880000000001L447.9191676471175,121.38640000000001L449.3656150916306,123.256L450.83868426825137,125.51919999999998L452.2407621592518,127.88080000000002L453.6339661395497,130.2424L454.98280056633496,132.8008L456.3671306359304,135.8512L457.68934333060804,138.8032L459.4552515604124,142.0504L460.95494246914075,147.5608L462.3570203601412,150.6112L463.72360260833153,154.252L465.0990587672244,158.08960000000002L466.4478931940096,162.12400000000002L467.8144754421999,166.3552L469.243175065308,170.8816L470.56538775998564,175.1128L471.931970008176,180.328L473.9463477376513,188.39679999999998L475.67676032464556,196.4656L477.1232077691587,202.96L478.5607813029693,210.0448L479.9806070153748,217.0312L481.3383153528626,224.11599999999999L482.7581410652681,231.2992L484.1158494027559,238.2856L485.49130556164874,245.37040000000002L486.89338345264923,252.3568L488.31320916505473,258.8512L489.64429577043495,264.0664L491.0996171256506,269.0848L492.4928211059485,273.0208L493.86827726484137,274.9888L495.23485951303167,275.284L496.849911260893,273.808L498.45608909805173,269.7736L499.8315452569446,264.0664L501.26911879075516,258.06399999999996L502.6357010389455,251.37279999999998L503.9667876443257,244.78L505.42210899954136,237.4L506.9484216403773,229.9216L508.3771212634854,222.2464L509.84131652940357,214.8664L511.1901509561888,208.0768L512.5656071150817,201.48399999999998L514.4025066305063,195.28480000000002L516.0353061997727,187.708L517.4462580014756,182.3944L518.8394619817735,178.16320000000002L520.2504137834766,174.5224L521.6169960316669,171.27519999999998L522.9924521905598,168.6184L524.3856561708576,166.4536L525.8321036153708,164.6824L527.3406684348016,163.2064L528.7338724150995,161.9272L530.7571240552775,161.2384L532.8069974275629,159.95919999999998L534.2623187827786,158.28640000000001L535.6821444951842,157.696L537.1463397611024,157.3024L538.5484176521028,157.1056L539.9504955431032,157.3024L541.3703212555088,157.4992L542.7990208786168,157.9912L544.2099726803199,158.8768L545.5943027499152,159.8608L546.9875067302131,161.14000000000001L548.3895846212137,162.61599999999999L549.756166869404,164.19039999999998L551.6285620276387,166.65040000000002L553.3944702574431,169.996L555.1603784872475,174.3256L556.6156998424632,177.868L558.0532733762738,182.0008L559.4287295351666,186.724L560.7243204977366,191.2504L562.0997766566295,196.4656L563.519602369035,201.976L564.912806349333,207.7816L566.3237581510359,213.784L567.7435838634415,219.688L569.7668355036193,228.74079999999998L571.1600394839172,233.95600000000002L572.5,239.2696" stroke="#3366cc" stroke-width="2" fill-opacity="1" fill="none"></path><path d="M127.5,160.0732023124624L128.9908169980258,160.17842197208802L130.46388617464655,160.28238901654L131.92808144056474,160.3857297536512L133.39227670648293,160.489070490664L134.77660677607832,160.58677446023202L136.23192813129398,160.68948888980557L137.70499730791474,160.79345593435602L139.09820128821264,160.89178621136318L140.53577482202326,160.99324802596L141.94672662372625,161.09283091794399L143.3221827826191,161.1899085800728L144.80412586994237,161.29450193206242L146.18845593953776,161.3922059016304L148.4069336151714,161.54878277599363L149.93324625600732,161.6565076654744L151.3619458791154,161.7573431725336L152.73740203800824,161.85442083456402L154.15722775041377,161.954630034184L155.56817955211676,162.0542129262664L156.95250962171215,162.1519168958344L158.37233533411768,162.252126095356L159.84540451073843,162.35609313990642L161.36284324087183,162.463191721948L162.73829939976468,162.5602693839784L164.1581251121702,162.6604785835L165.5424551817656,162.758182553068L166.9800287155762,162.8596443676648L168.43535007079186,162.96235879723838L169.77531058687458,163.0569312293152L171.6832013879195,163.1915873411416L173.10302710032505,163.2917965407616L174.62933974116098,163.3995214302424L176.08466109637664,163.502235859816L177.5044868087822,163.6024450593376L179.5632340917702,163.7477483987128L181.55099008913794,163.88804127808243L183.32577222964483,164.0133027775336L184.74559794205038,164.1135119770552L186.23641494007617,164.2187316365824L187.66511456318423,164.3195671436416L189.1204359183999,164.4222815732152L190.57575727361558,164.5249960027888L191.98670907531857,164.6245788948712L193.42428260912914,164.72604070936958L194.81748658942706,164.8243709864752L196.25506012323768,164.9258328009736L197.66601192494068,165.02541569305603L199.10358545875127,165.1268775075544L200.86949368855562,165.2515126995664L203.13234091770195,165.4112211113224L205.1200969150697,165.55151399069203L206.67303128801325,165.6611178026872L208.09285700041875,165.76132700230718L209.5393044449319,165.8634151243432L211.0034997108501,165.966755861356L212.37895586974295,166.06383352348482L213.75441202863578,166.1609111855152L215.10324645542107,166.2561099251296L216.48757652501644,166.3538138946976L217.85415877320676,166.4502652491904L219.25623666420722,166.5492218338336L220.65831455520768,166.6481784183784L222.0781402676132,166.7483876179L223.51571380142383,166.8498494324968L224.91779169242426,166.9488060170416L227.2605041178934,167.1141511962424L229.24826011526113,167.2544440757104L230.68583364907172,167.35590589020882L232.15002891498992,167.4592466272216L233.51661116318024,167.55569798181278L234.9719325183959,167.6584124113864L236.74671465890282,167.7836739108376L238.7699662990807,167.9264720201608L240.27853111851158,168.03294429466482L241.79596984864497,168.1400428767064L243.2157955610505,168.2402520763264L244.68886473767122,168.3442191208768L246.12643827148185,168.4456809353752L247.5018944303747,168.5427585974056L248.93059405348276,168.6435941044648L250.3237980337807,168.7419243815704L251.73474983548368,168.8415072736528L253.1811972799968,168.94359539568882L254.5921490816998,169.0431782877712L256.0031008834028,169.1427611797552L257.44067441721336,169.244222994352L258.9048696831316,169.3475637313648L260.7683909306638,169.4790883057984L262.1882166430694,169.57929750532L263.5991684447724,169.6788803974024L264.97462460366523,169.7759580594328L266.3500807625581,169.8730357215616L267.7521586535585,169.9719923061064L269.1631104552615,170.0715751981888L270.6273057211797,170.1749159352016L271.9850140586675,170.2707409822552L273.37821803896543,170.3690712593608L274.7536741978583,170.4661489213912L276.12913035675115,170.56322658352L277.4779647835364,170.658425323036L278.8711687638343,170.75675560014162L280.21112927991703,170.8513280322184L282.5893373481963,171.0191784414712L284.01803697130435,171.1200139485304L285.4467365944124,171.22084945558962L286.88431012822304,171.322311270088L288.295261929926,171.4218941621704L289.7239615530341,171.52272966922962L291.2857698366802,171.6329597887624L293.4953736016113,171.788910355588L295.5984904381119,171.937345232356L297.08043352543524,172.041938584444L298.9084591301573,172.1709579288256L300.46139350310085,172.2805617409192L301.87234530480384,172.3801446329032L303.28329710650684,172.4797275249856L304.71199672961495,172.5805630320448L306.12294853131795,172.6801459241272L307.4540351366981,172.7740920486664L308.82949129559097,172.87116971079521L310.2226952758889,172.9694999878024L311.7667557381299,173.0784774923584L313.52379005723174,173.2024863768328L315.06785051947276,173.3114638812904L316.54091969609345,173.4154309258408L317.8720063014737,173.50937705038L319.33620156739187,173.6127177874912L320.6850359941771,173.7079165270072L322.0871138851776,173.80687311165042L323.41820049055775,173.90081923618962L324.8469001136658,174.0016547432488L326.32884320098907,174.1062480952384L327.7131732705845,174.2039520648064L329.09750334017986,174.3016560343744L330.4640855883702,174.3981073889656L331.839541747263,174.4951850510944L333.4723413165294,174.61042563053442L335.06964524298564,174.7231609800208L337.3147446507269,174.8816167768L338.7168225417273,174.9805733614432L340.13664825413287,175.0807825609648L341.4854826809181,175.1759813005792L342.8431910184059,175.2718063476328L344.289638462919,175.3738944696688L345.69171635391945,175.4728510542136L347.12928988773007,175.5743128688104L348.89519811753445,175.698948060724L350.7764671864718,175.8317252501344L352.4358884878457,175.9488447520888L353.917831575169,176.0534381041768L355.24004426984663,176.14675792117842L356.67761780365726,176.2482197357752L358.0530739625501,176.3452973978056L359.4374040321455,176.4430013673736L360.75961672682314,176.5363211844736L362.11732506431093,176.6321462315272L363.5548985981215,176.733608046124L364.87711129279916,176.826927863224L366.2614413623946,176.924631832792L368.19595389554706,177.0611668671328L369.6246535186551,177.16200237419199L371.01785749895305,177.2603326512976L372.3844397471434,177.35678400588878L373.78651763814383,177.4557405904336L375.17084770773926,177.5534445600016L376.5551777773346,177.6511485295696L377.9128861148224,177.7469735766232L379.25284663090514,177.84154600870002L380.61942887909544,177.9379973632912L381.9860111272858,178.0344487178824L383.4413324825015,178.1371631473576L384.8877799270146,178.239251269492L386.28098390731253,178.3375815464992L387.6919357090155,178.4371644385816L390.0257742237821,178.6018833103432L391.65857379304845,178.7171238897832L393.0074082198337,178.8123226293976L394.40948611083417,178.9112792139424L395.84705964464473,179.0127410285392L397.2225158035376,179.1098186905696L398.606845873133,179.20752266013758L400.0444194069436,179.30898447473442L401.41100165513393,179.4054358292272L402.8308273675394,179.5056450288472L404.27727481205255,179.6077331508832L406.442509023471,179.7605521802176L408.501256306459,179.90585551959282L410.1784254292381,180.02422763652402L411.6248728737512,180.12631575856L413.05357249685926,180.2271512656192L414.39353301294193,180.321723697696L415.7689891718348,180.4188013598248L417.28642790196824,180.525899941768L418.75949707858894,180.6298669863184L420.6230183261212,180.761391560752L422.495413484356,180.8935424427232L423.8974913753565,180.992499027268L425.27294753424934,181.0895766892984L426.6306558717371,181.185401736352L428.04160767344007,181.2849846284344L429.39931601092786,181.380809675488L430.81026781263085,181.4803925675704L432.1857239715237,181.5774702296008L433.534558398309,181.6726689692152L434.9011406464993,181.7691203238064L436.3653359124175,181.8724610608192L437.78516162482305,181.9726702604392L439.2138612479311,182.0735057674L440.59819131752647,182.171209736968L441.9913952978244,182.2695400140736L443.77505134903384,182.3954278210624L445.1593814186292,182.4931317906304L446.55258539892714,182.5914620676376L447.9191676471175,182.6879134222288L449.3656150916306,182.79000154426478L450.83868426825137,182.8939685888152L452.2407621592518,182.99292517336L453.6339661395497,183.09125545046558L454.98280056633496,183.18645418998162L456.3671306359304,183.2841581595496L457.68934333060804,183.3774779766496L459.4552515604124,183.5021131685632L460.95494246914075,183.607959135628L462.3570203601412,183.70691572017282L463.72360260833153,183.803367074764L465.0990587672244,183.90044473679438L466.4478931940096,183.99564347640882L467.8144754421999,184.092094831L469.243175065308,184.1929303380592L470.56538775998564,184.2862501551592L471.931970008176,184.3827015097504L473.9463477376513,184.524873311536L475.67676032464556,184.64700327349598L477.1232077691587,184.749091395532L478.5607813029693,184.85055321012882L479.9806070153748,184.9507624096504L481.3383153528626,185.0465874568024L482.7581410652681,185.146796656324L484.1158494027559,185.2426217033776L485.49130556164874,185.3396993655064L486.89338345264923,185.4386559500512L488.31320916505473,185.53886514957279L489.64429577043495,185.632811274112L491.0996171256506,185.7355257036856L492.4928211059485,185.83385598079118L493.86827726484137,185.9309336428216L495.23485951303167,186.0273849974128L496.849911260893,186.14137296187602L498.45608909805173,186.2547346189L499.8315452569446,186.3518122809304L501.26911879075516,186.4532740955272L502.6357010389455,186.5497254501184L503.9667876443257,186.6436715746576L505.42210899954136,186.7463860042312L506.9484216403773,186.854110893712L508.3771212634854,186.9549464007712L509.84131652940357,187.05828713788242L511.1901509561888,187.1534858773984L512.5656071150817,187.2505635395272L514.4025066305063,187.3802091914464L516.0353061997727,187.4954497708864L517.4462580014756,187.5950326629688L518.8394619817735,187.693362939976L520.2504137834766,187.7929458320584L521.6169960316669,187.8893971866496L522.9924521905598,187.98647484868L524.3856561708576,188.0848051257856L525.8321036153708,188.18689324782162L527.3406684348016,188.29336552232562L528.7338724150995,188.3916957994312L530.7571240552775,188.5344939087544L532.8069974275629,188.6791709406904L534.2623187827786,188.7818853701656L535.6821444951842,188.8820945697856L537.1463397611024,188.9854353067984L538.5484176521028,189.0843918913432L539.9504955431032,189.183348475888L541.3703212555088,189.283557675508L542.7990208786168,189.3843931825672L544.2099726803199,189.4839760745512L545.5943027499152,189.5816800441192L546.9875067302131,189.6800103212248L548.3895846212137,189.7789669057696L549.756166869404,189.87541826036082L551.6285620276387,190.0075691422336L553.3944702574431,190.13220433424559L555.1603784872475,190.2568395261592L556.6156998424632,190.3595539557328L558.0532733762738,190.4610157702312L559.4287295351666,190.55809343236L560.7243204977366,190.6495343269456L562.0997766566295,190.746611988976L563.519602369035,190.84682118849761L564.912806349333,190.9451514656032L566.3237581510359,191.0447343576856L567.7435838634415,191.1449435572072L569.7668355036193,191.2877416666288L571.1600394839172,191.386071943636L572.5,191.4806443757128" stroke="#3366cc" stroke-width="2" stroke-opacity="0.5" fill-opacity="1" fill="none"></path></g></g><g></g><g><g><text text-anchor="middle" x="215.5736" y="343.05" font-family="Arial" font-size="13" stroke="none" stroke-width="0" fill="#444444">10,000</text></g><g><text text-anchor="middle" x="304.3127" y="343.05" font-family="Arial" font-size="13" stroke="none" stroke-width="0" fill="#444444">20,000</text></g><g><text text-anchor="middle" x="393.0518" y="343.05" font-family="Arial" font-size="13" stroke="none" stroke-width="0" fill="#444444">30,000</text></g><g><text text-anchor="middle" x="481.7909" y="343.05" font-family="Arial" font-size="13" stroke="none" stroke-width="0" fill="#444444">40,000</text></g><g><text text-anchor="middle" x="570.53" y="343.05" font-family="Arial" font-size="13" stroke="none" stroke-width="0" fill="#444444">50,000</text></g><g><text text-anchor="end" x="114" y="328.05" font-family="Arial" font-size="13" stroke="none" stroke-width="0" fill="#444444">0</text></g><g><text text-anchor="end" x="114" y="278.85" font-family="Arial" font-size="13" stroke="none" stroke-width="0" fill="#444444">5</text></g><g><text text-anchor="end" x="114" y="229.65" font-family="Arial" font-size="13" stroke="none" stroke-width="0" fill="#444444">10</text></g><g><text text-anchor="end" x="114" y="180.45000000000002" font-family="Arial" font-size="13" stroke="none" stroke-width="0" fill="#444444">15</text></g><g><text text-anchor="end" x="114" y="131.25" font-family="Arial" font-size="13" stroke="none" stroke-width="0" fill="#444444">20</text></g><g><text text-anchor="end" x="114" y="82.05" font-family="Arial" font-size="13" stroke="none" stroke-width="0" fill="#444444">25</text></g></g></g><g><g><text text-anchor="middle" x="350" y="377.05" font-family="Arial" font-size="13" font-style="italic" stroke="none" stroke-width="0" fill="#222222">Time (ms)</text><rect x="127" y="366" width="446" height="13" stroke="none" stroke-width="0" fill-opacity="0" fill="#ffffff"></rect></g></g><g></g></svg>
