<svg xmlns="http://www.w3.org/2000/svg" width="700" height="400" aria-label="A chart." style="overflow: hidden;"><defs id="_ABSTRACT_RENDERER_ID_6"><clipPath id="_ABSTRACT_RENDERER_ID_7"><rect x="127" y="77" width="446" height="247"></rect></clipPath></defs><rect x="0" y="0" width="700" height="400" stroke="none" stroke-width="0" fill="#ffffff"></rect><g><text text-anchor="start" x="127" y="54.05" font-family="Arial" font-size="13" font-weight="bold" stroke="none" stroke-width="0" fill="#000000">Distance Between Agents Model 04</text><rect x="127" y="43" width="446" height="13" stroke="none" stroke-width="0" fill-opacity="0" fill="#ffffff"></rect></g><g><rect x="127" y="77" width="446" height="247" stroke="none" stroke-width="0" fill-opacity="0" fill="#ffffff"></rect><g clip-path="url(http://localhost:63342/hc-with-streams/results/no-vpn/relative-distance.html?_ijt=1300ojbnotholknhvb8mq1hr2b#_ABSTRACT_RENDERER_ID_7)"><g><rect x="273" y="77" width="1" height="247" stroke="none" stroke-width="0" fill="#cccccc"></rect><rect x="422" y="77" width="1" height="247" stroke="none" stroke-width="0" fill="#cccccc"></rect><rect x="570" y="77" width="1" height="247" stroke="none" stroke-width="0" fill="#cccccc"></rect><rect x="125" y="77" width="1" height="247" stroke="none" stroke-width="0" fill="#ebebeb"></rect><rect x="199" y="77" width="1" height="247" stroke="none" stroke-width="0" fill="#ebebeb"></rect><rect x="348" y="77" width="1" height="247" stroke="none" stroke-width="0" fill="#ebebeb"></rect><rect x="496" y="77" width="1" height="247" stroke="none" stroke-width="0" fill="#ebebeb"></rect><rect x="644" y="77" width="1" height="247" stroke="none" stroke-width="0" fill="#ebebeb"></rect><rect x="127" y="323" width="446" height="1" stroke="none" stroke-width="0" fill="#cccccc"></rect><rect x="127" y="274" width="446" height="1" stroke="none" stroke-width="0" fill="#cccccc"></rect><rect x="127" y="225" width="446" height="1" stroke="none" stroke-width="0" fill="#cccccc"></rect><rect x="127" y="175" width="446" height="1" stroke="none" stroke-width="0" fill="#cccccc"></rect><rect x="127" y="126" width="446" height="1" stroke="none" stroke-width="0" fill="#cccccc"></rect><rect x="127" y="77" width="446" height="1" stroke="none" stroke-width="0" fill="#cccccc"></rect><rect x="127" y="298" width="446" height="1" stroke="none" stroke-width="0" fill="#ebebeb"></rect><rect x="127" y="249" width="446" height="1" stroke="none" stroke-width="0" fill="#ebebeb"></rect><rect x="127" y="200" width="446" height="1" stroke="none" stroke-width="0" fill="#ebebeb"></rect><rect x="127" y="151" width="446" height="1" stroke="none" stroke-width="0" fill="#ebebeb"></rect><rect x="127" y="102" width="446" height="1" stroke="none" stroke-width="0" fill="#ebebeb"></rect></g><g><rect x="127" y="323" width="446" height="1" stroke="none" stroke-width="0" fill="#333333"></rect></g><g><path d="M127.5,116.66320000000002L128.5684273709484,116.95840000000001L130.02267573696145,117.15520000000001L131.93694144324397,117.6472L133.30215419501135,118.23760000000001L134.34090302787783,118.04080000000002L136.07709750566895,118.33599999999998L137.84297052154196,120.5992L139.14882619714552,121.68159999999997L140.3656462585034,122.76400000000001L142.11668000533547,124.04320000000001L143.51157129518475,125.51919999999998L144.84710550887021,124.14159999999998L146.2716753368014,125.91280000000003L148.0078698145925,130.3408L149.55115379485127,132.30880000000002L151.1389555822329,134.3752L152.53384687208217,136.4416L153.75066693344004,134.4736L155.62041483259972,140.86960000000002L156.79271708683473,142.93599999999998L158.2172869147659,140.86960000000002L159.73089235694277,143.13280000000003L161.24449779911964,145.5928L163.01037081499265,153.1696L164.13815526210485,150.808L165.54788582099508,158.28640000000001L167.00213418700815,161.14000000000001L168.812525010004,158.188L170.40032679738562,166.9456L171.4093970921702,164.4856L173.30882352941177,172.7512L174.5404828598106,169.504L176.32119514472456,179.63920000000002L177.4638188608777,176.884L179.0219421101774,180.9184L180.47619047619048,184.4608L182.36077764439108,194.8912L183.82986527944513,199.2208L185.1653994931306,203.452L186.36738028544752,201.18880000000001L188.13325330132054,212.40640000000002L189.2016806722689,210.34L191.04175003334666,221.656L192.3327664399093,219.2944L193.9354074963319,231.6928L195.2264239028945,229.528L197.12585034013605,242.41840000000002L198.16459917300256,240.6472L199.8562758436708,252.16L201.50343470721623,257.7688L202.76477257569695,255.60399999999998L204.56032412965186,267.412L205.6732693077231,272.03679999999997L207.51333866880086,276.1696L208.61144457783115,273.9064L211.6238161931439,280.4992L212.94451113778845,282.7624L215.12588368680807,286.3048L216.47625716953448,285.0256L217.82663065226092,283.0576L219.3105575563559,280.1056L220.51253834867282,277.6456L222.4861611311191,272.6272L223.83653461384554,268.1008L224.97915832999865,265.8376L226.49276377217552,261.2128L228.25863678804856,254.02960000000002L229.6980458850207,249.1096L231.33036547952514,244.288L232.8142923836201,239.46640000000002L233.86788048552756,237.4984L235.70794984660532,230.9056L236.8357342937175,226.8712L238.63128584767242,223.03359999999998L239.80358810190745,219.5896L241.27267573696145,218.0152L242.8159597172202,214.768L244.58183273309322,210.4384L246.1547952514339,207.9784L247.63872215552888,205.8136L248.70714952647728,204.5344L250.36914765906363,202.2712L251.5266106442577,201.0904L253.15893023876217,199.4176L254.92480325463518,198.3352L256.3642123516073,197.4496L257.98169267707084,196.85920000000002L258.94624516473255,195.8752L260.72695744964653,196.2688L262.04765239429105,195.088L263.7244897959184,196.564L264.9413098572762,195.48160000000001L266.5142723756169,195.77679999999998L268.1762705082033,198.23680000000002L269.66019741229826,198.9256L270.84733893557427,197.9416L272.687408296652,201.28719999999998L273.83003201280513,200.1064L275.4029945311458,201.68079999999998L276.7533680138722,203.0584L278.31149126317194,204.3376L279.8547752434307,205.912L281.32386287848476,207.88L283.23812858476725,212.70159999999998L284.66269841269843,214.3744L285.65692943844203,212.9968L287.1260170734961,214.8664L289.02544351073766,219.5896L290.5984060290783,221.656L292.1268507402961,223.5256L293.5365812991863,225.1984L294.7534013605442,223.3288L296.5341136454582,228.4456L297.7064158996932,226.57600000000002L299.53164599173,231.3976L300.6297519007603,229.4296L302.18787515006,234.0544L303.9092303588102,235.0384L305.0815326130452,232.8736L306.5654595171402,233.5624L308.03454715219425,234.3496L309.59267040149393,234.8416L311.46241830065355,238.18720000000002L312.81279178338,238.2856L313.98509403761506,235.8256L315.5432172869148,235.6288L316.9826263838869,235.72719999999998L318.718820861678,237.5968L319.9653194611178,234.8416L321.44924636521273,234.44799999999998L322.9034947312258,233.8576L324.37258236627986,233.1688L326.21265172735764,234.3496L327.3404361744698,231.7912L329.1953448045885,232.5784L330.36764705882354,229.9216L332.17803788181936,230.80720000000002L333.29098305989066,228.3472L334.7452314259037,229.1344L336.52594371081767,228.24880000000002L337.7576030412165,225.7888L339.1970121381886,225.1L340.9777244231026,226.084L342.1797052154195,223.7224L343.94557823129253,224.90320000000003L345.4295051353875,224.4112L347.06182472989195,223.9192L348.1302521008403,221.656L349.6141790049353,221.36079999999998L351.06842737094837,221.06560000000002L352.56719354408426,220.86880000000002L354.40726290516204,222.7384L355.5795651593971,220.4752L357.0486527944511,220.5736L358.48806189142323,220.4752L360.3874883286648,222.83679999999998L361.2926837401627,220.9672L363.0288782179539,223.03359999999998L364.43860877684403,220.7704L366.3231959450447,223.7224L367.6884086968121,224.01760000000002L369.2168534080299,224.31279999999998L370.3743163932239,222.2464L372.1105108710151,224.90320000000003L373.35700947045484,223.03359999999998L374.7073829531813,223.624L376.25066693344,223.7224L378.046218487395,226.77280000000002L379.4559490462852,227.1664L380.96955448846205,227.6584L382.54251700680277,228.1504L383.5664265706282,228.54399999999998L385.5252100840336,228.9376L386.6826730692277,226.6744L388.1665999733226,227.4616L389.6653661464586,227.6584L391.01573962918496,228.4456L392.85580899026274,231.00400000000002L394.11714685874347,228.6424L395.5268774176337,231.496L397.11467920501536,231.7912L398.5392490329465,229.4296L400.0973722822463,229.82319999999999L401.8038882219555,232.3816L403.2284580498866,232.48000000000002L404.81625983726826,232.5784L405.7956515939709,230.61040000000003L407.2944177671069,230.512L409.1196478591437,232.77519999999998L410.4551820728291,230.21679999999998L411.7610377484327,230.7088L413.30432172869143,230.41359999999997L415.1443910897692,232.48000000000002L416.4799253034547,232.1848L418.0825663598773,232.1848L419.2697078831533,229.9216L420.8723489395758,231.8896L422.2524009603842,229.72480000000002L423.70664932639727,229.528L425.4725223422703,231.2008L426.60030678938244,229.2328L428.47005468854206,230.9056L429.5978391356542,228.8392L431.36371215152724,230.7088L432.63988928904894,228.6424L434.40576230492195,230.512L435.5038682139523,228.54399999999998L437.38845538215287,230.41359999999997L438.4717220221422,228.4456L440.38598772842465,230.3152L441.43957583033216,228.4456L443.1164132319594,228.24880000000002L444.4667867146859,228.4456L446.1733026543951,230.512L447.8501400560224,230.512L449.20051353874885,230.512L450.35797652394285,228.3472L452.40579565159396,230.61040000000003L454.8245965052688,228.4456L456.51627317593704,230.7088L458.0298786181139,230.61040000000003L459.57316259837273,230.80720000000002L461.2054821928772,231.1024L462.2442310257436,229.1344L463.9655862344938,228.9376L465.5682272909164,231.3976L467.1708683473389,231.496L468.43220621581963,231.5944L469.63418700813656,229.4296L471.57813125250095,231.988L472.6020408163265,230.01999999999998L474.29371748699475,229.6264L475.5847338935574,230.3152L477.40996398559423,232.48000000000002L478.7603374683207,230.01999999999998L480.0810324129652,230.80720000000002L481.87658396692007,232.8736L483.49406429238365,232.972L484.81475923702817,233.0704L485.9722222222222,230.9056L487.58970254768576,230.7088L488.9400760304121,231.2008L490.4981992797119,231.2992L492.23439375750297,233.2672L493.3324996665333,231.2992L495.2170868347339,233.3656L496.641656662665,233.0704L497.9920301453915,231.1024L499.7133853541417,233.3656L501.21215152727757,233.2672L502.44381085767645,231.1024L504.3135587568361,233.5624L505.44134320394824,231.3976L506.92527010804326,231.3976L508.3943577430972,231.496L510.14539148992935,233.6608L511.19897959183675,231.5944L512.8609777244232,231.2008L514.3449046285181,231.496L515.7843137254902,231.6928L517.1792050153394,231.6928L518.9005602240896,233.8576L520.265772975857,231.3976L521.8387354941976,233.95600000000002L523.1594304388422,231.6928L524.9104641856743,234.1528L526.2905162064826,234.1528L527.937675070028,234.25119999999998L529.3325663598773,234.3496L530.6235827664399,231.8896L532.359777244231,234.44799999999998L533.7843470721622,234.44799999999998L535.0605242096839,232.1848L536.5296118447379,232.3816L538.1619314392424,234.6448L539.8387688408696,234.6448L541.0852674403094,234.6448L542.405962384954,232.3816L544.3499066293184,234.7432L545.4480125383486,232.8736L547.1693677470988,234.7432L548.3416700013339,232.48000000000002L549.9146325196746,232.3816L551.6211484593838,234.6448L553.1495931706015,234.5464L554.2476990796318,232.5784L556.1916433239962,234.7432L557.3491063091903,232.5784L558.8478724823262,232.48000000000002L560.673102574363,234.7432L561.8305655595572,232.48000000000002L563.2996531946112,232.48000000000002L564.7539015606243,232.48000000000002L566.5346138455382,234.44799999999998L567.7514339068961,232.3816L569.2205215419501,232.28320000000002L571.1199479791917,234.44799999999998L572.5,234.3496" stroke="#3366cc" stroke-width="2" fill-opacity="1" fill="none"></path><path d="M127.5,188.4950917012552L128.5684273709484,188.639611135456L130.02267573696145,188.836318143028L131.93694144324397,189.095248796008L133.30215419501135,189.2799125174704L134.34090302787783,189.4204175228368L136.07709750566895,189.65526160340082L137.84297052154196,189.8941201127008L139.14882619714552,190.0707549766912L140.3656462585034,190.235346554572L142.11668000533547,190.4721978494056L143.51157129518475,190.660875999604L144.84710550887021,190.8415252923304L146.2716753368014,191.0342178712648L148.0078698145925,191.2690619518288L149.55115379485127,191.4778122456088L151.1389555822329,191.6925841825912L152.53384687208217,191.8812623327896L153.75066693344004,192.045853910572L155.62041483259972,192.29876292034962L156.79271708683473,192.45733285512642L158.2172869147659,192.6500254340608L159.73089235694277,192.8547612991048L161.24449779911964,193.0594971642472L163.01037081499265,193.2983556735472L164.13815526210485,193.4509039651216L165.54788582099508,193.641589329688L167.00213418700815,193.8382963373584L168.812525010004,194.083176489664L170.40032679738562,194.2979484266464L171.4093970921702,194.4344390033752L173.30882352941177,194.6913624418888L174.5404828598106,194.8579612340392L176.32119514472456,195.09882695770722L177.4638188608777,195.25338246374798L179.0219421101774,195.464139971896L180.47619047619048,195.6608469795664L182.36077764439108,195.915763203712L183.82986527944513,196.1144774257504L185.1653994931306,196.2951267184768L186.36738028544752,196.4577110818912L188.13325330132054,196.69656959119118L189.2016806722689,196.84108902539202L191.04175003334666,197.089983606532L192.3327664399093,197.2646112561544L193.9354074963319,197.48139040740642L195.2264239028945,197.6560180570288L197.12585034013605,197.91294149564078L198.16459917300256,198.05344650100722L199.8562758436708,198.2822689384672L201.50343470721623,198.50506973292158L202.76477257569695,198.675682953808L204.56032412965186,198.918555891844L205.6732693077231,199.0690969690504L207.51333866880086,199.3179915501904L208.61144457783115,199.46652541312721L211.6238161931439,199.8739899289456L212.94451113778845,200.052632007304L215.12588368680807,200.3476925187112L216.47625716953448,200.5303490258056L217.82663065226092,200.7130055329L219.3105575563559,200.91372696930642L220.51253834867282,201.0763113327208L222.4861611311191,201.34327084307438L223.83653461384554,201.52592735016879L224.97915832999865,201.6804828562096L226.49276377217552,201.885218721352L228.25863678804856,202.1240772305536L229.6980458850207,202.318777023856L231.33036547952514,202.539570603844L232.8142923836201,202.7402920402504L233.86788048552756,202.8828042600832L235.70794984660532,203.1316988411248L236.8357342937175,203.2842471327976L238.63128584767242,203.5271200708336L239.80358810190745,203.68569000551201L241.27267573696145,203.88440422755042L242.8159597172202,204.0931545213304L244.58183273309322,204.33201303063038L246.1547952514339,204.54477775314638L247.63872215552888,204.7454991895528L248.70714952647728,204.89001862375358L250.36914765906363,205.11482663247762L251.5266106442577,205.271389352788L253.15893023876217,205.4921829328744L254.92480325463518,205.731041442076L256.3642123516073,205.92574123537838L257.98169267707084,206.1445276009984L258.94624516473255,206.2749965346232L260.72695744964653,206.51586225829118L262.04765239429105,206.6945043366496L263.7244897959184,206.9213195597416L264.9413098572762,207.08591113762242L266.5142723756169,207.29867586013842L268.1762705082033,207.5234838688624L269.66019741229826,207.7242053052688L270.84733893557427,207.8847824543152L272.687408296652,208.1336770354552L273.83003201280513,208.28823254139758L275.4029945311458,208.500997264012L276.7533680138722,208.6836537711064L278.31149126317194,208.8944112792544L279.8547752434307,209.1031615730344L281.32386287848476,209.30187579507282L283.23812858476725,209.5608064479544L284.66269841269843,209.7534990268888L285.65692943844203,209.8879823892496L287.1260170734961,210.086696611288L289.02544351073766,210.3436200498016L290.5984060290783,210.556384772416L292.1268507402961,210.76312785182802L293.5365812991863,210.9538132163944L294.7534013605442,211.1184047941768L296.5341136454582,211.35927051784478L297.7064158996932,211.5178404526216L299.53164599173,211.76472781929522L300.6297519007603,211.913261682232L302.18787515006,212.12401919038L303.9092303588102,212.35685605657602L305.0815326130452,212.5154259913528L306.5654595171402,212.71614742766081L308.03454715219425,212.91486164969922L309.59267040149393,213.1256191578472L311.46241830065355,213.37852816772318L312.81279178338,213.56118467481758L313.98509403761506,213.71975460949602L315.5432172869148,213.9305121177424L316.9826263838869,214.1252119110448L318.718820861678,214.36005599151042L319.9653194611178,214.5286619981272L321.44924636521273,214.7293834344352L322.9034947312258,214.9260904421056L324.37258236627986,215.124804664144L326.21265172735764,215.3736992451856L327.3404361744698,215.5262475368584L329.1953448045885,215.77714933226798L330.36764705882354,215.93571926704482L332.17803788181936,216.1805994194488L333.29098305989066,216.33114049665522L334.7452314259037,216.5278475043256L336.52594371081767,216.7687132279936L337.7576030412165,216.935312020144L339.1970121381886,217.1300118134464L340.9777244231026,217.37087753701599L342.1797052154195,217.53346190052878L343.94557823129253,217.7723204098288L345.4295051353875,217.97304184613682L347.06182472989195,218.1938354261248L348.1302521008403,218.3383548603256L349.6141790049353,218.539076296732L351.06842737094837,218.7357833044024L352.56719354408426,218.9385119550784L354.40726290516204,219.1874065362184L355.5795651593971,219.3459764708968L357.0486527944511,219.5446906929352L358.48806189142323,219.7393904862376L360.3874883286648,219.9963139247512L361.2926837401627,220.118754000904L363.0288782179539,220.353598081468L364.43860877684403,220.5442834460344L366.3231959450447,220.79919967018L367.6884086968121,220.98386339164242L369.2168534080299,221.19060647115282L370.3743163932239,221.3471691914632L372.1105108710151,221.5820132720272L373.35700947045484,221.75061927864402L374.7073829531813,221.9332757857384L376.25066693344,222.14202607951842L378.046218487395,222.3848990175544L379.4559490462852,222.57558438202238L380.96955448846205,222.7803202471648L382.54251700680277,222.9930849696808L383.5664265706282,223.1315827607776L385.5252100840336,223.39653505686158L386.6826730692277,223.553097777172L388.1665999733226,223.75381921357842L389.6653661464586,223.9565478642544L391.01573962918496,224.1392043713488L392.85580899026274,224.3880989524888L394.11714685874347,224.5587121733752L395.5268774176337,224.7493975379416L397.11467920501536,224.9641694748256L398.5392490329465,225.15686205376L400.0973722822463,225.36761956194738L401.8038882219555,225.59844921376552L403.2284580498866,225.79114179268026L404.81625983726826,226.00591372959377L405.7956515939709,226.1383898775964L407.2944177671069,226.3411185283216L409.1196478591437,226.58800589505424L410.4551820728291,226.7686551877905L411.7610377484327,226.94529005179072L413.30432172869143,227.1540403456101L415.1443910897692,227.4029349267107L416.4799253034547,227.5835842194371L418.0825663598773,227.80036337071863L419.2697078831533,227.96094051981424L420.8723489395758,228.17771967108592L422.2524009603842,228.36439060690648L423.70664932639727,228.56109761454735L425.4725223422703,228.79995612382768L426.60030678938244,228.95250441547097L428.47005468854206,229.20541342528793L429.5978391356542,229.3579617169312L431.36371215152724,229.59682022620166L432.63988928904894,229.7694406614856L434.40576230492195,230.00829917075606L435.5038682139523,230.1568330336732L437.38845538215287,230.41174925785816L438.4717220221422,230.5582759064073L440.38598772842465,230.8172065593184L441.43957583033216,230.95971877914138L443.1164132319594,231.18653400223337L444.4667867146859,231.36919050932778L446.1733026543951,231.60002016115578L447.8501400560224,231.82683538424777L449.20051353874885,232.00949189134215L450.35797652394285,232.16605461171162L452.40579565159396,232.44305019389537L454.8245965052688,232.77022613518074L456.51627317593704,232.9990485726309L458.0298786181139,233.20378443773393L459.57316259837273,233.41253473155328L461.2054821928772,233.63332831156094L462.2442310257436,233.77383331701594L463.9655862344938,234.00667018320206L465.5682272909164,234.22344933447374L467.1708683473389,234.44022848575526L468.43220621581963,234.61084170667118L469.63418700813656,234.77342607012497L471.57813125250095,235.03637115176224L472.6020408163265,235.17486894285906L474.29371748699475,235.40369138031906L475.5847338935574,235.5783190299611L477.40996398559423,235.82520639669377L478.7603374683207,236.00786290378818L480.0810324129652,236.1865049821564L481.87658396692007,236.42937792015303L483.49406429238365,236.64816428579272L484.81475923702817,236.82680636416097L485.9722222222222,236.9833690845304L487.58970254768576,237.2021554501701L488.9400760304121,237.38481195726447L490.4981992797119,237.59556946545183L492.23439375750297,237.830413546006L493.3324996665333,237.97894740891326L495.2170868347339,238.23386363309822L496.641656662665,238.42655621201294L497.9920301453915,238.60921271910735L499.7133853541417,238.84204958529352L501.21215152727757,239.04477823602855L502.44381085767645,239.2113770282085L504.3135587568361,239.46428603803528L505.44134320394824,239.61683432966873L506.92527010804326,239.81755576603575L508.3943577430972,240.01626998804466L510.14539148992935,240.25312128295695L511.19897959183675,240.39563350277993L512.8609777244232,240.62044151151377L514.3449046285181,240.8211629478808L515.7843137254902,241.01586274115368L517.1792050153394,241.20454089134222L518.9005602240896,241.4373777575284L520.265772975857,241.62204147898098L521.8387354941976,241.8348062015363L523.1594304388422,242.01344827990457L524.9104641856743,242.2502995748169L526.2905162064826,242.43697051063745L527.937675070028,242.6597713050033L529.3325663598773,242.84844945519183L530.6235827664399,243.02307710483393L532.359777244231,243.25792118537822L533.7843470721622,243.45061376429297L535.0605242096839,243.62323419956704L536.5296118447379,243.82194842157594L538.1619314392424,244.04274200157374L539.8387688408696,244.2695572246756L541.0852674403094,244.43816323122354L542.405962384954,244.61680530959177L544.3499066293184,244.87975039122904L545.4480125383486,245.02828425413634L547.1693677470988,245.26112112032249L548.3416700013339,245.4196910550599L549.9146325196746,245.63245577760546L551.6211484593838,245.86328542943343L553.1495931706015,246.0700285088848L554.2476990796318,246.2185623718019L556.1916433239962,246.4815074534392L557.3491063091903,246.63807017380864L558.8478724823262,246.8407988245437L560.673102574363,247.0876861912763L561.8305655595572,247.2442489116359L563.2996531946112,247.4429631336448L564.7539015606243,247.63967014128568L566.5346138455382,247.88053586492416L567.7514339068961,248.04512744274592L569.2205215419501,248.24384166474496L571.1199479791917,248.5007651032979L572.5,248.6874360391185" stroke="#3366cc" stroke-width="2" stroke-opacity="0.5" fill-opacity="1" fill="none"></path></g></g><g></g><g><g><text text-anchor="middle" x="273.8597" y="343.05" font-family="Arial" font-size="13" stroke="none" stroke-width="0" fill="#444444">10,000</text></g><g><text text-anchor="middle" x="422.2524" y="343.05" font-family="Arial" font-size="13" stroke="none" stroke-width="0" fill="#444444">20,000</text></g><g><text text-anchor="middle" x="570.6451" y="343.05" font-family="Arial" font-size="13" stroke="none" stroke-width="0" fill="#444444">30,000</text></g><g><text text-anchor="end" x="114" y="328.05" font-family="Arial" font-size="13" stroke="none" stroke-width="0" fill="#444444">0</text></g><g><text text-anchor="end" x="114" y="278.85" font-family="Arial" font-size="13" stroke="none" stroke-width="0" fill="#444444">5</text></g><g><text text-anchor="end" x="114" y="229.65" font-family="Arial" font-size="13" stroke="none" stroke-width="0" fill="#444444">10</text></g><g><text text-anchor="end" x="114" y="180.45000000000002" font-family="Arial" font-size="13" stroke="none" stroke-width="0" fill="#444444">15</text></g><g><text text-anchor="end" x="114" y="131.25" font-family="Arial" font-size="13" stroke="none" stroke-width="0" fill="#444444">20</text></g><g><text text-anchor="end" x="114" y="82.05" font-family="Arial" font-size="13" stroke="none" stroke-width="0" fill="#444444">25</text></g></g></g><g><g><text text-anchor="middle" x="350" y="377.05" font-family="Arial" font-size="13" font-style="italic" stroke="none" stroke-width="0" fill="#222222">Time (ms)</text><rect x="127" y="366" width="446" height="13" stroke="none" stroke-width="0" fill-opacity="0" fill="#ffffff"></rect></g></g><g></g></svg>
