<svg xmlns="http://www.w3.org/2000/svg" width="700" height="400" aria-label="A chart." style="overflow: hidden;"><defs id="_ABSTRACT_RENDERER_ID_4"><clipPath id="_ABSTRACT_RENDERER_ID_5"><rect x="127" y="77" width="446" height="247"></rect></clipPath></defs><rect x="0" y="0" width="700" height="400" stroke="none" stroke-width="0" fill="#ffffff"></rect><g><text text-anchor="start" x="127" y="54.05" font-family="Arial" font-size="13" font-weight="bold" stroke="none" stroke-width="0" fill="#000000">Distance Between Agents Model 03</text><rect x="127" y="43" width="446" height="13" stroke="none" stroke-width="0" fill-opacity="0" fill="#ffffff"></rect></g><g><rect x="127" y="77" width="446" height="247" stroke="none" stroke-width="0" fill-opacity="0" fill="#ffffff"></rect><g clip-path="url(http://localhost:63342/hc-with-streams/results/no-vpn/relative-distance.html?_ijt=1300ojbnotholknhvb8mq1hr2b#_ABSTRACT_RENDERER_ID_5)"><g><rect x="270" y="77" width="1" height="247" stroke="none" stroke-width="0" fill="#cccccc"></rect><rect x="414" y="77" width="1" height="247" stroke="none" stroke-width="0" fill="#cccccc"></rect><rect x="558" y="77" width="1" height="247" stroke="none" stroke-width="0" fill="#cccccc"></rect><rect x="126" y="77" width="1" height="247" stroke="none" stroke-width="0" fill="#ebebeb"></rect><rect x="198" y="77" width="1" height="247" stroke="none" stroke-width="0" fill="#ebebeb"></rect><rect x="342" y="77" width="1" height="247" stroke="none" stroke-width="0" fill="#ebebeb"></rect><rect x="486" y="77" width="1" height="247" stroke="none" stroke-width="0" fill="#ebebeb"></rect><rect x="630" y="77" width="1" height="247" stroke="none" stroke-width="0" fill="#ebebeb"></rect><rect x="127" y="323" width="446" height="1" stroke="none" stroke-width="0" fill="#cccccc"></rect><rect x="127" y="274" width="446" height="1" stroke="none" stroke-width="0" fill="#cccccc"></rect><rect x="127" y="225" width="446" height="1" stroke="none" stroke-width="0" fill="#cccccc"></rect><rect x="127" y="175" width="446" height="1" stroke="none" stroke-width="0" fill="#cccccc"></rect><rect x="127" y="126" width="446" height="1" stroke="none" stroke-width="0" fill="#cccccc"></rect><rect x="127" y="77" width="446" height="1" stroke="none" stroke-width="0" fill="#cccccc"></rect><rect x="127" y="298" width="446" height="1" stroke="none" stroke-width="0" fill="#ebebeb"></rect><rect x="127" y="249" width="446" height="1" stroke="none" stroke-width="0" fill="#ebebeb"></rect><rect x="127" y="200" width="446" height="1" stroke="none" stroke-width="0" fill="#ebebeb"></rect><rect x="127" y="151" width="446" height="1" stroke="none" stroke-width="0" fill="#ebebeb"></rect><rect x="127" y="102" width="446" height="1" stroke="none" stroke-width="0" fill="#ebebeb"></rect></g><g><rect x="127" y="323" width="446" height="1" stroke="none" stroke-width="0" fill="#333333"></rect></g><g><path d="M127.5,119.51679999999999L129.30022007184698,119.81200000000001L130.63958380530113,120.2056L131.86373345415709,120.5992L134.7872908508366,121.87840000000003L136.5731091621088,122.9608L138.2581151493576,124.04320000000001L141.2968866306353,126.50320000000002L142.76586620926244,127.68400000000003L143.78839121007152,128.9632L145.5454060001942,131.2264L147.36002783261594,132.9976L148.55537396032233,134.2768L149.8947376937765,136.7368L151.42132431470273,138.3112L152.73188452700734,140.67280000000002L154.69052396517685,143.32960000000003L155.81386129000938,145.5928L157.15322502346353,147.4624L158.83823101071232,150.70960000000002L160.78246868830706,153.6616L161.8337972102657,155.9248L163.41799087349105,158.08960000000002L164.94457749441727,162.0256L166.38475355189487,164.8792L167.5656979190265,166.65040000000002L169.14989158225185,169.7992L170.87810285122495,172.45600000000002L174.0752936988252,181.0168L175.15542574193339,183.96880000000002L178.53983947700573,192.7264L181.10335285931583,201.18880000000001L183.16280462150877,206.7976L185.51029159519726,215.26L187.54093983624065,221.5576L188.8370982879705,226.8712L190.0180426551021,230.7088L191.76065568464998,235.6288L195.02985533512413,247.8304L198.01101977410272,257.9656L200.66094371986148,266.3296L202.0147092138904,270.7576L205.38472118838797,279.6136L206.40724618919705,281.68L208.07785041587107,284.0416L209.8492669665685,284.8288L211.14542541829832,284.2384L212.48478915175247,282.9592L214.3858215476229,280.4992L215.43715006958155,277.252L216.949334929933,273.6112L219.94490112948637,264.5584L223.2285025405353,253.83280000000002L224.22222402019483,249.0112L225.83522120456973,244.09120000000001L227.41941486779507,238.0888L229.20523317906728,232.8736L230.27096346160067,228.1504L232.43122754781706,222.0496L233.72738599954693,217.12959999999998L236.59333635392733,207.5848L239.3440726237095,199.31920000000002L242.2820317809638,191.8408L245.6808472766109,184.9528L248.28756594064532,180.1312L249.6701349558238,177.7696L251.49915854882033,175.8016L252.62249587365287,174.1288L254.19228777630343,172.7512L255.5892585520567,171.5704L257.4038803844785,170.488L258.46961066701186,169.7992L261.8540244020842,169.1104L264.503948347843,168.9136L266.18895433509175,169.7008L267.9459691252144,170.1928L268.9540923654487,170.7832L270.37986666235156,171.27519999999998L273.8650927214473,174.1288L274.9452247645555,175.2112L276.5006149066313,176.2936L278.34404026020263,178.36L281.29640117803166,182.0992L284.1335480112625,185.74L286.927489562769,189.2824L290.268698016117,194.0056L292.93302372245057,197.7448L294.48841386452636,200.6968L295.58294766820933,201.976L298.79454027638434,206.2072L302.12134696915757,210.7336L303.187077251691,212.40640000000002L304.7856726754911,213.6856L306.1394381695201,215.5552L307.49320366354897,217.228L309.1350043690734,218.5072L310.67599275057444,220.67200000000003L312.51941810414576,222.0496L315.6734036700217,224.31279999999998L316.52310754393346,224.4112L317.9488818408363,224.8048L321.52051846338065,226.57600000000002L324.50168290235933,227.06799999999998L327.1084015663937,226.1824L328.375756496974,225.9856L329.95995016019936,225.8872L331.7745719926211,225.7888L334.9573610796466,224.8048L337.5064727013819,223.03359999999998L340.905288197029,222.2464L343.59841742451215,220.3768L346.81001003268716,219.5896L349.89198679568915,218.704L352.57071426259745,217.0312L355.6958963073239,216.736L356.76162658985726,216.244L358.73466778860154,216.3424L359.7571927894106,215.65359999999998L361.7734392698793,216.0472L362.8967765947118,215.8504L364.3945596944885,215.35840000000002L367.2317065277193,215.4568L370.19846920612315,215.752L373.32365125084954,216.244L374.97985371694875,216.83440000000002L378.04742871937606,217.72L379.0843554807599,217.8184L381.0862002006537,218.60559999999998L383.83693647043594,218.99920000000003L386.76049386711543,220.0816L388.2294734457426,221.06560000000002L390.0584970387391,221.8528L390.9802097155248,221.656L392.7372245056474,222.83679999999998L394.307016408298,223.624L397.18736852325316,224.31279999999998L400.29814880740474,225.1L402.0263600763779,226.37920000000003L403.0344833166122,226.2808L407.931081912036,228.1504L410.7106217029677,228.6424L413.4613579727499,228.54399999999998L414.9591410725266,229.3312L416.5001294540276,228.8392L419.6829185410531,229.72480000000002L422.77929706462993,229.6264L423.7874203048642,229.2328L427.05661995533836,229.528L428.1223502378718,229.3312L430.0089808731674,229.6264L431.04590763455127,229.1344L433.09095763616943,229.2328L436.0001132722742,229.036L437.296271724004,228.6424L438.6356354574582,228.6424L440.13341855723485,228.1504L442.9705653904657,227.7568L446.167756238066,227.4616L447.60793229554355,227.56L449.58097349428783,227.7568L450.5602932133726,227.2648L451.9860675102754,227.2648L453.6134664552251,226.8712L455.0248389915531,227.06799999999998L456.6522379365028,226.6744L457.9771999093822,226.9696L459.59019709375707,226.4776L462.47054920871227,226.4776L465.94137350723327,227.06799999999998L466.87748794459367,226.6744L468.2888604809217,226.77280000000002L470.1898928767921,227.06799999999998L473.3006731609437,227.1664L474.30879640117803,227.1664L475.8785883038286,227.1664L477.3187643613062,227.56L479.34941260234956,227.9536L481.76890837891193,227.6584L483.1658791546652,227.8552L484.80767986018964,227.7568L487.803246059743,227.9536L489.473850286417,228.24880000000002L492.57022880999386,228.74079999999998L495.66660733357065,228.74079999999998L496.68913233437974,228.3472L498.3165312793294,228.6424L500.2319654357746,228.74079999999998L501.16807987313507,228.24880000000002L502.79547881808475,228.1504L506.06467846855884,228.54399999999998L507.0728017087932,228.4456L508.5561830479951,227.9536L511.63815981099714,227.8552L512.9199165021521,227.9536L514.7489400951488,228.1504L516.3475355189488,228.24880000000002L519.48711932425,228.24880000000002L520.9416971423024,228.1504L521.8490080585132,227.6584L523.217175313117,227.6584L524.94538658209,227.56L528.3730055988867,228.05200000000002L530.6052784879769,227.4616L532.3622932780996,227.8552L533.9320851807502,227.2648L536.8412408168549,227.1664L538.2094080714586,227.1664L539.5487718049128,226.9696L541.6658306094048,227.2648L544.1861387099906,226.37920000000003L545.8567429366647,226.1824L547.1384996278197,226.1824L549.1115408265639,226.084L550.0908605456486,225.2968L553.1872390692256,224.50959999999998L554.569808084404,224.50959999999998L556.5572510437231,224.2144L559.0775591443089,223.2304L560.4025211171883,223.03359999999998L562.0731253438623,222.83679999999998L563.5709084436389,222.148L564.9966827405417,222.148L566.4656623191689,221.4592L567.8626330949221,221.2624L569.5476390821709,220.7704L570.829395773326,220.5736L572.5,220.2784" stroke="#3366cc" stroke-width="2" fill-opacity="1" fill="none"></path><path d="M127.5,182.6382753583192L129.30022007184698,182.8709608093504L130.63958380530113,183.0440787850168L131.86373345415709,183.2023048916944L134.7872908508366,183.580186064284L136.5731091621088,183.8110100318392L138.2581151493576,184.02880361407838L141.2968866306353,184.42157665546L142.76586620926244,184.6114479835912L143.78839121007152,184.7436133198336L145.5454060001942,184.97071432004321L147.36002783261594,185.2052612547472L148.55537396032233,185.359764394276L149.8947376937765,185.5328823699424L151.42132431470273,185.7301996324696L152.73188452700734,185.8995946408888L154.69052396517685,186.152756411632L155.81386129000938,186.297952133092L157.15322502346353,186.4710701087584L158.83823101071232,186.6888636909976L160.78246868830706,186.9401639781664L161.8337972102657,187.0760522815576L163.41799087349105,187.2808154785792L164.94457749441727,187.4781327411064L166.38475355189487,187.66428110199038L167.5656979190265,187.8169227578464L169.14989158225185,188.021685954868L170.87810285122495,188.2450639879288L174.0752936988252,188.6583133490224L175.15542574193339,188.7979246196608L178.53983947700573,189.235373267812L181.10335285931583,189.56671735015598L183.16280462150877,189.8329095062152L185.51029159519726,190.1363313344512L187.54093983624065,190.3988005232632L188.8370982879705,190.5663340480096L190.0180426551021,190.71897570396402L191.76065568464998,190.9442152205992L195.02985533512413,191.36677199986L198.01101977410272,191.7520991068456L200.66094371986148,192.09461209083278L202.0147092138904,192.2695915500736L205.38472118838797,192.705178714552L206.40724618919705,192.837344050696L208.07785041587107,193.0532761493608L209.8492669665685,193.2822386332432L211.14542541829832,193.4497721579896L212.48478915175247,193.622890133656L214.3858215476229,193.86860597000322L215.43715006958155,194.0044942734928L216.949334929933,194.1999500523472L219.94490112948637,194.5871386430056L223.2285025405353,195.0115569057424L224.22222402019483,195.13999927483601L225.83522120456973,195.3484854390064L227.41941486779507,195.5532486359296L229.20523317906728,195.7840726033864L230.27096346160067,195.92182239045042L232.43122754781706,196.2010449318256L233.72738599954693,196.36857845657198L236.59333635392733,196.73901369476562L239.3440726237095,197.0945570639704L242.2820317809638,197.4742997202328L245.6808472766109,197.91360985186L248.28756594064532,198.2505383850256L249.6701349558238,198.42924081151358L251.49915854882033,198.665649229792L252.62249587365287,198.81084495125202L254.19228777630343,199.0137466646008L255.5892585520567,199.19431057466318L257.4038803844785,199.42885750936722L258.46961066701186,199.5666072964312L261.8540244020842,200.004055944484L264.503948347843,200.34656892856958L266.18895433509175,200.5643625107104L267.9459691252144,200.7914635110184L268.9540923654487,200.9217673636864L270.37986666235156,201.1060542408976L273.8650927214473,201.5565332742664L274.9452247645555,201.6961445449048L276.5006149066313,201.8971847746792L278.34404026020263,202.135454676532L281.29640117803166,202.5170588163688L284.1335480112625,202.8837710873152L286.927489562769,203.2448989073416L290.268698016117,203.67676310467118L292.93302372245057,204.02113757223282L294.48841386452636,204.2221778020072L295.58294766820933,204.36365055622L298.79454027638434,204.7787614009864L302.12134696915757,205.2087641146432L303.187077251691,205.3465139017072L304.7856726754911,205.5531385823032L306.1394381695201,205.7281180414456L307.49320366354897,205.9030975006864L309.1350043690734,206.11530663210402L310.67599275057444,206.3144853782056L312.51941810414576,206.55275528015682L315.6734036700217,206.9604201905272L316.52310754393346,207.0702477233848L317.9488818408363,207.2545346006944L321.52051846338065,207.71618253570642L324.50168290235933,208.101509642692L327.1084015663937,208.43843817585758L328.375756496974,208.6022487334552L329.95995016019936,208.8070119303784L331.7745719926211,209.0415588650824L334.9573610796466,209.4529467426016L337.5064727013819,209.7824293413712L340.905288197029,210.2217394730968L343.59841742451215,210.5698369079056L346.81001003268716,210.98494775267199L349.89198679568915,211.3833052449736L352.57071426259745,211.729541196208L355.6958963073239,212.1334831392328L356.76162658985726,212.27123292629682L358.73466778860154,212.5262561807128L359.7571927894106,212.6584215169552L361.7734392698793,212.91902922219282L362.8967765947118,213.0642249436528L364.3945596944885,213.25781923893283L367.2317065277193,213.6245315098792L370.19846920612315,214.0079971332904L373.32365125084954,214.4119390764136L374.97985371694875,214.6260096914056L378.04742871937606,215.0225057001328L379.0843554807599,215.15653251994962L381.0862002006537,215.41527874151438L383.83693647043594,215.77082211081762L386.76049386711543,216.1487032834072L388.2294734457426,216.33857461143998L390.0584970387391,216.5749830298168L390.9802097155248,216.69411798074321L392.7372245056474,216.9212189810512L394.307016408298,217.1241206944L397.18736852325316,217.49641741616801L400.29814880740474,217.8984978756184L402.0263600763779,218.12187590867921L403.0344833166122,218.25217976134718L407.931081912036,218.88508418825438L410.7106217029677,219.2443505248048L413.4613579727499,219.5998938940096L414.9591410725266,219.793488189388L416.5001294540276,219.99266693548958L419.6829185410531,220.4040548130088L422.77929706462993,220.8042737888848L423.7874203048642,220.9345776415528L427.05661995533836,221.3571344207152L428.1223502378718,221.4948842077792L430.0089808731674,221.738738560552L431.04590763455127,221.87276538036878L433.09095763616943,222.13709605285362L436.0001132722742,222.5131157417704L437.296271724004,222.6806492666152L438.6356354574582,222.8537672421832L440.13341855723485,223.0473615374632L442.9705653904657,223.4140738084096L446.167756238066,223.82732316960158L447.60793229554355,224.01347153048562L449.58097349428783,224.2684947849016L450.5602932133726,224.395075670224L451.9860675102754,224.5793625475336L453.6134664552251,224.78971019527842L455.0248389915531,224.9721355890136L456.6522379365028,225.1824832367584L457.9771999093822,225.3537397287717L459.59019709375707,225.56222589295191L462.47054920871227,225.9345226147101L465.94137350723327,226.38314016442575L466.87748794459367,226.50413659899544L468.2888604809217,226.68656199265195L470.1898928767921,226.93227782900897L473.3006731609437,227.33435828849872L474.30879640117803,227.46466214111751L475.8785883038286,227.66756385447616L477.3187643613062,227.8537122153503L479.34941260234956,228.11618140419185L481.76890837891193,228.42891065045728L483.1658791546652,228.60947456050985L484.80767986018964,228.82168369190777L487.803246059743,229.20887228253665L489.473850286417,229.42480438115223L492.57022880999386,229.82502335703808L495.66660733357065,230.22524233292393L496.68913233437974,230.35740766914665L498.3165312793294,230.56775531694063L500.2319654357746,230.81533263691145L501.16807987313507,230.9363290714811L502.79547881808475,231.14667671926526L506.06467846855884,231.5692334984572L507.0728017087932,231.699537351076L508.5561830479951,231.8912701627816L511.63815981099714,232.28962765505366L512.9199165021521,232.4552996962355L514.7489400951488,232.69170811455328L516.3475355189488,232.89833279511976L519.48711932425,233.30413622183704L520.9416971423024,233.49214606632495L521.8490080585132,233.60941953367697L523.217175313117,233.786260476502L524.94538658209,234.00963850956282L528.3730055988867,234.45267160844702L530.6052784879769,234.74120156780248L532.3622932780996,234.96830256808096L533.9320851807502,235.17120428142977L536.8412408168549,235.54722397040558L538.2094080714586,235.72406491324048L539.5487718049128,235.89718288885769L541.6658306094048,236.1708209793424L544.1861387099906,236.49658061087462L545.8567429366647,236.71251270950006L547.1384996278197,236.8781847506721L549.1115408265639,237.13320800507825L550.0908605456486,237.25978889047934L553.1872390692256,237.6600078663652L554.569808084404,237.83871029280402L556.5572510437231,238.09559503081408L559.0775591443089,238.42135466234635L560.4025211171883,238.5926111543596L562.0731253438623,238.8085432529752L563.5709084436389,239.00213754828474L564.9966827405417,239.18642442555495L566.4656623191689,239.3762957536468L567.8626330949221,239.55685966369936L569.5476390821709,239.77465324592873L570.829395773326,239.94032528711057L572.5,240.15625738572618" stroke="#3366cc" stroke-width="2" stroke-opacity="0.5" fill-opacity="1" fill="none"></path></g></g><g></g><g><g><text text-anchor="middle" x="270.5239" y="343.05" font-family="Arial" font-size="13" stroke="none" stroke-width="0" fill="#444444">10,000</text></g><g><text text-anchor="middle" x="414.5415" y="343.05" font-family="Arial" font-size="13" stroke="none" stroke-width="0" fill="#444444">20,000</text></g><g><text text-anchor="middle" x="558.5591" y="343.05" font-family="Arial" font-size="13" stroke="none" stroke-width="0" fill="#444444">30,000</text></g><g><text text-anchor="end" x="114" y="328.05" font-family="Arial" font-size="13" stroke="none" stroke-width="0" fill="#444444">0</text></g><g><text text-anchor="end" x="114" y="278.85" font-family="Arial" font-size="13" stroke="none" stroke-width="0" fill="#444444">5</text></g><g><text text-anchor="end" x="114" y="229.65" font-family="Arial" font-size="13" stroke="none" stroke-width="0" fill="#444444">10</text></g><g><text text-anchor="end" x="114" y="180.45000000000002" font-family="Arial" font-size="13" stroke="none" stroke-width="0" fill="#444444">15</text></g><g><text text-anchor="end" x="114" y="131.25" font-family="Arial" font-size="13" stroke="none" stroke-width="0" fill="#444444">20</text></g><g><text text-anchor="end" x="114" y="82.05" font-family="Arial" font-size="13" stroke="none" stroke-width="0" fill="#444444">25</text></g></g></g><g><g><text text-anchor="middle" x="350" y="377.05" font-family="Arial" font-size="13" font-style="italic" stroke="none" stroke-width="0" fill="#222222">Time (ms)</text><rect x="127" y="366" width="446" height="13" stroke="none" stroke-width="0" fill-opacity="0" fill="#ffffff"></rect></g></g><g></g></svg>
