<?xml version="1.0" encoding="UTF-8" standalone="no"?>
<svg
   xmlns:dc="http://purl.org/dc/elements/1.1/"
   xmlns:cc="http://creativecommons.org/ns#"
   xmlns:rdf="http://www.w3.org/1999/02/22-rdf-syntax-ns#"
   xmlns:svg="http://www.w3.org/2000/svg"
   xmlns="http://www.w3.org/2000/svg"
   xmlns:sodipodi="http://sodipodi.sourceforge.net/DTD/sodipodi-0.dtd"
   xmlns:inkscape="http://www.inkscape.org/namespaces/inkscape"
   width="500"
   height="300"
   aria-label="A chart."
   style="overflow: hidden;"
   id="svg2"
   version="1.1"
   inkscape:version="0.91 r13725"
   sodipodi:docname="distance02.svg">
  <metadata
     id="metadata102">
    <rdf:RDF>
      <cc:Work
         rdf:about="">
        <dc:format>image/svg+xml</dc:format>
        <dc:type
           rdf:resource="http://purl.org/dc/dcmitype/StillImage" />
      </cc:Work>
    </rdf:RDF>
  </metadata>
  <sodipodi:namedview
     pagecolor="#ffffff"
     bordercolor="#666666"
     borderopacity="1"
     objecttolerance="10"
     gridtolerance="10"
     guidetolerance="10"
     inkscape:pageopacity="0"
     inkscape:pageshadow="2"
     inkscape:window-width="640"
     inkscape:window-height="480"
     id="namedview100"
     showgrid="false"
     inkscape:zoom="0.606"
     inkscape:cx="221.12211"
     inkscape:cy="150"
     inkscape:window-x="0"
     inkscape:window-y="0"
     inkscape:window-maximized="0"
     inkscape:current-layer="svg2" />
  <defs
     id="_ABSTRACT_RENDERER_ID_2">
    <clipPath
       id="_ABSTRACT_RENDERER_ID_3">
      <rect
         x="94"
         y="58"
         width="313"
         height="185"
         id="rect6" />
    </clipPath>
  </defs>
  <path
     style="fill:#ffffff;stroke:none;stroke-width:0"
     d="m 0,0 500,0 0,300 -500,0 z"
     id="rect8" />
  <g
     id="g10">
    <g
       style="font-weight:bold;font-size:12px;font-family:Arial;text-anchor:start;fill:#000000;stroke:none;stroke-width:0"
       id="text12">
      <path
         d="m 94.867187,28.610157 3.169922,0 q 1.072266,0 1.634766,0.164063 0.755855,0.222656 1.294925,0.791015 0.53906,0.56836 0.82031,1.394531 0.28125,0.820313 0.28125,2.027344 0,1.060547 -0.26367,1.828125 -0.32227,0.9375 -0.91992,1.517578 -0.45118,0.439453 -1.218754,0.685547 -0.574219,0.181641 -1.535157,0.181641 l -3.263672,0 0,-8.589844 z m 1.734375,1.453125 0,5.689453 1.294922,0 q 0.726563,0 1.048828,-0.08203 0.421875,-0.105469 0.697266,-0.357422 0.28125,-0.251953 0.457032,-0.826172 0.17578,-0.580078 0.17578,-1.576172 0,-0.996093 -0.17578,-1.529297 -0.175782,-0.533203 -0.492188,-0.832031 -0.316406,-0.298828 -0.802735,-0.404297 -0.363281,-0.08203 -1.423828,-0.08203 l -0.779297,0 z"
         style="font-weight:bold;font-size:12px;font-family:Arial;text-anchor:start;fill:#000000;stroke:none;stroke-width:0"
         id="path3509" />
      <path
         d="m 103.5332,30.133595 0,-1.523438 1.64649,0 0,1.523438 -1.64649,0 z m 0,7.066406 0,-6.222656 1.64649,0 0,6.222656 -1.64649,0 z"
         style="font-weight:bold;font-size:12px;font-family:Arial;text-anchor:start;fill:#000000;stroke:none;stroke-width:0"
         id="path3511" />
      <path
         d="m 106.28125,35.42461 1.65234,-0.251953 q 0.10547,0.480469 0.42774,0.732422 0.32226,0.246094 0.90234,0.246094 0.63867,0 0.96094,-0.234375 0.2168,-0.164063 0.2168,-0.439453 0,-0.1875 -0.11719,-0.310547 -0.12305,-0.117188 -0.55078,-0.216797 -1.99219,-0.439453 -2.52539,-0.802735 -0.73828,-0.503906 -0.73828,-1.40039 0,-0.808594 0.63867,-1.359375 0.63867,-0.550781 1.98047,-0.550781 1.27734,0 1.89843,0.416015 0.6211,0.416016 0.85547,1.230469 l -1.55273,0.287109 q -0.0996,-0.363281 -0.38086,-0.55664 -0.27539,-0.19336 -0.79102,-0.19336 -0.65039,0 -0.93164,0.181641 -0.1875,0.128906 -0.1875,0.333984 0,0.175782 0.16407,0.298828 0.22265,0.164063 1.53515,0.462891 1.31836,0.298828 1.83985,0.732422 0.51562,0.439453 0.51562,1.224609 0,0.855469 -0.71484,1.470703 -0.71485,0.615235 -2.11524,0.615235 -1.27148,0 -2.01562,-0.515625 -0.73828,-0.515625 -0.9668,-1.400391 z"
         style="font-weight:bold;font-size:12px;font-family:Arial;text-anchor:start;fill:#000000;stroke:none;stroke-width:0"
         id="path3513" />
      <path
         d="m 116.39453,30.977345 0,1.3125 -1.125,0 0,2.507812 q 0,0.761719 0.0293,0.890625 0.0352,0.123047 0.14648,0.205078 0.11719,0.08203 0.28125,0.08203 0.22852,0 0.66211,-0.158203 l 0.14063,1.277344 q -0.57422,0.246094 -1.30078,0.246094 -0.44532,0 -0.80274,-0.146485 -0.35742,-0.152343 -0.52734,-0.386718 -0.16406,-0.240235 -0.22852,-0.644532 -0.0527,-0.287109 -0.0527,-1.160156 l 0,-2.71289 -0.75586,0 0,-1.3125 0.75586,0 0,-1.236329 1.65234,-0.960937 0,2.197266 1.125,0 z"
         style="font-weight:bold;font-size:12px;font-family:Arial;text-anchor:start;fill:#000000;stroke:none;stroke-width:0"
         id="path3515" />
      <path
         d="m 118.7793,32.875782 -1.49414,-0.269531 q 0.25195,-0.902344 0.86718,-1.335938 0.61524,-0.433593 1.82813,-0.433593 1.10156,0 1.64062,0.263671 0.53907,0.257813 0.75586,0.66211 0.22266,0.398437 0.22266,1.470703 l -0.0176,1.921875 q 0,0.820312 0.0762,1.212891 0.082,0.386718 0.29883,0.832031 l -1.6289,0 q -0.0645,-0.164063 -0.15821,-0.486328 -0.041,-0.146485 -0.0586,-0.19336 -0.42188,0.410157 -0.90235,0.615235 -0.48046,0.205078 -1.02539,0.205078 -0.96093,0 -1.51757,-0.521485 -0.55079,-0.521484 -0.55079,-1.318359 0,-0.527344 0.25196,-0.9375 0.25195,-0.416016 0.70312,-0.632812 0.45703,-0.222657 1.3125,-0.386719 1.1543,-0.216797 1.59961,-0.404297 l 0,-0.164063 q 0,-0.474609 -0.23437,-0.673828 -0.23438,-0.205078 -0.88477,-0.205078 -0.43945,0 -0.68555,0.175781 -0.24609,0.169922 -0.39843,0.603516 z m 2.20312,1.335938 q -0.3164,0.105468 -1.00195,0.251953 -0.68555,0.146484 -0.89649,0.287109 -0.32226,0.228516 -0.32226,0.580078 0,0.345703 0.25781,0.597656 0.25781,0.251954 0.65625,0.251954 0.44531,0 0.84961,-0.292969 0.29883,-0.222656 0.39258,-0.544922 0.0645,-0.210938 0.0645,-0.802734 l 0,-0.328125 z"
         style="font-weight:bold;font-size:12px;font-family:Arial;text-anchor:start;fill:#000000;stroke:none;stroke-width:0"
         id="path3517" />
      <path
         d="m 129.88867,37.200001 -1.64648,0 0,-3.175781 q 0,-1.007813 -0.10547,-1.300782 -0.10547,-0.298828 -0.3457,-0.46289 -0.23438,-0.164063 -0.56836,-0.164063 -0.42774,0 -0.76758,0.234375 -0.33985,0.234375 -0.46875,0.621094 -0.12305,0.386719 -0.12305,1.429687 l 0,2.81836 -1.64648,0 0,-6.222656 1.52929,0 0,0.914062 q 0.81446,-1.054687 2.05079,-1.054687 0.54492,0 0.99609,0.199218 0.45117,0.19336 0.67969,0.498047 0.23437,0.304688 0.32226,0.691406 0.0937,0.386719 0.0937,1.107422 l 0,3.867188 z"
         style="font-weight:bold;font-size:12px;font-family:Arial;text-anchor:start;fill:#000000;stroke:none;stroke-width:0"
         id="path3519" />
      <path
         d="m 136.99023,32.817188 -1.62304,0.292969 q -0.082,-0.486328 -0.375,-0.732422 -0.28711,-0.246094 -0.75,-0.246094 -0.61524,0 -0.98438,0.427735 -0.36328,0.421875 -0.36328,1.417969 0,1.107421 0.36914,1.564453 0.375,0.457031 1.00195,0.457031 0.46875,0 0.76758,-0.263672 0.29883,-0.269531 0.42188,-0.919922 l 1.61719,0.275391 q -0.25196,1.113281 -0.9668,1.68164 -0.71485,0.56836 -1.91602,0.56836 -1.36523,0 -2.17968,-0.861328 -0.8086,-0.861328 -0.8086,-2.384766 0,-1.541016 0.81445,-2.396484 0.81446,-0.861328 2.20313,-0.861328 1.13672,0 1.80469,0.492187 0.67383,0.486328 0.96679,1.488281 z"
         style="font-weight:bold;font-size:12px;font-family:Arial;text-anchor:start;fill:#000000;stroke:none;stroke-width:0"
         id="path3521" />
      <path
         d="m 141.82422,35.219532 1.64062,0.275391 q -0.3164,0.902343 -1.00195,1.376953 -0.67969,0.46875 -1.70508,0.46875 -1.62304,0 -2.40234,-1.060547 -0.61524,-0.849609 -0.61524,-2.144531 0,-1.546875 0.8086,-2.419922 0.80859,-0.878906 2.04492,-0.878906 1.38867,0 2.19141,0.919921 0.80273,0.914063 0.76757,2.806641 l -4.125,0 q 0.0176,0.732422 0.39844,1.142578 0.38086,0.404297 0.94922,0.404297 0.38672,0 0.65039,-0.210937 0.26367,-0.210938 0.39844,-0.679688 z m 0.0937,-1.664062 q -0.0176,-0.714844 -0.36914,-1.083985 -0.35156,-0.375 -0.85547,-0.375 -0.53906,0 -0.89063,0.392578 -0.35156,0.392578 -0.3457,1.066407 l 2.46094,0 z"
         style="font-weight:bold;font-size:12px;font-family:Arial;text-anchor:start;fill:#000000;stroke:none;stroke-width:0"
         id="path3523" />
      <path
         d="m 148.24609,28.610157 3.4336,0 q 1.01953,0 1.51758,0.08789 0.5039,0.08203 0.89648,0.351562 0.39844,0.269531 0.66211,0.720703 0.26367,0.445313 0.26367,1.001953 0,0.603516 -0.32812,1.107422 -0.32227,0.503907 -0.87891,0.75586 0.78516,0.228515 1.20703,0.779297 0.42188,0.550781 0.42188,1.294921 0,0.585938 -0.27539,1.142579 -0.26954,0.550781 -0.74415,0.884765 -0.46875,0.328125 -1.16015,0.404297 -0.4336,0.04687 -2.0918,0.05859 l -2.92383,0 0,-8.589844 z m 1.73438,1.429688 0,1.986328 1.13672,0 q 1.01367,0 1.25976,-0.0293 0.44532,-0.05274 0.69727,-0.304688 0.25781,-0.257812 0.25781,-0.673828 0,-0.398437 -0.22266,-0.644531 -0.21679,-0.251953 -0.65039,-0.304688 -0.25781,-0.0293 -1.48242,-0.0293 l -0.99609,0 z m 0,3.416015 0,2.296875 1.60547,0 q 0.9375,0 1.18945,-0.05273 0.38672,-0.07031 0.62695,-0.339844 0.2461,-0.275391 0.2461,-0.732422 0,-0.386719 -0.1875,-0.65625 -0.1875,-0.269531 -0.54492,-0.392578 -0.35157,-0.123047 -1.53516,-0.123047 l -1.40039,0 z"
         style="font-weight:bold;font-size:12px;font-family:Arial;text-anchor:start;fill:#000000;stroke:none;stroke-width:0"
         id="path3525" />
      <path
         d="m 160.48047,35.219532 1.64062,0.275391 q -0.3164,0.902343 -1.00195,1.376953 -0.67969,0.46875 -1.70508,0.46875 -1.62304,0 -2.40234,-1.060547 -0.61524,-0.849609 -0.61524,-2.144531 0,-1.546875 0.8086,-2.419922 0.80859,-0.878906 2.04492,-0.878906 1.38867,0 2.19141,0.919921 0.80273,0.914063 0.76757,2.806641 l -4.125,0 q 0.0176,0.732422 0.39844,1.142578 0.38086,0.404297 0.94922,0.404297 0.38672,0 0.65039,-0.210937 0.26367,-0.210938 0.39844,-0.679688 z m 0.0937,-1.664062 q -0.0176,-0.714844 -0.36914,-1.083985 -0.35156,-0.375 -0.85547,-0.375 -0.53906,0 -0.89063,0.392578 -0.35156,0.392578 -0.3457,1.066407 l 2.46094,0 z"
         style="font-weight:bold;font-size:12px;font-family:Arial;text-anchor:start;fill:#000000;stroke:none;stroke-width:0"
         id="path3527" />
      <path
         d="m 166.41016,30.977345 0,1.3125 -1.125,0 0,2.507812 q 0,0.761719 0.0293,0.890625 0.0352,0.123047 0.14649,0.205078 0.11718,0.08203 0.28125,0.08203 0.22851,0 0.66211,-0.158203 l 0.14062,1.277344 q -0.57422,0.246094 -1.30078,0.246094 -0.44531,0 -0.80273,-0.146485 -0.35743,-0.152343 -0.52735,-0.386718 -0.16406,-0.240235 -0.22851,-0.644532 -0.0527,-0.287109 -0.0527,-1.160156 l 0,-2.71289 -0.75586,0 0,-1.3125 0.75586,0 0,-1.236329 1.65235,-0.960937 0,2.197266 1.125,0 z"
         style="font-weight:bold;font-size:12px;font-family:Arial;text-anchor:start;fill:#000000;stroke:none;stroke-width:0"
         id="path3529" />
      <path
         d="m 168.72461,37.200001 -1.96875,-6.222656 1.59961,0 1.16601,4.078125 1.07227,-4.078125 1.58789,0 1.03711,4.078125 1.18945,-4.078125 1.62305,0 -1.99805,6.222656 -1.58203,0 -1.07226,-4.001953 -1.05469,4.001953 -1.59961,0 z"
         style="font-weight:bold;font-size:12px;font-family:Arial;text-anchor:start;fill:#000000;stroke:none;stroke-width:0"
         id="path3531" />
      <path
         d="m 180.49609,35.219532 1.64063,0.275391 q -0.31641,0.902343 -1.00195,1.376953 -0.67969,0.46875 -1.70508,0.46875 -1.62305,0 -2.40235,-1.060547 -0.61523,-0.849609 -0.61523,-2.144531 0,-1.546875 0.80859,-2.419922 0.8086,-0.878906 2.04492,-0.878906 1.38868,0 2.19141,0.919921 0.80274,0.914063 0.76758,2.806641 l -4.125,0 q 0.0176,0.732422 0.39844,1.142578 0.38086,0.404297 0.94922,0.404297 0.38671,0 0.65039,-0.210937 0.26367,-0.210938 0.39843,-0.679688 z m 0.0937,-1.664062 q -0.0176,-0.714844 -0.36914,-1.083985 -0.35156,-0.375 -0.85547,-0.375 -0.53906,0 -0.89062,0.392578 -0.35156,0.392578 -0.3457,1.066407 l 2.46093,0 z"
         style="font-weight:bold;font-size:12px;font-family:Arial;text-anchor:start;fill:#000000;stroke:none;stroke-width:0"
         id="path3533" />
      <path
         d="m 187.17578,35.219532 1.64063,0.275391 q -0.31641,0.902343 -1.00196,1.376953 -0.67968,0.46875 -1.70508,0.46875 -1.62304,0 -2.40234,-1.060547 -0.61523,-0.849609 -0.61523,-2.144531 0,-1.546875 0.80859,-2.419922 0.80859,-0.878906 2.04492,-0.878906 1.38867,0 2.19141,0.919921 0.80273,0.914063 0.76758,2.806641 l -4.125,0 q 0.0176,0.732422 0.39843,1.142578 0.38086,0.404297 0.94922,0.404297 0.38672,0 0.65039,-0.210937 0.26368,-0.210938 0.39844,-0.679688 z m 0.0937,-1.664062 q -0.0176,-0.714844 -0.36914,-1.083985 -0.35156,-0.375 -0.85547,-0.375 -0.53906,0 -0.89062,0.392578 -0.35157,0.392578 -0.34571,1.066407 l 2.46094,0 z"
         style="font-weight:bold;font-size:12px;font-family:Arial;text-anchor:start;fill:#000000;stroke:none;stroke-width:0"
         id="path3535" />
      <path
         d="m 195.91211,37.200001 -1.64649,0 0,-3.175781 q 0,-1.007813 -0.10546,-1.300782 -0.10547,-0.298828 -0.34571,-0.46289 -0.23437,-0.164063 -0.56836,-0.164063 -0.42773,0 -0.76757,0.234375 -0.33985,0.234375 -0.46875,0.621094 -0.12305,0.386719 -0.12305,1.429687 l 0,2.81836 -1.64649,0 0,-6.222656 1.5293,0 0,0.914062 q 0.81445,-1.054687 2.05078,-1.054687 0.54492,0 0.9961,0.199218 0.45117,0.19336 0.67968,0.498047 0.23438,0.304688 0.32227,0.691406 0.0937,0.386719 0.0937,1.107422 l 0,3.867188 z"
         style="font-weight:bold;font-size:12px;font-family:Arial;text-anchor:start;fill:#000000;stroke:none;stroke-width:0"
         id="path3537" />
      <path
         d="m 208.22852,37.200001 -1.88672,0 -0.75,-1.951172 -3.4336,0 -0.70898,1.951172 -1.83985,0 3.34571,-8.589844 1.83398,0 3.43946,8.589844 z m -3.19336,-3.398438 -1.1836,-3.1875 -1.16015,3.1875 2.34375,0 z"
         style="font-weight:bold;font-size:12px;font-family:Arial;text-anchor:start;fill:#000000;stroke:none;stroke-width:0"
         id="path3539" />
      <path
         d="m 208.99023,37.610157 1.88086,0.228516 q 0.0469,0.328125 0.2168,0.451172 0.23438,0.175781 0.73828,0.175781 0.64453,0 0.9668,-0.19336 0.2168,-0.128906 0.32812,-0.416015 0.0762,-0.205078 0.0762,-0.75586 l 0,-0.908203 q -0.73829,1.007813 -1.86329,1.007813 -1.2539,0 -1.98632,-1.060547 -0.57422,-0.837891 -0.57422,-2.085938 0,-1.564453 0.75,-2.390625 0.75586,-0.826171 1.875,-0.826171 1.15429,0 1.90429,1.013671 l 0,-0.873046 1.54102,0 0,5.583984 q 0,1.101562 -0.18164,1.646484 -0.18164,0.544922 -0.50977,0.855469 -0.32812,0.310547 -0.8789,0.486328 -0.54492,0.175781 -1.38282,0.175781 -1.58203,0 -2.24414,-0.544921 -0.66211,-0.539063 -0.66211,-1.371094 0,-0.08203 0.006,-0.199219 z m 1.47071,-3.650391 q 0,0.990235 0.38086,1.453125 0.38672,0.457032 0.94922,0.457032 0.60351,0 1.01953,-0.46875 0.41601,-0.47461 0.41601,-1.400391 0,-0.966797 -0.39844,-1.435547 -0.39843,-0.46875 -1.00781,-0.46875 -0.59179,0 -0.97851,0.462891 -0.38086,0.457031 -0.38086,1.40039 z"
         style="font-weight:bold;font-size:12px;font-family:Arial;text-anchor:start;fill:#000000;stroke:none;stroke-width:0"
         id="path3541" />
      <path
         d="m 220.08203,35.219532 1.64063,0.275391 q -0.31641,0.902343 -1.00196,1.376953 -0.67968,0.46875 -1.70508,0.46875 -1.62304,0 -2.40234,-1.060547 -0.61523,-0.849609 -0.61523,-2.144531 0,-1.546875 0.80859,-2.419922 0.80859,-0.878906 2.04492,-0.878906 1.38867,0 2.19141,0.919921 0.80273,0.914063 0.76758,2.806641 l -4.125,0 q 0.0176,0.732422 0.39843,1.142578 0.38086,0.404297 0.94922,0.404297 0.38672,0 0.65039,-0.210937 0.26368,-0.210938 0.39844,-0.679688 z m 0.0937,-1.664062 q -0.0176,-0.714844 -0.36914,-1.083985 -0.35156,-0.375 -0.85547,-0.375 -0.53906,0 -0.89062,0.392578 -0.35157,0.392578 -0.34571,1.066407 l 2.46094,0 z"
         style="font-weight:bold;font-size:12px;font-family:Arial;text-anchor:start;fill:#000000;stroke:none;stroke-width:0"
         id="path3543" />
      <path
         d="m 228.81836,37.200001 -1.64649,0 0,-3.175781 q 0,-1.007813 -0.10546,-1.300782 -0.10547,-0.298828 -0.34571,-0.46289 -0.23437,-0.164063 -0.56836,-0.164063 -0.42773,0 -0.76757,0.234375 -0.33985,0.234375 -0.46875,0.621094 -0.12305,0.386719 -0.12305,1.429687 l 0,2.81836 -1.64649,0 0,-6.222656 1.5293,0 0,0.914062 q 0.81445,-1.054687 2.05078,-1.054687 0.54492,0 0.9961,0.199218 0.45117,0.19336 0.67968,0.498047 0.23438,0.304688 0.32227,0.691406 0.0937,0.386719 0.0937,1.107422 l 0,3.867188 z"
         style="font-weight:bold;font-size:12px;font-family:Arial;text-anchor:start;fill:#000000;stroke:none;stroke-width:0"
         id="path3545" />
      <path
         d="m 233.34766,30.977345 0,1.3125 -1.125,0 0,2.507812 q 0,0.761719 0.0293,0.890625 0.0352,0.123047 0.14649,0.205078 0.11718,0.08203 0.28125,0.08203 0.22851,0 0.66211,-0.158203 l 0.14062,1.277344 q -0.57422,0.246094 -1.30078,0.246094 -0.44531,0 -0.80273,-0.146485 -0.35743,-0.152343 -0.52735,-0.386718 -0.16406,-0.240235 -0.22851,-0.644532 -0.0527,-0.287109 -0.0527,-1.160156 l 0,-2.71289 -0.75586,0 0,-1.3125 0.75586,0 0,-1.236329 1.65235,-0.960937 0,2.197266 1.125,0 z"
         style="font-weight:bold;font-size:12px;font-family:Arial;text-anchor:start;fill:#000000;stroke:none;stroke-width:0"
         id="path3547" />
      <path
         d="m 233.92187,35.42461 1.65235,-0.251953 q 0.10547,0.480469 0.42773,0.732422 0.32227,0.246094 0.90235,0.246094 0.63867,0 0.96093,-0.234375 0.2168,-0.164063 0.2168,-0.439453 0,-0.1875 -0.11719,-0.310547 -0.12304,-0.117188 -0.55078,-0.216797 -1.99219,-0.439453 -2.52539,-0.802735 -0.73828,-0.503906 -0.73828,-1.40039 0,-0.808594 0.63867,-1.359375 0.63867,-0.550781 1.98047,-0.550781 1.27734,0 1.89844,0.416015 0.62109,0.416016 0.85547,1.230469 l -1.55274,0.287109 q -0.0996,-0.363281 -0.38086,-0.55664 -0.27539,-0.19336 -0.79101,-0.19336 -0.65039,0 -0.93164,0.181641 -0.1875,0.128906 -0.1875,0.333984 0,0.175782 0.16406,0.298828 0.22266,0.164063 1.53516,0.462891 1.31836,0.298828 1.83984,0.732422 0.51562,0.439453 0.51562,1.224609 0,0.855469 -0.71484,1.470703 -0.71484,0.615235 -2.11523,0.615235 -1.27149,0 -2.01563,-0.515625 -0.73828,-0.515625 -0.9668,-1.400391 z"
         style="font-weight:bold;font-size:12px;font-family:Arial;text-anchor:start;fill:#000000;stroke:none;stroke-width:0"
         id="path3549" />
      <path
         d="m 244.49805,37.200001 0,-8.589844 2.5957,0 1.55859,5.859375 1.54102,-5.859375 2.60156,0 0,8.589844 -1.61133,0 0,-6.761719 -1.70507,6.761719 -1.66993,0 -1.69922,-6.761719 0,6.761719 -1.61132,0 z"
         style="font-weight:bold;font-size:12px;font-family:Arial;text-anchor:start;fill:#000000;stroke:none;stroke-width:0"
         id="path3551" />
      <path
         d="m 254.11328,34.000782 q 0,-0.820312 0.4043,-1.587891 0.40429,-0.767578 1.14258,-1.171875 0.74414,-0.404296 1.6582,-0.404296 1.41211,0 2.31445,0.919921 0.90235,0.914063 0.90235,2.314454 0,1.412109 -0.91407,2.34375 -0.9082,0.925781 -2.29101,0.925781 -0.85547,0 -1.63477,-0.386719 -0.77344,-0.386719 -1.17773,-1.130859 -0.4043,-0.75 -0.4043,-1.822266 z m 1.6875,0.08789 q 0,0.925781 0.43945,1.417968 0.43946,0.492188 1.08399,0.492188 0.64453,0 1.07812,-0.492188 0.43946,-0.492187 0.43946,-1.429687 0,-0.914063 -0.43946,-1.40625 -0.43359,-0.492188 -1.07812,-0.492188 -0.64453,0 -1.08399,0.492188 -0.43945,0.492187 -0.43945,1.417969 z"
         style="font-weight:bold;font-size:12px;font-family:Arial;text-anchor:start;fill:#000000;stroke:none;stroke-width:0"
         id="path3553" />
      <path
         d="m 267.51367,37.200001 -1.5293,0 0,-0.914063 q -0.38085,0.533203 -0.90234,0.796875 -0.51562,0.257813 -1.04297,0.257813 -1.07226,0 -1.83984,-0.861328 -0.76172,-0.867188 -0.76172,-2.414063 0,-1.582031 0.74414,-2.402344 0.74414,-0.826171 1.88086,-0.826171 1.04297,0 1.80469,0.867187 l 0,-3.09375 1.64648,0 0,8.589844 z m -4.39453,-3.246094 q 0,0.996094 0.27539,1.441406 0.39844,0.644532 1.11328,0.644532 0.56836,0 0.9668,-0.480469 0.39844,-0.486328 0.39844,-1.447266 0,-1.072265 -0.38672,-1.541015 -0.38672,-0.47461 -0.99024,-0.47461 -0.58593,0 -0.98437,0.46875 -0.39258,0.462891 -0.39258,1.388672 z"
         style="font-weight:bold;font-size:12px;font-family:Arial;text-anchor:start;fill:#000000;stroke:none;stroke-width:0"
         id="path3555" />
      <path
         d="m 272.74609,35.219532 1.64063,0.275391 q -0.31641,0.902343 -1.00195,1.376953 -0.67969,0.46875 -1.70508,0.46875 -1.62305,0 -2.40235,-1.060547 -0.61523,-0.849609 -0.61523,-2.144531 0,-1.546875 0.80859,-2.419922 0.8086,-0.878906 2.04492,-0.878906 1.38868,0 2.19141,0.919921 0.80274,0.914063 0.76758,2.806641 l -4.125,0 q 0.0176,0.732422 0.39844,1.142578 0.38086,0.404297 0.94922,0.404297 0.38671,0 0.65039,-0.210937 0.26367,-0.210938 0.39843,-0.679688 z m 0.0937,-1.664062 q -0.0176,-0.714844 -0.36914,-1.083985 -0.35156,-0.375 -0.85547,-0.375 -0.53906,0 -0.89062,0.392578 -0.35156,0.392578 -0.3457,1.066407 l 2.46093,0 z"
         style="font-weight:bold;font-size:12px;font-family:Arial;text-anchor:start;fill:#000000;stroke:none;stroke-width:0"
         id="path3557" />
      <path
         d="m 275.82227,37.200001 0,-8.589844 1.64648,0 0,8.589844 -1.64648,0 z"
         style="font-weight:bold;font-size:12px;font-family:Arial;text-anchor:start;fill:#000000;stroke:none;stroke-width:0"
         id="path3559" />
      <path
         d="m 284.91016,28.575001 q 1.24804,0 1.95117,0.890625 0.83789,1.054687 0.83789,3.498047 0,2.4375 -0.84375,3.503906 -0.69727,0.878906 -1.94531,0.878906 -1.25391,0 -2.02149,-0.960937 -0.76758,-0.966797 -0.76758,-3.439453 0,-2.425782 0.84375,-3.492188 0.69727,-0.878906 1.94532,-0.878906 z m 0,1.365234 q -0.29883,0 -0.53321,0.19336 -0.23437,0.1875 -0.36328,0.679687 -0.16992,0.638672 -0.16992,2.150391 0,1.511718 0.15234,2.080078 0.15235,0.5625 0.38086,0.75 0.23438,0.1875 0.53321,0.1875 0.29882,0 0.5332,-0.1875 0.23437,-0.19336 0.36328,-0.685547 0.16992,-0.632813 0.16992,-2.144531 0,-1.511719 -0.15234,-2.074219 -0.15235,-0.568359 -0.38672,-0.755859 -0.22852,-0.19336 -0.52734,-0.19336 z"
         style="font-weight:bold;font-size:12px;font-family:Arial;text-anchor:start;fill:#000000;stroke:none;stroke-width:0"
         id="path3561" />
      <path
         d="m 294.36719,35.670704 0,1.529297 -5.77149,0 q 0.0937,-0.867188 0.5625,-1.640625 0.46875,-0.779297 1.85157,-2.0625 1.11328,-1.03711 1.36523,-1.40625 0.33984,-0.509766 0.33984,-1.007813 0,-0.550781 -0.29882,-0.84375 -0.29297,-0.298828 -0.81446,-0.298828 -0.51562,0 -0.82031,0.310547 -0.30469,0.310547 -0.35156,1.03125 l -1.64063,-0.164062 q 0.14649,-1.359375 0.91992,-1.951172 0.77344,-0.591797 1.9336,-0.591797 1.27148,0 1.99804,0.685547 0.72657,0.685547 0.72657,1.705078 0,0.580078 -0.21094,1.107422 -0.20508,0.521484 -0.65625,1.095703 -0.29883,0.380859 -1.07813,1.095703 -0.77929,0.714844 -0.99023,0.949219 -0.20508,0.234375 -0.33398,0.457031 l 3.26953,0 z"
         style="font-weight:bold;font-size:12px;font-family:Arial;text-anchor:start;fill:#000000;stroke:none;stroke-width:0"
         id="path3563" />
    </g>
    <path
       style="fill:#ffffff;fill-opacity:0;stroke:none;stroke-width:0"
       d="m 94,27 313,0 0,12 -313,0 z"
       id="rect14" />
  </g>
  <g
     id="g16">
    <path
       style="fill:#ffffff;fill-opacity:0;stroke:none;stroke-width:0"
       d="m 94,58 313,0 0,185 -313,0 z"
       id="rect18" />
    <g
       clip-path="url(http://localhost:63342/hc-with-streams/results/no-vpn/relative-distance.html?_ijt=3epi00c4csglb0p9sfv507snd7#_ABSTRACT_RENDERER_ID_3)"
       id="g20">
      <g
         id="g22">
        <path
           style="fill:#cccccc;stroke:none;stroke-width:0"
           d="m 218,58 1,0 0,185 -1,0 z"
           id="rect24" />
        <path
           style="fill:#cccccc;stroke:none;stroke-width:0"
           d="m 342,58 1,0 0,185 -1,0 z"
           id="rect26" />
        <path
           style="fill:#ebebeb;stroke:none;stroke-width:0"
           d="m 94,58 1,0 0,185 -1,0 z"
           id="rect28" />
        <path
           style="fill:#ebebeb;stroke:none;stroke-width:0"
           d="m 156,58 1,0 0,185 -1,0 z"
           id="rect30" />
        <path
           style="fill:#ebebeb;stroke:none;stroke-width:0"
           d="m 280,58 1,0 0,185 -1,0 z"
           id="rect32" />
        <path
           style="fill:#ebebeb;stroke:none;stroke-width:0"
           d="m 405,58 1,0 0,185 -1,0 z"
           id="rect34" />
        <path
           style="fill:#ebebeb;stroke:none;stroke-width:0"
           d="m 467,58 1,0 0,185 -1,0 z"
           id="rect36" />
        <path
           style="fill:#cccccc;stroke:none;stroke-width:0"
           d="m 94,242 313,0 0,1 -313,0 z"
           id="rect38" />
        <path
           style="fill:#cccccc;stroke:none;stroke-width:0"
           d="m 94,181 313,0 0,1 -313,0 z"
           id="rect40" />
        <path
           style="fill:#cccccc;stroke:none;stroke-width:0"
           d="m 94,119 313,0 0,1 -313,0 z"
           id="rect42" />
        <path
           style="fill:#cccccc;stroke:none;stroke-width:0"
           d="m 94,58 313,0 0,1 -313,0 z"
           id="rect44" />
        <path
           style="fill:#ebebeb;stroke:none;stroke-width:0"
           d="m 94,211 313,0 0,1 -313,0 z"
           id="rect46" />
        <path
           style="fill:#ebebeb;stroke:none;stroke-width:0"
           d="m 94,150 313,0 0,1 -313,0 z"
           id="rect48" />
        <path
           style="fill:#ebebeb;stroke:none;stroke-width:0"
           d="m 94,89 313,0 0,1 -313,0 z"
           id="rect50" />
      </g>
      <g
         id="g52">
        <path
           style="fill:#333333;stroke:none;stroke-width:0"
           d="m 94,242 313,0 0,1 -313,0 z"
           id="rect54" />
      </g>
      <g
         id="g56">
        <path
           d="M94.5,113.63866666666664L95.54524697389675,114.00666666666666L96.57805053143758,114.55866666666667L97.60463238080045,115.23333333333332L98.63121423016332,116.15333333333332L99.60180070592459,117.25733333333332L100.6221608471095,118.54533333333332L101.65496440465033,120.14L102.63177258858954,121.61199999999998L103.63968931341856,123.57466666666666L104.62894091371368,125.476L105.59330568129698,127.49999999999999L106.63233094701577,129.95333333333332L107.60291742277704,132.284L109.15834446726623,135.41199999999998L110.22847827387481,139.09199999999998L111.23017329052585,141.97466666666665L112.19453805810916,144.73466666666667L113.19001136658225,147.74L114.17926296687739,150.92933333333332L115.14984944263864,154.42533333333333L116.14532275111173,158.41199999999998L117.17812630865257,162.644L118.24203840708319,167.30533333333332L119.20640317466648,171.78266666666667L120.20187648313957,176.628L121.17246295890084,181.41199999999998L122.18037968372984,186.38L123.20073982491475,191.77733333333333L124.14021775978622,196.62266666666665L125.47788501804695,203.18533333333335L126.47335832652004,207.7853333333333L127.54349213312861,212.75333333333333L128.56385227431352,216.24933333333334L129.5593255827866,218.028L131.0027618800726,218.57999999999998L132.39642451193492,215.02266666666665L133.64076614752628,209.25733333333332L134.63623945599937,203.24666666666667L135.6814864298961,197.54266666666666L136.68318144654717,191.77733333333333L137.70354158773208,185.70533333333333L138.72390172891699,179.69466666666665L139.7131533292121,173.80666666666667L140.72107005404112,167.796L141.69787823798035,162.03066666666666L142.70579496280934,156.388L143.69504656310448,150.868L144.70296328793347,145.348L145.94108321534688,140.38L147.52761880072586,134.00133333333332L148.9212814325882,127.49999999999999L150.01008036373062,122.28666666666665L151.00555367220372,118.23866666666665L152.01969210521068,114.49733333333333L153.04627395457356,111.12399999999997L154.01063872215684,107.99599999999998L154.97500348974017,105.17466666666667L155.92070313278958,102.66L156.89128960855086,100.32933333333332L157.8494326679562,98.36666666666665L158.8324625600734,96.52666666666664L159.81549245219054,95.05466666666666L160.81096576066363,93.76666666666665L161.81888248549265,92.84666666666666L162.80191237760982,92.11066666666665L164.44444333659044,92.41733333333332L165.83810596845274,91.92666666666665L166.84602269328175,91.436L167.87260454264464,91.74266666666668L168.83074760204997,92.356L169.85110774323488,93.15333333333331L171.09544937882623,94.07333333333332L172.5139988434004,96.77199999999999L173.57168923365305,97.7533333333333L174.63560133208367,99.47066666666666L175.63107464055676,101.12666666666667L176.6638781980976,103.27333333333334L177.6717949229266,105.23599999999999L178.63615969050988,107.19866666666667L179.63785470716095,109.46799999999999L180.61466289110018,111.85999999999999L181.6039144913953,114.436L182.61805292440226,116.88933333333333L183.60730452469738,119.71066666666665L184.5965561249925,122.22533333333332L185.60447284982152,125.16933333333333L186.6310546991844,128.35866666666666L187.93761341655534,132.77466666666666L188.93308672502843,135.228L189.92233832532355,138.356L190.88670309290686,141.36133333333333L191.85106786049016,144.48933333333332L192.83409775260733,147.86266666666666L193.82334935290248,151.236L194.84993120226534,155.284L195.80185255349272,159.08666666666664L196.77866073743195,163.44133333333332L197.74302550501525,167.73466666666667L198.70739027259856,172.33466666666666L199.653089915648,176.93466666666666L200.6298980995872,181.78L201.56937603445868,186.44133333333332L203.23679382615111,194.72133333333332L204.23848884280216,199.996L205.24018385945323,204.964L206.2481005842822,209.44133333333332L207.23735218457733,213.12133333333333L208.2390472012284,215.94266666666667L209.33406784054878,217.53733333333332L210.88327317686003,217.35333333333332L212.35781801503578,212.93733333333333L213.39684328075458,207.11066666666667L214.67851516541367,201.16133333333335L215.7673140965561,194.96666666666667L216.75656569685125,189.56933333333333L217.7458172971464,184.11066666666667L218.74751231379742,178.52933333333334L219.73676391409256,172.94799999999998L220.67002014078608,167.85733333333332L221.63438490836938,162.70533333333333L222.6111930923086,157.79866666666666L223.6937703152731,152.70799999999997L224.92566853450853,147.49466666666666L226.00824575747302,142.772L227.04104931501385,138.7853333333333L227.97430554170737,135.47333333333333L229.00088739107025,132.284L229.9465870341197,129.34L230.92961692623686,126.51866666666666L231.86287315293038,124.06533333333333L232.86456816958142,121.79599999999999L233.90359343530022,119.46533333333333L234.87417991106147,117.50266666666667L235.84476638682273,115.90799999999999L236.80290944622809,114.49733333333333L237.7672742138114,113.39333333333332L238.91206851855543,112.71866666666665L240.03197599058765,111.67599999999999L241.60606815961074,111.79866666666666L242.58909805172792,110.69466666666668L243.584571360201,110.81733333333332L244.53027100325045,111.06266666666667L245.48219235447783,111.67599999999999L246.4963307874848,112.28933333333333L247.47936067960197,113.20933333333335L248.48727740443096,114.31333333333333L249.72539733184436,115.60133333333332L251.04439946557122,118.3L252.20785889484912,120.14L253.24688416056793,121.91866666666665L254.1739186790835,123.636L255.1818354039125,125.90533333333332L256.1462001714958,127.99066666666666L257.1167866472571,130.3213333333333L258.0438211657726,132.59066666666666L258.99574251700005,134.85999999999999L260.00365924182904,137.988L260.9306937603446,140.31866666666667L261.90128023610583,142.89466666666667L263.25761261890045,147.86266666666666L264.25930763555147,150.19333333333333L265.2361158194907,153.3213333333333L266.19425887889605,156.87866666666667L267.1772887710132,160.74266666666665L268.14787524677445,164.60666666666668L269.1184617225357,168.77733333333333L270.07038307376314,173.132L271.00986100863463,177.42533333333333L271.96800406803993,181.964L272.92614712744535,186.38L273.9465072686302,191.348L274.9606457016372,195.948L275.93745388557636,200.30266666666665L276.92670548587154,204.28933333333333L278.5630147366742,209.748L279.7078090414182,212.01733333333334L280.6535086844676,212.38533333333334L281.6365385765848,211.588L282.6444553014138,209.38L283.60882006899715,206.19066666666666L284.5794065447584,202.388L285.5873232695874,197.91066666666666L286.54546632899275,193.24933333333334L287.54093963746584,188.28133333333332L288.5550780704728,183.252L290.07317486589426,177.364L291.51661116318024,170.06533333333334L292.6925140088141,163.31866666666667L293.706652441821,157.79866666666666L294.7083474584721,153.3213333333333L295.64782539334357,149.212L296.61219016092684,145.53199999999998L297.6761022593575,141.91333333333336L298.7089058168983,138.66266666666667L300.0154645342692,135.78L301.3282449598181,131.85466666666667L302.3112748519353,128.48133333333334L303.27563961951864,126.15066666666667L304.227560970746,124.06533333333333L305.21681257104115,121.98L306.16873392226853,120.14L307.15798552256365,118.54533333333332L308.122350290147,117.196L309.0680499331964,116.092L310.02619299260175,115.17199999999998L311.0527748419646,114.49733333333333L312.0482481504377,114.00666666666666L313.0499431670887,113.69999999999999L314.02052964285,113.57733333333331L314.99733782678925,113.76133333333334L316.2479011705585,115.17199999999998L317.2184876463198,114.80399999999999L318.19529583025906,115.66266666666667L319.15343888966436,116.52133333333333L320.1675773226714,117.68666666666665L321.20038088021215,119.09733333333332L322.18341077232935,120.56933333333333L323.1602189562685,122.04133333333333L324.105918599318,123.636L325.07650507507924,125.53733333333332L326.00353959359484,127.37733333333333L327.2416595210082,129.4013333333333L328.2931282030829,132.836L329.2761580952001,134.7373333333333L330.2343011546054,137.00666666666666L331.19866592218875,139.39866666666666L332.1443655652382,141.91333333333336L333.1025086246435,144.55066666666664L334.1042036412946,147.372L335.0312381598102,150.00933333333333L335.9893812192155,153.26L337.40170897561165,158.28933333333333L338.6149420703133,163.31866666666667L339.6290805033202,167.36666666666667L340.6369972281492,171.78266666666667L341.63247053662235,176.13733333333334L342.58439188784973,180.55333333333334L343.57986519632277,185.03066666666666L344.53178654755015,189.38533333333334L345.4961513151335,193.80133333333333L346.4791812072507,198.156L347.4746545157237,202.204L348.40791074241724,205.45466666666667L349.4282708836022,208.58266666666665L350.4050790675414,211.036L351.36944383512474,212.26266666666666L352.3275868945301,212.44666666666666L353.4599377829182,211.52666666666667L354.5860669631284,209.012L355.5504317307117,205.45466666666667L356.5583484555407,201.71333333333334L357.51649151494604,197.54266666666666L358.44974774163956,193.43333333333334L359.4701078828245,188.83333333333331L360.54024168943306,184.172L361.54193670608413,179.388L362.568518555447,174.788L363.5142181984964,170.55599999999998L364.4785829660797,166.44666666666666L365.7664765589168,162.58266666666668L366.91127086366083,157.85999999999999L367.90052246395595,154.548L368.8773306478952,151.91066666666666L369.8665822481903,149.6413333333333L370.82472530759566,147.6173333333333L371.789090075179,145.96133333333333L372.76589825911816,144.612L373.7800366921251,143.50799999999998L374.8377270823778,142.588L375.814535266317,141.79066666666665L377.23308473089116,141.36133333333333L378.6702993199992,140.564L379.6906594611841,139.52133333333333L380.6861327696572,139.1533333333333L381.71271461902006,138.908L382.69574451113726,138.7853333333333L383.6787744032544,138.908L384.6742477117275,139.03066666666666L385.6759427283786,139.33733333333333L386.6651943286737,139.88933333333333L387.63578080443494,140.50266666666667L388.61258898837417,141.3L389.5956188804913,142.21999999999997L390.5537619398967,143.2013333333333L391.8665423654456,144.73466666666667L393.10466229285896,146.82L394.3427822202724,149.51866666666666L395.3631423614573,151.72666666666666L396.3710590862863,154.30266666666665L397.3354238538696,157.24666666666667L398.24379324785133,160.06799999999998L399.2081580154346,163.31866666666667L400.2036313239077,166.75333333333333L401.1804395078469,170.372L402.16969110814205,174.11333333333334L403.16516441661514,177.79333333333332L404.5837138811893,183.43599999999998L405.5605220651285,186.68666666666667L406.5,189.99866666666665"
           stroke="#3366cc"
           stroke-width="2"
           fill-opacity="1"
           fill="none"
           id="path58" />
        <path
           d="M94.5,140.63505835194132L95.54524697389675,140.70064242162667L96.57805053143758,140.76544572846666L97.60463238080045,140.8298586540373L98.63121423016332,140.89427157954668L99.60180070592459,140.95517107277334L100.6221608471095,141.01919361695198L101.65496440465033,141.08399692385333L102.63177258858954,141.14528679841067L103.63968931341856,141.20852857986665L104.62894091371368,141.27059921714664L105.59330568129698,141.33110832904265L106.63233094701577,141.39630201727465L107.60291742277704,141.45720151050133L109.15834446726623,141.55479685224532L110.22847827387481,141.62194244731467L111.23017329052585,141.68479384737867L112.19453805810916,141.74530295921335L113.19001136658225,141.80776397794665L114.17926296687739,141.86983461528797L115.14984944263864,141.93073410851466L116.14532275111173,141.99319512718665L117.17812630865257,142.057998434088L118.24203840708319,142.12475364782665L119.20640317466648,142.18526275966133L120.20187648313957,142.24772377833332L121.17246295890084,142.30862327156L122.18037968372984,142.371865053016L123.20073982491475,142.43588759719466L124.14021775978622,142.494835183584L125.47788501804695,142.57876717740533L126.47335832652004,142.64122819613866L127.54349213312861,142.70837379120798L128.56385227431352,142.77239633538665L129.5593255827866,142.83485735405867L131.0027618800726,142.92542583117597L132.39642451193492,143.01287125734132L133.64076614752628,143.09094753071201L134.63623945599937,143.15340854938398L135.6814864298961,143.218992619008L136.68318144654717,143.281844019072L137.70354158773208,143.34586656325064L138.72390172891699,143.4098891074293L139.7131533292121,143.4719597447707L140.72107005404112,143.53520152616534L141.69787823798035,143.59649140078398L142.70579496280934,143.65973318217868L143.69504656310448,143.72180381952L144.70296328793347,143.78504560091466L145.94108321534688,143.86273149295465L147.52761880072586,143.96227874147465L148.9212814325882,144.04972416764002L150.01008036373062,144.11804090682398L151.00555367220372,144.18050192555734L152.01969210521068,144.244134088344L153.04627395457356,144.3085470138533L154.01063872215684,144.36905612574932L154.97500348974017,144.42956523758397L155.92070313278958,144.48890320536532L156.89128960855086,144.549802698592L157.8494326679562,144.60992142903467L158.8324625600734,144.67160168504532L159.81549245219054,144.73328194099466L160.81096576066363,144.79574295966665L161.81888248549265,144.85898474112264L162.80191237760982,144.92066499707198L164.44444333659044,145.02372567787467L165.83810596845274,145.11117110410135L166.84602269328175,145.174412885496L167.87260454264464,145.2388258110053L168.83074760204997,145.29894454150934L169.85110774323488,145.362967085688L171.09544937882623,145.44104335905865L172.5139988434004,145.5300503106693L173.57168923365305,145.596415143016L174.63560133208367,145.66317035675468L175.63107464055676,145.72563137548798L176.6638781980976,145.79043468238933L177.6717949229266,145.85367646378398L178.63615969050988,145.91418557561866L179.63785470716095,145.97703697568267L180.61466289110018,146.03832685030133L181.6039144913953,146.10039748764265L182.61805292440226,146.1640296504293L183.60730452469738,146.22610028777066L184.5965561249925,146.28817092505068L185.60447284982152,146.35141270650666L186.6310546991844,146.41582563201598L187.93761341655534,146.49780571906132L188.93308672502843,146.56026673773334L189.92233832532355,146.62233737507466L190.88670309290686,146.68284648690934L191.85106786049016,146.74335559880532L192.83409775260733,146.80503585475466L193.82334935290248,146.867106492096L194.84993120226534,146.93151941760533L195.80185255349272,146.99124776671732L196.77866073743195,147.05253764133602L197.74302550501525,147.11304675317064L198.70739027259856,147.17355586506665L199.653089915648,147.23289383278666L200.6298980995872,147.29418370740532L201.56937603445868,147.35313129379466L203.23679382615111,147.457753500104L204.23848884280216,147.520604900168L205.24018385945323,147.583456300232L206.2481005842822,147.64669808162665L207.23735218457733,147.70876871896797L208.2390472012284,147.77162011903198L209.33406784054878,147.840327239608L210.88327317686003,147.93753219996L212.35781801503578,148.03005258385332L213.39684328075458,148.09524627214665L214.67851516541367,148.17566483368535L215.7673140965561,148.24398157293066L216.75656569685125,148.30605221021068L217.7458172971464,148.368122847552L218.74751231379742,148.430974247616L219.73676391409256,148.49304488495733L220.67002014078608,148.55160208995466L221.63438490836938,148.61211120185067L222.6111930923086,148.67340107640797L223.6937703152731,148.74132743426134L224.92566853450853,148.81862294490935L226.00824575747302,148.88654930270133L227.04104931501385,148.95135260960268L227.97430554170737,149.0099098146L229.00088739107025,149.07432274017066L229.9465870341197,149.13366070789067L230.92961692623686,149.19534096390134L231.86287315293038,149.25389816889867L232.86456816958142,149.31674956896268L233.90359343530022,149.38194325719468L234.87417991106147,149.44284275042133L235.84476638682273,149.503742243648L236.80290944622809,149.563860974152L237.7672742138114,149.62437008604797L238.91206851855543,149.69620025751465L240.03197599058765,149.766468903536L241.60606815961074,149.86523538933332L242.58909805172792,149.926915645344L243.584571360201,149.989376664016L244.53027100325045,150.04871463179734L245.48219235447783,150.10844298090933L246.4963307874848,150.172075143696L247.47936067960197,150.23375539964533L248.48727740443096,150.29699718110132L249.72539733184436,150.37468307308L251.04439946557122,150.457443922848L252.20785889484912,150.53044523842934L253.24688416056793,150.59563892672264L254.1739186790835,150.653805750328L255.1818354039125,150.71704753178398L256.1462001714958,150.77755664361865L257.1167866472571,150.8384561368453L258.0438211657726,150.896622960512L258.99574251700005,150.95635130962398L260.00365924182904,151.01959309108L260.9306937603446,151.07775991474665L261.90128023610583,151.1386594079733L263.25761261890045,151.22376254590932L264.25930763555147,151.28661394597333L265.2361158194907,151.347903820592L266.19425887889605,151.408022551096L267.1772887710132,151.46970280704534L268.14787524677445,151.530602300272L269.1184617225357,151.59150179349865L270.07038307376314,151.65123014261064L271.00986100863463,151.710177729L271.96800406803993,151.77029645950398L272.92614712744535,151.830415190008L273.9465072686302,151.89443773412532L274.9606457016372,151.9580698969733L275.93745388557636,152.01935977153067L276.92670548587154,152.081430408872L278.5630147366742,152.18410070834398L279.7078090414182,152.25593087981065L280.6535086844676,152.315268847592L281.6365385765848,152.37694910354134L282.6444553014138,152.44019088499732L283.60882006899715,152.500699996832L284.5794065447584,152.56159949005865L285.5873232695874,152.62484127151467L286.54546632899275,152.68496000195734L287.54093963746584,152.74742102069067L288.5550780704728,152.81105318347733L290.07317486589426,152.906306236992L291.51661116318024,152.9968747141093L292.6925140088141,153.07065679241333L293.706652441821,153.1342889552L294.7083474584721,153.197140355264L295.64782539334357,153.25608794165333L296.61219016092684,153.31659705354934L297.6761022593575,153.38335226722666L298.7089058168983,153.448155574128L300.0154645342692,153.53013566117332L301.3282449598181,153.61250612961067L302.3112748519353,153.67418638556L303.27563961951864,153.73469549739468L304.227560970746,153.79442384650667L305.21681257104115,153.856494483848L306.16873392226853,153.91622283296L307.15798552256365,153.9782934703013L308.122350290147,154.038802582136L309.0680499331964,154.09814054991733L310.02619299260175,154.15825928042133L311.0527748419646,154.22267220593065L312.0482481504377,154.28513322466398L313.0499431670887,154.34798462466665L314.02052964285,154.40888411789334L314.99733782678925,154.470173992512L316.2479011705585,154.54864064727468L317.2184876463198,154.60954014050134L318.19529583025906,154.67083001505864L319.15343888966436,154.73094874556267L320.1675773226714,154.7945809083493L321.20038088021215,154.85938421525066L322.18341077232935,154.9210644712L323.1602189562685,154.98235434581864L324.105918599318,155.04169231353865L325.07650507507924,155.1025918067653L326.00353959359484,155.16075863043199L327.2416595210082,155.23844452241065L328.2931282030829,155.30441897342666L329.2761580952001,155.366099229376L330.2343011546054,155.42621795987998L331.19866592218875,155.48672707171465L332.1443655652382,155.546065039496L333.1025086246435,155.60618377L334.1042036412946,155.66903517006398L335.0312381598102,155.72720199373066L335.9893812192155,155.78732072423466L337.40170897561165,155.87593729445334L338.6149420703133,155.95206166098666L339.6290805033202,156.01569382377335L340.6369972281492,156.07893560522933L341.63247053662235,156.14139662390133L342.58439188784973,156.20112497307468L343.57986519632277,156.26358599174665L344.53178654755015,156.32331434085864L345.4961513151335,156.38382345275465L346.4791812072507,156.445503708704L347.4746545157237,156.507964727376L348.40791074241724,156.56652193237332L349.4282708836022,156.630544476552L350.4050790675414,156.69183435117066L351.36944383512474,156.75234346300533L352.3275868945301,156.81246219350933L353.4599377829182,156.88351160225335L354.5860669631284,156.95417062966666L355.5504317307117,157.0146797415013L356.5583484555407,157.07792152295733L357.51649151494604,157.13804025346133L358.44974774163956,157.19659745845865L359.4701078828245,157.26062000263732L360.54024168943306,157.32776559770667L361.54193670608413,157.39061699777068L362.568518555447,157.45502992334133L363.5142181984964,157.51436789106134L364.4785829660797,157.57487700295732L365.7664765589168,157.655685945888L366.91127086366083,157.72751611735467L367.90052246395595,157.789586754696L368.8773306478952,157.85087662925332L369.8665822481903,157.91294726659464L370.82472530759566,157.97306599709867L371.789090075179,158.03357510893332L372.76589825911816,158.094864983552L373.7800366921251,158.15849714633868L374.8377270823778,158.22486197868534L375.814535266317,158.28615185330398L377.23308473089116,158.37515880491466L378.6702993199992,158.46533690070135L379.6906594611841,158.52935944481868L380.6861327696572,158.59182046355198L381.71271461902006,158.65623338906133L382.69574451113726,158.71791364501064L383.6787744032544,158.77959390095998L384.6742477117275,158.84205491969334L385.6759427283786,158.90490631975734L386.6651943286737,158.96697695703733L387.63578080443494,159.027876450264L388.61258898837417,159.08916632488265L389.5956188804913,159.150846580832L390.5537619398967,159.210965311336L391.8665423654456,159.29333577971198L393.10466229285896,159.37102167175198L394.3427822202724,159.44870756373066L395.3631423614573,159.5127301079093L396.3710590862863,159.57597188930401L397.3354238538696,159.6364810012L398.24379324785133,159.69347668075198L399.2081580154346,159.75398579258666L400.2036313239077,159.81644681125866L401.1804395078469,159.87773668587732L402.16969110814205,159.93980732321864L403.16516441661514,160.00226834189067L404.5837138811893,160.09127529356266L405.5605220651285,160.15256516812L406.5,160.21151275450933"
           stroke="#3366cc"
           stroke-width="2"
           stroke-opacity="0.5"
           fill-opacity="1"
           fill="none"
           id="path60" />
      </g>
    </g>
    <g
       id="g62" />
    <g
       id="g64">
      <g
         id="g66">
        <g
           style="font-size:12px;font-family:Arial;text-anchor:middle;fill:#444444;stroke:none;stroke-width:0"
           id="text68">
          <path
             d="m 206.14523,259.18634 0,1.01367 -5.67773,0 q -0.0117,-0.38086 0.12305,-0.73242 0.21679,-0.58008 0.6914,-1.14258 0.48047,-0.5625 1.38281,-1.30078 1.4004,-1.14844 1.89258,-1.81641 0.49219,-0.67382 0.49219,-1.27148 0,-0.62695 -0.45117,-1.05469 -0.44531,-0.43359 -1.16602,-0.43359 -0.76172,0 -1.21875,0.45703 -0.45703,0.45703 -0.46289,1.26563 l -1.08398,-0.11133 q 0.11133,-1.21289 0.83789,-1.84571 0.72656,-0.63867 1.95117,-0.63867 1.23633,0 1.95703,0.68555 0.7207,0.68555 0.7207,1.69922 0,0.51562 -0.21093,1.01367 -0.21094,0.49805 -0.70313,1.04883 -0.48633,0.55078 -1.62304,1.51172 -0.94922,0.79687 -1.21875,1.08398 -0.26954,0.28125 -0.44532,0.56836 l 4.21289,0 z"
             style="font-size:12px;font-family:Arial;text-anchor:middle;fill:#444444;stroke:none;stroke-width:0"
             id="path3465" />
          <path
             d="m 207.28195,255.96368 q 0,-1.52343 0.31055,-2.44921 0.31641,-0.93165 0.93164,-1.43555 0.62109,-0.50391 1.55859,-0.50391 0.69141,0 1.21289,0.28125 0.52149,0.27539 0.86133,0.80274 0.33985,0.52148 0.53321,1.27734 0.19335,0.75 0.19335,2.02734 0,1.51172 -0.31054,2.44336 -0.31055,0.92578 -0.93164,1.43555 -0.61524,0.50391 -1.5586,0.50391 -1.24218,0 -1.95117,-0.89063 -0.84961,-1.07226 -0.84961,-3.49219 z m 1.08399,0 q 0,2.11524 0.49218,2.81836 0.49805,0.69727 1.22461,0.69727 0.72657,0 1.21875,-0.70313 0.49805,-0.70312 0.49805,-2.8125 0,-2.12109 -0.49805,-2.81836 -0.49218,-0.69726 -1.23047,-0.69726 -0.72656,0 -1.16015,0.61523 -0.54492,0.78516 -0.54492,2.90039 z"
             style="font-size:12px;font-family:Arial;text-anchor:middle;fill:#444444;stroke:none;stroke-width:0"
             id="path3467" />
          <path
             d="m 214.53,260.20001 0,-1.20117 1.20117,0 0,1.20117 q 0,0.66211 -0.23437,1.06641 -0.23438,0.41015 -0.74414,0.63281 l -0.29297,-0.45117 q 0.33398,-0.14649 0.49218,-0.43359 0.15821,-0.28125 0.17579,-0.81446 l -0.59766,0 z"
             style="font-size:12px;font-family:Arial;text-anchor:middle;fill:#444444;stroke:none;stroke-width:0"
             id="path3469" />
          <path
             d="m 217.28976,255.96368 q 0,-1.52343 0.31055,-2.44921 0.31641,-0.93165 0.93164,-1.43555 0.6211,-0.50391 1.5586,-0.50391 0.6914,0 1.21289,0.28125 0.52148,0.27539 0.86132,0.80274 0.33985,0.52148 0.53321,1.27734 0.19336,0.75 0.19336,2.02734 0,1.51172 -0.31055,2.44336 -0.31055,0.92578 -0.93164,1.43555 -0.61523,0.50391 -1.55859,0.50391 -1.24219,0 -1.95118,-0.89063 -0.84961,-1.07226 -0.84961,-3.49219 z m 1.08399,0 q 0,2.11524 0.49219,2.81836 0.49804,0.69727 1.22461,0.69727 0.72656,0 1.21875,-0.70313 0.49804,-0.70312 0.49804,-2.8125 0,-2.12109 -0.49804,-2.81836 -0.49219,-0.69726 -1.23047,-0.69726 -0.72657,0 -1.16016,0.61523 -0.54492,0.78516 -0.54492,2.90039 z"
             style="font-size:12px;font-family:Arial;text-anchor:middle;fill:#444444;stroke:none;stroke-width:0"
             id="path3471" />
          <path
             d="m 223.96945,255.96368 q 0,-1.52343 0.31055,-2.44921 0.31641,-0.93165 0.93164,-1.43555 0.62109,-0.50391 1.55859,-0.50391 0.69141,0 1.21289,0.28125 0.52149,0.27539 0.86133,0.80274 0.33985,0.52148 0.53321,1.27734 0.19335,0.75 0.19335,2.02734 0,1.51172 -0.31054,2.44336 -0.31055,0.92578 -0.93164,1.43555 -0.61524,0.50391 -1.5586,0.50391 -1.24218,0 -1.95117,-0.89063 -0.84961,-1.07226 -0.84961,-3.49219 z m 1.08399,0 q 0,2.11524 0.49218,2.81836 0.49805,0.69727 1.22461,0.69727 0.72657,0 1.21875,-0.70313 0.49805,-0.70312 0.49805,-2.8125 0,-2.12109 -0.49805,-2.81836 -0.49218,-0.69726 -1.23047,-0.69726 -0.72656,0 -1.16015,0.61523 -0.54492,0.78516 -0.54492,2.90039 z"
             style="font-size:12px;font-family:Arial;text-anchor:middle;fill:#444444;stroke:none;stroke-width:0"
             id="path3473" />
          <path
             d="m 230.64914,255.96368 q 0,-1.52343 0.31055,-2.44921 0.3164,-0.93165 0.93164,-1.43555 0.62109,-0.50391 1.55859,-0.50391 0.69141,0 1.21289,0.28125 0.52149,0.27539 0.86133,0.80274 0.33984,0.52148 0.5332,1.27734 0.19336,0.75 0.19336,2.02734 0,1.51172 -0.31054,2.44336 -0.31055,0.92578 -0.93165,1.43555 -0.61523,0.50391 -1.55859,0.50391 -1.24219,0 -1.95117,-0.89063 -0.84961,-1.07226 -0.84961,-3.49219 z m 1.08398,0 q 0,2.11524 0.49219,2.81836 0.49805,0.69727 1.22461,0.69727 0.72656,0 1.21875,-0.70313 0.49805,-0.70312 0.49805,-2.8125 0,-2.12109 -0.49805,-2.81836 -0.49219,-0.69726 -1.23047,-0.69726 -0.72656,0 -1.16015,0.61523 -0.54493,0.78516 -0.54493,2.90039 z"
             style="font-size:12px;font-family:Arial;text-anchor:middle;fill:#444444;stroke:none;stroke-width:0"
             id="path3475" />
        </g>
      </g>
      <g
         id="g70">
        <g
           style="font-size:12px;font-family:Arial;text-anchor:middle;fill:#444444;stroke:none;stroke-width:0"
           id="text72">
          <path
             d="m 328.41733,260.20001 0,-2.05664 -3.72656,0 0,-0.9668 3.91992,-5.5664 0.86133,0 0,5.5664 1.16015,0 0,0.9668 -1.16015,0 0,2.05664 -1.05469,0 z m 0,-3.02344 0,-3.87304 -2.68946,3.87304 2.68946,0 z"
             style="font-size:12px;font-family:Arial;text-anchor:middle;fill:#444444;stroke:none;stroke-width:0"
             id="path3478" />
          <path
             d="m 331.71616,255.96368 q 0,-1.52343 0.31054,-2.44921 0.31641,-0.93165 0.93164,-1.43555 0.6211,-0.50391 1.5586,-0.50391 0.6914,0 1.21289,0.28125 0.52148,0.27539 0.86133,0.80274 0.33984,0.52148 0.5332,1.27734 0.19336,0.75 0.19336,2.02734 0,1.51172 -0.31055,2.44336 -0.31055,0.92578 -0.93164,1.43555 -0.61523,0.50391 -1.55859,0.50391 -1.24219,0 -1.95117,-0.89063 -0.84961,-1.07226 -0.84961,-3.49219 z m 1.08398,0 q 0,2.11524 0.49219,2.81836 0.49804,0.69727 1.22461,0.69727 0.72656,0 1.21875,-0.70313 0.49804,-0.70312 0.49804,-2.8125 0,-2.12109 -0.49804,-2.81836 -0.49219,-0.69726 -1.23047,-0.69726 -0.72656,0 -1.16016,0.61523 -0.54492,0.78516 -0.54492,2.90039 z"
             style="font-size:12px;font-family:Arial;text-anchor:middle;fill:#444444;stroke:none;stroke-width:0"
             id="path3480" />
          <path
             d="m 338.9642,260.20001 0,-1.20117 1.20117,0 0,1.20117 q 0,0.66211 -0.23437,1.06641 -0.23438,0.41015 -0.74414,0.63281 l -0.29297,-0.45117 q 0.33398,-0.14649 0.49219,-0.43359 0.1582,-0.28125 0.17578,-0.81446 l -0.59766,0 z"
             style="font-size:12px;font-family:Arial;text-anchor:middle;fill:#444444;stroke:none;stroke-width:0"
             id="path3482" />
          <path
             d="m 341.72397,255.96368 q 0,-1.52343 0.31055,-2.44921 0.3164,-0.93165 0.93164,-1.43555 0.62109,-0.50391 1.55859,-0.50391 0.69141,0 1.21289,0.28125 0.52148,0.27539 0.86133,0.80274 0.33984,0.52148 0.5332,1.27734 0.19336,0.75 0.19336,2.02734 0,1.51172 -0.31055,2.44336 -0.31054,0.92578 -0.93164,1.43555 -0.61523,0.50391 -1.55859,0.50391 -1.24219,0 -1.95117,-0.89063 -0.84961,-1.07226 -0.84961,-3.49219 z m 1.08398,0 q 0,2.11524 0.49219,2.81836 0.49805,0.69727 1.22461,0.69727 0.72656,0 1.21875,-0.70313 0.49805,-0.70312 0.49805,-2.8125 0,-2.12109 -0.49805,-2.81836 -0.49219,-0.69726 -1.23047,-0.69726 -0.72656,0 -1.16016,0.61523 -0.54492,0.78516 -0.54492,2.90039 z"
             style="font-size:12px;font-family:Arial;text-anchor:middle;fill:#444444;stroke:none;stroke-width:0"
             id="path3484" />
          <path
             d="m 348.40366,255.96368 q 0,-1.52343 0.31054,-2.44921 0.31641,-0.93165 0.93164,-1.43555 0.6211,-0.50391 1.5586,-0.50391 0.6914,0 1.21289,0.28125 0.52148,0.27539 0.86133,0.80274 0.33984,0.52148 0.5332,1.27734 0.19336,0.75 0.19336,2.02734 0,1.51172 -0.31055,2.44336 -0.31055,0.92578 -0.93164,1.43555 -0.61523,0.50391 -1.55859,0.50391 -1.24219,0 -1.95117,-0.89063 -0.84961,-1.07226 -0.84961,-3.49219 z m 1.08398,0 q 0,2.11524 0.49219,2.81836 0.49804,0.69727 1.22461,0.69727 0.72656,0 1.21875,-0.70313 0.49804,-0.70312 0.49804,-2.8125 0,-2.12109 -0.49804,-2.81836 -0.49219,-0.69726 -1.23047,-0.69726 -0.72656,0 -1.16016,0.61523 -0.54492,0.78516 -0.54492,2.90039 z"
             style="font-size:12px;font-family:Arial;text-anchor:middle;fill:#444444;stroke:none;stroke-width:0"
             id="path3486" />
          <path
             d="m 355.08334,255.96368 q 0,-1.52343 0.31055,-2.44921 0.31641,-0.93165 0.93164,-1.43555 0.62109,-0.50391 1.55859,-0.50391 0.69141,0 1.2129,0.28125 0.52148,0.27539 0.86132,0.80274 0.33985,0.52148 0.53321,1.27734 0.19336,0.75 0.19336,2.02734 0,1.51172 -0.31055,2.44336 -0.31055,0.92578 -0.93164,1.43555 -0.61524,0.50391 -1.5586,0.50391 -1.24218,0 -1.95117,-0.89063 -0.84961,-1.07226 -0.84961,-3.49219 z m 1.08399,0 q 0,2.11524 0.49219,2.81836 0.49804,0.69727 1.2246,0.69727 0.72657,0 1.21875,-0.70313 0.49805,-0.70312 0.49805,-2.8125 0,-2.12109 -0.49805,-2.81836 -0.49218,-0.69726 -1.23046,-0.69726 -0.72657,0 -1.16016,0.61523 -0.54492,0.78516 -0.54492,2.90039 z"
             style="font-size:12px;font-family:Arial;text-anchor:middle;fill:#444444;stroke:none;stroke-width:0"
             id="path3488" />
        </g>
      </g>
      <g
         id="g74">
        <g
           style="font-size:12px;font-family:Arial;text-anchor:end;fill:#444444;stroke:none;stroke-width:0"
           id="text76">
          <path
             d="m 75.818359,242.46367 q 0,-1.52344 0.310547,-2.44922 0.316406,-0.93164 0.931641,-1.43555 0.621094,-0.5039 1.558594,-0.5039 0.691406,0 1.21289,0.28125 0.521485,0.27539 0.861328,0.80273 0.339844,0.52149 0.533203,1.27735 0.19336,0.75 0.19336,2.02734 0,1.51172 -0.310547,2.44336 -0.310547,0.92578 -0.931641,1.43555 -0.615234,0.5039 -1.558593,0.5039 -1.242188,0 -1.951172,-0.89062 -0.84961,-1.07227 -0.84961,-3.49219 z m 1.083985,0 q 0,2.11523 0.492187,2.81836 0.498047,0.69726 1.22461,0.69726 0.726562,0 1.21875,-0.70312 0.498046,-0.70313 0.498046,-2.8125 0,-2.12109 -0.498046,-2.81836 -0.492188,-0.69727 -1.230469,-0.69727 -0.726563,0 -1.160156,0.61524 -0.544922,0.78515 -0.544922,2.90039 z"
             style="font-size:12px;font-family:Arial;text-anchor:end;fill:#444444;stroke:none;stroke-width:0"
             id="path3491" />
        </g>
      </g>
      <g
         id="g78">
        <g
           style="font-size:12px;font-family:Arial;text-anchor:end;fill:#444444;stroke:none;stroke-width:0"
           id="text80">
          <path
             d="m 73.111328,185.3667 -1.054687,0 0,-6.7207 q -0.38086,0.36328 -1.001954,0.72656 -0.615234,0.36328 -1.107421,0.54492 l 0,-1.01953 q 0.884765,-0.41602 1.546875,-1.00781 0.662109,-0.5918 0.9375,-1.14844 l 0.679687,0 0,8.625 z"
             style="font-size:12px;font-family:Arial;text-anchor:end;fill:#444444;stroke:none;stroke-width:0"
             id="path3494" />
          <path
             d="m 75.818359,181.13037 q 0,-1.52344 0.310547,-2.44922 0.316406,-0.93164 0.931641,-1.43554 0.621094,-0.50391 1.558594,-0.50391 0.691406,0 1.21289,0.28125 0.521485,0.27539 0.861328,0.80273 0.339844,0.52149 0.533203,1.27735 0.19336,0.75 0.19336,2.02734 0,1.51172 -0.310547,2.44336 -0.310547,0.92578 -0.931641,1.43555 -0.615234,0.5039 -1.558593,0.5039 -1.242188,0 -1.951172,-0.89062 -0.84961,-1.07227 -0.84961,-3.49219 z m 1.083985,0 q 0,2.11524 0.492187,2.81836 0.498047,0.69727 1.22461,0.69727 0.726562,0 1.21875,-0.70313 0.498046,-0.70312 0.498046,-2.8125 0,-2.12109 -0.498046,-2.81836 -0.492188,-0.69726 -1.230469,-0.69726 -0.726563,0 -1.160156,0.61523 -0.544922,0.78516 -0.544922,2.90039 z"
             style="font-size:12px;font-family:Arial;text-anchor:end;fill:#444444;stroke:none;stroke-width:0"
             id="path3496" />
        </g>
      </g>
      <g
         id="g82">
        <g
           style="font-size:12px;font-family:Arial;text-anchor:end;fill:#444444;stroke:none;stroke-width:0"
           id="text84">
          <path
             d="m 74.681641,123.01963 0,1.01367 -5.677735,0 q -0.01172,-0.38086 0.123047,-0.73242 0.216797,-0.58008 0.691406,-1.14258 0.480469,-0.5625 1.382813,-1.30078 1.40039,-1.14844 1.892578,-1.81641 0.492187,-0.67382 0.492187,-1.27148 0,-0.62695 -0.451171,-1.05469 -0.445313,-0.43359 -1.166016,-0.43359 -0.761719,0 -1.21875,0.45703 -0.457031,0.45703 -0.462891,1.26563 l -1.083984,-0.11133 q 0.111328,-1.21289 0.837891,-1.84571 0.726562,-0.63867 1.951171,-0.63867 1.236329,0 1.957032,0.68555 0.720703,0.68555 0.720703,1.69922 0,0.51562 -0.210938,1.01367 -0.210937,0.49805 -0.703125,1.04883 -0.486328,0.55078 -1.623047,1.51172 -0.949218,0.79687 -1.21875,1.08398 -0.269531,0.28125 -0.445312,0.56836 l 4.212891,0 z"
             style="font-size:12px;font-family:Arial;text-anchor:end;fill:#444444;stroke:none;stroke-width:0"
             id="path3499" />
          <path
             d="m 75.818359,119.79697 q 0,-1.52343 0.310547,-2.44921 0.316406,-0.93165 0.931641,-1.43555 0.621094,-0.50391 1.558594,-0.50391 0.691406,0 1.21289,0.28125 0.521485,0.27539 0.861328,0.80274 0.339844,0.52148 0.533203,1.27734 0.19336,0.75 0.19336,2.02734 0,1.51172 -0.310547,2.44336 -0.310547,0.92578 -0.931641,1.43555 -0.615234,0.50391 -1.558593,0.50391 -1.242188,0 -1.951172,-0.89063 -0.84961,-1.07226 -0.84961,-3.49219 z m 1.083985,0 q 0,2.11524 0.492187,2.81836 0.498047,0.69727 1.22461,0.69727 0.726562,0 1.21875,-0.70313 0.498046,-0.70312 0.498046,-2.8125 0,-2.12109 -0.498046,-2.81836 -0.492188,-0.69726 -1.230469,-0.69726 -0.726563,0 -1.160156,0.61523 -0.544922,0.78516 -0.544922,2.90039 z"
             style="font-size:12px;font-family:Arial;text-anchor:end;fill:#444444;stroke:none;stroke-width:0"
             id="path3501" />
        </g>
      </g>
      <g
         id="g86">
        <g
           style="font-size:12px;font-family:Arial;text-anchor:end;fill:#444444;stroke:none;stroke-width:0"
           id="text88">
          <path
             d="m 69.144531,60.432423 1.054688,-0.140625 q 0.18164,0.896484 0.615234,1.294922 0.439453,0.392578 1.066406,0.392578 0.744141,0 1.253907,-0.515625 0.515625,-0.515625 0.515625,-1.277344 0,-0.726563 -0.47461,-1.195313 -0.474609,-0.474609 -1.207031,-0.474609 -0.298828,0 -0.744141,0.117188 l 0.117188,-0.925782 q 0.105469,0.01172 0.169922,0.01172 0.673828,0 1.21289,-0.351562 0.539063,-0.351563 0.539063,-1.083985 0,-0.580078 -0.392578,-0.960937 -0.392578,-0.38086 -1.013672,-0.38086 -0.615235,0 -1.025391,0.386719 -0.410156,0.386719 -0.527344,1.160156 L 69.25,56.301563 q 0.193359,-1.060547 0.878906,-1.640625 0.685547,-0.585937 1.705078,-0.585937 0.703125,0 1.294922,0.304687 0.591797,0.298828 0.902344,0.820313 0.316406,0.521484 0.316406,1.107422 0,0.55664 -0.298828,1.013672 -0.298828,0.457031 -0.884766,0.726562 0.761719,0.175781 1.183594,0.732422 0.421875,0.550781 0.421875,1.382812 0,1.125 -0.820312,1.910157 -0.820313,0.779297 -2.074219,0.779297 -1.130859,0 -1.880859,-0.673829 Q 69.25,61.504688 69.144531,60.432423 Z"
             style="font-size:12px;font-family:Arial;text-anchor:end;fill:#444444;stroke:none;stroke-width:0"
             id="path3504" />
          <path
             d="m 75.818359,58.463673 q 0,-1.523438 0.310547,-2.449219 0.316406,-0.931641 0.931641,-1.435547 0.621094,-0.503906 1.558594,-0.503906 0.691406,0 1.21289,0.28125 0.521485,0.27539 0.861328,0.802734 0.339844,0.521485 0.533203,1.277344 0.19336,0.75 0.19336,2.027344 0,1.511718 -0.310547,2.443359 -0.310547,0.925781 -0.931641,1.435547 -0.615234,0.503906 -1.558593,0.503906 -1.242188,0 -1.951172,-0.890625 -0.84961,-1.072265 -0.84961,-3.492187 z m 1.083985,0 q 0,2.115234 0.492187,2.818359 0.498047,0.697266 1.22461,0.697266 0.726562,0 1.21875,-0.703125 0.498046,-0.703125 0.498046,-2.8125 0,-2.121094 -0.498046,-2.81836 -0.492188,-0.697265 -1.230469,-0.697265 -0.726563,0 -1.160156,0.615234 -0.544922,0.785156 -0.544922,2.900391 z"
             style="font-size:12px;font-family:Arial;text-anchor:end;fill:#444444;stroke:none;stroke-width:0"
             id="path3506" />
        </g>
      </g>
    </g>
  </g>
  <g
     id="g90">
    <g
       id="g92">
      <g
         style="font-style:italic;font-size:12px;font-family:Arial;text-anchor:middle;fill:#222222;stroke:none;stroke-width:0"
         id="text94">
        <path
           d="m 226.24805,285.20001 1.58789,-7.61133 -2.81836,0 0.20508,-0.97851 6.76171,0 -0.20507,0.97851 -2.79493,0 -1.58789,7.61133 -1.14843,0 z"
           style="font-style:italic;font-size:12px;font-family:Arial;text-anchor:middle;fill:#222222;stroke:none;stroke-width:0"
           id="path3431" />
        <path
           d="m 232.66992,277.81134 0.25195,-1.20117 1.05469,0 -0.25195,1.20117 -1.05469,0 z m -1.54687,7.38867 1.30078,-6.22265 1.06054,0 -1.30078,6.22265 -1.06054,0 z"
           style="font-style:italic;font-size:12px;font-family:Arial;text-anchor:middle;fill:#222222;stroke:none;stroke-width:0"
           id="path3433" />
        <path
           d="m 233.83008,285.20001 1.30078,-6.22265 1.06055,0 -0.2168,1.02539 q 0.5918,-0.66211 1.05469,-0.91407 0.46875,-0.25195 1.01367,-0.25195 0.58008,0 0.9668,0.31055 0.39257,0.30469 0.51562,0.85547 0.47461,-0.58594 0.99609,-0.87305 0.52735,-0.29297 1.10743,-0.29297 0.77929,0 1.16601,0.36914 0.39258,0.36914 0.39258,1.03711 0,0.28711 -0.13477,0.94922 l -0.83789,4.00781 -1.06054,0 0.85547,-4.11328 q 0.11132,-0.50391 0.11132,-0.7207 0,-0.30469 -0.19336,-0.48047 -0.19336,-0.17578 -0.54492,-0.17578 -0.47461,0 -0.96679,0.28711 -0.49219,0.28711 -0.76758,0.75586 -0.26953,0.46289 -0.47461,1.42968 l -0.63281,3.01758 -1.06055,0 0.8789,-4.20117 q 0.0937,-0.42773 0.0937,-0.60937 0,-0.30469 -0.19335,-0.49219 -0.1875,-0.1875 -0.49219,-0.1875 -0.45117,0 -0.94922,0.28711 -0.49219,0.28711 -0.80274,0.80273 -0.31054,0.50977 -0.50976,1.45899 l -0.61524,2.9414 -1.06054,0 z"
           style="font-style:italic;font-size:12px;font-family:Arial;text-anchor:middle;fill:#222222;stroke:none;stroke-width:0"
           id="path3435" />
        <path
           d="m 248.41406,283.08478 1.03125,0.10547 q -0.22265,0.76757 -1.02539,1.45898 -0.79687,0.69141 -1.9043,0.69141 -0.6914,0 -1.27148,-0.31641 -0.57422,-0.32226 -0.87891,-0.93164 -0.29882,-0.60937 -0.29882,-1.38867 0,-1.01953 0.46875,-1.97461 0.47461,-0.96094 1.22461,-1.42383 0.75,-0.46875 1.62304,-0.46875 1.11328,0 1.77539,0.69141 0.66797,0.6914 0.66797,1.88672 0,0.45703 -0.082,0.9375 l -4.58203,0 q -0.0234,0.18164 -0.0234,0.32812 0,0.87305 0.39844,1.33594 0.4043,0.45703 0.98437,0.45703 0.54493,0 1.07227,-0.35742 0.52734,-0.35742 0.82031,-1.03125 z m -3.08203,-1.54102 3.49219,0 q 0.006,-0.16406 0.006,-0.23437 0,-0.79688 -0.39844,-1.21875 -0.39844,-0.42774 -1.02539,-0.42774 -0.67969,0 -1.24219,0.46875 -0.55664,0.46875 -0.83203,1.41211 z"
           style="font-style:italic;font-size:12px;font-family:Arial;text-anchor:middle;fill:#222222;stroke:none;stroke-width:0"
           id="path3437" />
        <path
           d="m 255.38672,287.7254 q -0.91992,-2.01562 -0.91992,-4.14258 0,-1.41796 0.36914,-2.63671 0.375,-1.22461 1.13672,-2.41993 0.5039,-0.79687 1.61132,-2.0625 l 0.82618,0 q -0.68555,0.73243 -1.45313,2.0625 -0.76172,1.33008 -1.10742,2.61329 -0.3457,1.2832 -0.3457,2.57812 0,1.93359 0.67382,4.00781 l -0.79101,0 z"
           style="font-style:italic;font-size:12px;font-family:Arial;text-anchor:middle;fill:#222222;stroke:none;stroke-width:0"
           id="path3439" />
        <path
           d="m 257.85352,285.20001 1.30078,-6.22265 1.06054,0 -0.21679,1.02539 q 0.59179,-0.66211 1.05468,-0.91407 0.46875,-0.25195 1.01368,-0.25195 0.58007,0 0.96679,0.31055 0.39258,0.30469 0.51563,0.85547 0.47461,-0.58594 0.99609,-0.87305 0.52735,-0.29297 1.10742,-0.29297 0.7793,0 1.16602,0.36914 0.39258,0.36914 0.39258,1.03711 0,0.28711 -0.13477,0.94922 l -0.83789,4.00781 -1.06055,0 0.85547,-4.11328 q 0.11133,-0.50391 0.11133,-0.7207 0,-0.30469 -0.19336,-0.48047 -0.19336,-0.17578 -0.54492,-0.17578 -0.47461,0 -0.9668,0.28711 -0.49218,0.28711 -0.76758,0.75586 -0.26953,0.46289 -0.4746,1.42968 l -0.63282,3.01758 -1.06054,0 0.8789,-4.20117 q 0.0937,-0.42773 0.0937,-0.60937 0,-0.30469 -0.19336,-0.49219 -0.1875,-0.1875 -0.49218,-0.1875 -0.45118,0 -0.94922,0.28711 -0.49219,0.28711 -0.80274,0.80273 -0.31054,0.50977 -0.50976,1.45899 l -0.61524,2.9414 -1.06054,0 z"
           style="font-style:italic;font-size:12px;font-family:Arial;text-anchor:middle;fill:#222222;stroke:none;stroke-width:0"
           id="path3441" />
        <path
           d="m 267.9668,283.07306 1.06054,-0.0645 q 0,0.45703 0.14063,0.77929 0.14062,0.32227 0.51562,0.52735 0.38086,0.20507 0.88477,0.20507 0.70312,0 1.05469,-0.28125 0.35156,-0.28125 0.35156,-0.6621 0,-0.2754 -0.21094,-0.52149 -0.2168,-0.24609 -1.06055,-0.60351 -0.83789,-0.36329 -1.07226,-0.50977 -0.39258,-0.24023 -0.5918,-0.5625 -0.19922,-0.32813 -0.19922,-0.75 0,-0.73828 0.58594,-1.26563 0.58594,-0.52734 1.64063,-0.52734 1.17187,0 1.78125,0.54492 0.61523,0.53907 0.63867,1.42383 l -1.03711,0.0703 q -0.0234,-0.5625 -0.39844,-0.89062 -0.375,-0.32813 -1.06055,-0.32813 -0.55078,0 -0.85546,0.25196 -0.30469,0.25195 -0.30469,0.54492 0,0.29297 0.26367,0.51562 0.17578,0.15235 0.9082,0.46875 1.21875,0.52735 1.53516,0.83203 0.50391,0.48633 0.50391,1.1836 0,0.46289 -0.28711,0.9082 -0.28125,0.44531 -0.86719,0.71485 -0.58008,0.26367 -1.3711,0.26367 -1.07812,0 -1.83398,-0.53321 -0.75586,-0.5332 -0.71484,-1.73437 z"
           style="font-style:italic;font-size:12px;font-family:Arial;text-anchor:middle;fill:#222222;stroke:none;stroke-width:0"
           id="path3443" />
        <path
           d="m 275.84766,276.46368 q 0.92578,2.01563 0.92578,4.13672 0,1.42383 -0.375,2.64258 -0.36914,1.21875 -1.13086,2.41992 -0.50977,0.79688 -1.61133,2.0625 l -0.82617,0 q 0.67969,-0.73828 1.44726,-2.06836 0.76758,-1.33007 1.10743,-2.60742 0.3457,-1.2832 0.3457,-2.58398 0,-1.9336 -0.67383,-4.00196 l 0.79102,0 z"
           style="font-style:italic;font-size:12px;font-family:Arial;text-anchor:middle;fill:#222222;stroke:none;stroke-width:0"
           id="path3445" />
      </g>
      <path
         style="fill:#ffffff;fill-opacity:0;stroke:none;stroke-width:0"
         d="m 94,275 313,0 0,12 -313,0 z"
         id="rect96" />
    </g>
  </g>
  <g
     id="g98" />
</svg>
