<?xml version="1.0" encoding="UTF-8" standalone="no"?>
<svg
   xmlns:dc="http://purl.org/dc/elements/1.1/"
   xmlns:cc="http://creativecommons.org/ns#"
   xmlns:rdf="http://www.w3.org/1999/02/22-rdf-syntax-ns#"
   xmlns:svg="http://www.w3.org/2000/svg"
   xmlns="http://www.w3.org/2000/svg"
   xmlns:sodipodi="http://sodipodi.sourceforge.net/DTD/sodipodi-0.dtd"
   xmlns:inkscape="http://www.inkscape.org/namespaces/inkscape"
   width="500"
   height="300"
   aria-label="A chart."
   style="overflow: hidden;"
   id="svg2"
   version="1.1"
   inkscape:version="0.91 r13725"
   sodipodi:docname="distance04.svg">
  <metadata
     id="metadata108">
    <rdf:RDF>
      <cc:Work
         rdf:about="">
        <dc:format>image/svg+xml</dc:format>
        <dc:type
           rdf:resource="http://purl.org/dc/dcmitype/StillImage" />
      </cc:Work>
    </rdf:RDF>
  </metadata>
  <sodipodi:namedview
     pagecolor="#ffffff"
     bordercolor="#666666"
     borderopacity="1"
     objecttolerance="10"
     gridtolerance="10"
     guidetolerance="10"
     inkscape:pageopacity="0"
     inkscape:pageshadow="2"
     inkscape:window-width="640"
     inkscape:window-height="480"
     id="namedview106"
     showgrid="false"
     inkscape:zoom="0.606"
     inkscape:cx="221.12211"
     inkscape:cy="150"
     inkscape:window-x="0"
     inkscape:window-y="0"
     inkscape:window-maximized="0"
     inkscape:current-layer="svg2" />
  <defs
     id="_ABSTRACT_RENDERER_ID_6">
    <clipPath
       id="_ABSTRACT_RENDERER_ID_7">
      <rect
         x="94"
         y="58"
         width="313"
         height="185"
         id="rect6" />
    </clipPath>
  </defs>
  <path
     style="fill:#ffffff;stroke:none;stroke-width:0"
     d="m 0,0 500,0 0,300 -500,0 z"
     id="rect8" />
  <g
     id="g10">
    <g
       style="font-weight:bold;font-size:12px;font-family:Arial;text-anchor:start;fill:#000000;stroke:none;stroke-width:0"
       id="text12">
      <path
         d="m 94.867187,28.610157 3.169922,0 q 1.072266,0 1.634766,0.164063 0.755855,0.222656 1.294925,0.791015 0.53906,0.56836 0.82031,1.394531 0.28125,0.820313 0.28125,2.027344 0,1.060547 -0.26367,1.828125 -0.32227,0.9375 -0.91992,1.517578 -0.45118,0.439453 -1.218754,0.685547 -0.574219,0.181641 -1.535157,0.181641 l -3.263672,0 0,-8.589844 z m 1.734375,1.453125 0,5.689453 1.294922,0 q 0.726563,0 1.048828,-0.08203 0.421875,-0.105469 0.697266,-0.357422 0.28125,-0.251953 0.457032,-0.826172 0.17578,-0.580078 0.17578,-1.576172 0,-0.996093 -0.17578,-1.529297 -0.175782,-0.533203 -0.492188,-0.832031 -0.316406,-0.298828 -0.802735,-0.404297 -0.363281,-0.08203 -1.423828,-0.08203 l -0.779297,0 z"
         style="font-weight:bold;font-size:12px;font-family:Arial;text-anchor:start;fill:#000000;stroke:none;stroke-width:0"
         id="path3529" />
      <path
         d="m 103.5332,30.133595 0,-1.523438 1.64649,0 0,1.523438 -1.64649,0 z m 0,7.066406 0,-6.222656 1.64649,0 0,6.222656 -1.64649,0 z"
         style="font-weight:bold;font-size:12px;font-family:Arial;text-anchor:start;fill:#000000;stroke:none;stroke-width:0"
         id="path3531" />
      <path
         d="m 106.28125,35.42461 1.65234,-0.251953 q 0.10547,0.480469 0.42774,0.732422 0.32226,0.246094 0.90234,0.246094 0.63867,0 0.96094,-0.234375 0.2168,-0.164063 0.2168,-0.439453 0,-0.1875 -0.11719,-0.310547 -0.12305,-0.117188 -0.55078,-0.216797 -1.99219,-0.439453 -2.52539,-0.802735 -0.73828,-0.503906 -0.73828,-1.40039 0,-0.808594 0.63867,-1.359375 0.63867,-0.550781 1.98047,-0.550781 1.27734,0 1.89843,0.416015 0.6211,0.416016 0.85547,1.230469 l -1.55273,0.287109 q -0.0996,-0.363281 -0.38086,-0.55664 -0.27539,-0.19336 -0.79102,-0.19336 -0.65039,0 -0.93164,0.181641 -0.1875,0.128906 -0.1875,0.333984 0,0.175782 0.16407,0.298828 0.22265,0.164063 1.53515,0.462891 1.31836,0.298828 1.83985,0.732422 0.51562,0.439453 0.51562,1.224609 0,0.855469 -0.71484,1.470703 -0.71485,0.615235 -2.11524,0.615235 -1.27148,0 -2.01562,-0.515625 -0.73828,-0.515625 -0.9668,-1.400391 z"
         style="font-weight:bold;font-size:12px;font-family:Arial;text-anchor:start;fill:#000000;stroke:none;stroke-width:0"
         id="path3533" />
      <path
         d="m 116.39453,30.977345 0,1.3125 -1.125,0 0,2.507812 q 0,0.761719 0.0293,0.890625 0.0352,0.123047 0.14648,0.205078 0.11719,0.08203 0.28125,0.08203 0.22852,0 0.66211,-0.158203 l 0.14063,1.277344 q -0.57422,0.246094 -1.30078,0.246094 -0.44532,0 -0.80274,-0.146485 -0.35742,-0.152343 -0.52734,-0.386718 -0.16406,-0.240235 -0.22852,-0.644532 -0.0527,-0.287109 -0.0527,-1.160156 l 0,-2.71289 -0.75586,0 0,-1.3125 0.75586,0 0,-1.236329 1.65234,-0.960937 0,2.197266 1.125,0 z"
         style="font-weight:bold;font-size:12px;font-family:Arial;text-anchor:start;fill:#000000;stroke:none;stroke-width:0"
         id="path3535" />
      <path
         d="m 118.7793,32.875782 -1.49414,-0.269531 q 0.25195,-0.902344 0.86718,-1.335938 0.61524,-0.433593 1.82813,-0.433593 1.10156,0 1.64062,0.263671 0.53907,0.257813 0.75586,0.66211 0.22266,0.398437 0.22266,1.470703 l -0.0176,1.921875 q 0,0.820312 0.0762,1.212891 0.082,0.386718 0.29883,0.832031 l -1.6289,0 q -0.0645,-0.164063 -0.15821,-0.486328 -0.041,-0.146485 -0.0586,-0.19336 -0.42188,0.410157 -0.90235,0.615235 -0.48046,0.205078 -1.02539,0.205078 -0.96093,0 -1.51757,-0.521485 -0.55079,-0.521484 -0.55079,-1.318359 0,-0.527344 0.25196,-0.9375 0.25195,-0.416016 0.70312,-0.632812 0.45703,-0.222657 1.3125,-0.386719 1.1543,-0.216797 1.59961,-0.404297 l 0,-0.164063 q 0,-0.474609 -0.23437,-0.673828 -0.23438,-0.205078 -0.88477,-0.205078 -0.43945,0 -0.68555,0.175781 -0.24609,0.169922 -0.39843,0.603516 z m 2.20312,1.335938 q -0.3164,0.105468 -1.00195,0.251953 -0.68555,0.146484 -0.89649,0.287109 -0.32226,0.228516 -0.32226,0.580078 0,0.345703 0.25781,0.597656 0.25781,0.251954 0.65625,0.251954 0.44531,0 0.84961,-0.292969 0.29883,-0.222656 0.39258,-0.544922 0.0645,-0.210938 0.0645,-0.802734 l 0,-0.328125 z"
         style="font-weight:bold;font-size:12px;font-family:Arial;text-anchor:start;fill:#000000;stroke:none;stroke-width:0"
         id="path3537" />
      <path
         d="m 129.88867,37.200001 -1.64648,0 0,-3.175781 q 0,-1.007813 -0.10547,-1.300782 -0.10547,-0.298828 -0.3457,-0.46289 -0.23438,-0.164063 -0.56836,-0.164063 -0.42774,0 -0.76758,0.234375 -0.33985,0.234375 -0.46875,0.621094 -0.12305,0.386719 -0.12305,1.429687 l 0,2.81836 -1.64648,0 0,-6.222656 1.52929,0 0,0.914062 q 0.81446,-1.054687 2.05079,-1.054687 0.54492,0 0.99609,0.199218 0.45117,0.19336 0.67969,0.498047 0.23437,0.304688 0.32226,0.691406 0.0937,0.386719 0.0937,1.107422 l 0,3.867188 z"
         style="font-weight:bold;font-size:12px;font-family:Arial;text-anchor:start;fill:#000000;stroke:none;stroke-width:0"
         id="path3539" />
      <path
         d="m 136.99023,32.817188 -1.62304,0.292969 q -0.082,-0.486328 -0.375,-0.732422 -0.28711,-0.246094 -0.75,-0.246094 -0.61524,0 -0.98438,0.427735 -0.36328,0.421875 -0.36328,1.417969 0,1.107421 0.36914,1.564453 0.375,0.457031 1.00195,0.457031 0.46875,0 0.76758,-0.263672 0.29883,-0.269531 0.42188,-0.919922 l 1.61719,0.275391 q -0.25196,1.113281 -0.9668,1.68164 -0.71485,0.56836 -1.91602,0.56836 -1.36523,0 -2.17968,-0.861328 -0.8086,-0.861328 -0.8086,-2.384766 0,-1.541016 0.81445,-2.396484 0.81446,-0.861328 2.20313,-0.861328 1.13672,0 1.80469,0.492187 0.67383,0.486328 0.96679,1.488281 z"
         style="font-weight:bold;font-size:12px;font-family:Arial;text-anchor:start;fill:#000000;stroke:none;stroke-width:0"
         id="path3541" />
      <path
         d="m 141.82422,35.219532 1.64062,0.275391 q -0.3164,0.902343 -1.00195,1.376953 -0.67969,0.46875 -1.70508,0.46875 -1.62304,0 -2.40234,-1.060547 -0.61524,-0.849609 -0.61524,-2.144531 0,-1.546875 0.8086,-2.419922 0.80859,-0.878906 2.04492,-0.878906 1.38867,0 2.19141,0.919921 0.80273,0.914063 0.76757,2.806641 l -4.125,0 q 0.0176,0.732422 0.39844,1.142578 0.38086,0.404297 0.94922,0.404297 0.38672,0 0.65039,-0.210937 0.26367,-0.210938 0.39844,-0.679688 z m 0.0937,-1.664062 q -0.0176,-0.714844 -0.36914,-1.083985 -0.35156,-0.375 -0.85547,-0.375 -0.53906,0 -0.89063,0.392578 -0.35156,0.392578 -0.3457,1.066407 l 2.46094,0 z"
         style="font-weight:bold;font-size:12px;font-family:Arial;text-anchor:start;fill:#000000;stroke:none;stroke-width:0"
         id="path3543" />
      <path
         d="m 148.24609,28.610157 3.4336,0 q 1.01953,0 1.51758,0.08789 0.5039,0.08203 0.89648,0.351562 0.39844,0.269531 0.66211,0.720703 0.26367,0.445313 0.26367,1.001953 0,0.603516 -0.32812,1.107422 -0.32227,0.503907 -0.87891,0.75586 0.78516,0.228515 1.20703,0.779297 0.42188,0.550781 0.42188,1.294921 0,0.585938 -0.27539,1.142579 -0.26954,0.550781 -0.74415,0.884765 -0.46875,0.328125 -1.16015,0.404297 -0.4336,0.04687 -2.0918,0.05859 l -2.92383,0 0,-8.589844 z m 1.73438,1.429688 0,1.986328 1.13672,0 q 1.01367,0 1.25976,-0.0293 0.44532,-0.05274 0.69727,-0.304688 0.25781,-0.257812 0.25781,-0.673828 0,-0.398437 -0.22266,-0.644531 -0.21679,-0.251953 -0.65039,-0.304688 -0.25781,-0.0293 -1.48242,-0.0293 l -0.99609,0 z m 0,3.416015 0,2.296875 1.60547,0 q 0.9375,0 1.18945,-0.05273 0.38672,-0.07031 0.62695,-0.339844 0.2461,-0.275391 0.2461,-0.732422 0,-0.386719 -0.1875,-0.65625 -0.1875,-0.269531 -0.54492,-0.392578 -0.35157,-0.123047 -1.53516,-0.123047 l -1.40039,0 z"
         style="font-weight:bold;font-size:12px;font-family:Arial;text-anchor:start;fill:#000000;stroke:none;stroke-width:0"
         id="path3545" />
      <path
         d="m 160.48047,35.219532 1.64062,0.275391 q -0.3164,0.902343 -1.00195,1.376953 -0.67969,0.46875 -1.70508,0.46875 -1.62304,0 -2.40234,-1.060547 -0.61524,-0.849609 -0.61524,-2.144531 0,-1.546875 0.8086,-2.419922 0.80859,-0.878906 2.04492,-0.878906 1.38867,0 2.19141,0.919921 0.80273,0.914063 0.76757,2.806641 l -4.125,0 q 0.0176,0.732422 0.39844,1.142578 0.38086,0.404297 0.94922,0.404297 0.38672,0 0.65039,-0.210937 0.26367,-0.210938 0.39844,-0.679688 z m 0.0937,-1.664062 q -0.0176,-0.714844 -0.36914,-1.083985 -0.35156,-0.375 -0.85547,-0.375 -0.53906,0 -0.89063,0.392578 -0.35156,0.392578 -0.3457,1.066407 l 2.46094,0 z"
         style="font-weight:bold;font-size:12px;font-family:Arial;text-anchor:start;fill:#000000;stroke:none;stroke-width:0"
         id="path3547" />
      <path
         d="m 166.41016,30.977345 0,1.3125 -1.125,0 0,2.507812 q 0,0.761719 0.0293,0.890625 0.0352,0.123047 0.14649,0.205078 0.11718,0.08203 0.28125,0.08203 0.22851,0 0.66211,-0.158203 l 0.14062,1.277344 q -0.57422,0.246094 -1.30078,0.246094 -0.44531,0 -0.80273,-0.146485 -0.35743,-0.152343 -0.52735,-0.386718 -0.16406,-0.240235 -0.22851,-0.644532 -0.0527,-0.287109 -0.0527,-1.160156 l 0,-2.71289 -0.75586,0 0,-1.3125 0.75586,0 0,-1.236329 1.65235,-0.960937 0,2.197266 1.125,0 z"
         style="font-weight:bold;font-size:12px;font-family:Arial;text-anchor:start;fill:#000000;stroke:none;stroke-width:0"
         id="path3549" />
      <path
         d="m 168.72461,37.200001 -1.96875,-6.222656 1.59961,0 1.16601,4.078125 1.07227,-4.078125 1.58789,0 1.03711,4.078125 1.18945,-4.078125 1.62305,0 -1.99805,6.222656 -1.58203,0 -1.07226,-4.001953 -1.05469,4.001953 -1.59961,0 z"
         style="font-weight:bold;font-size:12px;font-family:Arial;text-anchor:start;fill:#000000;stroke:none;stroke-width:0"
         id="path3551" />
      <path
         d="m 180.49609,35.219532 1.64063,0.275391 q -0.31641,0.902343 -1.00195,1.376953 -0.67969,0.46875 -1.70508,0.46875 -1.62305,0 -2.40235,-1.060547 -0.61523,-0.849609 -0.61523,-2.144531 0,-1.546875 0.80859,-2.419922 0.8086,-0.878906 2.04492,-0.878906 1.38868,0 2.19141,0.919921 0.80274,0.914063 0.76758,2.806641 l -4.125,0 q 0.0176,0.732422 0.39844,1.142578 0.38086,0.404297 0.94922,0.404297 0.38671,0 0.65039,-0.210937 0.26367,-0.210938 0.39843,-0.679688 z m 0.0937,-1.664062 q -0.0176,-0.714844 -0.36914,-1.083985 -0.35156,-0.375 -0.85547,-0.375 -0.53906,0 -0.89062,0.392578 -0.35156,0.392578 -0.3457,1.066407 l 2.46093,0 z"
         style="font-weight:bold;font-size:12px;font-family:Arial;text-anchor:start;fill:#000000;stroke:none;stroke-width:0"
         id="path3553" />
      <path
         d="m 187.17578,35.219532 1.64063,0.275391 q -0.31641,0.902343 -1.00196,1.376953 -0.67968,0.46875 -1.70508,0.46875 -1.62304,0 -2.40234,-1.060547 -0.61523,-0.849609 -0.61523,-2.144531 0,-1.546875 0.80859,-2.419922 0.80859,-0.878906 2.04492,-0.878906 1.38867,0 2.19141,0.919921 0.80273,0.914063 0.76758,2.806641 l -4.125,0 q 0.0176,0.732422 0.39843,1.142578 0.38086,0.404297 0.94922,0.404297 0.38672,0 0.65039,-0.210937 0.26368,-0.210938 0.39844,-0.679688 z m 0.0937,-1.664062 q -0.0176,-0.714844 -0.36914,-1.083985 -0.35156,-0.375 -0.85547,-0.375 -0.53906,0 -0.89062,0.392578 -0.35157,0.392578 -0.34571,1.066407 l 2.46094,0 z"
         style="font-weight:bold;font-size:12px;font-family:Arial;text-anchor:start;fill:#000000;stroke:none;stroke-width:0"
         id="path3555" />
      <path
         d="m 195.91211,37.200001 -1.64649,0 0,-3.175781 q 0,-1.007813 -0.10546,-1.300782 -0.10547,-0.298828 -0.34571,-0.46289 -0.23437,-0.164063 -0.56836,-0.164063 -0.42773,0 -0.76757,0.234375 -0.33985,0.234375 -0.46875,0.621094 -0.12305,0.386719 -0.12305,1.429687 l 0,2.81836 -1.64649,0 0,-6.222656 1.5293,0 0,0.914062 q 0.81445,-1.054687 2.05078,-1.054687 0.54492,0 0.9961,0.199218 0.45117,0.19336 0.67968,0.498047 0.23438,0.304688 0.32227,0.691406 0.0937,0.386719 0.0937,1.107422 l 0,3.867188 z"
         style="font-weight:bold;font-size:12px;font-family:Arial;text-anchor:start;fill:#000000;stroke:none;stroke-width:0"
         id="path3557" />
      <path
         d="m 208.22852,37.200001 -1.88672,0 -0.75,-1.951172 -3.4336,0 -0.70898,1.951172 -1.83985,0 3.34571,-8.589844 1.83398,0 3.43946,8.589844 z m -3.19336,-3.398438 -1.1836,-3.1875 -1.16015,3.1875 2.34375,0 z"
         style="font-weight:bold;font-size:12px;font-family:Arial;text-anchor:start;fill:#000000;stroke:none;stroke-width:0"
         id="path3559" />
      <path
         d="m 208.99023,37.610157 1.88086,0.228516 q 0.0469,0.328125 0.2168,0.451172 0.23438,0.175781 0.73828,0.175781 0.64453,0 0.9668,-0.19336 0.2168,-0.128906 0.32812,-0.416015 0.0762,-0.205078 0.0762,-0.75586 l 0,-0.908203 q -0.73829,1.007813 -1.86329,1.007813 -1.2539,0 -1.98632,-1.060547 -0.57422,-0.837891 -0.57422,-2.085938 0,-1.564453 0.75,-2.390625 0.75586,-0.826171 1.875,-0.826171 1.15429,0 1.90429,1.013671 l 0,-0.873046 1.54102,0 0,5.583984 q 0,1.101562 -0.18164,1.646484 -0.18164,0.544922 -0.50977,0.855469 -0.32812,0.310547 -0.8789,0.486328 -0.54492,0.175781 -1.38282,0.175781 -1.58203,0 -2.24414,-0.544921 -0.66211,-0.539063 -0.66211,-1.371094 0,-0.08203 0.006,-0.199219 z m 1.47071,-3.650391 q 0,0.990235 0.38086,1.453125 0.38672,0.457032 0.94922,0.457032 0.60351,0 1.01953,-0.46875 0.41601,-0.47461 0.41601,-1.400391 0,-0.966797 -0.39844,-1.435547 -0.39843,-0.46875 -1.00781,-0.46875 -0.59179,0 -0.97851,0.462891 -0.38086,0.457031 -0.38086,1.40039 z"
         style="font-weight:bold;font-size:12px;font-family:Arial;text-anchor:start;fill:#000000;stroke:none;stroke-width:0"
         id="path3561" />
      <path
         d="m 220.08203,35.219532 1.64063,0.275391 q -0.31641,0.902343 -1.00196,1.376953 -0.67968,0.46875 -1.70508,0.46875 -1.62304,0 -2.40234,-1.060547 -0.61523,-0.849609 -0.61523,-2.144531 0,-1.546875 0.80859,-2.419922 0.80859,-0.878906 2.04492,-0.878906 1.38867,0 2.19141,0.919921 0.80273,0.914063 0.76758,2.806641 l -4.125,0 q 0.0176,0.732422 0.39843,1.142578 0.38086,0.404297 0.94922,0.404297 0.38672,0 0.65039,-0.210937 0.26368,-0.210938 0.39844,-0.679688 z m 0.0937,-1.664062 q -0.0176,-0.714844 -0.36914,-1.083985 -0.35156,-0.375 -0.85547,-0.375 -0.53906,0 -0.89062,0.392578 -0.35157,0.392578 -0.34571,1.066407 l 2.46094,0 z"
         style="font-weight:bold;font-size:12px;font-family:Arial;text-anchor:start;fill:#000000;stroke:none;stroke-width:0"
         id="path3563" />
      <path
         d="m 228.81836,37.200001 -1.64649,0 0,-3.175781 q 0,-1.007813 -0.10546,-1.300782 -0.10547,-0.298828 -0.34571,-0.46289 -0.23437,-0.164063 -0.56836,-0.164063 -0.42773,0 -0.76757,0.234375 -0.33985,0.234375 -0.46875,0.621094 -0.12305,0.386719 -0.12305,1.429687 l 0,2.81836 -1.64649,0 0,-6.222656 1.5293,0 0,0.914062 q 0.81445,-1.054687 2.05078,-1.054687 0.54492,0 0.9961,0.199218 0.45117,0.19336 0.67968,0.498047 0.23438,0.304688 0.32227,0.691406 0.0937,0.386719 0.0937,1.107422 l 0,3.867188 z"
         style="font-weight:bold;font-size:12px;font-family:Arial;text-anchor:start;fill:#000000;stroke:none;stroke-width:0"
         id="path3565" />
      <path
         d="m 233.34766,30.977345 0,1.3125 -1.125,0 0,2.507812 q 0,0.761719 0.0293,0.890625 0.0352,0.123047 0.14649,0.205078 0.11718,0.08203 0.28125,0.08203 0.22851,0 0.66211,-0.158203 l 0.14062,1.277344 q -0.57422,0.246094 -1.30078,0.246094 -0.44531,0 -0.80273,-0.146485 -0.35743,-0.152343 -0.52735,-0.386718 -0.16406,-0.240235 -0.22851,-0.644532 -0.0527,-0.287109 -0.0527,-1.160156 l 0,-2.71289 -0.75586,0 0,-1.3125 0.75586,0 0,-1.236329 1.65235,-0.960937 0,2.197266 1.125,0 z"
         style="font-weight:bold;font-size:12px;font-family:Arial;text-anchor:start;fill:#000000;stroke:none;stroke-width:0"
         id="path3567" />
      <path
         d="m 233.92187,35.42461 1.65235,-0.251953 q 0.10547,0.480469 0.42773,0.732422 0.32227,0.246094 0.90235,0.246094 0.63867,0 0.96093,-0.234375 0.2168,-0.164063 0.2168,-0.439453 0,-0.1875 -0.11719,-0.310547 -0.12304,-0.117188 -0.55078,-0.216797 -1.99219,-0.439453 -2.52539,-0.802735 -0.73828,-0.503906 -0.73828,-1.40039 0,-0.808594 0.63867,-1.359375 0.63867,-0.550781 1.98047,-0.550781 1.27734,0 1.89844,0.416015 0.62109,0.416016 0.85547,1.230469 l -1.55274,0.287109 q -0.0996,-0.363281 -0.38086,-0.55664 -0.27539,-0.19336 -0.79101,-0.19336 -0.65039,0 -0.93164,0.181641 -0.1875,0.128906 -0.1875,0.333984 0,0.175782 0.16406,0.298828 0.22266,0.164063 1.53516,0.462891 1.31836,0.298828 1.83984,0.732422 0.51562,0.439453 0.51562,1.224609 0,0.855469 -0.71484,1.470703 -0.71484,0.615235 -2.11523,0.615235 -1.27149,0 -2.01563,-0.515625 -0.73828,-0.515625 -0.9668,-1.400391 z"
         style="font-weight:bold;font-size:12px;font-family:Arial;text-anchor:start;fill:#000000;stroke:none;stroke-width:0"
         id="path3569" />
      <path
         d="m 244.49805,37.200001 0,-8.589844 2.5957,0 1.55859,5.859375 1.54102,-5.859375 2.60156,0 0,8.589844 -1.61133,0 0,-6.761719 -1.70507,6.761719 -1.66993,0 -1.69922,-6.761719 0,6.761719 -1.61132,0 z"
         style="font-weight:bold;font-size:12px;font-family:Arial;text-anchor:start;fill:#000000;stroke:none;stroke-width:0"
         id="path3571" />
      <path
         d="m 254.11328,34.000782 q 0,-0.820312 0.4043,-1.587891 0.40429,-0.767578 1.14258,-1.171875 0.74414,-0.404296 1.6582,-0.404296 1.41211,0 2.31445,0.919921 0.90235,0.914063 0.90235,2.314454 0,1.412109 -0.91407,2.34375 -0.9082,0.925781 -2.29101,0.925781 -0.85547,0 -1.63477,-0.386719 -0.77344,-0.386719 -1.17773,-1.130859 -0.4043,-0.75 -0.4043,-1.822266 z m 1.6875,0.08789 q 0,0.925781 0.43945,1.417968 0.43946,0.492188 1.08399,0.492188 0.64453,0 1.07812,-0.492188 0.43946,-0.492187 0.43946,-1.429687 0,-0.914063 -0.43946,-1.40625 -0.43359,-0.492188 -1.07812,-0.492188 -0.64453,0 -1.08399,0.492188 -0.43945,0.492187 -0.43945,1.417969 z"
         style="font-weight:bold;font-size:12px;font-family:Arial;text-anchor:start;fill:#000000;stroke:none;stroke-width:0"
         id="path3573" />
      <path
         d="m 267.51367,37.200001 -1.5293,0 0,-0.914063 q -0.38085,0.533203 -0.90234,0.796875 -0.51562,0.257813 -1.04297,0.257813 -1.07226,0 -1.83984,-0.861328 -0.76172,-0.867188 -0.76172,-2.414063 0,-1.582031 0.74414,-2.402344 0.74414,-0.826171 1.88086,-0.826171 1.04297,0 1.80469,0.867187 l 0,-3.09375 1.64648,0 0,8.589844 z m -4.39453,-3.246094 q 0,0.996094 0.27539,1.441406 0.39844,0.644532 1.11328,0.644532 0.56836,0 0.9668,-0.480469 0.39844,-0.486328 0.39844,-1.447266 0,-1.072265 -0.38672,-1.541015 -0.38672,-0.47461 -0.99024,-0.47461 -0.58593,0 -0.98437,0.46875 -0.39258,0.462891 -0.39258,1.388672 z"
         style="font-weight:bold;font-size:12px;font-family:Arial;text-anchor:start;fill:#000000;stroke:none;stroke-width:0"
         id="path3575" />
      <path
         d="m 272.74609,35.219532 1.64063,0.275391 q -0.31641,0.902343 -1.00195,1.376953 -0.67969,0.46875 -1.70508,0.46875 -1.62305,0 -2.40235,-1.060547 -0.61523,-0.849609 -0.61523,-2.144531 0,-1.546875 0.80859,-2.419922 0.8086,-0.878906 2.04492,-0.878906 1.38868,0 2.19141,0.919921 0.80274,0.914063 0.76758,2.806641 l -4.125,0 q 0.0176,0.732422 0.39844,1.142578 0.38086,0.404297 0.94922,0.404297 0.38671,0 0.65039,-0.210937 0.26367,-0.210938 0.39843,-0.679688 z m 0.0937,-1.664062 q -0.0176,-0.714844 -0.36914,-1.083985 -0.35156,-0.375 -0.85547,-0.375 -0.53906,0 -0.89062,0.392578 -0.35156,0.392578 -0.3457,1.066407 l 2.46093,0 z"
         style="font-weight:bold;font-size:12px;font-family:Arial;text-anchor:start;fill:#000000;stroke:none;stroke-width:0"
         id="path3577" />
      <path
         d="m 275.82227,37.200001 0,-8.589844 1.64648,0 0,8.589844 -1.64648,0 z"
         style="font-weight:bold;font-size:12px;font-family:Arial;text-anchor:start;fill:#000000;stroke:none;stroke-width:0"
         id="path3579" />
      <path
         d="m 284.91016,28.575001 q 1.24804,0 1.95117,0.890625 0.83789,1.054687 0.83789,3.498047 0,2.4375 -0.84375,3.503906 -0.69727,0.878906 -1.94531,0.878906 -1.25391,0 -2.02149,-0.960937 -0.76758,-0.966797 -0.76758,-3.439453 0,-2.425782 0.84375,-3.492188 0.69727,-0.878906 1.94532,-0.878906 z m 0,1.365234 q -0.29883,0 -0.53321,0.19336 -0.23437,0.1875 -0.36328,0.679687 -0.16992,0.638672 -0.16992,2.150391 0,1.511718 0.15234,2.080078 0.15235,0.5625 0.38086,0.75 0.23438,0.1875 0.53321,0.1875 0.29882,0 0.5332,-0.1875 0.23437,-0.19336 0.36328,-0.685547 0.16992,-0.632813 0.16992,-2.144531 0,-1.511719 -0.15234,-2.074219 -0.15235,-0.568359 -0.38672,-0.755859 -0.22852,-0.19336 -0.52734,-0.19336 z"
         style="font-weight:bold;font-size:12px;font-family:Arial;text-anchor:start;fill:#000000;stroke:none;stroke-width:0"
         id="path3581" />
      <path
         d="m 292.03516,37.200001 0,-1.728516 -3.51563,0 0,-1.441406 3.72656,-5.455078 1.38282,0 0,5.449219 1.0664,0 0,1.447265 -1.0664,0 0,1.728516 -1.59375,0 z m 0,-3.175781 0,-2.935547 -1.97461,2.935547 1.97461,0 z"
         style="font-weight:bold;font-size:12px;font-family:Arial;text-anchor:start;fill:#000000;stroke:none;stroke-width:0"
         id="path3583" />
    </g>
    <path
       style="fill:#ffffff;fill-opacity:0;stroke:none;stroke-width:0"
       d="m 94,27 313,0 0,12 -313,0 z"
       id="rect14" />
  </g>
  <g
     id="g16">
    <path
       style="fill:#ffffff;fill-opacity:0;stroke:none;stroke-width:0"
       d="m 94,58 313,0 0,185 -313,0 z"
       id="rect18" />
    <g
       clip-path="url(http://localhost:63342/hc-with-streams/results/no-vpn/relative-distance.html?_ijt=3epi00c4csglb0p9sfv507snd7#_ABSTRACT_RENDERER_ID_7)"
       id="g20">
      <g
         id="g22">
        <path
           style="fill:#cccccc;stroke:none;stroke-width:0"
           d="m 197,58 1,0 0,185 -1,0 z"
           id="rect24" />
        <path
           style="fill:#cccccc;stroke:none;stroke-width:0"
           d="m 301,58 1,0 0,185 -1,0 z"
           id="rect26" />
        <path
           style="fill:#cccccc;stroke:none;stroke-width:0"
           d="m 405,58 1,0 0,185 -1,0 z"
           id="rect28" />
        <path
           style="fill:#ebebeb;stroke:none;stroke-width:0"
           d="m 93,58 1,0 0,185 -1,0 z"
           id="rect30" />
        <path
           style="fill:#ebebeb;stroke:none;stroke-width:0"
           d="m 145,58 1,0 0,185 -1,0 z"
           id="rect32" />
        <path
           style="fill:#ebebeb;stroke:none;stroke-width:0"
           d="m 249,58 1,0 0,185 -1,0 z"
           id="rect34" />
        <path
           style="fill:#ebebeb;stroke:none;stroke-width:0"
           d="m 353,58 1,0 0,185 -1,0 z"
           id="rect36" />
        <path
           style="fill:#ebebeb;stroke:none;stroke-width:0"
           d="m 457,58 1,0 0,185 -1,0 z"
           id="rect38" />
        <path
           style="fill:#cccccc;stroke:none;stroke-width:0"
           d="m 94,242 313,0 0,1 -313,0 z"
           id="rect40" />
        <path
           style="fill:#cccccc;stroke:none;stroke-width:0"
           d="m 94,181 313,0 0,1 -313,0 z"
           id="rect42" />
        <path
           style="fill:#cccccc;stroke:none;stroke-width:0"
           d="m 94,119 313,0 0,1 -313,0 z"
           id="rect44" />
        <path
           style="fill:#cccccc;stroke:none;stroke-width:0"
           d="m 94,58 313,0 0,1 -313,0 z"
           id="rect46" />
        <path
           style="fill:#ebebeb;stroke:none;stroke-width:0"
           d="m 94,211 313,0 0,1 -313,0 z"
           id="rect48" />
        <path
           style="fill:#ebebeb;stroke:none;stroke-width:0"
           d="m 94,150 313,0 0,1 -313,0 z"
           id="rect50" />
        <path
           style="fill:#ebebeb;stroke:none;stroke-width:0"
           d="m 94,89 313,0 0,1 -313,0 z"
           id="rect52" />
      </g>
      <g
         id="g54">
        <path
           style="fill:#333333;stroke:none;stroke-width:0"
           d="m 94,242 313,0 0,1 -313,0 z"
           id="rect56" />
      </g>
      <g
         id="g58">
        <path
           d="M94.5,113.57733333333331L95.24909963985594,113.76133333333334L96.2687074829932,113.88399999999999L97.61084433773509,114.19066666666666L98.56802721088435,114.55866666666667L99.29631852741096,114.436L100.51360544217687,114.61999999999998L101.75170068027211,116.03066666666665L102.6672669067627,116.70533333333331L103.5204081632653,117.38L104.74809923969588,118.17733333333332L105.72609043617446,119.09733333333332L106.66246498599439,118.23866666666665L107.66126450580231,119.34266666666667L108.87855142056821,122.10266666666666L109.96058423369347,123.32933333333332L111.07382953181272,124.61733333333333L112.05182072829132,125.90533333333332L112.90496198479391,124.67866666666666L114.21588635454181,128.66533333333334L115.03781512605042,129.95333333333332L116.03661464585834,128.66533333333334L117.09783913565425,130.07600000000002L118.15906362545017,131.60933333333332L119.39715886354541,136.332L120.18787515006002,134.85999999999999L121.17627050820327,139.52133333333333L122.19587835134053,141.3L123.46518607442977,139.45999999999998L124.578431372549,144.91866666666664L125.2859143657463,143.38533333333334L126.61764705882352,148.53733333333332L127.4811924769908,146.51333333333332L128.72969187675068,152.83066666666667L129.53081232492997,151.11333333333334L130.62324929971987,153.628L131.64285714285714,155.83599999999998L132.9641856742697,162.33733333333333L133.99419767907162,165.036L134.93057222889155,167.67333333333335L135.77330932372948,166.26266666666666L137.01140456182472,173.25466666666665L137.76050420168067,171.96666666666667L139.05062024809922,179.01999999999998L139.95578231292518,177.548L141.07943177270909,185.276L141.98459383753502,183.92666666666665L143.31632653061223,191.96133333333333L144.04461784713885,190.85733333333332L145.23069227691076,198.03333333333333L146.38555422168866,201.52933333333334L147.26990796318526,200.18L148.52881152460984,207.54L149.30912364945976,210.42266666666666L150.59923969587834,212.99866666666668L151.36914765906363,211.588L153.4811924769908,215.69733333333332L154.40716286514606,217.108L155.93657462985192,219.316L156.88335334133654,218.51866666666666L157.8301320528211,217.292L158.8705482192877,215.452L159.71328531412564,213.91866666666667L161.09703881552622,210.79066666666665L162.0438175270108,207.96933333333334L162.84493797519008,206.55866666666665L163.90616246498598,203.676L165.14425770308122,199.19866666666667L166.1534613845538,196.132L167.29791916766706,193.12666666666667L168.33833533413366,190.12133333333333L169.07703081232492,188.89466666666667L170.3671468587435,184.7853333333333L171.1578631452581,182.27066666666667L172.41676670668267,179.87866666666667L173.2386954781913,177.732L174.2687074829932,176.75066666666666L175.35074029611843,174.72666666666666L176.58883553421367,172.028L177.69167667066824,170.49466666666666L178.73209283713484,169.14533333333333L179.48119247699077,168.348L180.64645858343337,166.93733333333333L181.4579831932773,166.20133333333334L182.60244097639054,165.15866666666665L183.84053621448578,164.48399999999998L184.84973989595838,163.932L185.98379351740695,163.564L186.66006402561024,162.95066666666668L187.90856342537012,163.196L188.8345338135254,162.45999999999998L190.01020408163265,163.38L190.86334533813525,162.70533333333333L191.96618647458985,162.88933333333333L193.13145258103242,164.42266666666666L194.171868747499,164.85199999999998L195.00420168067225,164.23866666666666L196.29431772709083,166.324L197.0954381752701,165.588L198.19827931172466,166.5693333333333L199.1450580232093,167.428L200.2374949979992,168.22533333333334L201.31952781112443,169.20666666666665L202.34953981592636,170.43333333333334L203.69167667066824,173.43866666666668L204.69047619047618,174.48133333333334L205.3875550220088,173.62266666666665L206.41756702681073,174.788L207.74929971988794,177.732L208.85214085634254,179.01999999999998L209.92376950780312,180.18533333333332L210.91216486594635,181.228L211.76530612244898,180.06266666666667L213.01380552220888,183.252L213.83573429371748,182.08666666666667L215.11544617847136,185.09199999999998L215.88535414165665,183.86533333333333L216.97779111644655,186.748L218.1846738695478,187.36133333333333L219.00660264105642,186.012L220.047018807523,186.44133333333332L221.0770308123249,186.932L222.16946778711485,187.23866666666666L223.48039215686276,189.324L224.42717086834733,189.38533333333334L225.24909963985596,187.852L226.34153661464586,187.72933333333333L227.35074029611843,187.79066666666665L228.56802721088434,188.956L229.4419767907163,187.23866666666666L230.48239295718287,186.99333333333334L231.5020008003201,186.62533333333334L232.53201280512206,186.196L233.82212885154058,186.932L234.6128451380552,185.33733333333333L235.91336534613845,185.828L236.73529411764707,184.172L238.00460184073626,184.724L238.7849139655862,183.19066666666666L239.8045218087235,183.68133333333333L241.05302120848336,183.12933333333334L241.91656662665065,181.596L242.92577030812322,181.16666666666666L244.17426970788313,181.78L245.01700680272108,180.308L246.25510204081633,181.04399999999998L247.2955182072829,180.7373333333333L248.43997599039614,180.43066666666667L249.1890756302521,179.01999999999998L250.22949179671866,178.83599999999998L251.24909963985596,178.652L252.2999199679872,178.52933333333334L253.59003601440577,179.69466666666665L254.41196478591434,178.284L255.4419767907163,178.34533333333331L256.45118047218887,178.284L257.7829131652661,179.756L258.41756702681073,178.59066666666666L259.63485394157664,179.87866666666667L260.6232492997199,178.46800000000002L261.94457783113245,180.308L262.9017607042817,180.492L263.9733893557423,180.676L264.7849139655862,179.388L266.0022008803521,181.04399999999998L266.8761504601841,179.87866666666667L267.82292917166865,180.24666666666667L268.9049619847939,180.308L270.16386554621846,182.20933333333332L271.15226090436175,182.45466666666667L272.21348539415766,182.7613333333333L273.31632653061223,183.06799999999998L274.0342136854742,183.31333333333333L275.4075630252101,183.55866666666668L276.219087635054,182.148L277.2595038015206,182.63866666666667L278.31032412965186,182.7613333333333L279.25710284113643,183.252L280.547218887555,184.84666666666666L281.43157262905163,183.37466666666666L282.41996798719487,185.15333333333334L283.5332132853141,185.33733333333333L284.53201280512206,183.86533333333333L285.62444977991197,184.11066666666667L286.82092837134854,185.70533333333333L287.81972789115645,185.76666666666665L288.9329731892757,185.828L289.61964785914364,184.60133333333334L290.6704681872749,184.54L291.9501800720288,185.95066666666665L292.88655462184875,184.356L293.8021208483393,184.66266666666667L294.88415366146455,184.47866666666664L296.1742697078831,185.76666666666665L297.1106442577031,185.58266666666668L298.234293717487,185.58266666666668L299.0666266506602,184.172L300.1902761104442,185.39866666666666L301.1578631452581,184.04933333333332L302.1774709883953,183.92666666666665L303.41556622649057,184.96933333333334L304.2062825130052,183.74266666666665L305.5172068827531,184.7853333333333L306.30792316926767,183.49733333333333L307.5460184073629,184.66266666666667L308.4407763105242,183.37466666666666L309.67887154861944,184.54L310.44877951180473,183.31333333333333L311.77010804321725,184.47866666666664L312.5296118447379,183.252L313.8717486994798,184.41733333333332L314.61044417767107,183.252L315.7861144457783,183.12933333333334L316.7328931572629,183.252L317.92937174869945,184.54L319.1050420168067,184.54L320.0518207282913,184.54L320.8633453381352,183.19066666666666L322.29911964785913,184.60133333333334L323.99499799919965,183.252L325.18107242897156,184.66266666666667L326.2422969187675,184.60133333333334L327.32432973189276,184.724L328.468787515006,184.908L329.1970788315326,183.68133333333333L330.40396158463386,183.55866666666668L331.52761104441777,185.09199999999998L332.6512605042017,185.15333333333334L333.53561424569824,185.21466666666666L334.3783513405362,183.86533333333333L335.74129651860744,185.45999999999998L336.4591836734694,184.23333333333332L337.6452581032413,183.988L338.5504201680672,184.41733333333332L339.8301320528211,185.76666666666665L340.7769107643057,184.23333333333332L341.702881152461,184.724L342.96178471388555,186.012L344.0958383353341,186.07333333333332L345.02180872348936,186.13466666666667L345.8333333333333,184.7853333333333L346.9673869547819,184.66266666666667L347.9141656662665,184.96933333333334L349.0066026410564,185.03066666666666L350.2238895558223,186.25733333333332L350.99379751900756,185.03066666666666L352.31512605042013,186.31866666666667L353.31392557022804,186.13466666666667L354.26070428171266,184.908L355.4675870348139,186.31866666666667L356.51840736294514,186.25733333333332L357.38195278111243,184.908L358.69287715086034,186.44133333333332L359.4835934373749,185.09199999999998L360.52400960384153,185.09199999999998L361.55402160864344,185.15333333333334L362.781712685074,186.50266666666664L363.5204081632653,185.21466666666666L364.6856742697079,184.96933333333334L365.72609043617445,185.15333333333334L366.735294117647,185.276L367.71328531412564,185.276L368.9201680672269,186.62533333333334L369.8773509403761,185.09199999999998L370.9801920768307,186.68666666666667L371.906162464986,185.276L373.13385354141656,186.8093333333333L374.10144057623046,186.8093333333333L375.25630252100837,186.87066666666666L376.234293717487,186.932L377.1394557823129,185.39866666666666L378.3567426970788,186.99333333333334L379.3555422168867,186.99333333333334L380.250300120048,185.58266666666668L381.2803121248499,185.70533333333333L382.42476990796314,187.11599999999999L383.6004401760704,187.11599999999999L384.47438975590234,187.11599999999999L385.4003601440576,185.70533333333333L386.7633053221288,187.17733333333334L387.5332132853141,186.012L388.74009603841534,187.17733333333334L389.56202480992397,185.76666666666665L390.66486594637854,185.70533333333333L391.8613445378151,187.11599999999999L392.9329731892757,187.05466666666666L393.702881152461,185.828L395.06582633053216,187.17733333333334L395.8773509403761,185.828L396.92817126850736,185.76666666666665L398.20788315326126,187.17733333333334L399.0194077631052,185.76666666666665L400.0494197679071,185.76666666666665L401.06902761104436,185.76666666666665L402.31752701080427,186.99333333333334L403.1706682673069,185.70533333333333L404.2006802721088,185.644L405.53241296518604,186.99333333333334L406.49999999999994,186.932"
           stroke="#3366cc"
           stroke-width="2"
           fill-opacity="1"
           fill="none"
           id="path60" />
        <path
           d="M94.5,158.350599163384L95.24909963985594,158.44067902752L96.2687074829932,158.56328773142667L97.61084433773509,158.72468082135998L98.56802721088435,158.839782869968L99.29631852741096,158.92736051558933L100.51360544217687,159.07374029480266L101.75170068027211,159.22262229246934L102.6672669067627,159.33271990417066L103.5204081632653,159.43531086057334L104.74809923969588,159.582941748952L105.72609043617446,159.70054601601333L106.66246498599439,159.813145846168L107.66126450580231,159.93325233168264L108.87855142056821,160.079632110896L109.96058423369347,160.20974747016265L111.07382953181272,160.34361615717066L112.05182072829132,160.461220424232L112.90496198479391,160.56381138057333L114.21588635454181,160.72145114276532L115.03781512605042,160.82028877148798L116.03661464585834,160.94039525700265L117.09783913565425,161.068008397816L118.15906362545017,161.19562153869066L119.39715886354541,161.3445035363573L120.18787515006002,161.43958783733865L121.17627050820327,161.55844321362667L122.19587835134053,161.68105191759466L123.46518607442977,161.83368724288L124.578431372549,161.967555929888L125.2859143657463,162.05263135711732L126.61764705882352,162.21277333776266L127.4811924769908,162.31661540333067L128.72969187675068,162.466748510224L129.53081232492997,162.56308392049334L130.62324929971987,162.69445038898667L131.64285714285714,162.81705909295465L132.9641856742697,162.97594996437334L133.99419767907162,163.099809777568L134.93057222889155,163.21240960772266L135.77330932372948,163.3137494548373L137.01140456182472,163.46263145250398L137.76050420168067,163.55271131664L139.05062024809922,163.70784886043998L139.95578231292518,163.81669536291466L141.07943177270909,163.951815159088L141.98459383753502,164.06066166156268L143.31632653061223,164.22080364226932L144.04461784713885,164.30838128789065L145.23069227691076,164.45100773942397L146.38555422168866,164.58988086333866L147.26990796318526,164.69622514736L148.52881152460984,164.84760936348L149.30912364945976,164.94144255523466L150.59923969587834,165.09658009903467L151.36914765906363,165.189162181624L153.4811924769908,165.4431373540853L154.40716286514606,165.55448607501333L155.93657462985192,165.73839913090399L156.88335334133654,165.85225007028532L157.8301320528211,165.96610100966666L158.8705482192877,166.09121193208802L159.71328531412564,166.19255177920266L161.09703881552622,166.35894930598133L162.0438175270108,166.47280024536266L162.84493797519008,166.569135655632L163.90616246498598,166.69674879650665L165.14425770308122,166.84563079411197L166.1534613845538,166.96698838885334L167.29791916766706,167.10461040348L168.33833533413366,167.22972132590132L169.07703081232492,167.31855008081067L170.3671468587435,167.4736876245493L171.1578631452581,167.568771925592L172.41676670668267,167.72015614171198L173.2386954781913,167.8189937703733L174.2687074829932,167.942853583568L175.35074029611843,168.07296894283468L176.58883553421367,168.22185094050133L177.69167667066824,168.35446851822132L178.73209283713484,168.47957944064268L179.48119247699077,168.56965930477867L180.64645858343337,168.70978353785864L181.4579831932773,168.80737005729333L182.60244097639054,168.94499207198135L183.84053621448578,169.09387406958666L184.84973989595838,169.21523166432797L185.98379351740695,169.351602569728L186.66006402561024,169.43292466927733L187.90856342537012,169.58305777617068L188.8345338135254,169.69440649709867L190.01020408163265,169.83578183940534L190.86334533813525,169.938372795808L191.96618647458985,170.070990373528L193.13145258103242,170.211114606608L194.171868747499,170.33622552902932L195.00420168067225,170.43631426691735L196.29431772709083,170.59145181071733L197.0954381752701,170.68778722092532L198.19827931172466,170.82040479870665L199.1450580232093,170.93425573808798L200.2374949979992,171.06562220658134L201.31952781112443,171.195737565848L202.34953981592636,171.31959737904265L203.69167667066824,171.48099046891465L204.69047619047618,171.60109695442932L205.3875550220088,171.684921272432L206.41756702681073,171.80878108562666L207.74929971988794,171.968923066272L208.85214085634254,172.10154064405333L209.92376950780312,172.23040489409334L210.91216486594635,172.3492602703813L211.76530612244898,172.45185122672268L213.01380552220888,172.60198433361597L213.83573429371748,172.70082196233867L215.11544617847136,172.85470839685067L215.88535414165665,172.94729047944L216.97779111644655,173.07865694793333L218.1846738695478,173.22378561792L219.00660264105642,173.32262324664265L220.047018807523,173.44773416900267L221.0770308123249,173.57159398219733L222.16946778711485,173.70296045069068L223.48039215686276,173.860600212944L224.42717086834733,173.97445115232534L225.24909963985596,174.07328878098667L226.34153661464586,174.2046552495413L227.35074029611843,174.32601284428267L228.56802721088434,174.47239262343464L229.4419767907163,174.57748579829067L230.48239295718287,174.70259672065066L231.5020008003201,174.82520542461867L232.53201280512206,174.94906523781333L233.82212885154058,175.104202781552L234.6128451380552,175.19928708259465L235.91336534613845,175.35567573556L236.73529411764707,175.45451336428266L238.00460184073626,175.60714868962933L238.7849139655862,175.700981881384L239.8045218087235,175.823590585352L241.05302120848336,175.97372369224533L241.91656662665065,176.07756575781332L242.92577030812322,176.19892335255466L244.17426970788313,176.34905645938665L245.01700680272108,176.45039630656265L246.25510204081633,176.59927830422933L247.2955182072829,176.72438922658932L248.43997599039614,176.862011241216L249.1890756302521,176.952091105352L250.22949179671866,177.07720202777335L251.24909963985596,177.1998107317413L252.2999199679872,177.326172763328L253.59003601440577,177.481310307128L254.41196478591434,177.58014793578934L255.4419767907163,177.704007748984L256.45118047218887,177.82536534372534L257.7829131652661,177.98550732437064L258.41756702681073,178.06182498701332L259.63485394157664,178.20820476622666L260.6232492997199,178.32706014251465L261.94457783113245,178.48595101393335L262.9017607042817,178.60105306254133L263.9733893557423,178.72991731264267L264.7849139655862,178.82750383207733L266.0022008803521,178.97388361129066L266.8761504601841,179.07897678614665L267.82292917166865,179.192827725528L268.9049619847939,179.32294308479467L270.16386554621846,179.47432730091467L271.15226090436175,179.59318267714133L272.21348539415766,179.720795818016L273.31632653061223,179.853413395736L274.0342136854742,179.939739932192L275.4075630252101,180.10488634980533L276.219087635054,180.20247286924L277.2595038015206,180.32758379166134L278.31032412965186,180.45394582324798L279.25710284113643,180.5677967626293L280.547218887555,180.72293430642932L281.43157262905163,180.82927859045066L282.41996798719487,180.94813396673868L283.5332132853141,181.08200265368532L284.53201280512206,181.2021091392L285.62444977991197,181.33347560771787L286.82092837134854,181.47735316847172L287.81972789115645,181.59745965397414L288.9329731892757,181.7313283409392L289.61964785914364,181.81390154972132L290.6704681872749,181.94026358133866L291.9501800720288,182.09415001588746L292.88655462184875,182.20674984604827L293.8021208483393,182.31684745775573L294.88415366146455,182.44696281704694L296.1742697078831,182.6021003608224L297.1106442577031,182.71470019097706L298.234293717487,182.8498199871688L299.0666266506602,182.94990872508745L300.1902761104442,183.08502852127305L301.1578631452581,183.2013816791016L302.1774709883953,183.32399038305118L303.41556622649057,183.4728723807056L304.2062825130052,183.56795668172987L305.5172068827531,183.72559644394642L306.30792316926767,183.82068074497067L307.5460184073629,183.96956274261893L308.4407763105242,184.07715813588533L309.67887154861944,184.2260401335336L310.44877951180473,184.31862221611067L311.77010804321725,184.47751308755386L312.5296118447379,184.56884406090427L313.8717486994798,184.73023715079466L314.61044417767107,184.81906590569787L315.7861144457783,184.96044124800454L316.7328931572629,185.07429218738588L317.92937174869945,185.21816974814587L319.1050420168067,185.3595450904525L320.0518207282913,185.47339602983385L320.8633453381352,185.57098254930534L322.29911964785913,185.7436356222112L323.99499799919965,185.94756642572239L325.18107242897156,186.0901928772496L326.2422969187675,186.21780601809974L327.32432973189276,186.34792137739095L328.468787515006,186.48554339202985L329.1970788315326,186.57312103770641L330.40396158463386,186.71824970768694L331.52761104441777,186.85336950387253L332.6512605042017,186.98848930006426L333.53561424569824,187.09483358410398L334.3783513405362,187.1961734312432L335.74129651860744,187.3600687395808L336.4591836734694,187.4463952760368L337.6452581032413,187.58902172757013L338.5504201680672,187.69786823005705L339.8301320528211,187.85175466460586L340.7769107643057,187.9656056039872L341.702881152461,188.07695432492133L342.96178471388555,188.2283385410168L344.0958383353341,188.36470944642906L345.02180872348936,188.4760581673632L345.8333333333333,188.57364468683465L346.9673869547819,188.71001559224692L347.9141656662665,188.82386653162825L349.0066026410564,188.9552330001461L350.2238895558223,189.10161277935333L350.99379751900756,189.19419486192425L352.31512605042013,189.35308573336746L353.31392557022804,189.47319221886985L354.26070428171266,189.5870431582512L355.4675870348139,189.73217182823174L356.51840736294514,189.85853385985519L357.38195278111243,189.9623759254416L358.69287715086034,190.12001568766425L359.4835934373749,190.2150999886824L360.52400960384153,190.3402109110792L361.55402160864344,190.46407072425546L362.781712685074,190.6117016126832L363.5204081632653,190.7005303675864L364.6856742697079,190.8406546006725L365.72609043617445,190.96576552306934L366.735294117647,191.08712311779226L367.71328531412564,191.20472738484744L368.9201680672269,191.349856054828L369.8773509403761,191.46495810342986L370.9801920768307,191.5975756811744L371.906162464986,191.70892440210852L373.13385354141656,191.85655529053628L374.10144057623046,191.9729084483648L375.25630252100837,192.11178157222426L376.234293717487,192.22938583927947L377.1394557823129,192.3382323417664L378.3567426970788,192.48461212096745L379.3555422168867,192.60471860646987L380.250300120048,192.71231399973013L381.2803121248499,192.8361738129064L382.42476990796314,192.9737958275392L383.6004401760704,193.11517116985198L384.47438975590234,193.22026434466505L385.4003601440576,193.33161306559919L386.7633053221288,193.4955083739368L387.5332132853141,193.58809045650773L388.74009603841534,193.73321912648828L389.56202480992397,193.8320567551864L390.66486594637854,193.9646743329248L391.8613445378151,194.1085518936848L392.9329731892757,194.23741614374933L393.702881152461,194.32999822632638L395.06582633053216,194.49389353466398L395.8773509403761,194.59148005413545L396.92817126850736,194.71784208575895L398.20788315326126,194.87172852030773L399.0194077631052,194.96931503977305L400.0494197679071,195.09317485294935L401.06902761104436,195.21578355689894L402.31752701080427,195.36591666377387L403.1706682673069,195.46850762013975L404.2006802721088,195.59236743330987L405.53241296518604,195.75250941397974L406.49999999999994,195.86886257180828"
           stroke="#3366cc"
           stroke-width="2"
           stroke-opacity="0.5"
           fill-opacity="1"
           fill="none"
           id="path62" />
      </g>
    </g>
    <g
       id="g64" />
    <g
       id="g66">
      <g
         id="g68">
        <g
           style="font-size:12px;font-family:Arial;text-anchor:middle;fill:#444444;stroke:none;stroke-width:0"
           id="text70">
          <path
             d="m 183.22362,260.20001 -1.05469,0 0,-6.7207 q -0.38086,0.36328 -1.00195,0.72656 -0.61524,0.36328 -1.10742,0.54492 l 0,-1.01953 q 0.88476,-0.41601 1.54687,-1.00781 0.66211,-0.5918 0.9375,-1.14844 l 0.67969,0 0,8.625 z"
             style="font-size:12px;font-family:Arial;text-anchor:middle;fill:#444444;stroke:none;stroke-width:0"
             id="path3472" />
          <path
             d="m 185.93065,255.96368 q 0,-1.52343 0.31055,-2.44921 0.3164,-0.93165 0.93164,-1.43555 0.62109,-0.50391 1.55859,-0.50391 0.69141,0 1.21289,0.28125 0.52149,0.27539 0.86133,0.80274 0.33984,0.52148 0.5332,1.27734 0.19336,0.75 0.19336,2.02734 0,1.51172 -0.31055,2.44336 -0.31054,0.92578 -0.93164,1.43555 -0.61523,0.50391 -1.55859,0.50391 -1.24219,0 -1.95117,-0.89063 -0.84961,-1.07226 -0.84961,-3.49219 z m 1.08398,0 q 0,2.11524 0.49219,2.81836 0.49805,0.69727 1.22461,0.69727 0.72656,0 1.21875,-0.70313 0.49805,-0.70312 0.49805,-2.8125 0,-2.12109 -0.49805,-2.81836 -0.49219,-0.69726 -1.23047,-0.69726 -0.72656,0 -1.16015,0.61523 -0.54493,0.78516 -0.54493,2.90039 z"
             style="font-size:12px;font-family:Arial;text-anchor:middle;fill:#444444;stroke:none;stroke-width:0"
             id="path3474" />
          <path
             d="m 193.1787,260.20001 0,-1.20117 1.20117,0 0,1.20117 q 0,0.66211 -0.23438,1.06641 -0.23437,0.41015 -0.74414,0.63281 l -0.29297,-0.45117 q 0.33399,-0.14649 0.49219,-0.43359 0.1582,-0.28125 0.17578,-0.81446 l -0.59765,0 z"
             style="font-size:12px;font-family:Arial;text-anchor:middle;fill:#444444;stroke:none;stroke-width:0"
             id="path3476" />
          <path
             d="m 195.93846,255.96368 q 0,-1.52343 0.31055,-2.44921 0.3164,-0.93165 0.93164,-1.43555 0.62109,-0.50391 1.55859,-0.50391 0.69141,0 1.21289,0.28125 0.52149,0.27539 0.86133,0.80274 0.33985,0.52148 0.5332,1.27734 0.19336,0.75 0.19336,2.02734 0,1.51172 -0.31054,2.44336 -0.31055,0.92578 -0.93164,1.43555 -0.61524,0.50391 -1.5586,0.50391 -1.24218,0 -1.95117,-0.89063 -0.84961,-1.07226 -0.84961,-3.49219 z m 1.08399,0 q 0,2.11524 0.49218,2.81836 0.49805,0.69727 1.22461,0.69727 0.72657,0 1.21875,-0.70313 0.49805,-0.70312 0.49805,-2.8125 0,-2.12109 -0.49805,-2.81836 -0.49218,-0.69726 -1.23047,-0.69726 -0.72656,0 -1.16015,0.61523 -0.54492,0.78516 -0.54492,2.90039 z"
             style="font-size:12px;font-family:Arial;text-anchor:middle;fill:#444444;stroke:none;stroke-width:0"
             id="path3478" />
          <path
             d="m 202.61815,255.96368 q 0,-1.52343 0.31055,-2.44921 0.3164,-0.93165 0.93164,-1.43555 0.62109,-0.50391 1.55859,-0.50391 0.69141,0 1.21289,0.28125 0.52149,0.27539 0.86133,0.80274 0.33984,0.52148 0.5332,1.27734 0.19336,0.75 0.19336,2.02734 0,1.51172 -0.31055,2.44336 -0.31054,0.92578 -0.93164,1.43555 -0.61523,0.50391 -1.55859,0.50391 -1.24219,0 -1.95117,-0.89063 -0.84961,-1.07226 -0.84961,-3.49219 z m 1.08398,0 q 0,2.11524 0.49219,2.81836 0.49805,0.69727 1.22461,0.69727 0.72656,0 1.21875,-0.70313 0.49805,-0.70312 0.49805,-2.8125 0,-2.12109 -0.49805,-2.81836 -0.49219,-0.69726 -1.23047,-0.69726 -0.72656,0 -1.16015,0.61523 -0.54493,0.78516 -0.54493,2.90039 z"
             style="font-size:12px;font-family:Arial;text-anchor:middle;fill:#444444;stroke:none;stroke-width:0"
             id="path3480" />
          <path
             d="m 209.29784,255.96368 q 0,-1.52343 0.31054,-2.44921 0.31641,-0.93165 0.93164,-1.43555 0.6211,-0.50391 1.5586,-0.50391 0.6914,0 1.21289,0.28125 0.52148,0.27539 0.86133,0.80274 0.33984,0.52148 0.5332,1.27734 0.19336,0.75 0.19336,2.02734 0,1.51172 -0.31055,2.44336 -0.31054,0.92578 -0.93164,1.43555 -0.61523,0.50391 -1.55859,0.50391 -1.24219,0 -1.95117,-0.89063 -0.84961,-1.07226 -0.84961,-3.49219 z m 1.08398,0 q 0,2.11524 0.49219,2.81836 0.49805,0.69727 1.22461,0.69727 0.72656,0 1.21875,-0.70313 0.49804,-0.70312 0.49804,-2.8125 0,-2.12109 -0.49804,-2.81836 -0.49219,-0.69726 -1.23047,-0.69726 -0.72656,0 -1.16016,0.61523 -0.54492,0.78516 -0.54492,2.90039 z"
             style="font-size:12px;font-family:Arial;text-anchor:middle;fill:#444444;stroke:none;stroke-width:0"
             id="path3482" />
        </g>
      </g>
      <g
         id="g72">
        <g
           style="font-size:12px;font-family:Arial;text-anchor:middle;fill:#444444;stroke:none;stroke-width:0"
           id="text74">
          <path
             d="m 288.83563,259.18634 0,1.01367 -5.67773,0 q -0.0117,-0.38086 0.12304,-0.73242 0.2168,-0.58008 0.69141,-1.14258 0.48047,-0.5625 1.38281,-1.30078 1.40039,-1.14844 1.89258,-1.81641 0.49219,-0.67382 0.49219,-1.27148 0,-0.62695 -0.45117,-1.05469 -0.44532,-0.43359 -1.16602,-0.43359 -0.76172,0 -1.21875,0.45703 -0.45703,0.45703 -0.46289,1.26563 l -1.08398,-0.11133 q 0.11132,-1.21289 0.83789,-1.84571 0.72656,-0.63867 1.95117,-0.63867 1.23633,0 1.95703,0.68555 0.7207,0.68555 0.7207,1.69922 0,0.51562 -0.21093,1.01367 -0.21094,0.49805 -0.70313,1.04883 -0.48633,0.55078 -1.62305,1.51172 -0.94921,0.79687 -1.21875,1.08398 -0.26953,0.28125 -0.44531,0.56836 l 4.21289,0 z"
             style="font-size:12px;font-family:Arial;text-anchor:middle;fill:#444444;stroke:none;stroke-width:0"
             id="path3485" />
          <path
             d="m 289.97235,255.96368 q 0,-1.52343 0.31055,-2.44921 0.3164,-0.93165 0.93164,-1.43555 0.62109,-0.50391 1.55859,-0.50391 0.69141,0 1.21289,0.28125 0.52149,0.27539 0.86133,0.80274 0.33984,0.52148 0.5332,1.27734 0.19336,0.75 0.19336,2.02734 0,1.51172 -0.31054,2.44336 -0.31055,0.92578 -0.93164,1.43555 -0.61524,0.50391 -1.5586,0.50391 -1.24219,0 -1.95117,-0.89063 -0.84961,-1.07226 -0.84961,-3.49219 z m 1.08399,0 q 0,2.11524 0.49218,2.81836 0.49805,0.69727 1.22461,0.69727 0.72656,0 1.21875,-0.70313 0.49805,-0.70312 0.49805,-2.8125 0,-2.12109 -0.49805,-2.81836 -0.49219,-0.69726 -1.23047,-0.69726 -0.72656,0 -1.16015,0.61523 -0.54492,0.78516 -0.54492,2.90039 z"
             style="font-size:12px;font-family:Arial;text-anchor:middle;fill:#444444;stroke:none;stroke-width:0"
             id="path3487" />
          <path
             d="m 297.2204,260.20001 0,-1.20117 1.20117,0 0,1.20117 q 0,0.66211 -0.23438,1.06641 -0.23437,0.41015 -0.74414,0.63281 l -0.29296,-0.45117 q 0.33398,-0.14649 0.49218,-0.43359 0.15821,-0.28125 0.17578,-0.81446 l -0.59765,0 z"
             style="font-size:12px;font-family:Arial;text-anchor:middle;fill:#444444;stroke:none;stroke-width:0"
             id="path3489" />
          <path
             d="m 299.98016,255.96368 q 0,-1.52343 0.31055,-2.44921 0.31641,-0.93165 0.93164,-1.43555 0.62109,-0.50391 1.55859,-0.50391 0.69141,0 1.2129,0.28125 0.52148,0.27539 0.86132,0.80274 0.33985,0.52148 0.53321,1.27734 0.19336,0.75 0.19336,2.02734 0,1.51172 -0.31055,2.44336 -0.31055,0.92578 -0.93164,1.43555 -0.61524,0.50391 -1.5586,0.50391 -1.24218,0 -1.95117,-0.89063 -0.84961,-1.07226 -0.84961,-3.49219 z m 1.08399,0 q 0,2.11524 0.49219,2.81836 0.49804,0.69727 1.2246,0.69727 0.72657,0 1.21875,-0.70313 0.49805,-0.70312 0.49805,-2.8125 0,-2.12109 -0.49805,-2.81836 -0.49218,-0.69726 -1.23046,-0.69726 -0.72657,0 -1.16016,0.61523 -0.54492,0.78516 -0.54492,2.90039 z"
             style="font-size:12px;font-family:Arial;text-anchor:middle;fill:#444444;stroke:none;stroke-width:0"
             id="path3491" />
          <path
             d="m 306.65985,255.96368 q 0,-1.52343 0.31055,-2.44921 0.3164,-0.93165 0.93164,-1.43555 0.62109,-0.50391 1.55859,-0.50391 0.69141,0 1.21289,0.28125 0.52149,0.27539 0.86133,0.80274 0.33984,0.52148 0.5332,1.27734 0.19336,0.75 0.19336,2.02734 0,1.51172 -0.31054,2.44336 -0.31055,0.92578 -0.93164,1.43555 -0.61524,0.50391 -1.5586,0.50391 -1.24219,0 -1.95117,-0.89063 -0.84961,-1.07226 -0.84961,-3.49219 z m 1.08399,0 q 0,2.11524 0.49218,2.81836 0.49805,0.69727 1.22461,0.69727 0.72656,0 1.21875,-0.70313 0.49805,-0.70312 0.49805,-2.8125 0,-2.12109 -0.49805,-2.81836 -0.49219,-0.69726 -1.23047,-0.69726 -0.72656,0 -1.16015,0.61523 -0.54492,0.78516 -0.54492,2.90039 z"
             style="font-size:12px;font-family:Arial;text-anchor:middle;fill:#444444;stroke:none;stroke-width:0"
             id="path3493" />
          <path
             d="m 313.33954,255.96368 q 0,-1.52343 0.31055,-2.44921 0.3164,-0.93165 0.93164,-1.43555 0.62109,-0.50391 1.55859,-0.50391 0.69141,0 1.21289,0.28125 0.52148,0.27539 0.86133,0.80274 0.33984,0.52148 0.5332,1.27734 0.19336,0.75 0.19336,2.02734 0,1.51172 -0.31055,2.44336 -0.31054,0.92578 -0.93164,1.43555 -0.61523,0.50391 -1.55859,0.50391 -1.24219,0 -1.95117,-0.89063 -0.84961,-1.07226 -0.84961,-3.49219 z m 1.08398,0 q 0,2.11524 0.49219,2.81836 0.49805,0.69727 1.22461,0.69727 0.72656,0 1.21875,-0.70313 0.49805,-0.70312 0.49805,-2.8125 0,-2.12109 -0.49805,-2.81836 -0.49219,-0.69726 -1.23047,-0.69726 -0.72656,0 -1.16016,0.61523 -0.54492,0.78516 -0.54492,2.90039 z"
             style="font-size:12px;font-family:Arial;text-anchor:middle;fill:#444444;stroke:none;stroke-width:0"
             id="path3495" />
        </g>
      </g>
      <g
         id="g76">
        <g
           style="font-size:12px;font-family:Arial;text-anchor:middle;fill:#444444;stroke:none;stroke-width:0"
           id="text78">
          <path
             d="m 387.34012,257.93243 1.05469,-0.14062 q 0.18164,0.89648 0.61523,1.29492 0.43945,0.39258 1.06641,0.39258 0.74414,0 1.2539,-0.51563 0.51563,-0.51562 0.51563,-1.27734 0,-0.72656 -0.47461,-1.19531 -0.47461,-0.47461 -1.20703,-0.47461 -0.29883,0 -0.74414,0.11719 l 0.11718,-0.92579 q 0.10547,0.0117 0.16993,0.0117 0.67382,0 1.21289,-0.35156 0.53906,-0.35156 0.53906,-1.08398 0,-0.58008 -0.39258,-0.96094 -0.39258,-0.38086 -1.01367,-0.38086 -0.61524,0 -1.02539,0.38672 -0.41016,0.38672 -0.52735,1.16015 l -1.05468,-0.1875 q 0.19336,-1.06054 0.8789,-1.64062 0.68555,-0.58594 1.70508,-0.58594 0.70313,0 1.29492,0.30469 0.5918,0.29883 0.90235,0.82031 0.3164,0.52149 0.3164,1.10742 0,0.55664 -0.29882,1.01368 -0.29883,0.45703 -0.88477,0.72656 0.76172,0.17578 1.18359,0.73242 0.42188,0.55078 0.42188,1.38281 0,1.125 -0.82031,1.91016 -0.82032,0.7793 -2.07422,0.7793 -1.13086,0 -1.88086,-0.67383 -0.74414,-0.67383 -0.84961,-1.7461 z"
             style="font-size:12px;font-family:Arial;text-anchor:middle;fill:#444444;stroke:none;stroke-width:0"
             id="path3498" />
          <path
             d="m 394.01395,255.96368 q 0,-1.52343 0.31054,-2.44921 0.31641,-0.93165 0.93164,-1.43555 0.6211,-0.50391 1.5586,-0.50391 0.6914,0 1.21289,0.28125 0.52148,0.27539 0.86133,0.80274 0.33984,0.52148 0.5332,1.27734 0.19336,0.75 0.19336,2.02734 0,1.51172 -0.31055,2.44336 -0.31054,0.92578 -0.93164,1.43555 -0.61523,0.50391 -1.55859,0.50391 -1.24219,0 -1.95117,-0.89063 -0.84961,-1.07226 -0.84961,-3.49219 z m 1.08398,0 q 0,2.11524 0.49219,2.81836 0.49805,0.69727 1.22461,0.69727 0.72656,0 1.21875,-0.70313 0.49804,-0.70312 0.49804,-2.8125 0,-2.12109 -0.49804,-2.81836 -0.49219,-0.69726 -1.23047,-0.69726 -0.72656,0 -1.16016,0.61523 -0.54492,0.78516 -0.54492,2.90039 z"
             style="font-size:12px;font-family:Arial;text-anchor:middle;fill:#444444;stroke:none;stroke-width:0"
             id="path3500" />
          <path
             d="m 401.26199,260.20001 0,-1.20117 1.20118,0 0,1.20117 q 0,0.66211 -0.23438,1.06641 -0.23437,0.41015 -0.74414,0.63281 l -0.29297,-0.45117 q 0.33399,-0.14649 0.49219,-0.43359 0.1582,-0.28125 0.17578,-0.81446 l -0.59766,0 z"
             style="font-size:12px;font-family:Arial;text-anchor:middle;fill:#444444;stroke:none;stroke-width:0"
             id="path3502" />
          <path
             d="m 404.02176,255.96368 q 0,-1.52343 0.31055,-2.44921 0.3164,-0.93165 0.93164,-1.43555 0.62109,-0.50391 1.55859,-0.50391 0.69141,0 1.21289,0.28125 0.52149,0.27539 0.86133,0.80274 0.33984,0.52148 0.5332,1.27734 0.19336,0.75 0.19336,2.02734 0,1.51172 -0.31055,2.44336 -0.31054,0.92578 -0.93164,1.43555 -0.61523,0.50391 -1.55859,0.50391 -1.24219,0 -1.95117,-0.89063 -0.84961,-1.07226 -0.84961,-3.49219 z m 1.08398,0 q 0,2.11524 0.49219,2.81836 0.49805,0.69727 1.22461,0.69727 0.72656,0 1.21875,-0.70313 0.49805,-0.70312 0.49805,-2.8125 0,-2.12109 -0.49805,-2.81836 -0.49219,-0.69726 -1.23047,-0.69726 -0.72656,0 -1.16015,0.61523 -0.54493,0.78516 -0.54493,2.90039 z"
             style="font-size:12px;font-family:Arial;text-anchor:middle;fill:#444444;stroke:none;stroke-width:0"
             id="path3504" />
          <path
             d="m 410.70145,255.96368 q 0,-1.52343 0.31054,-2.44921 0.31641,-0.93165 0.93164,-1.43555 0.6211,-0.50391 1.5586,-0.50391 0.6914,0 1.21289,0.28125 0.52148,0.27539 0.86133,0.80274 0.33984,0.52148 0.5332,1.27734 0.19336,0.75 0.19336,2.02734 0,1.51172 -0.31055,2.44336 -0.31054,0.92578 -0.93164,1.43555 -0.61523,0.50391 -1.55859,0.50391 -1.24219,0 -1.95117,-0.89063 -0.84961,-1.07226 -0.84961,-3.49219 z m 1.08398,0 q 0,2.11524 0.49219,2.81836 0.49805,0.69727 1.22461,0.69727 0.72656,0 1.21875,-0.70313 0.49804,-0.70312 0.49804,-2.8125 0,-2.12109 -0.49804,-2.81836 -0.49219,-0.69726 -1.23047,-0.69726 -0.72656,0 -1.16016,0.61523 -0.54492,0.78516 -0.54492,2.90039 z"
             style="font-size:12px;font-family:Arial;text-anchor:middle;fill:#444444;stroke:none;stroke-width:0"
             id="path3506" />
          <path
             d="m 417.38113,255.96368 q 0,-1.52343 0.31055,-2.44921 0.31641,-0.93165 0.93164,-1.43555 0.6211,-0.50391 1.5586,-0.50391 0.6914,0 1.21289,0.28125 0.52148,0.27539 0.86132,0.80274 0.33985,0.52148 0.53321,1.27734 0.19336,0.75 0.19336,2.02734 0,1.51172 -0.31055,2.44336 -0.31055,0.92578 -0.93164,1.43555 -0.61524,0.50391 -1.55859,0.50391 -1.24219,0 -1.95118,-0.89063 -0.84961,-1.07226 -0.84961,-3.49219 z m 1.08399,0 q 0,2.11524 0.49219,2.81836 0.49804,0.69727 1.22461,0.69727 0.72656,0 1.21875,-0.70313 0.49804,-0.70312 0.49804,-2.8125 0,-2.12109 -0.49804,-2.81836 -0.49219,-0.69726 -1.23047,-0.69726 -0.72657,0 -1.16016,0.61523 -0.54492,0.78516 -0.54492,2.90039 z"
             style="font-size:12px;font-family:Arial;text-anchor:middle;fill:#444444;stroke:none;stroke-width:0"
             id="path3508" />
        </g>
      </g>
      <g
         id="g80">
        <g
           style="font-size:12px;font-family:Arial;text-anchor:end;fill:#444444;stroke:none;stroke-width:0"
           id="text82">
          <path
             d="m 75.818359,242.46367 q 0,-1.52344 0.310547,-2.44922 0.316406,-0.93164 0.931641,-1.43555 0.621094,-0.5039 1.558594,-0.5039 0.691406,0 1.21289,0.28125 0.521485,0.27539 0.861328,0.80273 0.339844,0.52149 0.533203,1.27735 0.19336,0.75 0.19336,2.02734 0,1.51172 -0.310547,2.44336 -0.310547,0.92578 -0.931641,1.43555 -0.615234,0.5039 -1.558593,0.5039 -1.242188,0 -1.951172,-0.89062 -0.84961,-1.07227 -0.84961,-3.49219 z m 1.083985,0 q 0,2.11523 0.492187,2.81836 0.498047,0.69726 1.22461,0.69726 0.726562,0 1.21875,-0.70312 0.498046,-0.70313 0.498046,-2.8125 0,-2.12109 -0.498046,-2.81836 -0.492188,-0.69727 -1.230469,-0.69727 -0.726563,0 -1.160156,0.61524 -0.544922,0.78515 -0.544922,2.90039 z"
             style="font-size:12px;font-family:Arial;text-anchor:end;fill:#444444;stroke:none;stroke-width:0"
             id="path3511" />
        </g>
      </g>
      <g
         id="g84">
        <g
           style="font-size:12px;font-family:Arial;text-anchor:end;fill:#444444;stroke:none;stroke-width:0"
           id="text86">
          <path
             d="m 73.111328,185.3667 -1.054687,0 0,-6.7207 q -0.38086,0.36328 -1.001954,0.72656 -0.615234,0.36328 -1.107421,0.54492 l 0,-1.01953 q 0.884765,-0.41602 1.546875,-1.00781 0.662109,-0.5918 0.9375,-1.14844 l 0.679687,0 0,8.625 z"
             style="font-size:12px;font-family:Arial;text-anchor:end;fill:#444444;stroke:none;stroke-width:0"
             id="path3514" />
          <path
             d="m 75.818359,181.13037 q 0,-1.52344 0.310547,-2.44922 0.316406,-0.93164 0.931641,-1.43554 0.621094,-0.50391 1.558594,-0.50391 0.691406,0 1.21289,0.28125 0.521485,0.27539 0.861328,0.80273 0.339844,0.52149 0.533203,1.27735 0.19336,0.75 0.19336,2.02734 0,1.51172 -0.310547,2.44336 -0.310547,0.92578 -0.931641,1.43555 -0.615234,0.5039 -1.558593,0.5039 -1.242188,0 -1.951172,-0.89062 -0.84961,-1.07227 -0.84961,-3.49219 z m 1.083985,0 q 0,2.11524 0.492187,2.81836 0.498047,0.69727 1.22461,0.69727 0.726562,0 1.21875,-0.70313 0.498046,-0.70312 0.498046,-2.8125 0,-2.12109 -0.498046,-2.81836 -0.492188,-0.69726 -1.230469,-0.69726 -0.726563,0 -1.160156,0.61523 -0.544922,0.78516 -0.544922,2.90039 z"
             style="font-size:12px;font-family:Arial;text-anchor:end;fill:#444444;stroke:none;stroke-width:0"
             id="path3516" />
        </g>
      </g>
      <g
         id="g88">
        <g
           style="font-size:12px;font-family:Arial;text-anchor:end;fill:#444444;stroke:none;stroke-width:0"
           id="text90">
          <path
             d="m 74.681641,123.01963 0,1.01367 -5.677735,0 q -0.01172,-0.38086 0.123047,-0.73242 0.216797,-0.58008 0.691406,-1.14258 0.480469,-0.5625 1.382813,-1.30078 1.40039,-1.14844 1.892578,-1.81641 0.492187,-0.67382 0.492187,-1.27148 0,-0.62695 -0.451171,-1.05469 -0.445313,-0.43359 -1.166016,-0.43359 -0.761719,0 -1.21875,0.45703 -0.457031,0.45703 -0.462891,1.26563 l -1.083984,-0.11133 q 0.111328,-1.21289 0.837891,-1.84571 0.726562,-0.63867 1.951171,-0.63867 1.236329,0 1.957032,0.68555 0.720703,0.68555 0.720703,1.69922 0,0.51562 -0.210938,1.01367 -0.210937,0.49805 -0.703125,1.04883 -0.486328,0.55078 -1.623047,1.51172 -0.949218,0.79687 -1.21875,1.08398 -0.269531,0.28125 -0.445312,0.56836 l 4.212891,0 z"
             style="font-size:12px;font-family:Arial;text-anchor:end;fill:#444444;stroke:none;stroke-width:0"
             id="path3519" />
          <path
             d="m 75.818359,119.79697 q 0,-1.52343 0.310547,-2.44921 0.316406,-0.93165 0.931641,-1.43555 0.621094,-0.50391 1.558594,-0.50391 0.691406,0 1.21289,0.28125 0.521485,0.27539 0.861328,0.80274 0.339844,0.52148 0.533203,1.27734 0.19336,0.75 0.19336,2.02734 0,1.51172 -0.310547,2.44336 -0.310547,0.92578 -0.931641,1.43555 -0.615234,0.50391 -1.558593,0.50391 -1.242188,0 -1.951172,-0.89063 -0.84961,-1.07226 -0.84961,-3.49219 z m 1.083985,0 q 0,2.11524 0.492187,2.81836 0.498047,0.69727 1.22461,0.69727 0.726562,0 1.21875,-0.70313 0.498046,-0.70312 0.498046,-2.8125 0,-2.12109 -0.498046,-2.81836 -0.492188,-0.69726 -1.230469,-0.69726 -0.726563,0 -1.160156,0.61523 -0.544922,0.78516 -0.544922,2.90039 z"
             style="font-size:12px;font-family:Arial;text-anchor:end;fill:#444444;stroke:none;stroke-width:0"
             id="path3521" />
        </g>
      </g>
      <g
         id="g92">
        <g
           style="font-size:12px;font-family:Arial;text-anchor:end;fill:#444444;stroke:none;stroke-width:0"
           id="text94">
          <path
             d="m 69.144531,60.432423 1.054688,-0.140625 q 0.18164,0.896484 0.615234,1.294922 0.439453,0.392578 1.066406,0.392578 0.744141,0 1.253907,-0.515625 0.515625,-0.515625 0.515625,-1.277344 0,-0.726563 -0.47461,-1.195313 -0.474609,-0.474609 -1.207031,-0.474609 -0.298828,0 -0.744141,0.117188 l 0.117188,-0.925782 q 0.105469,0.01172 0.169922,0.01172 0.673828,0 1.21289,-0.351562 0.539063,-0.351563 0.539063,-1.083985 0,-0.580078 -0.392578,-0.960937 -0.392578,-0.38086 -1.013672,-0.38086 -0.615235,0 -1.025391,0.386719 -0.410156,0.386719 -0.527344,1.160156 L 69.25,56.301563 q 0.193359,-1.060547 0.878906,-1.640625 0.685547,-0.585937 1.705078,-0.585937 0.703125,0 1.294922,0.304687 0.591797,0.298828 0.902344,0.820313 0.316406,0.521484 0.316406,1.107422 0,0.55664 -0.298828,1.013672 -0.298828,0.457031 -0.884766,0.726562 0.761719,0.175781 1.183594,0.732422 0.421875,0.550781 0.421875,1.382812 0,1.125 -0.820312,1.910157 -0.820313,0.779297 -2.074219,0.779297 -1.130859,0 -1.880859,-0.673829 Q 69.25,61.504688 69.144531,60.432423 Z"
             style="font-size:12px;font-family:Arial;text-anchor:end;fill:#444444;stroke:none;stroke-width:0"
             id="path3524" />
          <path
             d="m 75.818359,58.463673 q 0,-1.523438 0.310547,-2.449219 0.316406,-0.931641 0.931641,-1.435547 0.621094,-0.503906 1.558594,-0.503906 0.691406,0 1.21289,0.28125 0.521485,0.27539 0.861328,0.802734 0.339844,0.521485 0.533203,1.277344 0.19336,0.75 0.19336,2.027344 0,1.511718 -0.310547,2.443359 -0.310547,0.925781 -0.931641,1.435547 -0.615234,0.503906 -1.558593,0.503906 -1.242188,0 -1.951172,-0.890625 -0.84961,-1.072265 -0.84961,-3.492187 z m 1.083985,0 q 0,2.115234 0.492187,2.818359 0.498047,0.697266 1.22461,0.697266 0.726562,0 1.21875,-0.703125 0.498046,-0.703125 0.498046,-2.8125 0,-2.121094 -0.498046,-2.81836 -0.492188,-0.697265 -1.230469,-0.697265 -0.726563,0 -1.160156,0.615234 -0.544922,0.785156 -0.544922,2.900391 z"
             style="font-size:12px;font-family:Arial;text-anchor:end;fill:#444444;stroke:none;stroke-width:0"
             id="path3526" />
        </g>
      </g>
    </g>
  </g>
  <g
     id="g96">
    <g
       id="g98">
      <g
         style="font-style:italic;font-size:12px;font-family:Arial;text-anchor:middle;fill:#222222;stroke:none;stroke-width:0"
         id="text100">
        <path
           d="m 226.24805,285.20001 1.58789,-7.61133 -2.81836,0 0.20508,-0.97851 6.76171,0 -0.20507,0.97851 -2.79493,0 -1.58789,7.61133 -1.14843,0 z"
           style="font-style:italic;font-size:12px;font-family:Arial;text-anchor:middle;fill:#222222;stroke:none;stroke-width:0"
           id="path3437" />
        <path
           d="m 232.66992,277.81134 0.25195,-1.20117 1.05469,0 -0.25195,1.20117 -1.05469,0 z m -1.54687,7.38867 1.30078,-6.22265 1.06054,0 -1.30078,6.22265 -1.06054,0 z"
           style="font-style:italic;font-size:12px;font-family:Arial;text-anchor:middle;fill:#222222;stroke:none;stroke-width:0"
           id="path3439" />
        <path
           d="m 233.83008,285.20001 1.30078,-6.22265 1.06055,0 -0.2168,1.02539 q 0.5918,-0.66211 1.05469,-0.91407 0.46875,-0.25195 1.01367,-0.25195 0.58008,0 0.9668,0.31055 0.39257,0.30469 0.51562,0.85547 0.47461,-0.58594 0.99609,-0.87305 0.52735,-0.29297 1.10743,-0.29297 0.77929,0 1.16601,0.36914 0.39258,0.36914 0.39258,1.03711 0,0.28711 -0.13477,0.94922 l -0.83789,4.00781 -1.06054,0 0.85547,-4.11328 q 0.11132,-0.50391 0.11132,-0.7207 0,-0.30469 -0.19336,-0.48047 -0.19336,-0.17578 -0.54492,-0.17578 -0.47461,0 -0.96679,0.28711 -0.49219,0.28711 -0.76758,0.75586 -0.26953,0.46289 -0.47461,1.42968 l -0.63281,3.01758 -1.06055,0 0.8789,-4.20117 q 0.0937,-0.42773 0.0937,-0.60937 0,-0.30469 -0.19335,-0.49219 -0.1875,-0.1875 -0.49219,-0.1875 -0.45117,0 -0.94922,0.28711 -0.49219,0.28711 -0.80274,0.80273 -0.31054,0.50977 -0.50976,1.45899 l -0.61524,2.9414 -1.06054,0 z"
           style="font-style:italic;font-size:12px;font-family:Arial;text-anchor:middle;fill:#222222;stroke:none;stroke-width:0"
           id="path3441" />
        <path
           d="m 248.41406,283.08478 1.03125,0.10547 q -0.22265,0.76757 -1.02539,1.45898 -0.79687,0.69141 -1.9043,0.69141 -0.6914,0 -1.27148,-0.31641 -0.57422,-0.32226 -0.87891,-0.93164 -0.29882,-0.60937 -0.29882,-1.38867 0,-1.01953 0.46875,-1.97461 0.47461,-0.96094 1.22461,-1.42383 0.75,-0.46875 1.62304,-0.46875 1.11328,0 1.77539,0.69141 0.66797,0.6914 0.66797,1.88672 0,0.45703 -0.082,0.9375 l -4.58203,0 q -0.0234,0.18164 -0.0234,0.32812 0,0.87305 0.39844,1.33594 0.4043,0.45703 0.98437,0.45703 0.54493,0 1.07227,-0.35742 0.52734,-0.35742 0.82031,-1.03125 z m -3.08203,-1.54102 3.49219,0 q 0.006,-0.16406 0.006,-0.23437 0,-0.79688 -0.39844,-1.21875 -0.39844,-0.42774 -1.02539,-0.42774 -0.67969,0 -1.24219,0.46875 -0.55664,0.46875 -0.83203,1.41211 z"
           style="font-style:italic;font-size:12px;font-family:Arial;text-anchor:middle;fill:#222222;stroke:none;stroke-width:0"
           id="path3443" />
        <path
           d="m 255.38672,287.7254 q -0.91992,-2.01562 -0.91992,-4.14258 0,-1.41796 0.36914,-2.63671 0.375,-1.22461 1.13672,-2.41993 0.5039,-0.79687 1.61132,-2.0625 l 0.82618,0 q -0.68555,0.73243 -1.45313,2.0625 -0.76172,1.33008 -1.10742,2.61329 -0.3457,1.2832 -0.3457,2.57812 0,1.93359 0.67382,4.00781 l -0.79101,0 z"
           style="font-style:italic;font-size:12px;font-family:Arial;text-anchor:middle;fill:#222222;stroke:none;stroke-width:0"
           id="path3445" />
        <path
           d="m 257.85352,285.20001 1.30078,-6.22265 1.06054,0 -0.21679,1.02539 q 0.59179,-0.66211 1.05468,-0.91407 0.46875,-0.25195 1.01368,-0.25195 0.58007,0 0.96679,0.31055 0.39258,0.30469 0.51563,0.85547 0.47461,-0.58594 0.99609,-0.87305 0.52735,-0.29297 1.10742,-0.29297 0.7793,0 1.16602,0.36914 0.39258,0.36914 0.39258,1.03711 0,0.28711 -0.13477,0.94922 l -0.83789,4.00781 -1.06055,0 0.85547,-4.11328 q 0.11133,-0.50391 0.11133,-0.7207 0,-0.30469 -0.19336,-0.48047 -0.19336,-0.17578 -0.54492,-0.17578 -0.47461,0 -0.9668,0.28711 -0.49218,0.28711 -0.76758,0.75586 -0.26953,0.46289 -0.4746,1.42968 l -0.63282,3.01758 -1.06054,0 0.8789,-4.20117 q 0.0937,-0.42773 0.0937,-0.60937 0,-0.30469 -0.19336,-0.49219 -0.1875,-0.1875 -0.49218,-0.1875 -0.45118,0 -0.94922,0.28711 -0.49219,0.28711 -0.80274,0.80273 -0.31054,0.50977 -0.50976,1.45899 l -0.61524,2.9414 -1.06054,0 z"
           style="font-style:italic;font-size:12px;font-family:Arial;text-anchor:middle;fill:#222222;stroke:none;stroke-width:0"
           id="path3447" />
        <path
           d="m 267.9668,283.07306 1.06054,-0.0645 q 0,0.45703 0.14063,0.77929 0.14062,0.32227 0.51562,0.52735 0.38086,0.20507 0.88477,0.20507 0.70312,0 1.05469,-0.28125 0.35156,-0.28125 0.35156,-0.6621 0,-0.2754 -0.21094,-0.52149 -0.2168,-0.24609 -1.06055,-0.60351 -0.83789,-0.36329 -1.07226,-0.50977 -0.39258,-0.24023 -0.5918,-0.5625 -0.19922,-0.32813 -0.19922,-0.75 0,-0.73828 0.58594,-1.26563 0.58594,-0.52734 1.64063,-0.52734 1.17187,0 1.78125,0.54492 0.61523,0.53907 0.63867,1.42383 l -1.03711,0.0703 q -0.0234,-0.5625 -0.39844,-0.89062 -0.375,-0.32813 -1.06055,-0.32813 -0.55078,0 -0.85546,0.25196 -0.30469,0.25195 -0.30469,0.54492 0,0.29297 0.26367,0.51562 0.17578,0.15235 0.9082,0.46875 1.21875,0.52735 1.53516,0.83203 0.50391,0.48633 0.50391,1.1836 0,0.46289 -0.28711,0.9082 -0.28125,0.44531 -0.86719,0.71485 -0.58008,0.26367 -1.3711,0.26367 -1.07812,0 -1.83398,-0.53321 -0.75586,-0.5332 -0.71484,-1.73437 z"
           style="font-style:italic;font-size:12px;font-family:Arial;text-anchor:middle;fill:#222222;stroke:none;stroke-width:0"
           id="path3449" />
        <path
           d="m 275.84766,276.46368 q 0.92578,2.01563 0.92578,4.13672 0,1.42383 -0.375,2.64258 -0.36914,1.21875 -1.13086,2.41992 -0.50977,0.79688 -1.61133,2.0625 l -0.82617,0 q 0.67969,-0.73828 1.44726,-2.06836 0.76758,-1.33007 1.10743,-2.60742 0.3457,-1.2832 0.3457,-2.58398 0,-1.9336 -0.67383,-4.00196 l 0.79102,0 z"
           style="font-style:italic;font-size:12px;font-family:Arial;text-anchor:middle;fill:#222222;stroke:none;stroke-width:0"
           id="path3451" />
      </g>
      <path
         style="fill:#ffffff;fill-opacity:0;stroke:none;stroke-width:0"
         d="m 94,275 313,0 0,12 -313,0 z"
         id="rect102" />
    </g>
  </g>
  <g
     id="g104" />
</svg>
