<svg xmlns="http://www.w3.org/2000/svg" viewBox="-24 -92.41499999999999 800 353.6" width="800" height="353.6" version="1.1" id="model_4" class="canvas">
<rect x="-24" y="-92.41499999999999" height="353.6" width="100%" fill="gray" fill-opacity="0.1"></rect><path fill="red" transform="translate(-12 -12)" d="M12,4.64516129 C7.93451613,4.64516129 4.64516129,7.93548387 4.64516129,12 C4.64516129,16.0654839 7.93548387,19.3548387 12,19.3548387 C16.0654839,19.3548387 19.3548387,16.0645161 19.3548387,12 C19.3548387,7.93451613 16.0645161,4.64516129 12,4.64516129 Z M12,17.0322581 C9.225,17.0322581 6.96774194,14.775 6.96774194,12 C6.96774194,9.225 9.225,6.96774194 12,6.96774194 C14.775,6.96774194 17.0322581,9.225 17.0322581,12 C17.0322581,14.775 14.775,17.0322581 12,17.0322581 Z M12,0 C5.37241935,0 0,5.37241935 0,12 C0,18.6275806 5.37241935,24 12,24 C18.6275806,24 24,18.6275806 24,12 C24,5.37241935 18.6275806,0 12,0 Z M12,21.6774194 C6.66387097,21.6774194 2.32258065,17.336129 2.32258065,12 C2.32258065,6.66387097 6.66387097,2.32258065 12,2.32258065 C17.336129,2.32258065 21.6774194,6.66387097 21.6774194,12 C21.6774194,17.336129 17.336129,21.6774194 12,21.6774194 Z M12,9.29032258 C10.5058065,9.29032258 9.29032258,10.5058065 9.29032258,12 C9.29032258,13.4941935 10.5058065,14.7096774 12,14.7096774 C13.4941935,14.7096774 14.7096774,13.4941935 14.7096774,12 C14.7096774,10.5058065 13.4941935,9.29032258 12,9.29032258 Z"></path><path fill="blue" transform="translate(302.46 -12)" d="M12,4.64516129 C7.93451613,4.64516129 4.64516129,7.93548387 4.64516129,12 C4.64516129,16.0654839 7.93548387,19.3548387 12,19.3548387 C16.0654839,19.3548387 19.3548387,16.0645161 19.3548387,12 C19.3548387,7.93451613 16.0645161,4.64516129 12,4.64516129 Z M12,17.0322581 C9.225,17.0322581 6.96774194,14.775 6.96774194,12 C6.96774194,9.225 9.225,6.96774194 12,6.96774194 C14.775,6.96774194 17.0322581,9.225 17.0322581,12 C17.0322581,14.775 14.775,17.0322581 12,17.0322581 Z M12,0 C5.37241935,0 0,5.37241935 0,12 C0,18.6275806 5.37241935,24 12,24 C18.6275806,24 24,18.6275806 24,12 C24,5.37241935 18.6275806,0 12,0 Z M12,21.6774194 C6.66387097,21.6774194 2.32258065,17.336129 2.32258065,12 C2.32258065,6.66387097 6.66387097,2.32258065 12,2.32258065 C17.336129,2.32258065 21.6774194,6.66387097 21.6774194,12 C21.6774194,17.336129 17.336129,21.6774194 12,21.6774194 Z M12,9.29032258 C10.5058065,9.29032258 9.29032258,10.5058065 9.29032258,12 C9.29032258,13.4941935 10.5058065,14.7096774 12,14.7096774 C13.4941935,14.7096774 14.7096774,13.4941935 14.7096774,12 C14.7096774,10.5058065 13.4941935,9.29032258 12,9.29032258 Z"></path><path transform="translate(582.4050000000001 -33.15)" fill="red" d="M15.9098437,4.32796875 C16.3420443,2.98020924 17.6596148,2.11976685 19.0674127,2.26591124 C20.4752105,2.41205563 21.5879444,3.52478945 21.7340888,4.93258732 C21.8802332,6.3403852 21.0197908,7.6579557 19.6720312,8.09015625 L17.9878125,10.423125 C18.239625,10.4675587 18.4943863,10.4932542 18.75,10.5 C21.6494949,10.5 24,8.14949494 24,5.25 C24,2.35050506 21.6494949,-6.19949465e-14 18.75,-6.21724894e-14 C15.8505051,-6.23500322e-14 13.5,2.35050506 13.5,5.25 C13.5067458,5.5056137 13.5324413,5.76037503 13.576875,6.0121875 L15.9098437,4.32796875 Z M5.203125,17.259375 C4.3883515,17.2824352 3.74204012,17.9536015 3.74972776,18.768665 C3.75741539,19.5837285 4.41627146,20.2425846 5.23133498,20.2502722 C6.04639849,20.2579599 6.71756483,19.6116485 6.740625,18.796875 L9.9215625,16.5 L14.0784375,16.5 L17.259375,18.796875 C17.2824352,19.6116485 17.9536015,20.2579599 18.768665,20.2502722 C19.5837285,20.2425846 20.2425846,19.5837285 20.2502722,18.768665 C20.2579599,17.9536015 19.6116485,17.2824352 18.796875,17.259375 L16.5,14.0784375 L16.5,9.9215625 L18.796875,6.740625 C19.6116485,6.71756483 20.2579599,6.04639849 20.2502722,5.23133498 C20.2425846,4.41627146 19.5837285,3.75741539 18.768665,3.74972776 C17.9536015,3.74204012 17.2824352,4.3883515 17.259375,5.203125 L14.0784375,7.5 L9.9215625,7.5 L6.740625,5.203125 C6.71756483,4.3883515 6.04639849,3.74204012 5.23133498,3.74972776 C4.41627146,3.75741539 3.75741539,4.41627146 3.74972776,5.23133498 C3.74204012,6.04639849 4.3883515,6.71756483 5.203125,6.740625 L7.5,9.9215625 L7.5,14.0784375 L5.203125,17.259375 Z M9.75,9.75 L14.25,9.75 L14.25,14.25 L9.75,14.25 L9.75,9.75 Z M18.75,13.5 C18.4943877,13.5067681 18.239628,13.5324635 17.9878125,13.576875 L19.6720312,15.9098437 C21.0199025,16.3419927 21.8804341,17.6596468 21.7342495,19.0675317 C21.5880648,20.4754165 20.4751777,21.588165 19.0672747,21.7341742 C17.6593716,21.8801834 16.3418248,21.0194876 15.9098437,19.6715625 L13.576875,17.9878125 C13.5324413,18.239625 13.5067458,18.4943863 13.5,18.75 C13.5,21.6494949 15.8505051,24 18.75,24 C21.6494949,24 24,21.6494949 24,18.75 C24,15.8505051 21.6494949,13.5 18.75,13.5 Z M5.25,10.5 C5.5056137,10.4932542 5.76037503,10.4675587 6.0121875,10.423125 L4.3284375,8.09015625 C2.98051243,7.65817522 2.11981663,6.34062835 2.26582584,4.93272533 C2.41183504,3.52482231 3.52458353,2.41193516 4.93246835,2.26575053 C6.34035317,2.11956589 7.65800726,2.98009751 8.09015625,4.32796875 L10.423125,6.0121875 C10.4675365,5.76037197 10.4932319,5.50561228 10.5,5.25 C10.5,2.35050506 8.14949494,1.7754286e-16 5.25,0 C2.35050506,-1.7754286e-16 -8.66863994e-14,2.35050506 -8.70414851e-14,5.25 C-8.73965708e-14,8.14949494 2.35050506,10.5 5.25,10.5 Z M8.09015625,19.6720312 C7.6579557,21.0197908 6.3403852,21.8802332 4.93258732,21.7340888 C3.52478945,21.5879444 2.41205563,20.4752105 2.26591124,19.0674127 C2.11976685,17.6596148 2.98020924,16.3420443 4.32796875,15.9098437 L6.0121875,13.576875 C5.76037503,13.5324413 5.5056137,13.5067458 5.25,13.5 C2.35050506,13.5 3.55085719e-16,15.8505051 0,18.75 C-3.55085719e-16,21.6494949 2.35050506,24 5.25,24 C8.14949494,24 10.5,21.6494949 10.5,18.75 C10.4932542,18.4943863 10.4675587,18.239625 10.423125,17.9878125 L8.09015625,19.6720312 Z"></path><path transform="translate(537.7049999999999 124.36499999999998)" fill="blue" d="M15.9098437,4.32796875 C16.3420443,2.98020924 17.6596148,2.11976685 19.0674127,2.26591124 C20.4752105,2.41205563 21.5879444,3.52478945 21.7340888,4.93258732 C21.8802332,6.3403852 21.0197908,7.6579557 19.6720312,8.09015625 L17.9878125,10.423125 C18.239625,10.4675587 18.4943863,10.4932542 18.75,10.5 C21.6494949,10.5 24,8.14949494 24,5.25 C24,2.35050506 21.6494949,-6.19949465e-14 18.75,-6.21724894e-14 C15.8505051,-6.23500322e-14 13.5,2.35050506 13.5,5.25 C13.5067458,5.5056137 13.5324413,5.76037503 13.576875,6.0121875 L15.9098437,4.32796875 Z M5.203125,17.259375 C4.3883515,17.2824352 3.74204012,17.9536015 3.74972776,18.768665 C3.75741539,19.5837285 4.41627146,20.2425846 5.23133498,20.2502722 C6.04639849,20.2579599 6.71756483,19.6116485 6.740625,18.796875 L9.9215625,16.5 L14.0784375,16.5 L17.259375,18.796875 C17.2824352,19.6116485 17.9536015,20.2579599 18.768665,20.2502722 C19.5837285,20.2425846 20.2425846,19.5837285 20.2502722,18.768665 C20.2579599,17.9536015 19.6116485,17.2824352 18.796875,17.259375 L16.5,14.0784375 L16.5,9.9215625 L18.796875,6.740625 C19.6116485,6.71756483 20.2579599,6.04639849 20.2502722,5.23133498 C20.2425846,4.41627146 19.5837285,3.75741539 18.768665,3.74972776 C17.9536015,3.74204012 17.2824352,4.3883515 17.259375,5.203125 L14.0784375,7.5 L9.9215625,7.5 L6.740625,5.203125 C6.71756483,4.3883515 6.04639849,3.74204012 5.23133498,3.74972776 C4.41627146,3.75741539 3.75741539,4.41627146 3.74972776,5.23133498 C3.74204012,6.04639849 4.3883515,6.71756483 5.203125,6.740625 L7.5,9.9215625 L7.5,14.0784375 L5.203125,17.259375 Z M9.75,9.75 L14.25,9.75 L14.25,14.25 L9.75,14.25 L9.75,9.75 Z M18.75,13.5 C18.4943877,13.5067681 18.239628,13.5324635 17.9878125,13.576875 L19.6720312,15.9098437 C21.0199025,16.3419927 21.8804341,17.6596468 21.7342495,19.0675317 C21.5880648,20.4754165 20.4751777,21.588165 19.0672747,21.7341742 C17.6593716,21.8801834 16.3418248,21.0194876 15.9098437,19.6715625 L13.576875,17.9878125 C13.5324413,18.239625 13.5067458,18.4943863 13.5,18.75 C13.5,21.6494949 15.8505051,24 18.75,24 C21.6494949,24 24,21.6494949 24,18.75 C24,15.8505051 21.6494949,13.5 18.75,13.5 Z M5.25,10.5 C5.5056137,10.4932542 5.76037503,10.4675587 6.0121875,10.423125 L4.3284375,8.09015625 C2.98051243,7.65817522 2.11981663,6.34062835 2.26582584,4.93272533 C2.41183504,3.52482231 3.52458353,2.41193516 4.93246835,2.26575053 C6.34035317,2.11956589 7.65800726,2.98009751 8.09015625,4.32796875 L10.423125,6.0121875 C10.4675365,5.76037197 10.4932319,5.50561228 10.5,5.25 C10.5,2.35050506 8.14949494,1.7754286e-16 5.25,0 C2.35050506,-1.7754286e-16 -8.66863994e-14,2.35050506 -8.70414851e-14,5.25 C-8.73965708e-14,8.14949494 2.35050506,10.5 5.25,10.5 Z M8.09015625,19.6720312 C7.6579557,21.0197908 6.3403852,21.8802332 4.93258732,21.7340888 C3.52478945,21.5879444 2.41205563,20.4752105 2.26591124,19.0674127 C2.11976685,17.6596148 2.98020924,16.3420443 4.32796875,15.9098437 L6.0121875,13.576875 C5.76037503,13.5324413 5.5056137,13.5067458 5.25,13.5 C2.35050506,13.5 3.55085719e-16,15.8505051 0,18.75 C-3.55085719e-16,21.6494949 2.35050506,24 5.25,24 C8.14949494,24 10.5,21.6494949 10.5,18.75 C10.4932542,18.4943863 10.4675587,18.239625 10.423125,17.9878125 L8.09015625,19.6720312 Z"></path><polyline fill="none" stroke="red" stroke-opacity="0.4" stroke-width="3" points="0,0 0,0 0,0 0.075,0.015 0.075,0.015 0.51,0.075 0.51,0.075 1.3199999999999998,0.15 1.3199999999999998,0.15 2.685,0.22499999999999998 2.685,0.22499999999999998 4.41,0.26999999999999996 4.41,0.26999999999999996 6.27,0.285 6.27,0.285 9.105,0.285 9.105,0.285 12.06,0.255 12.06,0.255 15.495,0.21 15.495,0.21 19.47,0.12 19.47,0.12 23.055,0.03 23.055,0.03 27.900000000000002,-0.09 27.900000000000002,-0.09 32.55,-0.24 32.55,-0.24 37.995,-0.40499999999999997 37.995,-0.40499999999999997 43.11,-0.525 43.11,-0.525 48.675000000000004,-0.615 48.675000000000004,-0.615 54.51,-0.69 54.51,-0.69 61.995,-0.735 61.995,-0.735 67.60499999999999,-0.75 67.60499999999999,-0.75 74.44500000000001,-0.735 74.44500000000001,-0.735 81.53999999999999,-0.705 81.53999999999999,-0.705 89.565,-0.6449999999999999 89.565,-0.6449999999999999 97.39500000000001,-0.5549999999999999 97.39500000000001,-0.5549999999999999 105.45,-0.44999999999999996 105.45,-0.44999999999999996 113.73,-0.315 113.73,-0.315 121.72500000000001,-0.16499999999999998 121.72500000000001,-0.16499999999999998 130.17000000000002,0 130.17000000000002,0 138.255,0.16499999999999998 138.255,0.16499999999999998 147.585,0.38999999999999996 147.585,0.38999999999999996 156.825,0.63 156.825,0.63 165.69,0.825 165.69,0.825 174.99,1.0050000000000001 174.99,1.0050000000000001 184.14,1.14 184.14,1.14 194.895,1.2750000000000001 194.895,1.2750000000000001 205.23000000000002,1.365 205.23000000000002,1.365 213.6,1.41 213.6,1.41 224.48999999999998,1.5 224.48999999999998,1.5 234.29999999999998,1.5899999999999999 234.29999999999998,1.5899999999999999 244.515,1.71 244.515,1.71 256.11,1.875 256.11,1.875 265.62,2.0250000000000004 265.62,2.0250000000000004 277.44,2.235 277.44,2.235 288.09,2.46 288.09,2.46 297.21,2.655 297.21,2.655 308.35499999999996,2.91 308.35499999999996,2.91 320.58,3.27 320.58,3.27 330.57,3.6149999999999998 330.57,3.6149999999999998 342.63,4.11 342.63,4.11 353.745,4.6049999999999995 353.745,4.6049999999999995 365.28000000000003,5.1899999999999995 365.28000000000003,5.1899999999999995 375.16499999999996,5.775 375.16499999999996,5.775 387.825,6.69 387.825,6.69 398.13,7.5600000000000005 398.13,7.5600000000000005 409.14,8.61 409.14,8.61 422.58,10.125 422.58,10.125 433.95,11.655000000000001 433.95,11.655000000000001 444.24,13.26 444.24,13.26 456.87,15.584999999999999 456.87,15.584999999999999 468.36,18.075000000000003 468.36,18.075000000000003 477.71999999999997,20.400000000000002 477.71999999999997,20.400000000000002 489.885,23.865 489.885,23.865 500.82,27.450000000000003 500.82,27.450000000000003 510.87,31.169999999999998 510.87,31.169999999999998 521.5500000000001,35.64 521.5500000000001,35.64 530.985,40.080000000000005 530.985,40.080000000000005 540.63,45.135 540.63,45.135 549.06,50.055 549.06,50.055 557.385,55.41 557.385,55.41 565.515,61.2 565.515,61.2 574.5,68.37 574.5,68.37 580.74,73.905 580.74,73.905 587.3549999999999,80.36999999999999 587.3549999999999,80.36999999999999 593.955,87.6 593.955,87.6 599.4300000000001,94.335 599.4300000000001,94.335 604.065,100.725 604.065,100.725 608.46,107.565 608.46,107.565 612.585,114.99000000000001 612.585,114.99000000000001 615.885,121.965 615.885,121.965 618.5849999999999,128.82 618.5849999999999,128.82 620.6550000000001,135.345 620.6550000000001,135.345 622.125,141.165 622.125,141.165 623.295,147.26999999999998 623.295,147.26999999999998 624.0450000000001,154.305 624.0450000000001,154.305 624.1800000000001,160.065 624.1800000000001,160.065 623.91,165.69 623.91,165.69 623.145,171.285 623.145,171.285 621.975,176.52 621.975,176.52 620.07,182.505 620.07,182.505 618.21,186.84 618.21,186.84 615.7049999999999,191.58 615.7049999999999,191.58 612.54,196.5 612.54,196.5 609.525,200.37 609.525,200.37 605.4,204.84 605.4,204.84 601.23,208.68 601.23,208.68 596.9549999999999,212.025 596.9549999999999,212.025 592.23,215.19 592.23,215.19 587.0699999999999,218.19 587.0699999999999,218.19 582.075,220.635 582.075,220.635 576.15,223.095 576.15,223.095 570.135,225.18 570.135,225.18 564.615,226.74 564.615,226.74 558.33,228.165 558.33,228.165 551.04,229.41 551.04,229.41 544.35,230.175 544.35,230.175 537.915,230.61 537.915,230.61 530.265,230.79 530.265,230.79 523.335,230.61 523.335,230.61 515.85,230.1 515.85,230.1 509.16,229.365 509.16,229.365 500.58,228.045 500.58,228.045 493.08,226.5 493.08,226.5 485.32499999999993,224.55 485.32499999999993,224.55 478.695,222.63 478.695,222.63 471.165,220.095 471.165,220.095 462.99,216.915 462.99,216.915 455.355,213.52499999999998 455.355,213.52499999999998 448.65,210.27 448.65,210.27 440.925,206.1 440.925,206.1 433.155,201.39000000000001 433.155,201.39000000000001 426.435,196.82999999999998 426.435,196.82999999999998 420.06,192.15 420.06,192.15 413.055,186.55499999999998 413.055,186.55499999999998 406.46999999999997,180.76500000000001 406.46999999999997,180.76500000000001 400.35,174.825 400.35,174.825 394.545,168.585 394.545,168.585 388.59,161.45999999999998 388.59,161.45999999999998 384.21000000000004,155.74499999999998 384.21000000000004,155.74499999999998 379.15500000000003,148.59 379.15500000000003,148.59 374.205,140.76 374.205,140.76 370.44,134.04 370.44,134.04 366.375,125.805 366.375,125.805 362.835,117.405 362.835,117.405 360.39,110.79 360.39,110.79 357.42,101.46000000000001 357.42,101.46000000000001 355.53000000000003,94.2 355.53000000000003,94.2 353.865,85.935 353.865,85.935 352.725,77.91 352.725,77.91 352.04999999999995,69.92999999999999 352.04999999999995,69.92999999999999 351.795,61.25999999999999 351.795,61.25999999999999 351.91499999999996,54.555 351.91499999999996,54.555 352.53,46.02 352.53,46.02 353.52000000000004,38.805 353.52000000000004,38.805 355.21500000000003,30.36 355.21500000000003,30.36 357.15,22.994999999999997 357.15,22.994999999999997 359.46,15.780000000000001 359.46,15.780000000000001 362.01,9.195 362.01,9.195 365.145,2.415 365.145,2.415 368.96999999999997,-4.725 368.96999999999997,-4.725 372.96000000000004,-11.235 372.96000000000004,-11.235 376.545,-16.380000000000003 376.545,-16.380000000000003 381.96,-23.16 381.96,-23.16 387.045,-28.77 387.045,-28.77 391.62,-33.315 391.62,-33.315 397.125,-38.19 397.125,-38.19 403.46999999999997,-43.08 403.46999999999997,-43.08 408.975,-46.86 408.975,-46.86 415.245,-50.730000000000004 415.245,-50.730000000000004 422.955,-54.824999999999996 422.955,-54.824999999999996 428.88,-57.495000000000005 428.88,-57.495000000000005 436.62,-60.51 436.62,-60.51 442.605,-62.504999999999995 442.605,-62.504999999999995 450.9,-64.755 450.9,-64.755 458.235,-66.225 458.235,-66.225 465.87,-67.365 465.87,-67.365 473.145,-68.085 473.145,-68.085 480.23999999999995,-68.41499999999999 480.23999999999995,-68.41499999999999 487.57500000000005,-68.32499999999999 487.57500000000005,-68.32499999999999 496.06499999999994,-67.785 496.06499999999994,-67.785 503.175,-66.975 503.175,-66.975 510.72,-65.715 510.72,-65.715 517.995,-64.125 517.995,-64.125 526.35,-61.85999999999999 526.35,-61.85999999999999 534.1800000000001,-59.265 534.1800000000001,-59.265 540.78,-56.67 540.78,-56.67 547.86,-53.415 547.86,-53.415 555.1949999999999,-49.59 555.1949999999999,-49.59 561.555,-45.885000000000005 561.555,-45.885000000000005 568.725,-41.160000000000004 568.725,-41.160000000000004 575.025,-36.465 575.025,-36.465 581.475,-31.14 581.475,-31.14 587.16,-25.965 587.16,-25.965 592.9350000000001,-20.16 592.9350000000001,-20.16 597.885,-14.565 597.885,-14.565 602.595,-8.745 602.595,-8.745 608.0699999999999,-1.305 608.0699999999999,-1.305 612.4499999999999,5.415 612.4499999999999,5.415 616.125,11.745000000000001 616.125,11.745000000000001 620.16,19.544999999999998 620.16,19.544999999999998 623.55,26.88 623.55,26.88 626.565,34.410000000000004 626.565,34.410000000000004 629.3249999999999,42.555 629.3249999999999,42.555 631.29,49.635000000000005 631.29,49.635000000000005 633.15,57.75 633.15,57.75 634.605,65.7 634.605,65.7 635.64,73.725 635.64,73.725 636.24,82.24499999999999 636.24,82.24499999999999 636.375,89.295 636.375,89.295 636.075,98.265 636.075,98.265 635.4599999999999,105.99 635.4599999999999,105.99 634.29,114.6 634.29,114.6 632.76,122.385 632.76,122.385 630.855,130.08 630.855,130.08 628.5150000000001,137.89499999999998 628.5150000000001,137.89499999999998 626.0849999999999,144.66 626.0849999999999,144.66 623.01,151.92000000000002 623.01,151.92000000000002 619.1850000000001,159.555 619.1850000000001,159.555 615.21,166.545 615.21,166.545 611.01,173.115 611.01,173.115 606.885,178.85999999999999 606.885,178.85999999999999 601.3950000000001,185.61 601.3950000000001,185.61 596.19,191.34 596.19,191.34 590.34,197.13 590.34,197.13 584.715,202.095 584.715,202.095 578.43,207.01500000000001 578.43,207.01500000000001 572.28,211.32 572.28,211.32 565.305,215.70000000000002 565.305,215.70000000000002 558.7199999999999,219.345 558.7199999999999,219.345 551.505,222.795 551.505,222.795 544.545,225.63 544.545,225.63 536.79,228.32999999999998 536.79,228.32999999999998 530.265,230.26500000000001 530.265,230.26500000000001 521.79,232.26 521.79,232.26 514.635,233.505 514.635,233.505 506.94,234.465 506.94,234.465 498.735,235.065 498.735,235.065 490.26,235.185 490.26,235.185 483.44999999999993,234.88500000000002 483.44999999999993,234.88500000000002 475.725,234.195 475.725,234.195 468.015,233.13 468.015,233.13 459.69,231.48000000000002 459.69,231.48000000000002 452.625,229.65 452.625,229.65 444.75,227.19 444.75,227.19 436.995,224.325 436.995,224.325 430.065,221.31 430.065,221.31 423.105,217.79999999999998 423.105,217.79999999999998 416.13,213.82500000000002 416.13,213.82500000000002 410.115,210.03 410.115,210.03 402.585,204.66 402.585,204.66 396.675,199.875 396.675,199.875 391.005,194.805 391.005,194.805 385.05,188.95499999999998 385.05,188.95499999999998 380.53499999999997,184.005 380.53499999999997,184.005 374.79,176.97 374.79,176.97 369.93,170.175 369.93,170.175 366.435,164.77499999999998 366.435,164.77499999999998 361.85999999999996,156.915 361.85999999999996,156.915 358.71000000000004,150.75 358.71000000000004,150.75 355.245,142.875 355.245,142.875 352.2,134.835 352.2,134.835 350.03999999999996,128.23499999999999 350.03999999999996,128.23499999999999 347.97,120.6 347.97,120.6 346.2,112.155 346.2,112.155 345.135,105.05999999999999 345.135,105.05999999999999 344.34,97.24499999999999 344.34,97.24499999999999 343.875,88.18499999999999 343.875,88.18499999999999 343.92,80.79 343.92,80.79 344.43,72.48 344.43,72.48 345.39,64.21499999999999 345.39,64.21499999999999 346.485,57.405 346.485,57.405 348.29999999999995,49.035000000000004 348.29999999999995,49.035000000000004 350.21999999999997,42.18 350.21999999999997,42.18 352.68,34.77 352.68,34.77 355.86,26.595 355.86,26.595 358.89,19.89 358.89,19.89 362.28000000000003,13.395 362.28000000000003,13.395 367.035,5.52 367.035,5.52 370.86,-0.12 370.86,-0.12 375.945,-6.885000000000001 375.945,-6.885000000000001 380.49,-12.285 380.49,-12.285 385.96500000000003,-18.06 385.96500000000003,-18.06 392.28000000000003,-24.015 392.28000000000003,-24.015 397.995,-28.89 397.995,-28.89 403.785,-33.300000000000004 403.785,-33.300000000000004 410.415,-37.769999999999996 410.415,-37.769999999999996 417.67499999999995,-42.105 417.67499999999995,-42.105 423.705,-45.33 423.705,-45.33 430.77,-48.644999999999996 430.77,-48.644999999999996 438.885,-51.870000000000005 438.885,-51.870000000000005 446.295,-54.375 446.295,-54.375 453.375,-56.4 453.375,-56.4 460.815,-58.125 460.815,-58.125 469.26,-59.565 469.26,-59.565 477.57,-60.555 477.57,-60.555 484.74,-61.065 484.74,-61.065 492.435,-61.23 492.435,-61.23 501.55499999999995,-60.89999999999999 501.55499999999995,-60.89999999999999 508.485,-60.24 508.485,-60.24 517.245,-58.965 517.245,-58.965 524.55,-57.555 524.55,-57.555 532.6949999999999,-55.515 532.6949999999999,-55.515 539.775,-53.309999999999995 539.775,-53.309999999999995 547.1700000000001,-50.595000000000006 547.1700000000001,-50.595000000000006 554.685,-47.46 554.685,-47.46 562.65,-43.574999999999996 562.65,-43.574999999999996 568.89,-40.05 568.89,-40.05 575.97,-35.61 575.97,-35.61 582.8249999999999,-30.794999999999998 582.8249999999999,-30.794999999999998 588.48,-26.354999999999997 588.48,-26.354999999999997 594.4050000000001,-21.15"></polyline><polyline fill="none" stroke="blue" stroke-opacity="0.4" stroke-width="3" points="314.46,0 314.46,0 313.96500000000003,0 313.96500000000003,0 313.62,0 313.62,0 313.53000000000003,0 313.53000000000003,0 313.695,0 313.695,0 314.14500000000004,0 314.14500000000004,0 314.775,0 314.775,0 315.645,0 315.645,0 316.77,0 316.77,0 318.075,0 318.075,0 319.59000000000003,0 319.59000000000003,0 321.405,0 321.405,0 323.13,0 323.13,0 325.21500000000003,0 325.21500000000003,0 327.53999999999996,0 327.53999999999996,0 329.97,-0.015 329.97,-0.015 332.58,-0.015 332.58,-0.015 335.34000000000003,-0.015 335.34000000000003,-0.015 338.43,-0.015 338.43,-0.015 341.41499999999996,-0.015 341.41499999999996,-0.015 344.73,-0.015 344.73,-0.015 348.075,-0.015 348.075,-0.015 351.46500000000003,-0.015 351.46500000000003,-0.015 355.635,0 355.635,0 359.04,0 359.04,0 363.015,0 363.015,0 366.87,0 366.87,0 371.205,0.015 371.205,0.015 375.795,0.015 375.795,0.015 379.575,0.015 379.575,0.015 384.105,0.03 384.105,0.03 388.72499999999997,0.045 388.72499999999997,0.045 392.85,0.24 392.85,0.24 397.68,0.84 397.68,0.84 401.48999999999995,1.545 401.48999999999995,1.545 405.16499999999996,2.43 405.16499999999996,2.43 409.53,3.765 409.53,3.765 412.98,5.04 412.98,5.04 416.52,6.6 416.52,6.6 419.83500000000004,8.280000000000001 419.83500000000004,8.280000000000001 423.615,10.5 423.615,10.5 426.51,12.434999999999999 426.51,12.434999999999999 429.48,14.64 429.48,14.64 432.87,17.475 432.87,17.475 435.34499999999997,19.77 435.34499999999997,19.77 438.29999999999995,22.8 438.29999999999995,22.8 440.67,25.47 440.67,25.47 443.235,28.635 443.235,28.635 445.59,31.845000000000002 445.59,31.845000000000002 447.84000000000003,35.205 447.84000000000003,35.205 450.09000000000003,38.894999999999996 450.09000000000003,38.894999999999996 452.085,42.495000000000005 452.085,42.495000000000005 454.11,46.56 454.11,46.56 455.655,50.055 455.655,50.055 457.275,54.105000000000004 457.275,54.105000000000004 458.625,57.99 458.625,57.99 459.93,62.339999999999996 459.93,62.339999999999996 460.92,66.36 460.92,66.36 461.79,70.815 461.79,70.815 462.39,74.89500000000001 462.39,74.89500000000001 462.9,79.545 462.9,79.545 463.2,83.47500000000001 463.2,83.47500000000001 463.38,87.99 463.38,87.99 463.36499999999995,92.38499999999999 463.36499999999995,92.38499999999999 463.155,96.78 463.155,96.78 462.735,101.175 462.735,101.175 462.10499999999996,105.50999999999999 462.10499999999996,105.50999999999999 461.25,109.935 461.25,109.935 460.2,114.15 460.2,114.15 458.865,118.53 458.865,118.53 457.44,122.43 457.44,122.43 455.505,126.92999999999999 455.505,126.92999999999999 453.855,130.245 453.855,130.245 451.89000000000004,133.76999999999998 451.89000000000004,133.76999999999998 449.73,137.145 449.73,137.145 447.39,140.25 447.39,140.25 445.17,142.85999999999999 445.17,142.85999999999999 443.205,144.88500000000002 443.205,144.88500000000002 440.925,146.94 440.925,146.94 438.91499999999996,148.5 438.91499999999996,148.5 436.72499999999997,149.92499999999998 436.72499999999997,149.92499999999998 434.625,151.01999999999998 434.625,151.01999999999998 432.495,151.86 432.495,151.86 430.485,152.4 430.485,152.4 428.34000000000003,152.685 428.34000000000003,152.685 426.36,152.685 426.36,152.685 424.33500000000004,152.4 424.33500000000004,152.4 422.88,151.99499999999998 422.88,151.99499999999998 421.15500000000003,151.29 421.15500000000003,151.29 419.49,150.35999999999999 419.49,150.35999999999999 417.88500000000005,149.175 417.88500000000005,149.175 416.40000000000003,147.82500000000002 416.40000000000003,147.82500000000002 414.99,146.265 414.99,146.265 413.61,144.39 413.61,144.39 412.48499999999996,142.56 412.48499999999996,142.56 411.18,140.04 411.18,140.04 410.28000000000003,137.95499999999998 410.28000000000003,137.95499999999998 409.425,135.57 409.425,135.57 408.57,132.72 408.57,132.72 407.89500000000004,129.78 407.89500000000004,129.78 407.415,127.22999999999999 407.415,127.22999999999999 407.01,124.215 407.01,124.215 406.71000000000004,120.99000000000001 406.71000000000004,120.99000000000001 406.545,117.33 406.545,117.33 406.53000000000003,114.285 406.53000000000003,114.285 406.65,110.94 406.65,110.94 406.905,107.41499999999999 406.905,107.41499999999999 407.31,103.71 407.31,103.71 407.89500000000004,99.81 407.89500000000004,99.81 408.59999999999997,96.08999999999999 408.59999999999997,96.08999999999999 409.46999999999997,92.31 409.46999999999997,92.31 410.60999999999996,88.035 410.60999999999996,88.035 411.64500000000004,84.66 411.64500000000004,84.66 412.98,80.80499999999999 412.98,80.80499999999999 414.48,76.95 414.48,76.95 416.23499999999996,72.86999999999999 416.23499999999996,72.86999999999999 418.005,69.15 418.005,69.15 420.06,65.235 420.06,65.235 422.355,61.245000000000005 422.355,61.245000000000005 424.53,57.765 424.53,57.765 427.02,54.120000000000005 427.02,54.120000000000005 429.65999999999997,50.565 429.65999999999997,50.565 432.81,46.68 432.81,46.68 435.87,43.230000000000004 435.87,43.230000000000004 438.98999999999995,39.99 438.98999999999995,39.99 442.15500000000003,36.99 442.15500000000003,36.99 445.44,34.11 445.44,34.11 448.95,31.305000000000003 448.95,31.305000000000003 452.58,28.65 452.58,28.65 456.33,26.19 456.33,26.19 460.275,23.835 460.275,23.835 464.58000000000004,21.555 464.58000000000004,21.555 468.34499999999997,19.8 468.34499999999997,19.8 472.78499999999997,17.985 472.78499999999997,17.985 476.91,16.544999999999998 476.91,16.544999999999998 481.08000000000004,15.314999999999998 481.08000000000004,15.314999999999998 485.01000000000005,14.37 485.01000000000005,14.37 489.46500000000003,13.545 489.46500000000003,13.545 493.54499999999996,13.004999999999999 493.54499999999996,13.004999999999999 498.105,12.674999999999999 498.105,12.674999999999999 502.02000000000004,12.584999999999999 502.02000000000004,12.584999999999999 506.01000000000005,12.719999999999999 506.01000000000005,12.719999999999999 510.56999999999994,13.14 510.56999999999994,13.14 514.695,13.755 514.695,13.755 518.265,14.504999999999999 518.265,14.504999999999999 522,15.495 522,15.495 525.99,16.815 525.99,16.815 529.53,18.21 529.53,18.21 533.385,20.01 533.385,20.01 536.475,21.689999999999998 536.475,21.689999999999998 539.9699999999999,23.835 539.9699999999999,23.835 543.105,26.04 543.105,26.04 546.1049999999999,28.425 546.1049999999999,28.425 548.955,30.96 548.955,30.96 551.6400000000001,33.660000000000004 551.6400000000001,33.660000000000004 554.085,36.42 554.085,36.42 556.725,39.765 556.725,39.765 558.765,42.69 558.765,42.69 560.76,45.915 560.76,45.915 562.62,49.35 562.62,49.35 564.1949999999999,52.68 564.1949999999999,52.68 565.8,56.64 565.8,56.64 566.88,59.82 566.88,59.82 568.065,64.065 568.065,64.065 568.785,67.35000000000001 568.785,67.35000000000001 569.49,71.595 569.49,71.595 569.88,75.075 569.88,75.075 570.12,79.515 570.12,79.515 570.12,83.025 570.12,83.025 569.91,87.03 569.91,87.03 569.5200000000001,90.78 569.5200000000001,90.78 568.9350000000001,94.53 568.9350000000001,94.53 568.005,98.94 568.005,98.94 566.97,102.735 566.97,102.735 565.8149999999999,106.25999999999999 565.8149999999999,106.25999999999999 564.4050000000001,109.965 564.4050000000001,109.965 562.845,113.49 562.845,113.49 560.8199999999999,117.465 560.8199999999999,117.465 559.02,120.61500000000001 559.02,120.61500000000001 556.7099999999999,124.185 556.7099999999999,124.185 554.445,127.35000000000001 554.445,127.35000000000001 551.9250000000001,130.51500000000001 551.9250000000001,130.51500000000001 549.255,133.53 549.255,133.53 546.3299999999999,136.51500000000001 546.3299999999999,136.51500000000001 543.345,139.275 543.345,139.275 540.0300000000001,142.02 540.0300000000001,142.02 536.865,144.39 536.865,144.39 533.58,146.60999999999999 533.58,146.60999999999999 529.98,148.785 529.98,148.785 526.38,150.72 526.38,150.72 522.33,152.60999999999999 522.33,152.60999999999999 518.5350000000001,154.155 518.5350000000001,154.155 514.8,155.46 514.8,155.46 510.51,156.70499999999998 510.51,156.70499999999998 507.01500000000004,157.54500000000002 507.01500000000004,157.54500000000002 502.875,158.31 502.875,158.31 498.09000000000003,158.925 498.09000000000003,158.925 494.775,159.18 494.775,159.18 490.095,159.285 490.095,159.285 486.28499999999997,159.18 486.28499999999997,159.18 482.37,158.85 482.37,158.85 478.23,158.29500000000002 478.23,158.29500000000002 474.15,157.53 474.15,157.53 470.355,156.585 470.355,156.585 466.515,155.41500000000002 466.515,155.41500000000002 462.63,154.005 462.63,154.005 458.625,152.28 458.625,152.28 455.265,150.6 455.265,150.6 451.8,148.65 451.8,148.65 448.455,146.505 448.455,146.505 445.22999999999996,144.18 445.22999999999996,144.18 442.14,141.69 442.14,141.69 439.02,138.885 439.02,138.885 436.32,136.155 436.32,136.155 433.68,133.20000000000002 433.68,133.20000000000002 431.22,130.10999999999999 431.22,130.10999999999999 428.85,126.81 428.85,126.81 426.435,122.95499999999998 426.435,122.95499999999998 424.65,119.715 424.65,119.715 422.985,116.28 422.985,116.28 421.32,112.305 421.32,112.305 420.15000000000003,109.05 420.15000000000003,109.05 418.89,104.835 418.89,104.835 418.03499999999997,101.235 418.03499999999997,101.235 417.315,97.365 417.315,97.365 416.805,93.465 416.805,93.465 416.505,89.55 416.505,89.55 416.41499999999996,85.02 416.41499999999996,85.02 416.55,81.44999999999999 416.55,81.44999999999999 416.895,77.52 416.895,77.52 417.465,73.515 417.465,73.515 418.21500000000003,69.765 418.21500000000003,69.765 419.205,65.83500000000001 419.205,65.83500000000001 420.51,61.739999999999995 420.51,61.739999999999995 421.77,58.379999999999995 421.77,58.379999999999995 423.45,54.555 423.45,54.555 425.16,51.135 425.16,51.135 427.065,47.805 427.065,47.805 429.48,44.085 429.48,44.085 431.66999999999996,41.085 431.66999999999996,41.085 434.385,37.725 434.385,37.725 437.07000000000005,34.785 437.07000000000005,34.785 439.62,32.25 439.62,32.25 442.95000000000005,29.28 442.95000000000005,29.28 445.77,27.015 445.77,27.015 449.41499999999996,24.419999999999998 449.41499999999996,24.419999999999998 452.355,22.53 452.355,22.53 455.82000000000005,20.55 455.82000000000005,20.55 459.945,18.495 459.945,18.495 463.05,17.13 463.05,17.13 467.355,15.524999999999999 467.355,15.524999999999999 470.94,14.399999999999999 470.94,14.399999999999999 474.69,13.425 474.69,13.425 479.325,12.479999999999999 479.325,12.479999999999999 482.80499999999995,11.985000000000001 482.80499999999995,11.985000000000001 486.55499999999995,11.61 486.55499999999995,11.61 491.03999999999996,11.415000000000001 491.03999999999996,11.415000000000001 495.15,11.475 495.15,11.475 498.78000000000003,11.715 498.78000000000003,11.715 502.75500000000005,12.165000000000001 502.75500000000005,12.165000000000001 506.94,12.885 506.94,12.885 510.7049999999999,13.74 510.7049999999999,13.74 514.905,14.925 514.905,14.925 518.79,16.275 518.79,16.275 522.1500000000001,17.64 522.1500000000001,17.64 526.08,19.485 526.08,19.485 529.38,21.27 529.38,21.27 533.2049999999999,23.595 533.2049999999999,23.595 536.1,25.575000000000003 536.1,25.575000000000003 539.265,27.990000000000002 539.265,27.990000000000002 542.67,30.900000000000002 542.67,30.900000000000002 545.385,33.480000000000004 545.385,33.480000000000004 548.445,36.75 548.445,36.75 550.635,39.33 550.635,39.33 553.4250000000001,42.99 553.4250000000001,42.99 555.465,45.989999999999995 555.465,45.989999999999995 557.595,49.515 557.595,49.515 559.38,52.83 559.38,52.83 561.1949999999999,56.655 561.1949999999999,56.655 562.8299999999999,60.705 562.8299999999999,60.705 564.0450000000001,64.25999999999999 564.0450000000001,64.25999999999999 565.17,68.1 565.17,68.1 566.1,72.12 566.1,72.12 566.835,76.29 566.835,76.29 567.2850000000001,80.025 567.2850000000001,80.025 567.57,84.015 567.57,84.015 567.6450000000001,88.5 567.6450000000001,88.5 567.51,92.01 567.51,92.01 567.165,95.985 567.165,95.985 566.535,100.42500000000001 566.535,100.42500000000001 565.755,104.34 565.755,104.34 564.8549999999999,107.85000000000001 564.8549999999999,107.85000000000001 563.49,112.24499999999999 563.49,112.24499999999999 562.26,115.53 562.26,115.53 560.685,119.205 560.685,119.205 558.855,122.88 558.855,122.88 556.95,126.255 556.95,126.255 554.6099999999999,129.93 554.6099999999999,129.93 552.135,133.35000000000002 552.135,133.35000000000002 549.7049999999999,136.36499999999998 549.7049999999999,136.36499999999998"></polyline></svg>
