<svg xmlns="http://www.w3.org/2000/svg" viewBox="-50 -100 800 800"
     width="800" height="800" version="1.1" id="canvas" class="canvas">
    <rect height="100%" width="100%"  fill="gray" fill-opacity="0.1"></rect>
    <path fill="red" transform="translate(-12 -12)" d="M12,4.64516129 C7.93451613,4.64516129 4.64516129,7.93548387 4.64516129,12 C4.64516129,16.0654839 7.93548387,19.3548387 12,19.3548387 C16.0654839,19.3548387 19.3548387,16.0645161 19.3548387,12 C19.3548387,7.93451613 16.0645161,4.64516129 12,4.64516129 Z M12,17.0322581 C9.225,17.0322581 6.96774194,14.775 6.96774194,12 C6.96774194,9.225 9.225,6.96774194 12,6.96774194 C14.775,6.96774194 17.0322581,9.225 17.0322581,12 C17.0322581,14.775 14.775,17.0322581 12,17.0322581 Z M12,0 C5.37241935,0 0,5.37241935 0,12 C0,18.6275806 5.37241935,24 12,24 C18.6275806,24 24,18.6275806 24,12 C24,5.37241935 18.6275806,0 12,0 Z M12,21.6774194 C6.66387097,21.6774194 2.32258065,17.336129 2.32258065,12 C2.32258065,6.66387097 6.66387097,2.32258065 12,2.32258065 C17.336129,2.32258065 21.6774194,6.66387097 21.6774194,12 C21.6774194,17.336129 17.336129,21.6774194 12,21.6774194 Z M12,9.29032258 C10.5058065,9.29032258 9.29032258,10.5058065 9.29032258,12 C9.29032258,13.4941935 10.5058065,14.7096774 12,14.7096774 C13.4941935,14.7096774 14.7096774,13.4941935 14.7096774,12 C14.7096774,10.5058065 13.4941935,9.29032258 12,9.29032258 Z"></path>
    <path fill="blue" transform="translate(299 -12)" d="M12,4.64516129 C7.93451613,4.64516129 4.64516129,7.93548387 4.64516129,12 C4.64516129,16.0654839 7.93548387,19.3548387 12,19.3548387 C16.0654839,19.3548387 19.3548387,16.0645161 19.3548387,12 C19.3548387,7.93451613 16.0645161,4.64516129 12,4.64516129 Z M12,17.0322581 C9.225,17.0322581 6.96774194,14.775 6.96774194,12 C6.96774194,9.225 9.225,6.96774194 12,6.96774194 C14.775,6.96774194 17.0322581,9.225 17.0322581,12 C17.0322581,14.775 14.775,17.0322581 12,17.0322581 Z M12,0 C5.37241935,0 0,5.37241935 0,12 C0,18.6275806 5.37241935,24 12,24 C18.6275806,24 24,18.6275806 24,12 C24,5.37241935 18.6275806,0 12,0 Z M12,21.6774194 C6.66387097,21.6774194 2.32258065,17.336129 2.32258065,12 C2.32258065,6.66387097 6.66387097,2.32258065 12,2.32258065 C17.336129,2.32258065 21.6774194,6.66387097 21.6774194,12 C21.6774194,17.336129 17.336129,21.6774194 12,21.6774194 Z M12,9.29032258 C10.5058065,9.29032258 9.29032258,10.5058065 9.29032258,12 C9.29032258,13.4941935 10.5058065,14.7096774 12,14.7096774 C13.4941935,14.7096774 14.7096774,13.4941935 14.7096774,12 C14.7096774,10.5058065 13.4941935,9.29032258 12,9.29032258 Z"></path>
    <path id="evader" transform="translate(473.09 153.27)"  fill="blue" d="M15.9098437,4.32796875 C16.3420443,2.98020924 17.6596148,2.11976685 19.0674127,2.26591124 C20.4752105,2.41205563 21.5879444,3.52478945 21.7340888,4.93258732 C21.8802332,6.3403852 21.0197908,7.6579557 19.6720312,8.09015625 L17.9878125,10.423125 C18.239625,10.4675587 18.4943863,10.4932542 18.75,10.5 C21.6494949,10.5 24,8.14949494 24,5.25 C24,2.35050506 21.6494949,-6.19949465e-14 18.75,-6.21724894e-14 C15.8505051,-6.23500322e-14 13.5,2.35050506 13.5,5.25 C13.5067458,5.5056137 13.5324413,5.76037503 13.576875,6.0121875 L15.9098437,4.32796875 Z M5.203125,17.259375 C4.3883515,17.2824352 3.74204012,17.9536015 3.74972776,18.768665 C3.75741539,19.5837285 4.41627146,20.2425846 5.23133498,20.2502722 C6.04639849,20.2579599 6.71756483,19.6116485 6.740625,18.796875 L9.9215625,16.5 L14.0784375,16.5 L17.259375,18.796875 C17.2824352,19.6116485 17.9536015,20.2579599 18.768665,20.2502722 C19.5837285,20.2425846 20.2425846,19.5837285 20.2502722,18.768665 C20.2579599,17.9536015 19.6116485,17.2824352 18.796875,17.259375 L16.5,14.0784375 L16.5,9.9215625 L18.796875,6.740625 C19.6116485,6.71756483 20.2579599,6.04639849 20.2502722,5.23133498 C20.2425846,4.41627146 19.5837285,3.75741539 18.768665,3.74972776 C17.9536015,3.74204012 17.2824352,4.3883515 17.259375,5.203125 L14.0784375,7.5 L9.9215625,7.5 L6.740625,5.203125 C6.71756483,4.3883515 6.04639849,3.74204012 5.23133498,3.74972776 C4.41627146,3.75741539 3.75741539,4.41627146 3.74972776,5.23133498 C3.74204012,6.04639849 4.3883515,6.71756483 5.203125,6.740625 L7.5,9.9215625 L7.5,14.0784375 L5.203125,17.259375 Z M9.75,9.75 L14.25,9.75 L14.25,14.25 L9.75,14.25 L9.75,9.75 Z M18.75,13.5 C18.4943877,13.5067681 18.239628,13.5324635 17.9878125,13.576875 L19.6720312,15.9098437 C21.0199025,16.3419927 21.8804341,17.6596468 21.7342495,19.0675317 C21.5880648,20.4754165 20.4751777,21.588165 19.0672747,21.7341742 C17.6593716,21.8801834 16.3418248,21.0194876 15.9098437,19.6715625 L13.576875,17.9878125 C13.5324413,18.239625 13.5067458,18.4943863 13.5,18.75 C13.5,21.6494949 15.8505051,24 18.75,24 C21.6494949,24 24,21.6494949 24,18.75 C24,15.8505051 21.6494949,13.5 18.75,13.5 Z M5.25,10.5 C5.5056137,10.4932542 5.76037503,10.4675587 6.0121875,10.423125 L4.3284375,8.09015625 C2.98051243,7.65817522 2.11981663,6.34062835 2.26582584,4.93272533 C2.41183504,3.52482231 3.52458353,2.41193516 4.93246835,2.26575053 C6.34035317,2.11956589 7.65800726,2.98009751 8.09015625,4.32796875 L10.423125,6.0121875 C10.4675365,5.76037197 10.4932319,5.50561228 10.5,5.25 C10.5,2.35050506 8.14949494,1.7754286e-16 5.25,0 C2.35050506,-1.7754286e-16 -8.66863994e-14,2.35050506 -8.70414851e-14,5.25 C-8.73965708e-14,8.14949494 2.35050506,10.5 5.25,10.5 Z M8.09015625,19.6720312 C7.6579557,21.0197908 6.3403852,21.8802332 4.93258732,21.7340888 C3.52478945,21.5879444 2.41205563,20.4752105 2.26591124,19.0674127 C2.11976685,17.6596148 2.98020924,16.3420443 4.32796875,15.9098437 L6.0121875,13.576875 C5.76037503,13.5324413 5.5056137,13.5067458 5.25,13.5 C2.35050506,13.5 3.55085719e-16,15.8505051 0,18.75 C-3.55085719e-16,21.6494949 2.35050506,24 5.25,24 C8.14949494,24 10.5,21.6494949 10.5,18.75 C10.4932542,18.4943863 10.4675587,18.239625 10.423125,17.9878125 L8.09015625,19.6720312 Z" ></path>
    <path id="pursuer" transform="translate(614.93 85.06)" fill="red" d="M15.9098437,4.32796875 C16.3420443,2.98020924 17.6596148,2.11976685 19.0674127,2.26591124 C20.4752105,2.41205563 21.5879444,3.52478945 21.7340888,4.93258732 C21.8802332,6.3403852 21.0197908,7.6579557 19.6720312,8.09015625 L17.9878125,10.423125 C18.239625,10.4675587 18.4943863,10.4932542 18.75,10.5 C21.6494949,10.5 24,8.14949494 24,5.25 C24,2.35050506 21.6494949,-6.19949465e-14 18.75,-6.21724894e-14 C15.8505051,-6.23500322e-14 13.5,2.35050506 13.5,5.25 C13.5067458,5.5056137 13.5324413,5.76037503 13.576875,6.0121875 L15.9098437,4.32796875 Z M5.203125,17.259375 C4.3883515,17.2824352 3.74204012,17.9536015 3.74972776,18.768665 C3.75741539,19.5837285 4.41627146,20.2425846 5.23133498,20.2502722 C6.04639849,20.2579599 6.71756483,19.6116485 6.740625,18.796875 L9.9215625,16.5 L14.0784375,16.5 L17.259375,18.796875 C17.2824352,19.6116485 17.9536015,20.2579599 18.768665,20.2502722 C19.5837285,20.2425846 20.2425846,19.5837285 20.2502722,18.768665 C20.2579599,17.9536015 19.6116485,17.2824352 18.796875,17.259375 L16.5,14.0784375 L16.5,9.9215625 L18.796875,6.740625 C19.6116485,6.71756483 20.2579599,6.04639849 20.2502722,5.23133498 C20.2425846,4.41627146 19.5837285,3.75741539 18.768665,3.74972776 C17.9536015,3.74204012 17.2824352,4.3883515 17.259375,5.203125 L14.0784375,7.5 L9.9215625,7.5 L6.740625,5.203125 C6.71756483,4.3883515 6.04639849,3.74204012 5.23133498,3.74972776 C4.41627146,3.75741539 3.75741539,4.41627146 3.74972776,5.23133498 C3.74204012,6.04639849 4.3883515,6.71756483 5.203125,6.740625 L7.5,9.9215625 L7.5,14.0784375 L5.203125,17.259375 Z M9.75,9.75 L14.25,9.75 L14.25,14.25 L9.75,14.25 L9.75,9.75 Z M18.75,13.5 C18.4943877,13.5067681 18.239628,13.5324635 17.9878125,13.576875 L19.6720312,15.9098437 C21.0199025,16.3419927 21.8804341,17.6596468 21.7342495,19.0675317 C21.5880648,20.4754165 20.4751777,21.588165 19.0672747,21.7341742 C17.6593716,21.8801834 16.3418248,21.0194876 15.9098437,19.6715625 L13.576875,17.9878125 C13.5324413,18.239625 13.5067458,18.4943863 13.5,18.75 C13.5,21.6494949 15.8505051,24 18.75,24 C21.6494949,24 24,21.6494949 24,18.75 C24,15.8505051 21.6494949,13.5 18.75,13.5 Z M5.25,10.5 C5.5056137,10.4932542 5.76037503,10.4675587 6.0121875,10.423125 L4.3284375,8.09015625 C2.98051243,7.65817522 2.11981663,6.34062835 2.26582584,4.93272533 C2.41183504,3.52482231 3.52458353,2.41193516 4.93246835,2.26575053 C6.34035317,2.11956589 7.65800726,2.98009751 8.09015625,4.32796875 L10.423125,6.0121875 C10.4675365,5.76037197 10.4932319,5.50561228 10.5,5.25 C10.5,2.35050506 8.14949494,1.7754286e-16 5.25,0 C2.35050506,-1.7754286e-16 -8.66863994e-14,2.35050506 -8.70414851e-14,5.25 C-8.73965708e-14,8.14949494 2.35050506,10.5 5.25,10.5 Z M8.09015625,19.6720312 C7.6579557,21.0197908 6.3403852,21.8802332 4.93258732,21.7340888 C3.52478945,21.5879444 2.41205563,20.4752105 2.26591124,19.0674127 C2.11976685,17.6596148 2.98020924,16.3420443 4.32796875,15.9098437 L6.0121875,13.576875 C5.76037503,13.5324413 5.5056137,13.5067458 5.25,13.5 C2.35050506,13.5 3.55085719e-16,15.8505051 0,18.75 C-3.55085719e-16,21.6494949 2.35050506,24 5.25,24 C8.14949494,24 10.5,21.6494949 10.5,18.75 C10.4932542,18.4943863 10.4675587,18.239625 10.423125,17.9878125 L8.09015625,19.6720312 Z" ></path>
    <polyline id="pursuer-path" fill="none" stroke="red" stroke-opacity="0.4" stroke-width="3" points="0.00,0.00 0.00,0.00 0.63,0.06 1.89,0.10 3.12,0.11 7.21,0.05 10.31,-0.05 13.13,-0.14 17.04,-0.22 21.29,-0.27 30.19,-0.26 35.77,-0.24 47.96,-0.12 59.46,0.01 73.82,0.29 88.67,0.54 106.67,0.62 113.01,0.64 132.78,0.63 143.05,0.61 151.13,0.56 167.40,0.41 179.01,0.24 189.97,0.07 197.58,-0.03 211.24,-0.15 229.12,-0.21 242.39,-0.23 250.82,-0.22 261.22,-0.19 283.62,0.04 296.92,0.34 316.61,0.96 329.55,1.49 339.23,2.00 352.31,2.88 362.75,3.71 376.26,5.00 386.08,6.11 397.59,7.65 410.07,9.65 431.75,14.11 443.92,17.17 465.79,23.88 489.03,32.86 499.54,37.59 509.21,42.38 518.32,47.35 526.32,52.12 546.18,65.97 560.75,78.13 569.25,86.21 575.60,92.85 582.50,100.78 589.49,109.85 593.47,115.62 598.97,124.51 603.05,132.07 607.51,141.76 610.76,150.25 613.12,157.73 614.88,164.65 617.37,181.41 617.58,194.35 615.61,209.61 612.44,220.57 609.72,227.04 606.47,233.09 603.65,237.40 599.23,243.12 595.05,247.60 586.91,254.48 575.74,261.45 569.47,264.40 564.82,266.21 551.16,269.97 545.81,270.96 538.14,271.95 531.89,272.35 524.48,272.47 518.40,272.28 509.03,271.43 501.47,270.36 494.93,269.13 488.34,267.61 479.57,265.07 470.57,261.97 457.69,256.56 449.28,252.37 441.84,248.18 435.31,244.20 429.07,240.08 413.83,228.36 407.33,222.58 394.51,209.49 384.77,197.63 378.68,189.15 374.28,182.34 365.08,165.61 361.34,157.78 358.22,150.49 354.52,140.57 352.13,133.00 349.84,124.33 347.70,113.80 346.58,106.08 345.41,89.21 345.54,79.64 346.09,71.68 348.83,52.86 350.48,45.69 352.54,38.39 355.95,28.78 359.40,20.85 366.08,8.56 370.98,1.15 375.45,-4.77 387.65,-18.28 392.03,-22.35 397.85,-27.24 410.69,-36.05 424.81,-43.38 439.43,-48.86 447.72,-51.11 455.68,-52.72 462.80,-53.70 471.10,-54.40 479.22,-54.61 486.89,-54.33 492.73,-53.78 501.00,-52.60 507.89,-51.24 523.35,-46.70 531.99,-43.24 539.78,-39.48 546.11,-35.91 553.41,-31.27 564.21,-23.16 570.42,-17.68 581.39,-6.11 586.85,0.80 591.75,7.85 599.20,20.30 602.84,27.47 606.47,35.75 609.83,44.96 611.71,51.15 613.51,58.34 615.28,67.95 616.15,74.33 616.92,82.87 617.17,91.92 616.12,108.21 615.05,115.42 613.78,121.86 611.52,130.96 609.30,138.13 606.06,146.66 602.88,153.67 599.87,159.45 591.42,173.06 581.18,186.04 574.42,193.17 569.81,197.51 563.89,202.52 549.08,212.72 541.75,216.79 535.91,219.64 527.78,223.00 519.50,225.77 513.97,227.34 505.69,229.26 498.45,230.45 481.22,231.53 465.07,230.45 450.37,227.64 443.08,225.58 436.15,223.16 430.02,220.58 423.64,217.51 416.85,213.76 404.42,205.25 397.81,199.71 393.16,195.29 381.86,182.30 373.80,170.73 369.47,163.30 365.97,156.37 359.96,141.21 357.88,134.36 355.85,126.04 354.61,119.21 353.56,110.49 353.17,103.60 353.24,94.24 353.61,87.86 354.60,79.03 357.55,64.82 363.13,48.42 366.17,41.66 369.04,36.08 377.90,22.14 382.50,16.06 387.62,10.04 397.46,0.33 403.56,-4.77 410.54,-9.88 416.87,-13.91 423.42,-17.54 430.99,-21.12 446.49,-26.86 453.07,-28.70 459.98,-30.26 469.70,-31.77 475.38,-32.30 492.92,-32.40 508.69,-30.80 515.30,-29.62 529.97,-25.83 546.37,-19.55 554.19,-15.74 565.99,-8.84 573.92,-3.30 580.20,1.70 586.67,7.53 596.83,18.52 605.75,30.65 610.41,38.33 617.51,53.19 622.60,68.48 625.74,84.00 626.50,90.52 626.93,97.06"></polyline>
    <polyline id="evader-path" fill="none" stroke="blue" stroke-opacity="0.4" stroke-width="3" points="311.02,0.00 310.53,0.00 310.10,0.00 309.93,0.00 310.37,0.00 310.99,0.00 311.86,0.00 314.25,0.00 315.87,0.00 317.56,0.00 319.57,0.00 321.71,0.00 324.27,0.00 326.65,0.00 329.35,0.00 332.22,0.00 335.43,0.00 338.63,0.00 342.18,0.00 345.58,0.01 349.33,0.01 353.33,0.01 357.13,0.01 361.16,0.01 365.31,0.00 369.83,0.00 374.21,0.00 378.71,0.13 386.91,1.29 390.92,2.24 398.40,4.79 405.37,8.19 408.79,10.28 414.81,14.75 417.84,17.43 420.82,20.40 423.20,23.03 425.69,26.07 430.42,32.81 434.48,39.92 438.03,47.64 439.47,51.38 442.10,59.96 443.06,64.17 443.86,68.69 444.34,72.84 444.65,77.25 444.80,81.46 444.79,85.98 444.59,90.40 444.20,94.84 442.78,103.97 440.58,112.91 439.15,117.38 437.61,121.53 435.76,125.84 433.77,129.92 431.52,134.01 428.92,138.20 426.36,141.91 420.83,148.81 415.17,154.33 409.62,158.51 404.24,161.49 399.31,163.19 396.91,163.62 394.66,163.77 392.52,163.65 390.48,163.28 388.55,162.66 386.63,161.75 384.99,160.69 381.89,157.76 379.36,154.05 378.28,151.88 377.35,149.52 376.62,147.21 375.98,144.62 375.13,138.83 374.94,135.73 374.90,132.60 375.01,129.26 375.73,122.30 377.04,115.31 379.05,107.75 381.66,100.22 385.01,92.37 386.89,88.55 388.87,84.84 393.58,77.05 398.82,69.64 401.59,66.12 404.59,62.56 407.75,59.09 411.07,55.72 414.63,52.36 418.34,49.14 422.09,46.14 430.19,40.43 434.05,38.05 438.26,35.67 447.47,31.26 456.60,27.86 465.67,25.38 470.72,24.39 475.37,23.71 479.86,23.29 489.43,23.13 498.53,23.96 507.19,25.70 515.57,28.38 523.45,31.94 530.74,36.31 537.45,41.51 543.25,47.23 545.86,50.30 548.34,53.61 550.72,57.24 552.58,60.48 554.38,64.12 555.91,67.74 558.29,75.18 559.78,82.82 560.36,90.92 560.29,94.82 559.50,102.46 558.71,106.52 557.75,110.32 555.07,117.94 551.50,125.24 549.53,128.55 547.23,131.94 544.82,135.12 542.14,138.24 539.28,141.22 533.16,146.60 526.35,151.36 522.95,153.34 519.33,155.20 507.81,159.62 499.83,161.52 491.80,162.55 487.70,162.74 483.47,162.69 475.46,161.93 467.16,160.17 463.50,159.06 455.77,155.98 452.28,154.21 448.79,152.20 445.44,150.00 441.97,147.38 436.09,142.05 433.41,139.15 430.90,136.10 428.46,132.72 424.32,125.67 421.23,118.53 420.01,114.84 418.96,110.88 418.25,107.31 417.70,103.38 417.41,99.54 417.36,95.60 417.55,91.66 417.98,87.87 418.66,84.01 420.66,76.68 423.59,69.54 425.29,66.25 427.31,62.87 429.47,59.71 434.57,53.56 437.29,50.84 440.16,48.27 443.19,45.87 446.45,43.60 453.06,39.80 456.79,38.07 460.52,36.61 467.88,34.44 471.93,33.62 479.71,32.75 487.78,32.78 491.81,33.15 495.82,33.76 499.78,34.61 503.34,35.59 507.28,36.93 514.43,40.12 517.76,41.96 520.99,43.99 527.33,48.80 530.39,51.60 533.06,54.33 535.77,57.47 540.35,63.84 542.41,67.31 544.21,70.80 545.77,74.28 547.15,77.95 549.31,85.70 550.51,93.32 550.79,97.34 550.83,101.49 550.20,109.15 549.50,113.22 548.67,116.80 547.57,120.54 544.66,127.87 542.75,131.64 540.90,134.80 538.75,138.03 536.40,141.12 530.94,147.08 528.08,149.69 524.88,152.26 518.62,156.41 515.22,158.27 511.72,159.92 507.91,161.43 504.35,162.60 500.61,163.59 496.72,164.37 492.90,164.90 489.06,165.20 485.09,165.27"></polyline>
</svg>
