<?xml version="1.0" encoding="UTF-8" standalone="no"?>
<svg
   xmlns:dc="http://purl.org/dc/elements/1.1/"
   xmlns:cc="http://creativecommons.org/ns#"
   xmlns:rdf="http://www.w3.org/1999/02/22-rdf-syntax-ns#"
   xmlns:svg="http://www.w3.org/2000/svg"
   xmlns="http://www.w3.org/2000/svg"
   xmlns:sodipodi="http://sodipodi.sourceforge.net/DTD/sodipodi-0.dtd"
   xmlns:inkscape="http://www.inkscape.org/namespaces/inkscape"
   width="500"
   height="300"
   aria-label="A chart."
   style="overflow: hidden;"
   id="svg2"
   version="1.1"
   inkscape:version="0.91 r13725"
   sodipodi:docname="my_location.svg">
  <metadata
     id="metadata263">
    <rdf:RDF>
      <cc:Work
         rdf:about="">
        <dc:format>image/svg+xml</dc:format>
        <dc:type
           rdf:resource="http://purl.org/dc/dcmitype/StillImage" />
      </cc:Work>
    </rdf:RDF>
  </metadata>
  <sodipodi:namedview
     pagecolor="#ffffff"
     bordercolor="#666666"
     borderopacity="1"
     objecttolerance="10"
     gridtolerance="10"
     guidetolerance="10"
     inkscape:pageopacity="0"
     inkscape:pageshadow="2"
     inkscape:window-width="640"
     inkscape:window-height="480"
     id="namedview261"
     showgrid="false"
     inkscape:zoom="0.606"
     inkscape:cx="221.12211"
     inkscape:cy="150"
     inkscape:window-x="0"
     inkscape:window-y="0"
     inkscape:window-maximized="0"
     inkscape:current-layer="svg2" />
  <defs
     id="_ABSTRACT_RENDERER_ID_0">
    <clipPath
       id="_ABSTRACT_RENDERER_ID_1">
      <rect
         x="94"
         y="58"
         width="313"
         height="185"
         id="rect6" />
    </clipPath>
    <filter
       id="_ABSTRACT_RENDERER_ID_8">
      <feGaussianBlur
         in="SourceAlpha"
         stdDeviation="2"
         id="feGaussianBlur9" />
      <feOffset
         dx="1"
         dy="1"
         id="feOffset11" />
      <feComponentTransfer
         id="feComponentTransfer13">
        <feFuncA
           type="linear"
           slope="0.1"
           id="feFuncA15" />
      </feComponentTransfer>
      <feMerge
         id="feMerge17">
        <feMergeNode
           id="feMergeNode19" />
        <feMergeNode
           in="SourceGraphic"
           id="feMergeNode21" />
      </feMerge>
    </filter>
  </defs>
  <path
     style="fill:#ffffff;stroke:none;stroke-width:0"
     d="m 0,0 500,0 0,300 -500,0 z"
     id="rect23" />
  <g
     id="g25">
    <g
       style="font-weight:bold;font-size:12px;font-family:Arial;text-anchor:start;fill:#000000;stroke:none;stroke-width:0"
       id="text27">
      <path
         d="m 94.849609,37.200001 0,-8.589844 2.595703,0 1.558594,5.859375 1.541014,-5.859375 2.60156,0 0,8.589844 -1.61132,0 0,-6.761719 -1.705082,6.761719 -1.669922,0 -1.699219,-6.761719 0,6.761719 -1.611328,0 z"
         style="font-weight:bold;font-size:12px;font-family:Arial;text-anchor:start;fill:#000000;stroke:none;stroke-width:0"
         id="path3816" />
      <path
         d="m 104.06641,30.977345 1.75195,0 1.48828,4.417968 1.45313,-4.417968 1.70507,0 -2.19726,5.988281 -0.39258,1.083984 q -0.2168,0.544922 -0.41602,0.832031 -0.19335,0.28711 -0.45117,0.462891 -0.25195,0.181641 -0.62695,0.28125 -0.36914,0.09961 -0.83789,0.09961 -0.47461,0 -0.93164,-0.09961 l -0.14649,-1.289062 q 0.38672,0.07617 0.69727,0.07617 0.57422,0 0.84961,-0.339843 0.27539,-0.333985 0.42187,-0.855469 l -2.36718,-6.240234 z"
         style="font-weight:bold;font-size:12px;font-family:Arial;text-anchor:start;fill:#000000;stroke:none;stroke-width:0"
         id="path3818" />
      <path
         d="m 114.91211,37.200001 0,-8.519531 1.73437,0 0,7.072265 4.3125,0 0,1.447266 -6.04687,0 z"
         style="font-weight:bold;font-size:12px;font-family:Arial;text-anchor:start;fill:#000000;stroke:none;stroke-width:0"
         id="path3820" />
      <path
         d="m 121.80859,34.000782 q 0,-0.820312 0.4043,-1.587891 0.4043,-0.767578 1.14258,-1.171875 0.74414,-0.404296 1.6582,-0.404296 1.41211,0 2.31446,0.919921 0.90234,0.914063 0.90234,2.314454 0,1.412109 -0.91406,2.34375 -0.90821,0.925781 -2.29102,0.925781 -0.85547,0 -1.63476,-0.386719 -0.77344,-0.386719 -1.17774,-1.130859 -0.4043,-0.75 -0.4043,-1.822266 z m 1.6875,0.08789 q 0,0.925781 0.43946,1.417968 0.43945,0.492188 1.08398,0.492188 0.64453,0 1.07813,-0.492188 0.43945,-0.492187 0.43945,-1.429687 0,-0.914063 -0.43945,-1.40625 -0.4336,-0.492188 -1.07813,-0.492188 -0.64453,0 -1.08398,0.492188 -0.43946,0.492187 -0.43946,1.417969 z"
         style="font-weight:bold;font-size:12px;font-family:Arial;text-anchor:start;fill:#000000;stroke:none;stroke-width:0"
         id="path3822" />
      <path
         d="m 134.92773,32.817188 -1.62304,0.292969 q -0.082,-0.486328 -0.375,-0.732422 -0.28711,-0.246094 -0.75,-0.246094 -0.61524,0 -0.98438,0.427735 -0.36328,0.421875 -0.36328,1.417969 0,1.107421 0.36914,1.564453 0.375,0.457031 1.00195,0.457031 0.46875,0 0.76758,-0.263672 0.29883,-0.269531 0.42188,-0.919922 l 1.61719,0.275391 q -0.25196,1.113281 -0.9668,1.68164 -0.71485,0.56836 -1.91602,0.56836 -1.36523,0 -2.17968,-0.861328 -0.8086,-0.861328 -0.8086,-2.384766 0,-1.541016 0.81445,-2.396484 0.81446,-0.861328 2.20313,-0.861328 1.13672,0 1.80469,0.492187 0.67383,0.486328 0.96679,1.488281 z"
         style="font-weight:bold;font-size:12px;font-family:Arial;text-anchor:start;fill:#000000;stroke:none;stroke-width:0"
         id="path3824" />
      <path
         d="m 137.38867,32.875782 -1.49414,-0.269531 q 0.25195,-0.902344 0.86719,-1.335938 0.61523,-0.433593 1.82812,-0.433593 1.10157,0 1.64063,0.263671 0.53906,0.257813 0.75586,0.66211 0.22265,0.398437 0.22265,1.470703 l -0.0176,1.921875 q 0,0.820312 0.0762,1.212891 0.082,0.386718 0.29883,0.832031 l -1.62891,0 q -0.0644,-0.164063 -0.1582,-0.486328 -0.041,-0.146485 -0.0586,-0.19336 -0.42187,0.410157 -0.90234,0.615235 -0.48047,0.205078 -1.02539,0.205078 -0.96094,0 -1.51758,-0.521485 -0.55078,-0.521484 -0.55078,-1.318359 0,-0.527344 0.25195,-0.9375 0.25196,-0.416016 0.70313,-0.632812 0.45703,-0.222657 1.3125,-0.386719 1.15429,-0.216797 1.59961,-0.404297 l 0,-0.164063 q 0,-0.474609 -0.23438,-0.673828 -0.23437,-0.205078 -0.88476,-0.205078 -0.43946,0 -0.68555,0.175781 -0.24609,0.169922 -0.39844,0.603516 z m 2.20313,1.335938 q -0.31641,0.105468 -1.00196,0.251953 -0.68554,0.146484 -0.89648,0.287109 -0.32227,0.228516 -0.32227,0.580078 0,0.345703 0.25782,0.597656 0.25781,0.251954 0.65625,0.251954 0.44531,0 0.84961,-0.292969 0.29882,-0.222656 0.39257,-0.544922 0.0645,-0.210938 0.0645,-0.802734 l 0,-0.328125 z"
         style="font-weight:bold;font-size:12px;font-family:Arial;text-anchor:start;fill:#000000;stroke:none;stroke-width:0"
         id="path3826" />
      <path
         d="m 145.69141,30.977345 0,1.3125 -1.125,0 0,2.507812 q 0,0.761719 0.0293,0.890625 0.0352,0.123047 0.14649,0.205078 0.11718,0.08203 0.28125,0.08203 0.22851,0 0.66211,-0.158203 l 0.14062,1.277344 q -0.57422,0.246094 -1.30078,0.246094 -0.44531,0 -0.80273,-0.146485 -0.35743,-0.152343 -0.52735,-0.386718 -0.16406,-0.240235 -0.22851,-0.644532 -0.0527,-0.287109 -0.0527,-1.160156 l 0,-2.71289 -0.75586,0 0,-1.3125 0.75586,0 0,-1.236329 1.65235,-0.960937 0,2.197266 1.125,0 z"
         style="font-weight:bold;font-size:12px;font-family:Arial;text-anchor:start;fill:#000000;stroke:none;stroke-width:0"
         id="path3828" />
      <path
         d="m 146.8457,30.133595 0,-1.523438 1.64649,0 0,1.523438 -1.64649,0 z m 0,7.066406 0,-6.222656 1.64649,0 0,6.222656 -1.64649,0 z"
         style="font-weight:bold;font-size:12px;font-family:Arial;text-anchor:start;fill:#000000;stroke:none;stroke-width:0"
         id="path3830" />
      <path
         d="m 149.79297,34.000782 q 0,-0.820312 0.4043,-1.587891 0.40429,-0.767578 1.14257,-1.171875 0.74414,-0.404296 1.65821,-0.404296 1.41211,0 2.31445,0.919921 0.90234,0.914063 0.90234,2.314454 0,1.412109 -0.91406,2.34375 -0.9082,0.925781 -2.29101,0.925781 -0.85547,0 -1.63477,-0.386719 -0.77344,-0.386719 -1.17773,-1.130859 -0.4043,-0.75 -0.4043,-1.822266 z m 1.6875,0.08789 q 0,0.925781 0.43945,1.417968 0.43945,0.492188 1.08399,0.492188 0.64453,0 1.07812,-0.492188 0.43945,-0.492187 0.43945,-1.429687 0,-0.914063 -0.43945,-1.40625 -0.43359,-0.492188 -1.07812,-0.492188 -0.64454,0 -1.08399,0.492188 -0.43945,0.492187 -0.43945,1.417969 z"
         style="font-weight:bold;font-size:12px;font-family:Arial;text-anchor:start;fill:#000000;stroke:none;stroke-width:0"
         id="path3832" />
      <path
         d="m 163.14648,37.200001 -1.64648,0 0,-3.175781 q 0,-1.007813 -0.10547,-1.300782 -0.10547,-0.298828 -0.3457,-0.46289 -0.23438,-0.164063 -0.56836,-0.164063 -0.42774,0 -0.76758,0.234375 -0.33984,0.234375 -0.46875,0.621094 -0.12305,0.386719 -0.12305,1.429687 l 0,2.81836 -1.64648,0 0,-6.222656 1.5293,0 0,0.914062 q 0.81445,-1.054687 2.05078,-1.054687 0.54492,0 0.99609,0.199218 0.45117,0.19336 0.67969,0.498047 0.23437,0.304688 0.32226,0.691406 0.0937,0.386719 0.0937,1.107422 l 0,3.867188 z"
         style="font-weight:bold;font-size:12px;font-family:Arial;text-anchor:start;fill:#000000;stroke:none;stroke-width:0"
         id="path3834" />
      <path
         d="m 168.16797,37.200001 0,-8.589844 3.65039,0 q 1.37695,0 1.99805,0.234375 0.62695,0.228516 1.00195,0.820313 0.375,0.591796 0.375,1.353515 0,0.966797 -0.56836,1.59961 -0.56836,0.626953 -1.69922,0.791015 0.5625,0.328125 0.92578,0.720703 0.36914,0.392578 0.99024,1.394532 l 1.04882,1.675781 -2.07421,0 -1.25391,-1.869141 q -0.66797,-1.001953 -0.91406,-1.259765 -0.2461,-0.263672 -0.52149,-0.357422 -0.27539,-0.09961 -0.87304,-0.09961 l -0.35157,0 0,3.585938 -1.73437,0 z m 1.73437,-4.957031 1.28321,0 q 1.24804,0 1.55859,-0.105469 0.31055,-0.105469 0.48633,-0.363281 0.17578,-0.257813 0.17578,-0.644532 0,-0.433593 -0.23438,-0.697265 -0.22851,-0.269532 -0.65039,-0.339844 -0.21093,-0.0293 -1.26562,-0.0293 l -1.35352,0 0,2.179688 z"
         style="font-weight:bold;font-size:12px;font-family:Arial;text-anchor:start;fill:#000000;stroke:none;stroke-width:0"
         id="path3836" />
      <path
         d="m 180.42578,35.219532 1.64063,0.275391 q -0.31641,0.902343 -1.00196,1.376953 -0.67968,0.46875 -1.70508,0.46875 -1.62304,0 -2.40234,-1.060547 -0.61523,-0.849609 -0.61523,-2.144531 0,-1.546875 0.80859,-2.419922 0.80859,-0.878906 2.04492,-0.878906 1.38867,0 2.19141,0.919921 0.80273,0.914063 0.76758,2.806641 l -4.125,0 q 0.0176,0.732422 0.39843,1.142578 0.38086,0.404297 0.94922,0.404297 0.38672,0 0.65039,-0.210937 0.26368,-0.210938 0.39844,-0.679688 z m 0.0937,-1.664062 q -0.0176,-0.714844 -0.36914,-1.083985 -0.35156,-0.375 -0.85547,-0.375 -0.53906,0 -0.89062,0.392578 -0.35157,0.392578 -0.34571,1.066407 l 2.46094,0 z"
         style="font-weight:bold;font-size:12px;font-family:Arial;text-anchor:start;fill:#000000;stroke:none;stroke-width:0"
         id="path3838" />
      <path
         d="m 188.92773,32.817188 -1.62304,0.292969 q -0.082,-0.486328 -0.375,-0.732422 -0.28711,-0.246094 -0.75,-0.246094 -0.61524,0 -0.98438,0.427735 -0.36328,0.421875 -0.36328,1.417969 0,1.107421 0.36914,1.564453 0.375,0.457031 1.00195,0.457031 0.46875,0 0.76758,-0.263672 0.29883,-0.269531 0.42188,-0.919922 l 1.61719,0.275391 q -0.25196,1.113281 -0.9668,1.68164 -0.71485,0.56836 -1.91602,0.56836 -1.36523,0 -2.17968,-0.861328 -0.8086,-0.861328 -0.8086,-2.384766 0,-1.541016 0.81445,-2.396484 0.81446,-0.861328 2.20313,-0.861328 1.13672,0 1.80469,0.492187 0.67383,0.486328 0.96679,1.488281 z"
         style="font-weight:bold;font-size:12px;font-family:Arial;text-anchor:start;fill:#000000;stroke:none;stroke-width:0"
         id="path3840" />
      <path
         d="m 193.76172,35.219532 1.64062,0.275391 q -0.3164,0.902343 -1.00195,1.376953 -0.67969,0.46875 -1.70508,0.46875 -1.62304,0 -2.40234,-1.060547 -0.61524,-0.849609 -0.61524,-2.144531 0,-1.546875 0.8086,-2.419922 0.80859,-0.878906 2.04492,-0.878906 1.38867,0 2.19141,0.919921 0.80273,0.914063 0.76757,2.806641 l -4.125,0 q 0.0176,0.732422 0.39844,1.142578 0.38086,0.404297 0.94922,0.404297 0.38672,0 0.65039,-0.210937 0.26367,-0.210938 0.39844,-0.679688 z m 0.0937,-1.664062 q -0.0176,-0.714844 -0.36914,-1.083985 -0.35156,-0.375 -0.85547,-0.375 -0.53906,0 -0.89063,0.392578 -0.35156,0.392578 -0.3457,1.066407 l 2.46094,0 z"
         style="font-weight:bold;font-size:12px;font-family:Arial;text-anchor:start;fill:#000000;stroke:none;stroke-width:0"
         id="path3842" />
      <path
         d="m 202.49805,37.200001 -1.64649,0 0,-3.175781 q 0,-1.007813 -0.10547,-1.300782 -0.10547,-0.298828 -0.3457,-0.46289 -0.23437,-0.164063 -0.56836,-0.164063 -0.42773,0 -0.76758,0.234375 -0.33984,0.234375 -0.46875,0.621094 -0.12304,0.386719 -0.12304,1.429687 l 0,2.81836 -1.64649,0 0,-6.222656 1.5293,0 0,0.914062 q 0.81445,-1.054687 2.05078,-1.054687 0.54492,0 0.99609,0.199218 0.45118,0.19336 0.67969,0.498047 0.23438,0.304688 0.32227,0.691406 0.0937,0.386719 0.0937,1.107422 l 0,3.867188 z"
         style="font-weight:bold;font-size:12px;font-family:Arial;text-anchor:start;fill:#000000;stroke:none;stroke-width:0"
         id="path3844" />
      <path
         d="m 209.59961,32.817188 -1.62305,0.292969 q -0.082,-0.486328 -0.375,-0.732422 -0.28711,-0.246094 -0.75,-0.246094 -0.61523,0 -0.98437,0.427735 -0.36328,0.421875 -0.36328,1.417969 0,1.107421 0.36914,1.564453 0.375,0.457031 1.00195,0.457031 0.46875,0 0.76758,-0.263672 0.29883,-0.269531 0.42187,-0.919922 l 1.61719,0.275391 q -0.25195,1.113281 -0.9668,1.68164 -0.71484,0.56836 -1.91601,0.56836 -1.36524,0 -2.17969,-0.861328 -0.80859,-0.861328 -0.80859,-2.384766 0,-1.541016 0.81445,-2.396484 0.81445,-0.861328 2.20312,-0.861328 1.13672,0 1.80469,0.492187 0.67383,0.486328 0.9668,1.488281 z"
         style="font-weight:bold;font-size:12px;font-family:Arial;text-anchor:start;fill:#000000;stroke:none;stroke-width:0"
         id="path3846" />
      <path
         d="m 210.05078,30.977345 1.75195,0 1.48829,4.417968 1.45312,-4.417968 1.70508,0 -2.19727,5.988281 -0.39258,1.083984 q -0.21679,0.544922 -0.41601,0.832031 -0.19336,0.28711 -0.45117,0.462891 -0.25196,0.181641 -0.62696,0.28125 -0.36914,0.09961 -0.83789,0.09961 -0.47461,0 -0.93164,-0.09961 l -0.14648,-1.289062 q 0.38672,0.07617 0.69726,0.07617 0.57422,0 0.84961,-0.339843 0.27539,-0.333985 0.42188,-0.855469 l -2.36719,-6.240234 z"
         style="font-weight:bold;font-size:12px;font-family:Arial;text-anchor:start;fill:#000000;stroke:none;stroke-width:0"
         id="path3848" />
    </g>
    <path
       style="fill:#ffffff;fill-opacity:0;stroke:none;stroke-width:0"
       d="m 94,27 313,0 0,12 -313,0 z"
       id="rect29" />
  </g>
  <g
     id="g31">
    <path
       style="fill:#ffffff;fill-opacity:0;stroke:none;stroke-width:0"
       d="m 172,275 157,0 0,12 -157,0 z"
       id="rect33" />
    <g
       id="g35">
      <path
         style="fill:#ffffff;fill-opacity:0;stroke:none;stroke-width:0"
         d="m 172,275 67,0 0,12 -67,0 z"
         id="rect37" />
      <g
         id="g39">
        <g
           style="font-size:12px;font-family:Arial;text-anchor:start;fill:#222222;stroke:none;stroke-width:0"
           id="text41">
          <path
             d="m 201.94922,285.20001 0,-8.58984 6.21094,0 0,1.01367 -5.07422,0 0,2.63086 4.75195,0 0,1.00781 -4.75195,0 0,2.92383 5.27343,0 0,1.01367 -6.41015,0 z"
             style="font-size:12px;font-family:Arial;text-anchor:start;fill:#222222;stroke:none;stroke-width:0"
             id="path3785" />
          <path
             d="m 211.51172,285.20001 -2.36719,-6.22265 1.11328,0 1.33594,3.72656 q 0.2168,0.60351 0.39844,1.2539 0.14062,-0.49218 0.39258,-1.18359 l 1.38281,-3.79687 1.08398,0 -2.35547,6.22265 -0.98437,0 z"
             style="font-size:12px;font-family:Arial;text-anchor:start;fill:#222222;stroke:none;stroke-width:0"
             id="path3787" />
          <path
             d="m 219.84375,284.43243 q -0.58594,0.49805 -1.13086,0.70313 -0.53906,0.20508 -1.16016,0.20508 -1.02539,0 -1.57617,-0.49805 -0.55078,-0.50391 -0.55078,-1.2832 0,-0.45703 0.20508,-0.83203 0.21094,-0.38086 0.54492,-0.60938 0.33984,-0.22851 0.76172,-0.3457 0.31055,-0.082 0.9375,-0.15821 1.27734,-0.15234 1.88086,-0.36328 0.006,-0.21679 0.006,-0.27539 0,-0.64453 -0.29883,-0.9082 -0.4043,-0.35742 -1.20117,-0.35742 -0.74414,0 -1.10156,0.26367 -0.35157,0.25781 -0.52149,0.91992 l -1.03125,-0.14062 q 0.14063,-0.66211 0.46289,-1.06641 0.32227,-0.41016 0.93164,-0.62695 0.60938,-0.22266 1.41211,-0.22266 0.79688,0 1.29492,0.1875 0.49805,0.1875 0.73243,0.47461 0.23437,0.28125 0.32812,0.71484 0.0527,0.26954 0.0527,0.97266 l 0,1.40625 q 0,1.4707 0.0644,1.86328 0.0703,0.38672 0.26953,0.74414 l -1.10156,0 q -0.16407,-0.32812 -0.21094,-0.76758 z m -0.0879,-2.35546 q -0.57422,0.23437 -1.72266,0.39843 -0.65039,0.0937 -0.91992,0.21094 -0.26953,0.11719 -0.41601,0.3457 -0.14649,0.22266 -0.14649,0.49805 0,0.42188 0.31641,0.70313 0.32226,0.28125 0.9375,0.28125 0.60937,0 1.08398,-0.26368 0.47461,-0.26953 0.69727,-0.73242 0.16992,-0.35742 0.16992,-1.05469 l 0,-0.38671 z"
             style="font-size:12px;font-family:Arial;text-anchor:start;fill:#222222;stroke:none;stroke-width:0"
             id="path3789" />
          <path
             d="m 226.47656,285.20001 0,-0.78515 q -0.59179,0.92578 -1.74023,0.92578 -0.74414,0 -1.3711,-0.41016 -0.62109,-0.41016 -0.96679,-1.14258 -0.33985,-0.73828 -0.33985,-1.69336 0,-0.93164 0.31055,-1.6875 0.31055,-0.76172 0.93164,-1.16601 0.62109,-0.4043 1.38867,-0.4043 0.5625,0 1.00196,0.24024 0.43945,0.23437 0.71484,0.61523 l 0,-3.08203 1.04883,0 0,8.58984 -0.97852,0 z m -3.33398,-3.10547 q 0,1.19532 0.5039,1.78711 0.50391,0.5918 1.18946,0.5918 0.6914,0 1.17187,-0.5625 0.48633,-0.56836 0.48633,-1.72852 0,-1.27734 -0.49219,-1.875 -0.49218,-0.59765 -1.21289,-0.59765 -0.70312,0 -1.17773,0.57422 -0.46875,0.57422 -0.46875,1.81054 z"
             style="font-size:12px;font-family:Arial;text-anchor:start;fill:#222222;stroke:none;stroke-width:0"
             id="path3791" />
          <path
             d="m 233.35547,283.19611 1.08984,0.13476 q -0.25781,0.95508 -0.95508,1.48242 -0.69726,0.52735 -1.78125,0.52735 -1.36523,0 -2.16796,-0.83789 -0.79688,-0.84375 -0.79688,-2.36133 0,-1.57031 0.80859,-2.4375 0.8086,-0.86719 2.09766,-0.86719 1.24805,0 2.03906,0.84961 0.79102,0.84961 0.79102,2.39063 0,0.0937 -0.006,0.28125 l -4.64063,0 q 0.0586,1.02539 0.58008,1.57031 0.52149,0.54492 1.30078,0.54492 0.58008,0 0.99024,-0.30469 0.41015,-0.30469 0.65039,-0.97265 z m -3.46289,-1.70508 3.47461,0 q -0.0703,-0.78516 -0.39844,-1.17774 -0.50391,-0.60937 -1.30664,-0.60937 -0.72656,0 -1.22461,0.48633 -0.49219,0.48632 -0.54492,1.30078 z"
             style="font-size:12px;font-family:Arial;text-anchor:start;fill:#222222;stroke:none;stroke-width:0"
             id="path3793" />
          <path
             d="m 235.76367,285.20001 0,-6.22265 0.94922,0 0,0.94336 q 0.36328,-0.66211 0.66797,-0.87305 0.31055,-0.21094 0.67969,-0.21094 0.5332,0 1.08398,0.33984 l -0.36328,0.97852 q -0.38672,-0.22852 -0.77344,-0.22852 -0.3457,0 -0.62109,0.21094 -0.27539,0.20508 -0.39258,0.57422 -0.17578,0.5625 -0.17578,1.23047 l 0,3.25781 -1.05469,0 z"
             style="font-size:12px;font-family:Arial;text-anchor:start;fill:#222222;stroke:none;stroke-width:0"
             id="path3795" />
        </g>
      </g>
      <path
         style="fill:#3366cc;stroke:none;stroke-width:0"
         d="m 172,275 24,0 0,12 -24,0 z"
         id="rect43" />
    </g>
    <g
       id="g45">
      <path
         style="fill:#ffffff;fill-opacity:0;stroke:none;stroke-width:0"
         d="m 258,275 71,0 0,12 -71,0 z"
         id="rect47" />
      <g
         id="g49">
        <g
           style="font-size:12px;font-family:Arial;text-anchor:start;fill:#222222;stroke:none;stroke-width:0"
           id="text51">
          <path
             d="m 287.92578,285.20001 0,-8.58984 3.24024,0 q 0.85546,0 1.30664,0.082 0.63281,0.10547 1.06054,0.4043 0.42774,0.29297 0.68555,0.82617 0.26367,0.5332 0.26367,1.17187 0,1.09571 -0.69726,1.85743 -0.69727,0.75585 -2.51954,0.75585 l -2.20312,0 0,3.49219 -1.13672,0 z m 1.13672,-4.50586 2.2207,0 q 1.10157,0 1.56446,-0.41015 0.46289,-0.41016 0.46289,-1.1543 0,-0.53906 -0.27539,-0.91992 -0.26954,-0.38672 -0.71485,-0.50977 -0.28711,-0.0762 -1.06054,-0.0762 l -2.19727,0 0,3.07031 z"
             style="font-size:12px;font-family:Arial;text-anchor:start;fill:#222222;stroke:none;stroke-width:0"
             id="path3800" />
          <path
             d="m 299.86133,285.20001 0,-0.91406 q -0.72656,1.05469 -1.97461,1.05469 -0.55078,0 -1.03125,-0.21094 -0.47461,-0.21094 -0.70899,-0.52734 -0.22851,-0.32227 -0.32226,-0.78516 -0.0645,-0.31055 -0.0645,-0.98438 l 0,-3.85546 1.05468,0 0,3.45117 q 0,0.82617 0.0645,1.11328 0.0996,0.41601 0.42187,0.65625 0.32227,0.23437 0.79688,0.23437 0.47461,0 0.89062,-0.24023 0.41602,-0.24609 0.58594,-0.66211 0.17578,-0.42187 0.17578,-1.21875 l 0,-3.33398 1.05469,0 0,6.22265 -0.94336,0 z"
             style="font-size:12px;font-family:Arial;text-anchor:start;fill:#222222;stroke:none;stroke-width:0"
             id="path3802" />
          <path
             d="m 302.45117,285.20001 0,-6.22265 0.94922,0 0,0.94336 q 0.36328,-0.66211 0.66797,-0.87305 0.31055,-0.21094 0.67969,-0.21094 0.5332,0 1.08398,0.33984 l -0.36328,0.97852 q -0.38672,-0.22852 -0.77344,-0.22852 -0.3457,0 -0.62109,0.21094 -0.27539,0.20508 -0.39258,0.57422 -0.17578,0.5625 -0.17578,1.23047 l 0,3.25781 -1.05469,0 z"
             style="font-size:12px;font-family:Arial;text-anchor:start;fill:#222222;stroke:none;stroke-width:0"
             id="path3804" />
          <path
             d="m 306.02539,283.34259 1.04297,-0.16406 q 0.0879,0.62695 0.48633,0.96094 0.40429,0.33398 1.125,0.33398 0.72656,0 1.07812,-0.29297 0.35156,-0.29883 0.35156,-0.69726 0,-0.35743 -0.31054,-0.5625 -0.2168,-0.14063 -1.07813,-0.35743 -1.16015,-0.29297 -1.61133,-0.5039 -0.44531,-0.2168 -0.67968,-0.5918 -0.22852,-0.38086 -0.22852,-0.83789 0,-0.41602 0.1875,-0.76758 0.19336,-0.35742 0.52149,-0.5918 0.24609,-0.18164 0.66796,-0.30468 0.42774,-0.12891 0.91407,-0.12891 0.73242,0 1.2832,0.21094 0.55664,0.21094 0.82031,0.57422 0.26367,0.35742 0.36328,0.96093 l -1.03125,0.14063 q -0.0703,-0.48047 -0.41015,-0.75 -0.33399,-0.26953 -0.94922,-0.26953 -0.72656,0 -1.03711,0.24023 -0.31055,0.24024 -0.31055,0.5625 0,0.20508 0.12891,0.36914 0.12891,0.16993 0.4043,0.28125 0.1582,0.0586 0.93164,0.26953 1.11914,0.29883 1.55859,0.49219 0.44531,0.1875 0.69727,0.55078 0.25195,0.36328 0.25195,0.90235 0,0.52734 -0.31055,0.99609 -0.30469,0.46289 -0.88476,0.7207 -0.58008,0.25196 -1.3125,0.25196 -1.21289,0 -1.85157,-0.50391 -0.63281,-0.50391 -0.80859,-1.49414 z"
             style="font-size:12px;font-family:Arial;text-anchor:start;fill:#222222;stroke:none;stroke-width:0"
             id="path3806" />
          <path
             d="m 316.52539,285.20001 0,-0.91406 q -0.72656,1.05469 -1.97461,1.05469 -0.55078,0 -1.03125,-0.21094 -0.47461,-0.21094 -0.70898,-0.52734 -0.22852,-0.32227 -0.32227,-0.78516 -0.0644,-0.31055 -0.0644,-0.98438 l 0,-3.85546 1.05469,0 0,3.45117 q 0,0.82617 0.0645,1.11328 0.0996,0.41601 0.42187,0.65625 0.32227,0.23437 0.79688,0.23437 0.47461,0 0.89062,-0.24023 0.41602,-0.24609 0.58594,-0.66211 0.17578,-0.42187 0.17578,-1.21875 l 0,-3.33398 1.05469,0 0,6.22265 -0.94336,0 z"
             style="font-size:12px;font-family:Arial;text-anchor:start;fill:#222222;stroke:none;stroke-width:0"
             id="path3808" />
          <path
             d="m 323.38672,283.19611 1.08984,0.13476 q -0.25781,0.95508 -0.95508,1.48242 -0.69726,0.52735 -1.78125,0.52735 -1.36523,0 -2.16796,-0.83789 -0.79688,-0.84375 -0.79688,-2.36133 0,-1.57031 0.80859,-2.4375 0.8086,-0.86719 2.09766,-0.86719 1.24805,0 2.03906,0.84961 0.79102,0.84961 0.79102,2.39063 0,0.0937 -0.006,0.28125 l -4.64063,0 q 0.0586,1.02539 0.58008,1.57031 0.52149,0.54492 1.30078,0.54492 0.58008,0 0.99024,-0.30469 0.41015,-0.30469 0.65039,-0.97265 z m -3.46289,-1.70508 3.47461,0 q -0.0703,-0.78516 -0.39844,-1.17774 -0.50391,-0.60937 -1.30664,-0.60937 -0.72656,0 -1.22461,0.48633 -0.49219,0.48632 -0.54492,1.30078 z"
             style="font-size:12px;font-family:Arial;text-anchor:start;fill:#222222;stroke:none;stroke-width:0"
             id="path3810" />
          <path
             d="m 325.79492,285.20001 0,-6.22265 0.94922,0 0,0.94336 q 0.36328,-0.66211 0.66797,-0.87305 0.31055,-0.21094 0.67969,-0.21094 0.5332,0 1.08398,0.33984 l -0.36328,0.97852 q -0.38672,-0.22852 -0.77344,-0.22852 -0.3457,0 -0.62109,0.21094 -0.27539,0.20508 -0.39258,0.57422 -0.17578,0.5625 -0.17578,1.23047 l 0,3.25781 -1.05469,0 z"
             style="font-size:12px;font-family:Arial;text-anchor:start;fill:#222222;stroke:none;stroke-width:0"
             id="path3812" />
        </g>
      </g>
      <path
         style="fill:#dc3912;stroke:none;stroke-width:0"
         d="m 258,275 24,0 0,12 -24,0 z"
         id="rect53" />
    </g>
  </g>
  <g
     id="g55">
    <path
       style="fill:#ffffff;fill-opacity:0;stroke:none;stroke-width:0"
       d="m 94,58 313,0 0,185 -313,0 z"
       id="rect57" />
    <g
       clip-path="url(http://localhost:63342/hc-with-streams/results/no-vpn/charts-no-vpn.html?_ijt=3ghico0qltu18snijdi3q7leh3#_ABSTRACT_RENDERER_ID_1)"
       id="g59">
      <g
         id="g61">
        <path
           style="fill:#cccccc;stroke:none;stroke-width:0"
           d="m 94,242 313,0 0,1 -313,0 z"
           id="rect63" />
        <path
           style="fill:#cccccc;stroke:none;stroke-width:0"
           d="m 94,196 313,0 0,1 -313,0 z"
           id="rect65" />
        <path
           style="fill:#cccccc;stroke:none;stroke-width:0"
           d="m 94,150 313,0 0,1 -313,0 z"
           id="rect67" />
        <path
           style="fill:#cccccc;stroke:none;stroke-width:0"
           d="m 94,104 313,0 0,1 -313,0 z"
           id="rect69" />
        <path
           style="fill:#cccccc;stroke:none;stroke-width:0"
           d="m 94,58 313,0 0,1 -313,0 z"
           id="rect71" />
        <path
           style="fill:#ebebeb;stroke:none;stroke-width:0"
           d="m 94,219 313,0 0,1 -313,0 z"
           id="rect73" />
        <path
           style="fill:#ebebeb;stroke:none;stroke-width:0"
           d="m 94,173 313,0 0,1 -313,0 z"
           id="rect75" />
        <path
           style="fill:#ebebeb;stroke:none;stroke-width:0"
           d="m 94,127 313,0 0,1 -313,0 z"
           id="rect77" />
        <path
           style="fill:#ebebeb;stroke:none;stroke-width:0"
           d="m 94,81 313,0 0,1 -313,0 z"
           id="rect79" />
      </g>
      <g
         id="g81">
        <path
           style="fill:#3366cc;stroke:none;stroke-width:0"
           d="m 109,242 24,0 0,0.5 -24,0 z"
           id="rect83" />
        <path
           style="fill:#3366cc;stroke:none;stroke-width:0"
           d="m 187,96 24,0 0,146 -24,0 z"
           id="rect85" />
        <path
           style="fill:#3366cc;stroke:none;stroke-width:0"
           d="m 265,59 24,0 0,183 -24,0 z"
           id="rect87" />
        <path
           style="fill:#3366cc;stroke:none;stroke-width:0"
           d="m 343,123 24,0 0,119 -24,0 z"
           id="rect89" />
        <path
           style="fill:#dc3912;stroke:none;stroke-width:0"
           d="m 134,242 24,0 0,0.5 -24,0 z"
           id="rect91" />
        <path
           style="fill:#dc3912;stroke:none;stroke-width:0"
           d="m 212,241.76401 24,0 0,0.736 -24,0 z"
           id="rect93" />
        <path
           style="fill:#dc3912;stroke:none;stroke-width:0"
           d="m 290,242.42641 24,0 0,0.5 -24,0 z"
           id="rect95" />
        <path
           style="fill:#dc3912;stroke:none;stroke-width:0"
           d="m 368,128 24,0 0,114 -24,0 z"
           id="rect97" />
      </g>
      <g
         id="g99">
        <path
           style="fill:#333333;stroke:none;stroke-width:0"
           d="m 94,242 313,0 0,1 -313,0 z"
           id="rect101" />
      </g>
      <g
         id="g103">
        <path
           style="fill:#999999;stroke:none;stroke-width:0"
           d="m 121,230 1,0 0,12 -1,0 z"
           id="rect105" />
        <rect
           x="199"
           y="96"
           width="1"
           height="0"
           stroke="none"
           stroke-width="0"
           fill="#999999"
           id="rect107" />
        <rect
           x="277"
           y="59"
           width="1"
           height="0"
           stroke="none"
           stroke-width="0"
           fill="#999999"
           id="rect109" />
        <rect
           x="355"
           y="123"
           width="1"
           height="0"
           stroke="none"
           stroke-width="0"
           fill="#999999"
           id="rect111" />
        <path
           style="fill:#999999;stroke:none;stroke-width:0"
           d="m 146,230 1,0 0,12 -1,0 z"
           id="rect113" />
        <path
           style="fill:#999999;stroke:none;stroke-width:0"
           d="m 224,229.76401 1,0 0,12 -1,0 z"
           id="rect115" />
        <path
           style="fill:#999999;stroke:none;stroke-width:0"
           d="m 302,230.42641 1,0 0,12 -1,0 z"
           id="rect117" />
        <rect
           x="380"
           y="128"
           width="1"
           height="0"
           stroke="none"
           stroke-width="0"
           fill="#999999"
           id="rect119" />
      </g>
    </g>
    <g
       id="g121" />
    <g
       id="g123">
      <g
         id="g125">
        <g
           style="font-size:12px;font-family:Arial;text-anchor:middle;fill:#222222;stroke:none;stroke-width:0"
           id="text127">
          <path
             d="m 113.05078,260.20001 0,-8.58984 1.71094,0 2.0332,6.08203 q 0.28125,0.84961 0.41016,1.27148 0.14648,-0.46875 0.45703,-1.37695 l 2.05664,-5.97656 1.5293,0 0,8.58984 -1.09571,0 0,-7.18945 -2.49609,7.18945 -1.02539,0 -2.48438,-7.3125 0,7.3125 -1.0957,0 z"
             style="font-size:12px;font-family:Arial;text-anchor:middle;fill:#222222;stroke:none;stroke-width:0"
             id="path3632" />
          <path
             d="m 122.54297,257.08868 q 0,-1.72851 0.96094,-2.56054 0.80273,-0.69141 1.95703,-0.69141 1.2832,0 2.09765,0.84375 0.81446,0.83789 0.81446,2.32031 0,1.20118 -0.36328,1.89258 -0.35743,0.68555 -1.04883,1.06641 -0.68555,0.38086 -1.5,0.38086 -1.30664,0 -2.11524,-0.83789 -0.80273,-0.83789 -0.80273,-2.41407 z m 1.08398,0 q 0,1.19532 0.52149,1.79297 0.52148,0.5918 1.3125,0.5918 0.78515,0 1.30664,-0.59766 0.52148,-0.59765 0.52148,-1.82226 0,-1.1543 -0.52734,-1.7461 -0.52149,-0.59765 -1.30078,-0.59765 -0.79102,0 -1.3125,0.59179 -0.52149,0.5918 -0.52149,1.78711 z"
             style="font-size:12px;font-family:Arial;text-anchor:middle;fill:#222222;stroke:none;stroke-width:0"
             id="path3634" />
          <path
             d="m 133.65234,260.20001 0,-0.78515 q -0.59179,0.92578 -1.74023,0.92578 -0.74414,0 -1.37109,-0.41016 -0.6211,-0.41016 -0.9668,-1.14258 -0.33985,-0.73828 -0.33985,-1.69336 0,-0.93164 0.31055,-1.6875 0.31055,-0.76172 0.93164,-1.16601 0.6211,-0.4043 1.38867,-0.4043 0.5625,0 1.00196,0.24024 0.43945,0.23437 0.71484,0.61523 l 0,-3.08203 1.04883,0 0,8.58984 -0.97852,0 z m -3.33398,-3.10547 q 0,1.19532 0.50391,1.78711 0.5039,0.5918 1.18945,0.5918 0.6914,0 1.17187,-0.5625 0.48633,-0.56836 0.48633,-1.72852 0,-1.27734 -0.49219,-1.875 -0.49218,-0.59765 -1.21289,-0.59765 -0.70312,0 -1.17773,0.57422 -0.46875,0.57422 -0.46875,1.81054 z"
             style="font-size:12px;font-family:Arial;text-anchor:middle;fill:#222222;stroke:none;stroke-width:0"
             id="path3636" />
          <path
             d="m 140.53125,258.19611 1.08984,0.13476 q -0.25781,0.95508 -0.95507,1.48242 -0.69727,0.52735 -1.78125,0.52735 -1.36524,0 -2.16797,-0.83789 -0.79688,-0.84375 -0.79688,-2.36133 0,-1.57031 0.8086,-2.4375 0.80859,-0.86719 2.09765,-0.86719 1.24805,0 2.03906,0.84961 0.79102,0.84961 0.79102,2.39063 0,0.0937 -0.006,0.28125 l -4.64062,0 q 0.0586,1.02539 0.58007,1.57031 0.52149,0.54492 1.30078,0.54492 0.58008,0 0.99024,-0.30469 0.41016,-0.30469 0.65039,-0.97265 z m -3.46289,-1.70508 3.47461,0 q -0.0703,-0.78516 -0.39844,-1.17774 -0.50391,-0.60937 -1.30664,-0.60937 -0.72656,0 -1.22461,0.48633 -0.49219,0.48632 -0.54492,1.30078 z"
             style="font-size:12px;font-family:Arial;text-anchor:middle;fill:#222222;stroke:none;stroke-width:0"
             id="path3638" />
          <path
             d="m 142.92773,260.20001 0,-8.58984 1.05469,0 0,8.58984 -1.05469,0 z"
             style="font-size:12px;font-family:Arial;text-anchor:middle;fill:#222222;stroke:none;stroke-width:0"
             id="path3640" />
          <path
             d="m 152.63086,260.20001 -1.05469,0 0,-6.7207 q -0.38086,0.36328 -1.00195,0.72656 -0.61524,0.36328 -1.10742,0.54492 l 0,-1.01953 q 0.88476,-0.41601 1.54687,-1.00781 0.66211,-0.5918 0.9375,-1.14844 l 0.67969,0 0,8.625 z"
             style="font-size:12px;font-family:Arial;text-anchor:middle;fill:#222222;stroke:none;stroke-width:0"
             id="path3642" />
        </g>
      </g>
      <g
         id="g129">
        <g
           style="font-size:12px;font-family:Arial;text-anchor:middle;fill:#222222;stroke:none;stroke-width:0"
           id="text131">
          <path
             d="m 191.05078,260.20001 0,-8.58984 1.71094,0 2.0332,6.08203 q 0.28125,0.84961 0.41016,1.27148 0.14648,-0.46875 0.45703,-1.37695 l 2.05664,-5.97656 1.5293,0 0,8.58984 -1.09571,0 0,-7.18945 -2.49609,7.18945 -1.02539,0 -2.48438,-7.3125 0,7.3125 -1.0957,0 z"
             style="font-size:12px;font-family:Arial;text-anchor:middle;fill:#222222;stroke:none;stroke-width:0"
             id="path3645" />
          <path
             d="m 200.54297,257.08868 q 0,-1.72851 0.96094,-2.56054 0.80273,-0.69141 1.95703,-0.69141 1.2832,0 2.09765,0.84375 0.81446,0.83789 0.81446,2.32031 0,1.20118 -0.36328,1.89258 -0.35743,0.68555 -1.04883,1.06641 -0.68555,0.38086 -1.5,0.38086 -1.30664,0 -2.11524,-0.83789 -0.80273,-0.83789 -0.80273,-2.41407 z m 1.08398,0 q 0,1.19532 0.52149,1.79297 0.52148,0.5918 1.3125,0.5918 0.78515,0 1.30664,-0.59766 0.52148,-0.59765 0.52148,-1.82226 0,-1.1543 -0.52734,-1.7461 -0.52149,-0.59765 -1.30078,-0.59765 -0.79102,0 -1.3125,0.59179 -0.52149,0.5918 -0.52149,1.78711 z"
             style="font-size:12px;font-family:Arial;text-anchor:middle;fill:#222222;stroke:none;stroke-width:0"
             id="path3647" />
          <path
             d="m 211.65234,260.20001 0,-0.78515 q -0.59179,0.92578 -1.74023,0.92578 -0.74414,0 -1.37109,-0.41016 -0.6211,-0.41016 -0.9668,-1.14258 -0.33985,-0.73828 -0.33985,-1.69336 0,-0.93164 0.31055,-1.6875 0.31055,-0.76172 0.93164,-1.16601 0.6211,-0.4043 1.38867,-0.4043 0.5625,0 1.00196,0.24024 0.43945,0.23437 0.71484,0.61523 l 0,-3.08203 1.04883,0 0,8.58984 -0.97852,0 z m -3.33398,-3.10547 q 0,1.19532 0.50391,1.78711 0.5039,0.5918 1.18945,0.5918 0.6914,0 1.17187,-0.5625 0.48633,-0.56836 0.48633,-1.72852 0,-1.27734 -0.49219,-1.875 -0.49218,-0.59765 -1.21289,-0.59765 -0.70312,0 -1.17773,0.57422 -0.46875,0.57422 -0.46875,1.81054 z"
             style="font-size:12px;font-family:Arial;text-anchor:middle;fill:#222222;stroke:none;stroke-width:0"
             id="path3649" />
          <path
             d="m 218.53125,258.19611 1.08984,0.13476 q -0.25781,0.95508 -0.95507,1.48242 -0.69727,0.52735 -1.78125,0.52735 -1.36524,0 -2.16797,-0.83789 -0.79688,-0.84375 -0.79688,-2.36133 0,-1.57031 0.8086,-2.4375 0.80859,-0.86719 2.09765,-0.86719 1.24805,0 2.03906,0.84961 0.79102,0.84961 0.79102,2.39063 0,0.0937 -0.006,0.28125 l -4.64062,0 q 0.0586,1.02539 0.58007,1.57031 0.52149,0.54492 1.30078,0.54492 0.58008,0 0.99024,-0.30469 0.41016,-0.30469 0.65039,-0.97265 z m -3.46289,-1.70508 3.47461,0 q -0.0703,-0.78516 -0.39844,-1.17774 -0.50391,-0.60937 -1.30664,-0.60937 -0.72656,0 -1.22461,0.48633 -0.49219,0.48632 -0.54492,1.30078 z"
             style="font-size:12px;font-family:Arial;text-anchor:middle;fill:#222222;stroke:none;stroke-width:0"
             id="path3651" />
          <path
             d="m 220.92773,260.20001 0,-8.58984 1.05469,0 0,8.58984 -1.05469,0 z"
             style="font-size:12px;font-family:Arial;text-anchor:middle;fill:#222222;stroke:none;stroke-width:0"
             id="path3653" />
          <path
             d="m 232.20117,259.18634 0,1.01367 -5.67773,0 q -0.0117,-0.38086 0.12304,-0.73242 0.2168,-0.58008 0.69141,-1.14258 0.48047,-0.5625 1.38281,-1.30078 1.40039,-1.14844 1.89258,-1.81641 0.49219,-0.67382 0.49219,-1.27148 0,-0.62695 -0.45117,-1.05469 -0.44532,-0.43359 -1.16602,-0.43359 -0.76172,0 -1.21875,0.45703 -0.45703,0.45703 -0.46289,1.26563 l -1.08398,-0.11133 q 0.11132,-1.21289 0.83789,-1.84571 0.72656,-0.63867 1.95117,-0.63867 1.23633,0 1.95703,0.68555 0.7207,0.68555 0.7207,1.69922 0,0.51562 -0.21093,1.01367 -0.21094,0.49805 -0.70313,1.04883 -0.48633,0.55078 -1.62305,1.51172 -0.94922,0.79687 -1.21875,1.08398 -0.26953,0.28125 -0.44531,0.56836 l 4.21289,0 z"
             style="font-size:12px;font-family:Arial;text-anchor:middle;fill:#222222;stroke:none;stroke-width:0"
             id="path3655" />
        </g>
      </g>
      <g
         id="g133">
        <g
           style="font-size:12px;font-family:Arial;text-anchor:middle;fill:#222222;stroke:none;stroke-width:0"
           id="text135">
          <path
             d="m 269.05078,260.20001 0,-8.58984 1.71094,0 2.0332,6.08203 q 0.28125,0.84961 0.41016,1.27148 0.14648,-0.46875 0.45703,-1.37695 l 2.05664,-5.97656 1.5293,0 0,8.58984 -1.09571,0 0,-7.18945 -2.49609,7.18945 -1.02539,0 -2.48438,-7.3125 0,7.3125 -1.0957,0 z"
             style="font-size:12px;font-family:Arial;text-anchor:middle;fill:#222222;stroke:none;stroke-width:0"
             id="path3658" />
          <path
             d="m 278.54297,257.08868 q 0,-1.72851 0.96094,-2.56054 0.80273,-0.69141 1.95703,-0.69141 1.2832,0 2.09765,0.84375 0.81446,0.83789 0.81446,2.32031 0,1.20118 -0.36328,1.89258 -0.35743,0.68555 -1.04883,1.06641 -0.68555,0.38086 -1.5,0.38086 -1.30664,0 -2.11524,-0.83789 -0.80273,-0.83789 -0.80273,-2.41407 z m 1.08398,0 q 0,1.19532 0.52149,1.79297 0.52148,0.5918 1.3125,0.5918 0.78515,0 1.30664,-0.59766 0.52148,-0.59765 0.52148,-1.82226 0,-1.1543 -0.52734,-1.7461 -0.52149,-0.59765 -1.30078,-0.59765 -0.79102,0 -1.3125,0.59179 -0.52149,0.5918 -0.52149,1.78711 z"
             style="font-size:12px;font-family:Arial;text-anchor:middle;fill:#222222;stroke:none;stroke-width:0"
             id="path3660" />
          <path
             d="m 289.65234,260.20001 0,-0.78515 q -0.59179,0.92578 -1.74023,0.92578 -0.74414,0 -1.37109,-0.41016 -0.6211,-0.41016 -0.9668,-1.14258 -0.33985,-0.73828 -0.33985,-1.69336 0,-0.93164 0.31055,-1.6875 0.31055,-0.76172 0.93164,-1.16601 0.6211,-0.4043 1.38867,-0.4043 0.5625,0 1.00196,0.24024 0.43945,0.23437 0.71484,0.61523 l 0,-3.08203 1.04883,0 0,8.58984 -0.97852,0 z m -3.33398,-3.10547 q 0,1.19532 0.50391,1.78711 0.5039,0.5918 1.18945,0.5918 0.6914,0 1.17187,-0.5625 0.48633,-0.56836 0.48633,-1.72852 0,-1.27734 -0.49219,-1.875 -0.49218,-0.59765 -1.21289,-0.59765 -0.70312,0 -1.17773,0.57422 -0.46875,0.57422 -0.46875,1.81054 z"
             style="font-size:12px;font-family:Arial;text-anchor:middle;fill:#222222;stroke:none;stroke-width:0"
             id="path3662" />
          <path
             d="m 296.53125,258.19611 1.08984,0.13476 q -0.25781,0.95508 -0.95507,1.48242 -0.69727,0.52735 -1.78125,0.52735 -1.36524,0 -2.16797,-0.83789 -0.79688,-0.84375 -0.79688,-2.36133 0,-1.57031 0.8086,-2.4375 0.80859,-0.86719 2.09765,-0.86719 1.24805,0 2.03906,0.84961 0.79102,0.84961 0.79102,2.39063 0,0.0937 -0.006,0.28125 l -4.64062,0 q 0.0586,1.02539 0.58007,1.57031 0.52149,0.54492 1.30078,0.54492 0.58008,0 0.99024,-0.30469 0.41016,-0.30469 0.65039,-0.97265 z m -3.46289,-1.70508 3.47461,0 q -0.0703,-0.78516 -0.39844,-1.17774 -0.50391,-0.60937 -1.30664,-0.60937 -0.72656,0 -1.22461,0.48633 -0.49219,0.48632 -0.54492,1.30078 z"
             style="font-size:12px;font-family:Arial;text-anchor:middle;fill:#222222;stroke:none;stroke-width:0"
             id="path3664" />
          <path
             d="m 298.92773,260.20001 0,-8.58984 1.05469,0 0,8.58984 -1.05469,0 z"
             style="font-size:12px;font-family:Arial;text-anchor:middle;fill:#222222;stroke:none;stroke-width:0"
             id="path3666" />
          <path
             d="m 304.66406,257.93243 1.05469,-0.14062 q 0.18164,0.89648 0.61523,1.29492 0.43946,0.39258 1.06641,0.39258 0.74414,0 1.25391,-0.51563 0.51562,-0.51562 0.51562,-1.27734 0,-0.72656 -0.47461,-1.19531 -0.47461,-0.47461 -1.20703,-0.47461 -0.29883,0 -0.74414,0.11719 l 0.11719,-0.92579 q 0.10547,0.0117 0.16992,0.0117 0.67383,0 1.21289,-0.35156 0.53906,-0.35156 0.53906,-1.08398 0,-0.58008 -0.39258,-0.96094 -0.39257,-0.38086 -1.01367,-0.38086 -0.61523,0 -1.02539,0.38672 -0.41015,0.38672 -0.52734,1.16015 l -1.05469,-0.1875 q 0.19336,-1.06054 0.87891,-1.64062 0.68554,-0.58594 1.70508,-0.58594 0.70312,0 1.29492,0.30469 0.59179,0.29883 0.90234,0.82031 0.31641,0.52149 0.31641,1.10742 0,0.55664 -0.29883,1.01368 -0.29883,0.45703 -0.88477,0.72656 0.76172,0.17578 1.1836,0.73242 0.42187,0.55078 0.42187,1.38281 0,1.125 -0.82031,1.91016 -0.82031,0.7793 -2.07422,0.7793 -1.13086,0 -1.88086,-0.67383 -0.74414,-0.67383 -0.84961,-1.7461 z"
             style="font-size:12px;font-family:Arial;text-anchor:middle;fill:#222222;stroke:none;stroke-width:0"
             id="path3668" />
        </g>
      </g>
      <g
         id="g137">
        <g
           style="font-size:12px;font-family:Arial;text-anchor:middle;fill:#222222;stroke:none;stroke-width:0"
           id="text139">
          <path
             d="m 347.05078,260.20001 0,-8.58984 1.71094,0 2.0332,6.08203 q 0.28125,0.84961 0.41016,1.27148 0.14648,-0.46875 0.45703,-1.37695 l 2.05664,-5.97656 1.5293,0 0,8.58984 -1.09571,0 0,-7.18945 -2.49609,7.18945 -1.02539,0 -2.48438,-7.3125 0,7.3125 -1.0957,0 z"
             style="font-size:12px;font-family:Arial;text-anchor:middle;fill:#222222;stroke:none;stroke-width:0"
             id="path3671" />
          <path
             d="m 356.54297,257.08868 q 0,-1.72851 0.96094,-2.56054 0.80273,-0.69141 1.95703,-0.69141 1.2832,0 2.09765,0.84375 0.81446,0.83789 0.81446,2.32031 0,1.20118 -0.36328,1.89258 -0.35743,0.68555 -1.04883,1.06641 -0.68555,0.38086 -1.5,0.38086 -1.30664,0 -2.11524,-0.83789 -0.80273,-0.83789 -0.80273,-2.41407 z m 1.08398,0 q 0,1.19532 0.52149,1.79297 0.52148,0.5918 1.3125,0.5918 0.78515,0 1.30664,-0.59766 0.52148,-0.59765 0.52148,-1.82226 0,-1.1543 -0.52734,-1.7461 -0.52149,-0.59765 -1.30078,-0.59765 -0.79102,0 -1.3125,0.59179 -0.52149,0.5918 -0.52149,1.78711 z"
             style="font-size:12px;font-family:Arial;text-anchor:middle;fill:#222222;stroke:none;stroke-width:0"
             id="path3673" />
          <path
             d="m 367.65234,260.20001 0,-0.78515 q -0.59179,0.92578 -1.74023,0.92578 -0.74414,0 -1.37109,-0.41016 -0.6211,-0.41016 -0.9668,-1.14258 -0.33985,-0.73828 -0.33985,-1.69336 0,-0.93164 0.31055,-1.6875 0.31055,-0.76172 0.93164,-1.16601 0.6211,-0.4043 1.38867,-0.4043 0.5625,0 1.00196,0.24024 0.43945,0.23437 0.71484,0.61523 l 0,-3.08203 1.04883,0 0,8.58984 -0.97852,0 z m -3.33398,-3.10547 q 0,1.19532 0.50391,1.78711 0.5039,0.5918 1.18945,0.5918 0.6914,0 1.17187,-0.5625 0.48633,-0.56836 0.48633,-1.72852 0,-1.27734 -0.49219,-1.875 -0.49218,-0.59765 -1.21289,-0.59765 -0.70312,0 -1.17773,0.57422 -0.46875,0.57422 -0.46875,1.81054 z"
             style="font-size:12px;font-family:Arial;text-anchor:middle;fill:#222222;stroke:none;stroke-width:0"
             id="path3675" />
          <path
             d="m 374.53125,258.19611 1.08984,0.13476 q -0.25781,0.95508 -0.95507,1.48242 -0.69727,0.52735 -1.78125,0.52735 -1.36524,0 -2.16797,-0.83789 -0.79688,-0.84375 -0.79688,-2.36133 0,-1.57031 0.8086,-2.4375 0.80859,-0.86719 2.09765,-0.86719 1.24805,0 2.03906,0.84961 0.79102,0.84961 0.79102,2.39063 0,0.0937 -0.006,0.28125 l -4.64062,0 q 0.0586,1.02539 0.58007,1.57031 0.52149,0.54492 1.30078,0.54492 0.58008,0 0.99024,-0.30469 0.41016,-0.30469 0.65039,-0.97265 z m -3.46289,-1.70508 3.47461,0 q -0.0703,-0.78516 -0.39844,-1.17774 -0.50391,-0.60937 -1.30664,-0.60937 -0.72656,0 -1.22461,0.48633 -0.49219,0.48632 -0.54492,1.30078 z"
             style="font-size:12px;font-family:Arial;text-anchor:middle;fill:#222222;stroke:none;stroke-width:0"
             id="path3677" />
          <path
             d="m 376.92773,260.20001 0,-8.58984 1.05469,0 0,8.58984 -1.05469,0 z"
             style="font-size:12px;font-family:Arial;text-anchor:middle;fill:#222222;stroke:none;stroke-width:0"
             id="path3679" />
          <path
             d="m 386.03906,260.20001 0,-2.05664 -3.72656,0 0,-0.9668 3.91992,-5.5664 0.86133,0 0,5.5664 1.16016,0 0,0.9668 -1.16016,0 0,2.05664 -1.05469,0 z m 0,-3.02344 0,-3.87304 -2.68945,3.87304 2.68945,0 z"
             style="font-size:12px;font-family:Arial;text-anchor:middle;fill:#222222;stroke:none;stroke-width:0"
             id="path3681" />
        </g>
      </g>
      <g
         id="g141">
        <g
           style="font-size:12px;font-family:Arial;text-anchor:end;fill:#444444;stroke:none;stroke-width:0"
           id="text143">
          <path
             d="m 75.818359,242.46367 q 0,-1.52344 0.310547,-2.44922 0.316406,-0.93164 0.931641,-1.43555 0.621094,-0.5039 1.558594,-0.5039 0.691406,0 1.21289,0.28125 0.521485,0.27539 0.861328,0.80273 0.339844,0.52149 0.533203,1.27735 0.19336,0.75 0.19336,2.02734 0,1.51172 -0.310547,2.44336 -0.310547,0.92578 -0.931641,1.43555 -0.615234,0.5039 -1.558593,0.5039 -1.242188,0 -1.951172,-0.89062 -0.84961,-1.07227 -0.84961,-3.49219 z m 1.083985,0 q 0,2.11523 0.492187,2.81836 0.498047,0.69726 1.22461,0.69726 0.726562,0 1.21875,-0.70312 0.498046,-0.70313 0.498046,-2.8125 0,-2.12109 -0.498046,-2.81836 -0.492188,-0.69727 -1.230469,-0.69727 -0.726563,0 -1.160156,0.61524 -0.544922,0.78515 -0.544922,2.90039 z"
             style="font-size:12px;font-family:Arial;text-anchor:end;fill:#444444;stroke:none;stroke-width:0"
             id="path3684" />
        </g>
      </g>
      <g
         id="g145">
        <g
           style="font-size:12px;font-family:Arial;text-anchor:end;fill:#444444;stroke:none;stroke-width:0"
           id="text147">
          <path
             d="m 73.111328,200.7 -1.054687,0 0,-6.72071 q -0.38086,0.36329 -1.001954,0.72657 -0.615234,0.36328 -1.107421,0.54492 l 0,-1.01953 q 0.884765,-0.41602 1.546875,-1.00782 0.662109,-0.59179 0.9375,-1.14843 l 0.679687,0 0,8.625 z"
             style="font-size:12px;font-family:Arial;text-anchor:end;fill:#444444;stroke:none;stroke-width:0"
             id="path3687" />
          <path
             d="m 75.818359,196.46367 q 0,-1.52344 0.310547,-2.44922 0.316406,-0.93164 0.931641,-1.43555 0.621094,-0.5039 1.558594,-0.5039 0.691406,0 1.21289,0.28125 0.521485,0.27539 0.861328,0.80273 0.339844,0.52149 0.533203,1.27735 0.19336,0.75 0.19336,2.02734 0,1.51172 -0.310547,2.44336 -0.310547,0.92578 -0.931641,1.43555 -0.615234,0.5039 -1.558593,0.5039 -1.242188,0 -1.951172,-0.89062 -0.84961,-1.07227 -0.84961,-3.49219 z m 1.083985,0 q 0,2.11523 0.492187,2.81836 0.498047,0.69726 1.22461,0.69726 0.726562,0 1.21875,-0.70312 0.498046,-0.70313 0.498046,-2.8125 0,-2.12109 -0.498046,-2.81836 -0.492188,-0.69727 -1.230469,-0.69727 -0.726563,0 -1.160156,0.61524 -0.544922,0.78515 -0.544922,2.90039 z"
             style="font-size:12px;font-family:Arial;text-anchor:end;fill:#444444;stroke:none;stroke-width:0"
             id="path3689" />
        </g>
      </g>
      <g
         id="g149">
        <g
           style="font-size:12px;font-family:Arial;text-anchor:end;fill:#444444;stroke:none;stroke-width:0"
           id="text151">
          <path
             d="m 74.681641,153.68633 0,1.01367 -5.677735,0 q -0.01172,-0.38086 0.123047,-0.73242 0.216797,-0.58008 0.691406,-1.14258 0.480469,-0.5625 1.382813,-1.30078 1.40039,-1.14844 1.892578,-1.81641 0.492187,-0.67383 0.492187,-1.27148 0,-0.62696 -0.451171,-1.05469 -0.445313,-0.4336 -1.166016,-0.4336 -0.761719,0 -1.21875,0.45704 -0.457031,0.45703 -0.462891,1.26562 l -1.083984,-0.11133 q 0.111328,-1.21289 0.837891,-1.8457 0.726562,-0.63867 1.951171,-0.63867 1.236329,0 1.957032,0.68554 0.720703,0.68555 0.720703,1.69922 0,0.51563 -0.210938,1.01367 -0.210937,0.49805 -0.703125,1.04883 -0.486328,0.55078 -1.623047,1.51172 -0.949218,0.79688 -1.21875,1.08399 -0.269531,0.28125 -0.445312,0.56836 l 4.212891,0 z"
             style="font-size:12px;font-family:Arial;text-anchor:end;fill:#444444;stroke:none;stroke-width:0"
             id="path3692" />
          <path
             d="m 75.818359,150.46367 q 0,-1.52344 0.310547,-2.44922 0.316406,-0.93164 0.931641,-1.43555 0.621094,-0.5039 1.558594,-0.5039 0.691406,0 1.21289,0.28125 0.521485,0.27539 0.861328,0.80273 0.339844,0.52149 0.533203,1.27735 0.19336,0.75 0.19336,2.02734 0,1.51172 -0.310547,2.44336 -0.310547,0.92578 -0.931641,1.43555 -0.615234,0.5039 -1.558593,0.5039 -1.242188,0 -1.951172,-0.89062 -0.84961,-1.07227 -0.84961,-3.49219 z m 1.083985,0 q 0,2.11523 0.492187,2.81836 0.498047,0.69726 1.22461,0.69726 0.726562,0 1.21875,-0.70312 0.498046,-0.70313 0.498046,-2.8125 0,-2.12109 -0.498046,-2.81836 -0.492188,-0.69727 -1.230469,-0.69727 -0.726563,0 -1.160156,0.61524 -0.544922,0.78515 -0.544922,2.90039 z"
             style="font-size:12px;font-family:Arial;text-anchor:end;fill:#444444;stroke:none;stroke-width:0"
             id="path3694" />
        </g>
      </g>
      <g
         id="g153">
        <g
           style="font-size:12px;font-family:Arial;text-anchor:end;fill:#444444;stroke:none;stroke-width:0"
           id="text155">
          <path
             d="m 69.144531,106.43242 1.054688,-0.14063 q 0.18164,0.89649 0.615234,1.29493 0.439453,0.39257 1.066406,0.39257 0.744141,0 1.253907,-0.51562 0.515625,-0.51563 0.515625,-1.27734 0,-0.72657 -0.47461,-1.19532 -0.474609,-0.47461 -1.207031,-0.47461 -0.298828,0 -0.744141,0.11719 l 0.117188,-0.92578 q 0.105469,0.0117 0.169922,0.0117 0.673828,0 1.21289,-0.35156 0.539063,-0.35157 0.539063,-1.08399 0,-0.58008 -0.392578,-0.96094 -0.392578,-0.38086 -1.013672,-0.38086 -0.615235,0 -1.025391,0.38672 -0.410156,0.38672 -0.527344,1.16016 L 69.25,102.30156 q 0.193359,-1.06055 0.878906,-1.64063 0.685547,-0.58593 1.705078,-0.58593 0.703125,0 1.294922,0.30468 0.591797,0.29883 0.902344,0.82032 0.316406,0.52148 0.316406,1.10742 0,0.55664 -0.298828,1.01367 -0.298828,0.45703 -0.884766,0.72656 0.761719,0.17578 1.183594,0.73243 0.421875,0.55078 0.421875,1.38281 0,1.125 -0.820312,1.91015 -0.820313,0.7793 -2.074219,0.7793 -1.130859,0 -1.880859,-0.67383 -0.744141,-0.67383 -0.84961,-1.74609 z"
             style="font-size:12px;font-family:Arial;text-anchor:end;fill:#444444;stroke:none;stroke-width:0"
             id="path3697" />
          <path
             d="m 75.818359,104.46367 q 0,-1.52344 0.310547,-2.44922 0.316406,-0.93164 0.931641,-1.43555 0.621094,-0.5039 1.558594,-0.5039 0.691406,0 1.21289,0.28125 0.521485,0.27539 0.861328,0.80273 0.339844,0.52149 0.533203,1.27735 0.19336,0.75 0.19336,2.02734 0,1.51172 -0.310547,2.44336 -0.310547,0.92578 -0.931641,1.43555 -0.615234,0.5039 -1.558593,0.5039 -1.242188,0 -1.951172,-0.89062 -0.84961,-1.07227 -0.84961,-3.49219 z m 1.083985,0 q 0,2.11523 0.492187,2.81836 0.498047,0.69726 1.22461,0.69726 0.726562,0 1.21875,-0.70312 0.498046,-0.70313 0.498046,-2.8125 0,-2.12109 -0.498046,-2.81836 -0.492188,-0.69727 -1.230469,-0.69727 -0.726563,0 -1.160156,0.61524 -0.544922,0.78515 -0.544922,2.90039 z"
             style="font-size:12px;font-family:Arial;text-anchor:end;fill:#444444;stroke:none;stroke-width:0"
             id="path3699" />
        </g>
      </g>
      <g
         id="g157">
        <g
           style="font-size:12px;font-family:Arial;text-anchor:end;fill:#444444;stroke:none;stroke-width:0"
           id="text159">
          <path
             d="m 72.519531,62.700001 0,-2.056641 -3.726562,0 0,-0.966797 3.919922,-5.566406 0.861328,0 0,5.566406 1.160156,0 0,0.966797 -1.160156,0 0,2.056641 -1.054688,0 z m 0,-3.023438 0,-3.873047 -2.689453,3.873047 2.689453,0 z"
             style="font-size:12px;font-family:Arial;text-anchor:end;fill:#444444;stroke:none;stroke-width:0"
             id="path3702" />
          <path
             d="m 75.818359,58.463673 q 0,-1.523438 0.310547,-2.449219 0.316406,-0.931641 0.931641,-1.435547 0.621094,-0.503906 1.558594,-0.503906 0.691406,0 1.21289,0.28125 0.521485,0.27539 0.861328,0.802734 0.339844,0.521485 0.533203,1.277344 0.19336,0.75 0.19336,2.027344 0,1.511718 -0.310547,2.443359 -0.310547,0.925781 -0.931641,1.435547 -0.615234,0.503906 -1.558593,0.503906 -1.242188,0 -1.951172,-0.890625 -0.84961,-1.072265 -0.84961,-3.492187 z m 1.083985,0 q 0,2.115234 0.492187,2.818359 0.498047,0.697266 1.22461,0.697266 0.726562,0 1.21875,-0.703125 0.498046,-0.703125 0.498046,-2.8125 0,-2.121094 -0.498046,-2.81836 -0.492188,-0.697265 -1.230469,-0.697265 -0.726563,0 -1.160156,0.615234 -0.544922,0.785156 -0.544922,2.900391 z"
             style="font-size:12px;font-family:Arial;text-anchor:end;fill:#444444;stroke:none;stroke-width:0"
             id="path3704" />
        </g>
      </g>
    </g>
    <g
       id="g161">
      <g
         id="g163">
        <g
           id="g165">
          <path
             style="fill:#ffffff;fill-opacity:0;stroke:none;stroke-width:0"
             d="m 115.5,217.5 12,0 0,14 -12,0 z"
             id="rect167" />
          <g
             id="g169">
            <g
               style="font-size:12px;font-family:Arial;text-anchor:middle;fill:#3366cc;stroke:#ffffff;stroke-width:3"
               id="text171">
              <path
                 d="m 118.1582,223.96367 q 0,-1.52344 0.31055,-2.44922 0.31641,-0.93164 0.93164,-1.43555 0.62109,-0.5039 1.55859,-0.5039 0.69141,0 1.2129,0.28125 0.52148,0.27539 0.86132,0.80273 0.33985,0.52149 0.53321,1.27735 0.19336,0.75 0.19336,2.02734 0,1.51172 -0.31055,2.44336 -0.31055,0.92578 -0.93164,1.43555 -0.61524,0.5039 -1.5586,0.5039 -1.24218,0 -1.95117,-0.89062 -0.84961,-1.07227 -0.84961,-3.49219 z m 1.08399,0 q 0,2.11523 0.49219,2.81836 0.49804,0.69726 1.2246,0.69726 0.72657,0 1.21875,-0.70312 0.49805,-0.70313 0.49805,-2.8125 0,-2.12109 -0.49805,-2.81836 -0.49218,-0.69727 -1.23046,-0.69727 -0.72657,0 -1.16016,0.61524 -0.54492,0.78515 -0.54492,2.90039 z"
                 style="font-size:12px;font-family:Arial;text-anchor:middle;fill:#3366cc;stroke:#ffffff;stroke-width:3"
                 id="path3708" />
            </g>
            <g
               style="font-size:12px;font-family:Arial;text-anchor:middle;fill:#3366cc;stroke:none;stroke-width:0"
               id="text173">
              <path
                 d="m 118.1582,223.96367 q 0,-1.52344 0.31055,-2.44922 0.31641,-0.93164 0.93164,-1.43555 0.62109,-0.5039 1.55859,-0.5039 0.69141,0 1.2129,0.28125 0.52148,0.27539 0.86132,0.80273 0.33985,0.52149 0.53321,1.27735 0.19336,0.75 0.19336,2.02734 0,1.51172 -0.31055,2.44336 -0.31055,0.92578 -0.93164,1.43555 -0.61524,0.5039 -1.5586,0.5039 -1.24218,0 -1.95117,-0.89062 -0.84961,-1.07227 -0.84961,-3.49219 z m 1.08399,0 q 0,2.11523 0.49219,2.81836 0.49804,0.69726 1.2246,0.69726 0.72657,0 1.21875,-0.70312 0.49805,-0.70313 0.49805,-2.8125 0,-2.12109 -0.49805,-2.81836 -0.49218,-0.69727 -1.23046,-0.69727 -0.72657,0 -1.16016,0.61524 -0.54492,0.78515 -0.54492,2.90039 z"
                 style="font-size:12px;font-family:Arial;text-anchor:middle;fill:#3366cc;stroke:none;stroke-width:0"
                 id="path3711" />
            </g>
          </g>
          <path
             style="fill:#ffffff;fill-opacity:0;stroke:none;stroke-width:0"
             d="m 118,218 6,0 0,12 -6,0 z"
             id="rect175" />
        </g>
      </g>
      <g
         id="g177">
        <g
           id="g179">
          <g
             style="font-size:12px;font-family:Arial;text-anchor:middle;fill:#ffffff;stroke:none;stroke-width:0"
             id="text181">
            <path
               d="m 192.82422,105.93242 1.05469,-0.14063 q 0.18164,0.89649 0.61523,1.29493 0.43945,0.39257 1.06641,0.39257 0.74414,0 1.2539,-0.51562 0.51563,-0.51563 0.51563,-1.27734 0,-0.72657 -0.47461,-1.19532 -0.47461,-0.47461 -1.20703,-0.47461 -0.29883,0 -0.74414,0.11719 l 0.11718,-0.92578 q 0.10547,0.0117 0.16993,0.0117 0.67382,0 1.21289,-0.35156 0.53906,-0.35157 0.53906,-1.08399 0,-0.58008 -0.39258,-0.96094 -0.39258,-0.38086 -1.01367,-0.38086 -0.61524,0 -1.02539,0.38672 -0.41016,0.38672 -0.52735,1.16016 l -1.05468,-0.1875 q 0.19336,-1.06055 0.8789,-1.64063 0.68555,-0.585933 1.70508,-0.585933 0.70313,0 1.29492,0.304687 0.5918,0.298826 0.90235,0.820316 0.3164,0.52148 0.3164,1.10742 0,0.55664 -0.29882,1.01367 -0.29883,0.45703 -0.88477,0.72656 0.76172,0.17578 1.18359,0.73243 0.42188,0.55078 0.42188,1.38281 0,1.125 -0.82031,1.91015 -0.82032,0.7793 -2.07422,0.7793 -1.13086,0 -1.88086,-0.67383 -0.74414,-0.67383 -0.84961,-1.74609 z"
               style="font-size:12px;font-family:Arial;text-anchor:middle;fill:#ffffff;stroke:none;stroke-width:0"
               id="path3715" />
            <path
               d="m 205.04102,107.18633 0,1.01367 -5.67774,0 q -0.0117,-0.38086 0.12305,-0.73242 0.21679,-0.58008 0.6914,-1.14258 0.48047,-0.5625 1.38282,-1.30078 1.40039,-1.14844 1.89257,-1.81641 0.49219,-0.67383 0.49219,-1.27148 0,-0.62696 -0.45117,-1.05469 -0.44531,-0.4336 -1.16602,-0.4336 -0.76171,0 -1.21875,0.45704 -0.45703,0.45703 -0.46289,1.26562 l -1.08398,-0.11133 q 0.11133,-1.21289 0.83789,-1.8457 0.72656,-0.638673 1.95117,-0.638673 1.23633,0 1.95703,0.685543 0.72071,0.68555 0.72071,1.69922 0,0.51563 -0.21094,1.01367 -0.21094,0.49805 -0.70313,1.04883 -0.48632,0.55078 -1.62304,1.51172 -0.94922,0.79688 -1.21875,1.08399 -0.26953,0.28125 -0.44532,0.56836 l 4.2129,0 z"
               style="font-size:12px;font-family:Arial;text-anchor:middle;fill:#ffffff;stroke:none;stroke-width:0"
               id="path3717" />
          </g>
          <path
             style="fill:#ffffff;fill-opacity:0;stroke:none;stroke-width:0"
             d="m 192,98 14,0 0,12 -14,0 z"
             id="rect183" />
        </g>
      </g>
      <g
         id="g185">
        <g
           id="g187">
          <g
             style="font-size:12px;font-family:Arial;text-anchor:middle;fill:#ffffff;stroke:none;stroke-width:0"
             id="text189">
            <path
               d="m 274.19922,71.199997 0,-2.056641 -3.72656,0 0,-0.966797 3.91992,-5.566406 0.86133,0 0,5.566406 1.16015,0 0,0.966797 -1.16015,0 0,2.056641 -1.05469,0 z m 0,-3.023438 0,-3.873046 -2.68945,3.873046 2.68945,0 z"
               style="font-size:12px;font-family:Arial;text-anchor:middle;fill:#ffffff;stroke:none;stroke-width:0"
               id="path3721" />
            <path
               d="m 277.49805,66.963669 q 0,-1.523438 0.31054,-2.449219 0.31641,-0.931641 0.93164,-1.435547 0.6211,-0.503906 1.5586,-0.503906 0.6914,0 1.21289,0.28125 0.52148,0.275391 0.86133,0.802734 0.33984,0.521485 0.5332,1.277344 0.19336,0.75 0.19336,2.027344 0,1.511719 -0.31055,2.443359 -0.31054,0.925781 -0.93164,1.435547 -0.61523,0.503906 -1.55859,0.503906 -1.24219,0 -1.95117,-0.890625 -0.84961,-1.072265 -0.84961,-3.492187 z m 1.08398,0 q 0,2.115234 0.49219,2.818359 0.49805,0.697266 1.22461,0.697266 0.72656,0 1.21875,-0.703125 0.49804,-0.703125 0.49804,-2.8125 0,-2.121094 -0.49804,-2.81836 -0.49219,-0.697265 -1.23047,-0.697265 -0.72656,0 -1.16016,0.615234 -0.54492,0.785156 -0.54492,2.900391 z"
               style="font-size:12px;font-family:Arial;text-anchor:middle;fill:#ffffff;stroke:none;stroke-width:0"
               id="path3723" />
          </g>
          <path
             style="fill:#ffffff;fill-opacity:0;stroke:none;stroke-width:0"
             d="m 270,61 14,0 0,12 -14,0 z"
             id="rect191" />
        </g>
      </g>
      <g
         id="g193">
        <g
           id="g195">
          <g
             style="font-size:12px;font-family:Arial;text-anchor:middle;fill:#ffffff;stroke:none;stroke-width:0"
             id="text197">
            <path
               d="m 354.36133,134.18633 0,1.01367 -5.67774,0 q -0.0117,-0.38086 0.12305,-0.73242 0.2168,-0.58008 0.69141,-1.14258 0.48047,-0.5625 1.38281,-1.30078 1.40039,-1.14844 1.89258,-1.81641 0.49218,-0.67383 0.49218,-1.27148 0,-0.62696 -0.45117,-1.05469 -0.44531,-0.4336 -1.16601,-0.4336 -0.76172,0 -1.21875,0.45704 -0.45703,0.45703 -0.46289,1.26562 l -1.08399,-0.11133 q 0.11133,-1.21289 0.83789,-1.8457 0.72657,-0.63867 1.95117,-0.63867 1.23633,0 1.95704,0.68554 0.7207,0.68555 0.7207,1.69922 0,0.51563 -0.21094,1.01367 -0.21094,0.49805 -0.70312,1.04883 -0.48633,0.55078 -1.62305,1.51172 -0.94922,0.79688 -1.21875,1.08399 -0.26953,0.28125 -0.44531,0.56836 l 4.21289,0 z"
               style="font-size:12px;font-family:Arial;text-anchor:middle;fill:#ffffff;stroke:none;stroke-width:0"
               id="path3727" />
            <path
               d="m 360.9707,128.71367 -1.04883,0.082 q -0.14062,-0.62109 -0.39843,-0.90234 -0.42774,-0.45118 -1.05469,-0.45118 -0.50391,0 -0.88477,0.28125 -0.49804,0.36329 -0.78515,1.06055 -0.28711,0.69727 -0.29883,1.98633 0.38086,-0.58008 0.93164,-0.86133 0.55078,-0.28125 1.1543,-0.28125 1.05468,0 1.79297,0.7793 0.74414,0.77344 0.74414,2.0039 0,0.8086 -0.35157,1.50586 -0.3457,0.69141 -0.95507,1.06055 -0.60938,0.36914 -1.38282,0.36914 -1.31836,0 -2.15039,-0.9668 -0.83203,-0.97265 -0.83203,-3.19921 0,-2.49024 0.91992,-3.6211 0.80274,-0.98437 2.16211,-0.98437 1.01367,0 1.65821,0.56836 0.65039,0.56836 0.77929,1.57031 z m -4.30664,3.70312 q 0,0.54493 0.22852,1.04297 0.23437,0.49805 0.65039,0.76172 0.41601,0.25781 0.87305,0.25781 0.66796,0 1.14843,-0.53906 0.48047,-0.53906 0.48047,-1.46484 0,-0.89063 -0.47461,-1.40039 -0.47461,-0.51563 -1.19531,-0.51563 -0.71484,0 -1.21289,0.51563 -0.49805,0.50976 -0.49805,1.34179 z"
               style="font-size:12px;font-family:Arial;text-anchor:middle;fill:#ffffff;stroke:none;stroke-width:0"
               id="path3729" />
          </g>
          <path
             style="fill:#ffffff;fill-opacity:0;stroke:none;stroke-width:0"
             d="m 348,125 14,0 0,12 -14,0 z"
             id="rect199" />
        </g>
      </g>
      <g
         id="g201">
        <g
           id="g203">
          <path
             style="fill:#ffffff;fill-opacity:0;stroke:none;stroke-width:0"
             d="m 140.5,217.5 12,0 0,14 -12,0 z"
             id="rect205" />
          <g
             id="g207">
            <g
               style="font-size:12px;font-family:Arial;text-anchor:middle;fill:#dc3912;stroke:#ffffff;stroke-width:3"
               id="text209">
              <path
                 d="m 143.1582,223.96367 q 0,-1.52344 0.31055,-2.44922 0.31641,-0.93164 0.93164,-1.43555 0.62109,-0.5039 1.55859,-0.5039 0.69141,0 1.21289,0.28125 0.52149,0.27539 0.86133,0.80273 0.33985,0.52149 0.53321,1.27735 0.19336,0.75 0.19336,2.02734 0,1.51172 -0.31055,2.44336 -0.31055,0.92578 -0.93164,1.43555 -0.61524,0.5039 -1.5586,0.5039 -1.24218,0 -1.95117,-0.89062 -0.84961,-1.07227 -0.84961,-3.49219 z m 1.08399,0 q 0,2.11523 0.49218,2.81836 0.49805,0.69726 1.22461,0.69726 0.72657,0 1.21875,-0.70312 0.49805,-0.70313 0.49805,-2.8125 0,-2.12109 -0.49805,-2.81836 -0.49218,-0.69727 -1.23046,-0.69727 -0.72657,0 -1.16016,0.61524 -0.54492,0.78515 -0.54492,2.90039 z"
                 style="font-size:12px;font-family:Arial;text-anchor:middle;fill:#dc3912;stroke:#ffffff;stroke-width:3"
                 id="path3734" />
            </g>
            <g
               style="font-size:12px;font-family:Arial;text-anchor:middle;fill:#dc3912;stroke:none;stroke-width:0"
               id="text211">
              <path
                 d="m 143.1582,223.96367 q 0,-1.52344 0.31055,-2.44922 0.31641,-0.93164 0.93164,-1.43555 0.62109,-0.5039 1.55859,-0.5039 0.69141,0 1.21289,0.28125 0.52149,0.27539 0.86133,0.80273 0.33985,0.52149 0.53321,1.27735 0.19336,0.75 0.19336,2.02734 0,1.51172 -0.31055,2.44336 -0.31055,0.92578 -0.93164,1.43555 -0.61524,0.5039 -1.5586,0.5039 -1.24218,0 -1.95117,-0.89062 -0.84961,-1.07227 -0.84961,-3.49219 z m 1.08399,0 q 0,2.11523 0.49218,2.81836 0.49805,0.69726 1.22461,0.69726 0.72657,0 1.21875,-0.70312 0.49805,-0.70313 0.49805,-2.8125 0,-2.12109 -0.49805,-2.81836 -0.49218,-0.69727 -1.23046,-0.69727 -0.72657,0 -1.16016,0.61524 -0.54492,0.78515 -0.54492,2.90039 z"
                 style="font-size:12px;font-family:Arial;text-anchor:middle;fill:#dc3912;stroke:none;stroke-width:0"
                 id="path3737" />
            </g>
          </g>
          <path
             style="fill:#ffffff;fill-opacity:0;stroke:none;stroke-width:0"
             d="m 143,218 6,0 0,12 -6,0 z"
             id="rect213" />
        </g>
      </g>
      <g
         id="g215">
        <g
           id="g217">
          <path
             style="fill:#ffffff;fill-opacity:0;stroke:none;stroke-width:0"
             d="m 213.5,216.5 22,0 0,14 -22,0 z"
             id="rect219" />
          <g
             id="g221">
            <g
               style="font-size:12px;font-family:Arial;text-anchor:middle;fill:#dc3912;stroke:#ffffff;stroke-width:3"
               id="text223">
              <path
                 d="m 216.1543,223.72768 q 0,-1.52344 0.31054,-2.44922 0.31641,-0.93164 0.93164,-1.43555 0.6211,-0.50391 1.5586,-0.50391 0.6914,0 1.21289,0.28125 0.52148,0.2754 0.86133,0.80274 0.33984,0.52148 0.5332,1.27734 0.19336,0.75 0.19336,2.02735 0,1.51172 -0.31055,2.44336 -0.31054,0.92578 -0.93164,1.43554 -0.61523,0.50391 -1.55859,0.50391 -1.24219,0 -1.95117,-0.89063 -0.84961,-1.07226 -0.84961,-3.49218 z m 1.08398,0 q 0,2.11523 0.49219,2.81836 0.49805,0.69726 1.22461,0.69726 0.72656,0 1.21875,-0.70312 0.49804,-0.70313 0.49804,-2.8125 0,-2.1211 -0.49804,-2.81836 -0.49219,-0.69727 -1.23047,-0.69727 -0.72656,0 -1.16016,0.61524 -0.54492,0.78515 -0.54492,2.90039 z"
                 style="font-size:12px;font-family:Arial;text-anchor:middle;fill:#dc3912;stroke:#ffffff;stroke-width:3"
                 id="path3742" />
              <path
                 d="m 223.42578,227.964 0,-1.20117 1.20117,0 0,1.20117 -1.20117,0 z"
                 style="font-size:12px;font-family:Arial;text-anchor:middle;fill:#dc3912;stroke:#ffffff;stroke-width:3"
                 id="path3744" />
              <path
                 d="m 231.70508,226.95033 0,1.01367 -5.67774,0 q -0.0117,-0.38085 0.12305,-0.73242 0.2168,-0.58008 0.69141,-1.14258 0.48047,-0.5625 1.38281,-1.30078 1.40039,-1.14843 1.89258,-1.8164 0.49218,-0.67383 0.49218,-1.27149 0,-0.62695 -0.45117,-1.05468 -0.44531,-0.4336 -1.16601,-0.4336 -0.76172,0 -1.21875,0.45703 -0.45703,0.45703 -0.46289,1.26563 l -1.08399,-0.11133 q 0.11133,-1.21289 0.83789,-1.8457 0.72657,-0.63868 1.95117,-0.63868 1.23633,0 1.95704,0.68555 0.7207,0.68555 0.7207,1.69922 0,0.51563 -0.21094,1.01367 -0.21094,0.49805 -0.70312,1.04883 -0.48633,0.55078 -1.62305,1.51172 -0.94922,0.79687 -1.21875,1.08398 -0.26953,0.28125 -0.44531,0.56836 l 4.21289,0 z"
                 style="font-size:12px;font-family:Arial;text-anchor:middle;fill:#dc3912;stroke:#ffffff;stroke-width:3"
                 id="path3746" />
            </g>
            <g
               style="font-size:12px;font-family:Arial;text-anchor:middle;fill:#dc3912;stroke:none;stroke-width:0"
               id="text225">
              <path
                 d="m 216.1543,223.72768 q 0,-1.52344 0.31054,-2.44922 0.31641,-0.93164 0.93164,-1.43555 0.6211,-0.50391 1.5586,-0.50391 0.6914,0 1.21289,0.28125 0.52148,0.2754 0.86133,0.80274 0.33984,0.52148 0.5332,1.27734 0.19336,0.75 0.19336,2.02735 0,1.51172 -0.31055,2.44336 -0.31054,0.92578 -0.93164,1.43554 -0.61523,0.50391 -1.55859,0.50391 -1.24219,0 -1.95117,-0.89063 -0.84961,-1.07226 -0.84961,-3.49218 z m 1.08398,0 q 0,2.11523 0.49219,2.81836 0.49805,0.69726 1.22461,0.69726 0.72656,0 1.21875,-0.70312 0.49804,-0.70313 0.49804,-2.8125 0,-2.1211 -0.49804,-2.81836 -0.49219,-0.69727 -1.23047,-0.69727 -0.72656,0 -1.16016,0.61524 -0.54492,0.78515 -0.54492,2.90039 z"
                 style="font-size:12px;font-family:Arial;text-anchor:middle;fill:#dc3912;stroke:none;stroke-width:0"
                 id="path3749" />
              <path
                 d="m 223.42578,227.964 0,-1.20117 1.20117,0 0,1.20117 -1.20117,0 z"
                 style="font-size:12px;font-family:Arial;text-anchor:middle;fill:#dc3912;stroke:none;stroke-width:0"
                 id="path3751" />
              <path
                 d="m 231.70508,226.95033 0,1.01367 -5.67774,0 q -0.0117,-0.38085 0.12305,-0.73242 0.2168,-0.58008 0.69141,-1.14258 0.48047,-0.5625 1.38281,-1.30078 1.40039,-1.14843 1.89258,-1.8164 0.49218,-0.67383 0.49218,-1.27149 0,-0.62695 -0.45117,-1.05468 -0.44531,-0.4336 -1.16601,-0.4336 -0.76172,0 -1.21875,0.45703 -0.45703,0.45703 -0.46289,1.26563 l -1.08399,-0.11133 q 0.11133,-1.21289 0.83789,-1.8457 0.72657,-0.63868 1.95117,-0.63868 1.23633,0 1.95704,0.68555 0.7207,0.68555 0.7207,1.69922 0,0.51563 -0.21094,1.01367 -0.21094,0.49805 -0.70312,1.04883 -0.48633,0.55078 -1.62305,1.51172 -0.94922,0.79687 -1.21875,1.08398 -0.26953,0.28125 -0.44531,0.56836 l 4.21289,0 z"
                 style="font-size:12px;font-family:Arial;text-anchor:middle;fill:#dc3912;stroke:none;stroke-width:0"
                 id="path3753" />
            </g>
          </g>
          <path
             style="fill:#ffffff;fill-opacity:0;stroke:none;stroke-width:0"
             d="m 216,217.76401 16,0 0,12 -16,0 z"
             id="rect227" />
        </g>
      </g>
      <g
         id="g229">
        <g
           id="g231">
          <path
             style="fill:#ffffff;fill-opacity:0;stroke:none;stroke-width:0"
             d="m 287.5,217.5 30,0 0,14 -30,0 z"
             id="rect233" />
          <g
             id="g235">
            <g
               style="font-size:12px;font-family:Arial;text-anchor:middle;fill:#dc3912;stroke:#ffffff;stroke-width:3"
               id="text237">
              <path
                 d="m 290.81445,224.39008 q 0,-1.52344 0.31055,-2.44922 0.31641,-0.93164 0.93164,-1.43555 0.62109,-0.50391 1.55859,-0.50391 0.69141,0 1.21289,0.28125 0.52149,0.27539 0.86133,0.80274 0.33985,0.52148 0.53321,1.27734 0.19336,0.75 0.19336,2.02735 0,1.51171 -0.31055,2.44336 -0.31055,0.92578 -0.93164,1.43554 -0.61524,0.50391 -1.5586,0.50391 -1.24218,0 -1.95117,-0.89063 -0.84961,-1.07226 -0.84961,-3.49218 z m 1.08399,0 q 0,2.11523 0.49218,2.81836 0.49805,0.69726 1.22461,0.69726 0.72657,0 1.21875,-0.70312 0.49805,-0.70313 0.49805,-2.8125 0,-2.1211 -0.49805,-2.81836 -0.49218,-0.69727 -1.23046,-0.69727 -0.72657,0 -1.16016,0.61524 -0.54492,0.78515 -0.54492,2.90039 z"
                 style="font-size:12px;font-family:Arial;text-anchor:middle;fill:#dc3912;stroke:#ffffff;stroke-width:3"
                 id="path3758" />
              <path
                 d="m 298.08594,228.6264 0,-1.20117 1.20117,0 0,1.20117 -1.20117,0 z"
                 style="font-size:12px;font-family:Arial;text-anchor:middle;fill:#dc3912;stroke:#ffffff;stroke-width:3"
                 id="path3760" />
              <path
                 d="m 300.82227,224.39008 q 0,-1.52344 0.31054,-2.44922 0.31641,-0.93164 0.93164,-1.43555 0.6211,-0.50391 1.5586,-0.50391 0.6914,0 1.21289,0.28125 0.52148,0.27539 0.86133,0.80274 0.33984,0.52148 0.5332,1.27734 0.19336,0.75 0.19336,2.02735 0,1.51171 -0.31055,2.44336 -0.31055,0.92578 -0.93164,1.43554 -0.61523,0.50391 -1.55859,0.50391 -1.24219,0 -1.95118,-0.89063 -0.8496,-1.07226 -0.8496,-3.49218 z m 1.08398,0 q 0,2.11523 0.49219,2.81836 0.49804,0.69726 1.22461,0.69726 0.72656,0 1.21875,-0.70312 0.49804,-0.70313 0.49804,-2.8125 0,-2.1211 -0.49804,-2.81836 -0.49219,-0.69727 -1.23047,-0.69727 -0.72656,0 -1.16016,0.61524 -0.54492,0.78515 -0.54492,2.90039 z"
                 style="font-size:12px;font-family:Arial;text-anchor:middle;fill:#dc3912;stroke:#ffffff;stroke-width:3"
                 id="path3762" />
              <path
                 d="m 313.04492,227.61273 0,1.01367 -5.67773,0 q -0.0117,-0.38086 0.12304,-0.73242 0.2168,-0.58008 0.69141,-1.14258 0.48047,-0.5625 1.38281,-1.30078 1.40039,-1.14843 1.89258,-1.8164 0.49219,-0.67383 0.49219,-1.27149 0,-0.62695 -0.45117,-1.05469 -0.44532,-0.43359 -1.16602,-0.43359 -0.76172,0 -1.21875,0.45703 -0.45703,0.45703 -0.46289,1.26563 l -1.08398,-0.11133 q 0.11132,-1.21289 0.83789,-1.8457 0.72656,-0.63868 1.95117,-0.63868 1.23633,0 1.95703,0.68555 0.7207,0.68555 0.7207,1.69922 0,0.51562 -0.21093,1.01367 -0.21094,0.49805 -0.70313,1.04883 -0.48633,0.55078 -1.62305,1.51172 -0.94922,0.79687 -1.21875,1.08398 -0.26953,0.28125 -0.44531,0.56836 l 4.21289,0 z"
                 style="font-size:12px;font-family:Arial;text-anchor:middle;fill:#dc3912;stroke:#ffffff;stroke-width:3"
                 id="path3764" />
            </g>
            <g
               style="font-size:12px;font-family:Arial;text-anchor:middle;fill:#dc3912;stroke:none;stroke-width:0"
               id="text239">
              <path
                 d="m 290.81445,224.39008 q 0,-1.52344 0.31055,-2.44922 0.31641,-0.93164 0.93164,-1.43555 0.62109,-0.50391 1.55859,-0.50391 0.69141,0 1.21289,0.28125 0.52149,0.27539 0.86133,0.80274 0.33985,0.52148 0.53321,1.27734 0.19336,0.75 0.19336,2.02735 0,1.51171 -0.31055,2.44336 -0.31055,0.92578 -0.93164,1.43554 -0.61524,0.50391 -1.5586,0.50391 -1.24218,0 -1.95117,-0.89063 -0.84961,-1.07226 -0.84961,-3.49218 z m 1.08399,0 q 0,2.11523 0.49218,2.81836 0.49805,0.69726 1.22461,0.69726 0.72657,0 1.21875,-0.70312 0.49805,-0.70313 0.49805,-2.8125 0,-2.1211 -0.49805,-2.81836 -0.49218,-0.69727 -1.23046,-0.69727 -0.72657,0 -1.16016,0.61524 -0.54492,0.78515 -0.54492,2.90039 z"
                 style="font-size:12px;font-family:Arial;text-anchor:middle;fill:#dc3912;stroke:none;stroke-width:0"
                 id="path3767" />
              <path
                 d="m 298.08594,228.6264 0,-1.20117 1.20117,0 0,1.20117 -1.20117,0 z"
                 style="font-size:12px;font-family:Arial;text-anchor:middle;fill:#dc3912;stroke:none;stroke-width:0"
                 id="path3769" />
              <path
                 d="m 300.82227,224.39008 q 0,-1.52344 0.31054,-2.44922 0.31641,-0.93164 0.93164,-1.43555 0.6211,-0.50391 1.5586,-0.50391 0.6914,0 1.21289,0.28125 0.52148,0.27539 0.86133,0.80274 0.33984,0.52148 0.5332,1.27734 0.19336,0.75 0.19336,2.02735 0,1.51171 -0.31055,2.44336 -0.31055,0.92578 -0.93164,1.43554 -0.61523,0.50391 -1.55859,0.50391 -1.24219,0 -1.95118,-0.89063 -0.8496,-1.07226 -0.8496,-3.49218 z m 1.08398,0 q 0,2.11523 0.49219,2.81836 0.49804,0.69726 1.22461,0.69726 0.72656,0 1.21875,-0.70312 0.49804,-0.70313 0.49804,-2.8125 0,-2.1211 -0.49804,-2.81836 -0.49219,-0.69727 -1.23047,-0.69727 -0.72656,0 -1.16016,0.61524 -0.54492,0.78515 -0.54492,2.90039 z"
                 style="font-size:12px;font-family:Arial;text-anchor:middle;fill:#dc3912;stroke:none;stroke-width:0"
                 id="path3771" />
              <path
                 d="m 313.04492,227.61273 0,1.01367 -5.67773,0 q -0.0117,-0.38086 0.12304,-0.73242 0.2168,-0.58008 0.69141,-1.14258 0.48047,-0.5625 1.38281,-1.30078 1.40039,-1.14843 1.89258,-1.8164 0.49219,-0.67383 0.49219,-1.27149 0,-0.62695 -0.45117,-1.05469 -0.44532,-0.43359 -1.16602,-0.43359 -0.76172,0 -1.21875,0.45703 -0.45703,0.45703 -0.46289,1.26563 l -1.08398,-0.11133 q 0.11132,-1.21289 0.83789,-1.8457 0.72656,-0.63868 1.95117,-0.63868 1.23633,0 1.95703,0.68555 0.7207,0.68555 0.7207,1.69922 0,0.51562 -0.21093,1.01367 -0.21094,0.49805 -0.70313,1.04883 -0.48633,0.55078 -1.62305,1.51172 -0.94922,0.79687 -1.21875,1.08398 -0.26953,0.28125 -0.44531,0.56836 l 4.21289,0 z"
                 style="font-size:12px;font-family:Arial;text-anchor:middle;fill:#dc3912;stroke:none;stroke-width:0"
                 id="path3773" />
            </g>
          </g>
          <path
             style="fill:#ffffff;fill-opacity:0;stroke:none;stroke-width:0"
             d="m 290,218.42641 24,0 0,12 -24,0 z"
             id="rect241" />
        </g>
      </g>
      <g
         id="g243">
        <g
           id="g245">
          <g
             style="font-size:12px;font-family:Arial;text-anchor:middle;fill:#ffffff;stroke:none;stroke-width:0"
             id="text247">
            <path
               d="m 379.36133,139.18633 0,1.01367 -5.67774,0 q -0.0117,-0.38086 0.12305,-0.73242 0.2168,-0.58008 0.69141,-1.14258 0.48047,-0.5625 1.38281,-1.30078 1.40039,-1.14844 1.89258,-1.81641 0.49218,-0.67383 0.49218,-1.27148 0,-0.62696 -0.45117,-1.05469 -0.44531,-0.4336 -1.16601,-0.4336 -0.76172,0 -1.21875,0.45704 -0.45703,0.45703 -0.46289,1.26562 l -1.08399,-0.11133 q 0.11133,-1.21289 0.83789,-1.8457 0.72657,-0.63867 1.95117,-0.63867 1.23633,0 1.95704,0.68554 0.7207,0.68555 0.7207,1.69922 0,0.51563 -0.21094,1.01367 -0.21094,0.49805 -0.70312,1.04883 -0.48633,0.55078 -1.62305,1.51172 -0.94922,0.79688 -1.21875,1.08399 -0.26953,0.28125 -0.44531,0.56836 l 4.21289,0 z"
               style="font-size:12px;font-family:Arial;text-anchor:middle;fill:#ffffff;stroke:none;stroke-width:0"
               id="path3777" />
            <path
               d="m 380.49805,137.95 1.10742,-0.0937 q 0.12305,0.80859 0.56836,1.21875 0.45117,0.40429 1.08398,0.40429 0.76172,0 1.28906,-0.57421 0.52735,-0.57422 0.52735,-1.52344 0,-0.90235 -0.50977,-1.42383 -0.5039,-0.52148 -1.32422,-0.52148 -0.50976,0 -0.91992,0.23437 -0.41015,0.22852 -0.64453,0.59766 l -0.99023,-0.12891 0.83203,-4.41211 4.27148,0 0,1.00781 -3.42773,0 -0.46289,2.3086 q 0.77343,-0.53907 1.62304,-0.53907 1.125,0 1.89844,0.7793 0.77344,0.7793 0.77344,2.00391 0,1.16601 -0.67969,2.01562 -0.82617,1.04297 -2.25586,1.04297 -1.17187,0 -1.91601,-0.65625 -0.73828,-0.65625 -0.84375,-1.74023 z"
               style="font-size:12px;font-family:Arial;text-anchor:middle;fill:#ffffff;stroke:none;stroke-width:0"
               id="path3779" />
          </g>
          <path
             style="fill:#ffffff;fill-opacity:0;stroke:none;stroke-width:0"
             d="m 373,130 14,0 0,12 -14,0 z"
             id="rect249" />
        </g>
      </g>
    </g>
  </g>
  <g
     id="g251">
    <g
       id="g253">
      <g
         transform="rotate(-90 38.2 150.5)"
         style="font-style:italic;font-size:12px;font-family:Arial;text-anchor:middle;fill:#222222;stroke:none;stroke-width:0"
         id="text255">
        <path
           d="m 13.948048,150.5 1.58789,-7.61133 -2.818359,0 0.205078,-0.97851 6.761719,0 -0.205078,0.97851 -2.794922,0 -1.587891,7.61133 -1.148437,0 z"
           style="font-style:italic;font-size:12px;font-family:Arial;text-anchor:middle;fill:#222222;stroke:none;stroke-width:0"
           id="path3592" />
        <path
           d="m 20.369923,143.11133 0.251953,-1.20117 1.054687,0 -0.251953,1.20117 -1.054687,0 z m -1.546875,7.38867 1.300781,-6.22266 1.060547,0 -1.300781,6.22266 -1.060547,0 z"
           style="font-style:italic;font-size:12px;font-family:Arial;text-anchor:middle;fill:#222222;stroke:none;stroke-width:0"
           id="path3594" />
        <path
           d="m 21.530079,150.5 1.300781,-6.22266 1.060547,0 -0.216797,1.02539 q 0.591797,-0.66211 1.054688,-0.91406 0.46875,-0.25195 1.013672,-0.25195 0.580078,0 0.966796,0.31055 0.392579,0.30468 0.515625,0.85546 0.47461,-0.58593 0.996094,-0.87304 0.527344,-0.29297 1.107422,-0.29297 0.779297,0 1.166016,0.36914 0.392578,0.36914 0.392578,1.03711 0,0.28711 -0.134766,0.94922 l -0.83789,4.00781 -1.060547,0 0.855468,-4.11328 q 0.111329,-0.50391 0.111329,-0.7207 0,-0.30469 -0.19336,-0.48047 -0.193359,-0.17578 -0.544922,-0.17578 -0.474609,0 -0.966797,0.2871 -0.492187,0.28711 -0.767578,0.75586 -0.269531,0.46289 -0.474609,1.42969 l -0.632813,3.01758 -1.060546,0 0.878906,-4.20117 q 0.09375,-0.42774 0.09375,-0.60938 0,-0.30468 -0.19336,-0.49218 -0.1875,-0.1875 -0.492187,-0.1875 -0.451172,0 -0.949219,0.2871 -0.492187,0.28711 -0.802734,0.80274 -0.310547,0.50976 -0.509766,1.45898 l -0.615234,2.94141 -1.060547,0 z"
           style="font-style:italic;font-size:12px;font-family:Arial;text-anchor:middle;fill:#222222;stroke:none;stroke-width:0"
           id="path3596" />
        <path
           d="m 36.114063,148.38477 1.03125,0.10546 q -0.222656,0.76758 -1.02539,1.45899 -0.796875,0.6914 -1.904297,0.6914 -0.691406,0 -1.271485,-0.3164 -0.574218,-0.32227 -0.878906,-0.93164 -0.298828,-0.60938 -0.298828,-1.38867 0,-1.01954 0.46875,-1.97461 0.474609,-0.96094 1.224609,-1.42383 0.75,-0.46875 1.623047,-0.46875 1.113282,0 1.775391,0.6914 0.667969,0.69141 0.667969,1.88672 0,0.45703 -0.08203,0.9375 l -4.582031,0 q -0.02344,0.18164 -0.02344,0.32813 0,0.87305 0.398437,1.33594 0.404297,0.45703 0.984375,0.45703 0.544922,0 1.072266,-0.35742 0.527344,-0.35743 0.820312,-1.03125 z m -3.082031,-1.54102 3.492188,0 q 0.0059,-0.16406 0.0059,-0.23438 0,-0.79687 -0.398438,-1.21875 -0.398437,-0.42773 -1.02539,-0.42773 -0.679688,0 -1.242188,0.46875 -0.55664,0.46875 -0.832031,1.41211 z"
           style="font-style:italic;font-size:12px;font-family:Arial;text-anchor:middle;fill:#222222;stroke:none;stroke-width:0"
           id="path3598" />
        <path
           d="m 43.08672,153.02539 q -0.919922,-2.01562 -0.919922,-4.14258 0,-1.41797 0.36914,-2.63672 0.375,-1.22461 1.136719,-2.41992 0.503906,-0.79687 1.611328,-2.0625 l 0.826172,0 q -0.685547,0.73242 -1.453125,2.0625 -0.761719,1.33008 -1.107422,2.61328 -0.345703,1.28321 -0.345703,2.57813 0,1.93359 0.673828,4.00781 l -0.791015,0 z"
           style="font-style:italic;font-size:12px;font-family:Arial;text-anchor:middle;fill:#222222;stroke:none;stroke-width:0"
           id="path3600" />
        <path
           d="m 45.553516,150.5 1.300782,-6.22266 1.060547,0 -0.216797,1.02539 q 0.591797,-0.66211 1.054687,-0.91406 0.46875,-0.25195 1.013672,-0.25195 0.580078,0 0.966797,0.31055 0.392578,0.30468 0.515625,0.85546 0.474609,-0.58593 0.996094,-0.87304 0.527343,-0.29297 1.107422,-0.29297 0.779296,0 1.166015,0.36914 0.392578,0.36914 0.392578,1.03711 0,0.28711 -0.134765,0.94922 l -0.837891,4.00781 -1.060547,0 0.855469,-4.11328 q 0.111328,-0.50391 0.111328,-0.7207 0,-0.30469 -0.193359,-0.48047 -0.19336,-0.17578 -0.544922,-0.17578 -0.47461,0 -0.966797,0.2871 -0.492188,0.28711 -0.767578,0.75586 -0.269531,0.46289 -0.47461,1.42969 l -0.632812,3.01758 -1.060547,0 0.878906,-4.20117 q 0.09375,-0.42774 0.09375,-0.60938 0,-0.30468 -0.193359,-0.49218 -0.1875,-0.1875 -0.492188,-0.1875 -0.451171,0 -0.949218,0.2871 -0.492188,0.28711 -0.802735,0.80274 -0.310547,0.50976 -0.509765,1.45898 l -0.615235,2.94141 -1.060547,0 z"
           style="font-style:italic;font-size:12px;font-family:Arial;text-anchor:middle;fill:#222222;stroke:none;stroke-width:0"
           id="path3602" />
        <path
           d="m 55.666798,148.37305 1.060547,-0.0645 q 0,0.45703 0.140625,0.7793 0.140625,0.32227 0.515625,0.52734 0.380859,0.20508 0.884765,0.20508 0.703125,0 1.054688,-0.28125 0.351562,-0.28125 0.351562,-0.66211 0,-0.27539 -0.210937,-0.52148 -0.216797,-0.2461 -1.060547,-0.60352 -0.837891,-0.36328 -1.072266,-0.50976 -0.392578,-0.24024 -0.591797,-0.5625 -0.199218,-0.32813 -0.199218,-0.75 0,-0.73828 0.585937,-1.26563 0.585938,-0.52734 1.640625,-0.52734 1.171875,0 1.78125,0.54492 0.615234,0.53906 0.638672,1.42383 l -1.037109,0.0703 q -0.02344,-0.5625 -0.398438,-0.89062 -0.375,-0.32813 -1.060547,-0.32813 -0.550781,0 -0.855469,0.25195 -0.304687,0.25196 -0.304687,0.54493 0,0.29296 0.263672,0.51562 0.175781,0.15234 0.908203,0.46875 1.21875,0.52734 1.535156,0.83203 0.503906,0.48633 0.503906,1.1836 0,0.46289 -0.287109,0.9082 -0.28125,0.44531 -0.867187,0.71484 -0.580079,0.26367 -1.371094,0.26367 -1.078125,0 -1.833985,-0.5332 -0.755859,-0.5332 -0.714843,-1.73437 z"
           style="font-style:italic;font-size:12px;font-family:Arial;text-anchor:middle;fill:#222222;stroke:none;stroke-width:0"
           id="path3604" />
        <path
           d="m 63.547657,141.76367 q 0.925781,2.01563 0.925781,4.13672 0,1.42383 -0.375,2.64258 -0.36914,1.21875 -1.130859,2.41992 -0.509766,0.79688 -1.611328,2.0625 l -0.826172,0 q 0.679687,-0.73828 1.447266,-2.06836 0.767578,-1.33008 1.107421,-2.60742 0.345704,-1.2832 0.345704,-2.58399 0,-1.93359 -0.673829,-4.00195 l 0.791016,0 z"
           style="font-style:italic;font-size:12px;font-family:Arial;text-anchor:middle;fill:#222222;stroke:none;stroke-width:0"
           id="path3606" />
      </g>
      <path
         d="M27.999999999999993,243L28.000000000000004,58L40.00000000000001,58L39.99999999999999,243Z"
         stroke="none"
         stroke-width="0"
         fill-opacity="0"
         fill="#ffffff"
         id="path257" />
    </g>
  </g>
  <g
     id="g259" />
</svg>
