<?xml version="1.0" encoding="UTF-8" standalone="no"?>
<svg
   xmlns:dc="http://purl.org/dc/elements/1.1/"
   xmlns:cc="http://creativecommons.org/ns#"
   xmlns:rdf="http://www.w3.org/1999/02/22-rdf-syntax-ns#"
   xmlns:svg="http://www.w3.org/2000/svg"
   xmlns="http://www.w3.org/2000/svg"
   xmlns:sodipodi="http://sodipodi.sourceforge.net/DTD/sodipodi-0.dtd"
   xmlns:inkscape="http://www.inkscape.org/namespaces/inkscape"
   width="500"
   height="300"
   aria-label="A chart."
   style="overflow: hidden;"
   id="svg2"
   version="1.1"
   inkscape:version="0.91 r13725"
   sodipodi:docname="my_location.svg">
  <metadata
     id="metadata232">
    <rdf:RDF>
      <cc:Work
         rdf:about="">
        <dc:format>image/svg+xml</dc:format>
        <dc:type
           rdf:resource="http://purl.org/dc/dcmitype/StillImage" />
      </cc:Work>
    </rdf:RDF>
  </metadata>
  <sodipodi:namedview
     pagecolor="#ffffff"
     bordercolor="#666666"
     borderopacity="1"
     objecttolerance="10"
     gridtolerance="10"
     guidetolerance="10"
     inkscape:pageopacity="0"
     inkscape:pageshadow="2"
     inkscape:window-width="640"
     inkscape:window-height="480"
     id="namedview230"
     showgrid="false"
     inkscape:zoom="0.606"
     inkscape:cx="221.12211"
     inkscape:cy="150"
     inkscape:window-x="0"
     inkscape:window-y="0"
     inkscape:window-maximized="0"
     inkscape:current-layer="svg2" />
  <defs
     id="_ABSTRACT_RENDERER_ID_0">
    <clipPath
       id="_ABSTRACT_RENDERER_ID_1">
      <rect
         x="94"
         y="58"
         width="313"
         height="185"
         id="rect6" />
    </clipPath>
  </defs>
  <path
     style="fill:#ffffff;stroke:none;stroke-width:0"
     d="m 0,0 500,0 0,300 -500,0 z"
     id="rect8" />
  <g
     id="g10">
    <g
       style="font-weight:bold;font-size:12px;font-family:Arial;text-anchor:start;fill:#000000;stroke:none;stroke-width:0"
       id="text12">
      <path
         d="m 94.849609,37.200001 0,-8.589844 2.595703,0 1.558594,5.859375 1.541014,-5.859375 2.60156,0 0,8.589844 -1.61132,0 0,-6.761719 -1.705082,6.761719 -1.669922,0 -1.699219,-6.761719 0,6.761719 -1.611328,0 z"
         style="font-weight:bold;font-size:12px;font-family:Arial;text-anchor:start;fill:#000000;stroke:none;stroke-width:0"
         id="path3772" />
      <path
         d="m 104.06641,30.977345 1.75195,0 1.48828,4.417968 1.45313,-4.417968 1.70507,0 -2.19726,5.988281 -0.39258,1.083984 q -0.2168,0.544922 -0.41602,0.832031 -0.19335,0.28711 -0.45117,0.462891 -0.25195,0.181641 -0.62695,0.28125 -0.36914,0.09961 -0.83789,0.09961 -0.47461,0 -0.93164,-0.09961 l -0.14649,-1.289062 q 0.38672,0.07617 0.69727,0.07617 0.57422,0 0.84961,-0.339843 0.27539,-0.333985 0.42187,-0.855469 l -2.36718,-6.240234 z"
         style="font-weight:bold;font-size:12px;font-family:Arial;text-anchor:start;fill:#000000;stroke:none;stroke-width:0"
         id="path3774" />
      <path
         d="m 114.91211,37.200001 0,-8.519531 1.73437,0 0,7.072265 4.3125,0 0,1.447266 -6.04687,0 z"
         style="font-weight:bold;font-size:12px;font-family:Arial;text-anchor:start;fill:#000000;stroke:none;stroke-width:0"
         id="path3776" />
      <path
         d="m 121.80859,34.000782 q 0,-0.820312 0.4043,-1.587891 0.4043,-0.767578 1.14258,-1.171875 0.74414,-0.404296 1.6582,-0.404296 1.41211,0 2.31446,0.919921 0.90234,0.914063 0.90234,2.314454 0,1.412109 -0.91406,2.34375 -0.90821,0.925781 -2.29102,0.925781 -0.85547,0 -1.63476,-0.386719 -0.77344,-0.386719 -1.17774,-1.130859 -0.4043,-0.75 -0.4043,-1.822266 z m 1.6875,0.08789 q 0,0.925781 0.43946,1.417968 0.43945,0.492188 1.08398,0.492188 0.64453,0 1.07813,-0.492188 0.43945,-0.492187 0.43945,-1.429687 0,-0.914063 -0.43945,-1.40625 -0.4336,-0.492188 -1.07813,-0.492188 -0.64453,0 -1.08398,0.492188 -0.43946,0.492187 -0.43946,1.417969 z"
         style="font-weight:bold;font-size:12px;font-family:Arial;text-anchor:start;fill:#000000;stroke:none;stroke-width:0"
         id="path3778" />
      <path
         d="m 134.92773,32.817188 -1.62304,0.292969 q -0.082,-0.486328 -0.375,-0.732422 -0.28711,-0.246094 -0.75,-0.246094 -0.61524,0 -0.98438,0.427735 -0.36328,0.421875 -0.36328,1.417969 0,1.107421 0.36914,1.564453 0.375,0.457031 1.00195,0.457031 0.46875,0 0.76758,-0.263672 0.29883,-0.269531 0.42188,-0.919922 l 1.61719,0.275391 q -0.25196,1.113281 -0.9668,1.68164 -0.71485,0.56836 -1.91602,0.56836 -1.36523,0 -2.17968,-0.861328 -0.8086,-0.861328 -0.8086,-2.384766 0,-1.541016 0.81445,-2.396484 0.81446,-0.861328 2.20313,-0.861328 1.13672,0 1.80469,0.492187 0.67383,0.486328 0.96679,1.488281 z"
         style="font-weight:bold;font-size:12px;font-family:Arial;text-anchor:start;fill:#000000;stroke:none;stroke-width:0"
         id="path3780" />
      <path
         d="m 137.38867,32.875782 -1.49414,-0.269531 q 0.25195,-0.902344 0.86719,-1.335938 0.61523,-0.433593 1.82812,-0.433593 1.10157,0 1.64063,0.263671 0.53906,0.257813 0.75586,0.66211 0.22265,0.398437 0.22265,1.470703 l -0.0176,1.921875 q 0,0.820312 0.0762,1.212891 0.082,0.386718 0.29883,0.832031 l -1.62891,0 q -0.0644,-0.164063 -0.1582,-0.486328 -0.041,-0.146485 -0.0586,-0.19336 -0.42187,0.410157 -0.90234,0.615235 -0.48047,0.205078 -1.02539,0.205078 -0.96094,0 -1.51758,-0.521485 -0.55078,-0.521484 -0.55078,-1.318359 0,-0.527344 0.25195,-0.9375 0.25196,-0.416016 0.70313,-0.632812 0.45703,-0.222657 1.3125,-0.386719 1.15429,-0.216797 1.59961,-0.404297 l 0,-0.164063 q 0,-0.474609 -0.23438,-0.673828 -0.23437,-0.205078 -0.88476,-0.205078 -0.43946,0 -0.68555,0.175781 -0.24609,0.169922 -0.39844,0.603516 z m 2.20313,1.335938 q -0.31641,0.105468 -1.00196,0.251953 -0.68554,0.146484 -0.89648,0.287109 -0.32227,0.228516 -0.32227,0.580078 0,0.345703 0.25782,0.597656 0.25781,0.251954 0.65625,0.251954 0.44531,0 0.84961,-0.292969 0.29882,-0.222656 0.39257,-0.544922 0.0645,-0.210938 0.0645,-0.802734 l 0,-0.328125 z"
         style="font-weight:bold;font-size:12px;font-family:Arial;text-anchor:start;fill:#000000;stroke:none;stroke-width:0"
         id="path3782" />
      <path
         d="m 145.69141,30.977345 0,1.3125 -1.125,0 0,2.507812 q 0,0.761719 0.0293,0.890625 0.0352,0.123047 0.14649,0.205078 0.11718,0.08203 0.28125,0.08203 0.22851,0 0.66211,-0.158203 l 0.14062,1.277344 q -0.57422,0.246094 -1.30078,0.246094 -0.44531,0 -0.80273,-0.146485 -0.35743,-0.152343 -0.52735,-0.386718 -0.16406,-0.240235 -0.22851,-0.644532 -0.0527,-0.287109 -0.0527,-1.160156 l 0,-2.71289 -0.75586,0 0,-1.3125 0.75586,0 0,-1.236329 1.65235,-0.960937 0,2.197266 1.125,0 z"
         style="font-weight:bold;font-size:12px;font-family:Arial;text-anchor:start;fill:#000000;stroke:none;stroke-width:0"
         id="path3784" />
      <path
         d="m 146.8457,30.133595 0,-1.523438 1.64649,0 0,1.523438 -1.64649,0 z m 0,7.066406 0,-6.222656 1.64649,0 0,6.222656 -1.64649,0 z"
         style="font-weight:bold;font-size:12px;font-family:Arial;text-anchor:start;fill:#000000;stroke:none;stroke-width:0"
         id="path3786" />
      <path
         d="m 149.79297,34.000782 q 0,-0.820312 0.4043,-1.587891 0.40429,-0.767578 1.14257,-1.171875 0.74414,-0.404296 1.65821,-0.404296 1.41211,0 2.31445,0.919921 0.90234,0.914063 0.90234,2.314454 0,1.412109 -0.91406,2.34375 -0.9082,0.925781 -2.29101,0.925781 -0.85547,0 -1.63477,-0.386719 -0.77344,-0.386719 -1.17773,-1.130859 -0.4043,-0.75 -0.4043,-1.822266 z m 1.6875,0.08789 q 0,0.925781 0.43945,1.417968 0.43945,0.492188 1.08399,0.492188 0.64453,0 1.07812,-0.492188 0.43945,-0.492187 0.43945,-1.429687 0,-0.914063 -0.43945,-1.40625 -0.43359,-0.492188 -1.07812,-0.492188 -0.64454,0 -1.08399,0.492188 -0.43945,0.492187 -0.43945,1.417969 z"
         style="font-weight:bold;font-size:12px;font-family:Arial;text-anchor:start;fill:#000000;stroke:none;stroke-width:0"
         id="path3788" />
      <path
         d="m 163.14648,37.200001 -1.64648,0 0,-3.175781 q 0,-1.007813 -0.10547,-1.300782 -0.10547,-0.298828 -0.3457,-0.46289 -0.23438,-0.164063 -0.56836,-0.164063 -0.42774,0 -0.76758,0.234375 -0.33984,0.234375 -0.46875,0.621094 -0.12305,0.386719 -0.12305,1.429687 l 0,2.81836 -1.64648,0 0,-6.222656 1.5293,0 0,0.914062 q 0.81445,-1.054687 2.05078,-1.054687 0.54492,0 0.99609,0.199218 0.45117,0.19336 0.67969,0.498047 0.23437,0.304688 0.32226,0.691406 0.0937,0.386719 0.0937,1.107422 l 0,3.867188 z"
         style="font-weight:bold;font-size:12px;font-family:Arial;text-anchor:start;fill:#000000;stroke:none;stroke-width:0"
         id="path3790" />
      <path
         d="m 168.16797,37.200001 0,-8.589844 3.65039,0 q 1.37695,0 1.99805,0.234375 0.62695,0.228516 1.00195,0.820313 0.375,0.591796 0.375,1.353515 0,0.966797 -0.56836,1.59961 -0.56836,0.626953 -1.69922,0.791015 0.5625,0.328125 0.92578,0.720703 0.36914,0.392578 0.99024,1.394532 l 1.04882,1.675781 -2.07421,0 -1.25391,-1.869141 q -0.66797,-1.001953 -0.91406,-1.259765 -0.2461,-0.263672 -0.52149,-0.357422 -0.27539,-0.09961 -0.87304,-0.09961 l -0.35157,0 0,3.585938 -1.73437,0 z m 1.73437,-4.957031 1.28321,0 q 1.24804,0 1.55859,-0.105469 0.31055,-0.105469 0.48633,-0.363281 0.17578,-0.257813 0.17578,-0.644532 0,-0.433593 -0.23438,-0.697265 -0.22851,-0.269532 -0.65039,-0.339844 -0.21093,-0.0293 -1.26562,-0.0293 l -1.35352,0 0,2.179688 z"
         style="font-weight:bold;font-size:12px;font-family:Arial;text-anchor:start;fill:#000000;stroke:none;stroke-width:0"
         id="path3792" />
      <path
         d="m 180.42578,35.219532 1.64063,0.275391 q -0.31641,0.902343 -1.00196,1.376953 -0.67968,0.46875 -1.70508,0.46875 -1.62304,0 -2.40234,-1.060547 -0.61523,-0.849609 -0.61523,-2.144531 0,-1.546875 0.80859,-2.419922 0.80859,-0.878906 2.04492,-0.878906 1.38867,0 2.19141,0.919921 0.80273,0.914063 0.76758,2.806641 l -4.125,0 q 0.0176,0.732422 0.39843,1.142578 0.38086,0.404297 0.94922,0.404297 0.38672,0 0.65039,-0.210937 0.26368,-0.210938 0.39844,-0.679688 z m 0.0937,-1.664062 q -0.0176,-0.714844 -0.36914,-1.083985 -0.35156,-0.375 -0.85547,-0.375 -0.53906,0 -0.89062,0.392578 -0.35157,0.392578 -0.34571,1.066407 l 2.46094,0 z"
         style="font-weight:bold;font-size:12px;font-family:Arial;text-anchor:start;fill:#000000;stroke:none;stroke-width:0"
         id="path3794" />
      <path
         d="m 188.92773,32.817188 -1.62304,0.292969 q -0.082,-0.486328 -0.375,-0.732422 -0.28711,-0.246094 -0.75,-0.246094 -0.61524,0 -0.98438,0.427735 -0.36328,0.421875 -0.36328,1.417969 0,1.107421 0.36914,1.564453 0.375,0.457031 1.00195,0.457031 0.46875,0 0.76758,-0.263672 0.29883,-0.269531 0.42188,-0.919922 l 1.61719,0.275391 q -0.25196,1.113281 -0.9668,1.68164 -0.71485,0.56836 -1.91602,0.56836 -1.36523,0 -2.17968,-0.861328 -0.8086,-0.861328 -0.8086,-2.384766 0,-1.541016 0.81445,-2.396484 0.81446,-0.861328 2.20313,-0.861328 1.13672,0 1.80469,0.492187 0.67383,0.486328 0.96679,1.488281 z"
         style="font-weight:bold;font-size:12px;font-family:Arial;text-anchor:start;fill:#000000;stroke:none;stroke-width:0"
         id="path3796" />
      <path
         d="m 193.76172,35.219532 1.64062,0.275391 q -0.3164,0.902343 -1.00195,1.376953 -0.67969,0.46875 -1.70508,0.46875 -1.62304,0 -2.40234,-1.060547 -0.61524,-0.849609 -0.61524,-2.144531 0,-1.546875 0.8086,-2.419922 0.80859,-0.878906 2.04492,-0.878906 1.38867,0 2.19141,0.919921 0.80273,0.914063 0.76757,2.806641 l -4.125,0 q 0.0176,0.732422 0.39844,1.142578 0.38086,0.404297 0.94922,0.404297 0.38672,0 0.65039,-0.210937 0.26367,-0.210938 0.39844,-0.679688 z m 0.0937,-1.664062 q -0.0176,-0.714844 -0.36914,-1.083985 -0.35156,-0.375 -0.85547,-0.375 -0.53906,0 -0.89063,0.392578 -0.35156,0.392578 -0.3457,1.066407 l 2.46094,0 z"
         style="font-weight:bold;font-size:12px;font-family:Arial;text-anchor:start;fill:#000000;stroke:none;stroke-width:0"
         id="path3798" />
      <path
         d="m 202.49805,37.200001 -1.64649,0 0,-3.175781 q 0,-1.007813 -0.10547,-1.300782 -0.10547,-0.298828 -0.3457,-0.46289 -0.23437,-0.164063 -0.56836,-0.164063 -0.42773,0 -0.76758,0.234375 -0.33984,0.234375 -0.46875,0.621094 -0.12304,0.386719 -0.12304,1.429687 l 0,2.81836 -1.64649,0 0,-6.222656 1.5293,0 0,0.914062 q 0.81445,-1.054687 2.05078,-1.054687 0.54492,0 0.99609,0.199218 0.45118,0.19336 0.67969,0.498047 0.23438,0.304688 0.32227,0.691406 0.0937,0.386719 0.0937,1.107422 l 0,3.867188 z"
         style="font-weight:bold;font-size:12px;font-family:Arial;text-anchor:start;fill:#000000;stroke:none;stroke-width:0"
         id="path3800" />
      <path
         d="m 209.59961,32.817188 -1.62305,0.292969 q -0.082,-0.486328 -0.375,-0.732422 -0.28711,-0.246094 -0.75,-0.246094 -0.61523,0 -0.98437,0.427735 -0.36328,0.421875 -0.36328,1.417969 0,1.107421 0.36914,1.564453 0.375,0.457031 1.00195,0.457031 0.46875,0 0.76758,-0.263672 0.29883,-0.269531 0.42187,-0.919922 l 1.61719,0.275391 q -0.25195,1.113281 -0.9668,1.68164 -0.71484,0.56836 -1.91601,0.56836 -1.36524,0 -2.17969,-0.861328 -0.80859,-0.861328 -0.80859,-2.384766 0,-1.541016 0.81445,-2.396484 0.81445,-0.861328 2.20312,-0.861328 1.13672,0 1.80469,0.492187 0.67383,0.486328 0.9668,1.488281 z"
         style="font-weight:bold;font-size:12px;font-family:Arial;text-anchor:start;fill:#000000;stroke:none;stroke-width:0"
         id="path3802" />
      <path
         d="m 210.05078,30.977345 1.75195,0 1.48829,4.417968 1.45312,-4.417968 1.70508,0 -2.19727,5.988281 -0.39258,1.083984 q -0.21679,0.544922 -0.41601,0.832031 -0.19336,0.28711 -0.45117,0.462891 -0.25196,0.181641 -0.62696,0.28125 -0.36914,0.09961 -0.83789,0.09961 -0.47461,0 -0.93164,-0.09961 l -0.14648,-1.289062 q 0.38672,0.07617 0.69726,0.07617 0.57422,0 0.84961,-0.339843 0.27539,-0.333985 0.42188,-0.855469 l -2.36719,-6.240234 z"
         style="font-weight:bold;font-size:12px;font-family:Arial;text-anchor:start;fill:#000000;stroke:none;stroke-width:0"
         id="path3804" />
    </g>
    <path
       style="fill:#ffffff;fill-opacity:0;stroke:none;stroke-width:0"
       d="m 94,27 313,0 0,12 -313,0 z"
       id="rect14" />
  </g>
  <g
     id="g16">
    <path
       style="fill:#ffffff;fill-opacity:0;stroke:none;stroke-width:0"
       d="m 172,283 157,0 0,12 -157,0 z"
       id="rect18" />
    <g
       id="g20">
      <path
         style="fill:#ffffff;fill-opacity:0;stroke:none;stroke-width:0"
         d="m 172,283 67,0 0,12 -67,0 z"
         id="rect22" />
      <g
         id="g24">
        <g
           style="font-size:12px;font-family:Arial;text-anchor:start;fill:#222222;stroke:none;stroke-width:0"
           id="text26">
          <path
             d="m 201.94922,293.20001 0,-8.58984 6.21094,0 0,1.01367 -5.07422,0 0,2.63086 4.75195,0 0,1.00781 -4.75195,0 0,2.92383 5.27343,0 0,1.01367 -6.41015,0 z"
             style="font-size:12px;font-family:Arial;text-anchor:start;fill:#222222;stroke:none;stroke-width:0"
             id="path3741" />
          <path
             d="m 211.51172,293.20001 -2.36719,-6.22265 1.11328,0 1.33594,3.72656 q 0.2168,0.60351 0.39844,1.2539 0.14062,-0.49218 0.39258,-1.18359 l 1.38281,-3.79687 1.08398,0 -2.35547,6.22265 -0.98437,0 z"
             style="font-size:12px;font-family:Arial;text-anchor:start;fill:#222222;stroke:none;stroke-width:0"
             id="path3743" />
          <path
             d="m 219.84375,292.43243 q -0.58594,0.49805 -1.13086,0.70313 -0.53906,0.20508 -1.16016,0.20508 -1.02539,0 -1.57617,-0.49805 -0.55078,-0.50391 -0.55078,-1.2832 0,-0.45703 0.20508,-0.83203 0.21094,-0.38086 0.54492,-0.60938 0.33984,-0.22851 0.76172,-0.3457 0.31055,-0.082 0.9375,-0.15821 1.27734,-0.15234 1.88086,-0.36328 0.006,-0.21679 0.006,-0.27539 0,-0.64453 -0.29883,-0.9082 -0.4043,-0.35742 -1.20117,-0.35742 -0.74414,0 -1.10156,0.26367 -0.35157,0.25781 -0.52149,0.91992 l -1.03125,-0.14062 q 0.14063,-0.66211 0.46289,-1.06641 0.32227,-0.41016 0.93164,-0.62695 0.60938,-0.22266 1.41211,-0.22266 0.79688,0 1.29492,0.1875 0.49805,0.1875 0.73243,0.47461 0.23437,0.28125 0.32812,0.71484 0.0527,0.26954 0.0527,0.97266 l 0,1.40625 q 0,1.4707 0.0644,1.86328 0.0703,0.38672 0.26953,0.74414 l -1.10156,0 q -0.16407,-0.32812 -0.21094,-0.76758 z m -0.0879,-2.35546 q -0.57422,0.23437 -1.72266,0.39843 -0.65039,0.0937 -0.91992,0.21094 -0.26953,0.11719 -0.41601,0.3457 -0.14649,0.22266 -0.14649,0.49805 0,0.42188 0.31641,0.70313 0.32226,0.28125 0.9375,0.28125 0.60937,0 1.08398,-0.26368 0.47461,-0.26953 0.69727,-0.73242 0.16992,-0.35742 0.16992,-1.05469 l 0,-0.38671 z"
             style="font-size:12px;font-family:Arial;text-anchor:start;fill:#222222;stroke:none;stroke-width:0"
             id="path3745" />
          <path
             d="m 226.47656,293.20001 0,-0.78515 q -0.59179,0.92578 -1.74023,0.92578 -0.74414,0 -1.3711,-0.41016 -0.62109,-0.41016 -0.96679,-1.14258 -0.33985,-0.73828 -0.33985,-1.69336 0,-0.93164 0.31055,-1.6875 0.31055,-0.76172 0.93164,-1.16601 0.62109,-0.4043 1.38867,-0.4043 0.5625,0 1.00196,0.24024 0.43945,0.23437 0.71484,0.61523 l 0,-3.08203 1.04883,0 0,8.58984 -0.97852,0 z m -3.33398,-3.10547 q 0,1.19532 0.5039,1.78711 0.50391,0.5918 1.18946,0.5918 0.6914,0 1.17187,-0.5625 0.48633,-0.56836 0.48633,-1.72852 0,-1.27734 -0.49219,-1.875 -0.49218,-0.59765 -1.21289,-0.59765 -0.70312,0 -1.17773,0.57422 -0.46875,0.57422 -0.46875,1.81054 z"
             style="font-size:12px;font-family:Arial;text-anchor:start;fill:#222222;stroke:none;stroke-width:0"
             id="path3747" />
          <path
             d="m 233.35547,291.19611 1.08984,0.13476 q -0.25781,0.95508 -0.95508,1.48242 -0.69726,0.52735 -1.78125,0.52735 -1.36523,0 -2.16796,-0.83789 -0.79688,-0.84375 -0.79688,-2.36133 0,-1.57031 0.80859,-2.4375 0.8086,-0.86719 2.09766,-0.86719 1.24805,0 2.03906,0.84961 0.79102,0.84961 0.79102,2.39063 0,0.0937 -0.006,0.28125 l -4.64063,0 q 0.0586,1.02539 0.58008,1.57031 0.52149,0.54492 1.30078,0.54492 0.58008,0 0.99024,-0.30469 0.41015,-0.30469 0.65039,-0.97265 z m -3.46289,-1.70508 3.47461,0 q -0.0703,-0.78516 -0.39844,-1.17774 -0.50391,-0.60937 -1.30664,-0.60937 -0.72656,0 -1.22461,0.48633 -0.49219,0.48632 -0.54492,1.30078 z"
             style="font-size:12px;font-family:Arial;text-anchor:start;fill:#222222;stroke:none;stroke-width:0"
             id="path3749" />
          <path
             d="m 235.76367,293.20001 0,-6.22265 0.94922,0 0,0.94336 q 0.36328,-0.66211 0.66797,-0.87305 0.31055,-0.21094 0.67969,-0.21094 0.5332,0 1.08398,0.33984 l -0.36328,0.97852 q -0.38672,-0.22852 -0.77344,-0.22852 -0.3457,0 -0.62109,0.21094 -0.27539,0.20508 -0.39258,0.57422 -0.17578,0.5625 -0.17578,1.23047 l 0,3.25781 -1.05469,0 z"
             style="font-size:12px;font-family:Arial;text-anchor:start;fill:#222222;stroke:none;stroke-width:0"
             id="path3751" />
        </g>
      </g>
      <path
         style="fill:#3366cc;stroke:none;stroke-width:0"
         d="m 172,283 24,0 0,12 -24,0 z"
         id="rect28" />
    </g>
    <g
       id="g30">
      <path
         style="fill:#ffffff;fill-opacity:0;stroke:none;stroke-width:0"
         d="m 258,283 71,0 0,12 -71,0 z"
         id="rect32" />
      <g
         id="g34">
        <g
           style="font-size:12px;font-family:Arial;text-anchor:start;fill:#222222;stroke:none;stroke-width:0"
           id="text36">
          <path
             d="m 287.92578,293.20001 0,-8.58984 3.24024,0 q 0.85546,0 1.30664,0.082 0.63281,0.10547 1.06054,0.4043 0.42774,0.29297 0.68555,0.82617 0.26367,0.5332 0.26367,1.17187 0,1.09571 -0.69726,1.85743 -0.69727,0.75585 -2.51954,0.75585 l -2.20312,0 0,3.49219 -1.13672,0 z m 1.13672,-4.50586 2.2207,0 q 1.10157,0 1.56446,-0.41015 0.46289,-0.41016 0.46289,-1.1543 0,-0.53906 -0.27539,-0.91992 -0.26954,-0.38672 -0.71485,-0.50977 -0.28711,-0.0762 -1.06054,-0.0762 l -2.19727,0 0,3.07031 z"
             style="font-size:12px;font-family:Arial;text-anchor:start;fill:#222222;stroke:none;stroke-width:0"
             id="path3756" />
          <path
             d="m 299.86133,293.20001 0,-0.91406 q -0.72656,1.05469 -1.97461,1.05469 -0.55078,0 -1.03125,-0.21094 -0.47461,-0.21094 -0.70899,-0.52734 -0.22851,-0.32227 -0.32226,-0.78516 -0.0645,-0.31055 -0.0645,-0.98438 l 0,-3.85546 1.05468,0 0,3.45117 q 0,0.82617 0.0645,1.11328 0.0996,0.41601 0.42187,0.65625 0.32227,0.23437 0.79688,0.23437 0.47461,0 0.89062,-0.24023 0.41602,-0.24609 0.58594,-0.66211 0.17578,-0.42187 0.17578,-1.21875 l 0,-3.33398 1.05469,0 0,6.22265 -0.94336,0 z"
             style="font-size:12px;font-family:Arial;text-anchor:start;fill:#222222;stroke:none;stroke-width:0"
             id="path3758" />
          <path
             d="m 302.45117,293.20001 0,-6.22265 0.94922,0 0,0.94336 q 0.36328,-0.66211 0.66797,-0.87305 0.31055,-0.21094 0.67969,-0.21094 0.5332,0 1.08398,0.33984 l -0.36328,0.97852 q -0.38672,-0.22852 -0.77344,-0.22852 -0.3457,0 -0.62109,0.21094 -0.27539,0.20508 -0.39258,0.57422 -0.17578,0.5625 -0.17578,1.23047 l 0,3.25781 -1.05469,0 z"
             style="font-size:12px;font-family:Arial;text-anchor:start;fill:#222222;stroke:none;stroke-width:0"
             id="path3760" />
          <path
             d="m 306.02539,291.34259 1.04297,-0.16406 q 0.0879,0.62695 0.48633,0.96094 0.40429,0.33398 1.125,0.33398 0.72656,0 1.07812,-0.29297 0.35156,-0.29883 0.35156,-0.69726 0,-0.35743 -0.31054,-0.5625 -0.2168,-0.14063 -1.07813,-0.35743 -1.16015,-0.29297 -1.61133,-0.5039 -0.44531,-0.2168 -0.67968,-0.5918 -0.22852,-0.38086 -0.22852,-0.83789 0,-0.41602 0.1875,-0.76758 0.19336,-0.35742 0.52149,-0.5918 0.24609,-0.18164 0.66796,-0.30468 0.42774,-0.12891 0.91407,-0.12891 0.73242,0 1.2832,0.21094 0.55664,0.21094 0.82031,0.57422 0.26367,0.35742 0.36328,0.96093 l -1.03125,0.14063 q -0.0703,-0.48047 -0.41015,-0.75 -0.33399,-0.26953 -0.94922,-0.26953 -0.72656,0 -1.03711,0.24023 -0.31055,0.24024 -0.31055,0.5625 0,0.20508 0.12891,0.36914 0.12891,0.16993 0.4043,0.28125 0.1582,0.0586 0.93164,0.26953 1.11914,0.29883 1.55859,0.49219 0.44531,0.1875 0.69727,0.55078 0.25195,0.36328 0.25195,0.90235 0,0.52734 -0.31055,0.99609 -0.30469,0.46289 -0.88476,0.7207 -0.58008,0.25196 -1.3125,0.25196 -1.21289,0 -1.85157,-0.50391 -0.63281,-0.50391 -0.80859,-1.49414 z"
             style="font-size:12px;font-family:Arial;text-anchor:start;fill:#222222;stroke:none;stroke-width:0"
             id="path3762" />
          <path
             d="m 316.52539,293.20001 0,-0.91406 q -0.72656,1.05469 -1.97461,1.05469 -0.55078,0 -1.03125,-0.21094 -0.47461,-0.21094 -0.70898,-0.52734 -0.22852,-0.32227 -0.32227,-0.78516 -0.0644,-0.31055 -0.0644,-0.98438 l 0,-3.85546 1.05469,0 0,3.45117 q 0,0.82617 0.0645,1.11328 0.0996,0.41601 0.42187,0.65625 0.32227,0.23437 0.79688,0.23437 0.47461,0 0.89062,-0.24023 0.41602,-0.24609 0.58594,-0.66211 0.17578,-0.42187 0.17578,-1.21875 l 0,-3.33398 1.05469,0 0,6.22265 -0.94336,0 z"
             style="font-size:12px;font-family:Arial;text-anchor:start;fill:#222222;stroke:none;stroke-width:0"
             id="path3764" />
          <path
             d="m 323.38672,291.19611 1.08984,0.13476 q -0.25781,0.95508 -0.95508,1.48242 -0.69726,0.52735 -1.78125,0.52735 -1.36523,0 -2.16796,-0.83789 -0.79688,-0.84375 -0.79688,-2.36133 0,-1.57031 0.80859,-2.4375 0.8086,-0.86719 2.09766,-0.86719 1.24805,0 2.03906,0.84961 0.79102,0.84961 0.79102,2.39063 0,0.0937 -0.006,0.28125 l -4.64063,0 q 0.0586,1.02539 0.58008,1.57031 0.52149,0.54492 1.30078,0.54492 0.58008,0 0.99024,-0.30469 0.41015,-0.30469 0.65039,-0.97265 z m -3.46289,-1.70508 3.47461,0 q -0.0703,-0.78516 -0.39844,-1.17774 -0.50391,-0.60937 -1.30664,-0.60937 -0.72656,0 -1.22461,0.48633 -0.49219,0.48632 -0.54492,1.30078 z"
             style="font-size:12px;font-family:Arial;text-anchor:start;fill:#222222;stroke:none;stroke-width:0"
             id="path3766" />
          <path
             d="m 325.79492,293.20001 0,-6.22265 0.94922,0 0,0.94336 q 0.36328,-0.66211 0.66797,-0.87305 0.31055,-0.21094 0.67969,-0.21094 0.5332,0 1.08398,0.33984 l -0.36328,0.97852 q -0.38672,-0.22852 -0.77344,-0.22852 -0.3457,0 -0.62109,0.21094 -0.27539,0.20508 -0.39258,0.57422 -0.17578,0.5625 -0.17578,1.23047 l 0,3.25781 -1.05469,0 z"
             style="font-size:12px;font-family:Arial;text-anchor:start;fill:#222222;stroke:none;stroke-width:0"
             id="path3768" />
        </g>
      </g>
      <path
         style="fill:#dc3912;stroke:none;stroke-width:0"
         d="m 258,283 24,0 0,12 -24,0 z"
         id="rect38" />
    </g>
  </g>
  <g
     id="g40">
    <path
       style="fill:#ffffff;fill-opacity:0;stroke:none;stroke-width:0"
       d="m 94,58 313,0 0,185 -313,0 z"
       id="rect42" />
    <g
       clip-path="url(http://localhost:63342/hc-with-streams/results/no-vpn/charts-no-vpn.html?_ijt=u56qd41ronnf9ukpg7bb82cuap#_ABSTRACT_RENDERER_ID_1)"
       id="g44">
      <g
         id="g46">
        <path
           style="fill:#cccccc;stroke:none;stroke-width:0"
           d="m 94,58 1,0 0,185 -1,0 z"
           id="rect48" />
        <path
           style="fill:#cccccc;stroke:none;stroke-width:0"
           d="m 250,58 1,0 0,185 -1,0 z"
           id="rect50" />
        <path
           style="fill:#cccccc;stroke:none;stroke-width:0"
           d="m 406,58 1,0 0,185 -1,0 z"
           id="rect52" />
        <path
           style="fill:#ebebeb;stroke:none;stroke-width:0"
           d="m 172,58 1,0 0,185 -1,0 z"
           id="rect54" />
        <path
           style="fill:#ebebeb;stroke:none;stroke-width:0"
           d="m 328,58 1,0 0,185 -1,0 z"
           id="rect56" />
      </g>
      <g
         id="g58">
        <path
           style="fill:#3366cc;stroke:none;stroke-width:0"
           d="m 94,67 0.5,0 0,14 -0.5,0 z"
           id="rect60" />
        <path
           style="fill:#3366cc;stroke:none;stroke-width:0"
           d="m 95,113 249,0 0,14 -249,0 z"
           id="rect62" />
        <path
           style="fill:#3366cc;stroke:none;stroke-width:0"
           d="m 95,159 311,0 0,14 -311,0 z"
           id="rect64" />
        <path
           style="fill:#3366cc;stroke:none;stroke-width:0"
           d="m 95,205 202,0 0,14 -202,0 z"
           id="rect66" />
        <path
           style="fill:#dc3912;stroke:none;stroke-width:0"
           d="m 94,82 0.5,0 0,14 -0.5,0 z"
           id="rect68" />
        <path
           style="fill:#dc3912;stroke:none;stroke-width:0"
           d="m 94.811996,128 1.248,0 0,14 -1.248,0 z"
           id="rect70" />
        <path
           style="fill:#dc3912;stroke:none;stroke-width:0"
           d="m 94.531197,174 0.5,0 0,14 -0.5,0 z"
           id="rect72" />
        <path
           style="fill:#dc3912;stroke:none;stroke-width:0"
           d="m 95,220 194,0 0,14 -194,0 z"
           id="rect74" />
      </g>
      <g
         id="g76">
        <path
           style="fill:#333333;stroke:none;stroke-width:0"
           d="m 94,58 1,0 0,185 -1,0 z"
           id="rect78" />
      </g>
      <g
         id="g80">
        <path
           style="fill:#999999;stroke:none;stroke-width:0"
           d="m 94.5,74 12,0 0,1 -12,0 z"
           id="rect82" />
        <rect
           x="344"
           y="120"
           width="0"
           height="1"
           stroke="none"
           stroke-width="0"
           fill="#999999"
           id="rect84" />
        <rect
           x="406"
           y="166"
           width="0"
           height="1"
           stroke="none"
           stroke-width="0"
           fill="#999999"
           id="rect86" />
        <rect
           x="297"
           y="212"
           width="0"
           height="1"
           stroke="none"
           stroke-width="0"
           fill="#999999"
           id="rect88" />
        <path
           style="fill:#999999;stroke:none;stroke-width:0"
           d="m 94.5,89 12,0 0,1 -12,0 z"
           id="rect90" />
        <path
           style="fill:#999999;stroke:none;stroke-width:0"
           d="m 96.059998,135 12.000002,0 0,1 -12.000002,0 z"
           id="rect92" />
        <path
           style="fill:#999999;stroke:none;stroke-width:0"
           d="m 95.031197,181 12.000003,0 0,1 -12.000003,0 z"
           id="rect94" />
        <rect
           x="289"
           y="227"
           width="0"
           height="1"
           stroke="none"
           stroke-width="0"
           fill="#999999"
           id="rect96" />
      </g>
    </g>
    <g
       id="g98" />
    <g
       id="g100">
      <g
         id="g102">
        <g
           style="font-size:12px;font-family:Arial;text-anchor:middle;fill:#444444;stroke:none;stroke-width:0"
           id="text104">
          <path
             d="m 91.658203,254.21368 q 0,-1.52343 0.310547,-2.44921 0.316406,-0.93165 0.931641,-1.43555 0.621093,-0.50391 1.558593,-0.50391 0.691407,0 1.212891,0.28125 0.521484,0.27539 0.861328,0.80274 0.339844,0.52148 0.533203,1.27734 0.19336,0.75 0.19336,2.02734 0,1.51172 -0.310547,2.44336 -0.310547,0.92578 -0.931641,1.43555 -0.615234,0.50391 -1.558594,0.50391 -1.242187,0 -1.951172,-0.89063 -0.849609,-1.07226 -0.849609,-3.49219 z m 1.083984,0 q 0,2.11524 0.492188,2.81836 0.498047,0.69727 1.224609,0.69727 0.726563,0 1.21875,-0.70313 0.498047,-0.70312 0.498047,-2.8125 0,-2.12109 -0.498047,-2.81836 -0.492187,-0.69726 -1.230468,-0.69726 -0.726563,0 -1.160157,0.61523 -0.544922,0.78516 -0.544922,2.90039 z"
             style="font-size:12px;font-family:Arial;text-anchor:middle;fill:#444444;stroke:none;stroke-width:0"
             id="path3598" />
        </g>
      </g>
      <g
         id="g106">
        <g
           style="font-size:12px;font-family:Arial;text-anchor:middle;fill:#444444;stroke:none;stroke-width:0"
           id="text108">
          <path
             d="m 249.86133,257.43634 0,1.01367 -5.67774,0 q -0.0117,-0.38086 0.12305,-0.73242 0.2168,-0.58008 0.69141,-1.14258 0.48047,-0.5625 1.38281,-1.30078 1.40039,-1.14844 1.89258,-1.81641 0.49218,-0.67382 0.49218,-1.27148 0,-0.62695 -0.45117,-1.05469 -0.44531,-0.43359 -1.16601,-0.43359 -0.76172,0 -1.21875,0.45703 -0.45703,0.45703 -0.46289,1.26563 l -1.08399,-0.11133 q 0.11133,-1.21289 0.83789,-1.84571 0.72657,-0.63867 1.95117,-0.63867 1.23633,0 1.95704,0.68555 0.7207,0.68555 0.7207,1.69922 0,0.51562 -0.21094,1.01367 -0.21094,0.49805 -0.70312,1.04883 -0.48633,0.55078 -1.62305,1.51172 -0.94922,0.79687 -1.21875,1.08398 -0.26953,0.28125 -0.44531,0.56836 l 4.21289,0 z"
             style="font-size:12px;font-family:Arial;text-anchor:middle;fill:#444444;stroke:none;stroke-width:0"
             id="path3601" />
          <path
             d="m 250.99805,254.21368 q 0,-1.52343 0.31054,-2.44921 0.31641,-0.93165 0.93164,-1.43555 0.6211,-0.50391 1.5586,-0.50391 0.6914,0 1.21289,0.28125 0.52148,0.27539 0.86133,0.80274 0.33984,0.52148 0.5332,1.27734 0.19336,0.75 0.19336,2.02734 0,1.51172 -0.31055,2.44336 -0.31054,0.92578 -0.93164,1.43555 -0.61523,0.50391 -1.55859,0.50391 -1.24219,0 -1.95117,-0.89063 -0.84961,-1.07226 -0.84961,-3.49219 z m 1.08398,0 q 0,2.11524 0.49219,2.81836 0.49805,0.69727 1.22461,0.69727 0.72656,0 1.21875,-0.70313 0.49804,-0.70312 0.49804,-2.8125 0,-2.12109 -0.49804,-2.81836 -0.49219,-0.69726 -1.23047,-0.69726 -0.72656,0 -1.16016,0.61523 -0.54492,0.78516 -0.54492,2.90039 z"
             style="font-size:12px;font-family:Arial;text-anchor:middle;fill:#444444;stroke:none;stroke-width:0"
             id="path3603" />
        </g>
      </g>
      <g
         id="g110">
        <g
           style="font-size:12px;font-family:Arial;text-anchor:middle;fill:#444444;stroke:none;stroke-width:0"
           id="text112">
          <path
             d="m 403.69922,258.45001 0,-2.05664 -3.72656,0 0,-0.9668 3.91992,-5.5664 0.86133,0 0,5.5664 1.16015,0 0,0.9668 -1.16015,0 0,2.05664 -1.05469,0 z m 0,-3.02344 0,-3.87304 -2.68945,3.87304 2.68945,0 z"
             style="font-size:12px;font-family:Arial;text-anchor:middle;fill:#444444;stroke:none;stroke-width:0"
             id="path3606" />
          <path
             d="m 406.99805,254.21368 q 0,-1.52343 0.31054,-2.44921 0.31641,-0.93165 0.93164,-1.43555 0.6211,-0.50391 1.5586,-0.50391 0.6914,0 1.21289,0.28125 0.52148,0.27539 0.86133,0.80274 0.33984,0.52148 0.5332,1.27734 0.19336,0.75 0.19336,2.02734 0,1.51172 -0.31055,2.44336 -0.31054,0.92578 -0.93164,1.43555 -0.61523,0.50391 -1.55859,0.50391 -1.24219,0 -1.95117,-0.89063 -0.84961,-1.07226 -0.84961,-3.49219 z m 1.08398,0 q 0,2.11524 0.49219,2.81836 0.49805,0.69727 1.22461,0.69727 0.72656,0 1.21875,-0.70313 0.49804,-0.70312 0.49804,-2.8125 0,-2.12109 -0.49804,-2.81836 -0.49219,-0.69726 -1.23047,-0.69726 -0.72656,0 -1.16016,0.61523 -0.54492,0.78516 -0.54492,2.90039 z"
             style="font-size:12px;font-family:Arial;text-anchor:middle;fill:#444444;stroke:none;stroke-width:0"
             id="path3608" />
        </g>
      </g>
      <g
         id="g114">
        <g
           style="font-size:12px;font-family:Arial;text-anchor:end;fill:#222222;stroke:none;stroke-width:0"
           id="text116">
          <path
             d="m 40.210937,85.699997 0,-8.589844 1.710938,0 2.033203,6.082031 q 0.28125,0.84961 0.410156,1.271485 0.146485,-0.46875 0.457032,-1.376953 l 2.05664,-5.976563 1.529297,0 0,8.589844 -1.095703,0 0,-7.189453 -2.496094,7.189453 -1.02539,0 -2.484375,-7.3125 0,7.3125 -1.095704,0 z"
             style="font-size:12px;font-family:Arial;text-anchor:end;fill:#222222;stroke:none;stroke-width:0"
             id="path3611" />
          <path
             d="m 49.703125,82.588669 q 0,-1.728516 0.960937,-2.560547 0.802735,-0.691406 1.957032,-0.691406 1.283203,0 2.097656,0.84375 0.814453,0.83789 0.814453,2.320312 0,1.201172 -0.363281,1.892578 -0.357422,0.685547 -1.048828,1.066407 -0.685547,0.380859 -1.5,0.380859 -1.306641,0 -2.115235,-0.837891 -0.802734,-0.83789 -0.802734,-2.414062 z m 1.083984,0 q 0,1.195312 0.521485,1.792969 0.521484,0.591796 1.3125,0.591796 0.785156,0 1.30664,-0.597656 0.521485,-0.597656 0.521485,-1.822265 0,-1.154297 -0.527344,-1.746094 -0.521484,-0.597656 -1.300781,-0.597656 -0.791016,0 -1.3125,0.591796 -0.521485,0.591797 -0.521485,1.78711 z"
             style="font-size:12px;font-family:Arial;text-anchor:end;fill:#222222;stroke:none;stroke-width:0"
             id="path3613" />
          <path
             d="m 60.8125,85.699997 0,-0.785156 q -0.591797,0.925781 -1.740234,0.925781 -0.744141,0 -1.371094,-0.410156 -0.621094,-0.410157 -0.966797,-1.142578 -0.339844,-0.738282 -0.339844,-1.69336 0,-0.93164 0.310547,-1.6875 0.310547,-0.761719 0.931641,-1.166015 0.621093,-0.404297 1.388672,-0.404297 0.5625,0 1.001953,0.240234 0.439453,0.234375 0.714843,0.615234 l 0,-3.082031 1.048829,0 0,8.589844 -0.978516,0 z m -3.333984,-3.105469 q 0,1.195313 0.503906,1.78711 0.503906,0.591796 1.189453,0.591796 0.691406,0 1.171875,-0.5625 0.486328,-0.568359 0.486328,-1.728515 0,-1.277344 -0.492187,-1.875 -0.492188,-0.597656 -1.212891,-0.597656 -0.703125,0 -1.177734,0.574218 -0.46875,0.574219 -0.46875,1.810547 z"
             style="font-size:12px;font-family:Arial;text-anchor:end;fill:#222222;stroke:none;stroke-width:0"
             id="path3615" />
          <path
             d="m 67.691406,83.696091 1.089844,0.134765 q -0.257813,0.955078 -0.955078,1.482422 -0.697266,0.527344 -1.78125,0.527344 -1.365235,0 -2.167969,-0.837891 -0.796875,-0.84375 -0.796875,-2.361328 0,-1.570312 0.808594,-2.4375 0.808594,-0.867187 2.097656,-0.867187 1.248047,0 2.039063,0.849609 0.791015,0.849609 0.791015,2.390625 0,0.09375 -0.0059,0.28125 l -4.640625,0 q 0.05859,1.025391 0.580078,1.570313 0.521484,0.544921 1.300781,0.544921 0.580078,0 0.990235,-0.304687 0.410156,-0.304688 0.65039,-0.972656 z m -3.46289,-1.705078 3.474609,0 q -0.07031,-0.785157 -0.398438,-1.177735 -0.503906,-0.609375 -1.30664,-0.609375 -0.726563,0 -1.22461,0.486328 -0.492187,0.486328 -0.544921,1.300782 z"
             style="font-size:12px;font-family:Arial;text-anchor:end;fill:#222222;stroke:none;stroke-width:0"
             id="path3617" />
          <path
             d="m 70.087891,85.699997 0,-8.589844 1.054687,0 0,8.589844 -1.054687,0 z"
             style="font-size:12px;font-family:Arial;text-anchor:end;fill:#222222;stroke:none;stroke-width:0"
             id="path3619" />
          <path
             d="m 79.791016,85.699997 -1.054688,0 0,-6.720703 q -0.380859,0.363281 -1.001953,0.726562 -0.615234,0.363282 -1.107422,0.544922 l 0,-1.019531 q 0.884766,-0.416016 1.546875,-1.007813 0.662109,-0.591796 0.9375,-1.148437 l 0.679688,0 0,8.625 z"
             style="font-size:12px;font-family:Arial;text-anchor:end;fill:#222222;stroke:none;stroke-width:0"
             id="path3621" />
        </g>
      </g>
      <g
         id="g118">
        <g
           style="font-size:12px;font-family:Arial;text-anchor:end;fill:#222222;stroke:none;stroke-width:0"
           id="text120">
          <path
             d="m 40.210937,131.7 0,-8.58985 1.710938,0 2.033203,6.08203 q 0.28125,0.84961 0.410156,1.27149 0.146485,-0.46875 0.457032,-1.37695 l 2.05664,-5.97657 1.529297,0 0,8.58985 -1.095703,0 0,-7.18946 -2.496094,7.18946 -1.02539,0 -2.484375,-7.3125 0,7.3125 -1.095704,0 z"
             style="font-size:12px;font-family:Arial;text-anchor:end;fill:#222222;stroke:none;stroke-width:0"
             id="path3624" />
          <path
             d="m 49.703125,128.58867 q 0,-1.72852 0.960937,-2.56055 0.802735,-0.6914 1.957032,-0.6914 1.283203,0 2.097656,0.84375 0.814453,0.83789 0.814453,2.32031 0,1.20117 -0.363281,1.89258 -0.357422,0.68554 -1.048828,1.0664 -0.685547,0.38086 -1.5,0.38086 -1.306641,0 -2.115235,-0.83789 -0.802734,-0.83789 -0.802734,-2.41406 z m 1.083984,0 q 0,1.19531 0.521485,1.79297 0.521484,0.59179 1.3125,0.59179 0.785156,0 1.30664,-0.59765 0.521485,-0.59766 0.521485,-1.82227 0,-1.15429 -0.527344,-1.74609 -0.521484,-0.59766 -1.300781,-0.59766 -0.791016,0 -1.3125,0.5918 -0.521485,0.5918 -0.521485,1.78711 z"
             style="font-size:12px;font-family:Arial;text-anchor:end;fill:#222222;stroke:none;stroke-width:0"
             id="path3626" />
          <path
             d="m 60.8125,131.7 0,-0.78516 q -0.591797,0.92578 -1.740234,0.92578 -0.744141,0 -1.371094,-0.41015 -0.621094,-0.41016 -0.966797,-1.14258 -0.339844,-0.73828 -0.339844,-1.69336 0,-0.93164 0.310547,-1.6875 0.310547,-0.76172 0.931641,-1.16602 0.621093,-0.40429 1.388672,-0.40429 0.5625,0 1.001953,0.24023 0.439453,0.23438 0.714843,0.61523 l 0,-3.08203 1.048829,0 0,8.58985 -0.978516,0 z m -3.333984,-3.10547 q 0,1.19531 0.503906,1.78711 0.503906,0.59179 1.189453,0.59179 0.691406,0 1.171875,-0.5625 0.486328,-0.56835 0.486328,-1.72851 0,-1.27734 -0.492187,-1.875 -0.492188,-0.59766 -1.212891,-0.59766 -0.703125,0 -1.177734,0.57422 -0.46875,0.57422 -0.46875,1.81055 z"
             style="font-size:12px;font-family:Arial;text-anchor:end;fill:#222222;stroke:none;stroke-width:0"
             id="path3628" />
          <path
             d="m 67.691406,129.69609 1.089844,0.13477 q -0.257813,0.95507 -0.955078,1.48242 -0.697266,0.52734 -1.78125,0.52734 -1.365235,0 -2.167969,-0.83789 -0.796875,-0.84375 -0.796875,-2.36133 0,-1.57031 0.808594,-2.4375 0.808594,-0.86718 2.097656,-0.86718 1.248047,0 2.039063,0.84961 0.791015,0.8496 0.791015,2.39062 0,0.0937 -0.0059,0.28125 l -4.640625,0 q 0.05859,1.02539 0.580078,1.57031 0.521484,0.54492 1.300781,0.54492 0.580078,0 0.990235,-0.30468 0.410156,-0.30469 0.65039,-0.97266 z m -3.46289,-1.70508 3.474609,0 q -0.07031,-0.78515 -0.398438,-1.17773 -0.503906,-0.60938 -1.30664,-0.60938 -0.726563,0 -1.22461,0.48633 -0.492187,0.48633 -0.544921,1.30078 z"
             style="font-size:12px;font-family:Arial;text-anchor:end;fill:#222222;stroke:none;stroke-width:0"
             id="path3630" />
          <path
             d="m 70.087891,131.7 0,-8.58985 1.054687,0 0,8.58985 -1.054687,0 z"
             style="font-size:12px;font-family:Arial;text-anchor:end;fill:#222222;stroke:none;stroke-width:0"
             id="path3632" />
          <path
             d="m 81.361328,130.68633 0,1.01367 -5.677734,0 q -0.01172,-0.38086 0.123047,-0.73242 0.216796,-0.58008 0.691406,-1.14258 0.480469,-0.5625 1.382812,-1.30078 1.400391,-1.14844 1.892578,-1.81641 0.492188,-0.67383 0.492188,-1.27148 0,-0.62696 -0.451172,-1.05469 -0.445312,-0.4336 -1.166016,-0.4336 -0.761718,0 -1.21875,0.45704 -0.457031,0.45703 -0.46289,1.26562 l -1.083985,-0.11133 q 0.111329,-1.21289 0.837891,-1.8457 0.726563,-0.63867 1.951172,-0.63867 1.236328,0 1.957031,0.68554 0.720703,0.68555 0.720703,1.69922 0,0.51563 -0.210937,1.01367 -0.210938,0.49805 -0.703125,1.04883 -0.486328,0.55078 -1.623047,1.51172 -0.949219,0.79688 -1.21875,1.08399 -0.269531,0.28125 -0.445313,0.56836 l 4.212891,0 z"
             style="font-size:12px;font-family:Arial;text-anchor:end;fill:#222222;stroke:none;stroke-width:0"
             id="path3634" />
        </g>
      </g>
      <g
         id="g122">
        <g
           style="font-size:12px;font-family:Arial;text-anchor:end;fill:#222222;stroke:none;stroke-width:0"
           id="text124">
          <path
             d="m 40.210937,177.7 0,-8.58985 1.710938,0 2.033203,6.08203 q 0.28125,0.84961 0.410156,1.27149 0.146485,-0.46875 0.457032,-1.37695 l 2.05664,-5.97657 1.529297,0 0,8.58985 -1.095703,0 0,-7.18946 -2.496094,7.18946 -1.02539,0 -2.484375,-7.3125 0,7.3125 -1.095704,0 z"
             style="font-size:12px;font-family:Arial;text-anchor:end;fill:#222222;stroke:none;stroke-width:0"
             id="path3637" />
          <path
             d="m 49.703125,174.58867 q 0,-1.72852 0.960937,-2.56055 0.802735,-0.6914 1.957032,-0.6914 1.283203,0 2.097656,0.84375 0.814453,0.83789 0.814453,2.32031 0,1.20117 -0.363281,1.89258 -0.357422,0.68554 -1.048828,1.0664 -0.685547,0.38086 -1.5,0.38086 -1.306641,0 -2.115235,-0.83789 -0.802734,-0.83789 -0.802734,-2.41406 z m 1.083984,0 q 0,1.19531 0.521485,1.79297 0.521484,0.59179 1.3125,0.59179 0.785156,0 1.30664,-0.59765 0.521485,-0.59766 0.521485,-1.82227 0,-1.15429 -0.527344,-1.74609 -0.521484,-0.59766 -1.300781,-0.59766 -0.791016,0 -1.3125,0.5918 -0.521485,0.5918 -0.521485,1.78711 z"
             style="font-size:12px;font-family:Arial;text-anchor:end;fill:#222222;stroke:none;stroke-width:0"
             id="path3639" />
          <path
             d="m 60.8125,177.7 0,-0.78516 q -0.591797,0.92578 -1.740234,0.92578 -0.744141,0 -1.371094,-0.41015 -0.621094,-0.41016 -0.966797,-1.14258 -0.339844,-0.73828 -0.339844,-1.69336 0,-0.93164 0.310547,-1.6875 0.310547,-0.76172 0.931641,-1.16602 0.621093,-0.40429 1.388672,-0.40429 0.5625,0 1.001953,0.24023 0.439453,0.23438 0.714843,0.61523 l 0,-3.08203 1.048829,0 0,8.58985 -0.978516,0 z m -3.333984,-3.10547 q 0,1.19531 0.503906,1.78711 0.503906,0.59179 1.189453,0.59179 0.691406,0 1.171875,-0.5625 0.486328,-0.56835 0.486328,-1.72851 0,-1.27734 -0.492187,-1.875 -0.492188,-0.59766 -1.212891,-0.59766 -0.703125,0 -1.177734,0.57422 -0.46875,0.57422 -0.46875,1.81055 z"
             style="font-size:12px;font-family:Arial;text-anchor:end;fill:#222222;stroke:none;stroke-width:0"
             id="path3641" />
          <path
             d="m 67.691406,175.69609 1.089844,0.13477 q -0.257813,0.95507 -0.955078,1.48242 -0.697266,0.52734 -1.78125,0.52734 -1.365235,0 -2.167969,-0.83789 -0.796875,-0.84375 -0.796875,-2.36133 0,-1.57031 0.808594,-2.4375 0.808594,-0.86718 2.097656,-0.86718 1.248047,0 2.039063,0.84961 0.791015,0.8496 0.791015,2.39062 0,0.0937 -0.0059,0.28125 l -4.640625,0 q 0.05859,1.02539 0.580078,1.57031 0.521484,0.54492 1.300781,0.54492 0.580078,0 0.990235,-0.30468 0.410156,-0.30469 0.65039,-0.97266 z m -3.46289,-1.70508 3.474609,0 q -0.07031,-0.78515 -0.398438,-1.17773 -0.503906,-0.60938 -1.30664,-0.60938 -0.726563,0 -1.22461,0.48633 -0.492187,0.48633 -0.544921,1.30078 z"
             style="font-size:12px;font-family:Arial;text-anchor:end;fill:#222222;stroke:none;stroke-width:0"
             id="path3643" />
          <path
             d="m 70.087891,177.7 0,-8.58985 1.054687,0 0,8.58985 -1.054687,0 z"
             style="font-size:12px;font-family:Arial;text-anchor:end;fill:#222222;stroke:none;stroke-width:0"
             id="path3645" />
          <path
             d="m 75.824219,175.43242 1.054687,-0.14063 q 0.181641,0.89649 0.615235,1.29493 0.439453,0.39257 1.066406,0.39257 0.74414,0 1.253906,-0.51562 0.515625,-0.51563 0.515625,-1.27734 0,-0.72657 -0.474609,-1.19532 -0.47461,-0.47461 -1.207032,-0.47461 -0.298828,0 -0.74414,0.11719 l 0.117187,-0.92578 q 0.105469,0.0117 0.169922,0.0117 0.673828,0 1.212891,-0.35156 0.539062,-0.35157 0.539062,-1.08399 0,-0.58008 -0.392578,-0.96094 -0.392578,-0.38086 -1.013672,-0.38086 -0.615234,0 -1.02539,0.38672 -0.410157,0.38672 -0.527344,1.16016 l -1.054688,-0.1875 q 0.19336,-1.06055 0.878907,-1.64063 0.685547,-0.58593 1.705078,-0.58593 0.703125,0 1.294922,0.30468 0.591797,0.29883 0.902343,0.82032 0.316407,0.52148 0.316407,1.10742 0,0.55664 -0.298828,1.01367 -0.298829,0.45703 -0.884766,0.72656 0.761719,0.17578 1.183594,0.73243 0.421875,0.55078 0.421875,1.38281 0,1.125 -0.820313,1.91015 -0.820312,0.7793 -2.074219,0.7793 -1.130859,0 -1.880859,-0.67383 -0.744141,-0.67383 -0.849609,-1.74609 z"
             style="font-size:12px;font-family:Arial;text-anchor:end;fill:#222222;stroke:none;stroke-width:0"
             id="path3647" />
        </g>
      </g>
      <g
         id="g126">
        <g
           style="font-size:12px;font-family:Arial;text-anchor:end;fill:#222222;stroke:none;stroke-width:0"
           id="text128">
          <path
             d="m 40.210937,223.7 0,-8.58985 1.710938,0 2.033203,6.08203 q 0.28125,0.84961 0.410156,1.27149 0.146485,-0.46875 0.457032,-1.37695 l 2.05664,-5.97657 1.529297,0 0,8.58985 -1.095703,0 0,-7.18946 -2.496094,7.18946 -1.02539,0 -2.484375,-7.3125 0,7.3125 -1.095704,0 z"
             style="font-size:12px;font-family:Arial;text-anchor:end;fill:#222222;stroke:none;stroke-width:0"
             id="path3650" />
          <path
             d="m 49.703125,220.58867 q 0,-1.72852 0.960937,-2.56055 0.802735,-0.6914 1.957032,-0.6914 1.283203,0 2.097656,0.84375 0.814453,0.83789 0.814453,2.32031 0,1.20117 -0.363281,1.89258 -0.357422,0.68554 -1.048828,1.0664 -0.685547,0.38086 -1.5,0.38086 -1.306641,0 -2.115235,-0.83789 -0.802734,-0.83789 -0.802734,-2.41406 z m 1.083984,0 q 0,1.19531 0.521485,1.79297 0.521484,0.59179 1.3125,0.59179 0.785156,0 1.30664,-0.59765 0.521485,-0.59766 0.521485,-1.82227 0,-1.15429 -0.527344,-1.74609 -0.521484,-0.59766 -1.300781,-0.59766 -0.791016,0 -1.3125,0.5918 -0.521485,0.5918 -0.521485,1.78711 z"
             style="font-size:12px;font-family:Arial;text-anchor:end;fill:#222222;stroke:none;stroke-width:0"
             id="path3652" />
          <path
             d="m 60.8125,223.7 0,-0.78516 q -0.591797,0.92578 -1.740234,0.92578 -0.744141,0 -1.371094,-0.41015 -0.621094,-0.41016 -0.966797,-1.14258 -0.339844,-0.73828 -0.339844,-1.69336 0,-0.93164 0.310547,-1.6875 0.310547,-0.76172 0.931641,-1.16602 0.621093,-0.40429 1.388672,-0.40429 0.5625,0 1.001953,0.24023 0.439453,0.23438 0.714843,0.61523 l 0,-3.08203 1.048829,0 0,8.58985 -0.978516,0 z m -3.333984,-3.10547 q 0,1.19531 0.503906,1.78711 0.503906,0.59179 1.189453,0.59179 0.691406,0 1.171875,-0.5625 0.486328,-0.56835 0.486328,-1.72851 0,-1.27734 -0.492187,-1.875 -0.492188,-0.59766 -1.212891,-0.59766 -0.703125,0 -1.177734,0.57422 -0.46875,0.57422 -0.46875,1.81055 z"
             style="font-size:12px;font-family:Arial;text-anchor:end;fill:#222222;stroke:none;stroke-width:0"
             id="path3654" />
          <path
             d="m 67.691406,221.69609 1.089844,0.13477 q -0.257813,0.95507 -0.955078,1.48242 -0.697266,0.52734 -1.78125,0.52734 -1.365235,0 -2.167969,-0.83789 -0.796875,-0.84375 -0.796875,-2.36133 0,-1.57031 0.808594,-2.4375 0.808594,-0.86718 2.097656,-0.86718 1.248047,0 2.039063,0.84961 0.791015,0.8496 0.791015,2.39062 0,0.0937 -0.0059,0.28125 l -4.640625,0 q 0.05859,1.02539 0.580078,1.57031 0.521484,0.54492 1.300781,0.54492 0.580078,0 0.990235,-0.30468 0.410156,-0.30469 0.65039,-0.97266 z m -3.46289,-1.70508 3.474609,0 q -0.07031,-0.78515 -0.398438,-1.17773 -0.503906,-0.60938 -1.30664,-0.60938 -0.726563,0 -1.22461,0.48633 -0.492187,0.48633 -0.544921,1.30078 z"
             style="font-size:12px;font-family:Arial;text-anchor:end;fill:#222222;stroke:none;stroke-width:0"
             id="path3656" />
          <path
             d="m 70.087891,223.7 0,-8.58985 1.054687,0 0,8.58985 -1.054687,0 z"
             style="font-size:12px;font-family:Arial;text-anchor:end;fill:#222222;stroke:none;stroke-width:0"
             id="path3658" />
          <path
             d="m 79.199219,223.7 0,-2.05664 -3.726563,0 0,-0.9668 3.919922,-5.56641 0.861328,0 0,5.56641 1.160156,0 0,0.9668 -1.160156,0 0,2.05664 -1.054687,0 z m 0,-3.02344 0,-3.87305 -2.689453,3.87305 2.689453,0 z"
             style="font-size:12px;font-family:Arial;text-anchor:end;fill:#222222;stroke:none;stroke-width:0"
             id="path3660" />
        </g>
      </g>
    </g>
    <g
       id="g130">
      <g
         id="g132">
        <g
           id="g134">
          <path
             style="fill:#ffffff;fill-opacity:0;stroke:none;stroke-width:0"
             d="m 104.5,67.5 11,0 0,14 -11,0 z"
             id="rect136" />
          <g
             id="g138">
            <g
               style="font-size:12px;font-family:Arial;text-anchor:start;fill:#3366cc;stroke:#ffffff;stroke-width:3"
               id="text140">
              <path
                 d="m 106.99805,73.963669 q 0,-1.523438 0.31054,-2.449219 0.31641,-0.931641 0.93164,-1.435547 0.6211,-0.503906 1.5586,-0.503906 0.6914,0 1.21289,0.28125 0.52148,0.275391 0.86133,0.802734 0.33984,0.521485 0.5332,1.277344 0.19336,0.75 0.19336,2.027344 0,1.511719 -0.31055,2.443359 -0.31054,0.925781 -0.93164,1.435547 -0.61523,0.503906 -1.55859,0.503906 -1.24219,0 -1.95117,-0.890625 -0.84961,-1.072265 -0.84961,-3.492187 z m 1.08398,0 q 0,2.115234 0.49219,2.818359 0.49805,0.697266 1.22461,0.697266 0.72656,0 1.21875,-0.703125 0.49805,-0.703125 0.49805,-2.8125 0,-2.121094 -0.49805,-2.81836 -0.49219,-0.697265 -1.23047,-0.697265 -0.72656,0 -1.16016,0.615234 -0.54492,0.785156 -0.54492,2.900391 z"
                 style="font-size:12px;font-family:Arial;text-anchor:start;fill:#3366cc;stroke:#ffffff;stroke-width:3"
                 id="path3664" />
            </g>
            <g
               style="font-size:12px;font-family:Arial;text-anchor:start;fill:#3366cc;stroke:none;stroke-width:0"
               id="text142">
              <path
                 d="m 106.99805,73.963669 q 0,-1.523438 0.31054,-2.449219 0.31641,-0.931641 0.93164,-1.435547 0.6211,-0.503906 1.5586,-0.503906 0.6914,0 1.21289,0.28125 0.52148,0.275391 0.86133,0.802734 0.33984,0.521485 0.5332,1.277344 0.19336,0.75 0.19336,2.027344 0,1.511719 -0.31055,2.443359 -0.31054,0.925781 -0.93164,1.435547 -0.61523,0.503906 -1.55859,0.503906 -1.24219,0 -1.95117,-0.890625 -0.84961,-1.072265 -0.84961,-3.492187 z m 1.08398,0 q 0,2.115234 0.49219,2.818359 0.49805,0.697266 1.22461,0.697266 0.72656,0 1.21875,-0.703125 0.49805,-0.703125 0.49805,-2.8125 0,-2.121094 -0.49805,-2.81836 -0.49219,-0.697265 -1.23047,-0.697265 -0.72656,0 -1.16016,0.615234 -0.54492,0.785156 -0.54492,2.900391 z"
                 style="font-size:12px;font-family:Arial;text-anchor:start;fill:#3366cc;stroke:none;stroke-width:0"
                 id="path3667" />
            </g>
          </g>
          <path
             style="fill:#ffffff;fill-opacity:0;stroke:none;stroke-width:0"
             d="m 106.5,68 6,0 0,12 -6,0 z"
             id="rect144" />
        </g>
      </g>
      <g
         id="g146">
        <g
           id="g148">
          <g
             style="font-size:12px;font-family:Arial;text-anchor:end;fill:#ffffff;stroke:none;stroke-width:0"
             id="text150">
            <path
               d="m 327.14453,121.93242 1.05469,-0.14063 q 0.18164,0.89649 0.61523,1.29493 0.43946,0.39257 1.06641,0.39257 0.74414,0 1.25391,-0.51562 0.51562,-0.51563 0.51562,-1.27734 0,-0.72657 -0.47461,-1.19532 -0.47461,-0.47461 -1.20703,-0.47461 -0.29883,0 -0.74414,0.11719 l 0.11719,-0.92578 q 0.10547,0.0117 0.16992,0.0117 0.67383,0 1.21289,-0.35156 0.53906,-0.35157 0.53906,-1.08399 0,-0.58008 -0.39258,-0.96094 -0.39257,-0.38086 -1.01367,-0.38086 -0.61523,0 -1.02539,0.38672 -0.41016,0.38672 -0.52734,1.16016 l -1.05469,-0.1875 q 0.19336,-1.06055 0.87891,-1.64063 0.68554,-0.58593 1.70507,-0.58593 0.70313,0 1.29493,0.30468 0.59179,0.29883 0.90234,0.82032 0.31641,0.52148 0.31641,1.10742 0,0.55664 -0.29883,1.01367 -0.29883,0.45703 -0.88477,0.72656 0.76172,0.17578 1.1836,0.73243 0.42187,0.55078 0.42187,1.38281 0,1.125 -0.82031,1.91015 -0.82031,0.7793 -2.07422,0.7793 -1.13086,0 -1.88086,-0.67383 -0.74414,-0.67383 -0.84961,-1.74609 z"
               style="font-size:12px;font-family:Arial;text-anchor:end;fill:#ffffff;stroke:none;stroke-width:0"
               id="path3671" />
            <path
               d="m 339.36133,123.18633 0,1.01367 -5.67774,0 q -0.0117,-0.38086 0.12305,-0.73242 0.2168,-0.58008 0.69141,-1.14258 0.48047,-0.5625 1.38281,-1.30078 1.40039,-1.14844 1.89258,-1.81641 0.49218,-0.67383 0.49218,-1.27148 0,-0.62696 -0.45117,-1.05469 -0.44531,-0.4336 -1.16601,-0.4336 -0.76172,0 -1.21875,0.45704 -0.45703,0.45703 -0.46289,1.26562 l -1.08399,-0.11133 q 0.11133,-1.21289 0.83789,-1.8457 0.72657,-0.63867 1.95117,-0.63867 1.23633,0 1.95704,0.68554 0.7207,0.68555 0.7207,1.69922 0,0.51563 -0.21094,1.01367 -0.21094,0.49805 -0.70312,1.04883 -0.48633,0.55078 -1.62305,1.51172 -0.94922,0.79688 -1.21875,1.08399 -0.26953,0.28125 -0.44531,0.56836 l 4.21289,0 z"
               style="font-size:12px;font-family:Arial;text-anchor:end;fill:#ffffff;stroke:none;stroke-width:0"
               id="path3673" />
          </g>
          <path
             style="fill:#ffffff;fill-opacity:0;stroke:none;stroke-width:0"
             d="m 326,114 14,0 0,12 -14,0 z"
             id="rect152" />
        </g>
      </g>
      <g
         id="g154">
        <g
           id="g156">
          <g
             style="font-size:12px;font-family:Arial;text-anchor:end;fill:#ffffff;stroke:none;stroke-width:0"
             id="text158">
            <path
               d="m 392.51953,170.2 0,-2.05664 -3.72656,0 0,-0.9668 3.91992,-5.56641 0.86133,0 0,5.56641 1.16015,0 0,0.9668 -1.16015,0 0,2.05664 -1.05469,0 z m 0,-3.02344 0,-3.87305 -2.68945,3.87305 2.68945,0 z"
               style="font-size:12px;font-family:Arial;text-anchor:end;fill:#ffffff;stroke:none;stroke-width:0"
               id="path3677" />
            <path
               d="m 395.81836,165.96367 q 0,-1.52344 0.31055,-2.44922 0.3164,-0.93164 0.93164,-1.43555 0.62109,-0.5039 1.55859,-0.5039 0.69141,0 1.21289,0.28125 0.52149,0.27539 0.86133,0.80273 0.33984,0.52149 0.5332,1.27735 0.19336,0.75 0.19336,2.02734 0,1.51172 -0.31055,2.44336 -0.31054,0.92578 -0.93164,1.43555 -0.61523,0.5039 -1.55859,0.5039 -1.24219,0 -1.95117,-0.89062 -0.84961,-1.07227 -0.84961,-3.49219 z m 1.08398,0 q 0,2.11523 0.49219,2.81836 0.49805,0.69726 1.22461,0.69726 0.72656,0 1.21875,-0.70312 0.49805,-0.70313 0.49805,-2.8125 0,-2.12109 -0.49805,-2.81836 -0.49219,-0.69727 -1.23047,-0.69727 -0.72656,0 -1.16015,0.61524 -0.54493,0.78515 -0.54493,2.90039 z"
               style="font-size:12px;font-family:Arial;text-anchor:end;fill:#ffffff;stroke:none;stroke-width:0"
               id="path3679" />
          </g>
          <path
             style="fill:#ffffff;fill-opacity:0;stroke:none;stroke-width:0"
             d="m 388,160 14,0 0,12 -14,0 z"
             id="rect160" />
        </g>
      </g>
      <g
         id="g162">
        <g
           id="g164">
          <g
             style="font-size:12px;font-family:Arial;text-anchor:end;fill:#ffffff;stroke:none;stroke-width:0"
             id="text166">
            <path
               d="m 285.68164,215.18633 0,1.01367 -5.67773,0 q -0.0117,-0.38086 0.12304,-0.73242 0.2168,-0.58008 0.69141,-1.14258 0.48047,-0.5625 1.38281,-1.30078 1.40039,-1.14844 1.89258,-1.81641 0.49219,-0.67383 0.49219,-1.27148 0,-0.62696 -0.45117,-1.05469 -0.44532,-0.4336 -1.16602,-0.4336 -0.76172,0 -1.21875,0.45704 -0.45703,0.45703 -0.46289,1.26562 l -1.08399,-0.11133 q 0.11133,-1.21289 0.8379,-1.8457 0.72656,-0.63867 1.95117,-0.63867 1.23633,0 1.95703,0.68554 0.7207,0.68555 0.7207,1.69922 0,0.51563 -0.21094,1.01367 -0.21093,0.49805 -0.70312,1.04883 -0.48633,0.55078 -1.62305,1.51172 -0.94922,0.79688 -1.21875,1.08399 -0.26953,0.28125 -0.44531,0.56836 l 4.21289,0 z"
               style="font-size:12px;font-family:Arial;text-anchor:end;fill:#ffffff;stroke:none;stroke-width:0"
               id="path3683" />
            <path
               d="m 292.29102,209.71367 -1.04883,0.082 q -0.14063,-0.62109 -0.39844,-0.90234 -0.42773,-0.45118 -1.05469,-0.45118 -0.5039,0 -0.88476,0.28125 -0.49805,0.36329 -0.78516,1.06055 -0.28711,0.69727 -0.29883,1.98633 0.38086,-0.58008 0.93164,-0.86133 0.55078,-0.28125 1.1543,-0.28125 1.05469,0 1.79297,0.7793 0.74414,0.77344 0.74414,2.0039 0,0.8086 -0.35156,1.50586 -0.34571,0.69141 -0.95508,1.06055 -0.60938,0.36914 -1.38281,0.36914 -1.31836,0 -2.15039,-0.9668 -0.83204,-0.97265 -0.83204,-3.19921 0,-2.49024 0.91993,-3.6211 0.80273,-0.98437 2.16211,-0.98437 1.01367,0 1.6582,0.56836 0.65039,0.56836 0.7793,1.57031 z m -4.30665,3.70312 q 0,0.54493 0.22852,1.04297 0.23438,0.49805 0.65039,0.76172 0.41602,0.25781 0.87305,0.25781 0.66797,0 1.14844,-0.53906 0.48046,-0.53906 0.48046,-1.46484 0,-0.89063 -0.47461,-1.40039 -0.4746,-0.51563 -1.19531,-0.51563 -0.71484,0 -1.21289,0.51563 -0.49805,0.50976 -0.49805,1.34179 z"
               style="font-size:12px;font-family:Arial;text-anchor:end;fill:#ffffff;stroke:none;stroke-width:0"
               id="path3685" />
          </g>
          <path
             style="fill:#ffffff;fill-opacity:0;stroke:none;stroke-width:0"
             d="m 279,206 14,0 0,12 -14,0 z"
             id="rect168" />
        </g>
      </g>
      <g
         id="g170">
        <g
           id="g172">
          <path
             style="fill:#ffffff;fill-opacity:0;stroke:none;stroke-width:0"
             d="m 104.5,82.5 11,0 0,14 -11,0 z"
             id="rect174" />
          <g
             id="g176">
            <g
               style="font-size:12px;font-family:Arial;text-anchor:start;fill:#dc3912;stroke:#ffffff;stroke-width:3"
               id="text178">
              <path
                 d="m 106.99805,88.963669 q 0,-1.523438 0.31054,-2.449219 0.31641,-0.931641 0.93164,-1.435547 0.6211,-0.503906 1.5586,-0.503906 0.6914,0 1.21289,0.28125 0.52148,0.275391 0.86133,0.802734 0.33984,0.521485 0.5332,1.277344 0.19336,0.75 0.19336,2.027344 0,1.511719 -0.31055,2.443359 -0.31054,0.925781 -0.93164,1.435547 -0.61523,0.503906 -1.55859,0.503906 -1.24219,0 -1.95117,-0.890625 -0.84961,-1.072265 -0.84961,-3.492187 z m 1.08398,0 q 0,2.115234 0.49219,2.818359 0.49805,0.697266 1.22461,0.697266 0.72656,0 1.21875,-0.703125 0.49805,-0.703125 0.49805,-2.8125 0,-2.121094 -0.49805,-2.81836 -0.49219,-0.697265 -1.23047,-0.697265 -0.72656,0 -1.16016,0.615234 -0.54492,0.785156 -0.54492,2.900391 z"
                 style="font-size:12px;font-family:Arial;text-anchor:start;fill:#dc3912;stroke:#ffffff;stroke-width:3"
                 id="path3690" />
            </g>
            <g
               style="font-size:12px;font-family:Arial;text-anchor:start;fill:#dc3912;stroke:none;stroke-width:0"
               id="text180">
              <path
                 d="m 106.99805,88.963669 q 0,-1.523438 0.31054,-2.449219 0.31641,-0.931641 0.93164,-1.435547 0.6211,-0.503906 1.5586,-0.503906 0.6914,0 1.21289,0.28125 0.52148,0.275391 0.86133,0.802734 0.33984,0.521485 0.5332,1.277344 0.19336,0.75 0.19336,2.027344 0,1.511719 -0.31055,2.443359 -0.31054,0.925781 -0.93164,1.435547 -0.61523,0.503906 -1.55859,0.503906 -1.24219,0 -1.95117,-0.890625 -0.84961,-1.072265 -0.84961,-3.492187 z m 1.08398,0 q 0,2.115234 0.49219,2.818359 0.49805,0.697266 1.22461,0.697266 0.72656,0 1.21875,-0.703125 0.49805,-0.703125 0.49805,-2.8125 0,-2.121094 -0.49805,-2.81836 -0.49219,-0.697265 -1.23047,-0.697265 -0.72656,0 -1.16016,0.615234 -0.54492,0.785156 -0.54492,2.900391 z"
                 style="font-size:12px;font-family:Arial;text-anchor:start;fill:#dc3912;stroke:none;stroke-width:0"
                 id="path3693" />
            </g>
          </g>
          <path
             style="fill:#ffffff;fill-opacity:0;stroke:none;stroke-width:0"
             d="m 106.5,83 6,0 0,12 -6,0 z"
             id="rect182" />
        </g>
      </g>
      <g
         id="g184">
        <g
           id="g186">
          <path
             style="fill:#ffffff;fill-opacity:0;stroke:none;stroke-width:0"
             d="m 106.5,128.5 21,0 0,14 -21,0 z"
             id="rect188" />
          <g
             id="g190">
            <g
               style="font-size:12px;font-family:Arial;text-anchor:start;fill:#dc3912;stroke:#ffffff;stroke-width:3"
               id="text192">
              <path
                 d="m 108.55804,134.96367 q 0,-1.52344 0.31055,-2.44922 0.31641,-0.93164 0.93164,-1.43555 0.6211,-0.5039 1.5586,-0.5039 0.6914,0 1.21289,0.28125 0.52148,0.27539 0.86132,0.80273 0.33985,0.52149 0.53321,1.27735 0.19336,0.75 0.19336,2.02734 0,1.51172 -0.31055,2.44336 -0.31055,0.92578 -0.93164,1.43555 -0.61523,0.5039 -1.55859,0.5039 -1.24219,0 -1.95118,-0.89062 -0.84961,-1.07227 -0.84961,-3.49219 z m 1.08399,0 q 0,2.11523 0.49219,2.81836 0.49804,0.69726 1.22461,0.69726 0.72656,0 1.21875,-0.70312 0.49804,-0.70313 0.49804,-2.8125 0,-2.12109 -0.49804,-2.81836 -0.49219,-0.69727 -1.23047,-0.69727 -0.72657,0 -1.16016,0.61524 -0.54492,0.78515 -0.54492,2.90039 z"
                 style="font-size:12px;font-family:Arial;text-anchor:start;fill:#dc3912;stroke:#ffffff;stroke-width:3"
                 id="path3698" />
              <path
                 d="m 115.82953,139.2 0,-1.20117 1.20117,0 0,1.20117 -1.20117,0 z"
                 style="font-size:12px;font-family:Arial;text-anchor:start;fill:#dc3912;stroke:#ffffff;stroke-width:3"
                 id="path3700" />
              <path
                 d="m 124.10883,138.18633 0,1.01367 -5.67774,0 q -0.0117,-0.38086 0.12305,-0.73242 0.2168,-0.58008 0.6914,-1.14258 0.48047,-0.5625 1.38282,-1.30078 1.40039,-1.14844 1.89258,-1.81641 0.49218,-0.67383 0.49218,-1.27148 0,-0.62696 -0.45117,-1.05469 -0.44531,-0.4336 -1.16601,-0.4336 -0.76172,0 -1.21875,0.45704 -0.45704,0.45703 -0.4629,1.26562 l -1.08398,-0.11133 q 0.11133,-1.21289 0.83789,-1.8457 0.72656,-0.63867 1.95117,-0.63867 1.23633,0 1.95703,0.68554 0.72071,0.68555 0.72071,1.69922 0,0.51563 -0.21094,1.01367 -0.21094,0.49805 -0.70313,1.04883 -0.48632,0.55078 -1.62304,1.51172 -0.94922,0.79688 -1.21875,1.08399 -0.26953,0.28125 -0.44531,0.56836 l 4.21289,0 z"
                 style="font-size:12px;font-family:Arial;text-anchor:start;fill:#dc3912;stroke:#ffffff;stroke-width:3"
                 id="path3702" />
            </g>
            <g
               style="font-size:12px;font-family:Arial;text-anchor:start;fill:#dc3912;stroke:none;stroke-width:0"
               id="text194">
              <path
                 d="m 108.55804,134.96367 q 0,-1.52344 0.31055,-2.44922 0.31641,-0.93164 0.93164,-1.43555 0.6211,-0.5039 1.5586,-0.5039 0.6914,0 1.21289,0.28125 0.52148,0.27539 0.86132,0.80273 0.33985,0.52149 0.53321,1.27735 0.19336,0.75 0.19336,2.02734 0,1.51172 -0.31055,2.44336 -0.31055,0.92578 -0.93164,1.43555 -0.61523,0.5039 -1.55859,0.5039 -1.24219,0 -1.95118,-0.89062 -0.84961,-1.07227 -0.84961,-3.49219 z m 1.08399,0 q 0,2.11523 0.49219,2.81836 0.49804,0.69726 1.22461,0.69726 0.72656,0 1.21875,-0.70312 0.49804,-0.70313 0.49804,-2.8125 0,-2.12109 -0.49804,-2.81836 -0.49219,-0.69727 -1.23047,-0.69727 -0.72657,0 -1.16016,0.61524 -0.54492,0.78515 -0.54492,2.90039 z"
                 style="font-size:12px;font-family:Arial;text-anchor:start;fill:#dc3912;stroke:none;stroke-width:0"
                 id="path3705" />
              <path
                 d="m 115.82953,139.2 0,-1.20117 1.20117,0 0,1.20117 -1.20117,0 z"
                 style="font-size:12px;font-family:Arial;text-anchor:start;fill:#dc3912;stroke:none;stroke-width:0"
                 id="path3707" />
              <path
                 d="m 124.10883,138.18633 0,1.01367 -5.67774,0 q -0.0117,-0.38086 0.12305,-0.73242 0.2168,-0.58008 0.6914,-1.14258 0.48047,-0.5625 1.38282,-1.30078 1.40039,-1.14844 1.89258,-1.81641 0.49218,-0.67383 0.49218,-1.27148 0,-0.62696 -0.45117,-1.05469 -0.44531,-0.4336 -1.16601,-0.4336 -0.76172,0 -1.21875,0.45704 -0.45704,0.45703 -0.4629,1.26562 l -1.08398,-0.11133 q 0.11133,-1.21289 0.83789,-1.8457 0.72656,-0.63867 1.95117,-0.63867 1.23633,0 1.95703,0.68554 0.72071,0.68555 0.72071,1.69922 0,0.51563 -0.21094,1.01367 -0.21094,0.49805 -0.70313,1.04883 -0.48632,0.55078 -1.62304,1.51172 -0.94922,0.79688 -1.21875,1.08399 -0.26953,0.28125 -0.44531,0.56836 l 4.21289,0 z"
                 style="font-size:12px;font-family:Arial;text-anchor:start;fill:#dc3912;stroke:none;stroke-width:0"
                 id="path3709" />
            </g>
          </g>
          <path
             style="fill:#ffffff;fill-opacity:0;stroke:none;stroke-width:0"
             d="m 108.06,129 16,0 0,12 -16,0 z"
             id="rect196" />
        </g>
      </g>
      <g
         id="g198">
        <g
           id="g200">
          <path
             style="fill:#ffffff;fill-opacity:0;stroke:none;stroke-width:0"
             d="m 105.5,174.5 29,0 0,14 -29,0 z"
             id="rect202" />
          <g
             id="g204">
            <g
               style="font-size:12px;font-family:Arial;text-anchor:start;fill:#dc3912;stroke:#ffffff;stroke-width:3"
               id="text206">
              <path
                 d="m 107.52924,180.96367 q 0,-1.52344 0.31055,-2.44922 0.31641,-0.93164 0.93164,-1.43555 0.62109,-0.5039 1.55859,-0.5039 0.69141,0 1.2129,0.28125 0.52148,0.27539 0.86132,0.80273 0.33985,0.52149 0.53321,1.27735 0.19336,0.75 0.19336,2.02734 0,1.51172 -0.31055,2.44336 -0.31055,0.92578 -0.93164,1.43555 -0.61524,0.5039 -1.5586,0.5039 -1.24218,0 -1.95117,-0.89062 -0.84961,-1.07227 -0.84961,-3.49219 z m 1.08399,0 q 0,2.11523 0.49219,2.81836 0.49804,0.69726 1.2246,0.69726 0.72657,0 1.21875,-0.70312 0.49805,-0.70313 0.49805,-2.8125 0,-2.12109 -0.49805,-2.81836 -0.49218,-0.69727 -1.23046,-0.69727 -0.72657,0 -1.16016,0.61524 -0.54492,0.78515 -0.54492,2.90039 z"
                 style="font-size:12px;font-family:Arial;text-anchor:start;fill:#dc3912;stroke:#ffffff;stroke-width:3"
                 id="path3714" />
              <path
                 d="m 114.80073,185.2 0,-1.20117 1.20117,0 0,1.20117 -1.20117,0 z"
                 style="font-size:12px;font-family:Arial;text-anchor:start;fill:#dc3912;stroke:#ffffff;stroke-width:3"
                 id="path3716" />
              <path
                 d="m 117.53706,180.96367 q 0,-1.52344 0.31054,-2.44922 0.31641,-0.93164 0.93164,-1.43555 0.6211,-0.5039 1.5586,-0.5039 0.6914,0 1.21289,0.28125 0.52148,0.27539 0.86133,0.80273 0.33984,0.52149 0.5332,1.27735 0.19336,0.75 0.19336,2.02734 0,1.51172 -0.31055,2.44336 -0.31055,0.92578 -0.93164,1.43555 -0.61523,0.5039 -1.55859,0.5039 -1.24219,0 -1.95117,-0.89062 -0.84961,-1.07227 -0.84961,-3.49219 z m 1.08398,0 q 0,2.11523 0.49219,2.81836 0.49804,0.69726 1.22461,0.69726 0.72656,0 1.21875,-0.70312 0.49804,-0.70313 0.49804,-2.8125 0,-2.12109 -0.49804,-2.81836 -0.49219,-0.69727 -1.23047,-0.69727 -0.72656,0 -1.16016,0.61524 -0.54492,0.78515 -0.54492,2.90039 z"
                 style="font-size:12px;font-family:Arial;text-anchor:start;fill:#dc3912;stroke:#ffffff;stroke-width:3"
                 id="path3718" />
              <path
                 d="m 129.75971,184.18633 0,1.01367 -5.67773,0 q -0.0117,-0.38086 0.12304,-0.73242 0.2168,-0.58008 0.69141,-1.14258 0.48047,-0.5625 1.38281,-1.30078 1.40039,-1.14844 1.89258,-1.81641 0.49219,-0.67383 0.49219,-1.27148 0,-0.62696 -0.45117,-1.05469 -0.44532,-0.4336 -1.16602,-0.4336 -0.76172,0 -1.21875,0.45704 -0.45703,0.45703 -0.46289,1.26562 l -1.08398,-0.11133 q 0.11132,-1.21289 0.83789,-1.8457 0.72656,-0.63867 1.95117,-0.63867 1.23633,0 1.95703,0.68554 0.7207,0.68555 0.7207,1.69922 0,0.51563 -0.21093,1.01367 -0.21094,0.49805 -0.70313,1.04883 -0.48633,0.55078 -1.62305,1.51172 -0.94921,0.79688 -1.21875,1.08399 -0.26953,0.28125 -0.44531,0.56836 l 4.21289,0 z"
                 style="font-size:12px;font-family:Arial;text-anchor:start;fill:#dc3912;stroke:#ffffff;stroke-width:3"
                 id="path3720" />
            </g>
            <g
               style="font-size:12px;font-family:Arial;text-anchor:start;fill:#dc3912;stroke:none;stroke-width:0"
               id="text208">
              <path
                 d="m 107.52924,180.96367 q 0,-1.52344 0.31055,-2.44922 0.31641,-0.93164 0.93164,-1.43555 0.62109,-0.5039 1.55859,-0.5039 0.69141,0 1.2129,0.28125 0.52148,0.27539 0.86132,0.80273 0.33985,0.52149 0.53321,1.27735 0.19336,0.75 0.19336,2.02734 0,1.51172 -0.31055,2.44336 -0.31055,0.92578 -0.93164,1.43555 -0.61524,0.5039 -1.5586,0.5039 -1.24218,0 -1.95117,-0.89062 -0.84961,-1.07227 -0.84961,-3.49219 z m 1.08399,0 q 0,2.11523 0.49219,2.81836 0.49804,0.69726 1.2246,0.69726 0.72657,0 1.21875,-0.70312 0.49805,-0.70313 0.49805,-2.8125 0,-2.12109 -0.49805,-2.81836 -0.49218,-0.69727 -1.23046,-0.69727 -0.72657,0 -1.16016,0.61524 -0.54492,0.78515 -0.54492,2.90039 z"
                 style="font-size:12px;font-family:Arial;text-anchor:start;fill:#dc3912;stroke:none;stroke-width:0"
                 id="path3723" />
              <path
                 d="m 114.80073,185.2 0,-1.20117 1.20117,0 0,1.20117 -1.20117,0 z"
                 style="font-size:12px;font-family:Arial;text-anchor:start;fill:#dc3912;stroke:none;stroke-width:0"
                 id="path3725" />
              <path
                 d="m 117.53706,180.96367 q 0,-1.52344 0.31054,-2.44922 0.31641,-0.93164 0.93164,-1.43555 0.6211,-0.5039 1.5586,-0.5039 0.6914,0 1.21289,0.28125 0.52148,0.27539 0.86133,0.80273 0.33984,0.52149 0.5332,1.27735 0.19336,0.75 0.19336,2.02734 0,1.51172 -0.31055,2.44336 -0.31055,0.92578 -0.93164,1.43555 -0.61523,0.5039 -1.55859,0.5039 -1.24219,0 -1.95117,-0.89062 -0.84961,-1.07227 -0.84961,-3.49219 z m 1.08398,0 q 0,2.11523 0.49219,2.81836 0.49804,0.69726 1.22461,0.69726 0.72656,0 1.21875,-0.70312 0.49804,-0.70313 0.49804,-2.8125 0,-2.12109 -0.49804,-2.81836 -0.49219,-0.69727 -1.23047,-0.69727 -0.72656,0 -1.16016,0.61524 -0.54492,0.78515 -0.54492,2.90039 z"
                 style="font-size:12px;font-family:Arial;text-anchor:start;fill:#dc3912;stroke:none;stroke-width:0"
                 id="path3727" />
              <path
                 d="m 129.75971,184.18633 0,1.01367 -5.67773,0 q -0.0117,-0.38086 0.12304,-0.73242 0.2168,-0.58008 0.69141,-1.14258 0.48047,-0.5625 1.38281,-1.30078 1.40039,-1.14844 1.89258,-1.81641 0.49219,-0.67383 0.49219,-1.27148 0,-0.62696 -0.45117,-1.05469 -0.44532,-0.4336 -1.16602,-0.4336 -0.76172,0 -1.21875,0.45704 -0.45703,0.45703 -0.46289,1.26562 l -1.08398,-0.11133 q 0.11132,-1.21289 0.83789,-1.8457 0.72656,-0.63867 1.95117,-0.63867 1.23633,0 1.95703,0.68554 0.7207,0.68555 0.7207,1.69922 0,0.51563 -0.21093,1.01367 -0.21094,0.49805 -0.70313,1.04883 -0.48633,0.55078 -1.62305,1.51172 -0.94921,0.79688 -1.21875,1.08399 -0.26953,0.28125 -0.44531,0.56836 l 4.21289,0 z"
                 style="font-size:12px;font-family:Arial;text-anchor:start;fill:#dc3912;stroke:none;stroke-width:0"
                 id="path3729" />
            </g>
          </g>
          <path
             style="fill:#ffffff;fill-opacity:0;stroke:none;stroke-width:0"
             d="m 107.0312,175 24,0 0,12 -24,0 z"
             id="rect210" />
        </g>
      </g>
      <g
         id="g212">
        <g
           id="g214">
          <g
             style="font-size:12px;font-family:Arial;text-anchor:end;fill:#ffffff;stroke:none;stroke-width:0"
             id="text216">
            <path
               d="m 277.68164,230.18633 0,1.01367 -5.67773,0 q -0.0117,-0.38086 0.12304,-0.73242 0.2168,-0.58008 0.69141,-1.14258 0.48047,-0.5625 1.38281,-1.30078 1.40039,-1.14844 1.89258,-1.81641 0.49219,-0.67383 0.49219,-1.27148 0,-0.62696 -0.45117,-1.05469 -0.44532,-0.4336 -1.16602,-0.4336 -0.76172,0 -1.21875,0.45704 -0.45703,0.45703 -0.46289,1.26562 l -1.08399,-0.11133 q 0.11133,-1.21289 0.8379,-1.8457 0.72656,-0.63867 1.95117,-0.63867 1.23633,0 1.95703,0.68554 0.7207,0.68555 0.7207,1.69922 0,0.51563 -0.21094,1.01367 -0.21093,0.49805 -0.70312,1.04883 -0.48633,0.55078 -1.62305,1.51172 -0.94922,0.79688 -1.21875,1.08399 -0.26953,0.28125 -0.44531,0.56836 l 4.21289,0 z"
               style="font-size:12px;font-family:Arial;text-anchor:end;fill:#ffffff;stroke:none;stroke-width:0"
               id="path3733" />
            <path
               d="m 278.81836,228.95 1.10742,-0.0937 q 0.12305,0.80859 0.56836,1.21875 0.45117,0.40429 1.08398,0.40429 0.76172,0 1.28907,-0.57421 0.52734,-0.57422 0.52734,-1.52344 0,-0.90235 -0.50976,-1.42383 -0.50391,-0.52148 -1.32422,-0.52148 -0.50977,0 -0.91993,0.23437 -0.41015,0.22852 -0.64453,0.59766 l -0.99023,-0.12891 0.83203,-4.41211 4.27148,0 0,1.00781 -3.42773,0 -0.46289,2.3086 q 0.77344,-0.53907 1.62305,-0.53907 1.125,0 1.89843,0.7793 0.77344,0.7793 0.77344,2.00391 0,1.16601 -0.67969,2.01562 -0.82617,1.04297 -2.25586,1.04297 -1.17187,0 -1.91601,-0.65625 -0.73828,-0.65625 -0.84375,-1.74023 z"
               style="font-size:12px;font-family:Arial;text-anchor:end;fill:#ffffff;stroke:none;stroke-width:0"
               id="path3735" />
          </g>
          <path
             style="fill:#ffffff;fill-opacity:0;stroke:none;stroke-width:0"
             d="m 271,221 14,0 0,12 -14,0 z"
             id="rect218" />
        </g>
      </g>
    </g>
  </g>
  <g
     id="g220">
    <g
       id="g222">
      <g
         style="font-style:italic;font-size:12px;font-family:Arial;text-anchor:middle;fill:#222222;stroke:none;stroke-width:0"
         id="text224">
        <path
           d="m 226.24805,275.70001 1.58789,-7.61133 -2.81836,0 0.20508,-0.97851 6.76171,0 -0.20507,0.97851 -2.79493,0 -1.58789,7.61133 -1.14843,0 z"
           style="font-style:italic;font-size:12px;font-family:Arial;text-anchor:middle;fill:#222222;stroke:none;stroke-width:0"
           id="path3561" />
        <path
           d="m 232.66992,268.31134 0.25195,-1.20117 1.05469,0 -0.25195,1.20117 -1.05469,0 z m -1.54687,7.38867 1.30078,-6.22265 1.06054,0 -1.30078,6.22265 -1.06054,0 z"
           style="font-style:italic;font-size:12px;font-family:Arial;text-anchor:middle;fill:#222222;stroke:none;stroke-width:0"
           id="path3563" />
        <path
           d="m 233.83008,275.70001 1.30078,-6.22265 1.06055,0 -0.2168,1.02539 q 0.5918,-0.66211 1.05469,-0.91407 0.46875,-0.25195 1.01367,-0.25195 0.58008,0 0.9668,0.31055 0.39257,0.30469 0.51562,0.85547 0.47461,-0.58594 0.99609,-0.87305 0.52735,-0.29297 1.10743,-0.29297 0.77929,0 1.16601,0.36914 0.39258,0.36914 0.39258,1.03711 0,0.28711 -0.13477,0.94922 l -0.83789,4.00781 -1.06054,0 0.85547,-4.11328 q 0.11132,-0.50391 0.11132,-0.7207 0,-0.30469 -0.19336,-0.48047 -0.19336,-0.17578 -0.54492,-0.17578 -0.47461,0 -0.96679,0.28711 -0.49219,0.28711 -0.76758,0.75586 -0.26953,0.46289 -0.47461,1.42968 l -0.63281,3.01758 -1.06055,0 0.8789,-4.20117 q 0.0937,-0.42773 0.0937,-0.60937 0,-0.30469 -0.19335,-0.49219 -0.1875,-0.1875 -0.49219,-0.1875 -0.45117,0 -0.94922,0.28711 -0.49219,0.28711 -0.80274,0.80273 -0.31054,0.50977 -0.50976,1.45899 l -0.61524,2.9414 -1.06054,0 z"
           style="font-style:italic;font-size:12px;font-family:Arial;text-anchor:middle;fill:#222222;stroke:none;stroke-width:0"
           id="path3565" />
        <path
           d="m 248.41406,273.58478 1.03125,0.10547 q -0.22265,0.76757 -1.02539,1.45898 -0.79687,0.69141 -1.9043,0.69141 -0.6914,0 -1.27148,-0.31641 -0.57422,-0.32226 -0.87891,-0.93164 -0.29882,-0.60937 -0.29882,-1.38867 0,-1.01953 0.46875,-1.97461 0.47461,-0.96094 1.22461,-1.42383 0.75,-0.46875 1.62304,-0.46875 1.11328,0 1.77539,0.69141 0.66797,0.6914 0.66797,1.88672 0,0.45703 -0.082,0.9375 l -4.58203,0 q -0.0234,0.18164 -0.0234,0.32812 0,0.87305 0.39844,1.33594 0.4043,0.45703 0.98437,0.45703 0.54493,0 1.07227,-0.35742 0.52734,-0.35742 0.82031,-1.03125 z m -3.08203,-1.54102 3.49219,0 q 0.006,-0.16406 0.006,-0.23437 0,-0.79688 -0.39844,-1.21875 -0.39844,-0.42774 -1.02539,-0.42774 -0.67969,0 -1.24219,0.46875 -0.55664,0.46875 -0.83203,1.41211 z"
           style="font-style:italic;font-size:12px;font-family:Arial;text-anchor:middle;fill:#222222;stroke:none;stroke-width:0"
           id="path3567" />
        <path
           d="m 255.38672,278.2254 q -0.91992,-2.01562 -0.91992,-4.14258 0,-1.41796 0.36914,-2.63671 0.375,-1.22461 1.13672,-2.41993 0.5039,-0.79687 1.61132,-2.0625 l 0.82618,0 q -0.68555,0.73243 -1.45313,2.0625 -0.76172,1.33008 -1.10742,2.61329 -0.3457,1.2832 -0.3457,2.57812 0,1.93359 0.67382,4.00781 l -0.79101,0 z"
           style="font-style:italic;font-size:12px;font-family:Arial;text-anchor:middle;fill:#222222;stroke:none;stroke-width:0"
           id="path3569" />
        <path
           d="m 257.85352,275.70001 1.30078,-6.22265 1.06054,0 -0.21679,1.02539 q 0.59179,-0.66211 1.05468,-0.91407 0.46875,-0.25195 1.01368,-0.25195 0.58007,0 0.96679,0.31055 0.39258,0.30469 0.51563,0.85547 0.47461,-0.58594 0.99609,-0.87305 0.52735,-0.29297 1.10742,-0.29297 0.7793,0 1.16602,0.36914 0.39258,0.36914 0.39258,1.03711 0,0.28711 -0.13477,0.94922 l -0.83789,4.00781 -1.06055,0 0.85547,-4.11328 q 0.11133,-0.50391 0.11133,-0.7207 0,-0.30469 -0.19336,-0.48047 -0.19336,-0.17578 -0.54492,-0.17578 -0.47461,0 -0.9668,0.28711 -0.49218,0.28711 -0.76758,0.75586 -0.26953,0.46289 -0.4746,1.42968 l -0.63282,3.01758 -1.06054,0 0.8789,-4.20117 q 0.0937,-0.42773 0.0937,-0.60937 0,-0.30469 -0.19336,-0.49219 -0.1875,-0.1875 -0.49218,-0.1875 -0.45118,0 -0.94922,0.28711 -0.49219,0.28711 -0.80274,0.80273 -0.31054,0.50977 -0.50976,1.45899 l -0.61524,2.9414 -1.06054,0 z"
           style="font-style:italic;font-size:12px;font-family:Arial;text-anchor:middle;fill:#222222;stroke:none;stroke-width:0"
           id="path3571" />
        <path
           d="m 267.9668,273.57306 1.06054,-0.0645 q 0,0.45703 0.14063,0.77929 0.14062,0.32227 0.51562,0.52735 0.38086,0.20507 0.88477,0.20507 0.70312,0 1.05469,-0.28125 0.35156,-0.28125 0.35156,-0.6621 0,-0.2754 -0.21094,-0.52149 -0.2168,-0.24609 -1.06055,-0.60351 -0.83789,-0.36329 -1.07226,-0.50977 -0.39258,-0.24023 -0.5918,-0.5625 -0.19922,-0.32813 -0.19922,-0.75 0,-0.73828 0.58594,-1.26563 0.58594,-0.52734 1.64063,-0.52734 1.17187,0 1.78125,0.54492 0.61523,0.53907 0.63867,1.42383 l -1.03711,0.0703 q -0.0234,-0.5625 -0.39844,-0.89062 -0.375,-0.32813 -1.06055,-0.32813 -0.55078,0 -0.85546,0.25196 -0.30469,0.25195 -0.30469,0.54492 0,0.29297 0.26367,0.51562 0.17578,0.15235 0.9082,0.46875 1.21875,0.52735 1.53516,0.83203 0.50391,0.48633 0.50391,1.1836 0,0.46289 -0.28711,0.9082 -0.28125,0.44531 -0.86719,0.71485 -0.58008,0.26367 -1.3711,0.26367 -1.07812,0 -1.83398,-0.53321 -0.75586,-0.5332 -0.71484,-1.73437 z"
           style="font-style:italic;font-size:12px;font-family:Arial;text-anchor:middle;fill:#222222;stroke:none;stroke-width:0"
           id="path3573" />
        <path
           d="m 275.84766,266.96368 q 0.92578,2.01563 0.92578,4.13672 0,1.42383 -0.375,2.64258 -0.36914,1.21875 -1.13086,2.41992 -0.50977,0.79688 -1.61133,2.0625 l -0.82617,0 q 0.67969,-0.73828 1.44726,-2.06836 0.76758,-1.33007 1.10743,-2.60742 0.3457,-1.2832 0.3457,-2.58398 0,-1.9336 -0.67383,-4.00196 l 0.79102,0 z"
           style="font-style:italic;font-size:12px;font-family:Arial;text-anchor:middle;fill:#222222;stroke:none;stroke-width:0"
           id="path3575" />
      </g>
      <path
         style="fill:#ffffff;fill-opacity:0;stroke:none;stroke-width:0"
         d="m 94,265.5 313,0 0,12 -313,0 z"
         id="rect226" />
    </g>
  </g>
  <g
     id="g228" />
</svg>
