<?xml version="1.0" encoding="UTF-8" standalone="no"?>
<svg
   xmlns:dc="http://purl.org/dc/elements/1.1/"
   xmlns:cc="http://creativecommons.org/ns#"
   xmlns:rdf="http://www.w3.org/1999/02/22-rdf-syntax-ns#"
   xmlns:svg="http://www.w3.org/2000/svg"
   xmlns="http://www.w3.org/2000/svg"
   xmlns:sodipodi="http://sodipodi.sourceforge.net/DTD/sodipodi-0.dtd"
   xmlns:inkscape="http://www.inkscape.org/namespaces/inkscape"
   width="500"
   height="300"
   aria-label="A chart."
   style="overflow: hidden;"
   id="svg2"
   version="1.1"
   inkscape:version="0.91 r13725"
   sodipodi:docname="my_move.svg">
  <metadata
     id="metadata208">
    <rdf:RDF>
      <cc:Work
         rdf:about="">
        <dc:format>image/svg+xml</dc:format>
        <dc:type
           rdf:resource="http://purl.org/dc/dcmitype/StillImage" />
      </cc:Work>
    </rdf:RDF>
  </metadata>
  <sodipodi:namedview
     pagecolor="#ffffff"
     bordercolor="#666666"
     borderopacity="1"
     objecttolerance="10"
     gridtolerance="10"
     guidetolerance="10"
     inkscape:pageopacity="0"
     inkscape:pageshadow="2"
     inkscape:window-width="640"
     inkscape:window-height="480"
     id="namedview206"
     showgrid="false"
     inkscape:zoom="0.606"
     inkscape:cx="221.12211"
     inkscape:cy="150"
     inkscape:window-x="0"
     inkscape:window-y="0"
     inkscape:window-maximized="0"
     inkscape:current-layer="svg2" />
  <defs
     id="_ABSTRACT_RENDERER_ID_4">
    <clipPath
       id="_ABSTRACT_RENDERER_ID_5">
      <rect
         x="94"
         y="58"
         width="313"
         height="185"
         id="rect6" />
    </clipPath>
  </defs>
  <path
     style="fill:#ffffff;stroke:none;stroke-width:0"
     d="m 0,0 500,0 0,300 -500,0 z"
     id="rect8" />
  <g
     id="g10">
    <g
       style="font-weight:bold;font-size:12px;font-family:Arial;text-anchor:start;fill:#000000;stroke:none;stroke-width:0"
       id="text12">
      <path
         d="m 94.433594,34.405079 1.6875,-0.164063 q 0.152343,0.84961 0.615234,1.248047 0.46875,0.398438 1.259766,0.398438 0.83789,0 1.259765,-0.351563 0.427735,-0.357422 0.427735,-0.832031 0,-0.304687 -0.181641,-0.515625 -0.175781,-0.216797 -0.621094,-0.375 -0.304687,-0.105469 -1.388672,-0.375 -1.394531,-0.345703 -1.957031,-0.849609 -0.791015,-0.708985 -0.791015,-1.728516 0,-0.65625 0.36914,-1.224609 0.375,-0.574219 1.072266,-0.873047 0.703125,-0.298828 1.693359,-0.298828 1.617188,0 2.431644,0.708984 0.82031,0.708984 0.86133,1.892578 l -1.73438,0.07617 Q 99.326172,30.479298 98.957031,30.192188 98.59375,29.89922 97.861328,29.89922 q -0.755859,0 -1.183594,0.310546 -0.27539,0.199219 -0.27539,0.533204 0,0.304687 0.257812,0.521484 0.328125,0.275391 1.59375,0.574219 1.265625,0.298828 1.869144,0.621093 0.60937,0.316407 0.94922,0.873047 0.3457,0.550782 0.3457,1.365235 0,0.738281 -0.41016,1.382812 -0.41015,0.644531 -1.160154,0.960938 -0.75,0.310547 -1.86914,0.310547 -1.628907,0 -2.501954,-0.75 -0.873046,-0.75586 -1.042968,-2.197266 z"
         style="font-weight:bold;font-size:12px;font-family:Arial;text-anchor:start;fill:#000000;stroke:none;stroke-width:0"
         id="path3732" />
      <path
         d="m 102.87695,30.133595 0,-1.523438 1.64649,0 0,1.523438 -1.64649,0 z m 0,7.066406 0,-6.222656 1.64649,0 0,6.222656 -1.64649,0 z"
         style="font-weight:bold;font-size:12px;font-family:Arial;text-anchor:start;fill:#000000;stroke:none;stroke-width:0"
         id="path3734" />
      <path
         d="m 111.86523,37.200001 -1.64648,0 0,-3.175781 q 0,-1.007813 -0.10547,-1.300782 -0.10547,-0.298828 -0.3457,-0.46289 -0.23438,-0.164063 -0.56836,-0.164063 -0.42774,0 -0.76758,0.234375 -0.33984,0.234375 -0.46875,0.621094 -0.12305,0.386719 -0.12305,1.429687 l 0,2.81836 -1.64648,0 0,-6.222656 1.5293,0 0,0.914062 q 0.81445,-1.054687 2.05078,-1.054687 0.54492,0 0.99609,0.199218 0.45117,0.19336 0.67969,0.498047 0.23437,0.304688 0.32226,0.691406 0.0937,0.386719 0.0937,1.107422 l 0,3.867188 z"
         style="font-weight:bold;font-size:12px;font-family:Arial;text-anchor:start;fill:#000000;stroke:none;stroke-width:0"
         id="path3736" />
      <path
         d="m 118.9668,32.817188 -1.62305,0.292969 q -0.082,-0.486328 -0.375,-0.732422 -0.28711,-0.246094 -0.75,-0.246094 -0.61523,0 -0.98437,0.427735 -0.36329,0.421875 -0.36329,1.417969 0,1.107421 0.36914,1.564453 0.375,0.457031 1.00196,0.457031 0.46875,0 0.76758,-0.263672 0.29882,-0.269531 0.42187,-0.919922 l 1.61719,0.275391 q -0.25195,1.113281 -0.9668,1.68164 -0.71484,0.56836 -1.91601,0.56836 -1.36524,0 -2.17969,-0.861328 -0.8086,-0.861328 -0.8086,-2.384766 0,-1.541016 0.81446,-2.396484 0.81445,-0.861328 2.20312,-0.861328 1.13672,0 1.80469,0.492187 0.67383,0.486328 0.9668,1.488281 z"
         style="font-weight:bold;font-size:12px;font-family:Arial;text-anchor:start;fill:#000000;stroke:none;stroke-width:0"
         id="path3738" />
      <path
         d="m 123.80078,35.219532 1.64063,0.275391 q -0.31641,0.902343 -1.00196,1.376953 -0.67968,0.46875 -1.70507,0.46875 -1.62305,0 -2.40235,-1.060547 -0.61523,-0.849609 -0.61523,-2.144531 0,-1.546875 0.80859,-2.419922 0.80859,-0.878906 2.04492,-0.878906 1.38867,0 2.19141,0.919921 0.80273,0.914063 0.76758,2.806641 l -4.125,0 q 0.0176,0.732422 0.39843,1.142578 0.38086,0.404297 0.94922,0.404297 0.38672,0 0.65039,-0.210937 0.26368,-0.210938 0.39844,-0.679688 z m 0.0937,-1.664062 q -0.0176,-0.714844 -0.36914,-1.083985 -0.35156,-0.375 -0.85547,-0.375 -0.53906,0 -0.89062,0.392578 -0.35157,0.392578 -0.34571,1.066407 l 2.46094,0 z"
         style="font-weight:bold;font-size:12px;font-family:Arial;text-anchor:start;fill:#000000;stroke:none;stroke-width:0"
         id="path3740" />
      <path
         d="m 130.19336,37.200001 0,-8.589844 2.5957,0 1.5586,5.859375 1.54101,-5.859375 2.60156,0 0,8.589844 -1.61132,0 0,-6.761719 -1.70508,6.761719 -1.66992,0 -1.69922,-6.761719 0,6.761719 -1.61133,0 z"
         style="font-weight:bold;font-size:12px;font-family:Arial;text-anchor:start;fill:#000000;stroke:none;stroke-width:0"
         id="path3742" />
      <path
         d="m 139.41016,30.977345 1.75195,0 1.48828,4.417968 1.45313,-4.417968 1.70507,0 -2.19726,5.988281 -0.39258,1.083984 q -0.2168,0.544922 -0.41602,0.832031 -0.19336,0.28711 -0.45117,0.462891 -0.25195,0.181641 -0.62695,0.28125 -0.36914,0.09961 -0.83789,0.09961 -0.47461,0 -0.93164,-0.09961 l -0.14649,-1.289062 q 0.38672,0.07617 0.69727,0.07617 0.57422,0 0.84961,-0.339843 0.27539,-0.333985 0.42187,-0.855469 l -2.36718,-6.240234 z"
         style="font-weight:bold;font-size:12px;font-family:Arial;text-anchor:start;fill:#000000;stroke:none;stroke-width:0"
         id="path3744" />
      <path
         d="m 150.25586,37.200001 0,-8.519531 1.73437,0 0,7.072265 4.3125,0 0,1.447266 -6.04687,0 z"
         style="font-weight:bold;font-size:12px;font-family:Arial;text-anchor:start;fill:#000000;stroke:none;stroke-width:0"
         id="path3746" />
      <path
         d="m 158.76367,32.875782 -1.49414,-0.269531 q 0.25195,-0.902344 0.86719,-1.335938 0.61523,-0.433593 1.82812,-0.433593 1.10157,0 1.64063,0.263671 0.53906,0.257813 0.75586,0.66211 0.22265,0.398437 0.22265,1.470703 l -0.0176,1.921875 q 0,0.820312 0.0762,1.212891 0.082,0.386718 0.29883,0.832031 l -1.62891,0 q -0.0644,-0.164063 -0.1582,-0.486328 -0.041,-0.146485 -0.0586,-0.19336 -0.42187,0.410157 -0.90234,0.615235 -0.48047,0.205078 -1.02539,0.205078 -0.96094,0 -1.51758,-0.521485 -0.55078,-0.521484 -0.55078,-1.318359 0,-0.527344 0.25195,-0.9375 0.25196,-0.416016 0.70313,-0.632812 0.45703,-0.222657 1.3125,-0.386719 1.15429,-0.216797 1.59961,-0.404297 l 0,-0.164063 q 0,-0.474609 -0.23438,-0.673828 -0.23437,-0.205078 -0.88476,-0.205078 -0.43946,0 -0.68555,0.175781 -0.24609,0.169922 -0.39844,0.603516 z m 2.20313,1.335938 q -0.31641,0.105468 -1.00196,0.251953 -0.68554,0.146484 -0.89648,0.287109 -0.32227,0.228516 -0.32227,0.580078 0,0.345703 0.25782,0.597656 0.25781,0.251954 0.65625,0.251954 0.44531,0 0.84961,-0.292969 0.29882,-0.222656 0.39257,-0.544922 0.0645,-0.210938 0.0645,-0.802734 l 0,-0.328125 z"
         style="font-weight:bold;font-size:12px;font-family:Arial;text-anchor:start;fill:#000000;stroke:none;stroke-width:0"
         id="path3748" />
      <path
         d="m 163.63281,35.42461 1.65235,-0.251953 q 0.10546,0.480469 0.42773,0.732422 0.32227,0.246094 0.90234,0.246094 0.63868,0 0.96094,-0.234375 0.2168,-0.164063 0.2168,-0.439453 0,-0.1875 -0.11719,-0.310547 -0.12305,-0.117188 -0.55078,-0.216797 -1.99219,-0.439453 -2.52539,-0.802735 -0.73828,-0.503906 -0.73828,-1.40039 0,-0.808594 0.63867,-1.359375 0.63867,-0.550781 1.98047,-0.550781 1.27734,0 1.89844,0.416015 0.62109,0.416016 0.85546,1.230469 l -1.55273,0.287109 q -0.0996,-0.363281 -0.38086,-0.55664 -0.27539,-0.19336 -0.79101,-0.19336 -0.6504,0 -0.93165,0.181641 -0.1875,0.128906 -0.1875,0.333984 0,0.175782 0.16407,0.298828 0.22265,0.164063 1.53515,0.462891 1.31836,0.298828 1.83985,0.732422 0.51562,0.439453 0.51562,1.224609 0,0.855469 -0.71484,1.470703 -0.71485,0.615235 -2.11524,0.615235 -1.27148,0 -2.01562,-0.515625 -0.73828,-0.515625 -0.9668,-1.400391 z"
         style="font-weight:bold;font-size:12px;font-family:Arial;text-anchor:start;fill:#000000;stroke:none;stroke-width:0"
         id="path3750" />
      <path
         d="m 173.74609,30.977345 0,1.3125 -1.125,0 0,2.507812 q 0,0.761719 0.0293,0.890625 0.0352,0.123047 0.14648,0.205078 0.11719,0.08203 0.28125,0.08203 0.22852,0 0.66211,-0.158203 l 0.14063,1.277344 q -0.57422,0.246094 -1.30078,0.246094 -0.44531,0 -0.80274,-0.146485 -0.35742,-0.152343 -0.52734,-0.386718 -0.16406,-0.240235 -0.22852,-0.644532 -0.0527,-0.287109 -0.0527,-1.160156 l 0,-2.71289 -0.75586,0 0,-1.3125 0.75586,0 0,-1.236329 1.65234,-0.960937 0,2.197266 1.125,0 z"
         style="font-weight:bold;font-size:12px;font-family:Arial;text-anchor:start;fill:#000000;stroke:none;stroke-width:0"
         id="path3752" />
      <path
         d="m 178.2168,37.200001 0,-8.589844 2.5957,0 1.55859,5.859375 1.54102,-5.859375 2.60156,0 0,8.589844 -1.61133,0 0,-6.761719 -1.70507,6.761719 -1.66993,0 -1.69922,-6.761719 0,6.761719 -1.61132,0 z"
         style="font-weight:bold;font-size:12px;font-family:Arial;text-anchor:start;fill:#000000;stroke:none;stroke-width:0"
         id="path3754" />
      <path
         d="m 187.83203,34.000782 q 0,-0.820312 0.4043,-1.587891 0.40429,-0.767578 1.14258,-1.171875 0.74414,-0.404296 1.6582,-0.404296 1.41211,0 2.31445,0.919921 0.90235,0.914063 0.90235,2.314454 0,1.412109 -0.91407,2.34375 -0.9082,0.925781 -2.29101,0.925781 -0.85547,0 -1.63477,-0.386719 -0.77344,-0.386719 -1.17773,-1.130859 -0.4043,-0.75 -0.4043,-1.822266 z m 1.6875,0.08789 q 0,0.925781 0.43945,1.417968 0.43946,0.492188 1.08399,0.492188 0.64453,0 1.07812,-0.492188 0.43946,-0.492187 0.43946,-1.429687 0,-0.914063 -0.43946,-1.40625 -0.43359,-0.492188 -1.07812,-0.492188 -0.64453,0 -1.08399,0.492188 -0.43945,0.492187 -0.43945,1.417969 z"
         style="font-weight:bold;font-size:12px;font-family:Arial;text-anchor:start;fill:#000000;stroke:none;stroke-width:0"
         id="path3756" />
      <path
         d="m 197.23633,37.200001 -2.50781,-6.222656 1.72851,0 1.17188,3.175781 0.33984,1.060547 q 0.13477,-0.404297 0.16992,-0.533203 0.082,-0.263672 0.17578,-0.527344 l 1.1836,-3.175781 1.69336,0 -2.47266,6.222656 -1.48242,0 z"
         style="font-weight:bold;font-size:12px;font-family:Arial;text-anchor:start;fill:#000000;stroke:none;stroke-width:0"
         id="path3758" />
      <path
         d="m 205.80859,35.219532 1.64063,0.275391 q -0.31641,0.902343 -1.00195,1.376953 -0.67969,0.46875 -1.70508,0.46875 -1.62305,0 -2.40235,-1.060547 -0.61523,-0.849609 -0.61523,-2.144531 0,-1.546875 0.80859,-2.419922 0.8086,-0.878906 2.04492,-0.878906 1.38868,0 2.19141,0.919921 0.80274,0.914063 0.76758,2.806641 l -4.125,0 q 0.0176,0.732422 0.39844,1.142578 0.38086,0.404297 0.94922,0.404297 0.38671,0 0.65039,-0.210937 0.26367,-0.210938 0.39843,-0.679688 z m 0.0937,-1.664062 q -0.0176,-0.714844 -0.36914,-1.083985 -0.35156,-0.375 -0.85547,-0.375 -0.53906,0 -0.89062,0.392578 -0.35156,0.392578 -0.3457,1.066407 l 2.46093,0 z"
         style="font-weight:bold;font-size:12px;font-family:Arial;text-anchor:start;fill:#000000;stroke:none;stroke-width:0"
         id="path3760" />
    </g>
    <path
       style="fill:#ffffff;fill-opacity:0;stroke:none;stroke-width:0"
       d="m 94,27 313,0 0,12 -313,0 z"
       id="rect14" />
  </g>
  <g
     id="g16">
    <path
       style="fill:#ffffff;fill-opacity:0;stroke:none;stroke-width:0"
       d="m 172,283 157,0 0,12 -157,0 z"
       id="rect18" />
    <g
       id="g20">
      <path
         style="fill:#ffffff;fill-opacity:0;stroke:none;stroke-width:0"
         d="m 172,283 67,0 0,12 -67,0 z"
         id="rect22" />
      <g
         id="g24">
        <g
           style="font-size:12px;font-family:Arial;text-anchor:start;fill:#222222;stroke:none;stroke-width:0"
           id="text26">
          <path
             d="m 201.94922,293.20001 0,-8.58984 6.21094,0 0,1.01367 -5.07422,0 0,2.63086 4.75195,0 0,1.00781 -4.75195,0 0,2.92383 5.27343,0 0,1.01367 -6.41015,0 z"
             style="font-size:12px;font-family:Arial;text-anchor:start;fill:#222222;stroke:none;stroke-width:0"
             id="path3701" />
          <path
             d="m 211.51172,293.20001 -2.36719,-6.22265 1.11328,0 1.33594,3.72656 q 0.2168,0.60351 0.39844,1.2539 0.14062,-0.49218 0.39258,-1.18359 l 1.38281,-3.79687 1.08398,0 -2.35547,6.22265 -0.98437,0 z"
             style="font-size:12px;font-family:Arial;text-anchor:start;fill:#222222;stroke:none;stroke-width:0"
             id="path3703" />
          <path
             d="m 219.84375,292.43243 q -0.58594,0.49805 -1.13086,0.70313 -0.53906,0.20508 -1.16016,0.20508 -1.02539,0 -1.57617,-0.49805 -0.55078,-0.50391 -0.55078,-1.2832 0,-0.45703 0.20508,-0.83203 0.21094,-0.38086 0.54492,-0.60938 0.33984,-0.22851 0.76172,-0.3457 0.31055,-0.082 0.9375,-0.15821 1.27734,-0.15234 1.88086,-0.36328 0.006,-0.21679 0.006,-0.27539 0,-0.64453 -0.29883,-0.9082 -0.4043,-0.35742 -1.20117,-0.35742 -0.74414,0 -1.10156,0.26367 -0.35157,0.25781 -0.52149,0.91992 l -1.03125,-0.14062 q 0.14063,-0.66211 0.46289,-1.06641 0.32227,-0.41016 0.93164,-0.62695 0.60938,-0.22266 1.41211,-0.22266 0.79688,0 1.29492,0.1875 0.49805,0.1875 0.73243,0.47461 0.23437,0.28125 0.32812,0.71484 0.0527,0.26954 0.0527,0.97266 l 0,1.40625 q 0,1.4707 0.0644,1.86328 0.0703,0.38672 0.26953,0.74414 l -1.10156,0 q -0.16407,-0.32812 -0.21094,-0.76758 z m -0.0879,-2.35546 q -0.57422,0.23437 -1.72266,0.39843 -0.65039,0.0937 -0.91992,0.21094 -0.26953,0.11719 -0.41601,0.3457 -0.14649,0.22266 -0.14649,0.49805 0,0.42188 0.31641,0.70313 0.32226,0.28125 0.9375,0.28125 0.60937,0 1.08398,-0.26368 0.47461,-0.26953 0.69727,-0.73242 0.16992,-0.35742 0.16992,-1.05469 l 0,-0.38671 z"
             style="font-size:12px;font-family:Arial;text-anchor:start;fill:#222222;stroke:none;stroke-width:0"
             id="path3705" />
          <path
             d="m 226.47656,293.20001 0,-0.78515 q -0.59179,0.92578 -1.74023,0.92578 -0.74414,0 -1.3711,-0.41016 -0.62109,-0.41016 -0.96679,-1.14258 -0.33985,-0.73828 -0.33985,-1.69336 0,-0.93164 0.31055,-1.6875 0.31055,-0.76172 0.93164,-1.16601 0.62109,-0.4043 1.38867,-0.4043 0.5625,0 1.00196,0.24024 0.43945,0.23437 0.71484,0.61523 l 0,-3.08203 1.04883,0 0,8.58984 -0.97852,0 z m -3.33398,-3.10547 q 0,1.19532 0.5039,1.78711 0.50391,0.5918 1.18946,0.5918 0.6914,0 1.17187,-0.5625 0.48633,-0.56836 0.48633,-1.72852 0,-1.27734 -0.49219,-1.875 -0.49218,-0.59765 -1.21289,-0.59765 -0.70312,0 -1.17773,0.57422 -0.46875,0.57422 -0.46875,1.81054 z"
             style="font-size:12px;font-family:Arial;text-anchor:start;fill:#222222;stroke:none;stroke-width:0"
             id="path3707" />
          <path
             d="m 233.35547,291.19611 1.08984,0.13476 q -0.25781,0.95508 -0.95508,1.48242 -0.69726,0.52735 -1.78125,0.52735 -1.36523,0 -2.16796,-0.83789 -0.79688,-0.84375 -0.79688,-2.36133 0,-1.57031 0.80859,-2.4375 0.8086,-0.86719 2.09766,-0.86719 1.24805,0 2.03906,0.84961 0.79102,0.84961 0.79102,2.39063 0,0.0937 -0.006,0.28125 l -4.64063,0 q 0.0586,1.02539 0.58008,1.57031 0.52149,0.54492 1.30078,0.54492 0.58008,0 0.99024,-0.30469 0.41015,-0.30469 0.65039,-0.97265 z m -3.46289,-1.70508 3.47461,0 q -0.0703,-0.78516 -0.39844,-1.17774 -0.50391,-0.60937 -1.30664,-0.60937 -0.72656,0 -1.22461,0.48633 -0.49219,0.48632 -0.54492,1.30078 z"
             style="font-size:12px;font-family:Arial;text-anchor:start;fill:#222222;stroke:none;stroke-width:0"
             id="path3709" />
          <path
             d="m 235.76367,293.20001 0,-6.22265 0.94922,0 0,0.94336 q 0.36328,-0.66211 0.66797,-0.87305 0.31055,-0.21094 0.67969,-0.21094 0.5332,0 1.08398,0.33984 l -0.36328,0.97852 q -0.38672,-0.22852 -0.77344,-0.22852 -0.3457,0 -0.62109,0.21094 -0.27539,0.20508 -0.39258,0.57422 -0.17578,0.5625 -0.17578,1.23047 l 0,3.25781 -1.05469,0 z"
             style="font-size:12px;font-family:Arial;text-anchor:start;fill:#222222;stroke:none;stroke-width:0"
             id="path3711" />
        </g>
      </g>
      <path
         style="fill:#3366cc;stroke:none;stroke-width:0"
         d="m 172,283 24,0 0,12 -24,0 z"
         id="rect28" />
    </g>
    <g
       id="g30">
      <path
         style="fill:#ffffff;fill-opacity:0;stroke:none;stroke-width:0"
         d="m 258,283 71,0 0,12 -71,0 z"
         id="rect32" />
      <g
         id="g34">
        <g
           style="font-size:12px;font-family:Arial;text-anchor:start;fill:#222222;stroke:none;stroke-width:0"
           id="text36">
          <path
             d="m 287.92578,293.20001 0,-8.58984 3.24024,0 q 0.85546,0 1.30664,0.082 0.63281,0.10547 1.06054,0.4043 0.42774,0.29297 0.68555,0.82617 0.26367,0.5332 0.26367,1.17187 0,1.09571 -0.69726,1.85743 -0.69727,0.75585 -2.51954,0.75585 l -2.20312,0 0,3.49219 -1.13672,0 z m 1.13672,-4.50586 2.2207,0 q 1.10157,0 1.56446,-0.41015 0.46289,-0.41016 0.46289,-1.1543 0,-0.53906 -0.27539,-0.91992 -0.26954,-0.38672 -0.71485,-0.50977 -0.28711,-0.0762 -1.06054,-0.0762 l -2.19727,0 0,3.07031 z"
             style="font-size:12px;font-family:Arial;text-anchor:start;fill:#222222;stroke:none;stroke-width:0"
             id="path3716" />
          <path
             d="m 299.86133,293.20001 0,-0.91406 q -0.72656,1.05469 -1.97461,1.05469 -0.55078,0 -1.03125,-0.21094 -0.47461,-0.21094 -0.70899,-0.52734 -0.22851,-0.32227 -0.32226,-0.78516 -0.0645,-0.31055 -0.0645,-0.98438 l 0,-3.85546 1.05468,0 0,3.45117 q 0,0.82617 0.0645,1.11328 0.0996,0.41601 0.42187,0.65625 0.32227,0.23437 0.79688,0.23437 0.47461,0 0.89062,-0.24023 0.41602,-0.24609 0.58594,-0.66211 0.17578,-0.42187 0.17578,-1.21875 l 0,-3.33398 1.05469,0 0,6.22265 -0.94336,0 z"
             style="font-size:12px;font-family:Arial;text-anchor:start;fill:#222222;stroke:none;stroke-width:0"
             id="path3718" />
          <path
             d="m 302.45117,293.20001 0,-6.22265 0.94922,0 0,0.94336 q 0.36328,-0.66211 0.66797,-0.87305 0.31055,-0.21094 0.67969,-0.21094 0.5332,0 1.08398,0.33984 l -0.36328,0.97852 q -0.38672,-0.22852 -0.77344,-0.22852 -0.3457,0 -0.62109,0.21094 -0.27539,0.20508 -0.39258,0.57422 -0.17578,0.5625 -0.17578,1.23047 l 0,3.25781 -1.05469,0 z"
             style="font-size:12px;font-family:Arial;text-anchor:start;fill:#222222;stroke:none;stroke-width:0"
             id="path3720" />
          <path
             d="m 306.02539,291.34259 1.04297,-0.16406 q 0.0879,0.62695 0.48633,0.96094 0.40429,0.33398 1.125,0.33398 0.72656,0 1.07812,-0.29297 0.35156,-0.29883 0.35156,-0.69726 0,-0.35743 -0.31054,-0.5625 -0.2168,-0.14063 -1.07813,-0.35743 -1.16015,-0.29297 -1.61133,-0.5039 -0.44531,-0.2168 -0.67968,-0.5918 -0.22852,-0.38086 -0.22852,-0.83789 0,-0.41602 0.1875,-0.76758 0.19336,-0.35742 0.52149,-0.5918 0.24609,-0.18164 0.66796,-0.30468 0.42774,-0.12891 0.91407,-0.12891 0.73242,0 1.2832,0.21094 0.55664,0.21094 0.82031,0.57422 0.26367,0.35742 0.36328,0.96093 l -1.03125,0.14063 q -0.0703,-0.48047 -0.41015,-0.75 -0.33399,-0.26953 -0.94922,-0.26953 -0.72656,0 -1.03711,0.24023 -0.31055,0.24024 -0.31055,0.5625 0,0.20508 0.12891,0.36914 0.12891,0.16993 0.4043,0.28125 0.1582,0.0586 0.93164,0.26953 1.11914,0.29883 1.55859,0.49219 0.44531,0.1875 0.69727,0.55078 0.25195,0.36328 0.25195,0.90235 0,0.52734 -0.31055,0.99609 -0.30469,0.46289 -0.88476,0.7207 -0.58008,0.25196 -1.3125,0.25196 -1.21289,0 -1.85157,-0.50391 -0.63281,-0.50391 -0.80859,-1.49414 z"
             style="font-size:12px;font-family:Arial;text-anchor:start;fill:#222222;stroke:none;stroke-width:0"
             id="path3722" />
          <path
             d="m 316.52539,293.20001 0,-0.91406 q -0.72656,1.05469 -1.97461,1.05469 -0.55078,0 -1.03125,-0.21094 -0.47461,-0.21094 -0.70898,-0.52734 -0.22852,-0.32227 -0.32227,-0.78516 -0.0644,-0.31055 -0.0644,-0.98438 l 0,-3.85546 1.05469,0 0,3.45117 q 0,0.82617 0.0645,1.11328 0.0996,0.41601 0.42187,0.65625 0.32227,0.23437 0.79688,0.23437 0.47461,0 0.89062,-0.24023 0.41602,-0.24609 0.58594,-0.66211 0.17578,-0.42187 0.17578,-1.21875 l 0,-3.33398 1.05469,0 0,6.22265 -0.94336,0 z"
             style="font-size:12px;font-family:Arial;text-anchor:start;fill:#222222;stroke:none;stroke-width:0"
             id="path3724" />
          <path
             d="m 323.38672,291.19611 1.08984,0.13476 q -0.25781,0.95508 -0.95508,1.48242 -0.69726,0.52735 -1.78125,0.52735 -1.36523,0 -2.16796,-0.83789 -0.79688,-0.84375 -0.79688,-2.36133 0,-1.57031 0.80859,-2.4375 0.8086,-0.86719 2.09766,-0.86719 1.24805,0 2.03906,0.84961 0.79102,0.84961 0.79102,2.39063 0,0.0937 -0.006,0.28125 l -4.64063,0 q 0.0586,1.02539 0.58008,1.57031 0.52149,0.54492 1.30078,0.54492 0.58008,0 0.99024,-0.30469 0.41015,-0.30469 0.65039,-0.97265 z m -3.46289,-1.70508 3.47461,0 q -0.0703,-0.78516 -0.39844,-1.17774 -0.50391,-0.60937 -1.30664,-0.60937 -0.72656,0 -1.22461,0.48633 -0.49219,0.48632 -0.54492,1.30078 z"
             style="font-size:12px;font-family:Arial;text-anchor:start;fill:#222222;stroke:none;stroke-width:0"
             id="path3726" />
          <path
             d="m 325.79492,293.20001 0,-6.22265 0.94922,0 0,0.94336 q 0.36328,-0.66211 0.66797,-0.87305 0.31055,-0.21094 0.67969,-0.21094 0.5332,0 1.08398,0.33984 l -0.36328,0.97852 q -0.38672,-0.22852 -0.77344,-0.22852 -0.3457,0 -0.62109,0.21094 -0.27539,0.20508 -0.39258,0.57422 -0.17578,0.5625 -0.17578,1.23047 l 0,3.25781 -1.05469,0 z"
             style="font-size:12px;font-family:Arial;text-anchor:start;fill:#222222;stroke:none;stroke-width:0"
             id="path3728" />
        </g>
      </g>
      <path
         style="fill:#dc3912;stroke:none;stroke-width:0"
         d="m 258,283 24,0 0,12 -24,0 z"
         id="rect38" />
    </g>
  </g>
  <g
     id="g40">
    <path
       style="fill:#ffffff;fill-opacity:0;stroke:none;stroke-width:0"
       d="m 94,58 313,0 0,185 -313,0 z"
       id="rect42" />
    <g
       clip-path="url(http://localhost:63342/hc-with-streams/results/no-vpn/charts-no-vpn.html?_ijt=u56qd41ronnf9ukpg7bb82cuap#_ABSTRACT_RENDERER_ID_5)"
       id="g44">
      <g
         id="g46">
        <path
           style="fill:#cccccc;stroke:none;stroke-width:0"
           d="m 94,58 1,0 0,185 -1,0 z"
           id="rect48" />
        <path
           style="fill:#cccccc;stroke:none;stroke-width:0"
           d="m 250,58 1,0 0,185 -1,0 z"
           id="rect50" />
        <path
           style="fill:#cccccc;stroke:none;stroke-width:0"
           d="m 406,58 1,0 0,185 -1,0 z"
           id="rect52" />
        <path
           style="fill:#ebebeb;stroke:none;stroke-width:0"
           d="m 172,58 1,0 0,185 -1,0 z"
           id="rect54" />
        <path
           style="fill:#ebebeb;stroke:none;stroke-width:0"
           d="m 328,58 1,0 0,185 -1,0 z"
           id="rect56" />
      </g>
      <g
         id="g58">
        <path
           style="fill:#3366cc;stroke:none;stroke-width:0"
           d="m 95,67 155,0 0,14 -155,0 z"
           id="rect60" />
        <path
           style="fill:#3366cc;stroke:none;stroke-width:0"
           d="m 95,113 261,0 0,14 -261,0 z"
           id="rect62" />
        <path
           style="fill:#3366cc;stroke:none;stroke-width:0"
           d="m 95,159 213,0 0,14 -213,0 z"
           id="rect64" />
        <path
           style="fill:#3366cc;stroke:none;stroke-width:0"
           d="m 95,205 122,0 0,14 -122,0 z"
           id="rect66" />
        <path
           style="fill:#dc3912;stroke:none;stroke-width:0"
           d="m 95,82 155,0 0,14 -155,0 z"
           id="rect68" />
        <path
           style="fill:#dc3912;stroke:none;stroke-width:0"
           d="m 95,128 261,0 0,14 -261,0 z"
           id="rect70" />
        <path
           style="fill:#dc3912;stroke:none;stroke-width:0"
           d="m 95,174 206,0 0,14 -206,0 z"
           id="rect72" />
        <path
           style="fill:#dc3912;stroke:none;stroke-width:0"
           d="m 95,220 122,0 0,14 -122,0 z"
           id="rect74" />
      </g>
      <g
         id="g76">
        <path
           style="fill:#333333;stroke:none;stroke-width:0"
           d="m 94,58 1,0 0,185 -1,0 z"
           id="rect78" />
      </g>
      <g
         id="g80">
        <rect
           x="250"
           y="74"
           width="0"
           height="1"
           stroke="none"
           stroke-width="0"
           fill="#999999"
           id="rect82" />
        <rect
           x="356"
           y="120"
           width="0"
           height="1"
           stroke="none"
           stroke-width="0"
           fill="#999999"
           id="rect84" />
        <rect
           x="308"
           y="166"
           width="0"
           height="1"
           stroke="none"
           stroke-width="0"
           fill="#999999"
           id="rect86" />
        <rect
           x="217"
           y="212"
           width="0"
           height="1"
           stroke="none"
           stroke-width="0"
           fill="#999999"
           id="rect88" />
        <rect
           x="250"
           y="89"
           width="0"
           height="1"
           stroke="none"
           stroke-width="0"
           fill="#999999"
           id="rect90" />
        <rect
           x="356"
           y="135"
           width="0"
           height="1"
           stroke="none"
           stroke-width="0"
           fill="#999999"
           id="rect92" />
        <rect
           x="301"
           y="181"
           width="0"
           height="1"
           stroke="none"
           stroke-width="0"
           fill="#999999"
           id="rect94" />
        <rect
           x="217"
           y="227"
           width="0"
           height="1"
           stroke="none"
           stroke-width="0"
           fill="#999999"
           id="rect96" />
      </g>
    </g>
    <g
       id="g98" />
    <g
       id="g100">
      <g
         id="g102">
        <g
           style="font-size:12px;font-family:Arial;text-anchor:middle;fill:#444444;stroke:none;stroke-width:0"
           id="text104">
          <path
             d="m 91.658203,254.21368 q 0,-1.52343 0.310547,-2.44921 0.316406,-0.93165 0.931641,-1.43555 0.621093,-0.50391 1.558593,-0.50391 0.691407,0 1.212891,0.28125 0.521484,0.27539 0.861328,0.80274 0.339844,0.52148 0.533203,1.27734 0.19336,0.75 0.19336,2.02734 0,1.51172 -0.310547,2.44336 -0.310547,0.92578 -0.931641,1.43555 -0.615234,0.50391 -1.558594,0.50391 -1.242187,0 -1.951172,-0.89063 -0.849609,-1.07226 -0.849609,-3.49219 z m 1.083984,0 q 0,2.11524 0.492188,2.81836 0.498047,0.69727 1.224609,0.69727 0.726563,0 1.21875,-0.70313 0.498047,-0.70312 0.498047,-2.8125 0,-2.12109 -0.498047,-2.81836 -0.492187,-0.69726 -1.230468,-0.69726 -0.726563,0 -1.160157,0.61523 -0.544922,0.78516 -0.544922,2.90039 z"
             style="font-size:12px;font-family:Arial;text-anchor:middle;fill:#444444;stroke:none;stroke-width:0"
             id="path3570" />
        </g>
      </g>
      <g
         id="g106">
        <g
           style="font-size:12px;font-family:Arial;text-anchor:middle;fill:#444444;stroke:none;stroke-width:0"
           id="text108">
          <path
             d="m 244.95117,258.45001 -1.05469,0 0,-6.7207 q -0.38086,0.36328 -1.00195,0.72656 -0.61523,0.36328 -1.10742,0.54492 l 0,-1.01953 q 0.88476,-0.41601 1.54687,-1.00781 0.66211,-0.5918 0.9375,-1.14844 l 0.67969,0 0,8.625 z"
             style="font-size:12px;font-family:Arial;text-anchor:middle;fill:#444444;stroke:none;stroke-width:0"
             id="path3573" />
          <path
             d="m 247.6582,254.21368 q 0,-1.52343 0.31055,-2.44921 0.31641,-0.93165 0.93164,-1.43555 0.62109,-0.50391 1.55859,-0.50391 0.69141,0 1.21289,0.28125 0.52149,0.27539 0.86133,0.80274 0.33985,0.52148 0.53321,1.27734 0.19336,0.75 0.19336,2.02734 0,1.51172 -0.31055,2.44336 -0.31055,0.92578 -0.93164,1.43555 -0.61524,0.50391 -1.5586,0.50391 -1.24218,0 -1.95117,-0.89063 -0.84961,-1.07226 -0.84961,-3.49219 z m 1.08399,0 q 0,2.11524 0.49218,2.81836 0.49805,0.69727 1.22461,0.69727 0.72657,0 1.21875,-0.70313 0.49805,-0.70312 0.49805,-2.8125 0,-2.12109 -0.49805,-2.81836 -0.49218,-0.69726 -1.23046,-0.69726 -0.72657,0 -1.16016,0.61523 -0.54492,0.78516 -0.54492,2.90039 z"
             style="font-size:12px;font-family:Arial;text-anchor:middle;fill:#444444;stroke:none;stroke-width:0"
             id="path3575" />
          <path
             d="m 254.33789,254.21368 q 0,-1.52343 0.31055,-2.44921 0.3164,-0.93165 0.93164,-1.43555 0.62109,-0.50391 1.55859,-0.50391 0.69141,0 1.21289,0.28125 0.52149,0.27539 0.86133,0.80274 0.33984,0.52148 0.5332,1.27734 0.19336,0.75 0.19336,2.02734 0,1.51172 -0.31054,2.44336 -0.31055,0.92578 -0.93164,1.43555 -0.61524,0.50391 -1.5586,0.50391 -1.24219,0 -1.95117,-0.89063 -0.84961,-1.07226 -0.84961,-3.49219 z m 1.08398,0 q 0,2.11524 0.49219,2.81836 0.49805,0.69727 1.22461,0.69727 0.72656,0 1.21875,-0.70313 0.49805,-0.70312 0.49805,-2.8125 0,-2.12109 -0.49805,-2.81836 -0.49219,-0.69726 -1.23047,-0.69726 -0.72656,0 -1.16015,0.61523 -0.54493,0.78516 -0.54493,2.90039 z"
             style="font-size:12px;font-family:Arial;text-anchor:middle;fill:#444444;stroke:none;stroke-width:0"
             id="path3577" />
        </g>
      </g>
      <g
         id="g110">
        <g
           style="font-size:12px;font-family:Arial;text-anchor:middle;fill:#444444;stroke:none;stroke-width:0"
           id="text112">
          <path
             d="m 402.52148,257.43634 0,1.01367 -5.67773,0 q -0.0117,-0.38086 0.12305,-0.73242 0.21679,-0.58008 0.6914,-1.14258 0.48047,-0.5625 1.38282,-1.30078 1.40039,-1.14844 1.89257,-1.81641 0.49219,-0.67382 0.49219,-1.27148 0,-0.62695 -0.45117,-1.05469 -0.44531,-0.43359 -1.16602,-0.43359 -0.76172,0 -1.21875,0.45703 -0.45703,0.45703 -0.46289,1.26563 l -1.08398,-0.11133 q 0.11133,-1.21289 0.83789,-1.84571 0.72656,-0.63867 1.95117,-0.63867 1.23633,0 1.95703,0.68555 0.72071,0.68555 0.72071,1.69922 0,0.51562 -0.21094,1.01367 -0.21094,0.49805 -0.70313,1.04883 -0.48633,0.55078 -1.62304,1.51172 -0.94922,0.79687 -1.21875,1.08398 -0.26954,0.28125 -0.44532,0.56836 l 4.21289,0 z"
             style="font-size:12px;font-family:Arial;text-anchor:middle;fill:#444444;stroke:none;stroke-width:0"
             id="path3580" />
          <path
             d="m 403.6582,254.21368 q 0,-1.52343 0.31055,-2.44921 0.31641,-0.93165 0.93164,-1.43555 0.62109,-0.50391 1.55859,-0.50391 0.69141,0 1.21289,0.28125 0.52149,0.27539 0.86133,0.80274 0.33985,0.52148 0.53321,1.27734 0.19336,0.75 0.19336,2.02734 0,1.51172 -0.31055,2.44336 -0.31055,0.92578 -0.93164,1.43555 -0.61524,0.50391 -1.5586,0.50391 -1.24218,0 -1.95117,-0.89063 -0.84961,-1.07226 -0.84961,-3.49219 z m 1.08399,0 q 0,2.11524 0.49218,2.81836 0.49805,0.69727 1.22461,0.69727 0.72657,0 1.21875,-0.70313 0.49805,-0.70312 0.49805,-2.8125 0,-2.12109 -0.49805,-2.81836 -0.49218,-0.69726 -1.23046,-0.69726 -0.72657,0 -1.16016,0.61523 -0.54492,0.78516 -0.54492,2.90039 z"
             style="font-size:12px;font-family:Arial;text-anchor:middle;fill:#444444;stroke:none;stroke-width:0"
             id="path3582" />
          <path
             d="m 410.33789,254.21368 q 0,-1.52343 0.31055,-2.44921 0.3164,-0.93165 0.93164,-1.43555 0.62109,-0.50391 1.55859,-0.50391 0.69141,0 1.21289,0.28125 0.52149,0.27539 0.86133,0.80274 0.33984,0.52148 0.5332,1.27734 0.19336,0.75 0.19336,2.02734 0,1.51172 -0.31054,2.44336 -0.31055,0.92578 -0.93164,1.43555 -0.61524,0.50391 -1.5586,0.50391 -1.24219,0 -1.95117,-0.89063 -0.84961,-1.07226 -0.84961,-3.49219 z m 1.08398,0 q 0,2.11524 0.49219,2.81836 0.49805,0.69727 1.22461,0.69727 0.72656,0 1.21875,-0.70313 0.49805,-0.70312 0.49805,-2.8125 0,-2.12109 -0.49805,-2.81836 -0.49219,-0.69726 -1.23047,-0.69726 -0.72656,0 -1.16015,0.61523 -0.54493,0.78516 -0.54493,2.90039 z"
             style="font-size:12px;font-family:Arial;text-anchor:middle;fill:#444444;stroke:none;stroke-width:0"
             id="path3584" />
        </g>
      </g>
      <g
         id="g114">
        <g
           style="font-size:12px;font-family:Arial;text-anchor:end;fill:#222222;stroke:none;stroke-width:0"
           id="text116">
          <path
             d="m 40.210937,85.699997 0,-8.589844 1.710938,0 2.033203,6.082031 q 0.28125,0.84961 0.410156,1.271485 0.146485,-0.46875 0.457032,-1.376953 l 2.05664,-5.976563 1.529297,0 0,8.589844 -1.095703,0 0,-7.189453 -2.496094,7.189453 -1.02539,0 -2.484375,-7.3125 0,7.3125 -1.095704,0 z"
             style="font-size:12px;font-family:Arial;text-anchor:end;fill:#222222;stroke:none;stroke-width:0"
             id="path3587" />
          <path
             d="m 49.703125,82.588669 q 0,-1.728516 0.960937,-2.560547 0.802735,-0.691406 1.957032,-0.691406 1.283203,0 2.097656,0.84375 0.814453,0.83789 0.814453,2.320312 0,1.201172 -0.363281,1.892578 -0.357422,0.685547 -1.048828,1.066407 -0.685547,0.380859 -1.5,0.380859 -1.306641,0 -2.115235,-0.837891 -0.802734,-0.83789 -0.802734,-2.414062 z m 1.083984,0 q 0,1.195312 0.521485,1.792969 0.521484,0.591796 1.3125,0.591796 0.785156,0 1.30664,-0.597656 0.521485,-0.597656 0.521485,-1.822265 0,-1.154297 -0.527344,-1.746094 -0.521484,-0.597656 -1.300781,-0.597656 -0.791016,0 -1.3125,0.591796 -0.521485,0.591797 -0.521485,1.78711 z"
             style="font-size:12px;font-family:Arial;text-anchor:end;fill:#222222;stroke:none;stroke-width:0"
             id="path3589" />
          <path
             d="m 60.8125,85.699997 0,-0.785156 q -0.591797,0.925781 -1.740234,0.925781 -0.744141,0 -1.371094,-0.410156 -0.621094,-0.410157 -0.966797,-1.142578 -0.339844,-0.738282 -0.339844,-1.69336 0,-0.93164 0.310547,-1.6875 0.310547,-0.761719 0.931641,-1.166015 0.621093,-0.404297 1.388672,-0.404297 0.5625,0 1.001953,0.240234 0.439453,0.234375 0.714843,0.615234 l 0,-3.082031 1.048829,0 0,8.589844 -0.978516,0 z m -3.333984,-3.105469 q 0,1.195313 0.503906,1.78711 0.503906,0.591796 1.189453,0.591796 0.691406,0 1.171875,-0.5625 0.486328,-0.568359 0.486328,-1.728515 0,-1.277344 -0.492187,-1.875 -0.492188,-0.597656 -1.212891,-0.597656 -0.703125,0 -1.177734,0.574218 -0.46875,0.574219 -0.46875,1.810547 z"
             style="font-size:12px;font-family:Arial;text-anchor:end;fill:#222222;stroke:none;stroke-width:0"
             id="path3591" />
          <path
             d="m 67.691406,83.696091 1.089844,0.134765 q -0.257813,0.955078 -0.955078,1.482422 -0.697266,0.527344 -1.78125,0.527344 -1.365235,0 -2.167969,-0.837891 -0.796875,-0.84375 -0.796875,-2.361328 0,-1.570312 0.808594,-2.4375 0.808594,-0.867187 2.097656,-0.867187 1.248047,0 2.039063,0.849609 0.791015,0.849609 0.791015,2.390625 0,0.09375 -0.0059,0.28125 l -4.640625,0 q 0.05859,1.025391 0.580078,1.570313 0.521484,0.544921 1.300781,0.544921 0.580078,0 0.990235,-0.304687 0.410156,-0.304688 0.65039,-0.972656 z m -3.46289,-1.705078 3.474609,0 q -0.07031,-0.785157 -0.398438,-1.177735 -0.503906,-0.609375 -1.30664,-0.609375 -0.726563,0 -1.22461,0.486328 -0.492187,0.486328 -0.544921,1.300782 z"
             style="font-size:12px;font-family:Arial;text-anchor:end;fill:#222222;stroke:none;stroke-width:0"
             id="path3593" />
          <path
             d="m 70.087891,85.699997 0,-8.589844 1.054687,0 0,8.589844 -1.054687,0 z"
             style="font-size:12px;font-family:Arial;text-anchor:end;fill:#222222;stroke:none;stroke-width:0"
             id="path3595" />
          <path
             d="m 79.791016,85.699997 -1.054688,0 0,-6.720703 q -0.380859,0.363281 -1.001953,0.726562 -0.615234,0.363282 -1.107422,0.544922 l 0,-1.019531 q 0.884766,-0.416016 1.546875,-1.007813 0.662109,-0.591796 0.9375,-1.148437 l 0.679688,0 0,8.625 z"
             style="font-size:12px;font-family:Arial;text-anchor:end;fill:#222222;stroke:none;stroke-width:0"
             id="path3597" />
        </g>
      </g>
      <g
         id="g118">
        <g
           style="font-size:12px;font-family:Arial;text-anchor:end;fill:#222222;stroke:none;stroke-width:0"
           id="text120">
          <path
             d="m 40.210937,131.7 0,-8.58985 1.710938,0 2.033203,6.08203 q 0.28125,0.84961 0.410156,1.27149 0.146485,-0.46875 0.457032,-1.37695 l 2.05664,-5.97657 1.529297,0 0,8.58985 -1.095703,0 0,-7.18946 -2.496094,7.18946 -1.02539,0 -2.484375,-7.3125 0,7.3125 -1.095704,0 z"
             style="font-size:12px;font-family:Arial;text-anchor:end;fill:#222222;stroke:none;stroke-width:0"
             id="path3600" />
          <path
             d="m 49.703125,128.58867 q 0,-1.72852 0.960937,-2.56055 0.802735,-0.6914 1.957032,-0.6914 1.283203,0 2.097656,0.84375 0.814453,0.83789 0.814453,2.32031 0,1.20117 -0.363281,1.89258 -0.357422,0.68554 -1.048828,1.0664 -0.685547,0.38086 -1.5,0.38086 -1.306641,0 -2.115235,-0.83789 -0.802734,-0.83789 -0.802734,-2.41406 z m 1.083984,0 q 0,1.19531 0.521485,1.79297 0.521484,0.59179 1.3125,0.59179 0.785156,0 1.30664,-0.59765 0.521485,-0.59766 0.521485,-1.82227 0,-1.15429 -0.527344,-1.74609 -0.521484,-0.59766 -1.300781,-0.59766 -0.791016,0 -1.3125,0.5918 -0.521485,0.5918 -0.521485,1.78711 z"
             style="font-size:12px;font-family:Arial;text-anchor:end;fill:#222222;stroke:none;stroke-width:0"
             id="path3602" />
          <path
             d="m 60.8125,131.7 0,-0.78516 q -0.591797,0.92578 -1.740234,0.92578 -0.744141,0 -1.371094,-0.41015 -0.621094,-0.41016 -0.966797,-1.14258 -0.339844,-0.73828 -0.339844,-1.69336 0,-0.93164 0.310547,-1.6875 0.310547,-0.76172 0.931641,-1.16602 0.621093,-0.40429 1.388672,-0.40429 0.5625,0 1.001953,0.24023 0.439453,0.23438 0.714843,0.61523 l 0,-3.08203 1.048829,0 0,8.58985 -0.978516,0 z m -3.333984,-3.10547 q 0,1.19531 0.503906,1.78711 0.503906,0.59179 1.189453,0.59179 0.691406,0 1.171875,-0.5625 0.486328,-0.56835 0.486328,-1.72851 0,-1.27734 -0.492187,-1.875 -0.492188,-0.59766 -1.212891,-0.59766 -0.703125,0 -1.177734,0.57422 -0.46875,0.57422 -0.46875,1.81055 z"
             style="font-size:12px;font-family:Arial;text-anchor:end;fill:#222222;stroke:none;stroke-width:0"
             id="path3604" />
          <path
             d="m 67.691406,129.69609 1.089844,0.13477 q -0.257813,0.95507 -0.955078,1.48242 -0.697266,0.52734 -1.78125,0.52734 -1.365235,0 -2.167969,-0.83789 -0.796875,-0.84375 -0.796875,-2.36133 0,-1.57031 0.808594,-2.4375 0.808594,-0.86718 2.097656,-0.86718 1.248047,0 2.039063,0.84961 0.791015,0.8496 0.791015,2.39062 0,0.0937 -0.0059,0.28125 l -4.640625,0 q 0.05859,1.02539 0.580078,1.57031 0.521484,0.54492 1.300781,0.54492 0.580078,0 0.990235,-0.30468 0.410156,-0.30469 0.65039,-0.97266 z m -3.46289,-1.70508 3.474609,0 q -0.07031,-0.78515 -0.398438,-1.17773 -0.503906,-0.60938 -1.30664,-0.60938 -0.726563,0 -1.22461,0.48633 -0.492187,0.48633 -0.544921,1.30078 z"
             style="font-size:12px;font-family:Arial;text-anchor:end;fill:#222222;stroke:none;stroke-width:0"
             id="path3606" />
          <path
             d="m 70.087891,131.7 0,-8.58985 1.054687,0 0,8.58985 -1.054687,0 z"
             style="font-size:12px;font-family:Arial;text-anchor:end;fill:#222222;stroke:none;stroke-width:0"
             id="path3608" />
          <path
             d="m 81.361328,130.68633 0,1.01367 -5.677734,0 q -0.01172,-0.38086 0.123047,-0.73242 0.216796,-0.58008 0.691406,-1.14258 0.480469,-0.5625 1.382812,-1.30078 1.400391,-1.14844 1.892578,-1.81641 0.492188,-0.67383 0.492188,-1.27148 0,-0.62696 -0.451172,-1.05469 -0.445312,-0.4336 -1.166016,-0.4336 -0.761718,0 -1.21875,0.45704 -0.457031,0.45703 -0.46289,1.26562 l -1.083985,-0.11133 q 0.111329,-1.21289 0.837891,-1.8457 0.726563,-0.63867 1.951172,-0.63867 1.236328,0 1.957031,0.68554 0.720703,0.68555 0.720703,1.69922 0,0.51563 -0.210937,1.01367 -0.210938,0.49805 -0.703125,1.04883 -0.486328,0.55078 -1.623047,1.51172 -0.949219,0.79688 -1.21875,1.08399 -0.269531,0.28125 -0.445313,0.56836 l 4.212891,0 z"
             style="font-size:12px;font-family:Arial;text-anchor:end;fill:#222222;stroke:none;stroke-width:0"
             id="path3610" />
        </g>
      </g>
      <g
         id="g122">
        <g
           style="font-size:12px;font-family:Arial;text-anchor:end;fill:#222222;stroke:none;stroke-width:0"
           id="text124">
          <path
             d="m 40.210937,177.7 0,-8.58985 1.710938,0 2.033203,6.08203 q 0.28125,0.84961 0.410156,1.27149 0.146485,-0.46875 0.457032,-1.37695 l 2.05664,-5.97657 1.529297,0 0,8.58985 -1.095703,0 0,-7.18946 -2.496094,7.18946 -1.02539,0 -2.484375,-7.3125 0,7.3125 -1.095704,0 z"
             style="font-size:12px;font-family:Arial;text-anchor:end;fill:#222222;stroke:none;stroke-width:0"
             id="path3613" />
          <path
             d="m 49.703125,174.58867 q 0,-1.72852 0.960937,-2.56055 0.802735,-0.6914 1.957032,-0.6914 1.283203,0 2.097656,0.84375 0.814453,0.83789 0.814453,2.32031 0,1.20117 -0.363281,1.89258 -0.357422,0.68554 -1.048828,1.0664 -0.685547,0.38086 -1.5,0.38086 -1.306641,0 -2.115235,-0.83789 -0.802734,-0.83789 -0.802734,-2.41406 z m 1.083984,0 q 0,1.19531 0.521485,1.79297 0.521484,0.59179 1.3125,0.59179 0.785156,0 1.30664,-0.59765 0.521485,-0.59766 0.521485,-1.82227 0,-1.15429 -0.527344,-1.74609 -0.521484,-0.59766 -1.300781,-0.59766 -0.791016,0 -1.3125,0.5918 -0.521485,0.5918 -0.521485,1.78711 z"
             style="font-size:12px;font-family:Arial;text-anchor:end;fill:#222222;stroke:none;stroke-width:0"
             id="path3615" />
          <path
             d="m 60.8125,177.7 0,-0.78516 q -0.591797,0.92578 -1.740234,0.92578 -0.744141,0 -1.371094,-0.41015 -0.621094,-0.41016 -0.966797,-1.14258 -0.339844,-0.73828 -0.339844,-1.69336 0,-0.93164 0.310547,-1.6875 0.310547,-0.76172 0.931641,-1.16602 0.621093,-0.40429 1.388672,-0.40429 0.5625,0 1.001953,0.24023 0.439453,0.23438 0.714843,0.61523 l 0,-3.08203 1.048829,0 0,8.58985 -0.978516,0 z m -3.333984,-3.10547 q 0,1.19531 0.503906,1.78711 0.503906,0.59179 1.189453,0.59179 0.691406,0 1.171875,-0.5625 0.486328,-0.56835 0.486328,-1.72851 0,-1.27734 -0.492187,-1.875 -0.492188,-0.59766 -1.212891,-0.59766 -0.703125,0 -1.177734,0.57422 -0.46875,0.57422 -0.46875,1.81055 z"
             style="font-size:12px;font-family:Arial;text-anchor:end;fill:#222222;stroke:none;stroke-width:0"
             id="path3617" />
          <path
             d="m 67.691406,175.69609 1.089844,0.13477 q -0.257813,0.95507 -0.955078,1.48242 -0.697266,0.52734 -1.78125,0.52734 -1.365235,0 -2.167969,-0.83789 -0.796875,-0.84375 -0.796875,-2.36133 0,-1.57031 0.808594,-2.4375 0.808594,-0.86718 2.097656,-0.86718 1.248047,0 2.039063,0.84961 0.791015,0.8496 0.791015,2.39062 0,0.0937 -0.0059,0.28125 l -4.640625,0 q 0.05859,1.02539 0.580078,1.57031 0.521484,0.54492 1.300781,0.54492 0.580078,0 0.990235,-0.30468 0.410156,-0.30469 0.65039,-0.97266 z m -3.46289,-1.70508 3.474609,0 q -0.07031,-0.78515 -0.398438,-1.17773 -0.503906,-0.60938 -1.30664,-0.60938 -0.726563,0 -1.22461,0.48633 -0.492187,0.48633 -0.544921,1.30078 z"
             style="font-size:12px;font-family:Arial;text-anchor:end;fill:#222222;stroke:none;stroke-width:0"
             id="path3619" />
          <path
             d="m 70.087891,177.7 0,-8.58985 1.054687,0 0,8.58985 -1.054687,0 z"
             style="font-size:12px;font-family:Arial;text-anchor:end;fill:#222222;stroke:none;stroke-width:0"
             id="path3621" />
          <path
             d="m 75.824219,175.43242 1.054687,-0.14063 q 0.181641,0.89649 0.615235,1.29493 0.439453,0.39257 1.066406,0.39257 0.74414,0 1.253906,-0.51562 0.515625,-0.51563 0.515625,-1.27734 0,-0.72657 -0.474609,-1.19532 -0.47461,-0.47461 -1.207032,-0.47461 -0.298828,0 -0.74414,0.11719 l 0.117187,-0.92578 q 0.105469,0.0117 0.169922,0.0117 0.673828,0 1.212891,-0.35156 0.539062,-0.35157 0.539062,-1.08399 0,-0.58008 -0.392578,-0.96094 -0.392578,-0.38086 -1.013672,-0.38086 -0.615234,0 -1.02539,0.38672 -0.410157,0.38672 -0.527344,1.16016 l -1.054688,-0.1875 q 0.19336,-1.06055 0.878907,-1.64063 0.685547,-0.58593 1.705078,-0.58593 0.703125,0 1.294922,0.30468 0.591797,0.29883 0.902343,0.82032 0.316407,0.52148 0.316407,1.10742 0,0.55664 -0.298828,1.01367 -0.298829,0.45703 -0.884766,0.72656 0.761719,0.17578 1.183594,0.73243 0.421875,0.55078 0.421875,1.38281 0,1.125 -0.820313,1.91015 -0.820312,0.7793 -2.074219,0.7793 -1.130859,0 -1.880859,-0.67383 -0.744141,-0.67383 -0.849609,-1.74609 z"
             style="font-size:12px;font-family:Arial;text-anchor:end;fill:#222222;stroke:none;stroke-width:0"
             id="path3623" />
        </g>
      </g>
      <g
         id="g126">
        <g
           style="font-size:12px;font-family:Arial;text-anchor:end;fill:#222222;stroke:none;stroke-width:0"
           id="text128">
          <path
             d="m 40.210937,223.7 0,-8.58985 1.710938,0 2.033203,6.08203 q 0.28125,0.84961 0.410156,1.27149 0.146485,-0.46875 0.457032,-1.37695 l 2.05664,-5.97657 1.529297,0 0,8.58985 -1.095703,0 0,-7.18946 -2.496094,7.18946 -1.02539,0 -2.484375,-7.3125 0,7.3125 -1.095704,0 z"
             style="font-size:12px;font-family:Arial;text-anchor:end;fill:#222222;stroke:none;stroke-width:0"
             id="path3626" />
          <path
             d="m 49.703125,220.58867 q 0,-1.72852 0.960937,-2.56055 0.802735,-0.6914 1.957032,-0.6914 1.283203,0 2.097656,0.84375 0.814453,0.83789 0.814453,2.32031 0,1.20117 -0.363281,1.89258 -0.357422,0.68554 -1.048828,1.0664 -0.685547,0.38086 -1.5,0.38086 -1.306641,0 -2.115235,-0.83789 -0.802734,-0.83789 -0.802734,-2.41406 z m 1.083984,0 q 0,1.19531 0.521485,1.79297 0.521484,0.59179 1.3125,0.59179 0.785156,0 1.30664,-0.59765 0.521485,-0.59766 0.521485,-1.82227 0,-1.15429 -0.527344,-1.74609 -0.521484,-0.59766 -1.300781,-0.59766 -0.791016,0 -1.3125,0.5918 -0.521485,0.5918 -0.521485,1.78711 z"
             style="font-size:12px;font-family:Arial;text-anchor:end;fill:#222222;stroke:none;stroke-width:0"
             id="path3628" />
          <path
             d="m 60.8125,223.7 0,-0.78516 q -0.591797,0.92578 -1.740234,0.92578 -0.744141,0 -1.371094,-0.41015 -0.621094,-0.41016 -0.966797,-1.14258 -0.339844,-0.73828 -0.339844,-1.69336 0,-0.93164 0.310547,-1.6875 0.310547,-0.76172 0.931641,-1.16602 0.621093,-0.40429 1.388672,-0.40429 0.5625,0 1.001953,0.24023 0.439453,0.23438 0.714843,0.61523 l 0,-3.08203 1.048829,0 0,8.58985 -0.978516,0 z m -3.333984,-3.10547 q 0,1.19531 0.503906,1.78711 0.503906,0.59179 1.189453,0.59179 0.691406,0 1.171875,-0.5625 0.486328,-0.56835 0.486328,-1.72851 0,-1.27734 -0.492187,-1.875 -0.492188,-0.59766 -1.212891,-0.59766 -0.703125,0 -1.177734,0.57422 -0.46875,0.57422 -0.46875,1.81055 z"
             style="font-size:12px;font-family:Arial;text-anchor:end;fill:#222222;stroke:none;stroke-width:0"
             id="path3630" />
          <path
             d="m 67.691406,221.69609 1.089844,0.13477 q -0.257813,0.95507 -0.955078,1.48242 -0.697266,0.52734 -1.78125,0.52734 -1.365235,0 -2.167969,-0.83789 -0.796875,-0.84375 -0.796875,-2.36133 0,-1.57031 0.808594,-2.4375 0.808594,-0.86718 2.097656,-0.86718 1.248047,0 2.039063,0.84961 0.791015,0.8496 0.791015,2.39062 0,0.0937 -0.0059,0.28125 l -4.640625,0 q 0.05859,1.02539 0.580078,1.57031 0.521484,0.54492 1.300781,0.54492 0.580078,0 0.990235,-0.30468 0.410156,-0.30469 0.65039,-0.97266 z m -3.46289,-1.70508 3.474609,0 q -0.07031,-0.78515 -0.398438,-1.17773 -0.503906,-0.60938 -1.30664,-0.60938 -0.726563,0 -1.22461,0.48633 -0.492187,0.48633 -0.544921,1.30078 z"
             style="font-size:12px;font-family:Arial;text-anchor:end;fill:#222222;stroke:none;stroke-width:0"
             id="path3632" />
          <path
             d="m 70.087891,223.7 0,-8.58985 1.054687,0 0,8.58985 -1.054687,0 z"
             style="font-size:12px;font-family:Arial;text-anchor:end;fill:#222222;stroke:none;stroke-width:0"
             id="path3634" />
          <path
             d="m 79.199219,223.7 0,-2.05664 -3.726563,0 0,-0.9668 3.919922,-5.56641 0.861328,0 0,5.56641 1.160156,0 0,0.9668 -1.160156,0 0,2.05664 -1.054687,0 z m 0,-3.02344 0,-3.87305 -2.689453,3.87305 2.689453,0 z"
             style="font-size:12px;font-family:Arial;text-anchor:end;fill:#222222;stroke:none;stroke-width:0"
             id="path3636" />
        </g>
      </g>
    </g>
    <g
       id="g130">
      <g
         id="g132">
        <g
           id="g134">
          <g
             style="font-size:12px;font-family:Arial;text-anchor:end;fill:#ffffff;stroke:none;stroke-width:0"
             id="text136">
            <path
               d="m 230.43164,78.199997 -1.05469,0 0,-6.720703 q -0.38086,0.363281 -1.00195,0.726562 -0.61523,0.363282 -1.10742,0.544922 l 0,-1.019531 q 0.88476,-0.416016 1.54687,-1.007813 0.66211,-0.591796 0.9375,-1.148437 l 0.67969,0 0,8.625 z"
               style="font-size:12px;font-family:Arial;text-anchor:end;fill:#ffffff;stroke:none;stroke-width:0"
               id="path3639" />
            <path
               d="m 233.13867,73.963669 q 0,-1.523438 0.31055,-2.449219 0.3164,-0.931641 0.93164,-1.435547 0.62109,-0.503906 1.55859,-0.503906 0.69141,0 1.21289,0.28125 0.52149,0.275391 0.86133,0.802734 0.33985,0.521485 0.5332,1.277344 0.19336,0.75 0.19336,2.027344 0,1.511719 -0.31054,2.443359 -0.31055,0.925781 -0.93164,1.435547 -0.61524,0.503906 -1.5586,0.503906 -1.24218,0 -1.95117,-0.890625 -0.84961,-1.072265 -0.84961,-3.492187 z m 1.08399,0 q 0,2.115234 0.49218,2.818359 0.49805,0.697266 1.22461,0.697266 0.72657,0 1.21875,-0.703125 0.49805,-0.703125 0.49805,-2.8125 0,-2.121094 -0.49805,-2.81836 -0.49218,-0.697265 -1.23047,-0.697265 -0.72656,0 -1.16015,0.615234 -0.54492,0.785156 -0.54492,2.900391 z"
               style="font-size:12px;font-family:Arial;text-anchor:end;fill:#ffffff;stroke:none;stroke-width:0"
               id="path3641" />
            <path
               d="m 239.81836,73.963669 q 0,-1.523438 0.31055,-2.449219 0.3164,-0.931641 0.93164,-1.435547 0.62109,-0.503906 1.55859,-0.503906 0.69141,0 1.21289,0.28125 0.52149,0.275391 0.86133,0.802734 0.33984,0.521485 0.5332,1.277344 0.19336,0.75 0.19336,2.027344 0,1.511719 -0.31055,2.443359 -0.31054,0.925781 -0.93164,1.435547 -0.61523,0.503906 -1.55859,0.503906 -1.24219,0 -1.95117,-0.890625 -0.84961,-1.072265 -0.84961,-3.492187 z m 1.08398,0 q 0,2.115234 0.49219,2.818359 0.49805,0.697266 1.22461,0.697266 0.72656,0 1.21875,-0.703125 0.49805,-0.703125 0.49805,-2.8125 0,-2.121094 -0.49805,-2.81836 -0.49219,-0.697265 -1.23047,-0.697265 -0.72656,0 -1.16015,0.615234 -0.54493,0.785156 -0.54493,2.900391 z"
               style="font-size:12px;font-family:Arial;text-anchor:end;fill:#ffffff;stroke:none;stroke-width:0"
               id="path3643" />
          </g>
          <path
             style="fill:#ffffff;fill-opacity:0;stroke:none;stroke-width:0"
             d="m 226,68 20,0 0,12 -20,0 z"
             id="rect138" />
        </g>
      </g>
      <g
         id="g140">
        <g
           id="g142">
          <g
             style="font-size:12px;font-family:Arial;text-anchor:end;fill:#ffffff;stroke:none;stroke-width:0"
             id="text144">
            <path
               d="m 336.43164,124.2 -1.05469,0 0,-6.72071 q -0.38086,0.36329 -1.00195,0.72657 -0.61523,0.36328 -1.10742,0.54492 l 0,-1.01953 q 0.88476,-0.41602 1.54687,-1.00782 0.66211,-0.59179 0.9375,-1.14843 l 0.67969,0 0,8.625 z"
               style="font-size:12px;font-family:Arial;text-anchor:end;fill:#ffffff;stroke:none;stroke-width:0"
               id="path3647" />
            <path
               d="m 344.61133,117.71367 -1.04883,0.082 q -0.14063,-0.62109 -0.39844,-0.90234 -0.42773,-0.45118 -1.05469,-0.45118 -0.5039,0 -0.88476,0.28125 -0.49805,0.36329 -0.78516,1.06055 -0.28711,0.69727 -0.29883,1.98633 0.38086,-0.58008 0.93165,-0.86133 0.55078,-0.28125 1.15429,-0.28125 1.05469,0 1.79297,0.7793 0.74414,0.77344 0.74414,2.0039 0,0.8086 -0.35156,1.50586 -0.3457,0.69141 -0.95508,1.06055 -0.60937,0.36914 -1.38281,0.36914 -1.31836,0 -2.15039,-0.9668 -0.83203,-0.97265 -0.83203,-3.19921 0,-2.49024 0.91992,-3.6211 0.80273,-0.98437 2.16211,-0.98437 1.01367,0 1.6582,0.56836 0.65039,0.56836 0.7793,1.57031 z m -4.30664,3.70312 q 0,0.54493 0.22851,1.04297 0.23438,0.49805 0.65039,0.76172 0.41602,0.25781 0.87305,0.25781 0.66797,0 1.14844,-0.53906 0.48047,-0.53906 0.48047,-1.46484 0,-0.89063 -0.47461,-1.40039 -0.47461,-0.51563 -1.19532,-0.51563 -0.71484,0 -1.21289,0.51563 -0.49804,0.50976 -0.49804,1.34179 z"
               style="font-size:12px;font-family:Arial;text-anchor:end;fill:#ffffff;stroke:none;stroke-width:0"
               id="path3649" />
            <path
               d="m 347.44141,119.54179 q -0.65625,-0.24023 -0.97266,-0.68554 -0.31641,-0.44532 -0.31641,-1.06641 0,-0.9375 0.67383,-1.57617 0.67383,-0.63867 1.79297,-0.63867 1.125,0 1.81055,0.65625 0.68554,0.65039 0.68554,1.58789 0,0.59765 -0.3164,1.04297 -0.31055,0.43945 -0.94922,0.67968 0.79101,0.25782 1.20117,0.83204 0.41602,0.57421 0.41602,1.37109 0,1.10156 -0.7793,1.85156 -0.7793,0.75 -2.05078,0.75 -1.27149,0 -2.05078,-0.75 -0.7793,-0.75586 -0.7793,-1.88086 0,-0.83789 0.42188,-1.40039 0.42773,-0.56836 1.21289,-0.77344 z m -0.21094,-1.78711 q 0,0.60938 0.39258,0.9961 0.39257,0.38672 1.01953,0.38672 0.60937,0 0.99609,-0.38086 0.39258,-0.38672 0.39258,-0.94336 0,-0.58008 -0.4043,-0.97266 -0.39843,-0.39844 -0.99609,-0.39844 -0.60352,0 -1.00195,0.38672 -0.39844,0.38672 -0.39844,0.92578 z m -0.33985,3.9668 q 0,0.45117 0.21094,0.87305 0.2168,0.42187 0.63867,0.65625 0.42188,0.22851 0.90821,0.22851 0.75586,0 1.24804,-0.48632 0.49219,-0.48633 0.49219,-1.23633 0,-0.76172 -0.50976,-1.25977 -0.50391,-0.49804 -1.26563,-0.49804 -0.74414,0 -1.23633,0.49218 -0.48633,0.49219 -0.48633,1.23047 z"
               style="font-size:12px;font-family:Arial;text-anchor:end;fill:#ffffff;stroke:none;stroke-width:0"
               id="path3651" />
          </g>
          <path
             style="fill:#ffffff;fill-opacity:0;stroke:none;stroke-width:0"
             d="m 332,114 20,0 0,12 -20,0 z"
             id="rect146" />
        </g>
      </g>
      <g
         id="g148">
        <g
           id="g150">
          <g
             style="font-size:12px;font-family:Arial;text-anchor:end;fill:#ffffff;stroke:none;stroke-width:0"
             id="text152">
            <path
               d="m 288.43164,170.2 -1.05469,0 0,-6.72071 q -0.38086,0.36329 -1.00195,0.72657 -0.61523,0.36328 -1.10742,0.54492 l 0,-1.01953 q 0.88476,-0.41602 1.54687,-1.00782 0.66211,-0.59179 0.9375,-1.14843 l 0.67969,0 0,8.625 z"
               style="font-size:12px;font-family:Arial;text-anchor:end;fill:#ffffff;stroke:none;stroke-width:0"
               id="path3655" />
            <path
               d="m 291.14453,167.93242 1.05469,-0.14063 q 0.18164,0.89649 0.61523,1.29493 0.43946,0.39257 1.06641,0.39257 0.74414,0 1.25391,-0.51562 0.51562,-0.51563 0.51562,-1.27734 0,-0.72657 -0.47461,-1.19532 -0.47461,-0.47461 -1.20703,-0.47461 -0.29883,0 -0.74414,0.11719 l 0.11719,-0.92578 q 0.10547,0.0117 0.16992,0.0117 0.67383,0 1.21289,-0.35156 0.53906,-0.35157 0.53906,-1.08399 0,-0.58008 -0.39258,-0.96094 -0.39257,-0.38086 -1.01367,-0.38086 -0.61523,0 -1.02539,0.38672 -0.41016,0.38672 -0.52734,1.16016 l -1.05469,-0.1875 q 0.19336,-1.06055 0.87891,-1.64063 0.68554,-0.58593 1.70507,-0.58593 0.70313,0 1.29493,0.30468 0.59179,0.29883 0.90234,0.82032 0.31641,0.52148 0.31641,1.10742 0,0.55664 -0.29883,1.01367 -0.29883,0.45703 -0.88477,0.72656 0.76172,0.17578 1.1836,0.73243 0.42187,0.55078 0.42187,1.38281 0,1.125 -0.82031,1.91015 -0.82031,0.7793 -2.07422,0.7793 -1.13086,0 -1.88086,-0.67383 -0.74414,-0.67383 -0.84961,-1.74609 z"
               style="font-size:12px;font-family:Arial;text-anchor:end;fill:#ffffff;stroke:none;stroke-width:0"
               id="path3657" />
            <path
               d="m 297.88867,162.73515 0,-1.01367 5.56055,0 0,0.82031 q -0.82031,0.87305 -1.62891,2.32032 -0.80273,1.44726 -1.24219,2.97656 -0.3164,1.07812 -0.40429,2.36133 l -1.08399,0 q 0.0176,-1.01367 0.39844,-2.44922 0.38086,-1.43555 1.08984,-2.76563 0.71485,-1.33593 1.51758,-2.25 l -4.20703,0 z"
               style="font-size:12px;font-family:Arial;text-anchor:end;fill:#ffffff;stroke:none;stroke-width:0"
               id="path3659" />
          </g>
          <path
             style="fill:#ffffff;fill-opacity:0;stroke:none;stroke-width:0"
             d="m 284,160 20,0 0,12 -20,0 z"
             id="rect154" />
        </g>
      </g>
      <g
         id="g156">
        <g
           id="g158">
          <g
             style="font-size:12px;font-family:Arial;text-anchor:end;fill:#ffffff;stroke:none;stroke-width:0"
             id="text160">
            <path
               d="m 200.20898,208.73515 0,-1.01367 5.56055,0 0,0.82031 q -0.82031,0.87305 -1.62891,2.32032 -0.80273,1.44726 -1.24218,2.97656 -0.31641,1.07812 -0.4043,2.36133 l -1.08398,0 q 0.0176,-1.01367 0.39843,-2.44922 0.38086,-1.43555 1.08985,-2.76563 0.71484,-1.33593 1.51758,-2.25 l -4.20704,0 z"
               style="font-size:12px;font-family:Arial;text-anchor:end;fill:#ffffff;stroke:none;stroke-width:0"
               id="path3663" />
            <path
               d="m 206.97656,214.21367 1.01367,-0.0937 q 0.12891,0.71484 0.49219,1.03711 0.36328,0.32226 0.93164,0.32226 0.48633,0 0.84961,-0.22265 0.36914,-0.22266 0.60352,-0.5918 0.23437,-0.375 0.39258,-1.00781 0.1582,-0.63281 0.1582,-1.28906 0,-0.0703 -0.006,-0.21094 -0.31641,0.5039 -0.86719,0.82031 -0.54492,0.31055 -1.18359,0.31055 -1.06641,0 -1.80469,-0.77344 -0.73828,-0.77344 -0.73828,-2.03906 0,-1.30664 0.76758,-2.10352 0.77343,-0.79687 1.93359,-0.79687 0.83789,0 1.5293,0.45117 0.69726,0.45117 1.05469,1.28906 0.36328,0.83203 0.36328,2.41406 0,1.64649 -0.35743,2.625 -0.35742,0.97266 -1.0664,1.48243 -0.70313,0.50976 -1.65235,0.50976 -1.00781,0 -1.64648,-0.55664 -0.63867,-0.5625 -0.76758,-1.57617 z m 4.31836,-3.79102 q 0,-0.9082 -0.48633,-1.4414 -0.48047,-0.53321 -1.16015,-0.53321 -0.70313,0 -1.22461,0.57422 -0.52149,0.57422 -0.52149,1.48828 0,0.82032 0.49219,1.33594 0.49805,0.50977 1.22461,0.50977 0.73242,0 1.20117,-0.50977 0.47461,-0.51562 0.47461,-1.42383 z"
               style="font-size:12px;font-family:Arial;text-anchor:end;fill:#ffffff;stroke:none;stroke-width:0"
               id="path3665" />
          </g>
          <path
             style="fill:#ffffff;fill-opacity:0;stroke:none;stroke-width:0"
             d="m 199,206 14,0 0,12 -14,0 z"
             id="rect162" />
        </g>
      </g>
      <g
         id="g164">
        <g
           id="g166">
          <g
             style="font-size:12px;font-family:Arial;text-anchor:end;fill:#ffffff;stroke:none;stroke-width:0"
             id="text168">
            <path
               d="m 230.43164,93.199997 -1.05469,0 0,-6.720703 q -0.38086,0.363281 -1.00195,0.726562 -0.61523,0.363282 -1.10742,0.544922 l 0,-1.019531 q 0.88476,-0.416016 1.54687,-1.007813 0.66211,-0.591796 0.9375,-1.148437 l 0.67969,0 0,8.625 z"
               style="font-size:12px;font-family:Arial;text-anchor:end;fill:#ffffff;stroke:none;stroke-width:0"
               id="path3669" />
            <path
               d="m 233.13867,88.963669 q 0,-1.523438 0.31055,-2.449219 0.3164,-0.931641 0.93164,-1.435547 0.62109,-0.503906 1.55859,-0.503906 0.69141,0 1.21289,0.28125 0.52149,0.275391 0.86133,0.802734 0.33985,0.521485 0.5332,1.277344 0.19336,0.75 0.19336,2.027344 0,1.511719 -0.31054,2.443359 -0.31055,0.925781 -0.93164,1.435547 -0.61524,0.503906 -1.5586,0.503906 -1.24218,0 -1.95117,-0.890625 -0.84961,-1.072265 -0.84961,-3.492187 z m 1.08399,0 q 0,2.115234 0.49218,2.818359 0.49805,0.697266 1.22461,0.697266 0.72657,0 1.21875,-0.703125 0.49805,-0.703125 0.49805,-2.8125 0,-2.121094 -0.49805,-2.81836 -0.49218,-0.697265 -1.23047,-0.697265 -0.72656,0 -1.16015,0.615234 -0.54492,0.785156 -0.54492,2.900391 z"
               style="font-size:12px;font-family:Arial;text-anchor:end;fill:#ffffff;stroke:none;stroke-width:0"
               id="path3671" />
            <path
               d="m 239.81836,88.963669 q 0,-1.523438 0.31055,-2.449219 0.3164,-0.931641 0.93164,-1.435547 0.62109,-0.503906 1.55859,-0.503906 0.69141,0 1.21289,0.28125 0.52149,0.275391 0.86133,0.802734 0.33984,0.521485 0.5332,1.277344 0.19336,0.75 0.19336,2.027344 0,1.511719 -0.31055,2.443359 -0.31054,0.925781 -0.93164,1.435547 -0.61523,0.503906 -1.55859,0.503906 -1.24219,0 -1.95117,-0.890625 -0.84961,-1.072265 -0.84961,-3.492187 z m 1.08398,0 q 0,2.115234 0.49219,2.818359 0.49805,0.697266 1.22461,0.697266 0.72656,0 1.21875,-0.703125 0.49805,-0.703125 0.49805,-2.8125 0,-2.121094 -0.49805,-2.81836 -0.49219,-0.697265 -1.23047,-0.697265 -0.72656,0 -1.16015,0.615234 -0.54493,0.785156 -0.54493,2.900391 z"
               style="font-size:12px;font-family:Arial;text-anchor:end;fill:#ffffff;stroke:none;stroke-width:0"
               id="path3673" />
          </g>
          <path
             style="fill:#ffffff;fill-opacity:0;stroke:none;stroke-width:0"
             d="m 226,83 20,0 0,12 -20,0 z"
             id="rect170" />
        </g>
      </g>
      <g
         id="g172">
        <g
           id="g174">
          <g
             style="font-size:12px;font-family:Arial;text-anchor:end;fill:#ffffff;stroke:none;stroke-width:0"
             id="text176">
            <path
               d="m 336.43164,139.2 -1.05469,0 0,-6.72071 q -0.38086,0.36329 -1.00195,0.72657 -0.61523,0.36328 -1.10742,0.54492 l 0,-1.01953 q 0.88476,-0.41602 1.54687,-1.00782 0.66211,-0.59179 0.9375,-1.14843 l 0.67969,0 0,8.625 z"
               style="font-size:12px;font-family:Arial;text-anchor:end;fill:#ffffff;stroke:none;stroke-width:0"
               id="path3677" />
            <path
               d="m 344.61133,132.71367 -1.04883,0.082 q -0.14063,-0.62109 -0.39844,-0.90234 -0.42773,-0.45118 -1.05469,-0.45118 -0.5039,0 -0.88476,0.28125 -0.49805,0.36329 -0.78516,1.06055 -0.28711,0.69727 -0.29883,1.98633 0.38086,-0.58008 0.93165,-0.86133 0.55078,-0.28125 1.15429,-0.28125 1.05469,0 1.79297,0.7793 0.74414,0.77344 0.74414,2.0039 0,0.8086 -0.35156,1.50586 -0.3457,0.69141 -0.95508,1.06055 -0.60937,0.36914 -1.38281,0.36914 -1.31836,0 -2.15039,-0.9668 -0.83203,-0.97265 -0.83203,-3.19921 0,-2.49024 0.91992,-3.6211 0.80273,-0.98437 2.16211,-0.98437 1.01367,0 1.6582,0.56836 0.65039,0.56836 0.7793,1.57031 z m -4.30664,3.70312 q 0,0.54493 0.22851,1.04297 0.23438,0.49805 0.65039,0.76172 0.41602,0.25781 0.87305,0.25781 0.66797,0 1.14844,-0.53906 0.48047,-0.53906 0.48047,-1.46484 0,-0.89063 -0.47461,-1.40039 -0.47461,-0.51563 -1.19532,-0.51563 -0.71484,0 -1.21289,0.51563 -0.49804,0.50976 -0.49804,1.34179 z"
               style="font-size:12px;font-family:Arial;text-anchor:end;fill:#ffffff;stroke:none;stroke-width:0"
               id="path3679" />
            <path
               d="m 347.44141,134.54179 q -0.65625,-0.24023 -0.97266,-0.68554 -0.31641,-0.44532 -0.31641,-1.06641 0,-0.9375 0.67383,-1.57617 0.67383,-0.63867 1.79297,-0.63867 1.125,0 1.81055,0.65625 0.68554,0.65039 0.68554,1.58789 0,0.59765 -0.3164,1.04297 -0.31055,0.43945 -0.94922,0.67968 0.79101,0.25782 1.20117,0.83204 0.41602,0.57421 0.41602,1.37109 0,1.10156 -0.7793,1.85156 -0.7793,0.75 -2.05078,0.75 -1.27149,0 -2.05078,-0.75 -0.7793,-0.75586 -0.7793,-1.88086 0,-0.83789 0.42188,-1.40039 0.42773,-0.56836 1.21289,-0.77344 z m -0.21094,-1.78711 q 0,0.60938 0.39258,0.9961 0.39257,0.38672 1.01953,0.38672 0.60937,0 0.99609,-0.38086 0.39258,-0.38672 0.39258,-0.94336 0,-0.58008 -0.4043,-0.97266 -0.39843,-0.39844 -0.99609,-0.39844 -0.60352,0 -1.00195,0.38672 -0.39844,0.38672 -0.39844,0.92578 z m -0.33985,3.9668 q 0,0.45117 0.21094,0.87305 0.2168,0.42187 0.63867,0.65625 0.42188,0.22851 0.90821,0.22851 0.75586,0 1.24804,-0.48632 0.49219,-0.48633 0.49219,-1.23633 0,-0.76172 -0.50976,-1.25977 -0.50391,-0.49804 -1.26563,-0.49804 -0.74414,0 -1.23633,0.49218 -0.48633,0.49219 -0.48633,1.23047 z"
               style="font-size:12px;font-family:Arial;text-anchor:end;fill:#ffffff;stroke:none;stroke-width:0"
               id="path3681" />
          </g>
          <path
             style="fill:#ffffff;fill-opacity:0;stroke:none;stroke-width:0"
             d="m 332,129 20,0 0,12 -20,0 z"
             id="rect178" />
        </g>
      </g>
      <g
         id="g180">
        <g
           id="g182">
          <g
             style="font-size:12px;font-family:Arial;text-anchor:end;fill:#ffffff;stroke:none;stroke-width:0"
             id="text184">
            <path
               d="m 281.43164,185.2 -1.05469,0 0,-6.72071 q -0.38086,0.36329 -1.00195,0.72657 -0.61523,0.36328 -1.10742,0.54492 l 0,-1.01953 q 0.88476,-0.41602 1.54687,-1.00782 0.66211,-0.59179 0.9375,-1.14843 l 0.67969,0 0,8.625 z"
               style="font-size:12px;font-family:Arial;text-anchor:end;fill:#ffffff;stroke:none;stroke-width:0"
               id="path3685" />
            <path
               d="m 284.14453,182.93242 1.05469,-0.14063 q 0.18164,0.89649 0.61523,1.29493 0.43946,0.39257 1.06641,0.39257 0.74414,0 1.25391,-0.51562 0.51562,-0.51563 0.51562,-1.27734 0,-0.72657 -0.47461,-1.19532 -0.47461,-0.47461 -1.20703,-0.47461 -0.29883,0 -0.74414,0.11719 l 0.11719,-0.92578 q 0.10547,0.0117 0.16992,0.0117 0.67383,0 1.21289,-0.35156 0.53906,-0.35157 0.53906,-1.08399 0,-0.58008 -0.39258,-0.96094 -0.39257,-0.38086 -1.01367,-0.38086 -0.61523,0 -1.02539,0.38672 -0.41016,0.38672 -0.52734,1.16016 l -1.05469,-0.1875 q 0.19336,-1.06055 0.87891,-1.64063 0.68554,-0.58593 1.70507,-0.58593 0.70313,0 1.29493,0.30468 0.59179,0.29883 0.90234,0.82032 0.31641,0.52148 0.31641,1.10742 0,0.55664 -0.29883,1.01367 -0.29883,0.45703 -0.88477,0.72656 0.76172,0.17578 1.1836,0.73243 0.42187,0.55078 0.42187,1.38281 0,1.125 -0.82031,1.91015 -0.82031,0.7793 -2.07422,0.7793 -1.13086,0 -1.88086,-0.67383 -0.74414,-0.67383 -0.84961,-1.74609 z"
               style="font-size:12px;font-family:Arial;text-anchor:end;fill:#ffffff;stroke:none;stroke-width:0"
               id="path3687" />
            <path
               d="m 290.82422,182.93242 1.05469,-0.14063 q 0.18164,0.89649 0.61523,1.29493 0.43945,0.39257 1.06641,0.39257 0.74414,0 1.2539,-0.51562 0.51563,-0.51563 0.51563,-1.27734 0,-0.72657 -0.47461,-1.19532 -0.47461,-0.47461 -1.20703,-0.47461 -0.29883,0 -0.74414,0.11719 l 0.11718,-0.92578 q 0.10547,0.0117 0.16993,0.0117 0.67382,0 1.21289,-0.35156 0.53906,-0.35157 0.53906,-1.08399 0,-0.58008 -0.39258,-0.96094 -0.39258,-0.38086 -1.01367,-0.38086 -0.61524,0 -1.02539,0.38672 -0.41016,0.38672 -0.52735,1.16016 l -1.05468,-0.1875 q 0.19336,-1.06055 0.8789,-1.64063 0.68555,-0.58593 1.70508,-0.58593 0.70313,0 1.29492,0.30468 0.5918,0.29883 0.90235,0.82032 0.3164,0.52148 0.3164,1.10742 0,0.55664 -0.29882,1.01367 -0.29883,0.45703 -0.88477,0.72656 0.76172,0.17578 1.18359,0.73243 0.42188,0.55078 0.42188,1.38281 0,1.125 -0.82031,1.91015 -0.82032,0.7793 -2.07422,0.7793 -1.13086,0 -1.88086,-0.67383 -0.74414,-0.67383 -0.84961,-1.74609 z"
               style="font-size:12px;font-family:Arial;text-anchor:end;fill:#ffffff;stroke:none;stroke-width:0"
               id="path3689" />
          </g>
          <path
             style="fill:#ffffff;fill-opacity:0;stroke:none;stroke-width:0"
             d="m 277,175 20,0 0,12 -20,0 z"
             id="rect186" />
        </g>
      </g>
      <g
         id="g188">
        <g
           id="g190">
          <g
             style="font-size:12px;font-family:Arial;text-anchor:end;fill:#ffffff;stroke:none;stroke-width:0"
             id="text192">
            <path
               d="m 200.20898,223.73515 0,-1.01367 5.56055,0 0,0.82031 q -0.82031,0.87305 -1.62891,2.32032 -0.80273,1.44726 -1.24218,2.97656 -0.31641,1.07812 -0.4043,2.36133 l -1.08398,0 q 0.0176,-1.01367 0.39843,-2.44922 0.38086,-1.43555 1.08985,-2.76563 0.71484,-1.33593 1.51758,-2.25 l -4.20704,0 z"
               style="font-size:12px;font-family:Arial;text-anchor:end;fill:#ffffff;stroke:none;stroke-width:0"
               id="path3693" />
            <path
               d="m 206.97656,229.21367 1.01367,-0.0937 q 0.12891,0.71484 0.49219,1.03711 0.36328,0.32226 0.93164,0.32226 0.48633,0 0.84961,-0.22265 0.36914,-0.22266 0.60352,-0.5918 0.23437,-0.375 0.39258,-1.00781 0.1582,-0.63281 0.1582,-1.28906 0,-0.0703 -0.006,-0.21094 -0.31641,0.5039 -0.86719,0.82031 -0.54492,0.31055 -1.18359,0.31055 -1.06641,0 -1.80469,-0.77344 -0.73828,-0.77344 -0.73828,-2.03906 0,-1.30664 0.76758,-2.10352 0.77343,-0.79687 1.93359,-0.79687 0.83789,0 1.5293,0.45117 0.69726,0.45117 1.05469,1.28906 0.36328,0.83203 0.36328,2.41406 0,1.64649 -0.35743,2.625 -0.35742,0.97266 -1.0664,1.48243 -0.70313,0.50976 -1.65235,0.50976 -1.00781,0 -1.64648,-0.55664 -0.63867,-0.5625 -0.76758,-1.57617 z m 4.31836,-3.79102 q 0,-0.9082 -0.48633,-1.4414 -0.48047,-0.53321 -1.16015,-0.53321 -0.70313,0 -1.22461,0.57422 -0.52149,0.57422 -0.52149,1.48828 0,0.82032 0.49219,1.33594 0.49805,0.50977 1.22461,0.50977 0.73242,0 1.20117,-0.50977 0.47461,-0.51562 0.47461,-1.42383 z"
               style="font-size:12px;font-family:Arial;text-anchor:end;fill:#ffffff;stroke:none;stroke-width:0"
               id="path3695" />
          </g>
          <path
             style="fill:#ffffff;fill-opacity:0;stroke:none;stroke-width:0"
             d="m 199,221 14,0 0,12 -14,0 z"
             id="rect194" />
        </g>
      </g>
    </g>
  </g>
  <g
     id="g196">
    <g
       id="g198">
      <g
         style="font-style:italic;font-size:12px;font-family:Arial;text-anchor:middle;fill:#222222;stroke:none;stroke-width:0"
         id="text200">
        <path
           d="m 226.24805,275.70001 1.58789,-7.61133 -2.81836,0 0.20508,-0.97851 6.76171,0 -0.20507,0.97851 -2.79493,0 -1.58789,7.61133 -1.14843,0 z"
           style="font-style:italic;font-size:12px;font-family:Arial;text-anchor:middle;fill:#222222;stroke:none;stroke-width:0"
           id="path3537" />
        <path
           d="m 232.66992,268.31134 0.25195,-1.20117 1.05469,0 -0.25195,1.20117 -1.05469,0 z m -1.54687,7.38867 1.30078,-6.22265 1.06054,0 -1.30078,6.22265 -1.06054,0 z"
           style="font-style:italic;font-size:12px;font-family:Arial;text-anchor:middle;fill:#222222;stroke:none;stroke-width:0"
           id="path3539" />
        <path
           d="m 233.83008,275.70001 1.30078,-6.22265 1.06055,0 -0.2168,1.02539 q 0.5918,-0.66211 1.05469,-0.91407 0.46875,-0.25195 1.01367,-0.25195 0.58008,0 0.9668,0.31055 0.39257,0.30469 0.51562,0.85547 0.47461,-0.58594 0.99609,-0.87305 0.52735,-0.29297 1.10743,-0.29297 0.77929,0 1.16601,0.36914 0.39258,0.36914 0.39258,1.03711 0,0.28711 -0.13477,0.94922 l -0.83789,4.00781 -1.06054,0 0.85547,-4.11328 q 0.11132,-0.50391 0.11132,-0.7207 0,-0.30469 -0.19336,-0.48047 -0.19336,-0.17578 -0.54492,-0.17578 -0.47461,0 -0.96679,0.28711 -0.49219,0.28711 -0.76758,0.75586 -0.26953,0.46289 -0.47461,1.42968 l -0.63281,3.01758 -1.06055,0 0.8789,-4.20117 q 0.0937,-0.42773 0.0937,-0.60937 0,-0.30469 -0.19335,-0.49219 -0.1875,-0.1875 -0.49219,-0.1875 -0.45117,0 -0.94922,0.28711 -0.49219,0.28711 -0.80274,0.80273 -0.31054,0.50977 -0.50976,1.45899 l -0.61524,2.9414 -1.06054,0 z"
           style="font-style:italic;font-size:12px;font-family:Arial;text-anchor:middle;fill:#222222;stroke:none;stroke-width:0"
           id="path3541" />
        <path
           d="m 248.41406,273.58478 1.03125,0.10547 q -0.22265,0.76757 -1.02539,1.45898 -0.79687,0.69141 -1.9043,0.69141 -0.6914,0 -1.27148,-0.31641 -0.57422,-0.32226 -0.87891,-0.93164 -0.29882,-0.60937 -0.29882,-1.38867 0,-1.01953 0.46875,-1.97461 0.47461,-0.96094 1.22461,-1.42383 0.75,-0.46875 1.62304,-0.46875 1.11328,0 1.77539,0.69141 0.66797,0.6914 0.66797,1.88672 0,0.45703 -0.082,0.9375 l -4.58203,0 q -0.0234,0.18164 -0.0234,0.32812 0,0.87305 0.39844,1.33594 0.4043,0.45703 0.98437,0.45703 0.54493,0 1.07227,-0.35742 0.52734,-0.35742 0.82031,-1.03125 z m -3.08203,-1.54102 3.49219,0 q 0.006,-0.16406 0.006,-0.23437 0,-0.79688 -0.39844,-1.21875 -0.39844,-0.42774 -1.02539,-0.42774 -0.67969,0 -1.24219,0.46875 -0.55664,0.46875 -0.83203,1.41211 z"
           style="font-style:italic;font-size:12px;font-family:Arial;text-anchor:middle;fill:#222222;stroke:none;stroke-width:0"
           id="path3543" />
        <path
           d="m 255.38672,278.2254 q -0.91992,-2.01562 -0.91992,-4.14258 0,-1.41796 0.36914,-2.63671 0.375,-1.22461 1.13672,-2.41993 0.5039,-0.79687 1.61132,-2.0625 l 0.82618,0 q -0.68555,0.73243 -1.45313,2.0625 -0.76172,1.33008 -1.10742,2.61329 -0.3457,1.2832 -0.3457,2.57812 0,1.93359 0.67382,4.00781 l -0.79101,0 z"
           style="font-style:italic;font-size:12px;font-family:Arial;text-anchor:middle;fill:#222222;stroke:none;stroke-width:0"
           id="path3545" />
        <path
           d="m 257.85352,275.70001 1.30078,-6.22265 1.06054,0 -0.21679,1.02539 q 0.59179,-0.66211 1.05468,-0.91407 0.46875,-0.25195 1.01368,-0.25195 0.58007,0 0.96679,0.31055 0.39258,0.30469 0.51563,0.85547 0.47461,-0.58594 0.99609,-0.87305 0.52735,-0.29297 1.10742,-0.29297 0.7793,0 1.16602,0.36914 0.39258,0.36914 0.39258,1.03711 0,0.28711 -0.13477,0.94922 l -0.83789,4.00781 -1.06055,0 0.85547,-4.11328 q 0.11133,-0.50391 0.11133,-0.7207 0,-0.30469 -0.19336,-0.48047 -0.19336,-0.17578 -0.54492,-0.17578 -0.47461,0 -0.9668,0.28711 -0.49218,0.28711 -0.76758,0.75586 -0.26953,0.46289 -0.4746,1.42968 l -0.63282,3.01758 -1.06054,0 0.8789,-4.20117 q 0.0937,-0.42773 0.0937,-0.60937 0,-0.30469 -0.19336,-0.49219 -0.1875,-0.1875 -0.49218,-0.1875 -0.45118,0 -0.94922,0.28711 -0.49219,0.28711 -0.80274,0.80273 -0.31054,0.50977 -0.50976,1.45899 l -0.61524,2.9414 -1.06054,0 z"
           style="font-style:italic;font-size:12px;font-family:Arial;text-anchor:middle;fill:#222222;stroke:none;stroke-width:0"
           id="path3547" />
        <path
           d="m 267.9668,273.57306 1.06054,-0.0645 q 0,0.45703 0.14063,0.77929 0.14062,0.32227 0.51562,0.52735 0.38086,0.20507 0.88477,0.20507 0.70312,0 1.05469,-0.28125 0.35156,-0.28125 0.35156,-0.6621 0,-0.2754 -0.21094,-0.52149 -0.2168,-0.24609 -1.06055,-0.60351 -0.83789,-0.36329 -1.07226,-0.50977 -0.39258,-0.24023 -0.5918,-0.5625 -0.19922,-0.32813 -0.19922,-0.75 0,-0.73828 0.58594,-1.26563 0.58594,-0.52734 1.64063,-0.52734 1.17187,0 1.78125,0.54492 0.61523,0.53907 0.63867,1.42383 l -1.03711,0.0703 q -0.0234,-0.5625 -0.39844,-0.89062 -0.375,-0.32813 -1.06055,-0.32813 -0.55078,0 -0.85546,0.25196 -0.30469,0.25195 -0.30469,0.54492 0,0.29297 0.26367,0.51562 0.17578,0.15235 0.9082,0.46875 1.21875,0.52735 1.53516,0.83203 0.50391,0.48633 0.50391,1.1836 0,0.46289 -0.28711,0.9082 -0.28125,0.44531 -0.86719,0.71485 -0.58008,0.26367 -1.3711,0.26367 -1.07812,0 -1.83398,-0.53321 -0.75586,-0.5332 -0.71484,-1.73437 z"
           style="font-style:italic;font-size:12px;font-family:Arial;text-anchor:middle;fill:#222222;stroke:none;stroke-width:0"
           id="path3549" />
        <path
           d="m 275.84766,266.96368 q 0.92578,2.01563 0.92578,4.13672 0,1.42383 -0.375,2.64258 -0.36914,1.21875 -1.13086,2.41992 -0.50977,0.79688 -1.61133,2.0625 l -0.82617,0 q 0.67969,-0.73828 1.44726,-2.06836 0.76758,-1.33007 1.10743,-2.60742 0.3457,-1.2832 0.3457,-2.58398 0,-1.9336 -0.67383,-4.00196 l 0.79102,0 z"
           style="font-style:italic;font-size:12px;font-family:Arial;text-anchor:middle;fill:#222222;stroke:none;stroke-width:0"
           id="path3551" />
      </g>
      <path
         style="fill:#ffffff;fill-opacity:0;stroke:none;stroke-width:0"
         d="m 94,265.5 313,0 0,12 -313,0 z"
         id="rect202" />
    </g>
  </g>
  <g
     id="g204" />
</svg>
