<svg xmlns="http://www.w3.org/2000/svg" class="frappe-chart chart" width="600" height="400"><defs></defs><text class="title" x="20" y="10" dy="12px" font-size="12px" fill="#666666" text-anchor="start">Opponent's Location Recency (milliseconds)</text><g class="bar-chart chart-draw-area" transform="translate(50, 50)"><g class="y axis" transform=""><g transform="translate(0, 270)" stroke-opacity="1"><line class="line-horizontal " x1="-6" x2="526" y1="0" y2="0" style="stroke: rgb(218, 218, 218);"></line><text x="-10" y="0" dy="3px" font-size="10px" text-anchor="end">0</text></g><g transform="translate(0, 180)" stroke-opacity="1"><line class="line-horizontal " x1="-6" x2="526" y1="0" y2="0" style="stroke: rgb(218, 218, 218);"></line><text x="-10" y="0" dy="3px" font-size="10px" text-anchor="end">20</text></g><g transform="translate(0, 90)" stroke-opacity="1"><line class="line-horizontal " x1="-6" x2="526" y1="0" y2="0" style="stroke: rgb(218, 218, 218);"></line><text x="-10" y="0" dy="3px" font-size="10px" text-anchor="end">40</text></g><g transform="translate(0, 0)" stroke-opacity="1"><line class="line-horizontal " x1="-6" x2="526" y1="0" y2="0" style="stroke: rgb(218, 218, 218);"></line><text x="-10" y="0" dy="3px" font-size="10px" text-anchor="end">60</text></g></g><g class="x axis" transform=""><g transform="translate(52, 0)"><line class="line-vertical " x1="0" x2="0" y1="276" y2="-6" style="stroke: rgb(218, 218, 218);"></line><text x="0" y="280" dy="10px" font-size="10px" text-anchor="middle">Model 1</text></g><g transform="translate(156, 0)"><line class="line-vertical " x1="0" x2="0" y1="276" y2="-6" style="stroke: rgb(218, 218, 218);"></line><text x="0" y="280" dy="10px" font-size="10px" text-anchor="middle">Model 2</text></g><g transform="translate(260, 0)"><line class="line-vertical " x1="0" x2="0" y1="276" y2="-6" style="stroke: rgb(218, 218, 218);"></line><text x="0" y="280" dy="10px" font-size="10px" text-anchor="middle">Model 3</text></g><g transform="translate(364, 0)"><line class="line-vertical " x1="0" x2="0" y1="276" y2="-6" style="stroke: rgb(218, 218, 218);"></line><text x="0" y="280" dy="10px" font-size="10px" text-anchor="middle">Model 4</text></g><g transform="translate(468, 0)"><line class="line-vertical " x1="0" x2="0" y1="276" y2="-6" style="stroke: rgb(218, 218, 218);"></line><text x="0" y="280" dy="10px" font-size="10px" text-anchor="middle">Model 5</text></g></g><g class="dataset-units dataset-bars dataset-0" transform=""><rect class="bar mini" style="fill: #b554ff" data-point-index="0" x="26" y="267.3" width="26" height="2.7"></rect><rect class="bar mini" style="fill: #b554ff" data-point-index="1" x="130" y="269.83" width="26" height="0.17000000000001592"></rect><rect class="bar mini" style="fill: #b554ff" data-point-index="2" x="234" y="269.8" width="26" height="0.19999999999998863"></rect><rect class="bar mini" style="fill: #b554ff" data-point-index="3" x="338" y="22.46" width="26" height="247.54"></rect><rect class="bar mini" style="fill: #b554ff" data-point-index="4" x="442" y="267.3" width="26" height="2.7"></rect></g><g class="dataset-units dataset-bars dataset-1" transform=""><rect class="bar mini" style="fill: #ffa3ef" data-point-index="0" x="52" y="267.3" width="26" height="2.7"></rect><rect class="bar mini" style="fill: #ffa3ef" data-point-index="1" x="156" y="125.92" width="26" height="144.07999999999998"></rect><rect class="bar mini" style="fill: #ffa3ef" data-point-index="2" x="260" y="89.48" width="26" height="180.51999999999998"></rect><rect class="bar mini" style="fill: #ffa3ef" data-point-index="3" x="364" y="15.92" width="26" height="254.08"></rect><rect class="bar mini" style="fill: #ffa3ef" data-point-index="4" x="468" y="267.3" width="26" height="2.7"></rect></g></g><g class="chart-legend" transform="translate(50, 360)"><g transform="translate(0, 0)"><rect class="legend-bar" x="0" y="0" width="100" height="2px" fill="#b554ff"></rect><text class="legend-dataset-text" x="0" y="0" dy="20px" font-size="12px" text-anchor="start" fill="#555b51">Evader</text></g><g transform="translate(100, 0)"><rect class="legend-bar" x="0" y="0" width="100" height="2px" fill="#ffa3ef"></rect><text class="legend-dataset-text" x="0" y="0" dy="20px" font-size="12px" text-anchor="start" fill="#555b51">Pursuer</text></g></g></svg>
