<svg xmlns="http://www.w3.org/2000/svg" viewBox="-24 -153.42000000000002 800 396.125" width="800" height="396.125" version="1.1" id="model_4" class="canvas">
<rect x="-24" y="-153.42000000000002" height="396.125" width="100%" fill="gray" fill-opacity="0.1"></rect><path fill="red" transform="translate(-12 -12)" d="M12,4.64516129 C7.93451613,4.64516129 4.64516129,7.93548387 4.64516129,12 C4.64516129,16.0654839 7.93548387,19.3548387 12,19.3548387 C16.0654839,19.3548387 19.3548387,16.0645161 19.3548387,12 C19.3548387,7.93451613 16.0645161,4.64516129 12,4.64516129 Z M12,17.0322581 C9.225,17.0322581 6.96774194,14.775 6.96774194,12 C6.96774194,9.225 9.225,6.96774194 12,6.96774194 C14.775,6.96774194 17.0322581,9.225 17.0322581,12 C17.0322581,14.775 14.775,17.0322581 12,17.0322581 Z M12,0 C5.37241935,0 0,5.37241935 0,12 C0,18.6275806 5.37241935,24 12,24 C18.6275806,24 24,18.6275806 24,12 C24,5.37241935 18.6275806,0 12,0 Z M12,21.6774194 C6.66387097,21.6774194 2.32258065,17.336129 2.32258065,12 C2.32258065,6.66387097 6.66387097,2.32258065 12,2.32258065 C17.336129,2.32258065 21.6774194,6.66387097 21.6774194,12 C21.6774194,17.336129 17.336129,21.6774194 12,21.6774194 Z M12,9.29032258 C10.5058065,9.29032258 9.29032258,10.5058065 9.29032258,12 C9.29032258,13.4941935 10.5058065,14.7096774 12,14.7096774 C13.4941935,14.7096774 14.7096774,13.4941935 14.7096774,12 C14.7096774,10.5058065 13.4941935,9.29032258 12,9.29032258 Z"></path><path fill="blue" transform="translate(300.66 -12)" d="M12,4.64516129 C7.93451613,4.64516129 4.64516129,7.93548387 4.64516129,12 C4.64516129,16.0654839 7.93548387,19.3548387 12,19.3548387 C16.0654839,19.3548387 19.3548387,16.0645161 19.3548387,12 C19.3548387,7.93451613 16.0645161,4.64516129 12,4.64516129 Z M12,17.0322581 C9.225,17.0322581 6.96774194,14.775 6.96774194,12 C6.96774194,9.225 9.225,6.96774194 12,6.96774194 C14.775,6.96774194 17.0322581,9.225 17.0322581,12 C17.0322581,14.775 14.775,17.0322581 12,17.0322581 Z M12,0 C5.37241935,0 0,5.37241935 0,12 C0,18.6275806 5.37241935,24 12,24 C18.6275806,24 24,18.6275806 24,12 C24,5.37241935 18.6275806,0 12,0 Z M12,21.6774194 C6.66387097,21.6774194 2.32258065,17.336129 2.32258065,12 C2.32258065,6.66387097 6.66387097,2.32258065 12,2.32258065 C17.336129,2.32258065 21.6774194,6.66387097 21.6774194,12 C21.6774194,17.336129 17.336129,21.6774194 12,21.6774194 Z M12,9.29032258 C10.5058065,9.29032258 9.29032258,10.5058065 9.29032258,12 C9.29032258,13.4941935 10.5058065,14.7096774 12,14.7096774 C13.4941935,14.7096774 14.7096774,13.4941935 14.7096774,12 C14.7096774,10.5058065 13.4941935,9.29032258 12,9.29032258 Z"></path><path transform="translate(596.52 -127.155)" fill="red" d="M15.9098437,4.32796875 C16.3420443,2.98020924 17.6596148,2.11976685 19.0674127,2.26591124 C20.4752105,2.41205563 21.5879444,3.52478945 21.7340888,4.93258732 C21.8802332,6.3403852 21.0197908,7.6579557 19.6720312,8.09015625 L17.9878125,10.423125 C18.239625,10.4675587 18.4943863,10.4932542 18.75,10.5 C21.6494949,10.5 24,8.14949494 24,5.25 C24,2.35050506 21.6494949,-6.19949465e-14 18.75,-6.21724894e-14 C15.8505051,-6.23500322e-14 13.5,2.35050506 13.5,5.25 C13.5067458,5.5056137 13.5324413,5.76037503 13.576875,6.0121875 L15.9098437,4.32796875 Z M5.203125,17.259375 C4.3883515,17.2824352 3.74204012,17.9536015 3.74972776,18.768665 C3.75741539,19.5837285 4.41627146,20.2425846 5.23133498,20.2502722 C6.04639849,20.2579599 6.71756483,19.6116485 6.740625,18.796875 L9.9215625,16.5 L14.0784375,16.5 L17.259375,18.796875 C17.2824352,19.6116485 17.9536015,20.2579599 18.768665,20.2502722 C19.5837285,20.2425846 20.2425846,19.5837285 20.2502722,18.768665 C20.2579599,17.9536015 19.6116485,17.2824352 18.796875,17.259375 L16.5,14.0784375 L16.5,9.9215625 L18.796875,6.740625 C19.6116485,6.71756483 20.2579599,6.04639849 20.2502722,5.23133498 C20.2425846,4.41627146 19.5837285,3.75741539 18.768665,3.74972776 C17.9536015,3.74204012 17.2824352,4.3883515 17.259375,5.203125 L14.0784375,7.5 L9.9215625,7.5 L6.740625,5.203125 C6.71756483,4.3883515 6.04639849,3.74204012 5.23133498,3.74972776 C4.41627146,3.75741539 3.75741539,4.41627146 3.74972776,5.23133498 C3.74204012,6.04639849 4.3883515,6.71756483 5.203125,6.740625 L7.5,9.9215625 L7.5,14.0784375 L5.203125,17.259375 Z M9.75,9.75 L14.25,9.75 L14.25,14.25 L9.75,14.25 L9.75,9.75 Z M18.75,13.5 C18.4943877,13.5067681 18.239628,13.5324635 17.9878125,13.576875 L19.6720312,15.9098437 C21.0199025,16.3419927 21.8804341,17.6596468 21.7342495,19.0675317 C21.5880648,20.4754165 20.4751777,21.588165 19.0672747,21.7341742 C17.6593716,21.8801834 16.3418248,21.0194876 15.9098437,19.6715625 L13.576875,17.9878125 C13.5324413,18.239625 13.5067458,18.4943863 13.5,18.75 C13.5,21.6494949 15.8505051,24 18.75,24 C21.6494949,24 24,21.6494949 24,18.75 C24,15.8505051 21.6494949,13.5 18.75,13.5 Z M5.25,10.5 C5.5056137,10.4932542 5.76037503,10.4675587 6.0121875,10.423125 L4.3284375,8.09015625 C2.98051243,7.65817522 2.11981663,6.34062835 2.26582584,4.93272533 C2.41183504,3.52482231 3.52458353,2.41193516 4.93246835,2.26575053 C6.34035317,2.11956589 7.65800726,2.98009751 8.09015625,4.32796875 L10.423125,6.0121875 C10.4675365,5.76037197 10.4932319,5.50561228 10.5,5.25 C10.5,2.35050506 8.14949494,1.7754286e-16 5.25,0 C2.35050506,-1.7754286e-16 -8.66863994e-14,2.35050506 -8.70414851e-14,5.25 C-8.73965708e-14,8.14949494 2.35050506,10.5 5.25,10.5 Z M8.09015625,19.6720312 C7.6579557,21.0197908 6.3403852,21.8802332 4.93258732,21.7340888 C3.52478945,21.5879444 2.41205563,20.4752105 2.26591124,19.0674127 C2.11976685,17.6596148 2.98020924,16.3420443 4.32796875,15.9098437 L6.0121875,13.576875 C5.76037503,13.5324413 5.5056137,13.5067458 5.25,13.5 C2.35050506,13.5 3.55085719e-16,15.8505051 0,18.75 C-3.55085719e-16,21.6494949 2.35050506,24 5.25,24 C8.14949494,24 10.5,21.6494949 10.5,18.75 C10.4932542,18.4943863 10.4675587,18.239625 10.423125,17.9878125 L8.09015625,19.6720312 Z"></path><path transform="translate(524.565 -18.465)" fill="blue" d="M15.9098437,4.32796875 C16.3420443,2.98020924 17.6596148,2.11976685 19.0674127,2.26591124 C20.4752105,2.41205563 21.5879444,3.52478945 21.7340888,4.93258732 C21.8802332,6.3403852 21.0197908,7.6579557 19.6720312,8.09015625 L17.9878125,10.423125 C18.239625,10.4675587 18.4943863,10.4932542 18.75,10.5 C21.6494949,10.5 24,8.14949494 24,5.25 C24,2.35050506 21.6494949,-6.19949465e-14 18.75,-6.21724894e-14 C15.8505051,-6.23500322e-14 13.5,2.35050506 13.5,5.25 C13.5067458,5.5056137 13.5324413,5.76037503 13.576875,6.0121875 L15.9098437,4.32796875 Z M5.203125,17.259375 C4.3883515,17.2824352 3.74204012,17.9536015 3.74972776,18.768665 C3.75741539,19.5837285 4.41627146,20.2425846 5.23133498,20.2502722 C6.04639849,20.2579599 6.71756483,19.6116485 6.740625,18.796875 L9.9215625,16.5 L14.0784375,16.5 L17.259375,18.796875 C17.2824352,19.6116485 17.9536015,20.2579599 18.768665,20.2502722 C19.5837285,20.2425846 20.2425846,19.5837285 20.2502722,18.768665 C20.2579599,17.9536015 19.6116485,17.2824352 18.796875,17.259375 L16.5,14.0784375 L16.5,9.9215625 L18.796875,6.740625 C19.6116485,6.71756483 20.2579599,6.04639849 20.2502722,5.23133498 C20.2425846,4.41627146 19.5837285,3.75741539 18.768665,3.74972776 C17.9536015,3.74204012 17.2824352,4.3883515 17.259375,5.203125 L14.0784375,7.5 L9.9215625,7.5 L6.740625,5.203125 C6.71756483,4.3883515 6.04639849,3.74204012 5.23133498,3.74972776 C4.41627146,3.75741539 3.75741539,4.41627146 3.74972776,5.23133498 C3.74204012,6.04639849 4.3883515,6.71756483 5.203125,6.740625 L7.5,9.9215625 L7.5,14.0784375 L5.203125,17.259375 Z M9.75,9.75 L14.25,9.75 L14.25,14.25 L9.75,14.25 L9.75,9.75 Z M18.75,13.5 C18.4943877,13.5067681 18.239628,13.5324635 17.9878125,13.576875 L19.6720312,15.9098437 C21.0199025,16.3419927 21.8804341,17.6596468 21.7342495,19.0675317 C21.5880648,20.4754165 20.4751777,21.588165 19.0672747,21.7341742 C17.6593716,21.8801834 16.3418248,21.0194876 15.9098437,19.6715625 L13.576875,17.9878125 C13.5324413,18.239625 13.5067458,18.4943863 13.5,18.75 C13.5,21.6494949 15.8505051,24 18.75,24 C21.6494949,24 24,21.6494949 24,18.75 C24,15.8505051 21.6494949,13.5 18.75,13.5 Z M5.25,10.5 C5.5056137,10.4932542 5.76037503,10.4675587 6.0121875,10.423125 L4.3284375,8.09015625 C2.98051243,7.65817522 2.11981663,6.34062835 2.26582584,4.93272533 C2.41183504,3.52482231 3.52458353,2.41193516 4.93246835,2.26575053 C6.34035317,2.11956589 7.65800726,2.98009751 8.09015625,4.32796875 L10.423125,6.0121875 C10.4675365,5.76037197 10.4932319,5.50561228 10.5,5.25 C10.5,2.35050506 8.14949494,1.7754286e-16 5.25,0 C2.35050506,-1.7754286e-16 -8.66863994e-14,2.35050506 -8.70414851e-14,5.25 C-8.73965708e-14,8.14949494 2.35050506,10.5 5.25,10.5 Z M8.09015625,19.6720312 C7.6579557,21.0197908 6.3403852,21.8802332 4.93258732,21.7340888 C3.52478945,21.5879444 2.41205563,20.4752105 2.26591124,19.0674127 C2.11976685,17.6596148 2.98020924,16.3420443 4.32796875,15.9098437 L6.0121875,13.576875 C5.76037503,13.5324413 5.5056137,13.5067458 5.25,13.5 C2.35050506,13.5 3.55085719e-16,15.8505051 0,18.75 C-3.55085719e-16,21.6494949 2.35050506,24 5.25,24 C8.14949494,24 10.5,21.6494949 10.5,18.75 C10.4932542,18.4943863 10.4675587,18.239625 10.423125,17.9878125 L8.09015625,19.6720312 Z"></path><polyline fill="none" stroke="red" stroke-opacity="0.4" stroke-width="3" points="0,0 0,0 0,0 0,0 0,0 0.045,-0.015 0.525,-0.075 0.525,-0.075 0.525,-0.075 1.395,-0.15 1.395,-0.15 3.015,-0.22499999999999998 5.025,-0.255 5.025,-0.255 5.025,-0.255 7.215,-0.22499999999999998 11.025,-0.13499999999999998 11.025,-0.13499999999999998 11.865,-0.12 11.865,-0.12 11.865,-0.12 16.14,-0.03 21.66,0.09 21.66,0.09 22.8,0.12 22.8,0.12 29.04,0.3 29.04,0.3 29.04,0.3 34.065,0.46499999999999997 34.065,0.46499999999999997 41.595,0.6599999999999999 43.11,0.69 43.11,0.69 43.11,0.69 51.375,0.7799999999999999 51.375,0.7799999999999999 54.51,0.7799999999999999 54.51,0.7799999999999999 62.58,0.735 67.785,0.69 67.785,0.69 75.91499999999999,0.615 75.91499999999999,0.615 75.91499999999999,0.615 83.05499999999999,0.525 90,0.40499999999999997 90,0.40499999999999997 99.465,0.21 99.465,0.21 107.33999999999999,0.03 107.33999999999999,0.03 115.42500000000001,-0.21 115.42500000000001,-0.21 122.69999999999999,-0.435 122.69999999999999,-0.435 122.69999999999999,-0.435 131.415,-0.72 131.415,-0.72 139.8,-0.96 139.8,-0.96 153.495,-1.2750000000000001 153.495,-1.2750000000000001 156.225,-1.3199999999999998 167.88,-1.455 156.225,-1.3199999999999998 180.63,-1.575 180.63,-1.575 185.52,-1.605 180.63,-1.575 185.52,-1.605 195.11999999999998,-1.68 206.04000000000002,-1.695 206.04000000000002,-1.695 215.625,-1.68 215.625,-1.68 224.415,-1.635 224.415,-1.635 224.415,-1.635 236.67000000000002,-1.5299999999999998 236.67000000000002,-1.5299999999999998 247.54500000000002,-1.41 258.54,-1.2750000000000001 258.54,-1.2750000000000001 269.34,-1.095 269.34,-1.095 284.1,-0.855 284.1,-0.855 284.1,-0.855 289.275,-0.75 289.275,-0.75 304.95,-0.40499999999999997 307.575,-0.32999999999999996 307.575,-0.32999999999999996 307.575,-0.32999999999999996 320.46000000000004,0 331.78499999999997,0.315 331.78499999999997,0.315 345.21,0.7949999999999999 345.21,0.7949999999999999 360.41999999999996,1.47 360.41999999999996,1.47 363.135,1.605 363.135,1.605 379.83,2.5799999999999996 379.83,2.5799999999999996 390.81,3.33 390.81,3.33 406.305,4.575 406.305,4.575 409.065,4.815 409.065,4.815 409.065,4.815 423.255,6.21 423.255,6.21 435,7.665 447.42,9.435 447.42,9.435 447.42,9.435 458.385,11.325 458.385,11.325 473.595,14.565 479.25,15.96 479.25,15.96 479.25,15.96 496.92,21.015 496.92,21.015 499.16999999999996,21.75 499.16999999999996,21.75 513,26.7 523.3050000000001,30.99 523.3050000000001,30.99 523.3050000000001,30.99 532.95,35.519999999999996 542.475,40.544999999999995 542.475,40.544999999999995 554.625,47.895 554.625,47.895 556.875,49.395 556.875,49.395 566.745,56.49 566.745,56.49 574.5,62.81999999999999 574.5,62.81999999999999 581.325,68.985 574.5,62.81999999999999 587.025,74.715 587.025,74.715 587.025,74.715 592.8000000000001,81.13499999999999 592.8000000000001,81.13499999999999 598.98,88.845 605.49,98.39999999999999 605.49,98.39999999999999 606.4350000000001,99.99000000000001 606.4350000000001,99.99000000000001 611.88,110.28 611.88,110.28 611.88,110.28 613.635,114.19500000000001 613.635,114.19500000000001 617.295,124.41000000000001 617.295,124.41000000000001 617.73,125.925 617.73,125.925 619.47,133.38 620.28,138.82500000000002 620.28,138.82500000000002 620.7900000000001,146.07 620.7900000000001,146.07 620.7900000000001,146.07 620.535,153.765 620.535,153.765 620.205,156.585 620.205,156.585 619.155,162.06 619.155,162.06 617.3100000000001,168.435 617.3100000000001,168.435 615.765,172.32 613.5,176.88 613.5,176.88 610.695,181.51500000000001 610.695,181.51500000000001 607.965,185.28 607.965,185.28 607.965,185.28 603.705,190.14000000000001 599.6700000000001,193.96499999999997 599.6700000000001,193.96499999999997 599.6700000000001,193.96499999999997 595.395,197.43 590.8050000000001,200.64 590.8050000000001,200.64 585.75,203.7 585.75,203.7 585.75,203.7 581.175,206.07 581.175,206.07 574.335,209.025 569.6099999999999,210.72 563.625,212.51999999999998 558.1800000000001,213.84 550.02,215.28 550.02,215.28 550.02,215.28 550.02,215.28 540.75,216.3 539.115,216.405 539.115,216.405 529.065,216.70499999999998 521.76,216.51 521.76,216.51 511.48499999999996,215.625 511.48499999999996,215.625 493.5,212.38500000000002 497.95500000000004,213.39000000000001 482.82000000000005,209.43 482.82000000000005,209.43 482.82000000000005,209.43 482.82000000000005,209.43 463.995,202.38000000000002 482.82000000000005,209.43 463.995,202.38000000000002 455.86499999999995,198.645 455.86499999999995,198.645 445.935,193.42499999999998 445.935,193.42499999999998 443.91,192.19500000000002 436.17,186.73499999999999 436.17,186.73499999999999 428.865,180.11999999999998 428.865,180.11999999999998 428.865,180.11999999999998 427.56,178.8 427.56,178.8 421.89000000000004,172.68 421.89000000000004,172.68 415.185,164.565 415.185,164.565 414.21000000000004,163.26 409.29,156.225 405.84000000000003,150.78 401.70000000000005,143.595 398.58,137.595 395.42999999999995,130.725 395.42999999999995,130.725 395.42999999999995,130.725 395.42999999999995,130.725 392.655,123.80999999999999 392.655,123.80999999999999 391.005,119.295 391.005,119.295 387.435,107.94 386.05499999999995,102.675 386.05499999999995,102.675 384.22499999999997,94.72500000000001 384.22499999999997,94.72500000000001 382.32,84.405 382.32,84.405 381.47999999999996,78.53999999999999 381.47999999999996,78.53999999999999 381.47999999999996,78.53999999999999 380.595,70.35000000000001 380.07,63.059999999999995 380.595,70.35000000000001 379.78499999999997,48.81 379.78499999999997,48.81 379.815,46.755 379.815,46.755 380.325,35.67 380.325,35.67 380.325,35.67 381.33,26.145000000000003 381.33,26.145000000000003 382.59000000000003,17.655 384.93,6.18 384.93,6.18 384.93,6.18 385.425,4.155 388.395,-6.675 385.425,4.155 392.52,-18.78 392.52,-18.78 392.52,-18.78 393.285,-20.715 397.65000000000003,-30.735 397.65000000000003,-30.735 401.34000000000003,-38.19 401.34000000000003,-38.19 401.34000000000003,-38.19 405.78,-46.11 409.77000000000004,-52.455 409.77000000000004,-52.455 415.83000000000004,-61.095000000000006 415.83000000000004,-61.095000000000006 421.245,-67.935 421.245,-67.935 421.245,-67.935 426.615,-74.10000000000001 426.615,-74.10000000000001 432.825,-80.49 439.15500000000003,-86.295 439.15500000000003,-86.295 447.96000000000004,-93.33000000000001 447.96000000000004,-93.33000000000001 449.76000000000005,-94.64999999999999 449.76000000000005,-94.64999999999999 458.175,-100.33500000000001 458.175,-100.33500000000001 465.15000000000003,-104.4 465.15000000000003,-104.4 465.15000000000003,-104.4 473.595,-108.705 480.885,-111.88499999999999 480.885,-111.88499999999999 480.885,-111.88499999999999 488.06999999999994,-114.51 488.06999999999994,-114.51 495.54,-116.75999999999999 495.54,-116.75999999999999 503.055,-118.62 513.3,-120.31500000000001 513.3,-120.31500000000001 515.13,-120.525 515.13,-120.525 525.12,-121.275 525.12,-121.275 525.12,-121.275 533.6700000000001,-121.23000000000002 533.6700000000001,-121.23000000000002 539.25,-120.9 551.0699999999999,-119.295 551.0699999999999,-119.295 551.0699999999999,-119.295 551.0699999999999,-119.295 551.0699999999999,-119.295 551.0699999999999,-119.295 551.0699999999999,-119.295 569.085,-114.36 578.325,-110.44500000000001 562.125,-116.685 578.325,-110.44500000000001 596.31,-100.155 596.31,-100.155 597.915,-99.06 596.31,-100.155 605.37,-93.42 605.37,-93.42 610.6800000000001,-88.905 610.6800000000001,-88.905 616.1700000000001,-83.355 616.1700000000001,-83.355 619.515,-79.065 619.515,-79.065 619.515,-79.065 622.425,-74.49000000000001 624.255,-71.22 624.255,-71.22 626.265,-67.23 626.265,-67.23 628.6949999999999,-61.275 628.6949999999999,-61.275 628.6949999999999,-61.275 630.21,-56.445 630.21,-56.445 631.365,-51.45 632.19,-46.605000000000004 631.365,-51.45 632.82,-41.055 632.82,-41.055 633.105,-36.150000000000006 633.105,-36.150000000000006 633.105,-36.150000000000006 633,-26.76 633,-26.76 632.895,-25.125 632.895,-25.125 632.1750000000001,-17.279999999999998 631.0350000000001,-9.75 632.1750000000001,-17.279999999999998 631.0350000000001,-9.75 630.06,-4.635 630.06,-4.635 628.185,3.1799999999999997 626.16,10.08 626.16,10.08 626.16,10.08 623.79,17.04 623.79,17.04 621.345,23.43 621.345,23.43 618.225,30.674999999999997 618.225,30.674999999999997 613.4250000000001,40.68 612.4499999999999,42.555 613.4250000000001,40.68 612.4499999999999,42.555 606.075,53.76 605.0550000000001,55.41 605.0550000000001,55.41 605.0550000000001,55.41 599.535,63.76500000000001 599.535,63.76500000000001 593.715,71.835 588.225,78.75 588.225,78.75 588.225,78.75 584.0999999999999,83.61 577.1700000000001,91.25999999999999 577.1700000000001,91.25999999999999 577.1700000000001,91.25999999999999 571.125,97.365 564.9449999999999,103.05 564.9449999999999,103.05 558.3149999999999,108.66 558.3149999999999,108.66 558.3149999999999,108.66 550.995,114.33 543.66,119.61 543.66,119.61 543.66,119.61 536.2800000000001,124.44 528.195,129.16500000000002 528.195,129.16500000000002 528.195,129.16500000000002 517.5,134.715 515.085,135.87 517.5,134.715 515.085,135.87 503.745,140.74499999999998 503.745,140.74499999999998 503.745,140.74499999999998 503.745,140.74499999999998 503.745,140.74499999999998 503.745,140.74499999999998 480.345,148.275 489.34499999999997,145.755 471.78000000000003,150.195 471.78000000000003,150.195 442.545,153.67499999999998 442.545,153.67499999999998 442.545,153.67499999999998 438.09,153.84 423.91499999999996,153.555 423.91499999999996,153.555 421.5,153.32999999999998 421.5,153.32999999999998 421.5,153.32999999999998 412.815,152.055 412.815,152.055 406.17,150.405 406.17,150.405 400.62,148.56 394.95,146.385 394.95,146.385 394.95,146.385 388.40999999999997,143.46 381,139.41 381,139.41 379.815,138.67499999999998 379.815,138.67499999999998 371.73,132.855 371.73,132.855 370.53000000000003,131.835 365.16,126.74999999999999 361.485,122.64 361.485,122.64 361.485,122.64 361.485,122.64 361.485,122.64 351.495,108.19500000000001 347.89500000000004,101.25 354.405,112.995 347.89500000000004,101.25 347.89500000000004,101.25 347.89500000000004,101.25 339.6,79.14 339.075,77.31 339.075,77.31 339.075,77.31 336.825,68.025 336.24,64.62 336.825,68.025 336.24,64.62 335.655,56.925 335.655,56.925 336,50.985 336.81,45.285000000000004 336,50.985 337.95000000000005,39.705 337.95000000000005,39.705 337.95000000000005,39.705 339.375,34.365 341.175,28.905 341.175,28.905 343.38,23.310000000000002 343.38,23.310000000000002 344.955,19.785 348.18,13.290000000000001 351.795,6.66 355.065,1.02 355.065,1.02 355.065,1.02 355.065,1.02 358.72499999999997,-4.905 361.72499999999997,-9.51 366.81,-16.875 366.81,-16.875 370.22999999999996,-21.599999999999998 370.22999999999996,-21.599999999999998 374.94,-27.87 374.94,-27.87 379.60499999999996,-33.839999999999996 379.60499999999996,-33.839999999999996 384.82500000000005,-40.23 384.82500000000005,-40.23 384.82500000000005,-40.23 390.18,-46.41 396.33,-53.115 396.33,-53.115 396.33,-53.115 402.09000000000003,-59.010000000000005 402.09000000000003,-59.010000000000005 408.645,-65.4 415.11,-71.295 415.11,-71.295 424.77000000000004,-79.5 424.77000000000004,-79.5 424.77000000000004,-79.5 427.95000000000005,-82.065 439.86,-90.99 439.86,-90.99 441.90000000000003,-92.41499999999999 441.90000000000003,-92.41499999999999 441.90000000000003,-92.41499999999999 451.935,-99.015 459.9,-103.74000000000001 459.9,-103.74000000000001 459.9,-103.74000000000001 467.565,-107.91 467.565,-107.91 477.435,-112.695 477.435,-112.695 489.34499999999997,-117.645 491.97,-118.63499999999999 491.97,-118.63499999999999 502.275,-122.205 491.97,-118.63499999999999 502.275,-122.205 512.145,-124.935 521.235,-126.87 521.235,-126.87 521.235,-126.87 530.52,-128.28 530.52,-128.28 537.105,-128.95499999999998 546.18,-129.42000000000002 546.18,-129.42000000000002 546.18,-129.42000000000002 555.3299999999999,-129.345 566.4,-128.46 566.4,-128.46 568.5600000000001,-128.175 568.5600000000001,-128.175 583.05,-125.325 583.05,-125.325 585.255,-124.725 585.255,-124.725 585.255,-124.725 595.305,-121.365 598.665,-119.985 598.665,-119.985 598.665,-119.985 608.52,-115.155"></polyline><polyline fill="none" stroke="blue" stroke-opacity="0.4" stroke-width="3" points="312.66,0 312.66,0 311.865,0 311.865,0 311.52,0 311.52,0 311.52,0 311.325,0 311.355,0 311.355,0 311.70000000000005,0 311.70000000000005,0 311.70000000000005,0 312.33,0 313.095,0 313.095,0 313.095,0 314.58000000000004,0 314.90999999999997,0 314.58000000000004,0 316.67999999999995,0 316.67999999999995,0 316.67999999999995,0 319.065,0 319.065,0 319.56,0 319.56,0 322.33500000000004,0 324.6,0 324.6,0 328.05,0 328.05,0 328.05,0 328.74,0 332.59499999999997,0 332.59499999999997,0 334.05,0 334.05,0 337.86,0 337.86,0 337.86,0 341.01000000000005,0 341.01000000000005,0 344.205,0 347.625,0 347.625,0 347.625,0 350.955,0 350.955,0 355.545,0 355.545,0 359.355,0 359.355,0 363.29999999999995,-0.015 363.29999999999995,-0.015 366.855,-0.015 371.115,-0.015 371.115,-0.015 374.205,-0.03 374.205,-0.03 382.005,-0.03 382.005,-0.03 383.35499999999996,-0.03 383.35499999999996,-0.03 388.97999999999996,-0.03 388.97999999999996,-0.03 388.97999999999996,-0.03 395.38500000000005,0.045 396.6,0.12 396.6,0.12 401.985,0.72 401.985,0.72 401.985,0.72 405.765,1.395 410.52,2.52 405.765,1.395 410.52,2.52 414.97499999999997,3.8850000000000002 418.46999999999997,5.175 418.46999999999997,5.175 422.29499999999996,6.855 422.29499999999996,6.855 422.29499999999996,6.855 425.96999999999997,8.745 425.96999999999997,8.745 429.405,10.77 429.405,10.77 431.745,12.33 434.59499999999997,14.385 434.59499999999997,14.385 439.635,18.615000000000002 439.635,18.615000000000002 439.635,18.615000000000002 440.325,19.244999999999997 443.61,22.5 443.61,22.5 443.61,22.5 446.325,25.515 446.325,25.515 449.355,29.265 449.355,29.265 452.55,33.720000000000006 452.55,33.720000000000006 453.105,34.53 453.105,34.53 456.255,39.705 456.255,39.705 458.16,43.214999999999996 458.16,43.214999999999996 460.605,48.345 460.605,48.345 461.01000000000005,49.275000000000006 462.945,54.135 462.945,54.135 464.355,58.26 464.355,58.26 464.355,58.26 465.63,62.715 466.35,65.715 466.35,65.715 467.535,72.39 467.535,72.39 467.79,74.53500000000001 467.535,72.39 468.18,81.17999999999999 468.18,81.17999999999999 468.18,82.155 468.18,82.155 467.955,87.50999999999999 467.955,87.50999999999999 467.955,87.50999999999999 467.535,91.59 466.935,95.55 466.935,95.55 466.935,95.55 466.11,99.6 464.625,104.955 466.11,99.6 464.625,104.955 464.28000000000003,105.99 464.28000000000003,105.99 462.53999999999996,110.595 462.53999999999996,110.595 460.815,114.405 459,117.84 459,117.84 459,117.84 456.64500000000004,121.53 455.265,123.405 455.265,123.405 453.42,125.63999999999999 453.42,125.63999999999999 453.42,125.63999999999999 449.88,129.225 449.88,129.225 449.37,129.66 449.37,129.66 446.09999999999997,132.08999999999997 445.335,132.555 445.335,132.555 441.51,134.34 441.51,134.34 441.015,134.505 441.015,134.505 438.57,135.09 438.57,135.09 438.57,135.09 436.245,135.29999999999998 436.245,135.29999999999998 434.37,135.20999999999998 431.82,134.70000000000002 431.82,134.70000000000002 431.385,134.565 431.385,134.565 429.06,133.605 429.06,133.605 426.975,132.32999999999998 426.975,132.32999999999998 425.7,131.34 425.7,131.34 425.7,131.34 424.20000000000005,129.96 424.20000000000005,129.96 422.7,128.29500000000002 422.7,128.29500000000002 421.185,126.24000000000001 419.97,124.275 419.97,124.275 419.97,124.275 418.785,122.02499999999999 417.75,119.655 417.75,119.655 417.75,119.655 416.805,117.135 416.805,117.135 415.96500000000003,114.39 415.35,111.915 415.35,111.915 414.645,108.345 414.645,108.345 414.645,108.345 414.645,108.345 414.645,108.345 414.645,108.345 413.92499999999995,102.55499999999999 413.7,98.75999999999999 413.65500000000003,95.355 413.65500000000003,95.355 413.65500000000003,95.355 414.39000000000004,84.3 414.39000000000004,84.3 414.39000000000004,84.3 414.93,80.46 414.93,80.46 415.935,75.05999999999999 415.935,75.05999999999999 415.935,75.05999999999999 415.935,75.05999999999999 420.33,59.894999999999996 417.70500000000004,67.91999999999999 418.40999999999997,65.56500000000001 424.56,49.845 424.56,49.845 425.88,47.129999999999995 425.88,47.129999999999995 429.645,39.93 429.645,39.93 430.185,38.849999999999994 430.185,38.849999999999994 430.185,38.849999999999994 432.495,33.735 432.495,33.735 434.775,27.855 435.18,26.715 435.18,26.715 436.85999999999996,21.435000000000002 436.85999999999996,21.435000000000002 439.05,14.91 439.05,14.91 439.425,13.950000000000001 439.425,13.950000000000001 439.425,13.950000000000001 439.425,13.950000000000001 439.425,13.950000000000001 439.425,13.950000000000001 439.425,13.950000000000001 443.4,5.505 445.275,2.25 448.02,-1.8900000000000001 448.02,-1.8900000000000001 454.86,-10.110000000000001 454.86,-10.110000000000001 459.3,-14.309999999999999 459.3,-14.309999999999999 459.3,-14.309999999999999 461.40000000000003,-16.064999999999998 461.40000000000003,-16.064999999999998 464.625,-18.495 464.625,-18.495 468.885,-21.285 468.885,-21.285 471.33,-22.68 474.78000000000003,-24.45 474.78000000000003,-24.45 478.86,-26.22 478.86,-26.22 478.86,-26.22 484.03499999999997,-28.05 484.03499999999997,-28.05 484.9200000000001,-28.32 484.9200000000001,-28.32 489.78000000000003,-29.55 493.09499999999997,-30.18 493.09499999999997,-30.18 497.82000000000005,-30.78 497.82000000000005,-30.78 497.82000000000005,-30.78 503.025,-31.049999999999997 503.95500000000004,-31.065 503.95500000000004,-31.065 508.91999999999996,-30.869999999999997 508.91999999999996,-30.869999999999997 508.91999999999996,-30.869999999999997 514.515,-30.195 515.415,-30.045 515.415,-30.045 515.415,-30.045 520.11,-29.009999999999998 520.11,-29.009999999999998 523.5,-28.035 527.325,-26.654999999999998 527.325,-26.654999999999998 527.325,-26.654999999999998 531.24,-24.93 531.24,-24.93 534.4050000000001,-23.28 534.4050000000001,-23.28 537.6450000000001,-21.33 540.555,-19.32 540.555,-19.32 543.5699999999999,-16.935 543.5699999999999,-16.935 543.5699999999999,-16.935 546.3149999999999,-14.43 546.3149999999999,-14.43 549.645,-10.89 549.645,-10.89 550.2750000000001,-10.155000000000001 550.2750000000001,-10.155000000000001 552.9300000000001,-6.675 552.9300000000001,-6.675 554.85,-3.735 556.41,-0.9750000000000001 556.41,-0.9750000000000001 556.41,-0.9750000000000001 558.3149999999999,3.015 559.53,6.135 559.53,6.135 560.55,9.42 560.55,9.42 561.36,12.75 561.36,12.75 561.36,12.75 562.08,17.325 562.08,17.325 562.1700000000001,18.135 562.1700000000001,18.135 562.38,22.634999999999998 562.3050000000001,25.68 562.3050000000001,25.68 562.005,29.04 562.005,29.04 562.005,29.04 561.0150000000001,34.44 560.7900000000001,35.325 559.515,39.51 558.255,42.735 556.14,47.04 555.6899999999999,47.835 555.6899999999999,47.835 555.6899999999999,47.835 555.6899999999999,47.835 553.47,51.405 553.47,51.405 550.5600000000001,55.335 549.42,56.715 549.42,56.715 549.42,56.715 546.945,59.49 546.945,59.49 544.575,62.175 544.575,62.175 541.6949999999999,65.7 541.6949999999999,65.7 539.505,68.625 537.2249999999999,71.85 537.2249999999999,71.85 537.2249999999999,71.85 535.53,74.055 535.53,74.055 532.605,77.4 532.605,77.4 530.07,79.92 527.325,82.32000000000001 527.325,82.32000000000001 524.475,84.51 524.475,84.51 520.8599999999999,86.895 520.8599999999999,86.895 520.8599999999999,86.895 518.5350000000001,88.22999999999999 518.5350000000001,88.22999999999999 514.98,90 510.525,91.81500000000001 510.525,91.81500000000001 509.60999999999996,92.13000000000001 509.60999999999996,92.13000000000001 505.30499999999995,93.405 505.30499999999995,93.405 502.04999999999995,94.14 502.04999999999995,94.14 498.42,94.74 498.42,94.74 494.18999999999994,95.175 494.18999999999994,95.175 494.18999999999994,95.175 490.45500000000004,95.34 487.80000000000007,95.325 487.80000000000007,95.325 483.225,95.07000000000001 483.225,95.07000000000001 479.295,94.59 479.295,94.59 473.91,93.60000000000001 473.91,93.60000000000001 472.90500000000003,93.375 472.90500000000003,93.375 466.85999999999996,91.68 466.85999999999996,91.68 466.85999999999996,91.68 464.97,91.05000000000001 461.43,89.715 461.43,89.715 457.065,87.795 457.065,87.795 457.065,87.795 453.315,85.905 450.66,84.42 450.66,84.42 450.66,84.42 446.52,81.84 443.205,79.515 443.205,79.515 443.205,79.515 440.1,77.1 440.1,77.1 436.995,74.44500000000001 433.83,71.46000000000001 433.83,71.46000000000001 433.83,71.46000000000001 430.90500000000003,68.39999999999999 428.205,65.28 428.205,65.28 428.205,65.28 425.52,61.83 422.355,57.18 422.355,57.18 421.695,56.13 421.695,56.13 418.89,51.135 418.89,51.135 418.02,49.365 415.98,44.730000000000004 414.495,40.71 413.325,36.855 412.38,32.985 412.38,32.985 412.38,32.985 412.38,32.985 411.69,29.31 411.69,29.31 410.96999999999997,23.580000000000002 410.82000000000005,21.54 410.82000000000005,21.54 410.82000000000005,21.54 410.505,14.865 410.505,14.865 410.42999999999995,13.635 410.055,8.774999999999999 410.055,8.774999999999999 409.60499999999996,4.455 409.60499999999996,4.455 409.09499999999997,0.44999999999999996 409.09499999999997,0.44999999999999996 409.09499999999997,0.44999999999999996 408.645,-3.75 408.48,-8.625 408.48,-8.625 408.48,-8.625 408.76500000000004,-14.19 408.76500000000004,-14.19 408.855,-15.09 408.855,-15.09 409.89,-21.255 409.89,-21.255 409.89,-21.255 409.89,-21.255 413.895,-32.295 411.36,-26.384999999999998 412.23,-28.665 419.52,-40.575 419.52,-40.575 419.52,-40.575 419.52,-40.575 421.515,-42.735 423.525,-44.64 427.815,-48.015 427.815,-48.015 427.815,-48.015 428.52000000000004,-48.51 432.225,-50.879999999999995 432.225,-50.879999999999995 434.295,-52.26 434.295,-52.26 437.03999999999996,-54.24 437.03999999999996,-54.24 439.875,-56.445 439.875,-56.445 442.04999999999995,-58.230000000000004 442.04999999999995,-58.230000000000004 442.04999999999995,-58.230000000000004 445.56,-61.32 448.32000000000005,-63.915 448.32000000000005,-63.915 448.32000000000005,-63.915 451.23,-66.52499999999999 454.33500000000004,-68.895 451.23,-66.52499999999999 454.33500000000004,-68.895 454.33500000000004,-68.895 454.33500000000004,-68.895 454.33500000000004,-68.895 463.815,-74.235 460.035,-72.405 466.995,-75.48 466.995,-75.48 466.995,-75.48 466.995,-75.48 476.96999999999997,-77.88 476.96999999999997,-77.88 480.495,-78.24000000000001 480.495,-78.24000000000001 483.03,-78.33000000000001 483.03,-78.33000000000001 486.3,-78.28500000000001 486.3,-78.28500000000001 489.76500000000004,-78.015 493.24500000000006,-77.52 493.24500000000006,-77.52 493.24500000000006,-77.52 496.81500000000005,-76.77000000000001 500.05500000000006,-75.89999999999999 500.05500000000006,-75.89999999999999 503.56499999999994,-74.715 503.56499999999994,-74.715 506.81999999999994,-73.395 503.56499999999994,-74.715 506.81999999999994,-73.395 511.38,-71.16 512.805,-70.38 512.805,-70.38 517.785,-67.2 512.805,-70.38 517.785,-67.2 518.595,-66.615 522.33,-63.675000000000004 522.33,-63.675000000000004 522.33,-63.675000000000004 525.045,-61.215 527.475,-58.77 527.475,-58.77 529.695,-56.265 529.695,-56.265 533.355,-51.39 533.355,-51.39 533.355,-51.39 533.955,-50.46 536.115,-46.785000000000004 536.115,-46.785000000000004 537.51,-43.995 537.51,-43.995 537.51,-43.995 539.205,-39.87 540.3000000000001,-36.39 540.3000000000001,-36.39 540.915,-33.9 540.915,-33.9 540.915,-33.9 541.53,-30.435 541.8449999999999,-26.91 541.8449999999999,-26.91 541.8449999999999,-26.91 541.83,-22.634999999999998 541.6949999999999,-21.075 541.83,-22.634999999999998 541.6949999999999,-21.075 540.855,-16.215 540.855,-16.215 540.63,-15.36 539.2950000000001,-11.505 539.2950000000001,-11.505 539.2950000000001,-11.505 538.71,-10.200000000000001 536.565,-6.465 536.565,-6.465"></polyline></svg>
