<svg xmlns="http://www.w3.org/2000/svg" viewBox="-59.64 -282.29 800 567.08" width="800" height="567.08" version="1.1" id="model_3" class="canvas">
<rect x="-59.64" y="-282.29" height="567.08" width="100%" fill="gray" fill-opacity="0.1"></rect><path fill="red" transform="translate(-12 -12)" d="M12,4.64516129 C7.93451613,4.64516129 4.64516129,7.93548387 4.64516129,12 C4.64516129,16.0654839 7.93548387,19.3548387 12,19.3548387 C16.0654839,19.3548387 19.3548387,16.0645161 19.3548387,12 C19.3548387,7.93451613 16.0645161,4.64516129 12,4.64516129 Z M12,17.0322581 C9.225,17.0322581 6.96774194,14.775 6.96774194,12 C6.96774194,9.225 9.225,6.96774194 12,6.96774194 C14.775,6.96774194 17.0322581,9.225 17.0322581,12 C17.0322581,14.775 14.775,17.0322581 12,17.0322581 Z M12,0 C5.37241935,0 0,5.37241935 0,12 C0,18.6275806 5.37241935,24 12,24 C18.6275806,24 24,18.6275806 24,12 C24,5.37241935 18.6275806,0 12,0 Z M12,21.6774194 C6.66387097,21.6774194 2.32258065,17.336129 2.32258065,12 C2.32258065,6.66387097 6.66387097,2.32258065 12,2.32258065 C17.336129,2.32258065 21.6774194,6.66387097 21.6774194,12 C21.6774194,17.336129 17.336129,21.6774194 12,21.6774194 Z M12,9.29032258 C10.5058065,9.29032258 9.29032258,10.5058065 9.29032258,12 C9.29032258,13.4941935 10.5058065,14.7096774 12,14.7096774 C13.4941935,14.7096774 14.7096774,13.4941935 14.7096774,12 C14.7096774,10.5058065 13.4941935,9.29032258 12,9.29032258 Z"></path><path fill="blue" transform="translate(196.29999999999998 -12)" d="M12,4.64516129 C7.93451613,4.64516129 4.64516129,7.93548387 4.64516129,12 C4.64516129,16.0654839 7.93548387,19.3548387 12,19.3548387 C16.0654839,19.3548387 19.3548387,16.0645161 19.3548387,12 C19.3548387,7.93451613 16.0645161,4.64516129 12,4.64516129 Z M12,17.0322581 C9.225,17.0322581 6.96774194,14.775 6.96774194,12 C6.96774194,9.225 9.225,6.96774194 12,6.96774194 C14.775,6.96774194 17.0322581,9.225 17.0322581,12 C17.0322581,14.775 14.775,17.0322581 12,17.0322581 Z M12,0 C5.37241935,0 0,5.37241935 0,12 C0,18.6275806 5.37241935,24 12,24 C18.6275806,24 24,18.6275806 24,12 C24,5.37241935 18.6275806,0 12,0 Z M12,21.6774194 C6.66387097,21.6774194 2.32258065,17.336129 2.32258065,12 C2.32258065,6.66387097 6.66387097,2.32258065 12,2.32258065 C17.336129,2.32258065 21.6774194,6.66387097 21.6774194,12 C21.6774194,17.336129 17.336129,21.6774194 12,21.6774194 Z M12,9.29032258 C10.5058065,9.29032258 9.29032258,10.5058065 9.29032258,12 C9.29032258,13.4941935 10.5058065,14.7096774 12,14.7096774 C13.4941935,14.7096774 14.7096774,13.4941935 14.7096774,12 C14.7096774,10.5058065 13.4941935,9.29032258 12,9.29032258 Z"></path><path transform="translate(333.62 118.13999999999999)" fill="red" d="M15.9098437,4.32796875 C16.3420443,2.98020924 17.6596148,2.11976685 19.0674127,2.26591124 C20.4752105,2.41205563 21.5879444,3.52478945 21.7340888,4.93258732 C21.8802332,6.3403852 21.0197908,7.6579557 19.6720312,8.09015625 L17.9878125,10.423125 C18.239625,10.4675587 18.4943863,10.4932542 18.75,10.5 C21.6494949,10.5 24,8.14949494 24,5.25 C24,2.35050506 21.6494949,-6.19949465e-14 18.75,-6.21724894e-14 C15.8505051,-6.23500322e-14 13.5,2.35050506 13.5,5.25 C13.5067458,5.5056137 13.5324413,5.76037503 13.576875,6.0121875 L15.9098437,4.32796875 Z M5.203125,17.259375 C4.3883515,17.2824352 3.74204012,17.9536015 3.74972776,18.768665 C3.75741539,19.5837285 4.41627146,20.2425846 5.23133498,20.2502722 C6.04639849,20.2579599 6.71756483,19.6116485 6.740625,18.796875 L9.9215625,16.5 L14.0784375,16.5 L17.259375,18.796875 C17.2824352,19.6116485 17.9536015,20.2579599 18.768665,20.2502722 C19.5837285,20.2425846 20.2425846,19.5837285 20.2502722,18.768665 C20.2579599,17.9536015 19.6116485,17.2824352 18.796875,17.259375 L16.5,14.0784375 L16.5,9.9215625 L18.796875,6.740625 C19.6116485,6.71756483 20.2579599,6.04639849 20.2502722,5.23133498 C20.2425846,4.41627146 19.5837285,3.75741539 18.768665,3.74972776 C17.9536015,3.74204012 17.2824352,4.3883515 17.259375,5.203125 L14.0784375,7.5 L9.9215625,7.5 L6.740625,5.203125 C6.71756483,4.3883515 6.04639849,3.74204012 5.23133498,3.74972776 C4.41627146,3.75741539 3.75741539,4.41627146 3.74972776,5.23133498 C3.74204012,6.04639849 4.3883515,6.71756483 5.203125,6.740625 L7.5,9.9215625 L7.5,14.0784375 L5.203125,17.259375 Z M9.75,9.75 L14.25,9.75 L14.25,14.25 L9.75,14.25 L9.75,9.75 Z M18.75,13.5 C18.4943877,13.5067681 18.239628,13.5324635 17.9878125,13.576875 L19.6720312,15.9098437 C21.0199025,16.3419927 21.8804341,17.6596468 21.7342495,19.0675317 C21.5880648,20.4754165 20.4751777,21.588165 19.0672747,21.7341742 C17.6593716,21.8801834 16.3418248,21.0194876 15.9098437,19.6715625 L13.576875,17.9878125 C13.5324413,18.239625 13.5067458,18.4943863 13.5,18.75 C13.5,21.6494949 15.8505051,24 18.75,24 C21.6494949,24 24,21.6494949 24,18.75 C24,15.8505051 21.6494949,13.5 18.75,13.5 Z M5.25,10.5 C5.5056137,10.4932542 5.76037503,10.4675587 6.0121875,10.423125 L4.3284375,8.09015625 C2.98051243,7.65817522 2.11981663,6.34062835 2.26582584,4.93272533 C2.41183504,3.52482231 3.52458353,2.41193516 4.93246835,2.26575053 C6.34035317,2.11956589 7.65800726,2.98009751 8.09015625,4.32796875 L10.423125,6.0121875 C10.4675365,5.76037197 10.4932319,5.50561228 10.5,5.25 C10.5,2.35050506 8.14949494,1.7754286e-16 5.25,0 C2.35050506,-1.7754286e-16 -8.66863994e-14,2.35050506 -8.70414851e-14,5.25 C-8.73965708e-14,8.14949494 2.35050506,10.5 5.25,10.5 Z M8.09015625,19.6720312 C7.6579557,21.0197908 6.3403852,21.8802332 4.93258732,21.7340888 C3.52478945,21.5879444 2.41205563,20.4752105 2.26591124,19.0674127 C2.11976685,17.6596148 2.98020924,16.3420443 4.32796875,15.9098437 L6.0121875,13.576875 C5.76037503,13.5324413 5.5056137,13.5067458 5.25,13.5 C2.35050506,13.5 3.55085719e-16,15.8505051 0,18.75 C-3.55085719e-16,21.6494949 2.35050506,24 5.25,24 C8.14949494,24 10.5,21.6494949 10.5,18.75 C10.4932542,18.4943863 10.4675587,18.239625 10.423125,17.9878125 L8.09015625,19.6720312 Z"></path><path transform="translate(341.24 246.79000000000002)" fill="blue" d="M15.9098437,4.32796875 C16.3420443,2.98020924 17.6596148,2.11976685 19.0674127,2.26591124 C20.4752105,2.41205563 21.5879444,3.52478945 21.7340888,4.93258732 C21.8802332,6.3403852 21.0197908,7.6579557 19.6720312,8.09015625 L17.9878125,10.423125 C18.239625,10.4675587 18.4943863,10.4932542 18.75,10.5 C21.6494949,10.5 24,8.14949494 24,5.25 C24,2.35050506 21.6494949,-6.19949465e-14 18.75,-6.21724894e-14 C15.8505051,-6.23500322e-14 13.5,2.35050506 13.5,5.25 C13.5067458,5.5056137 13.5324413,5.76037503 13.576875,6.0121875 L15.9098437,4.32796875 Z M5.203125,17.259375 C4.3883515,17.2824352 3.74204012,17.9536015 3.74972776,18.768665 C3.75741539,19.5837285 4.41627146,20.2425846 5.23133498,20.2502722 C6.04639849,20.2579599 6.71756483,19.6116485 6.740625,18.796875 L9.9215625,16.5 L14.0784375,16.5 L17.259375,18.796875 C17.2824352,19.6116485 17.9536015,20.2579599 18.768665,20.2502722 C19.5837285,20.2425846 20.2425846,19.5837285 20.2502722,18.768665 C20.2579599,17.9536015 19.6116485,17.2824352 18.796875,17.259375 L16.5,14.0784375 L16.5,9.9215625 L18.796875,6.740625 C19.6116485,6.71756483 20.2579599,6.04639849 20.2502722,5.23133498 C20.2425846,4.41627146 19.5837285,3.75741539 18.768665,3.74972776 C17.9536015,3.74204012 17.2824352,4.3883515 17.259375,5.203125 L14.0784375,7.5 L9.9215625,7.5 L6.740625,5.203125 C6.71756483,4.3883515 6.04639849,3.74204012 5.23133498,3.74972776 C4.41627146,3.75741539 3.75741539,4.41627146 3.74972776,5.23133498 C3.74204012,6.04639849 4.3883515,6.71756483 5.203125,6.740625 L7.5,9.9215625 L7.5,14.0784375 L5.203125,17.259375 Z M9.75,9.75 L14.25,9.75 L14.25,14.25 L9.75,14.25 L9.75,9.75 Z M18.75,13.5 C18.4943877,13.5067681 18.239628,13.5324635 17.9878125,13.576875 L19.6720312,15.9098437 C21.0199025,16.3419927 21.8804341,17.6596468 21.7342495,19.0675317 C21.5880648,20.4754165 20.4751777,21.588165 19.0672747,21.7341742 C17.6593716,21.8801834 16.3418248,21.0194876 15.9098437,19.6715625 L13.576875,17.9878125 C13.5324413,18.239625 13.5067458,18.4943863 13.5,18.75 C13.5,21.6494949 15.8505051,24 18.75,24 C21.6494949,24 24,21.6494949 24,18.75 C24,15.8505051 21.6494949,13.5 18.75,13.5 Z M5.25,10.5 C5.5056137,10.4932542 5.76037503,10.4675587 6.0121875,10.423125 L4.3284375,8.09015625 C2.98051243,7.65817522 2.11981663,6.34062835 2.26582584,4.93272533 C2.41183504,3.52482231 3.52458353,2.41193516 4.93246835,2.26575053 C6.34035317,2.11956589 7.65800726,2.98009751 8.09015625,4.32796875 L10.423125,6.0121875 C10.4675365,5.76037197 10.4932319,5.50561228 10.5,5.25 C10.5,2.35050506 8.14949494,1.7754286e-16 5.25,0 C2.35050506,-1.7754286e-16 -8.66863994e-14,2.35050506 -8.70414851e-14,5.25 C-8.73965708e-14,8.14949494 2.35050506,10.5 5.25,10.5 Z M8.09015625,19.6720312 C7.6579557,21.0197908 6.3403852,21.8802332 4.93258732,21.7340888 C3.52478945,21.5879444 2.41205563,20.4752105 2.26591124,19.0674127 C2.11976685,17.6596148 2.98020924,16.3420443 4.32796875,15.9098437 L6.0121875,13.576875 C5.76037503,13.5324413 5.5056137,13.5067458 5.25,13.5 C2.35050506,13.5 3.55085719e-16,15.8505051 0,18.75 C-3.55085719e-16,21.6494949 2.35050506,24 5.25,24 C8.14949494,24 10.5,21.6494949 10.5,18.75 C10.4932542,18.4943863 10.4675587,18.239625 10.423125,17.9878125 L8.09015625,19.6720312 Z"></path><polyline fill="none" stroke="red" stroke-opacity="0.4" stroke-width="3" points="0,0 0,0 0.02,0 0.16,-0.01 1.26,-0.01 2.71,0.01 4.18,0.04 7.91,0.14 10.129999999999999,0.16 12.509999999999998,0.16 14.450000000000001,0.15 22.93,0.02 29.310000000000002,-0.17 37.730000000000004,-0.42999999999999994 39.900000000000006,-0.47 46.57,-0.56 49.91,-0.59 59.699999999999996,-0.5800000000000001 65.7,-0.53 70.93,-0.45999999999999996 77.78999999999999,-0.37 83.68,-0.28 88.31,-0.21000000000000002 101.98,0.04 125.82000000000001,0.66 138.18,0.96 154.94,1.24 175.99,1.53 184.72000000000003,1.7100000000000002 190.09,1.8399999999999999 204.01,2.19 224.37,2.72 228.18,2.8299999999999996 245.13000000000002,3.43 250.36,3.69 256.07,4.0200000000000005 277.84,5.88 279.90999999999997,6.1 291.88,7.54 299.25,8.57 304.77,9.45 316.21,11.57 323.68,13.23 339.88,17.68 352.96,22.22 360.06,25.06 367.01,28.11 373.59000000000003,31.29 411.28999999999996,56.980000000000004 407.98,54.15 420.6,65.67999999999999 438.81,87.96 440.77,90.9 448.68,104.52 451.73,110.92 456.75,123.78 458.64,130.01 459.49,133.23000000000002 462.21,148.03 462.5,150.86 462.70000000000005,168.52 461.96,175.55 460.07,185.45000000000002 459.45,187.81 457.89,192.91 454.47,201.46 448,212.77999999999997 446.43,214.98999999999998 441.86,220.66 431.46999999999997,230.32 427.77,233.07 424.78000000000003,235.07999999999998 420.79999999999995,237.45999999999998 395.05,246.9 384.34,248.66 381.70000000000005,248.96 374.76,249.53 369.42999999999995,249.74 364.35,249.72000000000003 357.2,249.45 336.13,247.02 325.76,245 322.56,244.28 304.40000000000003,239.41 296.59,236.86 290.76,234.8 270.68,226.88 267.52,225.51999999999998 258.18,221.37 232.54999999999998,208.72 224.98000000000002,204.64 220.06,201.89 199.38,189.74 189.39,183.38 177.34000000000003,175.39000000000001 175.82999999999998,174.37 161.75,164.52 157.08,161.13 149.43,155.47 143.1,150.68 128.23000000000002,139.12 117.28999999999999,130.32999999999998 112.68,126.53 96.97,113.08999999999999 90.64,107.47 86.32999999999998,103.56 80.82000000000001,98.43 67.59,85.49 45.66,61.86 39.01,54.029999999999994 14.350000000000001,21.009999999999998 5.2700000000000005,6.92 -1.6400000000000001,-4.76 -7.960000000000001,-16.439999999999998 -9.82,-20.09 -18.71,-39.65 -21.53,-46.900000000000006 -27.599999999999998,-65.02 -30.419999999999998,-75.65 -30.89,-77.64 -35.42,-108.2 -35.64,-111.63 -32.67,-154.29 -31.299999999999997,-160.72 -27.810000000000002,-173.26 -22.029999999999998,-188.07 -20.64,-191.03000000000003 -14.98,-201.6 -14.11,-203.06 -6.93,-213.55 10.48,-231.79 12.509999999999998,-233.49 19.35,-238.72 35.89,-248.26 46.69,-252.65 53.26,-254.69 57.14,-255.69 69.53,-257.79 75.55,-258.21000000000004 81.21000000000001,-258.29 85.06,-258.15000000000003 97,-256.86 119.00999999999999,-251.02 130.26,-246.20000000000002 137.98,-242.12 143.98999999999998,-238.55 148.49,-235.65 159.18,-227.91 171.49,-217.47 178.81,-210.36 185.71,-203.1 195.94,-191.23999999999998 199.28,-187.10999999999999 218.49,-160.89 225.27,-150.74 231.94,-140.26999999999998 235.67000000000002,-134.18 249.98000000000002,-109.55 258.03000000000003,-94.9 262.31,-86.82000000000001 265.65999999999997,-80.27 271.48,-68.44 279.65,-50.86 282.06,-45.49 292.86,-20.4 296.35,-11.98 300.96,-0.5800000000000001 309.57,21.619999999999997 323.60999999999996,60.7 324.34,62.809999999999995 328.48,74.77000000000001 329.85,78.77 336.24,98.46000000000001 338.59000000000003,106.1 340.46,112.33000000000001 345.62,130.14"></polyline><polyline fill="none" stroke="blue" stroke-opacity="0.4" stroke-width="3" points="208.29999999999998,0 207.47,0 206.75,0 207.86,0 209.88,0 210.84,0 213.28,0 218.29999999999998,0 222.73,0 226.40999999999997,0 228.67000000000002,0 233.1,0 235.7,0 250.07000000000002,0.01 256.06,0.02 268.26,0.8899999999999999 271.27,1.57 276.45,3.24 283.41,6.62 287.38,9.26 296.72999999999996,18.169999999999998 297.3,18.86 299.72,22.06 305.3,31.47 306.94,35.08 307.79,37.18 311.42,49.230000000000004 313.96000000000004,62.79 314.04,63.550000000000004 314.34999999999997,77.51 313.51,84.67 313.07,87.09 311.31,93.9 309.89,97.91 309.13,99.78999999999999 305.14,107.71000000000001 302.94,111.16 301.74,112.88 295.83,120.02000000000001 291.12,124.27 288.14,126.37 285.65000000000003,127.8 283.48,128.85999999999999 282.07,129.5 279.57,130.54 277.43,131.32999999999998 275.12,132.09 272.78,132.79 270.41,133.41 260,135.41 253.32999999999998,136.16 244.57,136.64 241.70999999999998,136.68 232.39000000000001,136.44 229.07,136.23 225.01999999999998,135.88 221.72,135.54 218.6,135.15 208.66,133.58 201.26999999999998,132.09 193.88000000000002,130.35 190.37,129.43 182.45000000000002,127.18 179.01,126.11000000000001 172.64,124.00999999999999 159.94,119.32000000000001 156.35,117.88 148.93,114.76 138.01999999999998,109.78 132.99,107.35 130.59,106.15 123.29,102.39000000000001 112.62,96.58 106.77,93.22 105.25,92.33000000000001 96.17000000000002,86.86 85.84,80.31 78.60000000000001,75.01 75.85,72.66 70.11,67.03999999999999 67.88,64.53 62.1,56.54 60.87,54.41 58.239999999999995,48.92 55.410000000000004,39.41 54.589999999999996,32.13 54.699999999999996,26.75 56.02,18.740000000000002 57.82,13.309999999999999 58.84,10.940000000000001 61.64,5.33 62.21,4.33 65.74,-1.18 72.39,-9.3 72.93,-9.87 76.05000000000001,-12.91 82.22,-18.03 93.74000000000001,-24.950000000000003 102.47999999999999,-28.479999999999997 104.49,-29.11 108.66,-30.2 111.71,-30.85 114.62,-31.34 122.88,-32.15 127.38,-32.28 148.12,-30.240000000000002 149.77,-29.91 153.06,-29.19 157.16,-28.18 159.70000000000002,-27.480000000000004 170.14,-24.020000000000003 184.85,-17.57 192.69,-13.39 196.76999999999998,-11.020000000000001 214.32,0.8599999999999999 221.70000000000002,6.7 224.54999999999998,9.08 227.36,11.52 235.9,19.41 241.52999999999997,25.04 245.07999999999998,28.769999999999996 256.26,41.5 258.89,44.71 263.75,50.89 271.78000000000003,61.769999999999996 277.94,70.75 280.85,75.17 285.71999999999997,82.88 288.77,87.88 290.07,90.07 295.88,100.18 296.32,100.96000000000001 301.01,109.57000000000001 303.53000000000003,114.39 305.37,117.96 307.25,121.67999999999999 309.1,125.41 311.38,130.10999999999999 313.29,134.13 316.82,141.74 318.65,145.82 320.73,150.51999999999998 325.89,162.68 329.78000000000003,172.27 334.24,183.81 339.03,196.84 341.59999999999997,204.16 345.69000000000005,216.23000000000002 346.4,218.4 348.21,224.02999999999997 349.18999999999994,227.10000000000002 350.75,232.51000000000002 352.81999999999994,244.01 353.19000000000005,247.74 353.37,251.14999999999998 353.40000000000003,255.49 353.24,258.79"></polyline><text font-family="Arial, Helvetica, sans-serif" font-size="24" x="614.36" y="-248.29000000000002">Scale 67%</text></svg>

