<svg xmlns="http://www.w3.org/2000/svg" class="frappe-chart chart" width="600" height="400"><defs></defs><text class="title" x="20" y="10" dy="12px" font-size="12px" fill="#666666" text-anchor="start">My Location Recency (milliseconds)</text><g class="bar-chart chart-draw-area" transform="translate(50, 50)"><g class="y axis" transform=""><g transform="translate(0, 270)" stroke-opacity="1"><line class="line-horizontal " x1="-6" x2="526" y1="0" y2="0" style="stroke: rgb(218, 218, 218);"></line><text x="-10" y="0" dy="3px" font-size="10px" text-anchor="end">0</text></g><g transform="translate(0, 202.5)" stroke-opacity="1"><line class="line-horizontal " x1="-6" x2="526" y1="0" y2="0" style="stroke: rgb(218, 218, 218);"></line><text x="-10" y="0" dy="3px" font-size="10px" text-anchor="end">50</text></g><g transform="translate(0, 135)" stroke-opacity="1"><line class="line-horizontal " x1="-6" x2="526" y1="0" y2="0" style="stroke: rgb(218, 218, 218);"></line><text x="-10" y="0" dy="3px" font-size="10px" text-anchor="end">100</text></g><g transform="translate(0, 67.5)" stroke-opacity="1"><line class="line-horizontal " x1="-6" x2="526" y1="0" y2="0" style="stroke: rgb(218, 218, 218);"></line><text x="-10" y="0" dy="3px" font-size="10px" text-anchor="end">150</text></g><g transform="translate(0, 0)" stroke-opacity="1"><line class="line-horizontal " x1="-6" x2="526" y1="0" y2="0" style="stroke: rgb(218, 218, 218);"></line><text x="-10" y="0" dy="3px" font-size="10px" text-anchor="end">200</text></g></g><g class="x axis" transform=""><g transform="translate(65, 0)"><line class="line-vertical " x1="0" x2="0" y1="276" y2="-6" style="stroke: rgb(218, 218, 218);"></line><text x="0" y="280" dy="10px" font-size="10px" text-anchor="middle">Model 1</text></g><g transform="translate(195, 0)"><line class="line-vertical " x1="0" x2="0" y1="276" y2="-6" style="stroke: rgb(218, 218, 218);"></line><text x="0" y="280" dy="10px" font-size="10px" text-anchor="middle">Model 2</text></g><g transform="translate(325, 0)"><line class="line-vertical " x1="0" x2="0" y1="276" y2="-6" style="stroke: rgb(218, 218, 218);"></line><text x="0" y="280" dy="10px" font-size="10px" text-anchor="middle">Model 3</text></g><g transform="translate(455, 0)"><line class="line-vertical " x1="0" x2="0" y1="276" y2="-6" style="stroke: rgb(218, 218, 218);"></line><text x="0" y="280" dy="10px" font-size="10px" text-anchor="middle">Model 4</text></g></g><g class="dataset-units dataset-bars dataset-0" transform=""><rect class="bar mini" style="fill: #b554ff" data-point-index="0" x="32.5" y="267.3" width="32.5" height="2.7"></rect><rect class="bar mini" style="fill: #b554ff" data-point-index="1" x="162.5" y="139.07" width="32.5" height="130.93"></rect><rect class="bar mini" style="fill: #b554ff" data-point-index="2" x="292.5" y="106.61" width="32.5" height="163.39"></rect><rect class="bar mini" style="fill: #b554ff" data-point-index="3" x="422.5" y="114.31" width="32.5" height="155.69"></rect></g><g class="dataset-units dataset-bars dataset-1" transform=""><rect class="bar mini" style="fill: #ffa3ef" data-point-index="0" x="65" y="267.3" width="32.5" height="2.7"></rect><rect class="bar mini" style="fill: #ffa3ef" data-point-index="1" x="195" y="269.68" width="32.5" height="0.3199999999999932"></rect><rect class="bar mini" style="fill: #ffa3ef" data-point-index="2" x="325" y="269.94" width="32.5" height="0.060000000000002274"></rect><rect class="bar mini" style="fill: #ffa3ef" data-point-index="3" x="455" y="131.91" width="32.5" height="138.09"></rect></g></g><g class="chart-legend" transform="translate(50, 360)"><g transform="translate(0, 0)"><rect class="legend-bar" x="0" y="0" width="100" height="2px" fill="#b554ff"></rect><text class="legend-dataset-text" x="0" y="0" dy="20px" font-size="12px" text-anchor="start" fill="#555b51">Evader</text></g><g transform="translate(100, 0)"><rect class="legend-bar" x="0" y="0" width="100" height="2px" fill="#ffa3ef"></rect><text class="legend-dataset-text" x="0" y="0" dy="20px" font-size="12px" text-anchor="start" fill="#555b51">Pursuer</text></g></g></svg>
