<svg xmlns="http://www.w3.org/2000/svg" viewBox="0 0 400 400" width="400" height="400" version="1.1" id="canvas2" class="canvas">
    <rect height="100%" width="100%" fill="gray" fill-opacity="0.1"></rect>
    <path id="evader2" fill="blue" d="M15.9098437,4.32796875 C16.3420443,2.98020924 17.6596148,2.11976685 19.0674127,2.26591124 C20.4752105,2.41205563 21.5879444,3.52478945 21.7340888,4.93258732 C21.8802332,6.3403852 21.0197908,7.6579557 19.6720312,8.09015625 L17.9878125,10.423125 C18.239625,10.4675587 18.4943863,10.4932542 18.75,10.5 C21.6494949,10.5 24,8.14949494 24,5.25 C24,2.35050506 21.6494949,-6.19949465e-14 18.75,-6.21724894e-14 C15.8505051,-6.23500322e-14 13.5,2.35050506 13.5,5.25 C13.5067458,5.5056137 13.5324413,5.76037503 13.576875,6.0121875 L15.9098437,4.32796875 Z M5.203125,17.259375 C4.3883515,17.2824352 3.74204012,17.9536015 3.74972776,18.768665 C3.75741539,19.5837285 4.41627146,20.2425846 5.23133498,20.2502722 C6.04639849,20.2579599 6.71756483,19.6116485 6.740625,18.796875 L9.9215625,16.5 L14.0784375,16.5 L17.259375,18.796875 C17.2824352,19.6116485 17.9536015,20.2579599 18.768665,20.2502722 C19.5837285,20.2425846 20.2425846,19.5837285 20.2502722,18.768665 C20.2579599,17.9536015 19.6116485,17.2824352 18.796875,17.259375 L16.5,14.0784375 L16.5,9.9215625 L18.796875,6.740625 C19.6116485,6.71756483 20.2579599,6.04639849 20.2502722,5.23133498 C20.2425846,4.41627146 19.5837285,3.75741539 18.768665,3.74972776 C17.9536015,3.74204012 17.2824352,4.3883515 17.259375,5.203125 L14.0784375,7.5 L9.9215625,7.5 L6.740625,5.203125 C6.71756483,4.3883515 6.04639849,3.74204012 5.23133498,3.74972776 C4.41627146,3.75741539 3.75741539,4.41627146 3.74972776,5.23133498 C3.74204012,6.04639849 4.3883515,6.71756483 5.203125,6.740625 L7.5,9.9215625 L7.5,14.0784375 L5.203125,17.259375 Z M9.75,9.75 L14.25,9.75 L14.25,14.25 L9.75,14.25 L9.75,9.75 Z M18.75,13.5 C18.4943877,13.5067681 18.239628,13.5324635 17.9878125,13.576875 L19.6720312,15.9098437 C21.0199025,16.3419927 21.8804341,17.6596468 21.7342495,19.0675317 C21.5880648,20.4754165 20.4751777,21.588165 19.0672747,21.7341742 C17.6593716,21.8801834 16.3418248,21.0194876 15.9098437,19.6715625 L13.576875,17.9878125 C13.5324413,18.239625 13.5067458,18.4943863 13.5,18.75 C13.5,21.6494949 15.8505051,24 18.75,24 C21.6494949,24 24,21.6494949 24,18.75 C24,15.8505051 21.6494949,13.5 18.75,13.5 Z M5.25,10.5 C5.5056137,10.4932542 5.76037503,10.4675587 6.0121875,10.423125 L4.3284375,8.09015625 C2.98051243,7.65817522 2.11981663,6.34062835 2.26582584,4.93272533 C2.41183504,3.52482231 3.52458353,2.41193516 4.93246835,2.26575053 C6.34035317,2.11956589 7.65800726,2.98009751 8.09015625,4.32796875 L10.423125,6.0121875 C10.4675365,5.76037197 10.4932319,5.50561228 10.5,5.25 C10.5,2.35050506 8.14949494,1.7754286e-16 5.25,0 C2.35050506,-1.7754286e-16 -8.66863994e-14,2.35050506 -8.70414851e-14,5.25 C-8.73965708e-14,8.14949494 2.35050506,10.5 5.25,10.5 Z M8.09015625,19.6720312 C7.6579557,21.0197908 6.3403852,21.8802332 4.93258732,21.7340888 C3.52478945,21.5879444 2.41205563,20.4752105 2.26591124,19.0674127 C2.11976685,17.6596148 2.98020924,16.3420443 4.32796875,15.9098437 L6.0121875,13.576875 C5.76037503,13.5324413 5.5056137,13.5067458 5.25,13.5 C2.35050506,13.5 3.55085719e-16,15.8505051 0,18.75 C-3.55085719e-16,21.6494949 2.35050506,24 5.25,24 C8.14949494,24 10.5,21.6494949 10.5,18.75 C10.4932542,18.4943863 10.4675587,18.239625 10.423125,17.9878125 L8.09015625,19.6720312 Z" transform="translate(-0.9616663414908153, 183.14751408253585)"></path>
    <path id="pursuer2" fill="red" d="M15.9098437,4.32796875 C16.3420443,2.98020924 17.6596148,2.11976685 19.0674127,2.26591124 C20.4752105,2.41205563 21.5879444,3.52478945 21.7340888,4.93258732 C21.8802332,6.3403852 21.0197908,7.6579557 19.6720312,8.09015625 L17.9878125,10.423125 C18.239625,10.4675587 18.4943863,10.4932542 18.75,10.5 C21.6494949,10.5 24,8.14949494 24,5.25 C24,2.35050506 21.6494949,-6.19949465e-14 18.75,-6.21724894e-14 C15.8505051,-6.23500322e-14 13.5,2.35050506 13.5,5.25 C13.5067458,5.5056137 13.5324413,5.76037503 13.576875,6.0121875 L15.9098437,4.32796875 Z M5.203125,17.259375 C4.3883515,17.2824352 3.74204012,17.9536015 3.74972776,18.768665 C3.75741539,19.5837285 4.41627146,20.2425846 5.23133498,20.2502722 C6.04639849,20.2579599 6.71756483,19.6116485 6.740625,18.796875 L9.9215625,16.5 L14.0784375,16.5 L17.259375,18.796875 C17.2824352,19.6116485 17.9536015,20.2579599 18.768665,20.2502722 C19.5837285,20.2425846 20.2425846,19.5837285 20.2502722,18.768665 C20.2579599,17.9536015 19.6116485,17.2824352 18.796875,17.259375 L16.5,14.0784375 L16.5,9.9215625 L18.796875,6.740625 C19.6116485,6.71756483 20.2579599,6.04639849 20.2502722,5.23133498 C20.2425846,4.41627146 19.5837285,3.75741539 18.768665,3.74972776 C17.9536015,3.74204012 17.2824352,4.3883515 17.259375,5.203125 L14.0784375,7.5 L9.9215625,7.5 L6.740625,5.203125 C6.71756483,4.3883515 6.04639849,3.74204012 5.23133498,3.74972776 C4.41627146,3.75741539 3.75741539,4.41627146 3.74972776,5.23133498 C3.74204012,6.04639849 4.3883515,6.71756483 5.203125,6.740625 L7.5,9.9215625 L7.5,14.0784375 L5.203125,17.259375 Z M9.75,9.75 L14.25,9.75 L14.25,14.25 L9.75,14.25 L9.75,9.75 Z M18.75,13.5 C18.4943877,13.5067681 18.239628,13.5324635 17.9878125,13.576875 L19.6720312,15.9098437 C21.0199025,16.3419927 21.8804341,17.6596468 21.7342495,19.0675317 C21.5880648,20.4754165 20.4751777,21.588165 19.0672747,21.7341742 C17.6593716,21.8801834 16.3418248,21.0194876 15.9098437,19.6715625 L13.576875,17.9878125 C13.5324413,18.239625 13.5067458,18.4943863 13.5,18.75 C13.5,21.6494949 15.8505051,24 18.75,24 C21.6494949,24 24,21.6494949 24,18.75 C24,15.8505051 21.6494949,13.5 18.75,13.5 Z M5.25,10.5 C5.5056137,10.4932542 5.76037503,10.4675587 6.0121875,10.423125 L4.3284375,8.09015625 C2.98051243,7.65817522 2.11981663,6.34062835 2.26582584,4.93272533 C2.41183504,3.52482231 3.52458353,2.41193516 4.93246835,2.26575053 C6.34035317,2.11956589 7.65800726,2.98009751 8.09015625,4.32796875 L10.423125,6.0121875 C10.4675365,5.76037197 10.4932319,5.50561228 10.5,5.25 C10.5,2.35050506 8.14949494,1.7754286e-16 5.25,0 C2.35050506,-1.7754286e-16 -8.66863994e-14,2.35050506 -8.70414851e-14,5.25 C-8.73965708e-14,8.14949494 2.35050506,10.5 5.25,10.5 Z M8.09015625,19.6720312 C7.6579557,21.0197908 6.3403852,21.8802332 4.93258732,21.7340888 C3.52478945,21.5879444 2.41205563,20.4752105 2.26591124,19.0674127 C2.11976685,17.6596148 2.98020924,16.3420443 4.32796875,15.9098437 L6.0121875,13.576875 C5.76037503,13.5324413 5.5056137,13.5067458 5.25,13.5 C2.35050506,13.5 3.55085719e-16,15.8505051 0,18.75 C-3.55085719e-16,21.6494949 2.35050506,24 5.25,24 C8.14949494,24 10.5,21.6494949 10.5,18.75 C10.4932542,18.4943863 10.4675587,18.239625 10.423125,17.9878125 L8.09015625,19.6720312 Z" transform="translate(-12, 190.1248689253577)"></path>
    <polyline id="pursuer-path2" fill="none" stroke="red" stroke-opacity="0.2" stroke-width="3" points=" 209.01620895493264, 309.0162089549326  209.01620895493264, 309.0162089549326  209.01676335360975, 309.016189972878  209.11108818525946, 309.0133497244251  209.4097426496681, 309.0066322262557  209.9244919407199, 309.0025258289737  210.6352676402935, 309.0032911997347  211.52801612102218, 309.0072335404442  212.59906832635124, 309.01564174319685  213.8206764699258, 309.02645440331355  215.25414992826626, 309.0419737405542  216.77847746394568, 309.0521097313125  218.44146167492806, 309.0555998966642  220.21251227236158, 309.0547223063129  222.05747895290557, 309.048431924322  224.00566021787074, 309.03888748142884  226.02650833140655, 309.02480390355834  228.11076345646723, 309.00847281349746  230.24382839383665, 308.98893922198414  232.5150310118675, 308.97896818940785  234.80300863093407, 308.98126040881556  237.1650953413673, 308.98936260297614  239.53722759962136, 309.0048924404431  241.96357238160667, 309.0233796491709  244.38471049992572, 309.0470659717911  246.84991225115195, 309.0634447454938  249.35615941168894, 309.068433414076  251.81885965433528, 309.0670258405779  254.29023159075854, 309.0576026660211  256.82384944966964, 309.04405117356885  259.2805010871228, 309.0247392956296  261.85244096325766, 309.0024067378573  264.3729342607496, 308.9760470843698  266.89658863834256, 308.957669043859  269.3949847701288, 308.9508826178269  271.8398553052058, 308.95040660955294  274.39750953088446, 308.9583069945611  276.928793053721, 308.97022544434793  279.48898830148084, 308.9887251301643  282.0223082893824, 309.0093812092119  284.55629696730534, 309.034802468989  287.0631125143605, 309.0608647887225  289.5703718284298, 309.0905674930856  292.10590457240204, 309.1121452664026  294.6138568924935, 309.1215742231334  297.1779183843768, 309.12400845902755  299.7142900303758, 309.1176607361549  302.22278946048476, 309.1158093481505  304.78725824538105, 309.12246333627706  307.29630478550746, 309.13311856507437  309.8886397072937, 309.15986878987195  312.3407807266028, 309.210514127794  314.84682424063334, 309.2966742671393  317.2943269827943, 309.4214627958197  319.7931972765957, 309.5966724517979  322.28620741421, 309.8250575445757  324.7717403815855, 310.1104746773624  327.2206412937912, 310.45185508593624  329.7134569033992, 310.8643133494206  332.138783452852, 311.33153181655996  334.57670569070706, 311.8695689262422  336.9711387611733, 312.46758031202717  339.37385142990394, 313.1397969133694  341.72945184713, 313.8718627913729  344.0368093188155, 314.6615427736539  346.42377737704334, 315.5571212189417  348.78294008838316, 316.5237536780611  351.03682667436107, 317.52583582681257  353.3600989685547, 318.6427153349801  355.5267397437464, 319.7641556130433  357.78090596373323, 321.0167753961707  359.90201502747084, 322.27940349324274  361.9859935580227, 323.60346596627664  363.98537672187297, 324.9562927484792  365.9678481071832, 326.3825948862782  367.9737965912432, 327.91768529180126  369.9331434598149, 329.5124669199806  371.80272781152007, 331.12844906133705  373.6647620449842, 332.8366906688897  375.49484505342787, 334.6195656815758  377.19453350770743, 336.37575236365967  378.824580935763, 338.15937661311966  380.402944704168, 339.98877877354164  381.9967005010646, 341.94970010316365  383.56364790710506, 344.00193713420185  385.0036171570905, 346.00949959281337  386.3535442562004, 348.0114176997446  387.68860212083547, 350.1216879061361  388.9874169863131, 352.3181856907812  390.2056972572189, 354.527789799845  391.36921789437594, 356.79687388630816  392.4400945685744, 359.0488030342235  393.43261293027047, 361.30498444277464  394.3881101807843, 363.665727694165  395.2618691946878, 366.027182188578  396.0471179657647, 368.35999851307656  396.78610554536425, 370.7934587647891  397.4434886263578, 373.22029898529024  398.0270848029949, 375.6647135953526  398.5311676570928, 378.0973714190395  398.9575973627108, 380.5156949602687  399.3188115542462, 382.9992644105815  399.6040017693538, 385.4916605691762  399.814687758082, 388.01816599786014  399.9459333722734, 390.5216137788077  400, 392.9721742580664  399.97849249731314, 395.50528755996135  399.8794655841507, 398.0085955239045  399.70341773852863, 400.50745973870573  399.44746751435486, 403.02705942316913  399.12134131194, 405.4831761086052  398.71587199899136, 407.9556696205643  398.24589233598255, 410.3610509703801  397.6841684020439, 412.8320612062919  397.06803741636776, 415.20558251609026  396.3727821641648, 417.58666610213015  395.6052597576539, 419.94643671348945  394.74691708824275, 422.3345111497526  393.82554734481886, 424.6705371863536  392.83322351112895, 426.97863629606275  391.7708695952027, 429.25671730281323  390.6652331978942, 431.4537530789756  389.4811776980814, 433.64247278287235  388.18896462681454, 435.8670950619157  386.85832011632044, 438.0054928022054  385.4792624482802, 440.08130115649635  384.00618696323755, 442.16120675691815  382.5045280192821, 444.15299117052575  380.92656546488985, 446.12179696339956  379.2901715606316, 448.0435634527712  377.65372902437184, 449.8555431986368  375.946016289836, 451.6401309696276  374.16669293301334, 453.3939225256349  372.3155765838979, 455.1135501005512  370.45637516452433, 456.7416887225458  368.5719945263466, 458.29777903423957  366.5991765933447, 459.83247126525  364.6046444716493, 461.2921607918651  362.475997447671, 462.7543913405615  360.4218668080723, 464.077534364816  358.1868859126982, 465.4246164918351  356.00952178116404, 466.64915813294084  353.8223096693154, 467.79632625957566  351.628276919249, 468.86699624776753  349.3285060398058, 469.90644449096226  346.9478844577807, 470.8966528325846  344.6431531141791, 471.7753844686469  342.26191147413414, 472.6034172430901  339.8578735833612, 473.35941386523285  337.4332157239297, 474.042523275048  334.96311125904697, 474.65841110071636  332.5035234645, 475.1930834837911  330.0298931795046, 475.6531300604827  327.57178866100503, 476.03417395065134  325.1317144570813, 476.33814827635877  322.6569656360502, 476.57139951380765  320.1494753199735, 476.73114348090905  317.6941063515613, 476.81328293153217  315.15502955047583, 476.8207236277698  312.7002198500815, 476.7528211956013  310.22137378291956, 476.60895557700695  307.7207588160624, 476.38663438190713  305.22815597146115, 476.0872922543477  302.69133447944773, 475.70218759204937  300.27572217230517, 475.25924732190407  297.82021946588867, 474.73150499905057  295.35478975215517, 474.1215381195713  292.9351349098835, 473.4433648579138  290.56271389912024, 472.70013413617875  288.2129736380813, 471.88542653016106  285.8365951981917, 470.97958255323294  283.5388911788145, 470.0229059766815  281.2948829681521, 469.00934211631335  279.0068020060822, 467.89197324863017  276.8014258416535, 466.73160153357367  274.58277921980107, 465.4777104795307  272.4257675809169, 464.17138196981307  270.331077852023, 462.81594729652727  268.2992085111352, 461.4148228577823  266.2421903464443, 459.9042277835415  264.27427816659906, 458.36667842243986  262.3307853305336, 456.7535062989232  260.4766659553223, 455.12032210676745  258.6705402866437, 453.43375213490685  256.8944448789241, 451.67541348675434  255.15194810527746, 449.84509947630323  253.40987078264422, 447.9008406862133  251.79830959417902, 445.99034466320165  250.22648986948295, 444.01166657401257  248.69760916265813, 441.96521979065926  247.24633905131182, 439.8973384526215  245.87199260842206, 437.8113173780044  244.5879223579153, 435.7342445916731  243.33730180597672, 433.5734031826666  242.13843178269082, 431.35289030775454  240.97057681839536, 429.02368490937135  239.93161489521611, 426.7871964219491  238.94788980730084, 424.49679936080526  238.02271764925547, 422.15356362997403  237.16844487047427, 419.784844730329  236.39423252424982, 417.41917748878143  235.70591341126834, 415.08595995027014  235.0599223766386, 412.62752716576006  234.49556471586584, 410.1787539125585  234.00586781572738, 407.7152208468856  233.5784381145774, 405.2121438849498  233.207796913491, 402.7263312835654  232.8977238308388, 400.2869804806647  232.6271049791966, 397.7583777969138  232.3951683255397, 395.2240122209788  232.19998074780636, 392.71255839677553  232.0315270931768, 390.22503759633656  231.88634993029058, 387.7345198488019  231.75744017192383, 385.2416069751907  231.64246652150214, 382.69120499674364  231.5403195614901, 380.19468119701713  231.45260870718906, 377.78009016190714  231.368311211497, 375.28120163110515  231.29161398579768, 372.75364453538765  231.22033618877143, 370.28094433742194  231.15593374096474, 367.8354659023256  231.09221670042993, 365.3339816384407  231.03321088504558, 362.8320475285414  230.97396494915355, 360.2742474068581  230.91985120917545, 357.77176618694136  230.864725315665, 355.21348582424264  230.81334712577424, 352.68288922842805  230.7624491768988, 350.207672324382  230.71358313383826, 347.7046439944478  230.6629055487199, 345.1458408377324  230.61514132444452, 342.6147244874012  230.5598436991786, 340.16729165374244  230.4887938646596, 337.60892010604084  230.41128661218443, 335.10649359712585  230.32232196409333, 332.5487375481939  230.23271446173172, 330.10227887431626  230.13097175523257, 327.5170624617574  230.03217888357761, 325.0708515071376  229.92245141032348, 322.48580834608424  229.81484702788714, 319.9841994626954  229.7042624156056, 317.51051066732316  229.59210334227382, 315.00900474700006  229.4753470250452, 312.47982873754336  229.36014693186627, 309.9784062135042  229.23954716676494, 307.42150217444316  229.1211024072324, 304.8923318640491  228.9975421690365, 302.3076735796956  228.88539373395503, 299.75045096303063  228.78971027089938, 297.27623177489147  228.69860277523986, 294.7183381885801  228.61861225118537, 292.2157794614109  228.54397580655186, 289.74087258637473  228.47687428265897, 287.2936008462211  228.41097944030463, 284.7905998717878  228.35100554413935, 282.31531305923954  228.2909571802217, 279.78427269641077  228.23631912647684, 277.30878527685604  228.17126470589932, 274.75010977914474  228.09838965157206, 272.33078016338345  228.01636266245254, 269.82834149646806  227.92266703246037, 267.2427269093965  227.8280352364383, 264.74064994299266  227.7259870601794, 262.2109165652056  227.6203006023043, 259.653514618035  227.51443481392346, 257.2074374014195  227.40525445068678, 254.70582547853053  227.29345707786655, 252.2322316675363  227.18963079405086, 249.75823664252928  227.09446556576174, 247.20063104885216  227.008361087262, 244.6981498289354  226.93190094257025, 242.22347395590663  226.85944837875647, 239.74848805386796  226.79409912666955, 237.30108257571007  226.72892008658806, 234.7702428198877  226.66935804268593, 232.2672144899535  226.61024432504814, 229.73635041813034  226.55639198207837, 227.260592483067  226.4946050241052, 224.78535734202038  226.4177117506496, 222.19942968643878  226.33339297845689, 219.61353242585815  226.2429252975678, 217.1115922369587  226.14743940201848, 214.58185885917166  226.04774683833477, 212.10772401716017  225.94471690354453, 209.60583246026226  225.83309126247977, 207.02094431371387  225.7241555790009, 204.51955731383205  225.61143419815113, 202.01817031395026  225.5090121633803, 199.57222379583897  225.41397003484514, 197.0141318821463  225.3260874487886, 194.45603996845364  225.24803460604596, 191.92575340164893  225.17422642518892, 189.39546683484423  225.1075473918095, 186.8929856149275  225.04392305602767, 184.41764105187735  224.98384733660916, 181.88624810703732  224.92426401620637, 179.32703765730895  224.87039343623601, 176.8512797222456  224.81383289867975, 174.23643426274054  224.76177993976742, 171.67722381301212  224.70098233907586, 169.1461591341826  224.62830333250486, 166.64367791426585  224.54843742795433, 164.1411966943491  224.4597934471235, 161.6387154744324  224.3657558733704, 159.10851401363038  224.26720920122332, 156.63492020263618  224.16512759046333, 154.1334359387513  224.0593362698349, 151.65984212775706  223.95239601816976, 149.18624831676283  223.8402415040881, 146.68486131688104  223.72785142874892, 144.18347431699925  223.61469691913533, 141.7376736948926  223.5087490642519, 139.26407988389838  223.4128482769393, 136.73380547509407  223.3253015556435, 134.23132425517736  223.25016967249417, 131.84006442281245  223.17731589466757, 129.39319389667165  223.11086178429537, 126.94632337053083  223.04607635947644, 124.47118549348731  222.99296565453034, 121.91197504375893  222.9655934364062, 119.35329954604762  222.97312227814666, 116.82329261325185  223.0219412089557, 114.32276883139762  223.1182690460319, 111.82510217963464  223.2711634996646, 109.27628682023823  223.47545134068852, 106.81627349567769  223.74819480289858, 104.2809048847107  224.08616441744164, 101.75495872404461  224.486676305732, 99.26752910860854  224.94895691499494, 96.82014794645143  225.4780928486429, 94.38721048875557  226.08196249092745, 91.94393873072968  226.75585917594836, 89.5195361893064  227.49982241720681, 87.11597246054858  228.29508482135353, 84.78725338218094  229.15710832538224, 82.48226672057119  230.0965175018823, 80.17745027096687  231.1268107707847, 77.8507251046629  232.22704141717057, 75.55556210736688  233.37013965317539, 73.34275740470096  234.59210987719902, 71.13982499835032  235.87946886681084, 68.97348817316835  237.23114975747674, 66.84564357721564  238.63001584764953, 64.78077742327413  240.10601837128567, 62.73497501394143  241.64264676385793, 60.73320888201503  243.2384633418203, 58.77725409555161  244.8550275474453, 56.9102958719303  246.62080993133554, 54.98967223459518  248.3856561491959, 53.18197210486628  250.18314963759886, 51.44571238541883  252.05163369026891, 49.7440300190756  253.94827263233807, 48.11561176307207  255.9135404470989, 46.52595321230632  257.8802398664055, 45.027965984468096  259.8893159960653, 43.58751041446715  261.98559538351, 42.17560182937785  264.16994428626714, 40.797759961376464  266.29810499022994, 39.54176557326629  268.48578518509356, 38.33527856273712  270.7322736278351, 37.18143569388915  273.0114184596196, 36.09526425520227  275.2955723875641, 35.08838729504765  277.65927003304876, 34.129461488424354  279.99767903772585, 33.26108846869286  282.30707297447634, 32.479572203735145  284.717019653438, 31.74267580020235  287.2006620517531, 31.065304966570523  289.6488942739374, 30.47688206377923  292.05842758088585, 29.97310315969105  294.50813700011736, 29.53650936574843  297.0236637544507, 29.166371201928072  299.52094135020127, 28.876524472671818  302.05258353404923, 28.660890177785532  304.5613625981671, 28.524234253421426  307.0724820773597, 28.46429531150727  309.5285622887946, 28.47993050000659  311.9551654282882, 28.56785715881452  314.43277137941055, 28.732573748074742  316.95891206808284, 28.97906504794645  319.50347212734334, 29.30823075045835  321.9551815376387, 29.70275786305757  324.50219751297766, 30.19411129074895  326.8988798135157, 30.733342923969303  329.3323035912271, 31.358458671932382  331.74628672631763, 32.05766527426154  334.13866509471825, 32.830281882935054  336.48140234753356, 33.66590124962056  338.8501212471786, 34.59275425121962  341.1145488194931, 35.55814811404946  343.37540193969346, 36.6023015033945  345.5802917841066, 37.701263158489844  347.75262250348, 38.86534306366473  349.91429065651283, 40.10769617533928  352.1322746673442, 41.473866362967925  354.21596140588673, 42.846285762796136  356.281447617848, 44.296419101106146  358.25937191101303, 45.77417541629829  360.15085282141746, 47.274326768205626  362.04105714178115, 48.86464185099234  363.88407626263796, 50.509911095534015  365.6585728933065, 52.18936863716749  367.4029663150137, 53.93975595306611  369.0952505470568, 55.74064760257758  370.7881791531205, 57.6537089636712  372.3872844701879, 59.573967860994664  373.94557537995195, 61.562627668502515  375.3954047682522, 63.528746543290524  376.8186689257042, 65.58164922484997  378.13591531977045, 67.60478912145894  379.4363958313013, 69.73603795752038  380.6723295187708, 71.90441732676757  381.85533943055026, 74.13249247792115  382.9822280125374, 76.4193394029516  384.0165212635676, 78.68765753539034  384.98260813241956, 80.98466854874539  385.87964971706657, 83.30830558295074  386.7067584834803, 85.65655040994194  387.4711076518898, 88.05374334649629  388.1622899739627, 90.47172646371459  388.78609265788384, 92.93522913438655  389.3229534810285, 95.36135811186497  389.7818328896828, 97.77416192091786  390.1764086342836, 100.2531295680837  390.49807285055596, 102.76927638043684  390.73730582419586, 105.23825015128352  390.90153609344054, 107.71248833629832  390.99062992028576, 110.1898511274129  391.0036268227008, 112.72333524831971  390.94237481674475, 115.14537913766767  390.8010745362323, 117.67404869042075  390.58073509519573, 120.19685808698667  390.2855023717675, 122.68437280842545  389.91378366789667, 125.16184502154351  389.476654921937, 127.57306829054593  388.95484570327295, 130.02424274882418  388.37871453887425, 132.37889484202  387.70168412925324, 134.82187480803657  386.9660399997605, 137.19112865969868  386.13061516108115, 139.61579867713053  385.25016924696416, 141.93736885126987  384.28894557826743, 144.25789343737583  383.2688650296912, 146.52418118374973  382.15583656814664, 148.80928951472467  380.9863098787978, 151.03631907784484  379.74968318530614, 153.22832144184645  378.4473181837151, 155.3833756426681  377.1110931510427, 157.45346973677655  375.6499932963825, 159.57482196052194  374.1911548297945, 161.563238608022  372.69174511591086, 163.48746101347206  371.0468892433824, 165.47381080090616  369.397778070718, 167.34834345876936  367.65534208707334, 169.21424393635687  365.85736835765505, 171.0276218522671  364.0464828318244, 172.74941355125253  362.1649228497368, 174.4362145251205  360.2556304687635, 176.0493380166356  358.2998337363052, 177.60596328034643  356.29921045641527, 179.10461919820602  354.2097486676883, 180.57529955717217  352.14763022183456, 181.93785881868553  349.99955471323574, 183.26862490918353  347.78920592664826, 184.548582716059  345.5666261916702, 185.74874756638624  343.3100526876065, 186.88227441658543  341.0721538721392, 187.92544300789902  338.7799695849383, 188.9133899614491  336.43458188803834, 189.842869091132  334.08953461514926, 190.69250663226518  331.6948827006761, 191.48029642542326  329.2253618198119, 192.21068829874832  326.8162905168782, 192.84488607300142  324.3363259136805, 193.4185977953229  321.92267104460046, 193.90144062274248  319.49706486113877, 194.32094026813922  317.03440109249357, 194.6948960440815  314.59075243645566, 195.01241438222144  312.11263584931703, 195.28491164492365  309.65640974187744, 195.5175914563543  307.2232473611744, 195.71509817266167  304.7587477344706, 195.89050164426317  302.1801939061245, 196.04934591933585  299.59892276469157, 196.19056109384556  297.1821554475121, 196.30658489155078  294.7082333705074, 196.41497346501217  292.2329313604586, 196.51186057010625  289.6730643787093, 196.6050638010827  287.11224299392944, 196.6894889557788  284.5227591232343, 196.77050987036623  281.9883388362976, 196.84365240070204  279.4534626243463, 196.91463080696872  276.8903372984929, 196.9814998091042  274.354689053517, 197.0464721631791  271.8746028703154, 197.10592478507772  269.36635875821463, 197.1660339389973  266.8021148963255, 197.2244652888633  264.2099988185463, 197.2838328047592  261.56213830898685, 197.34172920260812  259.02562684598337, 197.39830037841472  256.4889786054755, 197.45245211214404  254.00796233524426, 197.50653089787107  251.47103750022757, 197.55989236157515  248.9062343703206, 197.615186947341  246.34143124041358, 197.66841467304081  243.8602629951775, 197.7213992387329  241.3512164550511, 197.77324095238845  238.8142916200344, 197.82718600011117  236.2494884901274, 197.87992740579546  233.7125195823593, 197.93364145151082  231.23121607936886, 197.984437577133  228.7220509987387, 198.03700877081187  226.21286768110792, 198.08802374044103  223.648254519957, 198.15051586243672  221.1119968552116, 198.22573741083892  218.65959215926907, 198.30630847941194  216.09607245827806, 198.40041140241715  213.53269333416654, 198.49966931758695  210.9974451633909, 198.60521291895748  208.51797295920895, 198.71103615433694  205.98297421741003, 198.82448245595984  203.420135174472, 198.94065214966972  200.94102847017675, 199.05710147738853  198.4061910118517, 199.1766146212052  195.8436295132663, 199.30084506917248  193.36457979959783, 199.4206256889977  190.85780376604396, 199.54449139695333  188.29495351494933, 199.66167020469544  185.75954083123094, 199.76481867998947  183.25171920964365, 199.85938360700942  180.65996483237598, 199.94754126782473  178.12380899088384, 200.0293038204358  175.5874373448848, 200.10461047484074  173.02311445599315, 200.1778016371781  170.48646621548528, 200.24515695932908  168.00556848575783, 200.31004420740126  165.55254601142056, 200.3704329953298  163.01605886441783, 200.44101018758366  160.56357134209765, 200.52068156412795  158.05557950850493, 200.60887569894444  155.52016834453656, 200.70677191807076  152.92907961779014, 200.81118482540518  150.44953446560586, 200.91767675080598  147.9143482246447, 201.02869145235127  145.5188756451453, 201.13821071984876  143.06755529086237, 201.25136522946235  140.58855116969536, 201.36946804523396  138.10917015051635, 201.47949794874776  135.629497339328, 201.57798990989312  133.09367888234664, 201.6716429868839  130.64145883603499, 201.75352711949887  128.0494217852583, 201.83556930611888  125.51305013925925, 201.90918599846987  122.94880627737012, 201.98120999276995  120.4124346313711, 202.04750756888717  117.95930273503032, 202.11063190690302  115.50601278468451, 202.16993863279697  113.02520927946006, 202.2377924329639  110.54492856825229, 202.31711122749692  108.03697624816083, 202.40433272228236  105.5290968760717, 202.50019855534384  103.04910795687326, 202.59922546850626  100.54224985681674, 202.70593623791407  97.9796837989812, 202.81744941747525  95.44497172003517, 202.9329017891622  92.91025964108914, 203.04955780288762  90.40340154103262, 203.16899799870194  87.86851925008116, 203.281289290288  85.3605669299897, 203.38059583745934  82.85261460989824, 203.47308174641284  80.28893001602698, 203.5586375951451  77.6973792852658, 203.64070409776588  75.16061250425416, 203.7143451061176  72.67944425901806, 203.7841806603478  70.14251942400135, 203.85087945047783  67.60559458898466, 203.91632596656785  65.12442634374855, 203.97662964849366  62.67113639340274, 204.03614306039424  60.05057667371516, 204.09665342832662  57.5417003455942, 204.16344948245975  55.061614162392644, 204.24163758295668  52.609394116081, 204.32579526164426  50.101441795989544, 204.42056687467078  47.621404244789545, 204.51882783380876  45.11450967073186, 204.62480912319327  42.551749084890105, 204.73588461474048  39.98918302705456, 204.85195704444726  37.50969258587203, 204.9571602218069  35.02960640267048, 205.04340907656126  32.493787945689114, 205.1103023946975  29.93010335181785, 205.16275200837248  27.422151031726393, 205.19033851125346  24.942283692531827, 205.18537804709504  22.408276777608318, 205.13916548761924  19.90488370766246, 205.04613246864824  17.40557572584706, 204.90085652200884  14.828809123558019, 204.69156870332523  12.369975125035156, 204.43189813103265  9.947299019666994, 204.11543753892647  7.398070288257374, 203.71407763010905  4.971017302749437, 203.26401277173625  2.4499586582394297, 202.7236382864794  0, 202.1248689253577 "></polyline>
    <polyline id="evader-path2" fill="none" stroke="blue" stroke-opacity="0.2" stroke-width="3" points=" 209.01620895493264, 309.0162089549326  272.1828021011578, 309.0162088468013  272.7284045265816, 309.01620880246605  273.4320001670509, 309.01620875796505  274.09952909936845, 309.01620873415413  274.80779949098707, 309.01621044721173  275.5709024643568, 309.0162202118453  276.361829021615, 309.01624481286296  277.1676795243498, 309.0162847473356  278.02235655664396, 309.01633775812047  278.9058966818598, 309.0163942198633  279.806075030607, 309.01644045159617  280.741067813466, 309.0164606789091  281.67795116538537, 309.0164387093888  282.66806832200473, 309.01636501608607  283.6786230772768, 309.01624010218796  284.68558514343414, 309.0160757170225  285.7094468301312, 309.01588248455823  286.7838797194432, 309.0156715190369  287.8266531757441, 309.015481042569  288.90653284923013, 309.01532425958294  289.99924529212586, 309.0152270615309  291.0916841800129, 309.015193246443  292.21958187603235, 309.0152112154652  293.3331270525934, 309.01525906375286  294.44348683305276, 309.01530662467565  295.6001929109921, 309.0153185862142  296.76529408819965, 309.01525694478494  297.89983613143124, 309.015109733191  299.09260891752245, 309.01486298566783  300.25343047859326, 309.01454665689323  301.3942521290254, 309.01418702154984  302.6187208221288, 309.01378455548706  303.8094632221552, 309.0134207886943  304.97875283049643, 309.01313983770467  306.17880825882025, 309.01297747174283  307.38307035527833, 309.01296807496794  308.5912473278615, 309.01311603205943  309.7897100581344, 309.0134035397539  311.0181969703661, 309.0138128125975  312.249851041699, 309.0142937548647  313.45767543227083, 309.01477805692593  314.65459409649446, 309.01520475838265  315.8808743316557, 309.01550876543865  317.0689054975955, 309.05657866615593  318.1631498485402, 309.18059745627806  319.1829872371087, 309.38184687765226  320.15356040810394, 309.6622160419222  321.05569619491365, 310.0130029434215  321.8842517633736, 310.4245049041878  322.6439565756347, 310.89022451784183  323.36084091052845, 311.4223534092416  323.9976648128654, 311.9870427554624  324.5780148033989, 312.5967871815284  325.0941583938819, 313.23971667968533  325.5878096836467, 313.95180164392576  326.03724232599933, 314.6787539429535  326.457398503417, 315.44938081887597  326.8374332795534, 316.252481333898  327.17237403224976, 317.08435451671386  327.4581356733755, 317.94100266482087  327.6892592607565, 318.8084068438965  327.86668096042246, 319.69181931010826  327.98851628231324, 320.58708354707346  328.0536588483936, 321.4902254084153  328.06107522863044, 322.4178116894128  328.00849187695115, 323.34578170729753  327.89795133742103, 324.26051926150967  327.72773933198533, 325.1789984403413  327.4969804846161, 326.09785907643516  327.2155714076293, 326.9846225915039  326.8805820229314, 327.8569408823614  326.4983588067251, 328.70324257213804  326.0721844191152, 329.5221325302893  325.5942655818529, 330.33050125885455  325.0833012995352, 331.1000008601785  324.4955106127641, 331.88001105283814  323.8733249428946, 332.5981294247713  323.2076014736347, 333.27289996607004  322.48511230056204, 333.91898066595263  321.74004572076836, 334.5094126783081  320.9774351464144, 335.0478859562542  320.20183982764576, 335.5378594509015  319.3603359887723, 336.0130609750771  318.4807046606813, 336.4553538317017  317.5742892577349, 336.86012102012796  316.6742203309912, 337.21662094701276  315.74220017922715, 337.5428960849324  314.7684780861313, 337.8416059964717  313.7755220364213, 338.1057537524072  312.76496120214904, 338.33604755626163  311.7383882813654, 338.53314090055585  310.7203320398538, 338.6943894202053  309.6664096971968, 338.8276319859604  308.60067585716257, 338.92953426621466  307.5125287434126, 339.001284705506  306.43877062312214, 339.0415945557933  305.35698214357524, 339.0528832591538  304.25605697141714, 339.035321027593  303.14901024606365, 338.98914798161843  302.0367781335445, 338.9148656387462  300.9448802766747, 338.8155043805731  299.8127333595196, 338.6855323169225  298.70264105506885, 338.53208315452207  297.57843331216725, 338.3509411067373  296.4654717196248, 338.14654992271005  295.3644735994645, 337.92017099498065  294.18962778494574, 337.65240927342967  293.0775537264317, 337.37434668604976  291.96702373396687, 337.07296505392515  290.8339345717817, 336.7412157763307  289.7280914884666, 336.39395592974097  288.6131238258601, 336.0203952888113  287.50184003737127, 335.62466149467355  286.41897557478995, 335.216596448642  285.32841509796293, 334.78316981380055  284.23073003290835, 334.32405180438855  283.13847959402733, 333.84433358306876  282.0401258389514, 333.3388084861748  280.97176587083334, 332.82468008425616  279.8862752801682, 332.2794499975942  278.8428939238478, 331.73342052240673  277.80641831174796, 331.16943368064585  276.7541129831426, 330.57453816239786  275.69820888642226, 329.9547278618542  274.6505904669666, 329.31677934448135  273.6340782915043, 328.6754949757519  272.61489135595656, 328.01010129225256  271.6046162346934, 327.32795844346833  270.61445044607245, 326.63714997990735  269.63347610574505, 325.9305725898428  268.66191205771815, 325.20852870353434  267.7106032383381, 324.4795836322555  266.73729451725546, 323.7107724777035  265.8056755795042, 322.95254334273943  264.9045853807279, 322.1978552253885  263.9826077372846, 321.4033542160161  263.08120750949837, 320.60416857711914  262.1603970340923, 319.76421716292026  261.2607050053606, 318.91985619395564  260.3916025056058, 318.08131054855164  259.4950320434738, 317.1918874708979  258.6576680037326, 316.338156483009  257.82182979304014, 315.46296510468477  256.9880128499122, 314.5661666800455  256.1385607182849, 313.6273186712509  255.33729986069665, 312.71755563888513  254.5123126653507, 311.7553711082203  253.74333433829338, 310.83430816433736  252.96014330878216, 309.87124882755086  252.18924705716358, 308.8976732953503  251.41417757191175, 307.8920938217996  250.68460028461269, 306.9199713606143  249.95097134368424, 305.91635122481364  249.22987426165602, 304.90320985495896  248.5213759075301, 303.8807949703082  247.83308718954962, 302.86073189885747  247.15718139496457, 301.83207008163214  246.49365548427488, 300.7950367212645  245.84257328698257, 299.7498552210116  245.2039864745893, 298.6967558230059  244.57100146087492, 297.62412231775136  243.9575209192834, 296.5557448725077  243.3433504111699, 295.45611908664114  242.74221935847277, 294.3491285920394  242.16676600259566, 293.25929151623546  241.6037958736172, 292.16281769196956  241.047220852843, 291.0476357446062  240.5033479029744, 289.9260906037897  239.97218918201185, 288.7983965542768  239.4592735406319, 287.67724350897277  238.95324236697178, 286.5379096938382  238.45977040771277, 285.39302119227614  237.9840430500204, 284.2554350896973  237.51032176239212, 283.0873369653941  237.05917484198474, 281.93969771624427  236.62006738146184, 280.7873593999443  236.18360428602338, 279.6047446231775  235.7777550355626, 278.4692876904167  235.37439513568128, 277.3038886421997  234.96993493676487, 276.0954168381071  234.5945110822757, 274.9350663995514  234.2223303743901, 273.74490758354364  233.86574990075272, 272.5642684818399  233.52427878209784, 271.39340745194846  233.18282742019358, 270.1797502606903  232.86001123338445, 268.98934828467486  232.54132420745717, 267.7694418812171  232.23720550549515, 266.5599001730904  231.94400316813173, 265.34762595437644  231.65849380551398, 264.11937916265236  231.38671538458473, 262.90200466277554  231.13378642350744, 261.722529689609  230.88500182081253, 260.5140973990177  230.64603328368105, 259.30360432736063  230.40919847561773, 258.0507132688495  230.18240465612507, 256.79586477227593  229.97453476423675, 255.59325008487045  229.7754353498785, 254.3890366204139  229.58069761815958, 253.15620930204355  229.3966437292818, 251.9355035100603  229.22084512266767, 250.713387390032  229.05303128280855, 249.49002507496394  228.89119917914044, 248.25186039442315  228.7386162742677, 247.02616982228074  228.59159109532246, 245.78579846466945  228.44854006275412, 244.5171415191549  228.31528381924858, 243.27487351348307  228.18969623448794, 242.04532277621738  228.07126971195598, 240.82873246736557  227.95205139964875, 239.5429692153047  227.84204429238568, 238.29753405053174  227.7392803138539, 237.07885864461335  227.638829394896, 235.83220767980154  227.54274775732765, 234.5849974469719  227.4517238479208, 233.3509847235637  227.36440812863236, 232.11651607514094  227.28327779204147, 230.9228375180208  227.19985263287728, 229.64628395125408  227.12297455692217, 228.42430156923007  227.0495949455788, 227.21584496263802  226.97784754578754, 225.9931209425903  226.90915940284398, 224.78405643597884  226.83955181112108, 223.51955144759688  226.77274967798775, 222.26877284165326  226.70710255489132, 221.00370858525343  226.64388399237242, 219.75239502729272  226.5828903439246, 218.51455861276241  226.523939239542, 217.2902054206627  226.46558235742836, 216.05209545112365  226.4064853570411, 214.77255101626142  226.34973029147864, 213.5201310802654  226.29514086973532, 212.29523685714838  226.24017303022993, 211.04281692115234  226.1865729657682, 209.80415984159583  226.1336598283284, 208.56499820502322  226.08080748089057, 207.3120250800095  226.02855087547175, 206.0594774850094  225.97742192458895, 204.81973834341835  225.92568507368674, 203.5524370149471  225.87556523683617, 202.3126857153556  225.82700314378533, 201.10048444464397  225.77778451871353, 199.8607331450525  225.72737744910378, 198.57965680214133  225.6795554743266, 197.35368051698978  225.63001314249445, 196.0726041740786  225.5819510472096, 194.81907786004723  225.5337749706711, 193.55177653157597  225.48652746141224, 192.29825021754462  225.4401918021825, 191.05849891795316  225.39372696419866, 189.80497260392178  225.34864357900892, 188.57899631877024  225.30338086331346, 187.3392450191788  225.25842361737776, 186.09949371958731  225.21424144396678, 184.87351743443577  225.1693100337819, 183.6199911204044  225.1270366664319, 182.43533987857256  225.08198367624314, 181.1680385501013  225.03805986034044, 179.92828725050987  224.9947211482064, 178.7023109653583  224.95046602679312, 177.44878465132695  224.90680360789875, 176.20903335173546  224.8626867837399, 174.9555070377041  224.8181778640685, 173.68820570923285  224.77468261767947, 172.44845440964139  224.73130591179424, 171.20870311004992  224.6889747939424, 169.9965018393383  224.64579869506358, 168.7567505397468  224.60180952990876, 167.48944921127554  224.55893130203947, 166.2496979116841  224.51668680994038, 165.02372162653256  224.47459733234626, 163.797745341381  224.43312943252198, 162.58554407066936  224.39038798215702, 161.33201775663798  224.3487027580758, 160.10604147148644  224.30659960273124, 158.86629017189497  224.26367578236048, 157.59791893938953  224.2221516517844, 156.37086059220343  224.18016095794343, 155.13001507257704  224.13718090682087, 153.86159520807004  224.09364918643067, 152.57938817112276  224.05055515405448, 151.31096830661576  224.00876050796975, 150.08390995942966  223.96696586188506, 148.85685161224356  223.92376240750534, 147.58843174773656  223.88149815865563, 146.34758622811017  223.83923390980593, 145.10674070848376  223.79705780645904, 143.86589518885737  223.75498352636538, 142.62504966923098  223.71259009876155, 141.37041697716427  223.66989272114802, 140.10199711265727  223.62736251603982, 138.83357724815028  223.5863885349813, 137.60651890096418  223.54462580364762, 136.3518862088975  223.50391321959745, 135.12482786171137  223.4623419767699, 133.8701951696447  223.42039687543036, 132.6017753051377  223.37936362411997, 131.3609297855113  223.3373136600271, 130.0925099210043  223.29379409763732, 128.78272853917645  223.25332771309502, 127.56945736443062  223.2117275950165, 126.32861184480421  223.16942991166573, 125.07397915273752  223.1273586710722, 123.83313363311112  223.08503971122073, 122.59228811348473  223.04300798412845, 121.36522976629861  222.99984556300006, 120.11059707423192  222.95798556766326, 118.8973258994861  222.91419397001476, 117.62890603497911  222.8723005401769, 116.4156348602333  222.83044054484012, 115.20236368548748  222.7882765994936, 113.97530533830138  222.74540445062448, 112.72070912023585  222.7463163006536, 111.520933325921  222.83016243058123, 110.42533943693321  222.98807357912412, 109.4122497385802  223.2189509669972, 108.45398046397787  223.52057879862969, 107.54891459907459  223.88623369980687, 106.70490621212117  224.33207517279482, 105.88535972194896  224.8327325102833, 105.13522325599335  225.37569209037272, 104.45877643039103  225.96035513154393, 103.84569710281234  226.6029191298142, 103.2780400646842  227.28570027361883, 102.77375052457973  227.99845240813056, 102.32346682219992  228.74859039383622, 101.90520729284279  229.55972050823965, 101.5127227243088  230.41269390072938, 101.16288842113684  231.22787718851225, 100.88532127227273  232.0832852205797, 100.65086639278542  232.98589516940456, 100.46407087482011  233.90259168142924, 100.33592555072778  234.81879883393833, 100.2682541205667  235.70985868239433, 100.2593301482817  236.6224929025393, 100.30791351783321  237.54301766493626, 100.41614403728956  238.46787675447163, 100.58523750668957  239.3639335410872, 100.80765596579249  240.25828516814832, 101.08860303876453  241.12877064044727, 101.42037055335953  241.99240204002734, 101.80872140176152  242.84646813280196, 102.2533394759604  243.65268641504852, 102.73156226323243  244.4550597296723, 103.26729239234098  245.23190428298085, 103.85729583518274  245.94648163730088, 104.48143894311475  246.62452116095406, 105.15660917867632  247.26579489143316, 105.8812746338185  247.85753996783052, 106.63668767194262  248.40209376572085, 107.41900636492596  248.91256260952267, 108.24303915724145  249.38859391722474, 109.10741219484521  249.80707229058885, 109.96146309011932  250.19447481496053, 110.85022507650194  250.55784705156483, 111.79346706262437  250.88100062288476, 112.74895215513779  251.17184126867275, 113.73581704665332  251.41956964508395, 114.70878534372505  251.63934981810263, 115.72056197803614  251.82591737356066, 116.74793732684537  251.97842125143086, 117.77792664573809  252.09852101876626, 118.80876702465798  252.19201604175203, 119.89758890742951  252.2519367466656, 120.96140178340237  252.2819761261249, 122.01010226489262  252.28375119418158, 123.11435265015685  252.2562893108046, 124.2135088332584  252.20028956101623, 125.3185251725471  252.11624738333234, 126.4284047119911  252.00605030731322, 127.53000465317069  251.86610868334418, 128.65928836123436  251.69910639001094, 129.7909064053726  251.51229263504504, 130.8871933003825  251.29602308463848, 132.00906062820934  251.0601882721071, 133.10627153124878  250.7916210830304, 134.2399685934534  250.50827584448177, 135.33557464044156  250.19509487298035, 136.45411067616203  249.8624367848569, 137.55811790141848  249.4992833922596, 138.68382715736803  249.1175009035674, 139.79397417282055  248.69999820973442, 140.93668031331288  248.28823105258465, 142.002316889344  247.8415157233188, 143.0996493723873  247.36867893021875, 144.20376601964728  246.88587257680032, 145.27842383196645  246.37771983207247, 146.35907553847707  245.85572520390258, 147.42166045641073  245.32090084582296, 148.46603268976276  244.75521948275792, 149.52693980364282  244.17738315880473, 150.56900201692108  243.58833107949334, 151.5921463815952  242.9682457041909, 152.63046393075388  242.31630940737134, 153.68318871037263  241.6754946414069, 154.68239397228226  241.0034824464462, 155.69539856463254  240.3377711351867, 156.66648237164412  239.6567346644378, 157.62895831438078  238.94467705569824, 158.60417584152435  238.2335434549882, 159.54865794368638  237.5079570313166, 160.48387564955257  236.75969593692088, 161.42023620745525  235.99722821907147, 162.34682173304574  235.19440505843332, 163.2941852812998  234.36804704854356, 164.24090445553327  233.57267522239337, 165.12638378181106  232.74598590699304, 166.02146792839557  231.9343801108244, 166.87649146370075  231.11076524977227, 167.72129012067938  230.21729963698945, 168.61289707915284  229.34994788929058, 169.45497234404453  228.45094886658103, 170.3045490951758  227.53990126548675, 171.14249063993543  226.6068704799404, 171.97769663460775  225.70339275383785, 172.76523110975765  224.74758851381424, 173.57657094966777  223.8122568266944, 174.34975898435954  222.84526874606365, 175.12828438122176  221.87859677344298, 175.88622628342665  220.8800943959308, 176.64856938177206  219.89342251267144, 177.38213449319846  218.89722103673273, 178.1035416042366  217.89172476949722, 178.81275424088528  216.85452575637427, 179.525067167633  215.81954101907203, 180.21703975973116  214.8103282030928, 180.87421615471808  213.735086806755, 181.5558666044866  212.6862658850734, 182.20297617515206  211.64132716489078, 182.8306937351982  210.55325803331516, 183.46677599951147  209.45738716988103, 184.08994646741243  208.36598375419112, 184.69356687068904  207.27950584840852, 185.27807489735534  206.16183512037193, 185.8627652940274  205.0862911038057, 186.40991178550053  203.992296751744, 186.95127106878886  202.85503891517567, 187.4981622422538  201.73642233270263, 188.02068878294068  200.56188730706887, 188.5533550959514  199.4567691445269, 189.0399061134894  198.3085174361075, 189.530797537166  197.15490708901694, 190.00926348444582  195.98336597097878, 190.48038599949112  194.8323665544716, 190.92910131982086  193.65093718274267, 191.37542151407408  192.490621698438, 191.7999910456327  191.32595820924448, 192.21275515881433  190.13110032608668, 192.62254056190085  188.97121341129568, 193.00740206419138  187.79445727096598, 193.3850538722517  186.58773317942925, 193.75927712420253  185.39048928869528, 194.11774360765014  184.18978948635092, 194.46474509673163  182.9725320072278, 194.8039897815654  181.7918989845243, 195.12127711769799  180.58175545537836, 195.4346617357059  179.39542640949293, 195.7305753071559  178.17972363466947, 196.02241594847584  176.97482628269105, 196.300578839359  175.74064334727743, 196.5742797440996  174.51751811321694, 196.83463116441393  173.29216492558527, 197.08484281240445  172.07820682381754, 197.32254387799543  170.8487746270556, 197.55318114536084  169.61745186123332, 197.77428654042183  168.39792235578764, 197.98375672911126  167.17675455978966, 198.1843151035161  165.94045309280835, 198.37829599971087  164.70265923127943, 198.56364471563  163.4634793577062, 198.74064088528235  162.20934818315553, 198.91131489473284  160.96763336650136, 199.0722625038727  159.75209168518305, 199.2224138086678  158.5081732309585, 199.36873534334057  157.3043245065136, 199.50366483164953  156.0585002857282, 199.63667335589716  154.82553922935358, 199.76202233990017  153.6191737988283, 199.87895798763452  152.39838290084236, 199.99184502123956  151.19066793227398, 200.09847068464467  149.96861260224765, 200.20150973793523  148.6497917471311, 200.30763692332437  147.41280031362777, 200.40270032836023  146.20278140398582, 200.49179415520544  144.97854371288977, 200.5782253799656  143.75389264978057, 200.6612523646171  142.50135721278085, 200.74290549522468  141.23461515232742, 200.82232155376084  139.92612859754092, 200.90127560828222  138.7138786948277, 200.97188927453726  137.44601809833858, 201.04329321081758  136.17804200084578, 201.11239928502448  134.92340930877907, 201.1786847031413  133.69635096159297, 201.24174825115523  132.42740830306929, 201.30506711717732  131.14463591910393, 201.36758355517378  129.87551696957462, 201.4277534990953  128.56458057770988, 201.48851918503584  127.32264083804853, 201.54489583283623  126.08070109838718, 201.60020257660247  124.85214731715332, 201.65396525431936  123.58204964859274, 201.70871273006773  122.2981465705913, 201.76298604380094  121.05565972091249, 201.8148520734573  119.7993674617928, 201.86685184111792  118.59785915242263, 201.91570268667795  117.29957923896205, 201.96827388035683  116.02892230238363, 202.01911863798057  114.79969983112841, 202.06781142953554  113.5704773598732, 202.11650422109057  112.31363191173583, 202.16626691667972  111.05678646359847, 202.21494755023434  109.81375250390218, 202.26309323177188  108.55690705576482, 202.31177386532647  107.32724689649562, 202.35938459484694  106.04265081247205, 202.40913513243572  104.79961685277576, 202.45728081397326  103.5427714046384, 202.50596144752788  102.28592595650105, 202.55464208108248  101.04289199680476, 202.60278776262004  99.77223506022632, 202.65200334819173  98.5430125889711, 202.6994560237071  97.28616714083374, 202.7470302792264  96.02932169269639, 202.7946045347457  94.79909010740894, 202.8411332022316  93.55496192767771, 202.88818466373417  92.26936280862209, 202.93680450728687  91.02523462889086, 202.98385596878944  89.75345915627672, 203.03179496432037  88.48168368366257, 203.07877347782062  87.23755550393133, 203.12473071928827  85.96578003131718, 203.17170923278854  84.69400455870303, 203.2186877462888  83.46370002541326, 203.26413435174013  82.23339549212348, 203.30958095719146  81.00309095883371, 203.35502756264282  79.74513913266101, 203.40149544012675  78.5286582458127, 203.4464314095618  77.27070641964, 203.49289928704573  75.99893094702585, 203.53987780054598  74.74097912085317, 203.58634567802994  73.49685094112193, 203.6323029194976  72.26654640783215, 203.67774952494892  71.07771281386675, 203.72166422235134  69.84740828057699, 203.7671108278027  68.6171037472872, 203.81255743325403  67.37297556755597, 203.85851467472168  66.11502374138328, 203.90410717617766  64.91236650097642, 203.94747476356258  63.65441467480373, 203.9928362630112  62.38263920218958, 204.03869624047576  61.138511022458346, 204.08355926190848  59.85291190340274, 204.12991771738893  58.622607370112966, 204.17428226080568  57.39230283682319, 204.2186468042225  56.17582194997487, 204.26251286962335  54.9455174166851, 204.30687741304013  53.715212883395324, 204.3512419564569  52.47108470366409, 204.3961049778896  51.2131328774914, 204.44146647733822  49.99665199064308, 204.4853325427391  48.72487651802893, 204.53119252020363  47.49457198473915, 204.5755570636204  46.20897286568355, 204.62191551910087  44.964844685952315, 204.66677854053358  43.72071650622108, 204.71164156196627  42.44894103360693, 204.7575015394308  41.204812853875694, 204.8023645608635  39.96068467414446, 204.84722758229623  38.675085555088856, 204.8929416637561  37.403310082474704, 204.9376831051849  36.17300554918493, 204.98096558656715  34.91505372301224, 205.02522070798042  33.67092554328101, 205.06898950937818  32.426797363549774, 205.11275831077592  31.16884553737708, 205.15701343218922  29.924717357645847, 205.20078223358698  28.666765531473157, 205.24503735500025  27.408813705300464, 205.28929247641355  26.192332818452147, 205.3321372697818  24.962028285162372, 205.3765018131986  23.731723751872597, 205.42086635661536  22.538282275760043, 205.42585113677455  21.39846973936013, 205.34412505816462  20.32286360301065, 205.17832640686984  19.31951246296863, 204.9344004450801  18.433291498667163, 204.63657806756913  17.577441219335583, 204.26433656968157  16.763949413356723, 203.82097076952272  16.01057891929784, 203.31848061347569  15.338168549824411, 202.7801851462852  14.721770088139728, 202.19461937358517  14.157468658118761, 201.5587194792777  13.626127567150384, 200.866479411171  13.122883615079287, 200.133145301752  12.664089312427691, 199.3783158476465  12.24851670115638, 198.59836796473888  11.875922621257589, 197.7885114008761  11.540288862539125, 196.92381009726188  11.261493755635803, 196.04513925120153  11.038333658509185, 195.14751408253585 "></polyline>

</svg>
