<svg xmlns="http://www.w3.org/2000/svg" viewBox="0 0 400 400" width="400" height="400" version="1.1" id="canvas1" class="canvas">
    <rect height="100%" width="100%" fill="gray" fill-opacity="0.1"></rect>
    <path id="evader1" fill="blue" d="M15.9098437,4.32796875 C16.3420443,2.98020924 17.6596148,2.11976685 19.0674127,2.26591124 C20.4752105,2.41205563 21.5879444,3.52478945 21.7340888,4.93258732 C21.8802332,6.3403852 21.0197908,7.6579557 19.6720312,8.09015625 L17.9878125,10.423125 C18.239625,10.4675587 18.4943863,10.4932542 18.75,10.5 C21.6494949,10.5 24,8.14949494 24,5.25 C24,2.35050506 21.6494949,-6.19949465e-14 18.75,-6.21724894e-14 C15.8505051,-6.23500322e-14 13.5,2.35050506 13.5,5.25 C13.5067458,5.5056137 13.5324413,5.76037503 13.576875,6.0121875 L15.9098437,4.32796875 Z M5.203125,17.259375 C4.3883515,17.2824352 3.74204012,17.9536015 3.74972776,18.768665 C3.75741539,19.5837285 4.41627146,20.2425846 5.23133498,20.2502722 C6.04639849,20.2579599 6.71756483,19.6116485 6.740625,18.796875 L9.9215625,16.5 L14.0784375,16.5 L17.259375,18.796875 C17.2824352,19.6116485 17.9536015,20.2579599 18.768665,20.2502722 C19.5837285,20.2425846 20.2425846,19.5837285 20.2502722,18.768665 C20.2579599,17.9536015 19.6116485,17.2824352 18.796875,17.259375 L16.5,14.0784375 L16.5,9.9215625 L18.796875,6.740625 C19.6116485,6.71756483 20.2579599,6.04639849 20.2502722,5.23133498 C20.2425846,4.41627146 19.5837285,3.75741539 18.768665,3.74972776 C17.9536015,3.74204012 17.2824352,4.3883515 17.259375,5.203125 L14.0784375,7.5 L9.9215625,7.5 L6.740625,5.203125 C6.71756483,4.3883515 6.04639849,3.74204012 5.23133498,3.74972776 C4.41627146,3.75741539 3.75741539,4.41627146 3.74972776,5.23133498 C3.74204012,6.04639849 4.3883515,6.71756483 5.203125,6.740625 L7.5,9.9215625 L7.5,14.0784375 L5.203125,17.259375 Z M9.75,9.75 L14.25,9.75 L14.25,14.25 L9.75,14.25 L9.75,9.75 Z M18.75,13.5 C18.4943877,13.5067681 18.239628,13.5324635 17.9878125,13.576875 L19.6720312,15.9098437 C21.0199025,16.3419927 21.8804341,17.6596468 21.7342495,19.0675317 C21.5880648,20.4754165 20.4751777,21.588165 19.0672747,21.7341742 C17.6593716,21.8801834 16.3418248,21.0194876 15.9098437,19.6715625 L13.576875,17.9878125 C13.5324413,18.239625 13.5067458,18.4943863 13.5,18.75 C13.5,21.6494949 15.8505051,24 18.75,24 C21.6494949,24 24,21.6494949 24,18.75 C24,15.8505051 21.6494949,13.5 18.75,13.5 Z M5.25,10.5 C5.5056137,10.4932542 5.76037503,10.4675587 6.0121875,10.423125 L4.3284375,8.09015625 C2.98051243,7.65817522 2.11981663,6.34062835 2.26582584,4.93272533 C2.41183504,3.52482231 3.52458353,2.41193516 4.93246835,2.26575053 C6.34035317,2.11956589 7.65800726,2.98009751 8.09015625,4.32796875 L10.423125,6.0121875 C10.4675365,5.76037197 10.4932319,5.50561228 10.5,5.25 C10.5,2.35050506 8.14949494,1.7754286e-16 5.25,0 C2.35050506,-1.7754286e-16 -8.66863994e-14,2.35050506 -8.70414851e-14,5.25 C-8.73965708e-14,8.14949494 2.35050506,10.5 5.25,10.5 Z M8.09015625,19.6720312 C7.6579557,21.0197908 6.3403852,21.8802332 4.93258732,21.7340888 C3.52478945,21.5879444 2.41205563,20.4752105 2.26591124,19.0674127 C2.11976685,17.6596148 2.98020924,16.3420443 4.32796875,15.9098437 L6.0121875,13.576875 C5.76037503,13.5324413 5.5056137,13.5067458 5.25,13.5 C2.35050506,13.5 3.55085719e-16,15.8505051 0,18.75 C-3.55085719e-16,21.6494949 2.35050506,24 5.25,24 C8.14949494,24 10.5,21.6494949 10.5,18.75 C10.4932542,18.4943863 10.4675587,18.239625 10.423125,17.9878125 L8.09015625,19.6720312 Z" transform="translate(251.11182181107722, 131.61275806140313)"></path>
    <path id="pursuer1" fill="red" d="M15.9098437,4.32796875 C16.3420443,2.98020924 17.6596148,2.11976685 19.0674127,2.26591124 C20.4752105,2.41205563 21.5879444,3.52478945 21.7340888,4.93258732 C21.8802332,6.3403852 21.0197908,7.6579557 19.6720312,8.09015625 L17.9878125,10.423125 C18.239625,10.4675587 18.4943863,10.4932542 18.75,10.5 C21.6494949,10.5 24,8.14949494 24,5.25 C24,2.35050506 21.6494949,-6.19949465e-14 18.75,-6.21724894e-14 C15.8505051,-6.23500322e-14 13.5,2.35050506 13.5,5.25 C13.5067458,5.5056137 13.5324413,5.76037503 13.576875,6.0121875 L15.9098437,4.32796875 Z M5.203125,17.259375 C4.3883515,17.2824352 3.74204012,17.9536015 3.74972776,18.768665 C3.75741539,19.5837285 4.41627146,20.2425846 5.23133498,20.2502722 C6.04639849,20.2579599 6.71756483,19.6116485 6.740625,18.796875 L9.9215625,16.5 L14.0784375,16.5 L17.259375,18.796875 C17.2824352,19.6116485 17.9536015,20.2579599 18.768665,20.2502722 C19.5837285,20.2425846 20.2425846,19.5837285 20.2502722,18.768665 C20.2579599,17.9536015 19.6116485,17.2824352 18.796875,17.259375 L16.5,14.0784375 L16.5,9.9215625 L18.796875,6.740625 C19.6116485,6.71756483 20.2579599,6.04639849 20.2502722,5.23133498 C20.2425846,4.41627146 19.5837285,3.75741539 18.768665,3.74972776 C17.9536015,3.74204012 17.2824352,4.3883515 17.259375,5.203125 L14.0784375,7.5 L9.9215625,7.5 L6.740625,5.203125 C6.71756483,4.3883515 6.04639849,3.74204012 5.23133498,3.74972776 C4.41627146,3.75741539 3.75741539,4.41627146 3.74972776,5.23133498 C3.74204012,6.04639849 4.3883515,6.71756483 5.203125,6.740625 L7.5,9.9215625 L7.5,14.0784375 L5.203125,17.259375 Z M9.75,9.75 L14.25,9.75 L14.25,14.25 L9.75,14.25 L9.75,9.75 Z M18.75,13.5 C18.4943877,13.5067681 18.239628,13.5324635 17.9878125,13.576875 L19.6720312,15.9098437 C21.0199025,16.3419927 21.8804341,17.6596468 21.7342495,19.0675317 C21.5880648,20.4754165 20.4751777,21.588165 19.0672747,21.7341742 C17.6593716,21.8801834 16.3418248,21.0194876 15.9098437,19.6715625 L13.576875,17.9878125 C13.5324413,18.239625 13.5067458,18.4943863 13.5,18.75 C13.5,21.6494949 15.8505051,24 18.75,24 C21.6494949,24 24,21.6494949 24,18.75 C24,15.8505051 21.6494949,13.5 18.75,13.5 Z M5.25,10.5 C5.5056137,10.4932542 5.76037503,10.4675587 6.0121875,10.423125 L4.3284375,8.09015625 C2.98051243,7.65817522 2.11981663,6.34062835 2.26582584,4.93272533 C2.41183504,3.52482231 3.52458353,2.41193516 4.93246835,2.26575053 C6.34035317,2.11956589 7.65800726,2.98009751 8.09015625,4.32796875 L10.423125,6.0121875 C10.4675365,5.76037197 10.4932319,5.50561228 10.5,5.25 C10.5,2.35050506 8.14949494,1.7754286e-16 5.25,0 C2.35050506,-1.7754286e-16 -8.66863994e-14,2.35050506 -8.70414851e-14,5.25 C-8.73965708e-14,8.14949494 2.35050506,10.5 5.25,10.5 Z M8.09015625,19.6720312 C7.6579557,21.0197908 6.3403852,21.8802332 4.93258732,21.7340888 C3.52478945,21.5879444 2.41205563,20.4752105 2.26591124,19.0674127 C2.11976685,17.6596148 2.98020924,16.3420443 4.32796875,15.9098437 L6.0121875,13.576875 C5.76037503,13.5324413 5.5056137,13.5067458 5.25,13.5 C2.35050506,13.5 3.55085719e-16,15.8505051 0,18.75 C-3.55085719e-16,21.6494949 2.35050506,24 5.25,24 C8.14949494,24 10.5,21.6494949 10.5,18.75 C10.4932542,18.4943863 10.4675587,18.239625 10.423125,17.9878125 L8.09015625,19.6720312 Z" transform="translate(328.00335221635675, 210.48177443985819)"></path>
    <polyline id="pursuer-path1" fill="none" stroke="red" stroke-opacity="0.2" stroke-width="3" points=" 0, 0  0.02825443491451848, 0.001086233734131996  0.3714809854838873, 0.010154668384536462  1.4072219268810504, 0.0357840512381191  2.750789294578552, 0.06997305529125342  4.418788326160493, 0.11009457313418684  6.805722131738717, 0.16308833936619407  9.650780321474162, 0.22586304333840115  13.074218747354626, 0.2989513319134383  16.346343206005546, 0.36572944566531335  19.2882313503337, 0.4278125941752701  23.107744974215024, 0.5078228878497395  27.07334581667101, 0.5883153250464739  32.483552130350425, 0.7163735452566138  36.9200073139266, 0.8383190497313148  40.94853501373054, 0.9566632072245341  46.26127140424005, 1.124672481689788  51.46976402428494, 1.302934035831468  57.57348803191039, 1.5274825870983688  63.54699197838328, 1.777861743084784  70.37154916414686, 2.0985639646899874  77.22719561706177, 2.4517665164377114  83.48910360380188, 2.7999696946097035  89.89887480657033, 3.192893978539043  97.27519495339065, 3.6973321098307976  104.39202138646314, 4.2409070284802945  111.00105984214107, 4.790372705509486  117.93546983513191, 5.417554778262739  125.86290789531603, 6.204947905203385  133.46314932261527, 7.035420059798122  141.965177582815, 8.046089250220941  149.42903967466572, 8.99865234130303  158.72112945988684, 10.294040165646894  167.17250708536636, 11.587103448042338  174.27046968275843, 12.766264174965377  180.8129717228699, 13.9392639345539  188.22657596494733, 15.364336819864084  195.7933240103343, 16.932413900523827  203.27118753110958, 18.58839354342813  210.64685924415986, 20.34228160649043  219.36213079061514, 22.586055457171206  226.7506018752095, 24.631660836970543  234.4945771974794, 26.932405435331006  242.0955584826311, 29.364197990701832  250.73422003406392, 32.36396773745712  258.34977838125195, 35.241813312023616  266.0061558882188, 38.37705323251853  274.37274614241164, 42.10952605078438  282.4817575094726, 46.06515320305966  290.42772926281714, 50.29780886949043  297.2137325744006, 54.22314925489373  303.84485671814633, 58.36054102740352  311.42948325076947, 63.50379579246056  317.06769106786714, 67.64660867445238  324.07175774649795, 73.2183207089091  330.7769692578057, 79.0587264286706  335.68246384516146, 83.69480271021614  340.9775435364867, 89.0944106024847  346.00862772452234, 94.66934956844446  351.50252093442185, 101.34987657748869  355.43788749420133, 106.5923112346653  360.1054593721536, 113.42434487872765  364.43435581575676, 120.51859464254876  367.71282341269165, 126.52548700254295  370.83576848713454, 132.93166049836285  374.04050425460593, 140.4725101328358  376.3933030166561, 146.92892962715905  378.50269362435535, 153.75397440802908  380.4275599589607, 161.47074260057494  381.7166564520007, 168.23473641082597  382.54101385921365, 174.1358900473035  383.1435493537672, 180.97930429659326  383.35956414415205, 187.4603744324088  383.2229020712634, 193.98991626231262  382.65062117584915, 201.16643584907575  381.60503441947395, 208.42835230100872  379.9784476190799, 216.0315514666793  378.50963508246787, 221.30944681657957  376.44070809644904, 227.41644008167216  374.38447889966034, 232.52239043500933  371.4063563439848, 238.81253661195893  367.8335539926928, 245.18288202568678  364.9067305055074, 249.71534942622924  361.5214660359534, 254.37582747259816  357.38310415234633, 259.39668570770704  352.67594903276705, 264.38483443775885  347.7331568058457, 268.9532958381726  343.19958893023664, 272.63699221540867  338.4714739932346, 276.0367998862278  333.64766851659346, 279.0922265827371  328.5841965008279, 281.8975068314106  322.59866182231895, 284.73190734338544  317.0751065767776, 286.9203120608681  312.3416924290701, 288.49400833652186  305.89793686320587, 290.2146603595337  300.7509133943053, 291.2541521770783  294.9135703813061, 292.0838257253823  289.04817371930096, 292.5506303182574  281.49688311600363, 292.6188767027735  274.7177874017614, 292.16659838077794  269.55652547853737, 291.49072045563054  263.80777917359404, 290.39381770037954  258.0525823917217, 288.9179451929556  252.49128931658805, 287.1151638692026  245.52035540265535, 284.3004195349562  239.44436167367022, 281.29761247701697  234.44271942626307, 278.4167719172307  229.35562952252926, 275.085058257457  223.86039881216414, 270.97561347252366  219.96169500248877, 267.69509729892627  215.19468250447807, 263.22032865264606  211.56221747418962, 259.43664988301106  206.92474782190587, 254.05750236178878  202.64537275630062, 248.44573980706133  198.65266298035738, 242.54978379897537  195.504322327454, 237.3343615720879  192.58477890609393, 231.94128880867646  190.17971604357203, 227.01635813860565  187.6478784533754, 221.22411767295236  185.3633937973839, 215.28422731412977  183.10377987789806, 208.52187575128585  181.1485235010683, 201.60608410338372  179.49762466689467, 194.45870171030754  178.32756571529188, 188.02483348965723  177.39559877694896, 181.1062821888957  176.77919729655602, 173.81812363922023  176.54376335384168, 167.0183474589184  176.60762476847697, 160.9371222407704  176.96544846898522, 154.21429466320384  177.60358856454033, 147.70452752372793  178.87581392828963, 139.23339213820614  180.38096753767854, 131.97277932596748  181.82944668113652, 126.3259776451188  183.74131047957007, 120.03688115207888  186.02481317319445, 113.64988639711235  188.62054603879767, 107.38959695523944  191.42794258567622, 101.46217582544095  194.51824587660457, 95.68721281833356  198.3384180924873, 89.36891479614123  202.1916553515256, 83.71619933158838  206.92302092257054, 77.55353218635614  211.15751353584332, 72.62881145306727  215.5529125342417, 68.01342240973565  220.78384299437573, 63.085161532809394  226.35380442695723, 58.41669742353391  231.82976835846367, 54.339528725785314  238.03001418766317, 50.267200425291286  243.5399066119928, 47.08671404917261  249.2829812377466, 44.172820297500735  255.8128108842063, 41.32261019141494  261.6108754025199, 39.18062012616523  267.39519244769355, 37.388518489674155  273.34280306236815, 35.88950891723412  279.5360735726838, 34.68945270835379  286.45674117165044, 33.7720763763557  293.4886414042739, 33.29522698568028  300.501681187294, 33.278921331270084  306.5864279256553, 33.64199175828827  312.714127052386, 34.367216678461496  318.573598079417, 35.41032144030177  324.53185790665935, 36.83425491065835  331.20031355074207, 38.88596708055816  336.35326265461674, 40.825376616428564  342.42394024251087, 43.53488167353476  348.619445563731, 46.82077324457296  353.75673406088845, 49.99061040812388  358.61004919970065, 53.39936070863822  364.0432977682365, 57.764213905264334  367.98924581904123, 61.35700596288182  372.12195295384436, 65.5682531566704  376.0519187206046, 70.0833821492786  380.248724295442, 75.59049799036322  383.9001682880332, 81.12531194235542  386.771900300345, 86.13135609002902  389.0688457201678, 90.69180264588067  391.44644749718105, 96.14732144368784  393.5486765517545, 101.90715715122558  395.4093259336261, 108.23578609473567  396.6992520155624, 113.92647810731832  397.78152691762017, 120.70175263352148  398.3882950085837, 127.52840918710446  398.5286309751563, 132.96657603266885  398.2902172845693, 139.61786426571223  397.6004903039682, 146.23439441703601  396.7563751367129, 151.3153385907824  395.1512052741537, 158.24741726967056  393.4103891618443, 163.98233144954574  391.28427133313244, 169.686364606013  388.8868779353056, 175.07860778052802  385.84563890196284, 180.89146945589124  382.72770522166957, 186.01797329739577  379.29986083223, 190.9462392534377  374.4763093113735, 196.9470451397942  369.8627961547708, 201.89791316066598  365.8344140562834, 205.7155627490883  361.37569541559014, 209.4847067826511  356.7010974275972, 212.99061718027812  351.7470634246107, 216.27010060035147  345.6886772966915, 219.74538393035513  340.3489691088184, 222.368764115709  333.62428765402416, 225.1440521862207  327.8014370511332, 227.10874725304492  321.13298140705047, 228.889637588165  315.1993552909148, 230.072631354397  309.2040348495058, 230.90078116799344  302.69807704679897, 231.38942595834448  296.9336024135958, 231.46796601732993  291.1735127502734, 231.2170069109834  286.28183335760025, 230.74207573300106  281.7915395476878, 230.0917118990136  274.3887622872274, 228.5573279788167  268.83242981508636, 227.01429263155757  263.1078939616087, 225.05346615785214  256.8236395588618, 222.43692584829697  251.4823907058955, 219.7997304682606  246.2247610276067, 216.7991412908403  240.3063299325832, 212.884853061183  235.55856728304556, 209.27871478056528  231.03072187778292, 205.39598478974153  226.08112363583416, 200.56940272985537  222.02189437471006, 196.0663603395558  218.23729289905765, 191.3268004618609  214.27366952564444, 185.65444405692674  210.79725185980288, 179.8902911010507  208.41172666230992, 175.35899189711742  205.62723692720272, 169.2295320102801  203.25525603822203, 162.93124231783753  201.50314735869054, 157.2232643815161  200.0509604607774, 151.23927036810042  199.0339521953631, 145.64798511480495  198.31542662878775, 139.82306053967298  197.88756192288545, 131.98495227324287  197.96606812109965, 126.12275545412373  198.5079081831326, 119.15020299532382  199.36942778682612, 113.16688789037237  200.5686577928872, 107.33864495965489  202.33456473671558, 100.87129690140083  204.26398534505816, 95.24607807616641  206.18263822813356, 90.52206537160502  208.72444781547233, 85.14441618951196  211.58402381089434, 79.92861302894757  215.0149495305204, 74.4985219773336  219.0219824127154, 68.99880979388948  222.76715302021148, 64.48887673663431  226.70468666935292, 60.2690356790947  230.9500485902068, 56.215703271289115  236.46745810576073, 51.58793811605441  241.2832639751868, 48.05526924392284  247.11353855218113, 44.324201647665134  252.08782129639349, 41.560046998750536  257.64264696421253, 38.88375427915497  264.8646415668056, 35.9946009000193  269.6425826287471, 34.42119752003711  275.6910136899098, 32.794282270161546  281.3590020553488, 31.62434183125823  288.87583932386815, 30.580219553240983  295.59269894049646, 30.12702529738222  301.6568075387621, 30.103810352592212  307.61667575264033, 30.43550538894175  312.794241637236, 31.01354600155082  319.60611457807784, 32.192881111445956  326.32087482688684, 33.837698551097596  332.63699221540867, 35.846553142787485  338.28188753483425, 38.04633846549756  343.7846861275806, 40.58346002905254  348.8781079955439, 43.307835043866625  353.1720770535711, 45.90994050662486  357.8714949869128, 49.111004073450786  365.13952330806194, 54.8960948372482  368.98231451916007, 58.42936473807001  374.36690515936573, 64.05472577854378  378.8458556108991, 69.47331940526941  382.7291273740633, 74.87237875304324  385.9631188479211, 80.02033847226971  388.7570049470587, 85.09825380002505  391.25714885533665, 90.32534444869584  393.3562965797235, 95.41852590518306  395.2931157665909, 100.97825461268357  397.087702783694, 107.37366884842902  398.4411178117815, 113.77347821228672  399.2903459555002, 119.48953194255859  399.7623312463811, 124.48620512178026  399.99999999999994, 130.53842520324926  399.877424007964, 136.49571491939443  399.3156738124181, 143.18350506387833  398.4575572162383, 148.97610106763014  397.1264733668104, 155.25554724085504  395.2501125870645, 161.88431806099678  393.46746149183787, 166.95813454238862  391.1812330061254, 172.44655923772632  388.57038130614535, 177.78931489501466  385.74153396066055, 182.80546648291553  381.92688105049655, 188.6622794394011  378.30211934567444, 193.50272748512666  374.00859047767386, 198.53760407954573  370.40585520456983, 202.29168006988863  365.33095517849705, 206.98083818953228  359.86850169473155, 211.37012531871449  354.35075357146485, 215.22083995029237  348.42191875446537, 218.7918646110921  343.7162027176655, 221.25264537275632  337.66235393309785, 223.98055375905352  331.4440264520345, 226.30804159457145  325.7295133868559, 228.050262928889  319.92269585916625, 229.45529870279384  314.1388190040193, 230.50183356076482  308.7767457767153, 231.16785800146954  302.9141934194977, 231.56718654237505  296.9461986205121, 231.62269281169685  289.3834969372933, 231.1848391782668  282.625868952043, 230.30408665648585  276.96102963833306, 229.1993789934547  271.0957514890274, 227.6923376460669  265.422700938282, 225.86441469963802  260.4772845015864, 223.9589167262052  255.04166567906083, 221.50558533422273  249.0214067796036, 218.31051681695206  243.86331083849427, 215.1314983052684  238.60243052616252, 211.41822454431866  233.30106966176476, 207.1266088098955  228.63703623441134, 202.8178764555899  223.86805134647358, 197.79794939169122  220.09279544369463, 193.28561221967513  216.15295926210607, 187.93765893399518  212.57135311028114, 182.3436394234188  209.27512553880953, 176.35859572609345  206.6134318907516, 170.69050577834062  204.76309311373495, 166.11610181256708  202.8503320048624, 160.55433468663549  201.08271509208438, 154.15757787130875  199.60917897787877, 146.91398009663865  198.7219590487832, 140.153169198888  198.3307655581779, 134.394569409502  198.2643476553109, 128.90859962008213  198.531847748428, 122.9586576913049  199.14098609338123, 117.13311515709705  200.14517805686577, 111.07788993217687  201.69070217081403, 104.46014079308698  203.62384746399755, 98.1445888794455  205.39935393648395, 93.36813599840177  208.10267940283143, 87.23763319980903  210.7976073979013, 82.04390387604249  213.94665912700157, 76.77726215347734  217.75118766655265, 71.25582151310242  221.85844843173837, 66.0687475239311  226.30159111764246, 61.16117896433445  230.50151188343767, 57.06710358348542  234.93502117991244, 53.219505835903924  239.28058558817852, 49.855556721871004  244.92154459294272, 46.01045620617146  249.89582733715508, 43.053022581748365  255.20181019683264, 40.30049741473011  260.39803336640404, 37.971343629265185  265.9842818299715, 35.84359371137756  271.41062280116614, 34.12653600923721  277.0157655751083, 32.6952090394715  284.5638901962909, 31.294118045420838  289.7391366180539, 30.669168413318115  295.6948399570645, 30.28264770914952  301.47040399286215, 30.245267110694247  307.3311447988162, 30.54652469973961  315.220247386795, 31.49990857591754  320.3358819207184, 32.45987498603243  326.12531194235544, 33.883771209540605  331.81850965201284, 35.650245321287926  338.6191408167895, 38.26475398456626  343.35016778012164, 40.432857476627596  348.45887778631817, 43.12180396645075  353.72466791048566, 46.3065043155553  359.2428392933934, 50.148039292038995  363.9148807931547, 53.86033109062158  368.4296051495461, 57.909485079251134  373.20859589539725, 62.78097329400969  377.58953634445885, 67.89109190829147  381.13220260931104, 72.58411862105395  384.4972521984106, 77.63563778455746  387.82717123730646, 83.38050703118915  390.377649182093, 88.46839943520233  392.46370971837996, 93.25091508734387  394.5491776911694, 98.85116497983591  396.5729174779143, 105.56909798291386  398.0760986973761, 112.12957162738252  399.1406136248971, 118.77161586986628  399.6590220332039, 123.95291659753426  399.92723320251787, 130.0986702875118  399.82368696394167, 136.15094454621487  399.35495230710364, 142.1821235444101  398.44296322381626, 148.63732405096724  397.26438828823643, 154.37159487618808  395.66793757428206, 160.29406386818678  393.5435297145198, 166.54731873482615  391.1625079996072, 172.29882469262884  388.0242917173167, 178.63774731060826  385.09394670991816, 183.7019727285348  381.92398595455205, 188.50927954436946  377.89023692381664, 193.86390340199168  373.50406498559227, 198.9412075428254  369.67305732289964, 202.86614498505045  364.62600778120526, 207.44547569304535  359.2781391474535, 211.67824140698278  354.76864628022497, 214.82109661493868  349.68340178852594, 217.95548663007446  344.5056835304594, 220.74563111398552  338.1269067846827, 223.67746599532043  331.83095348545845, 226.0703728409526  325.9397210549662, 227.89255638664937  319.85759852637926, 229.37371117439312  313.32221571342956, 230.53190192566208  307.4819606741002, 231.20019503804258  301.521059706698, 231.53016825417248  294.7980204993109, 231.47778564100133  287.907353543699, 230.95660064944957  282.09759012890794, 230.14196128359413  277.0839780988531, 229.15708689012516  270.94361504366344, 227.58213776593402  264.1156413060777, 225.3291182316551  258.3311126310835, 222.97812255567555  250.94733972850432, 219.33629502212798  245.87674002038418, 216.37640649178707  240.6779942233524, 212.90444151736887  235.33713476925578, 208.81516082173317  231.04490954094953, 205.0865312010077  226.83733624084488, 200.98475588076946  222.38146190493927, 196.06742695385114  218.25359686042927, 190.8670558397979  214.83641861394318, 185.96415160144517  212.09054708848157, 181.52508913848038  209.18663041306755, 176.19054471822759  205.9770525553031, 169.20828437630152  203.9103434498031, 163.80115939280867  202.2600879702838, 158.65156250529074  200.75672051657992, 152.86858296058267  199.51843211084662, 146.5421380368202  198.6485658270324, 139.7763496056913  198.21970222837737, 132.2146637456108  198.2529704361606, 127.00828234465526  198.60480078015217, 121.2475374754086  199.3166388443996, 115.3343412556251  200.39916770224193, 109.38483951687451  201.96832663454407, 103.06055152424261  203.7604502805365, 97.39010655984723  205.96154432205657, 91.6634171613161  208.47027193585416, 86.1679595837834  212.16458366488672, 79.3628858858147  216.1065361446803, 73.2491949601628  220.78411388054596, 67.0691233784923  226.7188235413626, 60.45200743582537  231.2272497942958, 56.126547860507166  237.0412288751113, 51.266172750882916  244.47783304608114, 46.024750530767584  252.95133868559256, 41.15208734724559  260.1009728199589, 37.81770207261781  267.0373687471853, 35.19132520900561  272.6739343168759, 33.46729388102002  278.4898773224256, 32.05466144307835  284.93788241508565, 30.905142435334394  291.5369404084286, 30.167265437972144  297.3117933680293, 29.879872141727642  303.09170851293646, 29.92299044787642  308.1956780111537, 30.238635478638933  314.4000717848351, 30.975701510529007  320.45009430224803, 32.07901749586052  326.8715694806096, 33.681881439895434  333.2578802479963, 35.73998483037447  339.66383026272575, 38.29957978782841  344.44827259275314, 40.56072929329184  350.0084313320489, 43.5947542893132  355.05258577779887, 46.76478953837611  360.72414645460793, 50.865227358148765  365.67233947454855, 54.97552882059547  370.61668929694883, 59.665172842307  374.8627792243852, 64.25061372647946  378.0666515421888, 68.1191323515967  381.5678552926079, 72.84085098890382  385.2335377395226, 78.48708380879499  388.1688264195282, 83.69168751925831  390.8704927080829, 89.23190226426978  393.4640246235529, 95.54557151902806  395.4655686747233, 101.47336003819495  397.0537234997139, 107.32632810410155  398.3537400914918, 113.634039556153  399.0878416128562, 118.59836723360885  399.69806350249047, 125.57364379145828  399.82615880024514, 132.1900063319642  399.4801525089139, 139.26803170722624  398.84270655917, 144.89821452153038  397.85021349216294, 150.66727728924207  396.32485346751224, 157.09560927378803  394.61896474077884, 162.69018748709058  392.48077554710545, 168.43823964622266  390.3968313090236, 173.19107294625957  387.66309887006605, 178.57740741618613  384.70705353726544, 183.62997626359933  380.90758718302084, 189.27048661314407  376.48826554971265, 194.93188905856897  371.73759933903773, 200.19861035394663  366.6239964513912, 205.1215093777406  362.5109454943165, 208.6163134423876  356.9005035096689, 212.82092392500516  351.0904861390933, 216.58338045624004  345.2042989635218, 219.8578016910069  340.32936372224685, 222.2002559874309  334.9811056896254, 224.41913539906614  329.4253827113674, 226.3593829890257  323.7683990965946, 227.97426242774958  318.49366972880904, 229.16920904624365  311.9413734606047, 230.25187334717108  304.10665127130267, 230.97466537092782  298.23329732804655, 231.11625418603785  292.1760963271221, 230.90250806732874  285.394833523518, 230.22624074331165  278.76948264127554, 229.11062991192813  273.8826791996668, 227.9891442367274  268.3354383446146, 226.39806892021386  262.5377124340138, 224.3528360088986  256.96385701273505, 221.99356983953382  250.212527130943, 218.57657782728975  244.1330796032872, 214.91693952804857  239.1586444856041, 211.45917914718262  235.12530178412402, 208.3119728301171  230.69605894483064, 204.45015186555918  225.32514805622242, 199.09593433719235  221.32216153619547, 194.53041882387996  217.1523937872257, 189.11701266731455  213.8609744452759, 184.23953786819357  210.8085105662537, 179.09603591950616  208.0225140268245, 173.69698672996373  205.8506333657268, 168.84379010385098  203.80706809739712, 163.5265485377226  201.72627291104436, 156.9183819969051  200.21718298699406, 150.74485231624607  199.1538193256966, 144.8681969477901  198.37409041503147, 138.18834715417148  198.0467414086758, 131.76094634083574  198.15790632079018, 124.76322855682005  198.55709095341774, 119.5802703443979  199.3736603832362, 113.49298235515208  200.4998865664162, 107.74626092433132  202.17464031395707, 101.3532406451154  203.84914010571333, 96.23902149143153  206.39311678241407, 89.83394677763971  209.33155451414873, 83.70428372617472  212.24112593836662, 78.51339362808007  215.67062950559887, 73.19295221906565  219.6668438713697, 67.80311993146579  223.8903994555188, 62.83247044801187  228.5668259251609, 58.01260975122491  232.4777957992327, 54.43762338018536  237.69997324999068, 50.20514548280381  242.48390766844886, 46.798995689523814  247.377991175883, 43.72070620024582  253.2863571566433, 40.49273009240605  258.52444916990316, 38.0373416585683  263.9840922096523, 35.84849505802043  269.92454127120106, 33.86849661561591  274.9618897019236, 32.49640229305143  280.5293792982016, 31.295015355859775  287.2836719974807, 30.267434064613123  293.23776694985554, 29.741213976371956  299.1146085525536, 29.56735923230859  304.9876916096395, 29.736558120320865  310.932762666468, 30.258362763987037  318.23136726408353, 31.390919218357954  323.2270669461309, 32.48667747953963  328.7932867634859, 34.02914735191838  335.58723042593465, 36.39575792257396  341.16567398172197, 38.76264276547691  346.4228973307554, 41.374019307411785  352.2430052111727, 44.73750114280103  356.5909991297782, 47.60724722087719  362.12298570736846, 51.75819853924633  366.4482590484446, 55.44920207092477  370.76037747987823, 59.58188719622655  374.82170610882173, 63.96338296193711  379.3144209638807, 69.48239239893405  382.67803147020084, 74.19567123899948  386.4381346778317, 80.24146623911798  389.1821269304872, 85.34394924947601  391.7071754360421, 90.76788271983258  394.164671702892, 97.04382938234568  395.75377462947847, 101.91716300913902  397.466249276226, 108.43253410626187  398.6048685016947, 114.20051332929262  399.46733620698416, 120.58727613797588  399.93527513569705, 127.3903334270148  399.92091816867406, 134.77042397071722  399.52391755579407, 140.62065100718866  398.8138571820389, 146.24671973778217  397.5433671828177, 152.92932918426018  395.8483308332797, 159.41810264554204  393.587108527158, 166.1284102029276  391.43694955083686, 171.36758576086845  388.8187331331033, 176.81321044130743  385.3849800390753, 182.8982788569958  382.45267110694243, 187.4122921371903  378.9907289208233, 192.13769821248988  375.00612879960175, 196.93746254152177  370.9286655131431, 201.28093604716128  365.96054542930375, 205.94441077178857  361.2861336755529, 209.80169439299488  356.38676788779895, 213.37298993996487  350.79141087675697, 216.93859687735969  345.5647638041899, 219.82829202883585  340.00335221635675, 222.48177443985819 "></polyline>
    <polyline id="evader-path1" fill="none" stroke="blue" stroke-opacity="0.2" stroke-width="3" points=" 365.48368418735845, 0.000008417416964923627  363.8046639826362, 0.0047534631103827284  362.14159220118717, 0.27434878964673054  360.86097783135307, 0.8088924480321812  359.31330355842846, 1.8852776752548868  358.0515496381977, 3.146118709091956  356.91348911545504, 4.5280892028158615  356.03710463316935, 5.82314823907059  355.0301868775967, 7.563436123348017  353.91467762852704, 9.711694155969484  352.886596890904, 11.854428311668082  351.8386060197679, 14.197484483301562  350.922452061613, 16.287377381682  350.1608386635831, 18.12122664030041  349.3229538782434, 20.247840529311574  348.37686699827645, 22.73084072909013  347.36932281843514, 25.52577989821452  346.5172842307002, 27.948472371303673  345.6870858404413, 30.480474186241015  344.7665299820199, 33.53533032875423  343.89541084966834, 36.684989858699  343.23014827631744, 39.36187175571485  342.5396086372055, 42.23207834028044  341.7399188018705, 45.5705878568502  341.03420953722485, 48.41479444818794  340.28277130096467, 51.54373287914752  339.51716233192354, 54.87124103112821  338.93030437447305, 57.58041086659872  338.18685728023513, 61.13288321081377  337.3463482851212, 65.07513197235606  336.51108770955585, 68.90351542527435  335.8691721380029, 71.80279825413864  335.10434196670127, 75.17546651677631  334.2780544955253, 78.70838934469249  333.35743091556134, 82.51340547935001  332.37238721823604, 86.42517108154689  331.56094769526663, 89.53198149847458  330.459507596664, 93.58039224317451  329.3123554568326, 97.60945155708757  328.2160621954647, 101.25802923538991  327.07486955137864, 104.86519011130035  325.5498312040552, 109.42115011495731  324.408503116884, 112.63904079207116  322.9799510373247, 116.43748455102309  321.7224635742753, 119.58276757627985  319.91988541514996, 123.81536398636088  318.0191448800821, 127.9555882123883  316.4516789863439, 131.1424285622378  314.58952280015035, 134.6806929268235  312.65395646182026, 138.10731832849686  310.3453290759057, 141.9012399814443  308.15264097085605, 145.2329451760252  305.8134880996319, 148.52595597422518  303.3225035299854, 151.76116643584908  300.47298418363374, 155.16198992980662  297.792311573273, 158.09500993813637  295.0536862528655, 160.8441320976409  291.44152075495975, 164.12651061365875  288.1670825898072, 166.79135331344577  285.1374070098569, 169.01592133465616  282.03780893721193, 171.06822268197624  278.9266304807891, 172.91561557189146  276.2251334960908, 174.35578189600002  273.0769621470438, 175.84877102330637  269.8933724312372, 177.16521008915538  266.528356702909, 178.3484916719433  263.2018660671053, 179.31222001374746  259.44544521835115, 180.161735974022  256.0665635041835, 180.7093831583296  252.39136618053888, 181.07218439221606  248.54071927050353, 181.1918144971506  244.9525102682789, 181.05278217027228  241.8753788173787, 180.7369288957664  238.80217521594707, 180.23435039803337  235.7936626180471, 179.55178497055803  233.23585381627822, 178.81284135890047  230.5142096726679, 177.85581744980985  227.4316943591341, 176.54557490510518  225.35806072590722, 175.51610587585964  221.67163855658302, 173.36278091742372  219.58330934862033, 171.93558326871567  217.1756561370955, 170.07525556417121  214.320668276182, 167.5179716043572  212.31907343385467, 165.45200743582538  210.54189085318984, 163.38418939006593  208.75270462910603, 161.0309589031819  207.1351755850295, 158.61310513430877  205.6876784039387, 156.14408774003056  204.21148421918755, 153.21267611833665  203.12204776400395, 150.6684962770082  202.1305705201353, 147.93041272894115  201.3244979294138, 145.2268502371947  200.5758024156274, 142.01600260050725  200.13683137674508, 139.4603947488716  199.7595885239074, 136.1248378915575  199.59720919523104, 132.7138392358301  199.65675336152808, 129.33785261760693  199.89327084892338, 126.3446789490971  200.24002207722285, 123.74040301089978  200.8165694298185, 120.6814310916374  201.7966694545368, 116.86263023699154  202.73720316801376, 113.96827415034859  204.02912703545562, 110.67412732327216  205.3134322293593, 107.88911951836438  206.5605752267825, 105.51012098453579  208.15487578176055, 102.80780964828816  209.87127827797661, 100.22708726259366  212.0333731761742, 97.33173059015938  214.10911464241332, 94.84511406000806  216.81514050527042, 91.95411188276047  218.73836459246868, 90.1000077879774  221.13154232427107, 87.9838399469063  223.67650096333892, 85.93689368056425  226.79685568877886, 83.67842425514768  229.482404250204, 81.92578057542995  232.75950048590207, 80.00248876668913  235.63360275220347, 78.49434694423469  238.63436123348018, 77.07819975823409  242.15461166774455, 75.61001364589083  245.71356496358274, 74.3187043514477  248.83403820172217, 73.33699594009353  251.5877823565065, 72.58201925323455  254.958859162894, 71.79668638492248  258.26446616801036, 71.17376670605803  261.71076467779784, 70.67562904847846  265.72743094942217, 70.28840911938292  269.65671103556394, 70.1098782028057  273.7586133336945, 70.1355785282077  277.7005827438737, 70.35721420662519  280.65341130340266, 70.65029611244485  284.1949601628026, 71.14903141263751  287.5494282608769, 71.77617691575777  290.92734494306313, 72.56408150964863  295.1536263193003, 73.78637916614464  297.9591266629871, 74.75017522949138  301.6741103928865, 76.23178375157029  305.0434433695531, 77.79359828258167  307.7466672535867, 79.20791529389456  311.0253380151493, 81.13440863855996  314.40125691182993, 83.38853203398267  317.07188980350594, 85.39516366603799  319.67006064464135, 87.56094092311234  322.52240736539494, 90.22274292563836  324.66044418559767, 92.44781208626371  327.0464095731172, 95.21338211541783  329.49799713537874, 98.44006812787183  331.5209073332272, 101.48902233795081  333.1439726134082, 104.272137325744  334.6014756524124, 107.12297554913707  336.197773992896, 110.79363214335297  337.1442502717327, 113.38087949967324  338.13459317976344, 116.63256999867941  338.7696858059033, 119.22823683577865  339.42321562200544, 122.77800539740694  339.7500397864062, 125.40100295604533  339.9480237160842, 128.07515059578026  340.00577326150335, 131.18716541325378  339.8772547041076, 134.28072949645647  339.56935871085267, 137.29613276131204  339.01752972129196, 140.605853850139  338.31224371628736, 143.62273005854527  337.4385003741615, 146.52976192491712  336.0402198241271, 150.2011499117927  334.9842039501976, 152.49785830621647  333.5789480812794, 155.1432479929028  332.04227855902104, 157.64970693502457  330.2740690827456, 160.16346287335733  328.10579459378926, 162.8331561286303  325.5553166490026, 165.5266365757279  323.3790510180241, 167.5229660681211  321.38424526033856, 169.14544724999743  318.95962780240205, 170.88804951799193  316.4715721894713, 172.45092727722152  313.9338258946862, 173.83672166784615  310.67399865234125, 175.337828915067  307.4891899487686, 176.52854293715103  304.6819627057465, 177.36625841863426  301.8754296085356, 178.0183999431139  299.03645789243785, 178.49702194516587  296.45235620176953, 178.77930226494698  293.43713917115605, 178.92996576676023  289.95438954108494, 178.864546756646  287.03814754492475, 178.6121147067488  284.2307679284319, 178.19855617671257  280.9033884473821, 177.48825877755846  277.9383192190351, 176.64629376927945  274.29312253874514, 175.32041601343593  271.22061308312476, 173.93604377520512  268.94168159362334, 172.73556092060664  266.05566033583113, 170.98372312724538  263.33206919787216, 169.06336027522033  261.0291134911471, 167.2058938058491  259.04216343239864, 165.4069726100221  256.9262715566135, 163.25997961581567  254.84610279452946, 160.87604587457292  252.55879076413603, 157.86025321084762  250.74046734636522, 155.08248483883966  249.26249547112184, 152.48348440880787  247.89504515333851, 149.71154855465298  246.7312504444226, 146.94871278277978  245.76222289191304, 144.21241539039775  245.02072279202375, 141.69909964209165  244.22206571021275, 138.25874369766396  243.72072313063146, 135.24187256837334  243.3716693698849, 131.81783243658722  243.25474812665283, 128.9023269122024  243.30472662506307, 125.93563067379549  243.5554825667819, 122.68949334127933  244.2156660244407, 118.32718986073064  244.7286059181856, 115.98127837955893  245.43109840955958, 113.3835595797201  246.33318321724732, 110.64545402215171  247.6160493283716, 107.43378864783783  248.9576130865109, 104.61583769855109  250.41863764572827, 101.96620356418478  252.27546076044518, 99.04803489013872  253.91095294368614, 96.78989222116502  256.10728108164847, 94.11602223975457  258.4441314204255, 91.62639379399783  260.4000480822952, 89.77591788085749  263.0905233859417, 87.51498169825311  265.96835033708396, 85.4104230226156  268.8181913607628, 83.60114381685386  271.478835324911, 82.13120371655825  274.17515161160344, 80.839797918917  276.9839533804901, 79.69133706027556  279.48592577041717, 78.82570845198711  282.40160906385125, 77.99129439570375  286.1679765141691, 77.17491627924299  289.12386947349887, 76.73246435307303  292.5332089514335, 76.43395287257853  295.2308965993627, 76.35695347868634  298.26516031382164, 76.43748455102309  301.4301096750381, 76.71342274834336  304.8049111662665, 77.22829270605125  307.7647996966075, 77.87085163225848  310.7226735110572, 78.70262454838196  313.53440423665967, 79.67589316249445  316.279818641709, 80.81223017197885  319.38244725338353, 82.32819383259911  322.37651823233233, 84.04964666285167  325.36657670988427, 86.05273137911536  328.1365571044977, 88.19887277492406  330.3299732161299, 90.13351302115959  332.4371967344672, 92.22447659712793  334.4201004310476, 94.43417973974611  336.4156849864726, 96.9469689530588  338.406732198546, 99.821091535823  339.96055220145803, 102.40418925462284  341.2971384262191, 104.94520142079796  342.7260629742624, 108.13014048834005  343.6840349849489, 110.6775100143231  344.6818611234326, 113.9137566155482  345.47941773017703, 117.30091220917829  345.96186599938375, 120.16351366451426  346.25533730407307, 122.76427485465264  346.42376078042304, 125.75497330078184  346.39389558015347, 129.17273056645683  346.2079322242802, 131.82240871982583  345.7677421976318, 135.1574441212622  345.17565275101833, 138.12673748082634  344.2652043328243, 141.5046880237838  343.3192698263281, 144.27824072976736  342.05619533601737, 147.3381539784713  340.87756960928056, 149.76095988514427  339.2762260138761, 152.60243729831677  335.11035225360365, 158.46446481357953  332.71940933270577, 161.16936480579153  330.8705265688542, 163.02135429540814  328.5635583607324, 165.08834275227122  325.78731372343196, 167.2727772943212  323.3476790134325, 168.955818465633  320.39518906161646, 170.7367257311387  317.7173776864289, 172.13305928682445  315.0500123591815, 173.33509973690178  311.81908528512463, 174.55877721982753  308.5602907963038, 175.55101633104996  305.66536415566475, 176.2420808121167  303.16406898116327, 176.69838856589476  300.2624040470394, 177.0695703406732  296.9599122328808, 177.29169700027427  293.8429266541833, 177.30593545459777  290.8761643872724, 177.1422355558415  287.54494170868225, 176.7514314641059  284.5258645501427, 176.2054603879767  282.14460580983115, 175.64289753392003  279.28755244186954, 174.8085173384079  276.2580292353899, 173.72333041002005  272.69252388030895, 172.16280597439447  269.71380876113597, 170.60058850020485  267.16417733563134, 169.05740077947496  264.548161868031, 167.25632942467163  261.8601922614593, 165.14378976524327  259.5957362516803, 163.12443494837925  257.4160337524168, 160.94087232118972  255.6464190541332, 158.9637926772696  253.6872686886062, 156.51513407172388  251.6955611914928, 153.67179431613093  250.10926870892266, 151.0797014834404  248.29351870976916, 147.61895288950893  247.21080361768477, 145.1969511761539  246.14068473251683, 142.40626491990233  245.22172033034568, 139.51509682487549  244.46977418251632, 136.5743396303081  243.839692950526, 133.2651890954772  243.4158746067918, 129.78273236107773  243.23256932146398, 126.47279117723743  243.23995096960317, 123.78284071554582  243.4189559369783, 120.71359882435402  243.78229894320532, 117.66396231973371  244.29898045217675, 114.78528884930941  244.99134857293777, 111.89484876086507  246.01812567086654, 108.54688193087662  247.2513180305221, 105.31873144006474  248.72092629525915, 102.13968414672549  249.9699824262597, 99.81614278410034  251.7826849559979, 96.87576821624843  253.87592397579633, 93.94192708421512  256.13729865538875, 91.19435405499667  258.3096872280557, 88.8817141676853  260.54810430471986, 86.76917450825694  263.1362184967849, 84.6099814781581  265.54143373277753, 82.84068168504741  267.756960928056, 81.38922279371678  270.3825928547, 79.86446379775639  273.48552621331606, 78.31306822606805  276.5969078343666, 77.00013375004656  279.41940628523633, 76.00473373582504  281.8744137853972, 75.28137623718793  285.069617745753, 74.53087594429226  288.4469926555987, 73.96440217115266  291.5163022683331, 73.64449576232448  294.69445733034905, 73.5055209987573  298.15932847318396, 73.57846556528865  301.5589329793754, 73.87967067013852  304.9745366999969, 74.41588476502318  308.3901912117754, 75.19359895979711  311.244705021891, 76.03527615152018  314.0921757915802, 77.05750913394306  316.7887798948284, 78.20467989719869  319.5009938136371, 79.54837180481297  322.53637493354825, 81.30207871274892  325.05473593677516, 82.97887257175944  327.09310357671325, 84.50231438371704  329.3769618084361, 86.40975935149851  331.5416809164079, 88.44605301919566  333.8408780775208, 90.89150331666254  335.59373169402056, 92.99061718027814  337.6736972914769, 95.80975325655969  339.25965116633427, 98.26865474541779  341.1040304476055, 101.58044134129287  342.3603497140458, 104.22540099618388  343.46046924256837, 106.93480447097623  344.38564709626957, 109.65296942033746  345.2758129124665, 112.92562142980493  345.82036183620187, 115.54150145432013  346.22049457042533, 118.13430028409186  346.53372363515695, 121.50098026932858  346.6182570506591, 124.78084800915595  346.4789199768392, 128.14946821658702  346.1951159223505, 130.8863226186566  345.6345847145706, 134.2563497411344  344.8558885574295, 137.53134660901304  344.1007764274854, 140.02613205023582  343.11170329837773, 142.742840986432  341.9256620627305, 145.4820419399513  340.4161658094248, 148.4309087892404  338.6357495251027, 151.39299826971458  336.96390780389197, 153.8042407229952  335.1217125423683, 156.14911606456573  332.78201789880364, 158.75747899785662  330.6492802893064, 160.83951010236112  328.72399069506, 162.52161163726987  326.44797123188874, 164.30092744652535  323.9941996498796, 165.9918327819671  321.071337872934, 167.74091092246897  318.5072817588639, 169.0601096411774  315.47681045078843, 170.38577576720044  312.2751729438893, 171.53473945829538  309.369715603382, 172.36857788146696  306.88342075055783, 172.93200418519132  303.9509425145686, 173.42618521164675  300.85237719544773, 173.7543638068988  297.0303087763733, 173.89038252513316  293.5879042552831, 173.75786839672634  291.05235891063126, 173.50494536564554  287.8354163351133, 172.9926149657837  284.6113291368551, 172.25793781130744  281.9854601848121, 171.48504877644103  278.8787344198126, 170.35973683408562  276.40639020475606, 169.29171731673705  273.6178879682521, 167.88918723990696  270.4000819430665, 165.98379084878795  268.3258557463422, 164.57150886982905  265.9536209015769, 162.7589248527903  263.72551442976766, 160.83910377310573  261.51356801105214, 158.68882628408508  259.16368974052494, 156.08017553423832  257.2841121875074, 153.6958016029689  255.2993122877353, 150.8035161024898  253.60781438879616, 147.94402475899594  252.06249343947556, 144.89007100603737  250.98471355480535, 142.40068635783385  249.95168067938252, 139.58710175500377  248.84827665604567, 135.7963376189783  248.12245409325934, 132.3985006450477  247.68736011268862, 129.47706271353448  247.42239957741756, 126.57971333471033  247.32361077720628, 123.9559928486051  247.37575636497846, 120.9481980990563  247.6164217968557, 117.85513515526856  248.09670297670039, 114.50414286536618  248.80180274746297, 111.19652114435861  249.77025466686078, 107.80637564462442  250.70882445560346, 105.15247505307676  252.09213854473177, 101.9035560581999  253.62846945927734, 98.88029201529153  255.54352463540414, 95.67823632786707  257.60074425975273, 92.73399824601204  259.45404585425644, 90.409811835694  261.37293576273083, 88.2619604709356  263.47921117947226, 86.15842100451364  265.41018938329375, 84.42766831342885  267.6938952415458, 82.58693414418593  270.51959353530157, 80.57925113518235  273.47386117760993, 78.76051630904048  276.5862586217989, 77.11990437718191  279.04368716710627, 76.00752724945569  281.73765013019465, 74.95601485810643  284.71653455322405, 73.98696191001838  288.07657274817404, 73.12480233774765  291.6796974201478, 72.45453344936291  295.13063485560076, 72.05074375184118  297.7335969958724, 71.8967161824012  301.2102347567273, 71.89210603839135  304.53475300260385, 72.10421668184757  307.2150870052518, 72.43374293579659  310.5804244109072, 73.05162751797161  313.43290657474597, 73.75873184639399  316.37598323214604, 74.67356523446891  319.6140549289432, 75.91020123456371  322.1584887260562, 77.06204647729466  324.8900710060374, 78.4898519268472  327.653076081767, 80.15586790235908  330.6139804352464, 82.22092798829772  332.7668652036556, 83.92534377148043  334.5090357468162, 85.44733464938864  336.95823612470247, 87.83707551290604  339.2471734721173, 90.38263856674126  340.8387820957786, 92.37678234634828  342.99456196013233, 95.4467014529657  345.0941668049315, 98.99717431863662  346.9903361358765, 102.91983123791593  348.08632465030286, 105.67665164377114  349.22970131413655, 109.22272599525272  349.94616137366376, 112.09046920870763  350.4150822647438, 114.52227022927129  350.82264743826335, 117.53662042414003  351.03476823995095, 120.42092324778973  351.0759937289851, 123.30808392053554  350.88095568640864, 126.9897097116078  350.4928435259899, 130.1297426242775  349.8499629224554, 133.4644563483867  349.1119674123937, 136.29246563978234  348.33068090624965, 138.71102201965954  347.22402624886985, 141.56133709413632  345.94077073887587, 144.33737856680898  344.05298194882283, 147.7548954210079  342.19756405611406, 150.586366976267  340.59147995273037, 152.73159074517397  338.7757976751194, 154.8907990126199  336.73797180752183, 157.0368608356161  334.50277150412927, 159.11328798247365  331.6164624297812, 161.4446867370745  328.91608285053513, 163.32416270777816  326.3832294372001, 164.85345058189736  323.76298137318975, 166.22415153372364  320.543296075198, 167.64257924266997  317.767457767153, 168.64773623813602  314.80127113335385, 169.51490212544059  311.5546157310371, 170.2358402719697  308.77920068263313, 170.66861478970768  305.8452156423219, 170.9467471650069  303.22684685111756, 171.04367362279777  300.3251819169937, 170.98592407737863  297.29283133611216, 170.7381478835325  294.00864126883084, 170.24757302921844  291.266545219367, 169.65616079803064  288.51830343991577, 168.8918723990695  285.64178012846776, 167.9005475286716  282.9159372492187, 166.76881897015852  279.8934232223942, 165.2732902850061  276.9814138226441, 163.5698903249618  274.5708655151747, 161.9431850118682  272.1846969630274, 160.11541443891008  269.8088051549638, 158.04730011140194  267.27899921104404, 155.52093103576712  265.2963833310195, 153.25434179739744  263.1281088420632, 150.41024017445068  261.46688247264893, 147.89742387252096  259.7211226877326, 144.82962106410858  258.4246614769391, 142.15952147958026  257.27116044249254, 139.3702573757225  256.0963609829105, 135.88210695263217  255.2614898062148, 132.68271272183037  254.71015179783763, 129.85551608894548  254.3816007341015, 127.51774473718962  254.08953465142028, 123.8440948507925  254.04416121790422, 121.2892996576676  254.16460398134947, 118.16621236798531  254.5198881240117, 114.72107697569135  255.02651298391274, 111.72636772120394  255.6885757143776, 108.85769502957739  256.7588723685948, 105.31124143745745  257.77734511236696, 102.59887006606236  259.2004117469788, 99.43749301621591  260.4622333887521, 97.0420296823521  262.00535338793946, 94.47649554561553  263.8397437416829, 91.81294632729144  265.9335245338218, 89.15543956360239  268.16801376101745, 86.67435249740119  270.5971685623055, 84.30760479062191  272.51114865894414, 82.64425535084837  274.6602579513556, 80.95714242179008  277.500093117121, 78.9844054217867  280.047540522878, 77.43842757350328  282.7237265810441, 76.01710476861243  285.92362025822223, 74.56500760174316  289.1255455816773, 73.35740213390581  291.93626048414126, 72.48599857107546  294.98201993045, 71.72924757980137  298.54749142475964, 71.08044642040856  302.00689405303274, 70.68651867252233  304.95240868596505, 70.53171061230432  307.51831021207005, 70.52839225671882  310.66079295154185, 70.69389693458437  313.7431728219905, 71.03691839892728  317.5602467773011, 71.71803458539179  320.9434626701927, 72.56921988169047  323.75729276361454, 73.46555682345333  326.6975589769984, 74.59191506364132  329.9553545730665, 76.0857168494584  332.73066803915657, 77.57734646679782  335.249333789325, 79.12573181591931  338.2571183806425, 81.24866673213083  340.59759182194654, 83.13269697657174  342.4738510193785, 84.81350164394044  344.63848547542216, 86.96709748854659  346.73988494109915, 89.31637642342217  348.64001598228407, 91.7088176834492  350.56208880325875, 94.45034317891692  352.1436069170784, 97.01381858075962  353.57945599284864, 99.66275518323756  355.01621930944344, 102.74418525905183  355.9737172693319, 105.13512817994969  357.1298086527815, 108.59081628161327  358.0014356967023, 111.92475459406015  358.6391186718451, 115.21052088024462  359.0395053618531, 118.23926528898474  359.26368059811665, 121.28383114310577  359.30493994792215, 124.62287565986178  359.1541071422525, 127.66260788888249  358.8173448414808, 130.73124028619125  358.3905298194882, 133.2975701510529  357.6691938088966, 136.48931523362236  356.9521242554863, 138.98401602291696  355.8724566328172, 142.06950261913065  354.335448502846, 145.64909405506438  352.7930395798556, 148.6415481821845  351.26627433319675, 151.20214203239124  349.53754651623456, 153.74611870909195  347.6904922340321, 156.1412603656286  345.7383002570033, 158.39097000951486  343.3473234753341, 160.82478066685405  341.09507427360177, 162.84691206696306  338.6135537895282, 164.8153572142066  335.77581799158224, 166.77757197953457  333.14850995675977, 168.35590718085376  330.5615808916895, 169.70991477243868  327.4602051285524, 171.09576841941308  324.59260413033684, 172.1639403102324  321.75918558072914, 173.03251988473795  318.8352571894883, 173.74327440430437  315.92363718860787, 174.270960663942  312.3237123595201, 174.68248754770136  308.90162430119835, 174.8279026299661  306.33665394630356, 174.7813271390696  303.8264364585697, 174.60696109735989  300.2562413866663, 174.13284257788823  297.33547897754016, 173.54127797322965  294.09603591950616, 172.6640977628188  291.14959011536365, 171.65076339108853  288.1047957010365, 170.3732642122122  285.78015217030617, 169.2265353320218  282.7145841727983, 167.46750212476337  280.2069062429104, 165.79430597270144  277.1990031388935, 163.45977509675714  274.62130113399724, 161.12715735439022  272.56265089206204, 159.00000677215425  270.6358883542649, 156.75148225526283  268.611115813996, 154.0452109018139  267.1981904803828, 151.88802581545204  265.58971919262376, 149.08012135700426  264.422623058508, 146.72596816410282  263.1118218110772, 143.61275806140313 "></polyline>
</svg>
